<?xml version="1.0" encoding="utf-8"?>
<!-- Generator: Adobe Illustrator 16.0.0, SVG Export Plug-In . SVG Version: 6.00 Build 0)  -->
<!DOCTYPE svg PUBLIC "-//W3C//DTD SVG 1.1//EN" "http://www.w3.org/Graphics/SVG/1.1/DTD/svg11.dtd">
<svg version="1.1" id="Version_1.0" xmlns="http://www.w3.org/2000/svg" xmlns:xlink="http://www.w3.org/1999/xlink" x="0px"
	 y="0px" width="400px" height="400px" viewBox="0 0 400 400" enable-background="new 0 0 400 400" xml:space="preserve">
<g id="main">
	
		<path fill="none" stroke="#000000" stroke-width="4.5267" stroke-linecap="round" stroke-linejoin="round" stroke-miterlimit="10" d="
		M173.997,143.575c32.958-0.323,85.872-12.428,104.147,6.204c18.293,18.649,39.504,89.043,5.578,105.659
		c-33.941,16.631-175.242,11.326-209.127-5.951c-33.875-17.271-10.749-80.041,5.815-97.707
		C96.974,134.13,141.038,143.914,173.997,143.575"/>
	
		<line fill="none" stroke="#000000" stroke-width="4.5267" stroke-linejoin="round" stroke-miterlimit="10" x1="107.994" y1="200.472" x2="258.326" y2="200.472"/>
	
		<line fill="none" stroke="#000000" stroke-width="4.5267" stroke-linejoin="round" stroke-miterlimit="10" x1="118.048" y1="238.109" x2="248.256" y2="162.833"/>
</g>
<g id="example" display="none">
	<text id="varH" transform="matrix(1 0 0 1 317.2949 202.5371)" display="inline" font-family="sans-serif" font-size="22.515">570M</text>
</g>
<g id="template" display="none">
	
		<rect x="321.496" y="172.549" display="inline" fill="none" stroke="#000000" stroke-width="1.6954" stroke-linecap="round" stroke-miterlimit="8" width="49.847" height="46.794"/>
	<text transform="matrix(1 0 0 1 337.4551 202.5371)" display="inline" font-family="sans-serif" font-size="22.515">H</text>
</g>
</svg>
