<?xml version="1.0" encoding="utf-8"?>
<!-- Generator: Adobe Illustrator 16.0.0, SVG Export Plug-In . SVG Version: 6.00 Build 0)  -->
<!DOCTYPE svg PUBLIC "-//W3C//DTD SVG 1.1//EN" "http://www.w3.org/Graphics/SVG/1.1/DTD/svg11.dtd">
<svg version="1.1" id="Version_1.0" xmlns="http://www.w3.org/2000/svg" xmlns:xlink="http://www.w3.org/1999/xlink" x="0px"
	 y="0px" width="612px" height="792px" viewBox="0 0 612 792" enable-background="new 0 0 612 792" xml:space="preserve">
<g id="main" transform="translate(0 -90)">
	<polygon fill="none" stroke="#000000" stroke-width="5" points="299,337 334.229,451.854 449,451.59 356,522.309 391.705,636.998 
		299,565.854 206.295,636.998 242,522.309 149,451.59 263.771,451.854 	"/>
	<text id="varT" transform="matrix(1 0 0 1 293.1875 516.5)" font-family="sans-serif" font-size="48"> </text>
</g>
<g id="template" display="none">
	<g transform="translate(0 15)" display="inline">
		<rect x="277" y="370.5" fill="#FFFFFF" stroke="#000000" stroke-width="5" width="50" height="50"/>
		<text transform="matrix(1 0 0 1 285.6289 411.5)" font-family="sans-serif" font-size="48">T</text>
	</g>
	<g id="points" transform="translate(0 50)" display="inline">
		<line fill="none" stroke="#000000" stroke-width="5" x1="400.168" y1="263.5" x2="305.813" y2="361.43"/>
		<polygon stroke="#000000" points="303.641,363.5 309.666,348.084 319.327,358.217 		"/>
		<text transform="matrix(1 0 0 1 359.5 232.793)" font-family="sans-serif" font-size="24">CENTER</text>
		<text transform="matrix(1 0 0 1 370.5 257.793)" font-family="sans-serif" font-size="24">POINT</text>
	</g>
</g>
<g id="example" display="none">
	<text id="varTe" transform="matrix(1 0 0 1 286.5078 426.5)" display="inline" font-family="sans-serif" font-size="48">3</text>
</g>
</svg>
