<?xml version="1.0" encoding="utf-8"?>
<!-- Generator: Adobe Illustrator 16.0.0, SVG Export Plug-In . SVG Version: 6.00 Build 0)  -->
<!DOCTYPE svg PUBLIC "-//W3C//DTD SVG 1.1//EN" "http://www.w3.org/Graphics/SVG/1.1/DTD/svg11.dtd">
<svg version="1.1" id="Version_1.0" xmlns="http://www.w3.org/2000/svg" xmlns:xlink="http://www.w3.org/1999/xlink" x="0px"
	 y="0px" width="400px" height="400px" viewBox="0 0 400 400" enable-background="new 0 0 400 400" xml:space="preserve">
<g id="main" transform="translate(0 -90)">
	<polygon fill="none" stroke="#000000" stroke-width="5" points="199,140 234.229,254.854 349,254.59 256,325.309 291.705,439.998 
		199,368.854 106.295,439.998 142,325.309 49,254.59 163.771,254.854 	"/>
	<text id="varT" transform="matrix(1 0 0 1 193.1875 319.5)" font-family="sans-serif" font-size="48"> </text>
</g>
<g id="template" display="none">
	<g transform="translate(0 15)" display="inline">
		<rect x="177" y="173.5" fill="#FFFFFF" stroke="#000000" stroke-width="5" width="50" height="50"/>
		<text transform="matrix(1 0 0 1 185.6289 214.5)" font-family="sans-serif" font-size="48">T</text>
	</g>
	<g id="points" transform="translate(0 50)" display="inline">
		<line fill="none" stroke="#000000" stroke-width="5" x1="300.168" y1="66.5" x2="205.813" y2="164.43"/>
		<polygon stroke="#000000" points="203.641,166.5 209.666,151.084 219.327,161.217 		"/>
		<text transform="matrix(1 0 0 1 259.5 35.793)" font-family="sans-serif" font-size="24">CENTER</text>
		<text transform="matrix(1 0 0 1 270.5 60.793)" font-family="sans-serif" font-size="24">POINT</text>
	</g>
</g>
<g id="example" display="none">
	<text id="varTe" transform="matrix(1 0 0 1 186.5078 229.5)" display="inline" font-family="sans-serif" font-size="48">3</text>
</g>
</svg>
