<?xml version="1.0" encoding="utf-8"?>
<!-- Generator: Adobe Illustrator 16.0.0, SVG Export Plug-In . SVG Version: 6.00 Build 0)  -->
<!DOCTYPE svg PUBLIC "-//W3C//DTD SVG 1.1//EN" "http://www.w3.org/Graphics/SVG/1.1/DTD/svg11.dtd">
<svg version="1.1" id="Version_1.0" xmlns="http://www.w3.org/2000/svg" xmlns:xlink="http://www.w3.org/1999/xlink" x="0px"
	 y="0px" width="400px" height="400px" viewBox="0 0 400 400" enable-background="new 0 0 400 400" xml:space="preserve">
<g id="main" transform="translate(0 -90)">
	<g>
		<line fill="none" stroke="#000000" stroke-width="5" x1="75.786" y1="246.5" x2="75.786" y2="191.5"/>
		<line fill="none" stroke="#000000" stroke-width="5" x1="327.214" y1="246.5" x2="327.214" y2="191.5"/>
		<line fill="none" stroke="#000000" stroke-width="5" x1="276.93" y1="246.5" x2="276.93" y2="191.5"/>
		<line fill="none" stroke="#000000" stroke-width="5" x1="126.071" y1="246.5" x2="126.071" y2="191.5"/>
		<line fill="none" stroke="#000000" stroke-width="5" x1="176.357" y1="246.5" x2="176.357" y2="191.5"/>
		<line fill="none" stroke="#000000" stroke-width="5" x1="226.643" y1="246.5" x2="226.643" y2="191.5"/>
	</g>
	<line fill="none" stroke="#000000" stroke-width="10" x1="20.5" y1="246.5" x2="382.5" y2="246.5"/>
	<line fill="none" stroke="#000000" stroke-width="10" x1="25.5" y1="246.5" x2="25.5" y2="328.5"/>
	<line fill="none" stroke="#000000" stroke-width="10" x1="377.5" y1="246.5" x2="377.5" y2="328.5"/>
</g>
<g id="template" transform="translate(0 15)" display="none">
	<text transform="matrix(1 0 0 1 147.2051 313.793)" display="inline" font-family="sans-serif" font-size="24">CENTER</text>
	<text transform="matrix(1 0 0 1 158.2051 338.793)" display="inline" font-family="sans-serif" font-size="24">POINT</text>
	<g transform="translate(0 50)" display="inline">
		<line fill="none" stroke="#000000" stroke-width="5" x1="199.5" y1="113.475" x2="199.5" y2="239.5"/>
		<polygon stroke="#000000" points="199.05,98.099 206.447,112.905 192.452,113.28 		"/>
	</g>
</g>
</svg>
