<?xml version="1.0" encoding="utf-8"?>
<!-- Generator: Adobe Illustrator 16.0.0, SVG Export Plug-In . SVG Version: 6.00 Build 0)  -->
<!DOCTYPE svg PUBLIC "-//W3C//DTD SVG 1.1//EN" "http://www.w3.org/Graphics/SVG/1.1/DTD/svg11.dtd">
<svg version="1.1" id="Version_1.0" xmlns="http://www.w3.org/2000/svg" xmlns:xlink="http://www.w3.org/1999/xlink" x="0px"
	 y="0px" width="612px" height="792px" viewBox="0 0 612 792" enable-background="new 0 0 612 792" xml:space="preserve">
<g id="main">
	
		<rect x="241.209" y="138.828" fill="none" stroke="#000000" stroke-width="4" stroke-linecap="round" stroke-miterlimit="8" width="128.229" height="170.972"/>
	<polygon fill="none" stroke="#000000" stroke-width="4" stroke-linecap="round" stroke-miterlimit="8" points="305.323,396.479 
		241.209,310.994 369.438,310.994 	"/>
</g>
<g id="template" display="none">
	<g id="varH" display="inline">
		<text id="H" transform="matrix(1 0 0 1 294.7974 116.7295)" font-family="sans-serif" font-size="24">H</text>
		
			<rect x="277.333" y="84.504" fill="none" stroke="#000000" stroke-width="4" stroke-linecap="round" stroke-miterlimit="8" width="56.633" height="53.197"/>
	</g>
	<g id="varT" display="inline">
		
			<rect x="369.587" y="138.345" fill="none" stroke="#000000" stroke-width="4" stroke-linecap="round" stroke-miterlimit="8" width="56.636" height="53.179"/>
		<text id="T" transform="matrix(1 0 0 1 387.7773 170.4531)" font-family="sans-serif" font-size="24">T</text>
	</g>
	<g id="varW" display="inline">
		<text transform="matrix(1 0 0 1 228.939 168.5811)" font-family="sans-serif" font-size="24">-</text>
		<polygon fill="none" stroke="#000000" stroke-width="4" stroke-linecap="round" stroke-miterlimit="8" points="190.777,137.345 
			190.777,179.839 222.671,179.367 223.671,138.521 		"/>
		<text id="W" transform="matrix(1 0 0 1 195.2261 168.5811)" font-family="sans-serif" font-size="24">W</text>
	</g>
	<g id="varH1" display="inline">
		
			<rect x="276.404" y="153.716" fill="none" stroke="#000000" stroke-width="4" stroke-linecap="round" stroke-miterlimit="8" width="53.833" height="53.197"/>
		<text id="H1" transform="matrix(1 0 0 1 285.6211 191.0762)" font-family="sans-serif" font-size="34">H1</text>
	</g>
	<g id="varW1" display="inline">
		
			<rect x="190.777" y="179.607" fill="none" stroke="#000000" stroke-width="4" stroke-linecap="round" stroke-miterlimit="8" width="49.993" height="42.513"/>
		<text id="W1" transform="matrix(1 0 0 1 196.8784 211.0469)" font-family="sans-serif" font-size="24">W1</text>
	</g>
	<g id="varN" display="inline">
		
			<rect x="369.587" y="256.313" fill="none" stroke="#000000" stroke-width="4" stroke-miterlimit="8" width="56.636" height="53.18"/>
		<text id="N" transform="matrix(1 0 0 1 387.7773 288.5557)" font-family="sans-serif" font-size="24">N</text>
	</g>
	<g id="points" display="inline">
		<path stroke="#000000" stroke-width="4" stroke-linejoin="bevel" stroke-miterlimit="10" d="M369.438,397.424h-35.618
			c-0.657,0-1.19-0.517-1.19-1.176c0-0.658,0.533-1.192,1.19-1.192h35.618c0.66,0,1.192,0.534,1.192,1.192
			C370.63,396.907,370.098,397.424,369.438,397.424L369.438,397.424z M336.188,403.372l-23.739-7.124l23.739-7.124V403.372z"/>
		<g>
			<text transform="matrix(1 0 0 1 375.958 420.1211)" font-family="sans-serif" font-size="23.6512">POINT</text>
			<text transform="matrix(1 0 0 1 375.958 392.4795)" font-family="sans-serif" font-size="23.6512">ANCHOR</text>
		</g>
	</g>
</g>
</svg>
