<?xml version="1.0" encoding="utf-8"?>
<!-- Generator: Adobe Illustrator 16.0.0, SVG Export Plug-In . SVG Version: 6.00 Build 0)  -->
<!DOCTYPE svg PUBLIC "-//W3C//DTD SVG 1.1//EN" "http://www.w3.org/Graphics/SVG/1.1/DTD/svg11.dtd">
<svg version="1.1" id="Version_1.0" xmlns="http://www.w3.org/2000/svg" xmlns:xlink="http://www.w3.org/1999/xlink" x="0px"
	 y="0px" width="612px" height="792px" viewBox="0 0 612 792" enable-background="new 0 0 612 792" xml:space="preserve">
<g id="main">
	
		<line fill="none" stroke="#000000" stroke-width="6.0593" stroke-linejoin="round" stroke-miterlimit="10" x1="195.504" y1="289.094" x2="413.366" y2="506.954"/>
	
		<line fill="none" stroke="#000000" stroke-width="6.0593" stroke-linejoin="round" stroke-miterlimit="10" x1="195.504" y1="506.954" x2="413.366" y2="289.094"/>
	<text id="varT" transform="matrix(1 0 0 1 409.5264 413.6748)" font-family="sans-serif" font-size="48"> </text>
</g>
<g id="template" display="none">
	<g display="inline">
		<text transform="matrix(1 0 0 1 401.5342 413.6748)" font-family="sans-serif" font-size="48">T</text>
		
			<rect x="387.194" y="359.924" fill="none" stroke="#000000" stroke-width="5" stroke-linejoin="round" stroke-miterlimit="10" width="57" height="74.411"/>
	</g>
	<g id="points" display="inline">
		<g>
			<text transform="matrix(1 0 0 1 259.9834 217.1797)" font-family="sans-serif" font-size="30.1374">POINT</text>
			<text transform="matrix(1 0 0 1 244.3584 182.3096)" font-family="sans-serif" font-size="30.1374">CENTER</text>
		</g>
		<g>
			<g>
				
					<line fill="none" stroke="#000000" stroke-width="7" stroke-linejoin="round" stroke-miterlimit="10" x1="305.207" y1="359.924" x2="305.207" y2="228.526"/>
				<path d="M310.588,372.323c2.623-8.685,5.036-14.322,7.831-21.284h-26.479c1.185,2.491,5.212,12.604,7.832,21.284
					c2.807,9.289,4.727,17.713,5.412,23.177C305.862,390.036,307.782,381.612,310.588,372.323z"/>
			</g>
		</g>
	</g>
</g>
<g id="example" display="none">
	<g id="varTe" display="inline">
		<text transform="matrix(1 0 0 1 402.8467 413.6748)" font-family="sans-serif" font-size="48">8</text>
	</g>
</g>
</svg>
