<?xml version="1.0" encoding="utf-8"?>
<!-- Generator: Adobe Illustrator 16.0.0, SVG Export Plug-In . SVG Version: 6.00 Build 0)  -->
<!DOCTYPE svg PUBLIC "-//W3C//DTD SVG 1.1//EN" "http://www.w3.org/Graphics/SVG/1.1/DTD/svg11.dtd">
<svg version="1.1" id="Version_1.0" xmlns="http://www.w3.org/2000/svg" xmlns:xlink="http://www.w3.org/1999/xlink" x="0px"
	 y="0px" width="612px" height="792px" viewBox="0 0 612 792" enable-background="new 0 0 612 792" xml:space="preserve">
<g id="main">
	
		<rect x="242.107" y="137.082" fill="none" stroke="#000000" stroke-width="4" stroke-linecap="round" stroke-miterlimit="8" width="128.229" height="170.972"/>
	<text transform="matrix(1 0 0 1 265.0811 187.9458)" font-family="sans-serif" font-size="34">AMN</text>
	<polygon fill="none" stroke="#000000" stroke-width="4" stroke-linecap="round" stroke-miterlimit="8" points="306.221,394.733 
		242.107,309.248 370.335,309.248 	"/>
</g>
<g id="template" display="none">
	<g id="H" display="inline">
		<text id="varH" transform="matrix(1 0 0 1 295.6948 114.9829)" font-family="sans-serif" font-size="24">H</text>
		
			<rect x="278.231" y="82.757" fill="none" stroke="#000000" stroke-width="4" stroke-linecap="round" stroke-miterlimit="8" width="56.634" height="53.197"/>
	</g>
	<g id="T" display="inline">
		
			<rect x="370.484" y="136.599" fill="none" stroke="#000000" stroke-width="4" stroke-linecap="round" stroke-miterlimit="8" width="56.636" height="53.179"/>
		<text id="varT" transform="matrix(1 0 0 1 388.6748 168.7065)" font-family="sans-serif" font-size="24">T</text>
	</g>
	<g id="W" display="inline">
		<text transform="matrix(1 0 0 1 229.8364 166.8345)" font-family="sans-serif" font-size="24">-</text>
		<polygon fill="none" stroke="#000000" stroke-width="4" stroke-linecap="round" stroke-miterlimit="8" points="191.675,135.599 
			191.675,178.092 223.569,177.621 224.569,136.774 		"/>
		<text id="varW" transform="matrix(1 0 0 1 196.1235 166.8345)" font-family="sans-serif" font-size="24">W</text>
	</g>
	<g id="T1" display="inline">
		
			<rect x="277.302" y="227.969" fill="none" stroke="#000000" stroke-width="4" stroke-linecap="round" stroke-miterlimit="8" width="53.832" height="53.197"/>
		<text id="varT1" transform="matrix(1 0 0 1 286.5186 265.3296)" font-family="sans-serif" font-size="34">T1</text>
	</g>
	<g id="W1" display="inline">
		
			<rect x="191.675" y="177.86" fill="none" stroke="#000000" stroke-width="4" stroke-linecap="round" stroke-miterlimit="8" width="49.993" height="42.513"/>
		<text id="varW1" transform="matrix(1 0 0 1 197.7759 209.3003)" font-family="sans-serif" font-size="24">W1</text>
	</g>
	<g id="N" display="inline">
		
			<rect x="370.484" y="254.567" fill="none" stroke="#000000" stroke-width="4" stroke-miterlimit="8" width="56.636" height="53.18"/>
		<text id="varN" transform="matrix(1 0 0 1 388.6748 286.8091)" font-family="sans-serif" font-size="24">N</text>
	</g>
	<g id="points" display="inline">
		<path stroke="#000000" stroke-width="4" stroke-linejoin="bevel" stroke-miterlimit="10" d="M370.335,395.677h-35.62
			c-0.658,0-1.191-0.517-1.191-1.176c0-0.658,0.533-1.192,1.191-1.192h35.62c0.66,0,1.192,0.534,1.192,1.192
			C371.527,395.161,370.995,395.677,370.335,395.677L370.335,395.677z M337.086,401.625l-23.741-7.124l23.741-7.124V401.625z"/>
		<g>
			<text transform="matrix(1 0 0 1 376.8555 418.375)" font-family="sans-serif" font-size="23.6512">POINT</text>
			<text transform="matrix(1 0 0 1 376.8555 390.7329)" font-family="sans-serif" font-size="23.6512">ANCHOR</text>
		</g>
	</g>
</g>
<g id="example" display="none">
	<text id="varT1e" transform="matrix(1 0 0 1 276.9648 265.3296)" display="inline" font-family="sans-serif" font-size="34">UN</text>
	<text id="varW1e" transform="matrix(1 0 0 1 126.7075 184.3003)" display="inline" font-family="sans-serif" font-size="14">120700ZMAY08 </text>
	<text id="varNe" transform="matrix(1 0 0 1 388.6748 286.8091)" display="inline" font-family="sans-serif" font-size="23.6512"> </text>
	<text id="varWe" transform="matrix(1 0 0 1 125.1558 166.8345)" display="inline" font-family="sans-serif" font-size="14">080700ZMAY08 - </text>
	<text id="varHe" transform="matrix(1 0 0 1 243.9106 114.9829)" display="inline" font-family="sans-serif" font-size="23.6512">WEAPONS</text>
	<text id="varTe" transform="matrix(1 0 0 1 388.6748 168.7065)" display="inline" font-family="sans-serif" font-size="23.6512">3</text>
</g>
</svg>
