<?xml version="1.0" encoding="utf-8"?>
<!-- Generator: Adobe Illustrator 16.0.0, SVG Export Plug-In . SVG Version: 6.00 Build 0)  -->
<!DOCTYPE svg PUBLIC "-//W3C//DTD SVG 1.1//EN" "http://www.w3.org/Graphics/SVG/1.1/DTD/svg11.dtd">
<svg version="1.1" id="Version_1.0" xmlns="http://www.w3.org/2000/svg" xmlns:xlink="http://www.w3.org/1999/xlink" x="0px"
	 y="0px" width="612px" height="792px" viewBox="0 0 612 792" enable-background="new 0 0 612 792" xml:space="preserve">
<g id="main">
	
		<line fill="none" stroke="#000000" stroke-width="7" stroke-linejoin="round" stroke-miterlimit="10" x1="186.231" y1="475.5" x2="425.572" y2="317.81"/>
	
		<line fill="none" stroke="#000000" stroke-width="7" stroke-linejoin="round" stroke-miterlimit="10" x1="167.751" y1="396.658" x2="444.082" y2="396.658"/>
	<text id="varT" transform="matrix(1 0 0 1 449.5078 408.6914)" font-family="sans-serif" font-size="36"> </text>
</g>
<g id="template" display="none">
	<g display="inline">
		
			<rect x="454.508" y="363.434" fill="none" stroke="#000000" stroke-width="5" stroke-linejoin="round" stroke-miterlimit="10" width="57" height="60.098"/>
		<text transform="matrix(1 0 0 1 471.5078 408.6914)" font-family="sans-serif" font-size="36">T</text>
	</g>
	<g id="points" display="inline">
		<g>
			<text transform="matrix(1 0 0 1 259.2969 278.0361)" font-family="sans-serif" font-size="30.1374">POINT</text>
			<text transform="matrix(1 0 0 1 243.6719 243.166)" font-family="sans-serif" font-size="30.1374">CENTER</text>
		</g>
		<g>
			<g>
				
					<line fill="none" stroke="#000000" stroke-width="5" stroke-linejoin="round" stroke-miterlimit="10" x1="305.52" y1="369.78" x2="305.52" y2="283.531"/>
				<path d="M309.363,378.637c1.873-6.199,3.598-10.229,5.594-15.203H296.04c0.846,1.781,3.723,9.004,5.594,15.203
					c2.005,6.637,3.376,12.653,3.866,16.555C305.989,391.29,307.361,385.273,309.363,378.637z"/>
			</g>
		</g>
	</g>
</g>
<g id="example" display="none">
	<text id="varTe" transform="matrix(1 0 0 1 448.5078 408.6914)" display="inline" font-family="sans-serif" font-size="36">JOINT</text>
</g>
</svg>
