<?xml version="1.0" encoding="utf-8"?>
<!-- Generator: Adobe Illustrator 16.0.0, SVG Export Plug-In . SVG Version: 6.00 Build 0)  -->
<!DOCTYPE svg PUBLIC "-//W3C//DTD SVG 1.1//EN" "http://www.w3.org/Graphics/SVG/1.1/DTD/svg11.dtd">
<svg version="1.1" id="Version_1.0" xmlns="http://www.w3.org/2000/svg" xmlns:xlink="http://www.w3.org/1999/xlink" x="0px"
	 y="0px" width="400px" height="400px" viewBox="0 0 400 400" enable-background="new 0 0 400 400" xml:space="preserve">
<g id="main">
	<line fill="none" stroke="#000000" stroke-width="5" stroke-dasharray="12,12" x1="89.5" y1="183.445" x2="331.842" y2="183.445"/>
	<line fill="none" stroke="#000000" stroke-width="5" x1="335.5" y1="183.592" x2="294.5" y2="149.091"/>
	<line fill="none" stroke="#000000" stroke-width="5" x1="335.314" y1="183.748" x2="294.314" y2="218.248"/>
</g>
<g id="template" display="none">
	<g id="varN" display="inline">
		<rect x="125.5" y="157" fill="#FFFFFF" stroke="#000000" stroke-width="5" width="43" height="43"/>
		<text transform="matrix(1 0 0 1 134 191.5)" font-family="sans-serif" font-size="36">N</text>
	</g>
	<g id="points" display="inline">
		<g>
			<text transform="matrix(1 0 0 1 67.5 288.6279)" font-family="sans-serif" font-size="24">PT 2</text>
			<g>
				<g>
					<line fill="none" stroke="#000000" stroke-width="5" x1="90.5" y1="210.945" x2="90.5" y2="268.5"/>
					<path d="M86.657,202.09c-1.874,6.2-3.598,10.229-5.594,15.202H99.98c-0.846-1.78-3.723-9.002-5.594-15.202
						c-2.005-6.635-3.376-12.652-3.865-16.556C90.031,189.438,88.66,195.455,86.657,202.09z"/>
				</g>
			</g>
		</g>
		<g>
			<text transform="matrix(1 0 0 1 307.5 285.8506)" font-family="sans-serif" font-size="24">PT 1</text>
			<g>
				<g>
					<line fill="none" stroke="#000000" stroke-width="5" x1="337.5" y1="206.945" x2="337.5" y2="264.5"/>
					<path d="M333.656,198.09c-1.873,6.2-3.6,10.229-5.594,15.202h18.916c-0.847-1.78-3.724-9.002-5.595-15.202
						c-2.005-6.636-3.377-12.653-3.864-16.556C337.031,185.438,335.66,191.455,333.656,198.09z"/>
				</g>
			</g>
		</g>
	</g>
</g>
<g id="example" display="none">
	<rect x="124.5" y="157" display="inline" fill="#FFFFFF" width="87.171" height="43"/>
	<text id="varNe" transform="matrix(1 0 0 1 132 191.5)" display="inline" font-family="sans-serif" font-size="36">ENY</text>
</g>
</svg>
