<?xml version="1.0" encoding="utf-8"?>
<!-- Generator: Adobe Illustrator 16.0.0, SVG Export Plug-In . SVG Version: 6.00 Build 0)  -->
<!DOCTYPE svg PUBLIC "-//W3C//DTD SVG 1.1//EN" "http://www.w3.org/Graphics/SVG/1.1/DTD/svg11.dtd">
<svg version="1.1" id="Version_1.0" xmlns="http://www.w3.org/2000/svg" xmlns:xlink="http://www.w3.org/1999/xlink" x="0px"
	 y="0px" width="400px" height="400px" viewBox="0 0 400 400" enable-background="new 0 0 400 400" xml:space="preserve">
<g id="main" display="none">
	
		<path display="inline" fill="none" stroke="#000000" stroke-width="5" stroke-linecap="round" stroke-linejoin="round" stroke-miterlimit="10" d="
		M242.201,331.283c14.973,0,27.107-11.415,27.107-25.475c0-14.084-12.138-25.479-27.107-25.479"/>
	
		<path display="inline" fill="none" stroke="#000000" stroke-width="5" stroke-linecap="round" stroke-linejoin="round" stroke-miterlimit="10" d="
		M242.201,279.984c14.973,0,27.107-11.414,27.107-25.478c0-14.082-12.138-25.476-27.107-25.476"/>
	
		<path display="inline" fill="none" stroke="#000000" stroke-width="5" stroke-linecap="round" stroke-linejoin="round" stroke-miterlimit="10" d="
		M242.201,228.535c14.973,0,27.107-11.414,27.107-25.475c0-14.083-12.138-25.479-27.107-25.479"/>
	
		<path display="inline" fill="none" stroke="#000000" stroke-width="5" stroke-linecap="round" stroke-linejoin="round" stroke-miterlimit="10" d="
		M242.201,176.04c14.973,0,27.107-11.415,27.107-25.475c0-14.083-12.138-25.476-27.107-25.476"/>
	
		<path display="inline" fill="none" stroke="#000000" stroke-width="5" stroke-linecap="round" stroke-linejoin="round" stroke-miterlimit="10" d="
		M242.201,125.089c14.973,0,27.107-11.415,27.107-25.475c0-14.083-12.138-25.477-27.107-25.477"/>
</g>
<g id="template" display="none">
	<g display="inline">
		<text transform="matrix(1 0 0 1 241.5557 376.7637)" font-family="sans-serif" font-size="23.6512">H</text>
		
			<rect x="222.966" y="344.538" fill="none" stroke="#000000" stroke-width="4" stroke-linecap="round" stroke-miterlimit="8" width="56.634" height="53.197"/>
	</g>
	<g display="inline">
		<text transform="matrix(1 0 0 1 238.9092 39.0449)" font-family="sans-serif" font-size="23.6512">H</text>
		
			<rect x="221.318" y="6.82" fill="none" stroke="#000000" stroke-width="4" stroke-linecap="round" stroke-miterlimit="8" width="56.635" height="53.197"/>
	</g>
	<g id="points" display="inline">
		<g>
			<text transform="matrix(1 0 0 1 97.9819 82.5664)" font-family="sans-serif" font-size="30.9473">P</text>
			<text transform="matrix(1 0 0 1 118.5 82.5664)" font-family="sans-serif" font-size="30.9473">T</text>
			<text transform="matrix(1 0 0 1 137.8677 82.5664)" font-family="sans-serif" font-size="30.9473"> </text>
			<text transform="matrix(1 0 0 1 146.4658 82.5664)" font-family="sans-serif" font-size="30.9473">1</text>
			<text transform="matrix(1 0 0 1 163.647 82.5664)" font-family="sans-serif" font-size="30.9473">  </text>
			<g>
				<g>
					
						<line fill="none" stroke="#000000" stroke-width="5" stroke-linecap="round" stroke-linejoin="round" stroke-miterlimit="10" x1="163.654" y1="74.117" x2="211.654" y2="74.117"/>
					<path d="M220.51,70.273c-6.199-1.874-10.229-3.598-15.203-5.594v18.917c1.781-0.846,9.004-3.723,15.203-5.594
						c6.637-2.005,12.652-3.377,16.555-3.866C233.164,73.648,227.146,72.276,220.51,70.273z"/>
				</g>
			</g>
		</g>
		<g>
			<text transform="matrix(1 0 0 1 93.3281 339.5088)" font-family="sans-serif" font-size="30.9473">P</text>
			<text transform="matrix(1 0 0 1 113.8462 339.5088)" font-family="sans-serif" font-size="30.9473">T</text>
			<text transform="matrix(1 0 0 1 133.2139 339.5088)" font-family="sans-serif" font-size="30.9473"> 2  </text>
			<g>
				<g>
					
						<line fill="none" stroke="#000000" stroke-width="5" stroke-linecap="round" stroke-linejoin="round" stroke-miterlimit="10" x1="164" y1="331.059" x2="212" y2="331.059"/>
					<path d="M220.855,327.215c-6.198-1.873-10.229-3.598-15.203-5.594v18.917c1.781-0.847,9.005-3.724,15.203-5.595
						c6.637-2.004,12.65-3.377,16.556-3.864C233.51,330.59,227.492,329.219,220.855,327.215z"/>
				</g>
			</g>
		</g>
	</g>
</g>
<g id="example1" display="none">
	<text id="varHe1" transform="matrix(1 0 0 1 225.7803 376.7637)" display="inline" font-family="sans-serif" font-size="23.6512">ENY</text>
	<text id="varHe" transform="matrix(1 0 0 1 223.1338 39.0449)" display="inline" font-family="sans-serif" font-size="23.6512">ENY</text>
	<g display="inline">
		<path fill="none" stroke="#808080" stroke-width="5" stroke-linejoin="round" stroke-miterlimit="8" d="M103.722,335.097
			c11.992-4.291,37.308,1.634,50.252,2.45c11.231,6.132,9.517,5.314,23.985,7.359c4.568,0.612,13.704,2.452,13.704,2.452
			c8.756-0.411,17.513-0.612,26.269-1.229c8.566-0.611,16.561-7.56,25.127-9.808c20.748,1.225,39.783,3.682,60.532,3.682"/>
		<path fill="none" stroke="#808080" stroke-width="5" stroke-linejoin="round" stroke-miterlimit="8" d="M114.722,55.847
			c17.921-2.568,35.843-3.139,53.766-5.137c16.363,1.712,30.583,8.276,46.752,10.274c10.325,3.139,20.065,5.993,30.39,8.562
			c9.74-0.57,19.481-0.856,29.221-1.712c11.104-1.142,21.818-6.563,32.728-8.562c4.676-2.283,2.338-1.712,7.014-1.712"/>
		
			<polygon fill="none" stroke="#808080" stroke-width="3" stroke-linecap="round" stroke-linejoin="round" stroke-miterlimit="8" points="
			134.148,170.06 86.868,209.729 134.148,249.396 181.428,209.729 134.148,170.06 		"/>
	</g>
</g>
<g id="example2" display="none">
	<g display="inline">
		<path fill="none" stroke="#808080" stroke-width="5" stroke-linejoin="round" stroke-miterlimit="8" d="M103.722,335.097
			c11.992-4.291,37.308,1.634,50.252,2.45c11.231,6.132,9.517,5.314,23.985,7.359c4.568,0.612,13.704,2.452,13.704,2.452
			c8.756-0.411,17.513-0.612,26.269-1.229c8.566-0.611,16.561-7.56,25.127-9.808c20.748,1.225,39.783,3.682,60.532,3.682"/>
		<path fill="none" stroke="#808080" stroke-width="5" stroke-linejoin="round" stroke-miterlimit="8" d="M114.722,55.847
			c17.921-2.568,35.843-3.139,53.766-5.137c16.363,1.712,30.583,8.276,46.752,10.274c10.325,3.139,20.065,5.993,30.39,8.562
			c9.74-0.57,19.481-0.856,29.221-1.712c11.104-1.142,21.818-6.563,32.728-8.562c4.676-2.283,2.338-1.712,7.014-1.712"/>
		
			<polygon fill="#FF0000" stroke="#808080" stroke-width="3" stroke-linecap="round" stroke-linejoin="round" stroke-miterlimit="8" points="
			134.148,170.06 86.868,209.729 134.148,249.396 181.428,209.729 134.148,170.06 		"/>
	</g>
</g>
<g id="main2">
	<path fill="none" stroke="#FF0000" stroke-width="5" stroke-linecap="round" stroke-linejoin="round" stroke-miterlimit="10" d="
		M242.201,331.283c14.973,0,27.107-11.415,27.107-25.475c0-14.084-12.138-25.479-27.107-25.479"/>
	<path fill="none" stroke="#FF0000" stroke-width="5" stroke-linecap="round" stroke-linejoin="round" stroke-miterlimit="10" d="
		M242.201,279.984c14.973,0,27.107-11.414,27.107-25.478c0-14.082-12.138-25.476-27.107-25.476"/>
	<path fill="none" stroke="#FF0000" stroke-width="5" stroke-linecap="round" stroke-linejoin="round" stroke-miterlimit="10" d="
		M242.201,228.535c14.973,0,27.107-11.414,27.107-25.475c0-14.083-12.138-25.479-27.107-25.479"/>
	<path fill="none" stroke="#FF0000" stroke-width="5" stroke-linecap="round" stroke-linejoin="round" stroke-miterlimit="10" d="
		M242.201,176.04c14.973,0,27.107-11.415,27.107-25.475c0-14.083-12.138-25.476-27.107-25.476"/>
	<path fill="none" stroke="#FF0000" stroke-width="5" stroke-linecap="round" stroke-linejoin="round" stroke-miterlimit="10" d="
		M242.201,125.089c14.973,0,27.107-11.415,27.107-25.475c0-14.083-12.138-25.477-27.107-25.477"/>
</g>
</svg>
