<?xml version="1.0" encoding="utf-8"?>
<!-- Generator: Adobe Illustrator 16.0.0, SVG Export Plug-In . SVG Version: 6.00 Build 0)  -->
<!DOCTYPE svg PUBLIC "-//W3C//DTD SVG 1.1//EN" "http://www.w3.org/Graphics/SVG/1.1/DTD/svg11.dtd">
<svg version="1.1" id="Version_1.0" xmlns="http://www.w3.org/2000/svg" xmlns:xlink="http://www.w3.org/1999/xlink" x="0px"
	 y="0px" width="400px" height="400px" viewBox="0 0 400 400" enable-background="new 0 0 400 400" xml:space="preserve">
<g id="main">
	<path fill="none" stroke="#000000" stroke-width="5" stroke-linejoin="round" stroke-miterlimit="8" d="M88.5,183.445
		c24.49,6.055,67.645,1.891,79.637-2.625c14.943,0.616,27.488-1.232,40.957,3.695c9.592-0.411,44.102,2.728,53.665,1.957
		c30.536-2.462,57.702-3.027,54.013-3.027"/>
	<text transform="matrix(1 0 0 1 96 167.668)" font-family="'ArialMT'" font-size="20">LOA</text>
	<text transform="matrix(1 0 0 1 268.9805 167.668)" font-family="'ArialMT'" font-size="20">LOA</text>
</g>
<g id="template" display="none">
	<g display="inline">
		<text transform="matrix(1 0 0 1 66.5 277.6279)" font-family="'ArialMT'" font-size="20">PT 1</text>
		<g>
			<g>
				<line fill="none" stroke="#000000" stroke-width="5" x1="89.504" y1="209.16" x2="89.504" y2="255.203"/>
				<path d="M86.43,202.076c-1.499,4.959-2.878,8.182-4.476,12.16h15.134c-0.677-1.424-2.979-7.201-4.475-12.16
					c-1.604-5.309-2.701-10.122-3.092-13.245C89.129,191.954,88.033,196.768,86.43,202.076z"/>
			</g>
		</g>
	</g>
	<g display="inline">
		<text transform="matrix(1 0 0 1 295.5 274.8506)" font-family="'ArialMT'" font-size="20">PT 2</text>
		<g>
			<g>
				<line fill="none" stroke="#000000" stroke-width="5" x1="320.504" y1="209.16" x2="320.504" y2="255.203"/>
				<path d="M317.43,202.075c-1.499,4.96-2.88,8.183-4.476,12.161h15.133c-0.677-1.424-2.979-7.201-4.476-12.161
					c-1.604-5.309-2.701-10.122-3.093-13.244C320.129,191.954,319.032,196.768,317.43,202.075z"/>
			</g>
		</g>
	</g>
</g>
<g id="example" display="none">
	<g display="inline">
		
			<line fill="none" stroke="#808080" stroke-width="5" stroke-linejoin="round" stroke-miterlimit="8" x1="317.354" y1="128.335" x2="317.354" y2="322.475"/>
		<polygon fill="#FFFFFF" points="285,210.646 350.5,210.646 350.5,239.727 285,239.727 		"/>
		<text transform="matrix(0.8689 0 0 1 291.1133 232.5332)" fill="#808080" font-family="'ArialMT'" font-size="20.3838">3  X  1</text>
	</g>
	<g display="inline">
		
			<line fill="none" stroke="#808080" stroke-width="5" stroke-linejoin="round" stroke-miterlimit="8" x1="90.215" y1="128.335" x2="90.215" y2="322.475"/>
		<polygon fill="#FFFFFF" points="50.366,210.646 119.5,210.646 119.5,236.727 50.366,236.727 		"/>
		<text transform="matrix(0.8689 0 0 1 64.1265 232.5332)" fill="#808080" font-family="'ArialMT'" font-size="20.3838">2  X  3</text>
	</g>
	<text transform="matrix(0.8689 0 0 1 9.0425 190.6465)" display="inline" fill="#7F7F7F" font-family="'ArialMT'" font-size="20">PL RUBY</text>
	
		<text transform="matrix(0.8689 0 0 1 320.2285 190.6465)" display="inline" fill="#7F7F7F" font-family="'ArialMT'" font-size="20">PL RUBY</text>
</g>
</svg>
