<?xml version="1.0" encoding="utf-8"?>
<!-- Generator: Adobe Illustrator 16.0.0, SVG Export Plug-In . SVG Version: 6.00 Build 0)  -->
<!DOCTYPE svg PUBLIC "-//W3C//DTD SVG 1.1//EN" "http://www.w3.org/Graphics/SVG/1.1/DTD/svg11.dtd">
<svg version="1.1" id="Version_1.0" xmlns="http://www.w3.org/2000/svg" xmlns:xlink="http://www.w3.org/1999/xlink" x="0px"
	 y="0px" width="400px" height="400px" viewBox="0 0 400 400" enable-background="new 0 0 400 400" xml:space="preserve">
<g id="main">
	<line fill="none" stroke="#000000" stroke-width="9.5864" x1="40.082" y1="191.5" x2="369.082" y2="191.5"/>
	<text transform="matrix(1 0 0 1 35.082 177.7227)" font-family="sans-serif" font-size="24">HL</text>
	<text transform="matrix(1 0 0 1 349.082 176.5)" font-family="sans-serif" font-size="24">HL</text>
</g>
<g id="points" display="none">
	<text transform="matrix(1 0 0 1 339.082 278.5)" display="inline" font-family="sans-serif" font-size="24">PT N</text>
	<text transform="matrix(1 0 0 1 14.082 278.5)" display="inline" font-family="sans-serif" font-size="24">PT 1</text>
	<path display="inline" stroke="#000000" stroke-width="0.4335" stroke-linejoin="bevel" stroke-miterlimit="10" d="
		M367.213,253.201l0.052-21.317c0.029-1.003,0.839-1.79,1.817-1.79c1.001,0,1.813,0.813,1.813,1.82l-0.084,21.291
		c0,1-0.809,1.816-1.813,1.816C367.999,255.02,367.213,254.205,367.213,253.201L367.213,253.201z M358.246,235.46l10.938-36.087
		l10.732,36.166L358.246,235.46z"/>
	<path display="inline" stroke="#000000" stroke-width="0.4335" stroke-linejoin="bevel" stroke-miterlimit="10" d="M39.213,253.201
		l0.052-21.317c0.029-1.003,0.839-1.79,1.817-1.79c1.001,0,1.813,0.813,1.813,1.82l-0.084,21.291c0,1-0.809,1.816-1.813,1.816
		C39.999,255.02,39.213,254.205,39.213,253.201L39.213,253.201z M30.246,235.46l10.94-36.087l10.732,36.166L30.246,235.46z"/>
</g>
<g id="example" display="none">
	
		<line display="inline" fill="none" stroke="#808080" stroke-width="5" stroke-linejoin="round" stroke-miterlimit="8" x1="34.058" y1="317.601" x2="374.726" y2="317.601"/>
	
		<line display="inline" fill="none" stroke="#808080" stroke-width="5" stroke-linejoin="round" stroke-miterlimit="8" x1="34.058" y1="90.863" x2="374.726" y2="90.863"/>
	<text transform="matrix(1.0017 0 0 1 313.6719 300.9727)" display="inline"><tspan x="0" y="0" font-family="sans-serif" font-size="25.1311">H</tspan><tspan x="18.601" y="0" font-family="sans-serif" font-size="25.1311">L</tspan></text>
	<text transform="matrix(1.0017 0 0 1 300.6123 119.4712)" display="inline"><tspan x="0" y="0" font-family="sans-serif" font-size="25.1311">H</tspan><tspan x="18.601" y="0" font-family="sans-serif" font-size="25.1311">L</tspan></text>
	<text transform="matrix(1.0017 0 0 1 200.8496 69.189)" display="inline"><tspan x="0" y="0" fill="#808080" font-family="sans-serif" font-size="25.1311">P</tspan><tspan x="16.762" y="0" fill="#808080" font-family="sans-serif" font-size="25.1311">L</tspan><tspan x="32.565" y="0" fill="#808080" font-family="sans-serif" font-size="25.1311"> </tspan><tspan x="39.096" y="0" fill="#808080" font-family="sans-serif" font-size="25.1311">D</tspan><tspan x="57.697" y="0" fill="#808080" font-family="sans-serif" font-size="25.1311">OG</tspan></text>
	<text transform="matrix(1.0017 0 0 1 251.2129 351.2129)" display="inline"><tspan x="0" y="0" fill="#808080" font-family="sans-serif" font-size="25.1311">P</tspan><tspan x="16.762" y="0" fill="#808080" font-family="sans-serif" font-size="25.1311">L</tspan><tspan x="32.565" y="0" fill="#808080" font-family="sans-serif" font-size="25.1311"> </tspan><tspan x="39.096" y="0" fill="#808080" font-family="sans-serif" font-size="25.1311">D</tspan><tspan x="57.697" y="0" fill="#808080" font-family="sans-serif" font-size="25.1311">OG</tspan></text>
	<polyline display="inline" fill="none" stroke="#808080" stroke-width="5" stroke-linejoin="round" stroke-miterlimit="8" points="
		128.688,257.505 136.047,247.399 184.414,247.399 191.774,257.505 	"/>
	<polyline display="inline" fill="none" stroke="#808080" stroke-width="5" stroke-linejoin="round" stroke-miterlimit="8" points="
		128.688,216.828 136.047,227.063 184.414,227.063 191.774,216.828 	"/>
	
		<path display="inline" fill="none" stroke="#808080" stroke-width="3" stroke-linecap="round" stroke-linejoin="round" stroke-miterlimit="8" d="
		M169.301,53.073c2.365,26.769,6.308,48.55-2.104,74.529c3.417,10.499,3.155,21.52,6.572,32.017
		c-0.79,6.298-0.527,12.859-2.104,19.157c-0.525,2.363-3.417,3.938-4.468,6.298c-1.84,4.199-4.207,12.859-4.207,12.859
		c0.79,4.199,0.264,8.921,2.104,12.597c1.314,2.36,5.784,1.838,6.572,4.198c3.68,10.235,2.893,21.782,6.308,32.017
		c-1.313,24.144-4.468,35.429,2.104,55.372c-0.525,6.036-2.365,29.918-4.205,38.314c-4.995,22.306-4.207,4.2-4.207,21.257"/>
	
		<path display="inline" fill="none" stroke="#808080" stroke-width="3" stroke-linecap="round" stroke-linejoin="round" stroke-miterlimit="8" d="
		M141.306,53.073c2.366,26.769,6.308,48.55-2.103,74.529c3.417,10.499,3.154,21.52,6.571,32.017
		c-0.789,6.298-0.525,12.859-2.103,19.157c-0.526,2.363-3.417,3.938-4.469,6.298c-1.841,4.199-4.206,12.859-4.206,12.859
		c0.788,4.199,0.263,8.921,2.103,12.597c1.314,2.36,5.782,1.838,6.571,4.198c3.679,10.235,2.892,21.782,6.309,32.017
		c-1.314,24.144-4.47,35.429,2.103,55.372c-0.526,6.036-2.367,29.918-4.207,38.314c-4.995,22.306-4.206,4.2-4.206,21.257"/>
	<path display="inline" fill="none" stroke="#000000" stroke-width="5" stroke-linejoin="round" stroke-miterlimit="8" d="
		M173.9,89.551c24.972,0.787,49.68,0.787,74.652,2.099c9.462,0.525,15.248,12.859,23.396,17.058c2.89,2.887,6.57,5.249,8.675,8.66
		c1.05,1.836,1.05,4.2,2.102,6.298c1.052,2.363,2.893,4.199,4.206,6.299c9.463,29.129,0,60.621,10.776,89.489
		c2.629,70.329,2.104,37,2.104,99.984"/>
	<g display="inline">
		<polygon fill-rule="evenodd" clip-rule="evenodd" fill="#FFFFFF" points="59.292,74.833 123.431,74.833 123.431,104.833 
			59.292,104.833 59.292,74.833 		"/>
		<text transform="matrix(1.0017 0 0 1 74.0654 97.3394)" fill="#808080" font-family="sans-serif" font-size="25.1311">XX</text>
	</g>
	<g display="inline">
		<polygon fill-rule="evenodd" clip-rule="evenodd" fill="#FFFFFF" points="59.292,299.833 106.608,299.833 106.608,332.5 
			59.292,332.5 59.292,299.833 		"/>
		<text transform="matrix(1.0017 0 0 1 74.0654 324.0811)" fill="#808080" font-family="sans-serif" font-size="25.1311">X</text>
	</g>
</g>
</svg>
