<?xml version="1.0" encoding="utf-8"?>
<!-- Generator: Adobe Illustrator 16.0.0, SVG Export Plug-In . SVG Version: 6.00 Build 0)  -->
<!DOCTYPE svg PUBLIC "-//W3C//DTD SVG 1.1//EN" "http://www.w3.org/Graphics/SVG/1.1/DTD/svg11.dtd">
<svg version="1.1" id="Version_1.0" xmlns="http://www.w3.org/2000/svg" xmlns:xlink="http://www.w3.org/1999/xlink" x="0px"
	 y="0px" width="400px" height="400px" viewBox="0 0 400 400" enable-background="new 0 0 400 400" xml:space="preserve">
<g id="main">
	
		<line fill="none" stroke="#000000" stroke-width="5" stroke-linecap="round" stroke-linejoin="round" stroke-miterlimit="10" x1="121.5" y1="186.43" x2="287.5" y2="186.542"/>
	<text id="static" transform="matrix(1 0 0 1 19.4395 195)" font-family="sans-serif" font-size="24">PL</text>
	<text id="static1" transform="matrix(1 0 0 1 296.4395 194.8525)" font-family="sans-serif" font-size="24">PL</text>
	<text id="varT_1_" transform="matrix(1 0 0 1 75.7344 196.1934)" font-family="sans-serif" font-size="24"> </text>
	<text id="varT" transform="matrix(1 0 0 1 348.8496 194.584)" font-family="sans-serif" font-size="24"> </text>
</g>
<g id="template" display="none">
	<g display="inline">
		
			<rect x="64.5" y="168.5" fill="none" stroke="#000000" stroke-width="1.8695" stroke-linecap="round" stroke-miterlimit="8" width="39.173" height="38.111"/>
		<text transform="matrix(1 0 0 1 75.7344 196.1934)" font-family="sans-serif" font-size="24">T</text>
	</g>
	<g display="inline">
		
			<rect x="336.029" y="168.5" fill="none" stroke="#000000" stroke-width="1.8695" stroke-linecap="round" stroke-miterlimit="8" width="39.173" height="38.111"/>
		<text transform="matrix(1 0 0 1 348.8496 193.584)" font-family="sans-serif" font-size="24">T</text>
	</g>
	<g id="points" display="inline">
		<g>
			<text transform="matrix(1 0 0 1 91.0596 299.0146)" font-family="sans-serif" font-size="30">P</text>
			<text transform="matrix(1 0 0 1 110.9497 299.0146)" font-family="sans-serif" font-size="30">T</text>
			<text transform="matrix(1 0 0 1 129.7246 299.0146)" font-family="sans-serif" font-size="30"> </text>
			<text transform="matrix(1 0 0 1 138.0596 299.0146)" font-family="sans-serif" font-size="30">1</text>
			<text transform="matrix(1 0 0 1 154.7134 299.0146)" font-family="sans-serif" font-size="30">  </text>
			<g>
				<g>
					
						<line fill="none" stroke="#000000" stroke-width="5" stroke-linecap="round" stroke-linejoin="round" stroke-miterlimit="10" x1="121.774" y1="266.302" x2="121.774" y2="218.302"/>
					<path d="M117.931,209.445c-1.874,6.199-3.598,10.229-5.594,15.203h18.917c-0.846-1.78-3.723-9.004-5.594-15.203
						c-2.005-6.637-3.376-12.653-3.865-16.555C121.306,196.792,119.934,202.811,117.931,209.445z"/>
				</g>
			</g>
		</g>
		<g>
			<text transform="matrix(1 0 0 1 257.5479 299.6279)" font-family="sans-serif" font-size="30">P</text>
			<text transform="matrix(1 0 0 1 277.4375 299.6279)" font-family="sans-serif" font-size="30">T</text>
			<text transform="matrix(1 0 0 1 296.2129 299.6279)" font-family="sans-serif" font-size="30"> 2  </text>
			<g>
				<g>
					
						<line fill="none" stroke="#000000" stroke-width="5" stroke-linecap="round" stroke-linejoin="round" stroke-miterlimit="10" x1="288.5" y1="265.302" x2="288.5" y2="217.302"/>
					<path d="M284.656,208.445c-1.873,6.199-3.598,10.229-5.594,15.203h18.916c-0.848-1.78-3.724-9.004-5.596-15.203
						c-2.004-6.637-3.376-12.653-3.863-16.555C288.031,195.792,286.66,201.811,284.656,208.445z"/>
				</g>
			</g>
		</g>
	</g>
</g>
<g id="example" display="none">
	<g display="inline">
		<path fill="none" stroke="#808080" stroke-width="5" stroke-linejoin="round" stroke-miterlimit="8" d="M113.157,161.108
			c11.967,19.199,4.328,5.174,1.528,50.652c0,2.042-3.055,5.719-3.055,5.719"/>
		<path fill="none" stroke="#808080" stroke-width="5" stroke-linejoin="round" stroke-miterlimit="8" d="M116.459,252.963
			c1.009,14.759,3.834,27.986,0,42.551c0.403,3.068,0.403,6.136,1.21,9.2c0.405,1.343,2.423,3.451,2.423,3.451"/>
		<text transform="matrix(1 0 0 1 100.4395 243.3018)" fill="#808080" font-family="sans-serif" font-size="30">xx</text>
	</g>
	<g display="inline">
		<path fill="none" stroke="#808080" stroke-width="5" stroke-linejoin="round" stroke-miterlimit="8" d="M292.301,250.48
			c1.528,9.426,0.436,17.909-1.312,27.146c0.873,11.312,2.623,19.604,2.623,30.538"/>
		<path fill="none" stroke="#808080" stroke-width="5" stroke-linejoin="round" stroke-miterlimit="8" d="M290.531,161.108
			c0.594,3.208,3.361,5.847,3.559,9.055c0.594,10.186-3.162,19.618-3.559,29.426c-0.394,6.79,0,13.581,0,20.372"/>
		<text transform="matrix(1 0 0 1 277.4375 243.3018)" fill="#808080" font-family="sans-serif" font-size="30">xx</text>
	</g>
	<text transform="matrix(1 0 0 1 2.0762 194)" display="inline" font-family="sans-serif" font-size="24">PL ECHO</text>
	<text transform="matrix(1 0 0 1 296.4395 194.8525)" display="inline" font-family="sans-serif" font-size="24">PL ECHO</text>
</g>
</svg>
