<?xml version="1.0" encoding="utf-8"?>
<!-- Generator: Adobe Illustrator 16.0.0, SVG Export Plug-In . SVG Version: 6.00 Build 0)  -->
<!DOCTYPE svg PUBLIC "-//W3C//DTD SVG 1.1//EN" "http://www.w3.org/Graphics/SVG/1.1/DTD/svg11.dtd">
<svg version="1.1" id="Version_1.0" xmlns="http://www.w3.org/2000/svg" xmlns:xlink="http://www.w3.org/1999/xlink" x="0px"
	 y="0px" width="400px" height="400px" viewBox="0 0 400 400" enable-background="new 0 0 400 400" xml:space="preserve">
<g id="main">
	<g>
		<line fill="none" stroke="#000000" stroke-width="5" x1="89.819" y1="224.5" x2="332.161" y2="224.5"/>
	</g>
	<g>
		<line fill="none" stroke="#000000" stroke-width="5" x1="89.819" y1="152.5" x2="332.161" y2="152.5"/>
	</g>
</g>
<g id="template" display="none">
	<g id="varT" display="inline">
		<g>
			<text transform="matrix(1 0 0 1 193.3193 202.7227)" font-family="'ArialMT'" font-size="36">T</text>
		</g>
		<rect x="179.819" y="161.555" fill="none" stroke="#000000" stroke-width="5" width="49" height="49"/>
	</g>
	<g id="points" display="inline">
		<g>
			<text transform="matrix(1 0 0 1 23.5 288.6279)" font-family="'ArialMT'" font-size="24">PT 1</text>
			<g>
				<g>
					<line fill="none" stroke="#000000" stroke-width="5" x1="73.658" y1="211.395" x2="41.342" y2="259.021"/>
					<path d="M75.449,201.908c-5.031,4.078-8.72,6.443-13.164,9.438l15.653,10.621c0.299-1.947,1.974-9.539,3.906-15.72
						c2.066-6.617,4.31-12.366,6.097-15.871C85.346,193.333,80.833,197.542,75.449,201.908z"/>
				</g>
			</g>
		</g>
		<g>
			<text transform="matrix(1 0 0 1 334.5 286.8506)" font-family="'ArialMT'" font-size="24">PT 2</text>
			<g>
				<g>
					<line fill="none" stroke="#000000" stroke-width="5" x1="342.62" y1="206.827" x2="369.747" y2="257.587"/>
					<path d="M335.057,200.829c1.271,6.351,1.647,10.717,2.231,16.043l16.684-8.916c-1.585-1.171-7.522-6.185-12.099-10.77
						c-4.896-4.907-8.941-9.567-11.212-12.78C332.069,188.08,333.696,194.032,335.057,200.829z"/>
				</g>
			</g>
		</g>
		<g>
			<text transform="matrix(1 0 0 1 182.1841 65.4902)" font-family="'ArialMT'" font-size="24">PT 3</text>
			<g>
				<g>
					<line fill="none" stroke="#000000" stroke-width="5" x1="203.643" y1="128.076" x2="204.357" y2="70.525"/>
					<path d="M207.374,136.978c1.95-6.176,3.726-10.183,5.783-15.13l-18.915-0.235c0.823,1.79,3.61,9.047,5.404,15.27
						c1.922,6.66,3.218,12.694,3.659,16.604C203.843,149.588,205.289,143.588,207.374,136.978z"/>
				</g>
			</g>
		</g>
	</g>
</g>
<g id="example" display="none">
	<g display="inline">
		
			<line fill="none" stroke="#808080" stroke-width="5" stroke-linejoin="round" stroke-miterlimit="8" x1="218.912" y1="268.219" x2="198.603" y2="268.219"/>
		
			<line fill="none" stroke="#808080" stroke-width="5" stroke-linejoin="round" stroke-miterlimit="8" x1="198.603" y1="268.219" x2="198.603" y2="245.889"/>
		
			<line fill="none" stroke="#808080" stroke-width="5" stroke-linejoin="round" stroke-miterlimit="8" x1="198.603" y1="245.889" x2="218.912" y2="245.889"/>
		
			<line fill="none" stroke="#808080" stroke-width="5" stroke-linejoin="round" stroke-miterlimit="8" x1="219.018" y1="178.893" x2="198.709" y2="178.893"/>
		
			<line fill="none" stroke="#808080" stroke-width="5" stroke-linejoin="round" stroke-miterlimit="8" x1="198.709" y1="178.893" x2="198.709" y2="156.562"/>
		
			<line fill="none" stroke="#808080" stroke-width="5" stroke-linejoin="round" stroke-miterlimit="8" x1="198.709" y1="156.562" x2="219.018" y2="156.562"/>
		
			<line fill="none" stroke="#808080" stroke-width="5" stroke-linejoin="round" stroke-miterlimit="8" x1="219.018" y1="223.438" x2="198.709" y2="223.438"/>
		
			<line fill="none" stroke="#808080" stroke-width="5" stroke-linejoin="round" stroke-miterlimit="8" x1="198.709" y1="223.438" x2="198.709" y2="201.107"/>
		
			<line fill="none" stroke="#808080" stroke-width="5" stroke-linejoin="round" stroke-miterlimit="8" x1="198.709" y1="201.107" x2="219.018" y2="201.107"/>
		
			<line fill="none" stroke="#808080" stroke-width="5" stroke-linejoin="round" stroke-miterlimit="8" x1="218.7" y1="290.551" x2="218.7" y2="268.219"/>
		
			<line fill="none" stroke="#808080" stroke-width="5" stroke-linejoin="round" stroke-miterlimit="8" x1="218.807" y1="268.336" x2="198.497" y2="268.336"/>
		
			<line fill="none" stroke="#808080" stroke-width="5" stroke-linejoin="round" stroke-miterlimit="8" x1="198.603" y1="245.771" x2="218.912" y2="245.771"/>
		
			<line fill="none" stroke="#808080" stroke-width="5" stroke-linejoin="round" stroke-miterlimit="8" x1="219.018" y1="245.771" x2="219.018" y2="223.323"/>
		
			<line fill="none" stroke="#808080" stroke-width="5" stroke-linejoin="round" stroke-miterlimit="8" x1="219.018" y1="223.323" x2="198.709" y2="223.323"/>
		
			<line fill="none" stroke="#808080" stroke-width="5" stroke-linejoin="round" stroke-miterlimit="8" x1="198.603" y1="156.446" x2="218.912" y2="156.446"/>
		
			<line fill="none" stroke="#808080" stroke-width="5" stroke-linejoin="round" stroke-miterlimit="8" x1="219.018" y1="156.446" x2="219.018" y2="133.998"/>
		
			<line fill="none" stroke="#808080" stroke-width="5" stroke-linejoin="round" stroke-miterlimit="8" x1="219.018" y1="133.998" x2="198.709" y2="133.998"/>
		
			<line fill="none" stroke="#808080" stroke-width="5" stroke-linejoin="round" stroke-miterlimit="8" x1="198.603" y1="200.992" x2="218.912" y2="200.992"/>
		
			<line fill="none" stroke="#808080" stroke-width="5" stroke-linejoin="round" stroke-miterlimit="8" x1="219.018" y1="200.992" x2="219.018" y2="178.777"/>
		
			<line fill="none" stroke="#808080" stroke-width="5" stroke-linejoin="round" stroke-miterlimit="8" x1="219.018" y1="178.777" x2="198.709" y2="178.777"/>
		
			<line fill="none" stroke="#808080" stroke-width="5" stroke-linejoin="round" stroke-miterlimit="8" x1="219.018" y1="134.114" x2="198.709" y2="134.114"/>
		
			<line fill="none" stroke="#808080" stroke-width="5" stroke-linejoin="round" stroke-miterlimit="8" x1="198.709" y1="134.114" x2="198.709" y2="111.782"/>
		
			<line fill="none" stroke="#808080" stroke-width="5" stroke-linejoin="round" stroke-miterlimit="8" x1="198.709" y1="111.782" x2="219.018" y2="111.782"/>
		
			<line fill="none" stroke="#808080" stroke-width="5" stroke-linejoin="round" stroke-miterlimit="8" x1="198.603" y1="111.782" x2="218.912" y2="111.782"/>
		
			<line fill="none" stroke="#808080" stroke-width="5" stroke-linejoin="round" stroke-miterlimit="8" x1="219.018" y1="112.015" x2="219.018" y2="89.683"/>
	</g>
	<rect x="138.5" y="162.5" display="inline" fill="#FFFFFF" width="131" height="54"/>
	<text id="varTe" transform="matrix(1 0 0 1 139.3086 202.7227)" display="inline" font-family="'ArialMT'" font-size="36">GREEN</text>
</g>
</svg>
