<?xml version="1.0" encoding="utf-8"?>
<!-- Generator: Adobe Illustrator 16.0.0, SVG Export Plug-In . SVG Version: 6.00 Build 0)  -->
<!DOCTYPE svg PUBLIC "-//W3C//DTD SVG 1.1//EN" "http://www.w3.org/Graphics/SVG/1.1/DTD/svg11.dtd">
<svg version="1.1" id="Version_1.0" xmlns="http://www.w3.org/2000/svg" xmlns:xlink="http://www.w3.org/1999/xlink" x="0px"
	 y="0px" width="400px" height="400px" viewBox="0 0 400 400" enable-background="new 0 0 400 400" xml:space="preserve">
<g id="main">
	<path fill="none" stroke="#000000" stroke-width="5" d="M49.334,54.474c-9.767,24.417,2.27,36.174,0,60
		c-4.644,48.763-28.405,148.274,15,183c13.609,10.887,30.546,18.618,48,21c24.66,3.361,219.563,1.062,232.5-9l21-31.5
		c21.969-53.703-11.72-106.101-9-160.5c0.693-13.869,9.375-54.975,1.5-66c-8.133-11.385-275.734-52.343-309.3,3.6"/>
	<text transform="matrix(1 0 0 1 130.333 348.4727)" font-family="sans-serif" font-size="18.0027">AIRHEAD LINE</text>
</g>
<g id="example" display="none">
	<g display="inline">
		
			<path fill="none" stroke="#808080" stroke-width="1.9971" stroke-linecap="round" stroke-linejoin="round" stroke-miterlimit="8" d="
			M305.313,215.689c-13.085,1.061-17.681-0.352-26.876,5.648c-2.121,3.179-5.303,5.298-7.07,8.475
			c-2.831,4.94-4.245,12.706-5.659,18.355c0.353,6.002,0.353,12.357,1.414,18.359c1.414,8.117,23.339,12.708,31.12,14.119
			c21.921-0.704,34.299,4.59,49.503-5.648c4.599-13.766,6.367-32.125-7.07-40.949c-6.365-9.532-8.487-16.24-19.805-18.359
			C306.021,217.104,309.911,220.279,305.313,215.689L305.313,215.689z"/>
		<text transform="matrix(1.0017 0 0 1 304.9785 266.6699)" fill="#808080" font-family="sans-serif" font-size="17.029">4</text>
		<text transform="matrix(1.0017 0 0 1 291.9434 244.6377)"><tspan x="0" y="0" fill="#808080" font-family="sans-serif" font-size="17.029">O</tspan><tspan x="13.024" y="0" fill="#808080" font-family="sans-serif" font-size="17.029">B</tspan><tspan x="25.049" y="0" fill="#808080" font-family="sans-serif" font-size="17.029">J</tspan></text>
	</g>
	<g display="inline">
		
			<path fill="none" stroke="#808080" stroke-width="1.9971" stroke-linecap="round" stroke-linejoin="round" stroke-miterlimit="8" d="
			M313.413,60.409c-15.647-1.792-32.414-3.583-46.199,7.164c-1.487,5.373-2.979,10.746-4.468,16.118
			c-0.374,1.791-1.492,5.374-1.492,5.374c1.492,17.461,4.099,36.716,19.373,41.194c14.902-1.344,33.903-0.897,49.179-7.166
			c7.822-13.879,4.842-6.715,8.94-21.492c0.373-1.791,1.491-5.374,1.491-5.374c-0.745-16.566,4.47-24.624-5.963-30.445
			C330.551,63.991,310.805,60.409,313.413,60.409L313.413,60.409z"/>
		<text transform="matrix(1.0017 0 0 1 297.9785 110.4131)" fill="#808080" font-family="sans-serif" font-size="17.029">3</text>
		<text transform="matrix(1.0017 0 0 1 284.9434 88.3838)"><tspan x="0" y="0" fill="#808080" font-family="sans-serif" font-size="17.029">O</tspan><tspan x="13.024" y="0" fill="#808080" font-family="sans-serif" font-size="17.029">B</tspan><tspan x="25.049" y="0" fill="#808080" font-family="sans-serif" font-size="17.029">J</tspan></text>
	</g>
	<g display="inline">
		
			<path fill="none" stroke="#808080" stroke-width="1.9971" stroke-linecap="round" stroke-linejoin="round" stroke-miterlimit="8" d="
			M118.604,217.635c-13.083,1.061-17.679-0.351-26.875,5.65c-2.122,3.177-5.303,5.295-7.073,8.471
			c-2.828,4.942-4.242,12.709-5.656,18.36c0.353,5.999,0.353,12.354,1.414,18.356c1.414,8.12,23.338,12.707,31.117,14.119
			c21.926-0.705,34.302,4.591,49.507-5.648c4.598-13.766,6.365-32.125-7.073-40.95c-6.364-9.531-8.487-16.24-19.802-18.358
			C119.312,219.049,123.201,222.225,118.604,217.635L118.604,217.635z"/>
		<text transform="matrix(1.0017 0 0 1 118.354 268.7266)" fill="#808080" font-family="sans-serif" font-size="17.029">2</text>
		<text transform="matrix(1.0017 0 0 1 105.3179 246.6758)"><tspan x="0" y="0" fill="#808080" font-family="sans-serif" font-size="17.029">O</tspan><tspan x="13.024" y="0" fill="#808080" font-family="sans-serif" font-size="17.029">B</tspan><tspan x="25.049" y="0" fill="#808080" font-family="sans-serif" font-size="17.029">J</tspan></text>
	</g>
	<g display="inline">
		
			<path fill="none" stroke="#808080" stroke-width="1.9971" stroke-linecap="round" stroke-linejoin="round" stroke-miterlimit="8" d="
			M142.676,67.354c-15.646-1.789-32.412-3.581-46.196,7.165c-1.49,5.373-2.98,10.746-4.47,16.12c-0.373,1.789-1.49,5.372-1.49,5.372
			c1.49,17.462,4.098,36.715,19.373,41.193c14.903-1.344,33.904-0.894,49.178-7.164c7.825-13.88,4.843-6.717,8.942-21.492
			c0.373-1.792,1.49-5.373,1.49-5.373c-0.746-16.566,4.47-24.626-5.961-30.447C159.815,70.937,140.069,67.354,142.676,67.354
			L142.676,67.354z"/>
		<text transform="matrix(1.0017 0 0 1 127.4136 117.4707)" fill="#808080" font-family="sans-serif" font-size="17.029">1</text>
		<text transform="matrix(1.0017 0 0 1 114.3755 95.4189)"><tspan x="0" y="0" fill="#808080" font-family="sans-serif" font-size="17.029">O</tspan><tspan x="13.024" y="0" fill="#808080" font-family="sans-serif" font-size="17.029">B</tspan><tspan x="25.049" y="0" fill="#808080" font-family="sans-serif" font-size="17.029">J</tspan></text>
	</g>
	<g display="inline">
		<text transform="matrix(1.0017 0 0 1 240.7686 259.6885)" fill="#808080" font-family="sans-serif" font-size="17.029">D</text>
		<text transform="matrix(1.0017 0 0 1 172.5337 259.6885)" fill="#808080" font-family="sans-serif" font-size="17.029">B</text>
		<path fill="none" stroke="#808080" stroke-width="1.9971" stroke-linejoin="round" stroke-miterlimit="8" d="M212.364,207.82
			c0.71,19.604,1.066,36.617,3.196,55.479c-1.42,12.946-14.918,61.768,1.066,53.262"/>
		<g>
			<polygon fill-rule="evenodd" clip-rule="evenodd" fill="#FFFFFF" points="205.474,245.525 222.446,245.525 222.446,263.6 
				205.474,263.6 205.474,245.525 			"/>
			
				<line fill="none" stroke="#808080" stroke-width="1.9971" stroke-linejoin="round" stroke-miterlimit="8" x1="222.86" y1="254.703" x2="205.887" y2="254.703"/>
		</g>
	</g>
	<g display="inline">
		<text transform="matrix(1.0017 0 0 1 301.9746 197.5674)" fill="#808080" font-family="sans-serif" font-size="17.029">D</text>
		<text transform="matrix(1.0017 0 0 1 301.9746 146.501)" fill="#808080" font-family="sans-serif" font-size="17.029">C</text>
		<path fill="none" stroke="#808080" stroke-width="1.9971" stroke-linejoin="round" stroke-miterlimit="8" d="M259.736,184.592
			c15.914-3.773,19.764-12.592,36.597-14.615c19.753-2.374,9.578-4.548,42.5-5.144c9.878-0.596,14.347-3.33,19.834-3.33"/>
		<g>
			<polygon fill-rule="evenodd" clip-rule="evenodd" fill="#FFFFFF" points="298.242,152.5 315.215,152.5 315.215,176.126 
				298.242,176.126 298.242,152.5 			"/>
			
				<line fill="none" stroke="#808080" stroke-width="1.9971" stroke-linejoin="round" stroke-miterlimit="8" x1="307.859" y1="156.03" x2="307.859" y2="172.977"/>
		</g>
	</g>
	<g display="inline">
		<path fill="none" stroke="#808080" stroke-width="1.9971" stroke-linejoin="round" stroke-miterlimit="8" d="M43.638,173.824
			c26.798,0.69,45.937-4.13,68.906,8.262c16.162-2.066,35.728-8.262,51.04,4.131"/>
		<polygon fill-rule="evenodd" clip-rule="evenodd" fill="#FFFFFF" points="114.167,164.774 127.505,164.774 127.505,190.834 
			114.167,190.834 114.167,164.774 		"/>
		
			<line fill="none" stroke="#808080" stroke-width="1.9971" stroke-linejoin="round" stroke-miterlimit="8" x1="121.15" y1="169.977" x2="121.15" y2="186.921"/>
		<text transform="matrix(1.0017 0 0 1 115.3491 208.624)" fill="#808080" font-family="sans-serif" font-size="17.029">B</text>
		<text transform="matrix(1.0017 0 0 1 115.3491 159.5381)" fill="#808080" font-family="sans-serif" font-size="17.029">A</text>
	</g>
	<g display="inline">
		
			<path fill="none" stroke="#808080" stroke-width="1.9971" stroke-linecap="round" stroke-linejoin="round" stroke-miterlimit="8" d="
			M206.301,151.689c-8.488,0.706-10.608,0.354-16.974,2.118c-2.121,0.706-6.365,2.119-6.365,2.119
			c-2.475,3.881-6.719,8.118-10.609,10.59c-1.06,1.766-4.596,7.06-6.363,9.532c-1.417,1.766-1.417,4.235-2.124,6.353
			c-0.354,1.061-1.061,3.18-1.061,3.18c0.354,3.176-0.354,6.706,1.061,9.531c1.77,3.176,12.376,8.12,15.914,10.589
			c3.182,2.119,7.072,2.119,10.608,3.18c1.061,0.351,3.183,1.059,3.183,1.059c8.131-0.708,15.559-2.119,23.34-3.176
			c10.96-3.531,19.447-3.531,31.824-4.238c0.707-1.061,1.061-2.471,2.12-3.176c0.707-0.707,2.476-0.354,3.183-1.061
			c1.768-1.764,1.768-4.237,3.184-6.353c-0.353-3.883,0-7.767-1.063-11.652c-0.354-1.059-2.475-1.059-3.182-2.118
			c-5.304-8.472-7.071-21.888-19.095-23.299c-9.549-1.059-20.157-4.237-29.702-4.237
			C203.474,150.629,205.594,151.336,206.301,151.689L206.301,151.689z"/>
		<text transform="matrix(1.0017 0 0 1 189.5933 196.6035)"><tspan x="0" y="0" fill="#808080" font-family="sans-serif" font-size="17.029">R</tspan><tspan x="12.026" y="0" fill="#808080" font-family="sans-serif" font-size="17.029">E</tspan><tspan x="23.06" y="0" fill="#808080" font-family="sans-serif" font-size="17.029">D</tspan></text>
		<text transform="matrix(1.0017 0 0 1 195.6255 174.5527)"><tspan x="0" y="0" fill="#808080" font-family="sans-serif" font-size="17.029">D</tspan><tspan x="13.013" y="0" fill="#808080" font-family="sans-serif" font-size="17.029">Z</tspan></text>
	</g>
	<g display="inline">
		<g>
			<polygon fill-rule="evenodd" clip-rule="evenodd" fill="#FFFFFF" points="211.372,93.015 228.348,93.015 228.348,111.091 
				211.372,111.091 211.372,93.015 			"/>
			
				<line fill="none" stroke="#808080" stroke-width="1.9971" stroke-linejoin="round" stroke-miterlimit="8" x1="228.762" y1="102.195" x2="211.786" y2="102.195"/>
		</g>
		<path fill="none" stroke="#808080" stroke-width="1.9971" stroke-linejoin="round" stroke-miterlimit="8" d="M213.372,151.619
			c1.426-4.234,2.138-8.467,3.206-12.702c1.07-32.104,6.414-78.35,6.414-109.749"/>
		<text transform="matrix(1.0017 0 0 1 189.5874 107.4297)" fill="#808080" font-family="sans-serif" font-size="17.029">A</text>
		<text transform="matrix(1.0017 0 0 1 236.7998 108.4297)" fill="#808080" font-family="sans-serif" font-size="17.029">C</text>
	</g>
</g>
</svg>
