<?xml version="1.0" encoding="utf-8"?>
<!-- Generator: Adobe Illustrator 16.0.0, SVG Export Plug-In . SVG Version: 6.00 Build 0)  -->
<!DOCTYPE svg PUBLIC "-//W3C//DTD SVG 1.1//EN" "http://www.w3.org/Graphics/SVG/1.1/DTD/svg11.dtd">
<svg version="1.1" id="Version_1.0" xmlns="http://www.w3.org/2000/svg" xmlns:xlink="http://www.w3.org/1999/xlink" x="0px"
	 y="0px" width="400px" height="400px" viewBox="0 0 400 400" enable-background="new 0 0 400 400" xml:space="preserve">
<g id="main">
	<path fill="none" stroke="#000000" stroke-width="7" stroke-linecap="round" stroke-linejoin="round" stroke-miterlimit="10" d="
		M156.972,115.492c-42.024,4.464-96.079,2.243-108.09,26.702c-12.01,24.46-9.997,97.839,36.03,120.08
		c46.028,22.236,194.148,31.146,240.177,13.354c46.027-17.794,40.034-93.396,36.03-120.099
		c-4.003-26.681-26.032-33.347-60.051-40.032C267.052,108.827,198.997,111.048,156.972,115.492"/>
	<text id="varT_1_" transform="matrix(1 0 0 1 271.9307 179.4258)" font-family="sans-serif" font-size="36"> </text>
	<text transform="matrix(1 0 0 1 127.0864 179.4258)" font-family="sans-serif" font-size="36">JTAA - </text>
</g>
<g id="template" display="none">
	<g display="inline">
		
			<rect x="227.495" y="217.74" fill="none" stroke="#000000" stroke-width="1.721" stroke-linecap="round" stroke-miterlimit="8" width="59.303" height="45.625"/>
		
			<text transform="matrix(1 0 0 1 232.3184 252.2139)" opacity="0.98" enable-background="new    " font-family="sans-serif" font-size="36">W1</text>
	</g>
	<g display="inline">
		
			<text transform="matrix(1 0 0 1 198.7246 252.4258)" opacity="0.98" enable-background="new    " font-family="sans-serif" font-size="36">-</text>
		
			<rect x="138.5" y="217.74" fill="none" stroke="#000000" stroke-width="1.6116" stroke-linecap="round" stroke-miterlimit="8" width="52" height="45.625"/>
		
			<text transform="matrix(1 0 0 1 147.5176 252.2139)" opacity="0.98" enable-background="new    " font-family="sans-serif" font-size="36">W</text>
	</g>
	<g display="inline">
		
			<rect x="240.495" y="146.5" fill="none" stroke="#000000" stroke-width="1.7378" stroke-linecap="round" stroke-miterlimit="8" width="48.778" height="40.727"/>
		<text transform="matrix(1 0 0 1 254.9307 181.4307)" font-family="sans-serif" font-size="36">T</text>
	</g>
	<g display="inline">
		
			<rect x="24.215" y="167.29" fill="#FFFFFF" stroke="#000000" stroke-width="2.096" stroke-linecap="round" stroke-miterlimit="8" width="40.135" height="37.61"/>
		<text transform="matrix(1 0 0 1 32.9805 198.9023)" font-family="sans-serif" font-size="36">N</text>
	</g>
	<g display="inline">
		
			<rect x="338.101" y="165.5" fill="#FFFFFF" stroke="#000000" stroke-width="2.096" stroke-linecap="round" stroke-miterlimit="8" width="40.136" height="37.611"/>
		<text transform="matrix(1 0 0 1 346.4834 197.9023)" font-family="sans-serif" font-size="36">N</text>
	</g>
</g>
<g id="template_1_" display="none">
	<text id="varW-W1e" transform="matrix(1 0 0 1 78.0171 242.2139)" display="inline" font-family="sans-serif" font-size="34">051030-051600Z</text>
	<text id="varTe" transform="matrix(1 0 0 1 127.1914 179.4258)" display="inline" font-family="sans-serif" font-size="36">JTAA-02</text>
	<g display="inline">
		
			<rect x="24.215" y="167.29" fill="#FFFFFF" stroke="#000000" stroke-width="2.096" stroke-linecap="round" stroke-miterlimit="8" width="40.135" height="37.61"/>
		<text id="varNe_1_" transform="matrix(1 0 0 1 32.9805 198.9023)" font-family="sans-serif" font-size="36">N</text>
	</g>
	<g display="inline">
		
			<rect x="338.101" y="165.5" fill="#FFFFFF" stroke="#000000" stroke-width="2.096" stroke-linecap="round" stroke-miterlimit="8" width="40.136" height="37.611"/>
		<text id="varNe" transform="matrix(1 0 0 1 346.4834 197.9023)" font-family="sans-serif" font-size="36">N</text>
	</g>
</g>
</svg>
