<?xml version="1.0" encoding="utf-8"?>
<!-- Generator: Adobe Illustrator 16.0.0, SVG Export Plug-In . SVG Version: 6.00 Build 0)  -->
<!DOCTYPE svg PUBLIC "-//W3C//DTD SVG 1.1//EN" "http://www.w3.org/Graphics/SVG/1.1/DTD/svg11.dtd">
<svg version="1.1" id="Version_1.0" xmlns="http://www.w3.org/2000/svg" xmlns:xlink="http://www.w3.org/1999/xlink" x="0px"
	 y="0px" width="400px" height="400px" viewBox="0 0 400 400" enable-background="new 0 0 400 400" xml:space="preserve">
<g id="main">
	<line fill="none" stroke="#000000" stroke-width="5" x1="110.995" y1="234.01" x2="307.494" y2="234.057"/>
	<line fill="none" stroke="#000000" stroke-width="5" x1="111.658" y1="233.389" x2="62.984" y2="281.999"/>
	<line fill="none" stroke="#000000" stroke-width="5" x1="306.305" y1="233.684" x2="355.482" y2="285.066"/>
	<g>
		<g>
			<line fill="none" stroke="#000000" stroke-width="5" x1="305.104" y1="234.03" x2="318.822" y2="143.83"/>
			<g>
				<path d="M332.764,171.873c-0.944,0.419-2.055-0.01-2.474-0.958l-11.597-26.239l-18.873,21.605
					c-0.682,0.78-1.868,0.86-2.646,0.179c-0.777-0.681-0.854-1.873-0.179-2.646l20.811-23.822c0.421-0.482,1.063-0.716,1.694-0.62
					c0.633,0.096,1.175,0.51,1.434,1.096l12.787,28.932c0.148,0.337,0.19,0.698,0.141,1.038
					C333.767,171.05,333.371,171.603,332.764,171.873z"/>
			</g>
		</g>
	</g>
	<g>
		<g>
			<line fill="none" stroke="#000000" stroke-width="5" x1="110.456" y1="234.03" x2="96.235" y2="147.948"/>
			<g>
				<path d="M118.171,170.3c-0.77,0.691-1.957,0.626-2.648-0.145l-19.148-21.362l-11.26,26.385c-0.407,0.953-1.51,1.396-2.46,0.989
					c-0.95-0.407-1.39-1.517-0.989-2.46l12.416-29.093c0.251-0.589,0.787-1.01,1.419-1.114s1.274,0.122,1.702,0.599l21.114,23.554
					c0.246,0.275,0.397,0.604,0.453,0.944C118.87,169.207,118.665,169.855,118.171,170.3z"/>
			</g>
		</g>
	</g>
</g>
<g id="template" display="none">
	<g display="inline">
		<text transform="matrix(1 0 0 1 101.2607 326.7822)" font-family="'ArialMT'" font-size="24.0012">PT 1</text>
		<g>
			<line fill="none" stroke="#000000" stroke-width="2" x1="115.117" y1="245.405" x2="124.377" y2="305.98"/>
			<g transform="rotate(65.6622 56 114) translate(109.261 -125.088)">
				<polygon stroke="#000000" stroke-width="2" points="84.178,239.763 105.985,238.584 103.317,250.284 				"/>
			</g>
		</g>
	</g>
	<g display="inline">
		<text transform="matrix(1 0 0 1 257.2608 329.5587)" font-family="'ArialMT'" font-size="24.0012">PT 2</text>
		<g>
			<line fill="none" stroke="#000000" stroke-width="2" x1="299.617" y1="247.742" x2="283.6" y2="309.787"/>
			
				<g transform="rotate(120.7 250 252) translate(41.2731 12.7096) rotate(347.239 249.043 253.756) rotate(7.88711 248.379 253.172) translate(-0.90012 0.435643) translate(0.435643 0.90012)">
				<polygon stroke="#000000" stroke-width="2" points="174.008,191.845 194.253,183.654 195.525,195.587 				"/>
			</g>
		</g>
	</g>
	<g display="inline">
		<text transform="matrix(1 0 0 1 75.7607 72.2822)" font-family="'ArialMT'" font-size="24.0012">PT 3</text>
		<g>
			<line fill="none" stroke="#000000" stroke-width="2" x1="95.995" y1="141.699" x2="95.995" y2="77.199"/>
			<polygon stroke="#000000" stroke-width="2" points="95.995,137.168 101.995,116.169 89.995,116.169 			"/>
		</g>
	</g>
	<g display="inline">
		<text transform="matrix(1 0 0 1 298.8525 69.4609)" font-family="'ArialMT'" font-size="24">PT 4</text>
		<line fill="none" stroke="#000000" stroke-width="2" x1="319.087" y1="138.878" x2="319.087" y2="74.378"/>
		<polyline stroke="#000000" stroke-width="2" points="319.087,134.347 325.087,113.349 313.087,113.349 319.087,134.347 		"/>
	</g>
</g>
<g id="example" display="none">
	<polygon display="inline" fill="#FF8080" points="209.727,38.729 161.639,79.074 209.727,119.42 257.814,79.074 	"/>
	
		<polygon display="inline" fill="none" stroke="#808080" stroke-width="0.7489" stroke-linecap="round" stroke-linejoin="round" stroke-miterlimit="8" points="
		209.727,38.729 161.639,79.074 209.727,119.42 257.814,79.074 	"/>
</g>
</svg>
