<?xml version="1.0" encoding="utf-8"?>
<!-- Generator: Adobe Illustrator 16.0.0, SVG Export Plug-In . SVG Version: 6.00 Build 0)  -->
<!DOCTYPE svg PUBLIC "-//W3C//DTD SVG 1.1//EN" "http://www.w3.org/Graphics/SVG/1.1/DTD/svg11.dtd">
<svg version="1.1" id="Version_1.0" xmlns="http://www.w3.org/2000/svg" xmlns:xlink="http://www.w3.org/1999/xlink" x="0px"
	 y="0px" width="612px" height="792px" viewBox="0 0 612 792" enable-background="new 0 0 612 792" xml:space="preserve">
<g id="main" transform="translate(-120 -150) scale(1.5 1.5)">
	<path fill="none" stroke="#000000" stroke-width="2" d="M203.838,358.904c13.174-104.438,162.599-86.175,158,10.4
		c-3.446,72.352-109.576,99.647-149.2,29.6"/>
	<line fill="none" stroke="#000000" stroke-width="2" x1="212.502" y1="398.837" x2="212.502" y2="423.837"/>
	<line fill="none" stroke="#000000" stroke-width="2" x1="211.515" y1="398.652" x2="232.918" y2="398.663"/>
	<line fill="none" stroke="#000000" stroke-width="2" x1="203.835" y1="353.964" x2="187.502" y2="350.837"/>
	<line fill="none" stroke="#000000" stroke-width="2" x1="207.502" y1="340.837" x2="191.635" y2="333.563"/>
	<line fill="none" stroke="#000000" stroke-width="2" x1="213.502" y1="325.837" x2="199.502" y2="317.837"/>
	<line fill="none" stroke="#000000" stroke-width="2" x1="223.502" y1="313.837" x2="210.502" y2="302.837"/>
	<line fill="none" stroke="#000000" stroke-width="2" x1="233.502" y1="303.837" x2="224.502" y2="290.837"/>
	<line fill="none" stroke="#000000" stroke-width="2" x1="246.502" y1="295.837" x2="238.502" y2="281.837"/>
	<line fill="none" stroke="#000000" stroke-width="2" x1="259.502" y1="290.837" x2="254.502" y2="274.837"/>
	<line fill="none" stroke="#000000" stroke-width="2" x1="276.502" y1="287.837" x2="276.502" y2="270.837"/>
	<line fill="none" stroke="#000000" stroke-width="2" x1="293.502" y1="288.837" x2="297.502" y2="270.837"/>
	<line fill="none" stroke="#000000" stroke-width="2" x1="309.502" y1="293.837" x2="316.835" y2="275.563"/>
	<line fill="none" stroke="#000000" stroke-width="2" x1="326.502" y1="300.837" x2="337.633" y2="285.563"/>
	<line fill="none" stroke="#000000" stroke-width="2" x1="342.502" y1="312.837" x2="354.502" y2="300.837"/>
	<line fill="none" stroke="#000000" stroke-width="2" x1="352.502" y1="325.837" x2="367.502" y2="316.837"/>
	<line fill="none" stroke="#000000" stroke-width="2" x1="359.502" y1="342.837" x2="376.502" y2="336.837"/>
	<line fill="none" stroke="#000000" stroke-width="2" x1="361.502" y1="358.837" x2="380.502" y2="358.837"/>
	<line fill="none" stroke="#000000" stroke-width="2" x1="361.502" y1="374.837" x2="382.002" y2="377.837"/>
	<line fill="none" stroke="#000000" stroke-width="2" x1="358.502" y1="389.837" x2="375.633" y2="395.163"/>
	<line fill="none" stroke="#000000" stroke-width="2" x1="350.035" y1="404.764" x2="364.502" y2="414.837"/>
	<line fill="none" stroke="#000000" stroke-width="2" x1="338.502" y1="418.837" x2="349.234" y2="433.964"/>
	<line fill="none" stroke="#000000" stroke-width="2" x1="317.502" y1="431.837" x2="324.502" y2="448.837"/>
	<line fill="none" stroke="#000000" stroke-width="2" x1="297.502" y1="438.837" x2="301.502" y2="455.837"/>
	<line fill="none" stroke="#000000" stroke-width="2" x1="275.502" y1="439.837" x2="275.633" y2="457.163"/>
	<line fill="none" stroke="#000000" stroke-width="2" x1="255.502" y1="435.837" x2="249.502" y2="450.837"/>
	<line fill="none" stroke="#000000" stroke-width="2" x1="238.502" y1="427.837" x2="231.235" y2="443.163"/>
	<line fill="none" stroke="#000000" stroke-width="2" x1="227.502" y1="418.837" x2="216.835" y2="431.563"/>
	<g transform="translate(150.602 10.8434) translate(-1 0) translate(-1 0) translate(0 -1) translate(0 -1)">
		<rect x="202.301" y="341.223" fill="#FFFFFF" stroke="#FFFFFF" width="23.333" height="23.333"/>
		<text transform="matrix(0.6667 0 0 0.6667 205.8752 361.2224)" font-family="sans-serif" font-size="35.0036">R</text>
	</g>
</g>
<g id="template" display="none">
	<g display="inline">
		<line fill="none" stroke="#000000" stroke-width="2" x1="168.752" y1="389.755" x2="135.752" y2="377.754"/>
		<line fill="none" stroke="#000000" stroke-width="2" x1="136.669" y1="378.882" x2="135.752" y2="319.254"/>
		<polygon stroke="#000000" stroke-width="2" points="172.573,390.573 151.681,390.526 157.096,376.538 		"/>
	</g>
	<g id="group" transform="translate(-26 174)" display="inline">
		<text transform="matrix(1 0 0 1 305.751 239.754)" font-family="sans-serif" font-size="18.0009">PT. 1</text>
		<ellipse stroke="#000000" cx="331.978" cy="221.681" rx="2.561" ry="2.514"/>
		<text transform="matrix(1 0 0 1 245.751 259.254)" font-family="sans-serif" font-size="18.0009">(CENTER POINT)</text>
	</g>
	<g id="group_1_" transform="translate(18 62)" display="inline">
		<text transform="matrix(1 0 0 1 87.751 204.7549)" font-family="sans-serif" font-size="18">PT. 2</text>
		<text transform="matrix(1 0 0 1 74.251 222.7549)" font-family="sans-serif" font-size="18">(START</text>
		<text transform="matrix(1 0 0 1 78.751 242.2549)" font-family="sans-serif" font-size="18">POINT)</text>
	</g>
</g>
</svg>
