<?xml version="1.0" encoding="utf-8"?>
<!-- Generator: Adobe Illustrator 16.0.0, SVG Export Plug-In . SVG Version: 6.00 Build 0)  -->
<!DOCTYPE svg PUBLIC "-//W3C//DTD SVG 1.1//EN" "http://www.w3.org/Graphics/SVG/1.1/DTD/svg11.dtd">
<svg version="1.1" id="Version_1.0" xmlns="http://www.w3.org/2000/svg" xmlns:xlink="http://www.w3.org/1999/xlink" x="0px"
	 y="0px" width="400px" height="400px" viewBox="0 0 400 400" enable-background="new 0 0 400 400" xml:space="preserve">
<g id="main">
	<polygon points="55.292,190.928 47.166,191.37 47.546,203.357 51.409,202.938 48.326,200.36 47.546,201.646 47.546,202.938 
		49.868,199.938 24.351,210.219 22.81,211.083 22.03,212.37 22.03,213.657 22.03,214.947 22.409,215.791 46.006,246.225 
		46.385,246.646 47.948,247.511 49.488,247.511 51.027,247.511 52.569,246.646 71.522,230.375 68.82,227.801 67.258,231.219 
		68.82,231.219 69.982,231.219 66.097,230.796 90.474,246.646 92.796,243.646 88.913,242.359 88.913,243.646 88.913,244.938 
		89.694,246.225 89.314,241.938 75.385,262.518 75.004,262.939 75.004,264.227 75.004,265.514 76.165,266.802 77.326,267.648 
		114.429,283.076 115.991,283.076 117.532,283.076 118.691,282.227 119.852,280.939 127.197,259.941 123.336,258.652 
		123.336,262.073 124.876,262.073 126.417,261.229 127.197,259.941 122.175,262.073 150.013,267.648 150.772,264.227 
		146.911,264.227 146.911,265.514 148.071,266.802 149.231,267.648 146.911,263.805 142.668,285.648 142.668,286.092 
		142.668,287.377 143.427,288.643 144.99,289.51 145.75,289.934 187.117,293.372 187.897,292.93 189.059,292.93 190.598,292.086 
		191.76,290.8 192.14,289.51 192.14,267.225 187.897,267.225 187.897,270.664 189.059,270.664 190.598,269.799 191.76,268.509 
		187.897,271.085 201.046,271.508 201.426,264.227 188.276,263.805 187.897,263.805 186.357,263.805 184.795,264.648 
		183.634,265.934 183.634,267.225 183.634,289.51 187.897,286.092 186.357,286.092 184.795,286.938 183.634,288.227 183.634,289.51 
		187.897,289.51 188.276,286.092 146.911,282.65 150.392,286.092 150.392,284.805 149.231,283.518 148.071,282.65 146.53,286.092 
		150.392,286.938 154.656,265.092 154.656,264.227 154.656,262.939 153.875,261.652 152.333,260.785 151.933,260.785 
		124.096,255.213 123.336,255.213 121.773,255.213 120.233,256.081 119.474,257.366 119.474,257.789 112.108,278.791 
		117.532,276.234 115.991,276.234 114.429,276.234 112.887,277.082 112.108,278.366 115.991,279.654 117.912,276.658 
		80.808,261.229 82.729,265.514 82.729,264.227 82.729,262.939 81.969,261.652 78.866,264.227 82.349,266.357 96.257,245.801 
		96.659,244.938 96.659,243.646 96.659,242.359 95.876,241.073 95.096,241.073 71.141,225.225 69.982,224.355 68.82,224.355 
		67.258,224.355 65.718,225.225 46.385,241.52 52.569,241.52 51.027,240.65 49.488,240.65 47.948,240.65 49.488,244.094 
		52.97,241.938 29.375,211.506 28.614,216.232 29.775,214.947 29.775,213.657 29.775,212.37 25.892,213.657 27.833,217.076 
		53.35,206.376 54.511,205.511 55.292,204.225 55.292,202.938 55.671,202.938 	"/>
	
		<polygon fill="none" stroke="#000000" stroke-width="3" stroke-linecap="round" stroke-linejoin="round" stroke-miterlimit="10" points="
		55.292,190.928 47.166,191.37 47.546,203.357 51.409,202.938 48.326,200.36 47.546,201.646 47.546,202.938 49.868,199.938 
		24.351,210.219 22.81,211.083 22.03,212.37 22.03,213.657 22.03,214.947 22.409,215.791 46.006,246.225 46.385,246.646 
		47.948,247.511 49.488,247.511 51.027,247.511 52.569,246.646 71.522,230.375 68.82,227.801 67.258,231.219 68.82,231.219 
		69.982,231.219 66.097,230.796 90.474,246.646 92.796,243.646 88.913,242.359 88.913,243.646 88.913,244.938 89.694,246.225 
		89.314,241.938 75.385,262.518 75.004,262.939 75.004,264.227 75.004,265.514 76.165,266.802 77.326,267.648 114.429,283.076 
		115.991,283.076 117.532,283.076 118.691,282.227 119.852,280.939 127.197,259.941 123.336,258.652 123.336,262.073 
		124.876,262.073 126.417,261.229 127.197,259.941 122.175,262.073 150.013,267.648 150.772,264.227 146.911,264.227 
		146.911,265.514 148.071,266.802 149.231,267.648 146.911,263.805 142.668,285.648 142.668,286.092 142.668,287.377 
		143.427,288.643 144.99,289.51 145.75,289.934 187.117,293.372 187.897,292.93 189.059,292.93 190.598,292.086 191.76,290.8 
		192.14,289.51 192.14,267.225 187.897,267.225 187.897,270.664 189.059,270.664 190.598,269.799 191.76,268.509 187.897,271.085 
		201.046,271.508 201.426,264.227 188.276,263.805 187.897,263.805 186.357,263.805 184.795,264.648 183.634,265.934 
		183.634,267.225 183.634,289.51 187.897,286.092 186.357,286.092 184.795,286.938 183.634,288.227 183.634,289.51 187.897,289.51 
		188.276,286.092 146.911,282.65 150.392,286.092 150.392,284.805 149.231,283.518 148.071,282.65 146.53,286.092 150.392,286.938 
		154.656,265.092 154.656,264.227 154.656,262.939 153.875,261.652 152.333,260.785 151.933,260.785 124.096,255.213 
		123.336,255.213 121.773,255.213 120.233,256.081 119.474,257.366 119.474,257.789 112.108,278.791 117.532,276.234 
		115.991,276.234 114.429,276.234 112.887,277.082 112.108,278.366 115.991,279.654 117.912,276.658 80.808,261.229 82.729,265.514 
		82.729,264.227 82.729,262.939 81.969,261.652 78.866,264.227 82.349,266.357 96.257,245.801 96.659,244.938 96.659,243.646 
		96.659,242.359 95.876,241.073 95.096,241.073 71.141,225.225 69.982,224.355 68.82,224.355 67.258,224.355 65.718,225.225 
		46.385,241.52 52.569,241.52 51.027,240.65 49.488,240.65 47.948,240.65 49.488,244.094 52.97,241.938 29.375,211.506 
		28.614,216.232 29.775,214.947 29.775,213.657 29.775,212.37 25.892,213.657 27.833,217.076 53.35,206.376 54.511,205.511 
		55.292,204.225 55.292,202.938 55.671,202.938 	"/>
	<polygon points="357.585,191.37 349.079,190.928 347.919,202.938 347.919,204.225 349.079,205.511 350.641,206.376 
		376.538,217.076 378.077,213.657 374.216,212.37 374.216,213.657 374.216,214.947 375.375,216.232 374.596,211.948 
		351.021,242.359 354.503,244.094 356.045,240.65 354.503,240.65 352.962,240.65 351.401,241.52 357.585,241.52 338.251,225.225 
		336.714,224.355 335.173,224.355 334.011,224.355 332.85,224.801 308.114,240.65 307.713,241.073 306.955,242.359 306.955,243.646 
		306.955,244.938 307.332,245.801 320.86,266.357 324.342,264.227 321.643,261.652 320.481,262.939 320.481,264.227 
		320.481,265.514 323.184,261.229 286.061,276.658 287.619,279.654 291.48,278.366 290.701,277.082 289.162,276.234 
		287.619,276.234 286.061,276.234 291.48,278.791 284.139,257.789 284.139,257.366 282.977,256.081 281.814,255.213 
		280.275,255.213 279.115,255.213 251.656,260.785 251.275,260.785 249.716,261.652 248.555,262.939 248.555,264.227 
		248.555,265.092 253.198,286.938 257.059,286.092 255.52,282.65 253.977,283.518 253.198,284.805 253.198,286.092 257.059,282.65 
		215.693,286.092 215.693,289.51 219.578,289.51 219.578,288.227 218.795,286.938 217.256,286.092 215.693,286.092 219.956,289.51 
		219.956,267.225 219.578,267.225 219.578,265.934 218.795,264.648 217.256,263.805 215.693,263.805 202.545,264.227 
		202.545,271.508 215.693,271.085 211.83,267.225 211.83,268.509 212.609,269.799 214.152,270.664 215.693,270.664 215.693,267.225 
		211.83,267.225 211.83,289.51 211.83,290.8 212.609,292.086 214.152,292.93 215.693,292.93 216.092,293.372 257.46,289.934 
		258.622,289.51 260.162,288.643 260.941,287.377 260.941,286.092 260.941,285.648 256.682,263.805 253.977,267.648 255.52,266.802 
		256.682,265.514 256.682,264.227 252.438,264.227 253.6,267.648 281.036,262.073 276.393,259.941 277.172,261.229 278.713,262.073 
		280.275,262.073 280.275,258.652 276.393,259.941 283.736,280.939 284.52,282.227 286.061,283.076 287.619,283.076 
		289.162,283.076 289.541,283.076 326.287,267.648 327.425,266.802 328.587,265.514 328.587,264.227 328.587,262.939 
		327.824,262.518 314.295,241.938 313.517,246.225 314.679,244.938 314.679,243.646 314.679,242.359 310.813,243.646 
		313.137,246.646 337.872,230.796 334.011,231.219 335.173,231.219 336.714,231.219 335.173,227.801 332.471,230.375 
		351.401,246.646 352.962,247.511 354.503,247.511 356.045,247.511 357.585,246.646 357.984,246.225 381.563,215.791 
		381.939,214.947 381.939,213.657 381.939,212.37 381.179,211.083 380.021,210.219 354.125,199.938 356.045,202.938 
		356.045,201.646 354.883,200.36 352.181,202.938 356.426,203.357 	"/>
	
		<polygon fill="none" stroke="#000000" stroke-width="3" stroke-linecap="round" stroke-linejoin="round" stroke-miterlimit="10" points="
		357.585,191.37 349.079,190.928 347.919,202.938 347.919,204.225 349.079,205.511 350.641,206.376 376.538,217.076 
		378.077,213.657 374.216,212.37 374.216,213.657 374.216,214.947 375.375,216.232 374.596,211.948 351.021,242.359 
		354.503,244.094 356.045,240.65 354.503,240.65 352.962,240.65 351.401,241.52 357.585,241.52 338.251,225.225 336.714,224.355 
		335.173,224.355 334.011,224.355 332.85,224.801 308.114,240.65 307.713,241.073 306.955,242.359 306.955,243.646 306.955,244.938 
		307.332,245.801 320.86,266.357 324.342,264.227 321.643,261.652 320.481,262.939 320.481,264.227 320.481,265.514 
		323.184,261.229 286.061,276.658 287.619,279.654 291.48,278.366 290.701,277.082 289.162,276.234 287.619,276.234 
		286.061,276.234 291.48,278.791 284.139,257.789 284.139,257.366 282.977,256.081 281.814,255.213 280.275,255.213 
		279.115,255.213 251.656,260.785 251.275,260.785 249.716,261.652 248.555,262.939 248.555,264.227 248.555,265.092 
		253.198,286.938 257.059,286.092 255.52,282.65 253.977,283.518 253.198,284.805 253.198,286.092 257.059,282.65 215.693,286.092 
		215.693,289.51 219.578,289.51 219.578,288.227 218.795,286.938 217.256,286.092 215.693,286.092 219.956,289.51 219.956,267.225 
		219.578,267.225 219.578,265.934 218.795,264.648 217.256,263.805 215.693,263.805 202.545,264.227 202.545,271.508 
		215.693,271.085 211.83,267.225 211.83,268.509 212.609,269.799 214.152,270.664 215.693,270.664 215.693,267.225 211.83,267.225 
		211.83,289.51 211.83,290.8 212.609,292.086 214.152,292.93 215.693,292.93 216.092,293.372 257.46,289.934 258.622,289.51 
		260.162,288.643 260.941,287.377 260.941,286.092 260.941,285.648 256.682,263.805 253.977,267.648 255.52,266.802 
		256.682,265.514 256.682,264.227 252.438,264.227 253.6,267.648 281.036,262.073 276.393,259.941 277.172,261.229 278.713,262.073 
		280.275,262.073 280.275,258.652 276.393,259.941 283.736,280.939 284.52,282.227 286.061,283.076 287.619,283.076 
		289.162,283.076 289.541,283.076 326.287,267.648 327.425,266.802 328.587,265.514 328.587,264.227 328.587,262.939 
		327.824,262.518 314.295,241.938 313.517,246.225 314.679,244.938 314.679,243.646 314.679,242.359 310.813,243.646 
		313.137,246.646 337.872,230.796 334.011,231.219 335.173,231.219 336.714,231.219 335.173,227.801 332.471,230.375 
		351.401,246.646 352.962,247.511 354.503,247.511 356.045,247.511 357.585,246.646 357.984,246.225 381.563,215.791 
		381.939,214.947 381.939,213.657 381.939,212.37 381.179,211.083 380.021,210.219 354.125,199.938 356.045,202.938 
		356.045,201.646 354.883,200.36 352.181,202.938 356.426,203.357 	"/>
	<polygon points="47.166,191.917 55.292,192.341 55.671,179.932 55.292,179.508 55.292,178.223 54.511,176.934 53.35,176.512 
		27.833,165.812 25.892,168.809 29.775,170.517 29.775,168.809 29.775,167.521 28.614,166.233 29.375,171.383 52.97,140.57 
		49.488,138.417 47.948,141.835 49.488,141.835 51.027,141.835 52.569,140.991 46.385,140.991 65.718,157.687 67.258,158.53 
		68.82,158.53 69.982,158.53 71.141,158.108 95.096,142.279 95.876,141.835 96.659,140.57 96.659,139.283 96.659,137.995 
		96.257,137.573 82.349,117.016 78.866,118.725 81.969,121.301 82.729,120.013 82.729,118.725 82.729,117.458 80.808,122.166 
		117.912,106.315 115.991,102.896 112.108,104.184 112.887,105.471 114.429,106.315 115.991,106.315 117.532,106.315 
		112.108,104.184 119.474,125.585 120.233,126.872 121.773,127.716 123.336,127.716 124.096,127.716 151.933,121.723 
		152.333,121.723 153.875,120.879 154.656,119.591 154.656,118.304 154.656,117.881 150.392,96.058 146.53,96.48 148.071,99.899 
		149.231,99.055 150.392,97.767 150.392,96.48 146.911,100.322 188.276,96.902 187.897,93.061 183.634,93.061 183.634,94.348 
		184.795,95.616 186.357,96.48 187.897,96.48 183.634,93.061 183.634,115.729 183.634,117.016 184.795,118.304 186.357,119.169 
		187.897,119.169 188.276,119.591 201.426,118.725 201.046,111.465 187.897,112.31 191.76,115.729 191.76,114.462 190.598,113.174 
		189.059,112.31 187.897,112.31 187.897,115.729 192.14,115.729 192.14,93.061 191.76,93.061 191.76,91.773 190.598,90.485 
		189.059,89.622 187.897,89.622 146.53,93.061 144.99,93.061 143.427,93.906 142.668,95.193 142.668,96.48 142.668,97.324 
		146.911,119.169 149.231,114.884 148.071,115.729 146.911,117.016 146.911,118.304 150.772,118.304 150.013,114.884 
		122.175,120.879 127.197,123.01 126.417,121.723 124.876,120.879 123.336,120.879 123.336,124.297 127.197,123.432 
		119.852,102.053 119.852,101.609 118.691,100.322 117.532,99.478 115.991,99.478 114.429,99.478 114.429,99.899 77.326,115.729 
		76.165,116.172 75.004,117.458 75.004,118.725 75.004,120.013 75.385,120.879 89.314,141.414 89.694,136.708 88.913,137.995 
		88.913,139.283 88.913,140.57 92.796,139.283 90.474,136.708 66.097,152.536 69.982,151.691 68.82,151.691 67.258,151.691 
		68.82,155.112 71.522,152.536 52.569,135.843 51.027,134.998 49.488,134.998 47.948,134.998 46.385,135.843 46.006,136.708 
		22.409,167.099 22.03,167.521 22.03,168.809 22.03,170.517 22.81,171.806 24.351,172.65 49.868,182.928 47.546,179.508 
		47.546,180.797 48.326,182.063 51.409,179.508 47.546,179.508 	"/>
	
		<polygon fill="none" stroke="#000000" stroke-width="3" stroke-linecap="round" stroke-linejoin="round" stroke-miterlimit="10" points="
		47.166,191.917 55.292,192.341 55.671,179.932 55.292,179.508 55.292,178.223 54.511,176.934 53.35,176.512 27.833,165.812 
		25.892,168.809 29.775,170.517 29.775,168.809 29.775,167.521 28.614,166.233 29.375,171.383 52.97,140.57 49.488,138.417 
		47.948,141.835 49.488,141.835 51.027,141.835 52.569,140.991 46.385,140.991 65.718,157.687 67.258,158.53 68.82,158.53 
		69.982,158.53 71.141,158.108 95.096,142.279 95.876,141.835 96.659,140.57 96.659,139.283 96.659,137.995 96.257,137.573 
		82.349,117.016 78.866,118.725 81.969,121.301 82.729,120.013 82.729,118.725 82.729,117.458 80.808,122.166 117.912,106.315 
		115.991,102.896 112.108,104.184 112.887,105.471 114.429,106.315 115.991,106.315 117.532,106.315 112.108,104.184 
		119.474,125.585 120.233,126.872 121.773,127.716 123.336,127.716 124.096,127.716 151.933,121.723 152.333,121.723 
		153.875,120.879 154.656,119.591 154.656,118.304 154.656,117.881 150.392,96.058 146.53,96.48 148.071,99.899 149.231,99.055 
		150.392,97.767 150.392,96.48 146.911,100.322 188.276,96.902 187.897,93.061 183.634,93.061 183.634,94.348 184.795,95.616 
		186.357,96.48 187.897,96.48 183.634,93.061 183.634,115.729 183.634,117.016 184.795,118.304 186.357,119.169 187.897,119.169 
		188.276,119.591 201.426,118.725 201.046,111.465 187.897,112.31 191.76,115.729 191.76,114.462 190.598,113.174 189.059,112.31 
		187.897,112.31 187.897,115.729 192.14,115.729 192.14,93.061 191.76,93.061 191.76,91.773 190.598,90.485 189.059,89.622 
		187.897,89.622 146.53,93.061 144.99,93.061 143.427,93.906 142.668,95.193 142.668,96.48 142.668,97.324 146.911,119.169 
		149.231,114.884 148.071,115.729 146.911,117.016 146.911,118.304 150.772,118.304 150.013,114.884 122.175,120.879 
		127.197,123.01 126.417,121.723 124.876,120.879 123.336,120.879 123.336,124.297 127.197,123.432 119.852,102.053 
		119.852,101.609 118.691,100.322 117.532,99.478 115.991,99.478 114.429,99.478 114.429,99.899 77.326,115.729 76.165,116.172 
		75.004,117.458 75.004,118.725 75.004,120.013 75.385,120.879 89.314,141.414 89.694,136.708 88.913,137.995 88.913,139.283 
		88.913,140.57 92.796,139.283 90.474,136.708 66.097,152.536 69.982,151.691 68.82,151.691 67.258,151.691 68.82,155.112 
		71.522,152.536 52.569,135.843 51.027,134.998 49.488,134.998 47.948,134.998 46.385,135.843 46.006,136.708 22.409,167.099 
		22.03,167.521 22.03,168.809 22.03,170.517 22.81,171.806 24.351,172.65 49.868,182.928 47.546,179.508 47.546,180.797 
		48.326,182.063 51.409,179.508 47.546,179.508 	"/>
	<polygon points="349.079,192.341 357.585,191.917 356.426,179.508 352.181,179.508 354.883,182.063 356.045,180.797 
		356.045,179.508 354.125,182.928 380.021,172.65 381.179,171.806 381.939,170.517 381.939,168.809 381.939,167.521 
		381.563,166.657 357.984,136.284 357.585,135.843 356.045,134.998 354.503,134.998 352.962,134.998 351.401,135.843 
		332.471,152.536 335.173,155.112 336.714,151.691 335.173,151.691 334.011,151.691 337.872,152.536 313.137,136.708 
		310.813,139.283 314.679,140.57 314.679,139.283 314.679,137.995 313.517,136.708 314.295,141.414 327.824,120.879 
		328.587,120.013 328.587,118.725 328.587,117.458 327.425,116.172 326.287,115.729 289.541,99.899 289.162,99.478 287.619,99.478 
		286.061,99.478 284.52,100.322 283.736,101.609 283.736,102.053 276.393,123.432 280.275,124.297 280.275,120.879 278.713,120.879 
		277.172,121.723 276.393,123.01 281.036,120.879 253.6,114.884 252.438,118.304 256.682,118.304 256.682,117.016 255.52,115.729 
		253.977,114.884 256.682,119.169 260.941,97.324 260.941,96.48 260.941,95.193 260.162,93.906 258.622,93.061 257.46,93.061 
		216.092,89.622 215.693,89.622 214.152,89.622 212.609,90.485 211.83,91.773 211.83,93.061 211.83,115.729 215.693,115.729 
		215.693,112.31 214.152,112.31 212.609,113.174 211.83,114.462 216.092,112.31 202.947,111.465 202.545,118.725 215.693,119.591 
		215.693,119.169 217.256,119.169 218.795,118.304 219.578,117.016 219.578,115.729 219.956,115.729 219.956,93.061 215.693,96.48 
		217.256,96.48 218.795,95.616 219.578,94.348 219.578,93.061 215.693,93.061 215.313,96.902 256.682,100.322 253.198,96.48 
		253.198,97.767 253.977,99.055 255.52,99.899 257.059,96.48 253.198,96.058 248.555,117.881 248.555,118.304 248.555,119.591 
		249.716,120.879 251.275,121.723 251.656,121.723 279.115,127.716 280.275,127.716 281.814,127.716 282.977,126.872 
		284.139,125.585 291.48,104.184 286.061,106.315 287.619,106.315 289.162,106.315 290.701,105.471 291.48,104.184 287.619,102.896 
		286.061,106.315 323.184,122.166 320.481,117.458 320.481,118.725 320.481,120.013 321.643,121.301 324.342,118.725 
		320.86,117.016 307.332,137.573 306.955,137.995 306.955,139.283 306.955,140.57 307.713,141.835 308.114,142.279 332.85,158.108 
		334.011,158.53 335.173,158.53 336.714,158.53 338.251,157.687 357.585,140.991 351.401,140.991 352.962,141.835 354.503,141.835 
		356.045,141.835 354.503,138.417 351.021,140.57 374.596,171.383 375.375,166.233 374.216,167.521 374.216,168.809 
		374.216,170.517 378.077,168.809 376.538,165.812 350.641,176.512 349.079,176.934 347.919,178.223 347.919,179.508 
		347.919,179.932 	"/>
	
		<polygon fill="none" stroke="#000000" stroke-width="3" stroke-linecap="round" stroke-linejoin="round" stroke-miterlimit="10" points="
		349.079,192.341 357.585,191.917 356.426,179.508 352.181,179.508 354.883,182.063 356.045,180.797 356.045,179.508 
		354.125,182.928 380.021,172.65 381.179,171.806 381.939,170.517 381.939,168.809 381.939,167.521 381.563,166.657 
		357.984,136.284 357.585,135.843 356.045,134.998 354.503,134.998 352.962,134.998 351.401,135.843 332.471,152.536 
		335.173,155.112 336.714,151.691 335.173,151.691 334.011,151.691 337.872,152.536 313.137,136.708 310.813,139.283 
		314.679,140.57 314.679,139.283 314.679,137.995 313.517,136.708 314.295,141.414 327.824,120.879 328.587,120.013 
		328.587,118.725 328.587,117.458 327.425,116.172 326.287,115.729 289.541,99.899 289.162,99.478 287.619,99.478 286.061,99.478 
		284.52,100.322 283.736,101.609 283.736,102.053 276.393,123.432 280.275,124.297 280.275,120.879 278.713,120.879 
		277.172,121.723 276.393,123.01 281.036,120.879 253.6,114.884 252.438,118.304 256.682,118.304 256.682,117.016 255.52,115.729 
		253.977,114.884 256.682,119.169 260.941,97.324 260.941,96.48 260.941,95.193 260.162,93.906 258.622,93.061 257.46,93.061 
		216.092,89.622 215.693,89.622 214.152,89.622 212.609,90.485 211.83,91.773 211.83,93.061 211.83,115.729 215.693,115.729 
		215.693,112.31 214.152,112.31 212.609,113.174 211.83,114.462 216.092,112.31 202.947,111.465 202.545,118.725 215.693,119.591 
		215.693,119.169 217.256,119.169 218.795,118.304 219.578,117.016 219.578,115.729 219.956,115.729 219.956,93.061 215.693,96.48 
		217.256,96.48 218.795,95.616 219.578,94.348 219.578,93.061 215.693,93.061 215.313,96.902 256.682,100.322 253.198,96.48 
		253.198,97.767 253.977,99.055 255.52,99.899 257.059,96.48 253.198,96.058 248.555,117.881 248.555,118.304 248.555,119.591 
		249.716,120.879 251.275,121.723 251.656,121.723 279.115,127.716 280.275,127.716 281.814,127.716 282.977,126.872 
		284.139,125.585 291.48,104.184 286.061,106.315 287.619,106.315 289.162,106.315 290.701,105.471 291.48,104.184 287.619,102.896 
		286.061,106.315 323.184,122.166 320.481,117.458 320.481,118.725 320.481,120.013 321.643,121.301 324.342,118.725 
		320.86,117.016 307.332,137.573 306.955,137.995 306.955,139.283 306.955,140.57 307.713,141.835 308.114,142.279 332.85,158.108 
		334.011,158.53 335.173,158.53 336.714,158.53 338.251,157.687 357.585,140.991 351.401,140.991 352.962,141.835 354.503,141.835 
		356.045,141.835 354.503,138.417 351.021,140.57 374.596,171.383 375.375,166.233 374.216,167.521 374.216,168.809 
		374.216,170.517 378.077,168.809 376.538,165.812 350.641,176.512 349.079,176.934 347.919,178.223 347.919,179.508 
		347.919,179.932 	"/>
</g>
<g id="template" display="none">
	
		<rect x="171.798" y="166.309" display="inline" fill="#FFFFFF" stroke="#000000" stroke-width="1.7378" stroke-linecap="round" stroke-miterlimit="8" width="65.004" height="54.273"/>
	<text transform="matrix(1 0 0 1 192.2388 207.7764)" display="inline" font-family="sans-serif" font-size="36">T</text>
</g>
<g id="example" display="none">
	<text transform="matrix(1 0 0 1 139.2319 207.7764)" display="inline" font-family="sans-serif" font-size="36">TANGO</text>
</g>
</svg>
