<?xml version="1.0" encoding="utf-8"?>
<!-- Generator: Adobe Illustrator 16.0.0, SVG Export Plug-In . SVG Version: 6.00 Build 0)  -->
<!DOCTYPE svg PUBLIC "-//W3C//DTD SVG 1.1//EN" "http://www.w3.org/Graphics/SVG/1.1/DTD/svg11.dtd">
<svg version="1.1" id="Version_1.0" xmlns="http://www.w3.org/2000/svg" xmlns:xlink="http://www.w3.org/1999/xlink" x="0px"
	 y="0px" width="400px" height="400px" viewBox="0 0 400 400" enable-background="new 0 0 400 400" xml:space="preserve">
<g id="main">
	<g>
		<path fill="none" stroke="#000000" stroke-width="4.893" stroke-linejoin="round" stroke-miterlimit="10" d="M293.359,168.267
			c-27.123-3.627-54.244-7.237-81.367,10.85c-27.121,18.105-67.803,81.438-81.364,97.73"/>
		<path fill="none" stroke="#000000" stroke-width="4.893" stroke-linejoin="round" stroke-miterlimit="10" d="M293.359,99.345
			c-37.99-4.396-75.979-8.813-113.986,13.231c-37.988,22.045-94.981,99.217-113.985,119.061"/>
	</g>
	<polyline fill="none" stroke="#000000" stroke-width="5" stroke-linejoin="round" stroke-miterlimit="10" points="292.359,101 
		292.359,84.364 349.17,133.237 292.359,182.096 292.359,166 	"/>
</g>
<g id="template" display="none">
	<g display="inline">
		
			<rect x="252.818" y="118.931" fill="none" stroke="#000000" stroke-width="1.6086" stroke-linecap="round" stroke-miterlimit="8" width="39.217" height="27.589"/>
		<text transform="matrix(1 0 0 1 257.3955 138.8965)" font-family="sans-serif" font-size="20.2511">W1</text>
	</g>
	<g display="inline">
		<text transform="matrix(1 0 0 1 241.8701 137.2725)" font-family="serif" font-size="21.4601">-</text>
		
			<rect x="212.736" y="119.146" fill="none" stroke="#000000" stroke-width="1.5065" stroke-linecap="round" stroke-miterlimit="8" width="26.391" height="27.77"/>
		<text transform="matrix(1 0 0 1 214.9795 141.293)" font-family="sans-serif" font-size="20.2511">W</text>
	</g>
	<g display="inline">
		
			<rect x="98.07" y="228.609" fill="none" stroke="#000000" stroke-width="2.5125" stroke-linecap="round" stroke-miterlimit="8" width="31.983" height="21.046"/>
		
			<rect x="107.893" y="232.768" fill="none" stroke="#000000" stroke-width="1.8891" stroke-linecap="round" stroke-miterlimit="8" width="12.846" height="12.844"/>
		<text transform="matrix(1 0 0 1 110.1914 243.4238)" font-family="sans-serif" font-size="11.4857">A</text>
	</g>
	<g display="inline">
		
			<rect x="174.012" y="194.885" fill="#FFFFFF" stroke="#000000" stroke-width="1.8891" stroke-linecap="round" stroke-miterlimit="8" width="25.447" height="25.578"/>
		<text transform="matrix(1 0 0 1 181.8726 213.2363)" font-family="sans-serif" font-size="16.3218">N</text>
	</g>
	<g display="inline">
		
			<rect x="118.061" y="139.73" fill="#FFFFFF" stroke="#000000" stroke-width="1.8891" stroke-linecap="round" stroke-miterlimit="8" width="25.447" height="25.578"/>
		<text transform="matrix(1 0 0 1 125.9214 158.082)" font-family="sans-serif" font-size="16.3218">N</text>
	</g>
	<g id="points" display="inline">
		<g>
			<text transform="matrix(1 0 0 1 36.6797 335.1953)" font-family="sans-serif" font-size="21.4601">PT</text>
			<text transform="matrix(1 0 0 1 63.8877 335.1953)" font-family="sans-serif" font-size="21.4601"> </text>
			<text transform="matrix(1 0 0 1 69.9136 335.1953)" font-family="sans-serif" font-size="21.4601">N-1</text>
			<g>
				<g>
					<polyline fill="none" stroke="#000000" stroke-width="3" stroke-linejoin="bevel" stroke-miterlimit="10" points="
						67.342,311.682 67.342,276.646 78.342,267.303 					"/>
					<polygon points="79.124,275.109 93.484,254.338 70.662,265.146 					"/>
				</g>
			</g>
		</g>
		<g>
			<text transform="matrix(1 0 0 1 187.7358 65.9297)" font-family="sans-serif" font-size="21.4601">PT</text>
			<text transform="matrix(1 0 0 1 214.9434 65.9297)" font-family="sans-serif" font-size="21.4601"> </text>
			<text transform="matrix(1 0 0 1 220.9707 65.9297)" font-family="sans-serif" font-size="21.4601">N</text>
			<text transform="matrix(1 0 0 1 236.4043 65.9297)" font-family="sans-serif" font-size="21.4601"> </text>
			<text transform="matrix(1 0 0 1 242.4307 65.9297)" font-family="sans-serif" font-size="21.4601"> </text>
			<g>
				<g>
					
						<line fill="none" stroke="#000000" stroke-width="3" stroke-linecap="round" stroke-linejoin="round" stroke-miterlimit="10" x1="242.467" y1="58.818" x2="272.449" y2="73.346"/>
					<polygon points="265.623,77.211 290.422,81.967 271.322,65.448 					"/>
				</g>
			</g>
		</g>
		<g>
			<text transform="matrix(1 0 0 1 123.4814 331.2656)" font-family="sans-serif" font-size="21.4601">PT</text>
			<text transform="matrix(1 0 0 1 150.6895 331.2656)" font-family="sans-serif" font-size="21.4601"> </text>
			<text transform="matrix(1 0 0 1 156.7153 331.2656)" font-family="sans-serif" font-size="21.4601">3</text>
			<text transform="matrix(1 0 0 1 168.8013 331.2656)" font-family="sans-serif" font-size="21.4601"> </text>
			<text transform="matrix(1 0 0 1 174.8286 331.2656)" font-family="sans-serif" font-size="21.4601"> </text>
			<g>
				<g>
					
						<line fill="none" stroke="#000000" stroke-width="3" stroke-linejoin="bevel" stroke-miterlimit="10" x1="141.385" y1="313.082" x2="141.385" y2="213.648"/>
					<polygon points="147.841,218.105 141.306,193.715 134.769,218.105 					"/>
				</g>
			</g>
		</g>
		<g>
			<text transform="matrix(1 0 0 1 186.7358 262.5645)" font-family="sans-serif" font-size="21.4601">PT</text>
			<text transform="matrix(1 0 0 1 213.9434 262.5645)" font-family="sans-serif" font-size="21.4601"> </text>
			<text transform="matrix(1 0 0 1 219.9707 262.5645)" font-family="sans-serif" font-size="21.4601">2</text>
			<text transform="matrix(1 0 0 1 232.0557 262.5645)" font-family="sans-serif" font-size="21.4601">  </text>
			<text transform="matrix(1 0 0 1 244.1094 262.5645)" font-family="sans-serif" font-size="21.4601"> </text>
			<text transform="matrix(1 0 0 1 249.8574 262.5645)" font-family="sans-serif" font-size="21.4601"> </text>
			<g>
				<g>
					
						<line fill="none" stroke="#000000" stroke-width="3" stroke-linejoin="bevel" stroke-miterlimit="10" x1="206.865" y1="241.619" x2="206.865" y2="159.474"/>
					<polygon points="213.32,163.932 206.785,139.54 200.249,163.932 					"/>
				</g>
			</g>
		</g>
		<g>
			<text transform="matrix(1 0 0 1 318.3486 218.9482)" font-family="sans-serif" font-size="21.4601">PT</text>
			<text transform="matrix(1 0 0 1 345.5566 218.9482)" font-family="sans-serif" font-size="21.4601"> </text>
			<text transform="matrix(1 0 0 1 351.582 218.9482)" font-family="sans-serif" font-size="21.4601">1</text>
			<g>
				<g>
					
						<line fill="none" stroke="#000000" stroke-width="3" stroke-linejoin="bevel" stroke-miterlimit="10" x1="351.336" y1="200.228" x2="351.336" y2="159.155"/>
					<polygon points="357.791,163.613 351.258,139.222 344.721,163.613 					"/>
				</g>
			</g>
		</g>
	</g>
</g>
<g id="example" display="none">
	<g id="varAe" display="inline">
		
			<rect x="102.739" y="231.368" transform="matrix(0.6442 -0.7649 0.7649 0.6442 -144.1292 173.0113)" fill="none" stroke="#000000" stroke-width="2.0124" stroke-linecap="round" stroke-miterlimit="8" width="22.316" height="20.111"/>
		
			<line fill="none" stroke="#000000" stroke-width="2.0124" stroke-linecap="round" stroke-miterlimit="8" x1="106.293" y1="234.842" x2="121.675" y2="247.796"/>
		
			<line fill="none" stroke="#000000" stroke-width="2.0124" stroke-linecap="round" stroke-miterlimit="8" x1="106.446" y1="249.736" x2="120.532" y2="233.013"/>
	</g>
	<g display="inline">
		
			<rect x="165.916" y="194.555" transform="matrix(-0.6073 0.7945 -0.7945 -0.6073 460.8154 186.9157)" fill="#FFFFFF" width="36.594" height="25.578"/>
		
			<text id="varNe" transform="matrix(0.6073 -0.7945 0.7945 0.6073 178.1348 224.4531)" font-family="sans-serif" font-size="16.3218">ENY</text>
	</g>
	<g display="inline">
		
			<rect x="113.002" y="141.643" transform="matrix(-0.6453 0.764 -0.764 -0.6453 335.2921 153.1753)" fill="#FFFFFF" width="38.163" height="25.578"/>
		
			<text id="varNe_1_" transform="matrix(0.6453 -0.764 0.764 0.6453 125.376 170.9956)" font-family="sans-serif" font-size="16.3218">ENY</text>
	</g>
	<text id="varW1e" transform="matrix(1 0 0 1 194.9795 143.8965)" display="inline" font-family="sans-serif" font-size="14">120300ZOCT08</text>
	<text id="varWe" transform="matrix(1 0 0 1 194.9795 130.293)" display="inline" font-family="sans-serif" font-size="14">080400ZOCT08 -</text>
</g>
</svg>
