<?xml version="1.0" encoding="utf-8"?>
<!-- Generator: Adobe Illustrator 16.0.0, SVG Export Plug-In . SVG Version: 6.00 Build 0)  -->
<!DOCTYPE svg PUBLIC "-//W3C//DTD SVG 1.1//EN" "http://www.w3.org/Graphics/SVG/1.1/DTD/svg11.dtd">
<svg version="1.1" id="Version_1.0" xmlns="http://www.w3.org/2000/svg" xmlns:xlink="http://www.w3.org/1999/xlink" x="0px"
	 y="0px" width="400px" height="400px" viewBox="0 0 400 400" enable-background="new 0 0 400 400" xml:space="preserve">
<g id="main">
	<g>
		<g>
			<path fill="none" stroke="#000000" stroke-width="7" stroke-linecap="round" stroke-linejoin="round" d="M153.747,138.651
				c-4.055,0.431-8.222,0.799-12.453,1.135"/>
			
				<path fill="none" stroke="#000000" stroke-width="7" stroke-linecap="round" stroke-linejoin="round" stroke-dasharray="24.8878,19.9103" d="
				M121.433,141.223c-33.709,2.409-66.713,5.673-75.776,24.13c-12.01,24.46-9.997,97.839,36.03,120.08
				c46.028,22.236,194.149,31.146,240.176,13.353s40.035-93.396,36.031-120.099c-4.004-26.681-26.033-33.347-60.051-40.032
				c-28.474-5.581-80.793-4.935-121.735-1.97"/>
			<path fill="none" stroke="#000000" stroke-width="7" stroke-linecap="round" stroke-linejoin="round" d="M166.189,137.467
				c-4.343,0.372-8.506,0.769-12.442,1.185"/>
		</g>
	</g>
</g>
<g id="template" display="none">
	<g id="varT" display="inline">
		
			<rect x="181.048" y="182.386" fill="#FFFFFF" stroke="#000000" stroke-width="1.7378" stroke-linecap="round" stroke-miterlimit="8" width="65.005" height="54.273"/>
		<text transform="matrix(1 0 0 1 202.4883 223.8535)" font-family="sans-serif" font-size="36">T</text>
	</g>
	<g id="varB" display="inline">
		
			<rect x="182.121" y="275.386" fill="#FFFFFF" stroke="#000000" stroke-width="1.7378" stroke-linecap="round" stroke-miterlimit="8" width="65.006" height="54.273"/>
		<text transform="matrix(1 0 0 1 202.5508 316.8535)" font-family="sans-serif" font-size="36">B</text>
	</g>
</g>
<g id="example" display="none">
	
		<polygon display="inline" fill-rule="evenodd" clip-rule="evenodd" fill="#FF8080" stroke="#808080" stroke-width="3" stroke-miterlimit="10" points="
		202.869,32.91 155.617,72.507 202.869,112.104 250.123,72.507 202.869,32.91 	"/>
	<rect x="189.5" y="279.5" display="inline" fill="#FFFFFF" width="49" height="44"/>
	<text id="varBe" transform="matrix(1 0 0 1 204.5547 316.8535)" display="inline" font-family="sans-serif" font-size="36">II</text>
	<text id="varTe" transform="matrix(1 0 0 1 203.4727 223.8535)" display="inline" font-family="sans-serif" font-size="36">7</text>
</g>
</svg>
