<?xml version="1.0" encoding="utf-8"?>
<!-- Generator: Adobe Illustrator 16.0.0, SVG Export Plug-In . SVG Version: 6.00 Build 0)  -->
<!DOCTYPE svg PUBLIC "-//W3C//DTD SVG 1.1//EN" "http://www.w3.org/Graphics/SVG/1.1/DTD/svg11.dtd">
<svg version="1.1" id="Version_1.0" xmlns="http://www.w3.org/2000/svg" xmlns:xlink="http://www.w3.org/1999/xlink" x="0px"
	 y="0px" width="400px" height="400px" viewBox="0 0 400 400" enable-background="new 0 0 400 400" xml:space="preserve">
<g id="main">
	<line fill="none" stroke="#000000" stroke-width="5" x1="110.995" y1="234.01" x2="307.494" y2="234.057"/>
	<line fill="none" stroke="#000000" stroke-width="5" x1="111.658" y1="233.389" x2="62.984" y2="281.999"/>
	<line fill="none" stroke="#000000" stroke-width="5" x1="306.305" y1="233.684" x2="355.482" y2="285.066"/>
	<line fill="none" stroke="#000000" stroke-width="5" x1="197.995" y1="234.03" x2="198.04" y2="139.372"/>
	<line fill="none" stroke="#000000" stroke-width="5" x1="199.377" y1="139.372" x2="185.143" y2="159.188"/>
	<line fill="none" stroke="#000000" stroke-width="5" x1="198.38" y1="140.248" x2="213.25" y2="159.188"/>
</g>
<g id="points" display="none">
	<g display="inline">
		<text transform="matrix(1 0 0 1 101.2607 326.7822)" font-family="'ArialMT'" font-size="24.0012">PT 2</text>
		<g>
			<line fill="none" stroke="#000000" stroke-width="2" x1="115.117" y1="245.405" x2="124.377" y2="305.98"/>
			<g transform="rotate(65.6622 56 114) translate(109.261 -125.088)">
				<polygon stroke="#000000" stroke-width="2" points="84.178,239.763 105.985,238.584 103.317,250.284 				"/>
			</g>
		</g>
	</g>
	<g display="inline">
		<text transform="matrix(1 0 0 1 257.2608 329.5587)" font-family="'ArialMT'" font-size="24.0012">PT 3</text>
		<g>
			<line fill="none" stroke="#000000" stroke-width="2" x1="299.617" y1="247.742" x2="283.6" y2="309.787"/>
			
				<g transform="rotate(120.7 250 252) translate(41.2731 12.7096) rotate(347.239 249.043 253.756) rotate(7.88711 248.379 253.172) translate(-0.90012 0.435643) translate(0.435643 0.90012)">
				<polygon stroke="#000000" stroke-width="2" points="174.008,191.845 194.253,183.654 195.525,195.587 				"/>
			</g>
		</g>
	</g>
	<g display="inline">
		<text transform="matrix(1 0 0 1 177.7607 66.2822)" font-family="'ArialMT'" font-size="24.0012">PT 1</text>
		<g>
			<line fill="none" stroke="#000000" stroke-width="2" x1="197.995" y1="135.699" x2="197.995" y2="71.199"/>
			<polygon stroke="#000000" stroke-width="2" points="197.995,131.168 203.994,110.169 191.995,110.169 			"/>
		</g>
	</g>
</g>
<g id="example" display="none">
	<polygon display="inline" fill="#FF8080" points="198.426,34.814 155.354,70.954 198.426,107.092 241.5,70.954 	"/>
	
		<polygon display="inline" fill="none" stroke="#808080" stroke-width="0.7489" stroke-linecap="round" stroke-linejoin="round" stroke-miterlimit="8" points="
		198.426,34.814 155.354,70.954 198.426,107.092 241.5,70.954 	"/>
</g>
</svg>
