<?xml version="1.0" encoding="utf-8"?>
<!-- Generator: Adobe Illustrator 16.0.0, SVG Export Plug-In . SVG Version: 6.00 Build 0)  -->
<!DOCTYPE svg PUBLIC "-//W3C//DTD SVG 1.1//EN" "http://www.w3.org/Graphics/SVG/1.1/DTD/svg11.dtd">
<svg version="1.1" id="Version_1.0" xmlns="http://www.w3.org/2000/svg" xmlns:xlink="http://www.w3.org/1999/xlink" x="0px"
	 y="0px" width="400px" height="400px" viewBox="0 0 400 400" enable-background="new 0 0 400 400" xml:space="preserve">
<g id="main">
	<path fill="none" stroke="#000000" stroke-width="5" stroke-linecap="round" stroke-linejoin="round" stroke-miterlimit="10" d="
		M156.972,115.492c-42.024,4.464-96.079,2.243-108.09,26.702c-12.01,24.46-9.997,97.839,36.03,120.08
		c46.028,22.236,194.148,31.146,240.177,13.354c46.027-17.794,40.034-93.396,36.03-120.099
		c-4.003-26.681-26.032-33.347-60.051-40.032C267.052,108.827,198.997,111.048,156.972,115.492"/>
	<text id="static" transform="matrix(1 0 0 1 134.0757 206.5234)" font-family="sans-serif" font-size="40">EA </text>
</g>
<g id="template" transform="translate(150 118)" display="none">
	
		<rect x="63.277" y="51.752" display="inline" fill="none" stroke="#000000" stroke-width="2.6622" stroke-linecap="round" stroke-miterlimit="8" width="44.223" height="43.748"/>
	<text transform="matrix(1 0 0 1 73.5918 88.5234)" display="inline" font-family="sans-serif" font-size="40">T</text>
</g>
<g id="example" display="none">
	<g display="inline">
		<path fill="none" stroke="#808080" stroke-width="3" stroke-linecap="round" stroke-linejoin="round" stroke-miterlimit="8" d="
			M371.18,235.76c-5.092,3.273-8.913,8.328-14.326,11.008c-12.096,5.651-24.51,6.247-37.878,8.031
			c-5.73,1.786-11.778,3.57-17.508,5.355c-2.866,0.891-8.913,2.675-8.913,2.675c-10.824,10.711-16.554,26.774,3.183,32.726
			c135.926-4.76,45.838,3.866,92.95-10.709c0.957-2.68,1.275-5.95,2.864-8.33c1.594-2.082,5.73-2.676,6.049-5.355
			C400.148,234.866,399.829,230.404,371.18,235.76L371.18,235.76z"/>
		<path fill="none" stroke="#808080" stroke-width="3" stroke-linecap="round" stroke-linejoin="round" stroke-miterlimit="8" d="
			M238.986,271.205c-36.55,5.045-78.489-9.197-109.643,10.681c0.898,11.869-3.894,25.816,2.996,35.313
			c4.792,6.526,16.475,2.074,24.563,2.67c12.881,1.187,25.463,2.075,38.344,2.966c17.376-0.891,35.349,2.077,52.124-2.966
			c6.291-1.781,7.189-10.684,10.783-16.023c1.8-2.673,5.395-8.309,5.395-8.309C259.954,284.559,252.166,271.205,238.986,271.205
			L238.986,271.205z"/>
		<polygon fill-rule="evenodd" clip-rule="evenodd" fill="#FFFFFF" points="171.908,307.174 214.534,307.174 214.534,347.274 
			171.908,347.274 171.908,307.174 		"/>
		<polygon fill-rule="evenodd" clip-rule="evenodd" fill="#FFFFFF" points="327.889,278.556 370.516,278.556 370.516,318.803 
			327.889,318.803 327.889,278.556 		"/>
		<path fill="none" stroke="#808080" stroke-width="3" stroke-linecap="round" stroke-linejoin="round" stroke-miterlimit="8" d="
			M69.047,292.566c9.554-0.891,19.423-0.596,28.978-2.673c12.737-2.971,4.138-24.354,3.183-27.325
			c-4.776-16.336-30.887-30.293-46.808-35.048c-20.06-12.474-10.826-8.911-26.111-13.662c-21.972,5.049-33.435,10.692-17.513,40.692
			c2.867,5.05,17.513,5.343,17.513,5.343c10.827,10.695,13.374,2.675,23.246,16.336C55.992,292.864,54.719,285.734,69.047,292.566
			L69.047,292.566z"/>
		<polygon fill-rule="evenodd" clip-rule="evenodd" fill="#FFFFFF" points="27.414,241.934 -0.925,272.063 31.103,298.329 
			59.444,268.197 27.414,241.934 		"/>
		<text transform="matrix(1.071 0 0 1 189.895 333.7383)" fill="#808080" font-family="sans-serif" font-size="19.0335">I</text>
		<text transform="matrix(1.071 0 0 1 346.1719 305.2119)" fill="#808080" font-family="sans-serif" font-size="19.0335">I</text>
		<text transform="matrix(1.071 0 0 1 26.8091 276.6602)" fill="#808080" font-family="sans-serif" font-size="19.0335">I</text>
		
			<line fill="none" stroke="#808080" stroke-width="3" stroke-linejoin="round" stroke-miterlimit="8" x1="126.088" y1="278.556" x2="95.434" y2="121.736"/>
		
			<line fill="none" stroke="#808080" stroke-width="3" stroke-linejoin="round" stroke-miterlimit="8" x1="294.201" y1="107.424" x2="263.549" y2="292.864"/>
		<path fill="none" stroke="#808080" stroke-width="3" stroke-linejoin="round" stroke-miterlimit="8" d="M126.088,276.764
			c0.318,3.876,0.638,11.331,0.638,11.331"/>
		
			<line fill="none" stroke="#808080" stroke-width="3" stroke-linejoin="round" stroke-miterlimit="8" x1="110.762" y1="278.556" x2="278.874" y2="107.424"/>
		
			<line fill="none" stroke="#808080" stroke-width="3" stroke-linejoin="round" stroke-miterlimit="8" x1="19.121" y1="207.298" x2="95.434" y2="121.736"/>
		<path fill="none" stroke="#808080" stroke-width="3" stroke-linejoin="round" stroke-miterlimit="8" d="M103.736,283.918
			c2.236-2.978,3.832-4.472,7.664-5.362c1.597-2.09,0.638-1.494,2.554-2.386"/>
		<path fill="none" stroke="#808080" stroke-width="3" stroke-linejoin="round" stroke-miterlimit="8" d="M19.76,206.105
			c-0.32,1.192-0.64,2.685-1.916,3.579c-1.278,0.895-3.832,2.386-3.832,2.386c-0.639,1.788-6.386,7.452-6.386,8.347"/>
		
			<line fill="none" stroke="#808080" stroke-width="3" stroke-linejoin="round" stroke-miterlimit="8" x1="278.874" y1="278.556" x2="187.074" y2="107.424"/>
		<path fill="none" stroke="#808080" stroke-width="3" stroke-linejoin="round" stroke-miterlimit="8" d="M276.96,275.126
			c1.275,3.804,3.192,4.1,3.192,8.199"/>
		
			<line fill="none" stroke="#808080" stroke-width="3" stroke-linejoin="round" stroke-miterlimit="8" x1="385.842" y1="221.609" x2="342.269" y2="113.022"/>
		<path fill="none" stroke="#808080" stroke-width="3" stroke-linejoin="round" stroke-miterlimit="8" d="M395.421,237.562
			c-5.109-4.732-7.345-12.72-10.537-18.636"/>
	</g>
	<text id="varTe" transform="matrix(1 0 0 1 134.0757 206.5234)" display="inline" font-family="sans-serif" font-size="40">EA ROCK</text>
</g>
</svg>
