<?xml version="1.0" encoding="utf-8"?>
<!-- Generator: Adobe Illustrator 16.0.0, SVG Export Plug-In . SVG Version: 6.00 Build 0)  -->
<!DOCTYPE svg PUBLIC "-//W3C//DTD SVG 1.1//EN" "http://www.w3.org/Graphics/SVG/1.1/DTD/svg11.dtd">
<svg version="1.1" id="Version_1.0" xmlns="http://www.w3.org/2000/svg" xmlns:xlink="http://www.w3.org/1999/xlink" x="0px"
	 y="0px" width="400px" height="400px" viewBox="0 0 400 400" enable-background="new 0 0 400 400" xml:space="preserve">
<g id="main">
	<path fill="none" stroke="#000000" stroke-width="7" stroke-linecap="round" stroke-linejoin="round" stroke-miterlimit="10" d="
		M156.972,115.492c-42.024,4.464-96.079,2.243-108.09,26.702c-12.01,24.46-9.997,97.839,36.03,120.08
		c46.028,22.236,194.148,31.146,240.177,13.353c46.027-17.794,40.034-93.396,36.03-120.099
		c-4.003-26.681-26.032-33.347-60.051-40.032C267.052,108.827,198.997,111.048,156.972,115.492"/>
	<text id="static" transform="matrix(1 0 0 1 134.0757 171.5234)" font-family="sans-serif" font-size="40">AA </text>
</g>
<g id="template" transform="translate(150 118)" display="none">
	
		<rect x="63.277" y="16.752" display="inline" fill="none" stroke="#000000" stroke-width="2.6622" stroke-linecap="round" stroke-miterlimit="8" width="44.223" height="43.748"/>
	<text transform="matrix(1 0 0 1 73.5918 53.5234)" display="inline" font-family="sans-serif" font-size="40">T</text>
</g>
<g id="example" display="none">
	<text id="varTe" transform="matrix(1 0 0 1 81.7427 171)" display="inline" font-family="sans-serif" font-size="40">AA BLUE</text>
	
		<path display="inline" fill="none" stroke="#000000" stroke-width="7" stroke-linecap="round" stroke-linejoin="round" stroke-miterlimit="10" d="
		M115.276,121.283c-39.93,4.241-91.292,2.131-102.706,25.372C1.16,169.896,3.072,239.619,46.806,260.751
		c43.735,21.129,184.476,29.596,228.211,12.688c43.734-16.907,38.04-88.743,34.235-114.116
		c-3.804-25.352-24.735-31.686-57.059-38.038C219.872,114.95,155.208,117.06,115.276,121.283"/>
	<g id="_x31_50302">
		<g display="inline">
			<polygon fill="none" stroke="#808080" stroke-width="5" stroke-linecap="round" stroke-miterlimit="8" points="336.221,123.394 
				336.221,155.106 392.684,155.106 392.684,123.394 336.221,123.394 			"/>
			
				<line fill="none" stroke="#808080" stroke-width="5" stroke-linejoin="round" stroke-miterlimit="8" x1="336.221" y1="155.106" x2="392.684" y2="123.394"/>
			
				<line fill="none" stroke="#808080" stroke-width="5" stroke-linejoin="round" stroke-miterlimit="8" x1="392.569" y1="155.106" x2="336.106" y2="123.394"/>
			
				<line fill="none" stroke="#808080" stroke-width="5" stroke-linejoin="round" stroke-miterlimit="8" x1="359.563" y1="115.466" x2="359.681" y2="123.394"/>
			
				<line fill="none" stroke="#808080" stroke-width="5" stroke-linejoin="round" stroke-miterlimit="8" x1="369.109" y1="115.466" x2="369.225" y2="123.394"/>
		</g>
		<g display="inline">
			<polygon fill="none" stroke="#808080" stroke-width="5" stroke-linecap="round" stroke-miterlimit="8" points="336.106,196.646 
				336.106,229.114 391.508,229.114 391.508,196.646 336.106,196.646 			"/>
			
				<line fill="none" stroke="#808080" stroke-width="5" stroke-linejoin="round" stroke-miterlimit="8" x1="358.988" y1="188.432" x2="359.244" y2="196.646"/>
			
				<line fill="none" stroke="#808080" stroke-width="5" stroke-linejoin="round" stroke-miterlimit="8" x1="367.986" y1="188.432" x2="368.37" y2="196.646"/>
			<path fill="none" stroke="#808080" stroke-width="5" stroke-linecap="round" stroke-linejoin="round" stroke-miterlimit="8" d="
				M363.936,205.886c-6.496,0-11.76,3.045-11.76,6.801c0,3.758,5.264,6.801,11.76,6.801s11.762-3.043,11.762-6.801
				C375.697,208.931,370.432,205.886,363.936,205.886L363.936,205.886z"/>
		</g>
		<g display="inline">
			<polygon fill="none" stroke="#808080" stroke-width="5" stroke-linecap="round" stroke-miterlimit="8" points="336.221,270.367 
				336.221,302.08 392.684,302.08 392.684,270.367 336.221,270.367 			"/>
			
				<line fill="none" stroke="#808080" stroke-width="5" stroke-linejoin="round" stroke-miterlimit="8" x1="336.221" y1="302.08" x2="392.684" y2="270.367"/>
			
				<line fill="none" stroke="#808080" stroke-width="5" stroke-linejoin="round" stroke-miterlimit="8" x1="392.569" y1="302.08" x2="336.106" y2="270.367"/>
			
				<line fill="none" stroke="#808080" stroke-width="5" stroke-linejoin="round" stroke-miterlimit="8" x1="359.563" y1="262.439" x2="359.681" y2="270.367"/>
			
				<line fill="none" stroke="#808080" stroke-width="5" stroke-linejoin="round" stroke-miterlimit="8" x1="369.109" y1="262.439" x2="369.225" y2="270.367"/>
		</g>
		
			<line display="inline" fill="none" stroke="#808080" stroke-width="5" stroke-linejoin="round" stroke-miterlimit="8" x1="327.5" y1="209.439" x2="163.819" y2="209.439"/>
		<polyline display="inline" fill="none" stroke="#808080" stroke-width="5" stroke-miterlimit="8" points="366.336,91.5 
			327.5,91.5 327.5,331.5 366.336,331.5 		"/>
	</g>
	<g id="_x31_50301">
		<g display="inline">
			<polygon fill="none" stroke="#808080" stroke-width="5" stroke-linecap="round" stroke-miterlimit="8" points="338.636,158.409 
				338.636,190.877 394.037,190.877 394.037,158.409 338.636,158.409 			"/>
			
				<line fill="none" stroke="#808080" stroke-width="5" stroke-linejoin="round" stroke-miterlimit="8" x1="361.518" y1="150.196" x2="361.773" y2="158.409"/>
			
				<line fill="none" stroke="#808080" stroke-width="5" stroke-linejoin="round" stroke-miterlimit="8" x1="370.516" y1="150.196" x2="370.899" y2="158.409"/>
			<path fill="none" stroke="#808080" stroke-width="5" stroke-linecap="round" stroke-linejoin="round" stroke-miterlimit="8" d="
				M366.465,167.648c-6.496,0-11.76,3.045-11.76,6.801c0,3.758,5.264,6.802,11.76,6.802s11.762-3.044,11.762-6.802
				C378.227,170.693,372.961,167.648,366.465,167.648L366.465,167.648z"/>
		</g>
		
			<polyline display="inline" fill="none" stroke="#808080" stroke-width="5" stroke-linejoin="round" stroke-miterlimit="8" points="
			163.819,209.74 366.916,209.74 366.916,190.877 		"/>
	</g>
	<g id="_x31_50300">
		<polygon display="inline" fill="none" stroke="#808080" stroke-width="5" stroke-linecap="round" stroke-miterlimit="8" points="
			138.051,197.727 138.051,229.439 194.514,229.439 194.514,197.727 138.051,197.727 		"/>
		
			<line display="inline" fill="none" stroke="#808080" stroke-width="5" stroke-linejoin="round" stroke-miterlimit="8" x1="138.051" y1="229.439" x2="194.514" y2="197.727"/>
		
			<line display="inline" fill="none" stroke="#808080" stroke-width="5" stroke-linejoin="round" stroke-miterlimit="8" x1="194.399" y1="229.439" x2="137.937" y2="197.727"/>
		
			<line display="inline" fill="none" stroke="#808080" stroke-width="5" stroke-linejoin="round" stroke-miterlimit="8" x1="161.394" y1="189.798" x2="161.511" y2="197.727"/>
		
			<line display="inline" fill="none" stroke="#808080" stroke-width="5" stroke-linejoin="round" stroke-miterlimit="8" x1="170.939" y1="189.798" x2="171.055" y2="197.727"/>
	</g>
</g>
</svg>
