<?xml version="1.0" encoding="utf-8"?>
<!-- Generator: Adobe Illustrator 16.0.0, SVG Export Plug-In . SVG Version: 6.00 Build 0)  -->
<!DOCTYPE svg PUBLIC "-//W3C//DTD SVG 1.1//EN" "http://www.w3.org/Graphics/SVG/1.1/DTD/svg11.dtd">
<svg version="1.1" id="Version_1.0" xmlns="http://www.w3.org/2000/svg" xmlns:xlink="http://www.w3.org/1999/xlink" x="0px"
	 y="0px" width="400px" height="400px" viewBox="0 0 400 400" enable-background="new 0 0 400 400" xml:space="preserve">
<g id="main">
	<line fill="none" stroke="#000000" stroke-width="5" x1="52.794" y1="321" x2="349.973" y2="321"/>
	<line fill="none" stroke="#000000" stroke-width="5" x1="52.794" y1="225" x2="349.973" y2="225"/>
	<text transform="matrix(1 0 0 1 110.4263 57.5)" font-family="sans-serif" font-size="20">Name:</text>
	<text transform="matrix(1 0 0 1 110.4263 82.5)" font-family="sans-serif" font-size="20">Width:</text>
	<text transform="matrix(1 0 0 1 110.4263 107.5)" font-family="sans-serif" font-size="20">Min Alt:</text>
	<text transform="matrix(1 0 0 1 110.4263 132.5)" font-family="sans-serif" font-size="20">Max Alt:</text>
	<text transform="matrix(1 0 0 1 110.4263 157.5)" font-family="sans-serif" font-size="20">DTG Start:</text>
	<text transform="matrix(1 0 0 1 110.4263 182.5)" font-family="sans-serif" font-size="20">DTG End:</text>
	<text transform="matrix(1 0 0 1 133.3179 290.5)" font-family="sans-serif" font-size="48">UA</text>
</g>
<g id="template" display="none">
	<g id="varH" display="inline">
		<rect x="215.426" y="62.5" fill="none" stroke="#000000" stroke-width="2" width="39" height="24"/>
		<text transform="matrix(1 0 0 1 220.4258 82.5)" font-family="sans-serif" font-size="20">AM</text>
	</g>
	<g id="varX" display="inline">
		<text transform="matrix(1 0 0 1 220.4258 107.5)" font-family="sans-serif" font-size="20">X</text>
		<rect x="215.426" y="86.5" fill="none" stroke="#000000" stroke-width="2" width="24" height="25"/>
	</g>
	<g id="varX1" display="inline">
		<text transform="matrix(1 0 0 1 220.4258 132.5)" font-family="sans-serif" font-size="20">X1</text>
		<rect x="215.426" y="111.5" fill="none" stroke="#000000" stroke-width="2" width="34" height="25"/>
	</g>
	<g id="varW" display="inline">
		<text transform="matrix(1 0 0 1 220.4258 157.5)" font-family="sans-serif" font-size="20">W</text>
		<rect x="215.426" y="136.5" fill="none" stroke="#000000" stroke-width="2" width="29" height="25"/>
	</g>
	<g id="varW1" display="inline">
		<text transform="matrix(1 0 0 1 220.4258 182.5)" font-family="sans-serif" font-size="20">W1</text>
		<rect x="215.426" y="161.5" fill="none" stroke="#000000" stroke-width="2" width="39" height="25"/>
	</g>
	<g id="varT_1_" display="inline">
		<text transform="matrix(1 0 0 1 220.4258 57.5)" font-family="sans-serif" font-size="20">T</text>
		<rect x="215.426" y="38.5" fill="none" stroke="#000000" stroke-width="2" width="24" height="24"/>
	</g>
	<g id="varT" display="inline">
		<text transform="matrix(1 0 0 1 260.334 291)" font-family="sans-serif" font-size="48">T</text>
		<rect x="250.334" y="247.5" fill="none" stroke="#000000" stroke-width="5" width="49.12" height="49.5"/>
	</g>
	<g id="points" display="inline">
		<g>
			
				<g transform="matrix(-1 0 0 1 464.52 43) translate(-20 -8) translate(-1 0) translate(-1 0) translate(-1 0) translate(0 -1) translate(0 -1) translate(1 0) translate(1 0) translate(0 1) translate(-1 0)">
				<g>
					<g>
						<line fill="none" stroke="#000000" stroke-width="3" x1="112.02" y1="185.333" x2="128.384" y2="217.514"/>
						<g>
							<polygon points="132.947,208.104 127.125,215.036 118.092,215.657 134.472,229.486 							"/>
						</g>
					</g>
				</g>
				<text transform="matrix(-1 0 0 1 147.853 174.333)" font-family="sans-serif" font-size="25">PT. 2</text>
			</g>
		</g>
		
			<g transform="translate(-84 36) translate(0 -1) translate(0 -1) translate(0 -1) translate(-1 0) translate(-1 0) translate(-1 0)">
			<g>
				<g>
					<line fill="none" stroke="#000000" stroke-width="3" x1="116.5" y1="186.333" x2="133.24" y2="216.275"/>
					<g>
						<polygon points="122.883,214.826 131.883,213.85 137.429,206.694 139.794,228 						"/>
					</g>
				</g>
			</g>
			<text transform="matrix(1 0 0 1 92 177.333)" font-family="sans-serif" font-size="25">PT. 1</text>
		</g>
	</g>
</g>
<g id="example" display="none">
	<text id="varAMe" transform="matrix(1 0 0 1 220.4258 82.5)" display="inline" font-family="sans-serif" font-size="20">1200FT</text>
	<text id="varXe" transform="matrix(1 0 0 1 220.4258 107.5)" display="inline" font-family="sans-serif" font-size="20">1500FT AGL</text>
	<text id="varX1e" transform="matrix(1 0 0 1 220.4258 132.5)" display="inline" font-family="sans-serif" font-size="20">12000FT AGL</text>
	<text id="varWe" transform="matrix(1 0 0 1 220.4258 157.5)" display="inline" font-family="sans-serif" font-size="20">200700ZMAY08</text>
	<text id="varW1e" transform="matrix(1 0 0 1 220.4258 182.5)" display="inline" font-family="sans-serif" font-size="20">210700ZMAY08</text>
	<text id="varTe_1_" transform="matrix(1 0 0 1 220.4258 57.5)" display="inline" font-family="sans-serif" font-size="20">DRAGON</text>
	<text id="varTe" transform="matrix(1 0 0 1 111.4917 282)" display="inline" font-family="sans-serif" font-size="30">UA DRAGON</text>
	<g display="inline">
		<path fill="none" stroke="#7F7F7F" stroke-width="5" stroke-linecap="round" stroke-linejoin="round" stroke-miterlimit="8" d="
			M349.972,227.568c-25.216,0-45.653,20.404-45.653,45.578s20.438,45.575,45.653,45.575c25.215,0,45.654-20.401,45.654-45.575
			S375.186,227.568,349.972,227.568L349.972,227.568z"/>
		<text transform="matrix(1.0017 0 0 1 340.8418 299.9033)" fill="#808080" font-family="sans-serif" font-size="25.2981">2</text>
		<text transform="matrix(1.0017 0 0 1 320.5732 265.4824)"><tspan x="0" y="0" fill="#808080" font-family="sans-serif" font-size="25.2981">AC</tspan><tspan x="36.438" y="0" fill="#808080" font-family="sans-serif" font-size="25.2981">P</tspan></text>
	</g>
	<g display="inline">
		<path fill="none" stroke="#7F7F7F" stroke-width="5" stroke-linecap="round" stroke-linejoin="round" stroke-miterlimit="8" d="
			M52.794,227.423c-25.216,0-45.653,20.404-45.653,45.578s20.438,45.575,45.653,45.575c25.215,0,45.654-20.401,45.654-45.575
			S78.009,227.423,52.794,227.423L52.794,227.423z"/>
		<text transform="matrix(1.0017 0 0 1 43.664 299.7578)" fill="#808080" font-family="sans-serif" font-size="25.2981">1</text>
		<text transform="matrix(1.0017 0 0 1 23.3955 265.3369)"><tspan x="0" y="0" fill="#808080" font-family="sans-serif" font-size="25.2981">AC</tspan><tspan x="36.438" y="0" fill="#808080" font-family="sans-serif" font-size="25.2981">P</tspan></text>
	</g>
</g>
</svg>
