<?xml version="1.0" encoding="utf-8"?>
<!-- Generator: Adobe Illustrator 16.0.0, SVG Export Plug-In . SVG Version: 6.00 Build 0)  -->
<!DOCTYPE svg PUBLIC "-//W3C//DTD SVG 1.1//EN" "http://www.w3.org/Graphics/SVG/1.1/DTD/svg11.dtd">
<svg version="1.1" id="Version_1.0" xmlns="http://www.w3.org/2000/svg" xmlns:xlink="http://www.w3.org/1999/xlink" x="0px"
	 y="0px" width="400px" height="400px" viewBox="0 0 400 400" enable-background="new 0 0 400 400" xml:space="preserve">
<pattern  x="-105.5" y="596.5" width="72" height="72" patternUnits="userSpaceOnUse" id="slash1" viewBox="20 -72 72 72" overflow="visible">
	<g>
		<polygon fill="none" points="20,0 20,-72 92,-72 92,0 						"/>
		<line fill="none" stroke="#808080" stroke-width="1.44" x1="19.75" y1="-3.6" x2="92.25" y2="-3.6"/>
		<line fill="none" stroke="#808080" stroke-width="1.44" x1="19.75" y1="-18" x2="92.25" y2="-18"/>
		<line fill="none" stroke="#808080" stroke-width="1.44" x1="19.75" y1="-32.398" x2="92.25" y2="-32.398"/>
		<line fill="none" stroke="#808080" stroke-width="1.44" x1="19.75" y1="-46.8" x2="92.25" y2="-46.8"/>
		<line fill="none" stroke="#808080" stroke-width="1.44" x1="19.75" y1="-61.2" x2="92.25" y2="-61.2"/>
		<line fill="none" stroke="#808080" stroke-width="1.44" x1="0" y1="-61.2" x2="14" y2="-61.2"/>
		<line fill="none" stroke="#808080" stroke-width="1.44" x1="19.75" y1="-10.8" x2="92.25" y2="-10.8"/>
		<line fill="none" stroke="#808080" stroke-width="1.44" x1="19.75" y1="-25.2" x2="92.25" y2="-25.2"/>
		<line fill="none" stroke="#808080" stroke-width="1.44" x1="19.75" y1="-39.6" x2="92.25" y2="-39.6"/>
		<line fill="none" stroke="#808080" stroke-width="1.44" x1="19.75" y1="-54" x2="92.25" y2="-54"/>
		<line fill="none" stroke="#808080" stroke-width="1.44" x1="19.75" y1="-68.398" x2="92.25" y2="-68.398"/>
		<line fill="none" stroke="#808080" stroke-width="1.44" x1="0" y1="-68.398" x2="14" y2="-68.398"/>
	</g>
</pattern>
<pattern  id="slash2" xlink:href="#slash1" patternTransform="matrix(-0.766 0.6428 -0.6428 -0.766 -74808.3359 -37820.3828)">
	</pattern>
<g id="main">
	
	<path fill="url(#slash2)" stroke="#000000" stroke-width="5" stroke-linecap="round" stroke-miterlimit="8" d="M110.779,75.89
		L23.237,324.745h262.609l87.54-248.855H110.779z"/>
	<text transform="matrix(1 0 0 1 74.0078 247.0869)" font-family="sans-serif" font-size="21.1506">TIME TO:</text>
	<text transform="matrix(1 0 0 1 83.7808 211.7363)" font-family="sans-serif" font-size="21.1506">TIME FROM:</text>
	<text transform="matrix(1 0 0 1 118.5483 136.6182)" font-family="sans-serif" font-size="26.2015">WFZ</text>
</g>
<g id="template" display="none">
	<g id="varW1" display="inline">
		
			<rect x="176.591" y="222.78" fill="none" stroke="#000000" stroke-width="2.6241" stroke-linecap="round" stroke-miterlimit="8" width="57.613" height="36.046"/>
		<text transform="matrix(1 0 0 1 185.8711 251.9766)" font-family="sans-serif" font-size="26.2015">W</text>
		<text transform="matrix(1 0 0 1 210.7852 251.9766)" font-family="sans-serif" font-size="26.2015">1</text>
	</g>
	<g id="varW" display="inline">
		
			<rect x="215.82" y="182.795" fill="none" stroke="#000000" stroke-width="2.6241" stroke-linecap="round" stroke-miterlimit="8" width="40.109" height="36.047"/>
		<text transform="matrix(1 0 0 1 223.7676 212.1729)" font-family="sans-serif" font-size="26.2015">W</text>
	</g>
	<g id="varT" display="inline">
		
			<rect x="115.969" y="143.227" fill="none" stroke="#000000" stroke-width="2.6241" stroke-linecap="round" stroke-miterlimit="8" width="40.111" height="36.047"/>
		<text transform="matrix(1 0 0 1 128.0024 172.6045)" font-family="sans-serif" font-size="26.2015">T</text>
	</g>
</g>
<g id="example" display="none">
	<text id="varW1e" transform="matrix(1 0 0 1 169.8711 247.9766)" display="inline" font-family="sans-serif" font-size="16">210805ZDEC07</text>
	<text id="varWe" transform="matrix(1 0 0 1 211.7676 211.1729)" display="inline" font-family="sans-serif" font-size="16">070805ZDEC07</text>
	<text id="varTe" transform="matrix(1 0 0 1 110.0024 172.6045)" display="inline" font-family="sans-serif" font-size="26.2015">ATF</text>
</g>
</svg>
