<?xml version="1.0" encoding="utf-8"?>
<!-- Generator: Adobe Illustrator 16.0.0, SVG Export Plug-In . SVG Version: 6.00 Build 0)  -->
<!DOCTYPE svg PUBLIC "-//W3C//DTD SVG 1.1//EN" "http://www.w3.org/Graphics/SVG/1.1/DTD/svg11.dtd">
<svg version="1.1" id="Version_1.0" xmlns="http://www.w3.org/2000/svg" xmlns:xlink="http://www.w3.org/1999/xlink" x="0px"
	 y="0px" width="400px" height="400px" viewBox="0 0 400 400" enable-background="new 0 0 400 400" xml:space="preserve">
<g id="main">
	<line fill="none" stroke="#000000" stroke-width="10" x1="99.5" y1="39" x2="99.5" y2="389"/>
	<line fill="none" stroke="#000000" stroke-width="10" x1="299.5" y1="39" x2="299.5" y2="389"/>
	<g>
		<polyline points="199.5,218.5 118.5,173.5 118.5,263.5 199.5,218.5 280.5,173.5 280.5,263.5 199.5,218.5 		"/>
	</g>
	<text transform="matrix(1 0 0 1 129.0098 163)" font-family="sans-serif" font-size="60">SUW</text>
</g>
<g id="template" transform="translate(0 -140) translate(0 -1) translate(0 -1) translate(0 -1) translate(0 -1) translate(0 -1) translate(0 -1) translate(0 -1) translate(0 -1) translate(0 -1) translate(0 -1) translate(0 -1) translate(0 -1) translate(0 -1) translate(0 -1) translate(0 -1) translate(0 -1) translate(0 -1) translate(0 -1) translate(0 -1) translate(0 -1) translate(0 -1) translate(0 -1) translate(0 -1) translate(0 -1) translate(0 -1) translate(0 -1) translate(0 -1) translate(0 -1) translate(0 -1) translate(0 -1) translate(0 -1) translate(0 -1)" display="none">
	<text transform="matrix(1 0 0 1 147 205)" display="inline" font-family="sans-serif" font-size="24">CENTER</text>
	<text transform="matrix(1 0 0 1 158 230)" display="inline" font-family="sans-serif" font-size="24">POINT</text>
	
		<g transform="translate(0 -1) translate(0 -1) translate(0 -1) translate(0 -1) translate(0 -1) translate(0 -1) translate(0 -1) translate(0 -1) translate(0 -1) translate(0 -1) translate(0 -1) translate(0 -1) translate(0 -1) translate(0 -1) translate(0 -1) translate(0 -1) translate(0 -1) translate(0 -1) translate(0 -1) translate(0 -1) translate(0 -1) translate(0 -1) translate(0 -1) translate(0 -1) translate(0 -1) translate(0 -1) translate(0 -1) translate(0 -1) translate(0 -1) translate(0 -1) translate(0 -1) translate(0 -1) translate(200 85) scale(1 0.758621) translate(-200 -85)" display="inline">
		<line fill="none" stroke="#000000" stroke-width="3" x1="192.5" y1="335.454" x2="192.5" y2="390.455"/>
		<polygon stroke="#000000" points="192.5,393.454 185.5,378.455 199.5,378.455 		"/>
	</g>
</g>
</svg>
