<?xml version="1.0" encoding="utf-8"?>
<!-- Generator: Adobe Illustrator 16.0.0, SVG Export Plug-In . SVG Version: 6.00 Build 0)  -->
<!DOCTYPE svg PUBLIC "-//W3C//DTD SVG 1.1//EN" "http://www.w3.org/Graphics/SVG/1.1/DTD/svg11.dtd">
<svg version="1.1" id="Version_1.0" xmlns="http://www.w3.org/2000/svg" xmlns:xlink="http://www.w3.org/1999/xlink" x="0px"
	 y="0px" width="612px" height="792px" viewBox="0 0 612 792" enable-background="new 0 0 612 792" xml:space="preserve">
<g id="main">
	<line fill="none" stroke="#000000" stroke-width="10" x1="205.5" y1="221" x2="205.5" y2="571"/>
	<line fill="none" stroke="#000000" stroke-width="10" x1="405.5" y1="221" x2="405.5" y2="571"/>
	<g>
		<polyline points="226,329.5 226,360.9 304.5,408 383,360.9 383,329.5 304.5,376.6 		"/>
		<polyline points="305,418 224,373 224,463 305,418 386,373 386,463 305,418 		"/>
	</g>
</g>
<g id="template" transform="translate(0 -140)" display="none">
	<text transform="matrix(1 0 0 1 257 391)" display="inline" font-family="sans-serif" font-size="24">CENTER</text>
	<text transform="matrix(1 0 0 1 268 416)" display="inline" font-family="sans-serif" font-size="24">POINT</text>
	<g display="inline">
		<line fill="none" stroke="#000000" stroke-width="3" x1="303" y1="429" x2="303" y2="484"/>
		<polygon stroke="#000000" points="303,487 296,472 310,472 		"/>
	</g>
</g>
</svg>
