<?xml version="1.0" encoding="utf-8"?>
<!-- Generator: Adobe Illustrator 16.0.0, SVG Export Plug-In . SVG Version: 6.00 Build 0)  -->
<!DOCTYPE svg PUBLIC "-//W3C//DTD SVG 1.1//EN" "http://www.w3.org/Graphics/SVG/1.1/DTD/svg11.dtd">
<svg version="1.1" id="Version_1.0" xmlns="http://www.w3.org/2000/svg" xmlns:xlink="http://www.w3.org/1999/xlink" x="0px"
	 y="0px" width="612px" height="792px" viewBox="0 0 612 792" enable-background="new 0 0 612 792" xml:space="preserve">
<g id="main">
	<line fill="none" stroke="#000000" stroke-width="10" x1="205.04" y1="237" x2="205.04" y2="587"/>
	<line fill="none" stroke="#000000" stroke-width="10" x1="405.04" y1="237" x2="405.04" y2="587"/>
	<g>
		
			<g transform="translate(107 102) scale(5 5) translate(37.008 39) scale(0.832252 0.832252) translate(-37.008 -39) translate(-3.60468 6.96904)">
			<path d="M44.889,45.022c0.191,0.385,0.334,0.697,0.432,0.938v7.861l16.92,17.523v2.596l-16.92-11.016v14.111l3.959,4.033v1.944
				l-4.607-1.943l-0.936,1.943l-1.01-1.943l-4.535,1.943v-1.943l3.889-4.033V62.924L25.233,73.94v-2.596l16.848-17.523v-7.862
				l0.217-0.648c0.429-0.865,0.91-1.299,1.439-1.299C44.12,44.012,44.504,44.35,44.889,45.022z"/>
		</g>
	</g>
	<text transform="matrix(1 0 0 1 235.5098 333.6445)" font-family="sans-serif" font-size="60">SUW</text>
</g>
<g id="template" transform="translate(0 -140) translate(0 -1) translate(0 -1) translate(0 -1) translate(0 -1) translate(0 -1) translate(0 -1) translate(0 -1) translate(0 -1) translate(0 -1) translate(0 -1) translate(0 -1) translate(0 -1) translate(0 -1) translate(0 -1) translate(0 -1) translate(0 -1) translate(0 -1) translate(0 -1) translate(0 -1) translate(0 -1) translate(0 -1) translate(0 -1) translate(0 -1) translate(0 -1) translate(0 -1) translate(0 -1) translate(0 -1) translate(0 -1) translate(0 -1) translate(0 -1) translate(0 -1) translate(0 -1)" display="none">
	<text transform="matrix(1 0 0 1 262 398.1445)" display="inline" font-family="sans-serif" font-size="24">CENTER</text>
	<text transform="matrix(1 0 0 1 273 423.1445)" display="inline" font-family="sans-serif" font-size="24">POINT</text>
	
		<g transform="translate(0 -1) translate(0 -1) translate(0 -1) translate(0 -1) translate(0 -1) translate(0 -1) translate(0 -1) translate(0 -1) translate(0 -1) translate(0 -1) translate(0 -1) translate(0 -1) translate(0 -1) translate(0 -1) translate(0 -1) translate(0 -1) translate(0 -1) translate(0 -1) translate(0 -1) translate(0 -1) translate(0 -1) translate(0 -1) translate(0 -1) translate(0 -1) translate(0 -1) translate(0 -1) translate(0 -1) translate(0 -1) translate(0 -1) translate(0 -1) translate(0 -1) translate(0 -1) translate(200 85) scale(1 0.758621) translate(-200 -85)" display="inline">
		<line fill="none" stroke="#000000" stroke-width="3" x1="308.04" y1="574.704" x2="308.04" y2="620.33"/>
		<polygon stroke="#000000" points="308.04,622.818 301.04,610.374 315.04,610.374 		"/>
	</g>
</g>
</svg>
