<?xml version="1.0" encoding="utf-8"?>
<!-- Generator: Adobe Illustrator 16.0.0, SVG Export Plug-In . SVG Version: 6.00 Build 0)  -->
<!DOCTYPE svg PUBLIC "-//W3C//DTD SVG 1.1//EN" "http://www.w3.org/Graphics/SVG/1.1/DTD/svg11.dtd">
<svg version="1.1" id="Version_1.0" xmlns="http://www.w3.org/2000/svg" xmlns:xlink="http://www.w3.org/1999/xlink" x="0px"
	 y="0px" width="400px" height="400px" viewBox="0 0 400 400" enable-background="new 0 0 400 400" xml:space="preserve">
<g id="main">
	<g>
		<line fill="none" stroke="#000000" stroke-width="10" x1="99.5" y1="25" x2="99.5" y2="375"/>
		<line fill="none" stroke="#000000" stroke-width="10" x1="299.5" y1="25" x2="299.5" y2="375"/>
	</g>
	<circle stroke="#000000" cx="199.5" cy="200.5" r="50"/>
</g>
<g id="template" display="none">
	
		<g transform="translate(0 -1) translate(0 -1) translate(0 -1) translate(0 -1) translate(0 -1) translate(0 -1) translate(0 -1) translate(0 -1) translate(0 -1) translate(0 -1) translate(0 -1) translate(0 -1) translate(0 -1) translate(0 -1) translate(0 -1) translate(0 -1) translate(0 -1) translate(0 -1) translate(0 -1) translate(0 -1) translate(0 -1) translate(0 -1) translate(0 -1) translate(0 -1) translate(0 -1) translate(0 -1) translate(0 -1) translate(0 -1) translate(0 -1) translate(0 -1) translate(0 -1) translate(0 -1) translate(0 -1) translate(0 -1) translate(0 -1) translate(0 -1) translate(0 -1) translate(0 -1) translate(0 -1) translate(0 -1) translate(0 -1) translate(0 -1) translate(0 -1) translate(0 -1) translate(0 -1) translate(0 -1) translate(0 -1) translate(0 -1) translate(0 -1) translate(0 -1) translate(0 -1) translate(0 -1) translate(0 -1) translate(0 -1) translate(0 -1) translate(0 -1) translate(0 -1) translate(0 -1) translate(0 -1) translate(0 -1) translate(0 -1) translate(0 -1) translate(0 -1) translate(0 -1) translate(0 -1) translate(0 -1) translate(0 -1) translate(0 -1) translate(0 -1) translate(0 -1) translate(0 -1) translate(0 -1) translate(0 -1) translate(0 -1) translate(0 -1) translate(0 -1) translate(0 -1) translate(0 -1) translate(0 -1) translate(0 -1) translate(0 -1) translate(0 -1) translate(0 -1) translate(0 -1) translate(0 -1) translate(0 -1) translate(0 -1) translate(0 -1) translate(0 -1) translate(0 -1) translate(0 -1) translate(0 -1) translate(0 -1) translate(0 -1) translate(0 -1) translate(0 -1) translate(0 -1) translate(0 -1) translate(0 -1) translate(0 -1) translate(0 -1) translate(0 -1) translate(0 -1) translate(0 -1) translate(0 -1) translate(0 -1) translate(0 -1) translate(0 -1) translate(0 -1) translate(0 -1) translate(0 -1) translate(0 -1) translate(0 -1) translate(0 -1) translate(0 -1) translate(0 -1) translate(0 -1) translate(0 -1) translate(0 -1) translate(0 -1) translate(0 -1) translate(0 -1) translate(0 -1) translate(0 -1) translate(0 -1)" display="inline">
		<text transform="matrix(1 0 0 1 148 200)" font-family="sans-serif" font-size="24">CENTER</text>
		<text transform="matrix(1 0 0 1 148 200)" fill="none" stroke="#000000" font-family="sans-serif" font-size="24">CENTER</text>
		<text transform="matrix(1 0 0 1 159 225)" font-family="sans-serif" font-size="24">POINT</text>
		<text transform="matrix(1 0 0 1 159 225)" fill="none" stroke="#000000" font-family="sans-serif" font-size="24">POINT</text>
	</g>
	
		<g transform="translate(0 1) translate(0 1) translate(0 1) translate(0 1) translate(200 143) scale(1 0.793103) translate(-200 -143) translate(200 143) scale(1 0.934783) translate(-200 -143)" display="inline">
		<line fill="none" stroke="#000000" stroke-width="3" x1="199" y1="89.884" x2="199" y2="144.884"/>
		<polygon stroke="#000000" points="199,147.884 192,132.884 206,132.884 		"/>
	</g>
</g>
</svg>
