<?xml version="1.0" encoding="utf-8"?>
<!-- Generator: Adobe Illustrator 16.0.0, SVG Export Plug-In . SVG Version: 6.00 Build 0)  -->
<!DOCTYPE svg PUBLIC "-//W3C//DTD SVG 1.1//EN" "http://www.w3.org/Graphics/SVG/1.1/DTD/svg11.dtd">
<svg version="1.1" id="Version_1.0" xmlns="http://www.w3.org/2000/svg" xmlns:xlink="http://www.w3.org/1999/xlink" x="0px"
	 y="0px" width="612px" height="792px" viewBox="0 0 612 792" enable-background="new 0 0 612 792" xml:space="preserve">
<g id="main">
	<circle fill="none" stroke="#000000" stroke-width="5" cx="298.5" cy="395.599" r="125"/>
	<polygon fill="none" stroke="#000000" stroke-width="5" points="234.24,430.6 234.24,360.599 374.24,430.6 374.24,360.599 	"/>
	<text transform="matrix(1 0 0 1 432.2402 417.5996)" font-family="sans-serif" font-size="60">PUP</text>
</g>
<g id="template" display="none">
	<g transform="translate(80 130)" display="inline">
		<text transform="matrix(1 0 0 1 298.5 428.5986)" font-family="sans-serif" font-size="24">CENTER</text>
		<text transform="matrix(1 0 0 1 309.5 453.5986)" font-family="sans-serif" font-size="24">POINT</text>
	</g>
	<g display="inline">
		<g>
			<line fill="none" stroke="#000000" stroke-width="3" x1="418.586" y1="534.393" x2="315.414" y2="411.328"/>
			<path d="M310.232,408.738c1.529,3.572,2.289,6.09,3.289,9.146l8.697-7.292c-1.074-0.492-5.182-2.703-8.432-4.833
				c-3.479-2.278-6.43-4.517-8.159-6.123C306.908,401.62,308.598,404.916,310.232,408.738z"/>
		</g>
	</g>
</g>
</svg>
