<?xml version="1.0" encoding="utf-8"?>
<!-- Generator: Adobe Illustrator 16.0.0, SVG Export Plug-In . SVG Version: 6.00 Build 0)  -->
<!DOCTYPE svg PUBLIC "-//W3C//DTD SVG 1.1//EN" "http://www.w3.org/Graphics/SVG/1.1/DTD/svg11.dtd">
<svg version="1.1" id="Version_1.0" xmlns="http://www.w3.org/2000/svg" xmlns:xlink="http://www.w3.org/1999/xlink" x="0px"
	 y="0px" width="612px" height="792px" viewBox="0 0 612 792" enable-background="new 0 0 612 792" xml:space="preserve">
<g id="main">
	<g>
		<line fill="none" stroke="#000000" stroke-width="10" x1="181.812" y1="221" x2="181.812" y2="571"/>
		<line fill="none" stroke="#000000" stroke-width="10" x1="381.813" y1="221" x2="381.813" y2="571"/>
	</g>
	<text transform="matrix(1 0 0 1 251.1611 446.7861)" font-family="sans-serif" font-size="120">T</text>
</g>
<g display="none">
	<g id="varT" display="inline">
		
			<rect x="396.424" y="222.464" fill="none" stroke="#000000" stroke-width="2.4349" stroke-linecap="round" stroke-miterlimit="8" width="73.393" height="72.729"/>
		<text transform="matrix(1 0 0 1 418.3594 280.4141)" font-family="sans-serif" font-size="52">T</text>
	</g>
	<g id="points" display="inline">
		<g transform="translate(0 -140)">
			<text transform="matrix(1 0 0 1 242.3115 392.793)" font-family="sans-serif" font-size="24">CENTER</text>
			<text transform="matrix(1 0 0 1 253.3115 417.793)" font-family="sans-serif" font-size="24">POINT</text>
		</g>
		<g>
			<g>
				<g>
					<line fill="none" stroke="#000000" stroke-width="4" x1="288.647" y1="285.892" x2="288.647" y2="340.892"/>
					<path d="M291.722,347.977c1.499-4.96,2.879-8.184,4.476-12.163h-15.134c0.677,1.424,2.979,7.203,4.476,12.163
						c1.604,5.309,2.701,10.122,3.092,13.244C289.022,358.099,290.119,353.286,291.722,347.977z"/>
				</g>
			</g>
		</g>
	</g>
</g>
<g id="example" display="none">
	<text id="varTe" transform="matrix(1 0 0 1 400.3594 280.4141)" display="inline" font-family="sans-serif" font-size="52">629</text>
</g>
</svg>
