<?xml version="1.0" encoding="utf-8"?>
<!-- Generator: Adobe Illustrator 16.0.0, SVG Export Plug-In . SVG Version: 6.00 Build 0)  -->
<!DOCTYPE svg PUBLIC "-//W3C//DTD SVG 1.1//EN" "http://www.w3.org/Graphics/SVG/1.1/DTD/svg11.dtd">
<svg version="1.1" id="Version_1.0" xmlns="http://www.w3.org/2000/svg" xmlns:xlink="http://www.w3.org/1999/xlink" x="0px"
	 y="0px" width="400px" height="400px" viewBox="0 0 400 400" enable-background="new 0 0 400 400" xml:space="preserve">
<g id="main">
	<line fill="none" stroke="#000000" stroke-width="10" x1="100.5" y1="25" x2="100.5" y2="375"/>
	<line fill="none" stroke="#000000" stroke-width="10" x1="300.5" y1="25" x2="300.5" y2="375"/>
	<g>
		<polyline points="121,133.5 121,164.9 199.5,212 278,164.9 278,133.5 199.5,180.6 		"/>
		<polyline points="200,222 119,177 119,267 200,222 281,177 281,267 200,222 		"/>
	</g>
</g>
<g id="template" transform="translate(0 -140)" display="none">
	<text transform="matrix(1 0 0 1 152 195)" display="inline" font-family="sans-serif" font-size="24">CENTER</text>
	<text transform="matrix(1 0 0 1 163 220)" display="inline" font-family="sans-serif" font-size="24">POINT</text>
	<g display="inline">
		<line fill="none" stroke="#000000" stroke-width="3" x1="198" y1="233" x2="198" y2="288"/>
		<polygon stroke="#000000" points="198,291 191,276 205,276 		"/>
	</g>
</g>
</svg>
