<?xml version="1.0" encoding="utf-8"?>
<!-- Generator: Adobe Illustrator 16.0.0, SVG Export Plug-In . SVG Version: 6.00 Build 0)  -->
<!DOCTYPE svg PUBLIC "-//W3C//DTD SVG 1.1//EN" "http://www.w3.org/Graphics/SVG/1.1/DTD/svg11.dtd">
<svg version="1.1" id="Version_1.0" xmlns="http://www.w3.org/2000/svg" xmlns:xlink="http://www.w3.org/1999/xlink" x="0px"
	 y="0px" width="400px" height="400px" viewBox="0 0 400 400" enable-background="new 0 0 400 400" xml:space="preserve">
<g id="main">
	<g>
		<line fill="none" stroke="#000000" stroke-width="10" x1="85.812" y1="25" x2="85.812" y2="375"/>
		<line fill="none" stroke="#000000" stroke-width="10" x1="285.813" y1="25" x2="285.813" y2="375"/>
	</g>
	<text transform="matrix(1 0 0 1 128.1611 234.7861)" font-family="sans-serif" font-size="90">RZ</text>
</g>
<g id="template" display="none">
	<g transform="translate(0 -140)" display="inline">
		<text transform="matrix(1 0 0 1 146.3115 196.793)" font-family="sans-serif" font-size="24">CENTER</text>
		<text transform="matrix(1 0 0 1 157.3115 221.793)" font-family="sans-serif" font-size="24">POINT</text>
	</g>
	<g display="inline">
		<g>
			<g>
				<line fill="none" stroke="#000000" stroke-width="4" x1="192.647" y1="89.892" x2="192.647" y2="144.892"/>
				<path d="M195.722,151.977c1.499-4.96,2.879-8.184,4.476-12.163h-15.134c0.677,1.424,2.979,7.203,4.476,12.163
					c1.604,5.309,2.701,10.122,3.092,13.244C193.022,162.099,194.119,157.286,195.722,151.977z"/>
			</g>
		</g>
	</g>
</g>
</svg>
