<?xml version="1.0" encoding="utf-8"?>
<!-- Generator: Adobe Illustrator 16.0.0, SVG Export Plug-In . SVG Version: 6.00 Build 0)  -->
<!DOCTYPE svg PUBLIC "-//W3C//DTD SVG 1.1//EN" "http://www.w3.org/Graphics/SVG/1.1/DTD/svg11.dtd">
<svg version="1.1" id="Version_1.0" xmlns="http://www.w3.org/2000/svg" xmlns:xlink="http://www.w3.org/1999/xlink" x="0px"
	 y="0px" width="612px" height="792px" viewBox="0 0 612 792" enable-background="new 0 0 612 792" xml:space="preserve">
<g id="main">
	<text transform="matrix(1 0 0 1 234.6133 383.5508)" font-family="sans-serif" font-size="72">CCP</text>
	<circle fill="none" stroke="#000000" stroke-width="5" cx="311.318" cy="397.93" r="125"/>
</g>
<g id="template" display="none">
	<g id="varT" transform="translate(0 50)" display="inline">
		<rect x="277.283" y="364.203" fill="#FFFFFF" stroke="#000000" stroke-width="5" width="64.535" height="62.57"/>
		<text transform="matrix(1 0 0 1 286.293 422.2031)" font-family="sans-serif" font-size="72">T</text>
	</g>
	<g id="points" display="inline">
		<g transform="translate(140 120)">
			<text transform="matrix(1 0 0 1 258.6133 403.4551)" font-family="sans-serif" font-size="24">CENTER</text>
			<text transform="matrix(1 0 0 1 269.6133 428.4551)" font-family="sans-serif" font-size="24">POINT</text>
		</g>
		<g>
			<g>
				<g>
					<line fill="none" stroke="#000000" stroke-width="5" x1="459.683" y1="501.203" x2="326.682" y2="411.203"/>
					<path d="M317.193,409.422c4.085,5.023,6.456,8.713,9.457,13.151l10.602-15.667c-1.949-0.297-9.543-1.963-15.727-3.888
						c-6.619-2.062-12.372-4.294-15.877-6.077C308.606,399.537,312.82,404.045,317.193,409.422z"/>
				</g>
			</g>
		</g>
	</g>
</g>
<g id="example" transform="translate(0 50)" display="none">
	<text id="varTe" transform="matrix(1 0 0 1 289.2617 421.2031)" display="inline" font-family="sans-serif" font-size="72">1</text>
</g>
</svg>
