<?xml version="1.0" encoding="utf-8"?>
<!-- Generator: Adobe Illustrator 16.0.0, SVG Export Plug-In . SVG Version: 6.00 Build 0)  -->
<!DOCTYPE svg PUBLIC "-//W3C//DTD SVG 1.1//EN" "http://www.w3.org/Graphics/SVG/1.1/DTD/svg11.dtd">
<svg version="1.1" id="Version_1.0" xmlns="http://www.w3.org/2000/svg" xmlns:xlink="http://www.w3.org/1999/xlink" x="0px"
	 y="0px" width="400px" height="400px" viewBox="0 0 400 400" enable-background="new 0 0 400 400" xml:space="preserve">
<g id="main">
	<g>
		<line fill="none" stroke="#000000" stroke-width="10" x1="85.812" y1="25" x2="85.812" y2="375"/>
		<line fill="none" stroke="#000000" stroke-width="10" x1="285.813" y1="25" x2="285.813" y2="375"/>
	</g>
	<text transform="matrix(1 0 0 1 105.1611 176.7861)" font-family="sans-serif" font-size="72">ASW</text>
	<g>
		
			<g transform="translate(107 102) scale(5 5) translate(37.008 39) scale(0.832252 0.832252) translate(-37.008 -39) translate(-3.60468 6.96904)">
			<path d="M16.998,6.778c0.191,0.385,0.334,0.697,0.432,0.938v7.861L34.35,33.1v2.596L17.43,24.679V38.79l3.959,4.033v1.944
				l-4.607-1.943l-0.936,1.943l-1.01-1.943l-4.535,1.943v-1.943l3.889-4.033V24.679L-2.658,35.695v-2.596L14.19,15.577V7.714
				l0.217-0.648c0.429-0.865,0.91-1.299,1.439-1.299C16.229,5.768,16.613,6.105,16.998,6.778z"/>
		</g>
	</g>
</g>
<g id="template" display="none">
	<g transform="translate(0 -140)" display="inline">
		<text transform="matrix(1 0 0 1 146.3115 167.793)" font-family="sans-serif" font-size="24">CENTER</text>
		<text transform="matrix(1 0 0 1 157.3115 192.793)" font-family="sans-serif" font-size="24">POINT</text>
	</g>
	<g display="inline">
		<g>
			<g>
				<line fill="none" stroke="#000000" stroke-width="4" x1="189.631" y1="57.5" x2="189.647" y2="93.892"/>
				<path d="M192.722,100.977c1.499-4.96,2.879-8.184,4.476-12.163h-15.134c0.677,1.424,2.979,7.203,4.476,12.163
					c1.604,5.309,2.701,10.122,3.092,13.244C190.022,111.099,191.119,106.286,192.722,100.977z"/>
			</g>
		</g>
	</g>
</g>
</svg>
