<?xml version="1.0" encoding="utf-8"?>
<!-- Generator: Adobe Illustrator 16.0.0, SVG Export Plug-In . SVG Version: 6.00 Build 0)  -->
<!DOCTYPE svg PUBLIC "-//W3C//DTD SVG 1.1//EN" "http://www.w3.org/Graphics/SVG/1.1/DTD/svg11.dtd">
<svg version="1.1" id="Version_1.0" xmlns="http://www.w3.org/2000/svg" xmlns:xlink="http://www.w3.org/1999/xlink" x="0px"
	 y="0px" width="400px" height="400px" viewBox="0 0 400 400" enable-background="new 0 0 400 400" xml:space="preserve">
<g id="main">
	<line fill="none" stroke="#000000" stroke-width="10" x1="100.04" y1="35" x2="100.04" y2="385"/>
	<line fill="none" stroke="#000000" stroke-width="10" x1="300.04" y1="35" x2="300.04" y2="385"/>
	<g>
		
			<g transform="translate(107 102) scale(5 5) translate(37.008 39) scale(0.832252 0.832252) translate(-37.008 -39) translate(-3.60468 6.96904)">
			<path d="M19.656-3.521c0.191,0.385,0.334,0.697,0.432,0.938v7.861l16.92,17.523v2.596l-16.92-11.016v14.111l3.959,4.033v1.944
				l-4.607-1.943l-0.936,1.943l-1.01-1.943l-4.535,1.943v-1.943l3.889-4.033V14.381L0,25.397v-2.596L16.848,5.278v-7.862
				l0.217-0.648c0.429-0.865,0.91-1.299,1.439-1.299C18.887-4.531,19.271-4.193,19.656-3.521z"/>
		</g>
	</g>
	<text transform="matrix(1 0 0 1 130.5098 131.6445)" font-family="sans-serif" font-size="60">SUW</text>
</g>
<g id="template" transform="translate(0 -140) translate(0 -1) translate(0 -1) translate(0 -1) translate(0 -1) translate(0 -1) translate(0 -1) translate(0 -1) translate(0 -1) translate(0 -1) translate(0 -1) translate(0 -1) translate(0 -1) translate(0 -1) translate(0 -1) translate(0 -1) translate(0 -1) translate(0 -1) translate(0 -1) translate(0 -1) translate(0 -1) translate(0 -1) translate(0 -1) translate(0 -1) translate(0 -1) translate(0 -1) translate(0 -1) translate(0 -1) translate(0 -1) translate(0 -1) translate(0 -1) translate(0 -1) translate(0 -1)" display="none">
	<text transform="matrix(1 0 0 1 157 196.1445)" display="inline" font-family="sans-serif" font-size="24">CENTER</text>
	<text transform="matrix(1 0 0 1 168 221.1445)" display="inline" font-family="sans-serif" font-size="24">POINT</text>
	
		<g transform="translate(0 -1) translate(0 -1) translate(0 -1) translate(0 -1) translate(0 -1) translate(0 -1) translate(0 -1) translate(0 -1) translate(0 -1) translate(0 -1) translate(0 -1) translate(0 -1) translate(0 -1) translate(0 -1) translate(0 -1) translate(0 -1) translate(0 -1) translate(0 -1) translate(0 -1) translate(0 -1) translate(0 -1) translate(0 -1) translate(0 -1) translate(0 -1) translate(0 -1) translate(0 -1) translate(0 -1) translate(0 -1) translate(0 -1) translate(0 -1) translate(0 -1) translate(0 -1) translate(200 85) scale(1 0.758621) translate(-200 -85)" display="inline">
		<line fill="none" stroke="#000000" stroke-width="3" x1="203.04" y1="308.432" x2="203.04" y2="354.057"/>
		<polygon stroke="#000000" points="203.04,356.545 196.04,344.102 210.04,344.102 		"/>
	</g>
</g>
</svg>
