<?xml version="1.0" encoding="utf-8"?>
<!-- Generator: Adobe Illustrator 16.0.0, SVG Export Plug-In . SVG Version: 6.00 Build 0)  -->
<!DOCTYPE svg PUBLIC "-//W3C//DTD SVG 1.1//EN" "http://www.w3.org/Graphics/SVG/1.1/DTD/svg11.dtd">
<svg version="1.1" id="Version_1.0" xmlns="http://www.w3.org/2000/svg" xmlns:xlink="http://www.w3.org/1999/xlink" x="0px"
	 y="0px" width="400px" height="400px" viewBox="0 0 400 400" enable-background="new 0 0 400 400" xml:space="preserve">
<g id="main">
	<text transform="matrix(1 0 0 1 123.2949 183.2773)" font-family="sans-serif" font-size="72">ACP</text>
	<circle fill="none" stroke="#000000" stroke-width="5" cx="200" cy="197.656" r="125"/>
</g>
<g id="template" display="none">
	<g id="varT" transform="translate(0 50)" display="inline">
		<rect x="165.965" y="163.93" fill="#FFFFFF" stroke="#000000" stroke-width="5" width="64.535" height="62.57"/>
		<text transform="matrix(1 0 0 1 174.9746 221.9297)" font-family="sans-serif" font-size="72">T</text>
	</g>
	<g id="points" display="inline">
		<g transform="translate(140 120)">
			<text transform="matrix(1 0 0 1 147.2949 203.1816)" font-family="sans-serif" font-size="24">CENTER</text>
			<text transform="matrix(1 0 0 1 158.2949 228.1816)" font-family="sans-serif" font-size="24">POINT</text>
		</g>
		<g>
			<g>
				<g>
					<line fill="none" stroke="#000000" stroke-width="5" x1="348.364" y1="300.93" x2="215.363" y2="210.93"/>
					<path d="M205.875,209.148c4.085,5.024,6.456,8.713,9.457,13.152l10.602-15.667c-1.949-0.297-9.543-1.963-15.727-3.888
						c-6.619-2.061-12.372-4.294-15.877-6.077C197.288,199.263,201.502,203.771,205.875,209.148z"/>
				</g>
			</g>
		</g>
	</g>
</g>
<g id="example" transform="translate(0 50)" display="none">
	<text id="varTe" transform="matrix(1 0 0 1 177.9434 220.9297)" display="inline" font-family="sans-serif" font-size="72">7</text>
</g>
</svg>
