<?xml version="1.0" encoding="utf-8"?>
<!-- Generator: Adobe Illustrator 16.0.0, SVG Export Plug-In . SVG Version: 6.00 Build 0)  -->
<!DOCTYPE svg PUBLIC "-//W3C//DTD SVG 1.1//EN" "http://www.w3.org/Graphics/SVG/1.1/DTD/svg11.dtd">
<svg version="1.1" id="Version_1.0" xmlns="http://www.w3.org/2000/svg" xmlns:xlink="http://www.w3.org/1999/xlink" x="0px"
	 y="0px" width="400px" height="400px" viewBox="0 0 400 400" enable-background="new 0 0 400 400" xml:space="preserve">
<g id="main">
	<rect x="39.681" y="80.382" fill="#474747" width="315.279" height="228.118"/>
	<path fill="none" stroke="#338888" stroke-width="7.0312" stroke-linejoin="round" stroke-miterlimit="10" d="M81.898,200
		c48.287,0,93.011,11.428,118.778,29.797v-0.439l130.2-50.167l0.877,0.299c-60.922-50.379-160.555-81.82-272.368-84.596l0,0
		L84.75,201.5"/>
</g>
<g id="template" display="none">
	<g id="varT" display="inline">
		
			<rect x="122.155" y="122.711" fill="none" stroke="#000000" stroke-width="1.7578" stroke-linecap="round" stroke-miterlimit="8" width="56.249" height="42.187"/>
		<polygon fill="#FFFFFF" points="122.155,122.711 122.155,164.898 178.404,164.898 178.404,122.711 		"/>
		<text transform="matrix(1 0 0 1 139.9697 155.9082)" font-family="sans-serif" font-size="36">T</text>
	</g>
	<text transform="matrix(1 0 0 1 81.8984 289.373)" display="inline" fill="#FFFF00" font-family="sans-serif" font-size="24">POINT</text>
	<text transform="matrix(1 0 0 1 81.8984 265.0195)" display="inline" fill="#FFFF00" font-family="sans-serif" font-size="24">CENTER</text>
	<path display="inline" fill="#FFFF00" stroke="#FFFF00" stroke-width="0.2812" stroke-linejoin="bevel" stroke-miterlimit="10" d="
		M118.694,238.902l56.145-65.85c0.421-0.492,1.159-0.545,1.651-0.123c0.493,0.421,0.563,1.16,0.141,1.652l-56.145,65.85
		c-0.421,0.49-1.159,0.543-1.651,0.121C118.342,240.131,118.272,239.395,118.694,238.902L118.694,238.902z M168.861,171.033
		l14.467-6.135l-3.762,15.257L168.861,171.033z"/>
</g>
<g id="example" display="none">
	
		<text id="varTe" transform="matrix(1 0 0 1 139.9697 155.9082)" display="inline" fill="#FFFFFF" font-family="sans-serif" font-size="36">2</text>
</g>
</svg>
