<?xml version="1.0" encoding="utf-8"?>
<!-- Generator: Adobe Illustrator 16.0.0, SVG Export Plug-In . SVG Version: 6.00 Build 0)  -->
<!DOCTYPE svg PUBLIC "-//W3C//DTD SVG 1.1//EN" "http://www.w3.org/Graphics/SVG/1.1/DTD/svg11.dtd">
<svg version="1.1" id="Version_1.0" xmlns="http://www.w3.org/2000/svg" xmlns:xlink="http://www.w3.org/1999/xlink" x="0px"
	 y="0px" width="612px" height="792px" viewBox="0 0 612 792" enable-background="new 0 0 612 792" xml:space="preserve">
<g id="main">
	
		<ellipse fill="none" stroke="#000000" stroke-width="5.1773" stroke-linejoin="bevel" stroke-miterlimit="10" cx="304.271" cy="395.5" rx="48.5" ry="104"/>
	
		<ellipse fill="none" stroke="#000000" stroke-width="5.1773" stroke-linejoin="bevel" stroke-miterlimit="10" cx="304.271" cy="395.5" rx="104" ry="48.5"/>
</g>
<g id="template" display="none">
	<text transform="matrix(1 0 0 1 92.0552 334.3428)" display="inline" font-family="sans-serif" font-size="29.8508">C</text>
	<text transform="matrix(1 0 0 1 113.6123 334.3428)" display="inline" font-family="sans-serif" font-size="29.8508">E</text>
	<text transform="matrix(1 0 0 1 133.4033 334.3428)" display="inline" font-family="sans-serif" font-size="29.8508">N</text>
	<text transform="matrix(1 0 0 1 154.96 334.3428)" display="inline" font-family="sans-serif" font-size="29.8508">T</text>
	<text transform="matrix(1 0 0 1 173.6421 334.3428)" display="inline" font-family="sans-serif" font-size="29.8508">E</text>
	<text transform="matrix(1 0 0 1 193.4331 334.3428)" display="inline" font-family="sans-serif" font-size="29.8508">R</text>
	<text transform="matrix(1 0 0 1 92.0552 370.1641)" display="inline" font-family="sans-serif" font-size="29.8508">POINT </text>
	<path display="inline" stroke="#000000" stroke-width="0.3963" stroke-linejoin="bevel" stroke-miterlimit="10" d="
		M193.387,344.725l98.741,42.842l-2.539,6.121l-98.741-42.838L193.387,344.725L193.387,344.725z M291.639,380.112l14.289,17.045
		l-21.899,1.349L291.639,380.112L291.639,380.112z"/>
</g>
</svg>
