<?xml version="1.0" encoding="utf-8"?>
<!-- Generator: Adobe Illustrator 16.0.0, SVG Export Plug-In . SVG Version: 6.00 Build 0)  -->
<!DOCTYPE svg PUBLIC "-//W3C//DTD SVG 1.1//EN" "http://www.w3.org/Graphics/SVG/1.1/DTD/svg11.dtd">
<svg version="1.1" id="Version_1.0" xmlns="http://www.w3.org/2000/svg" xmlns:xlink="http://www.w3.org/1999/xlink" x="0px"
	 y="0px" width="612px" height="792px" viewBox="0 0 612 792" enable-background="new 0 0 612 792" xml:space="preserve">
<g id="main">
	
		<line fill="none" stroke="#000000" stroke-width="5.6879" stroke-linejoin="round" stroke-miterlimit="10" x1="304.93" y1="291.968" x2="305.076" y2="489.938"/>
	
		<line fill="none" stroke="#000000" stroke-width="5.6879" stroke-linejoin="round" stroke-miterlimit="10" x1="226.256" y1="481.693" x2="388.31" y2="306.582"/>
	
		<line fill="none" stroke="#000000" stroke-width="5.6879" stroke-linejoin="round" stroke-miterlimit="10" x1="214.901" y1="306.582" x2="388.31" y2="481.693"/>
</g>
<g id="template" display="none">
	<text transform="matrix(1 0 0 1 164.4331 297.5732)" display="inline" font-family="sans-serif" font-size="28.2906">POINT</text>
	<text transform="matrix(1 0 0 1 164.4331 263.8203)" display="inline" font-family="sans-serif" font-size="28.2906">CENTER</text>
	<path display="inline" stroke="#000000" stroke-width="0.3409" stroke-linejoin="bevel" stroke-miterlimit="10" d="
		M296.045,382.252l-44.522-94.799c-0.319-0.704-0.021-1.555,0.682-1.896c0.724-0.319,1.555-0.021,1.896,0.681l44.521,94.799
		c0.342,0.725,0.023,1.555-0.68,1.896C297.24,383.273,296.387,382.954,296.045,382.252L296.045,382.252z M303.842,375.455
		l-0.469,19.045l-14.957-11.801L303.842,375.455z"/>
</g>
</svg>
