<?xml version="1.0" encoding="utf-8"?>
<!-- Generator: Adobe Illustrator 16.0.0, SVG Export Plug-In . SVG Version: 6.00 Build 0)  -->
<!DOCTYPE svg PUBLIC "-//W3C//DTD SVG 1.1//EN" "http://www.w3.org/Graphics/SVG/1.1/DTD/svg11.dtd">
<svg version="1.1" id="Version_1.0" xmlns="http://www.w3.org/2000/svg" xmlns:xlink="http://www.w3.org/1999/xlink" x="0px"
	 y="0px" width="612px" height="792px" viewBox="0 0 612 792" enable-background="new 0 0 612 792" xml:space="preserve">
<g id="main">
	<line fill="none" stroke="#000000" stroke-width="10" stroke-dasharray="35,25" x1="171" y1="254" x2="437.5" y2="254"/>
	<line fill="none" stroke="#000000" stroke-width="10" x1="171" y1="454" x2="437.5" y2="454"/>
	<ellipse stroke="#000000" cx="303.5" cy="350.5" rx="55" ry="55"/>
</g>
<g id="template" display="none">
	<g id="varW1" display="inline">
		
			<rect x="489.495" y="265.69" fill="none" stroke="#000000" stroke-width="1.721" stroke-linecap="round" stroke-miterlimit="8" width="65.005" height="50.011"/>
		<text transform="matrix(1 0 0 1 500.8525 300.5508)" font-family="sans-serif" font-size="27.8344">W1</text>
	</g>
	<g id="varW" display="inline">
		<text transform="matrix(1 0 0 1 463.7246 300.7617)" font-family="sans-serif" font-size="39.2364">-</text>
		
			<rect x="396.5" y="265.69" fill="none" stroke="#000000" stroke-width="1.6116" stroke-linecap="round" stroke-miterlimit="8" width="57" height="50.011"/>
		<text transform="matrix(1 0 0 1 412.5176 300.5508)" font-family="sans-serif" font-size="27.8344">W</text>
	</g>
	<g id="varT" display="inline">
		
			<rect x="437.755" y="327.864" fill="none" stroke="#000000" stroke-width="1.7378" stroke-linecap="round" stroke-miterlimit="8" width="65.005" height="54.271"/>
		<text transform="matrix(1 0 0 1 458.1904 369.332)" font-family="sans-serif" font-size="36">T</text>
	</g>
	<g id="points" display="inline">
		<g>
			<g>
				<line fill="none" stroke="#FFFFFF" stroke-width="5" x1="303.5" y1="418.5" x2="303.5" y2="372.5"/>
				<polygon fill="#FFFFFF" points="316.003,376.146 303.539,354.558 291.074,376.146 				"/>
			</g>
		</g>
		<line fill="none" stroke="#000000" stroke-width="5" x1="303.5" y1="405.5" x2="303.5" y2="483.5"/>
		<text transform="matrix(1 0 0 1 254.1641 505.5)" font-family="sans-serif" font-size="24">CENTER</text>
		<text transform="matrix(1 0 0 1 266.832 534.2998)" font-family="sans-serif" font-size="24">POINT</text>
	</g>
</g>
<g id="example" display="none">
	<text id="varTe" transform="matrix(1 0 0 1 458.1904 369.332)" display="inline" font-family="sans-serif" font-size="36"> </text>
	<text transform="matrix(1 0 0 1 372.5176 293.5508)" display="inline" font-family="sans-serif" font-size="24">020300ZMAY08 -</text>
	<text transform="matrix(1 0 0 1 372.5176 322.3506)" display="inline" font-family="sans-serif" font-size="24">090500ZMAY08 </text>
</g>
</svg>
