<?xml version="1.0" encoding="utf-8"?>
<!-- Generator: Adobe Illustrator 16.0.0, SVG Export Plug-In . SVG Version: 6.00 Build 0)  -->
<!DOCTYPE svg PUBLIC "-//W3C//DTD SVG 1.1//EN" "http://www.w3.org/Graphics/SVG/1.1/DTD/svg11.dtd">
<svg version="1.1" id="Version_1.0" xmlns="http://www.w3.org/2000/svg" xmlns:xlink="http://www.w3.org/1999/xlink" x="0px"
	 y="0px" width="612px" height="792px" viewBox="0 0 612 792" enable-background="new 0 0 612 792" xml:space="preserve">
<g>
	<path d="M392.371,393.77c0,24.75-8.389,45.528-25.17,62.358c-16.782,16.806-37.523,25.218-62.202,25.218
		c-24.444,0-45.126-8.473-62.028-25.404c-16.902-16.949-25.35-37.668-25.35-62.172c0-24.738,8.388-45.576,25.17-62.52
		c16.782-16.932,37.523-25.404,62.202-25.404c24.444,0,45.126,8.532,62.028,25.596C383.923,348.506,392.371,369.277,392.371,393.77z
		 M385.621,393.77c0-22.854-7.746-42.096-23.214-57.726c-15.479-15.63-34.62-23.448-57.408-23.448s-41.928,7.818-57.408,23.448
		c-15.468,15.63-23.214,34.878-23.214,57.726c0,22.62,7.807,41.742,23.389,57.378c15.611,15.63,34.686,23.448,57.233,23.448
		s41.628-7.818,57.222-23.448S385.621,416.39,385.621,393.77z M324.871,141.596v106.62l-24.096-30.234l0.365,87.516l7.23,0.354
		V240.29l24.443,27.726v-126.42H324.871z"/>
	<text transform="matrix(1.1335 0 0 1 284.4277 410.8828)" font-family="sans-serif" font-size="60">B</text>
</g>
<g id="template" display="none">
	<g id="varH" display="inline">
		<rect x="355.316" y="267.096" fill="#FFFFFF" stroke="#000000" stroke-width="1.8941" width="50.807" height="50.798"/>
		<text transform="matrix(1.1335 0 0 1 362.6494 306.8789)" font-family="sans-serif" font-size="42">H</text>
	</g>
	<g id="varT" display="inline">
		<rect x="349.116" y="211.096" fill="#FFFFFF" stroke="#000000" stroke-width="1.8941" width="51.007" height="51"/>
		<text transform="matrix(1.1335 0 0 1 356.6494 251.0801)" font-family="sans-serif" font-size="42">T</text>
	</g>
	<g id="points" display="inline">
		<g transform="translate(-90 -35)">
			<text transform="matrix(1 0 0 1 250.623 302)" font-family="sans-serif" font-size="24">CENTER</text>
			<text transform="matrix(1 0 0 1 250.623 302)" fill="none" stroke="#000000" font-family="sans-serif" font-size="24">CENTER</text>
			<text transform="matrix(1 0 0 1 261.623 327)" font-family="sans-serif" font-size="24">POINT</text>
			<text transform="matrix(1 0 0 1 261.623 327)" fill="none" stroke="#000000" font-family="sans-serif" font-size="24">POINT</text>
		</g>
		<g>
			<line fill="none" stroke="#000000" stroke-width="3" x1="211.623" y1="301" x2="301.623" y2="391"/>
			<polygon stroke="#000000" stroke-width="2" points="304.623,394 292.623,390 300.623,382 			"/>
		</g>
	</g>
</g>
<g id="example" display="none">
	<text id="varHe" transform="matrix(1.1335 0 0 1 362.6494 306.8789)" display="inline" font-family="sans-serif" font-size="42">HOT</text>
	<text id="varTe" transform="matrix(1.1335 0 0 1 356.6494 254.0801)" display="inline" font-family="sans-serif" font-size="42">99</text>
</g>
</svg>
