<?xml version="1.0" encoding="utf-8"?>
<!-- Generator: Adobe Illustrator 16.0.0, SVG Export Plug-In . SVG Version: 6.00 Build 0)  -->
<!DOCTYPE svg PUBLIC "-//W3C//DTD SVG 1.1//EN" "http://www.w3.org/Graphics/SVG/1.1/DTD/svg11.dtd">
<svg version="1.1" id="Version_1.0" xmlns="http://www.w3.org/2000/svg" xmlns:xlink="http://www.w3.org/1999/xlink" x="0px"
	 y="0px" width="612px" height="792px" viewBox="0 0 612 792" enable-background="new 0 0 612 792" xml:space="preserve">
<g id="main">
	<text transform="matrix(1 0 0 1 255.4902 531.5)" font-family="sans-serif" font-size="72">PK</text>
	<g>
		<path fill="none" stroke="#000000" stroke-width="5" stroke-linejoin="round" stroke-miterlimit="10" d="M200.76,349.914
			c-0.886-1.817-1.905-3.568-3.058-5.208c-12.237-17.468-36.488-21.591-54.199-9.2c-8.27,5.786-14.01,14.52-16.005,24.384"/>
		<path fill="none" stroke="#000000" stroke-width="5" stroke-linejoin="round" stroke-miterlimit="10" d="M200.717,349.449
			c0.886,1.817,1.906,3.546,3.058,5.208c12.236,17.47,36.467,21.591,54.155,9.224c5.254-3.682,9.533-8.602,12.458-14.3"/>
		<path fill="none" stroke="#000000" stroke-width="5" stroke-linejoin="round" stroke-miterlimit="10" d="M339.992,350.158
			c-0.887-1.817-1.904-3.568-3.059-5.208c-12.236-17.469-36.512-21.57-54.224-9.177c-5.274,3.702-9.575,8.623-12.523,14.342"/>
		<path fill="none" stroke="#000000" stroke-width="5" stroke-linejoin="round" stroke-miterlimit="10" d="M339.639,349.494
			c0.889,1.817,1.906,3.546,3.062,5.208c12.235,17.469,36.51,21.569,54.241,9.155c5.275-3.681,9.576-8.603,12.504-14.32"/>
		<path fill="none" stroke="#000000" stroke-width="5" stroke-linejoin="round" stroke-miterlimit="10" d="M482.309,361.397
			c-0.888-5.831-3.103-11.349-6.475-16.138c-12.235-17.49-36.464-21.613-54.154-9.244c-5.253,3.679-9.553,8.6-12.457,14.298"/>
	</g>
	<g>
		<path fill="none" stroke="#000000" stroke-width="5" stroke-linejoin="round" stroke-miterlimit="10" d="M200.76,453.214
			c-0.886-1.817-1.905-3.569-3.058-5.21c-12.237-17.469-36.488-21.59-54.199-9.197c-8.27,5.784-14.01,14.521-16.005,24.383"/>
		<path fill="none" stroke="#000000" stroke-width="5" stroke-linejoin="round" stroke-miterlimit="10" d="M200.717,452.749
			c0.886,1.815,1.906,3.545,3.058,5.207c12.236,17.469,36.467,21.594,54.155,9.224c5.254-3.682,9.533-8.6,12.458-14.298"/>
		<path fill="none" stroke="#000000" stroke-width="5" stroke-linejoin="round" stroke-miterlimit="10" d="M339.992,453.456
			c-0.887-1.815-1.904-3.565-3.059-5.206c-12.236-17.469-36.512-21.57-54.224-9.179c-5.274,3.704-9.575,8.624-12.523,14.342"/>
		<path fill="none" stroke="#000000" stroke-width="5" stroke-linejoin="round" stroke-miterlimit="10" d="M339.639,452.793
			c0.889,1.818,1.906,3.547,3.062,5.209c12.235,17.469,36.51,21.568,54.241,9.156c5.275-3.68,9.576-8.602,12.504-14.322"/>
		<path fill="none" stroke="#000000" stroke-width="5" stroke-linejoin="round" stroke-miterlimit="10" d="M482.309,464.695
			c-0.888-5.83-3.103-11.348-6.475-16.137c-12.235-17.488-36.464-21.613-54.154-9.242c-5.253,3.678-9.553,8.599-12.457,14.295"/>
	</g>
	
		<line fill="none" stroke="#000000" stroke-width="5" stroke-linejoin="round" stroke-miterlimit="10" x1="128.119" y1="401.164" x2="486.496" y2="401.164"/>
</g>
<g id="template" display="none">
	<text transform="matrix(1 0 0 1 250.8672 261.8691)" display="inline" font-family="sans-serif" font-size="30">CENTER</text>
	<text transform="matrix(1 0 0 1 261.8672 297.8691)" display="inline" font-family="sans-serif" font-size="30">POINT </text>
	<path display="inline" stroke="#000000" stroke-width="0.3547" stroke-linejoin="bevel" stroke-miterlimit="10" d="
		M308.404,304.383l0.135,82.018h-2.949l-0.132-82.018H308.404L308.404,304.383z M315.92,383.432l-8.845,17.732l-8.888-17.71
		L315.92,383.432L315.92,383.432z"/>
</g>
</svg>
