<?xml version="1.0" encoding="utf-8"?>
<!-- Generator: Adobe Illustrator 16.0.0, SVG Export Plug-In . SVG Version: 6.00 Build 0)  -->
<!DOCTYPE svg PUBLIC "-//W3C//DTD SVG 1.1//EN" "http://www.w3.org/Graphics/SVG/1.1/DTD/svg11.dtd">
<svg version="1.1" id="Version_1.0" xmlns="http://www.w3.org/2000/svg" xmlns:xlink="http://www.w3.org/1999/xlink" x="0px"
	 y="0px" width="612px" height="792px" viewBox="0 0 612 792" enable-background="new 0 0 612 792" xml:space="preserve">
<g id="main" transform="translate(-250 -150) scale(1.75 1.75)">
	<path d="M255.967,264.643l126.98,0.134l-3.402,2.812H259.508L255.967,264.643z M255.967,264.643l3.509,3.02l35.039,95.971
		l-3.026,0.01L255.967,264.643z M382.947,264.643l-3.402,2.974l-34.975,96.026h2.994L382.947,264.643z"/>
</g>
<g id="template" display="none">
	<g id="varH" display="inline">
		<rect x="277.817" y="372.5" fill="#FFFFFF" stroke="#000000" stroke-width="2.1866" width="58.683" height="50.799"/>
		<text transform="matrix(1.1335 0 0 1 288.0264 412.7051)" font-family="sans-serif" font-size="43.2269">H</text>
	</g>
	<g id="points" transform="matrix(1 0 0 1 56 -61)" display="inline">
		<text transform="matrix(1 0 0 1 209.5669 576.8751)" font-family="sans-serif" font-size="20.9989">CENTER</text>
		<text transform="matrix(1 0 0 1 221.8169 597.8751)" font-family="sans-serif" font-size="20.9989">POINT</text>
		<g transform="matrix(0.897674 -0.44066 0.44066 0.897674 133.455 170.916)">
			<g>
				<g>
					<line fill="none" stroke="#000000" stroke-width="5" x1="-65.201" y1="396.661" x2="-33.728" y2="332.549"/>
					<path d="M-33.275,322.904c-4.414,4.739-7.736,7.597-11.721,11.182l16.983,8.336c0.025-1.972,0.626-9.724,1.678-16.113
						c1.126-6.841,2.546-12.847,3.824-16.564C-24.671,313.033-28.551,317.832-33.275,322.904z"/>
				</g>
			</g>
		</g>
	</g>
</g>
</svg>
