<?xml version="1.0" encoding="utf-8"?>
<!-- Generator: Adobe Illustrator 16.0.0, SVG Export Plug-In . SVG Version: 6.00 Build 0)  -->
<!DOCTYPE svg PUBLIC "-//W3C//DTD SVG 1.1//EN" "http://www.w3.org/Graphics/SVG/1.1/DTD/svg11.dtd">
<svg version="1.1" id="Version_1.0" xmlns="http://www.w3.org/2000/svg" xmlns:xlink="http://www.w3.org/1999/xlink" x="0px"
	 y="0px" width="612px" height="792px" viewBox="0 0 612 792" enable-background="new 0 0 612 792" xml:space="preserve">
<g id="main" transform="translate(80 80) scale(5 5) translate(-6.6 -0.2) translate(-1.2 0) translate(-1.4 0.4) translate(-1 0)">
	<path d="M79.854,62.151c0,7.125-2.432,13.121-7.291,17.986c-4.859,4.863-10.85,7.297-17.969,7.297
		c-7.039,0-13.01-2.453-17.91-7.355c-4.899-4.907-7.35-10.881-7.35-17.928c0-7.125,2.432-13.131,7.289-18.016
		c4.861-4.883,10.853-7.326,17.971-7.326c7.078,0,13.059,2.453,17.939,7.357C77.413,49.071,79.854,55.065,79.854,62.151z
		 M55.915,85.559c-0.641,0.082-1.301,0.125-1.98,0.125c-6,0-11.299-2.354-15.898-7.061c-2.32-2.355-3.99-4.699-5.012-7.031
		c-1.018-2.336-1.588-5.139-1.709-8.408h23.77v22.375H55.915z M54.834,62.934v-24.25c-6.582,0-12.168,2.301-16.758,6.902
		c-4.746,4.762-6.961,10.545-6.642,17.348H54.834z M70.979,45.926c3.238,3.258,5.297,6.033,6.176,8.326
		c0.6,1.488,0.9,3.863,0.9,7.121c0,0.605-0.033,1.209-0.096,1.811H55.084v-24.5C60.961,38.766,66.261,41.18,70.979,45.926z
		 M77.959,63.184H55.315v22.375c6.047-0.32,11.291-2.6,15.736-6.838C75.656,74.321,77.959,69.141,77.959,63.184z"/>
</g>
<g id="template" display="none">
	<g display="inline">
		<line fill="none" stroke="#000000" stroke-width="2" x1="312.672" y1="404.643" x2="429.672" y2="502.623"/>
		<polygon stroke="#000000" stroke-width="2" points="306.5,398.09 337.35,409.141 324.344,425.77 		"/>
	</g>
	<g id="CENTER_x25_20POINT" transform="matrix(1.5 0 0 2.08468 104.5 -341.52)" display="inline">
		<text transform="matrix(0.4797 0 0 0.4797 219.1146 405.1639)" font-family="sans-serif" font-size="24">CENTER</text>
		<text transform="matrix(0.4797 0 0 0.4797 225.1146 415.1634)" font-family="sans-serif" font-size="24">POINT</text>
	</g>
</g>
</svg>
