<?xml version="1.0" encoding="utf-8"?>
<!-- Generator: Adobe Illustrator 16.0.0, SVG Export Plug-In . SVG Version: 6.00 Build 0)  -->
<!DOCTYPE svg PUBLIC "-//W3C//DTD SVG 1.1//EN" "http://www.w3.org/Graphics/SVG/1.1/DTD/svg11.dtd">
<svg version="1.1" id="Version_1.0" xmlns="http://www.w3.org/2000/svg" xmlns:xlink="http://www.w3.org/1999/xlink" x="0px"
	 y="0px" width="400px" height="400px" viewBox="0 0 400 400" enable-background="new 0 0 400 400" xml:space="preserve">
<g id="main">
	<polygon stroke="#000000" points="283.5,162.5 254.5,136.5 199.246,217.5 143.5,136.5 115.5,161.5 77.5,123.5 200,37.862 
		321.5,124.5 	"/>
	<line fill="none" stroke="#000000" stroke-width="5" x1="15.701" y1="122.5" x2="382.79" y2="121.5"/>
</g>
<g id="template" display="none">
	<text transform="matrix(1 0 0 1 140.8535 290.3008)" display="inline" font-family="sans-serif" font-size="27.7759">C</text>
	<text transform="matrix(1 0 0 1 160.9126 290.3008)" display="inline" font-family="sans-serif" font-size="27.7759">E</text>
	<text transform="matrix(1 0 0 1 179.3276 290.3008)" display="inline" font-family="sans-serif" font-size="27.7759">N</text>
	<text transform="matrix(1 0 0 1 199.3867 290.3008)" display="inline" font-family="sans-serif" font-size="27.7759">T</text>
	<text transform="matrix(1 0 0 1 216.7695 290.3008)" display="inline" font-family="sans-serif" font-size="27.7759">E</text>
	<text transform="matrix(1 0 0 1 235.1846 290.3008)" display="inline" font-family="sans-serif" font-size="27.7759">R</text>
	<text transform="matrix(1 0 0 1 140.8535 323.6318)" display="inline" font-family="sans-serif" font-size="27.7759">POINT </text>
	<g display="inline">
		<g>
			<line fill="none" stroke="#FFFFFF" stroke-width="5" x1="198.246" y1="216.5" x2="198.246" y2="148.5"/>
			<polygon fill="#FFFFFF" points="210.749,152.147 198.285,130.558 185.82,152.147 			"/>
		</g>
	</g>
	<line display="inline" fill="none" stroke="#000000" stroke-width="5" x1="198.246" y1="216.5" x2="198.246" y2="261.5"/>
</g>
</svg>
