<?xml version="1.0" encoding="utf-8"?>
<!-- Generator: Adobe Illustrator 16.0.0, SVG Export Plug-In . SVG Version: 6.00 Build 0)  -->
<!DOCTYPE svg PUBLIC "-//W3C//DTD SVG 1.1//EN" "http://www.w3.org/Graphics/SVG/1.1/DTD/svg11.dtd">
<svg version="1.1" id="Version_1.0" xmlns="http://www.w3.org/2000/svg" xmlns:xlink="http://www.w3.org/1999/xlink" x="0px"
	 y="0px" width="612px" height="792px" viewBox="0 0 612 792" enable-background="new 0 0 612 792" xml:space="preserve">
<g id="main">
	<path d="M446.5,409.641l-156.02,63.938L137.5,409.641H446.5z M187.569,238.813v-5.55h201.867v5.55H187.569z M213.001,358.136
		v-53.834h28.725c16.888,0,25.318,4.533,25.318,13.591c0,4.978-3.504,8.8-10.516,11.464c9.657,2.131,14.489,6.58,14.489,13.328
		c0,10.301-9.601,15.451-28.821,15.451H213.001z M222.539,327.057h17.3c3.847,0,7.038-0.173,9.601-0.537
		c5.392-1.247,8.074-3.757,8.074-7.517c0-3.938-2.556-6.531-7.687-7.788c-2.295-0.537-6.136-0.808-11.526-0.808h-15.762V327.057z
		 M222.539,351.477h19.475h7.254c3.828-0.528,7.141-2.029,9.938-4.511c0.77-1.768,1.145-3.184,1.145-4.25
		c0-1.944-0.756-3.805-2.282-5.576c-2.817-2.65-8.666-3.979-17.587-3.979h-17.943V351.477z M287.709,410.177V233.263h7.152v176.914
		H287.709z M370.623,338.782l10.645,1.856c-4.795,12.036-15.397,18.053-31.791,18.053c-15.895,0-26.625-4.622-32.178-13.884
		c-2.785-4.622-4.158-9.515-4.158-14.684c0-11.743,5.799-19.832,17.408-24.291c5.537-2.131,11.846-3.201,18.915-3.201
		c16.144,0,26.228,5.297,30.276,15.878l-10.268,1.612c-3.31-7.584-10.017-11.381-20.148-11.381
		c-17.236,0-25.852,7.127-25.852,21.383c0,14.977,8.232,22.463,24.713,22.463C360.604,352.587,368.093,347.991,370.623,338.782z"/>
</g>
<g id="template" transform="translate(-510 -230) scale(2.5 2.5)" display="none">
	<g transform="translate(163 -77)" display="inline">
		<text transform="matrix(0.4 0 0 0.4 188.4 377.3047)" font-family="sans-serif" font-size="30">ANCHOR</text>
		<text transform="matrix(0.4 0 0 0.4 195.4 388.3047)" font-family="sans-serif" font-size="30">POINT</text>
	</g>
	<polyline display="inline" fill="none" stroke="#000000" stroke-width="2" stroke-miterlimit="10" points="352,304.905 
		320.215,304.923 320.215,296.4 	"/>
	<polygon display="inline" stroke="#000000" stroke-width="2" points="320.4,284.304 326.4,296.304 314.4,296.304 	"/>
</g>
</svg>
