<?xml version="1.0" encoding="utf-8"?>
<!-- Generator: Adobe Illustrator 16.0.0, SVG Export Plug-In . SVG Version: 6.00 Build 0)  -->
<!DOCTYPE svg PUBLIC "-//W3C//DTD SVG 1.1//EN" "http://www.w3.org/Graphics/SVG/1.1/DTD/svg11.dtd">
<svg version="1.1" id="Version_1.0" xmlns="http://www.w3.org/2000/svg" xmlns:xlink="http://www.w3.org/1999/xlink" x="0px"
	 y="0px" width="612px" height="792px" viewBox="0 0 612 792" enable-background="new 0 0 612 792" xml:space="preserve">
<g id="main" transform="translate(181 199) translate(22.2005 47.625) scale(1 3.12073) translate(-22.2005 -47.625) translate(0 23.8125) scale(5.61701 1) translate(0 -23.8125) translate(-17.8031 14.7401) translate(0.178031 0)">
	<path d="M5.601,82.363L5.51,80.3h66.51l0.092,2.063H5.601z M26.663,31.781l13.409-20.856l13.14,20.856H26.663z M43.01,31.694
		v49.049h-6.75V31.694H43.01z"/>
</g>
<g id="template" transform="translate(-110 -170) scale(1.5 1.5)" display="none">
	<line display="inline" fill="none" stroke="#000000" stroke-width="2" x1="277.299" y1="396.06" x2="277.299" y2="422.06"/>
	<line display="inline" fill="none" stroke="#000000" stroke-width="2" x1="276.246" y1="422.069" x2="315.299" y2="422.06"/>
	<polygon display="inline" stroke="#000000" stroke-width="2" points="277.299,386.06 285.299,397.06 269.299,397.06 	"/>
	<g id="ANCHOR_x25_20POINT" transform="translate(-12 -5) translate(4 56)" display="inline">
		<text transform="matrix(0.6667 0 0 0.6667 327.2988 365.0599)" font-family="sans-serif" font-size="18.0027">ANCHOR</text>
		<text transform="matrix(0.6667 0 0 0.6667 335.2988 377.0599)" font-family="sans-serif" font-size="18.0027">POINT</text>
	</g>
</g>
</svg>
