<?xml version="1.0" encoding="utf-8"?>
<!-- Generator: Adobe Illustrator 16.0.0, SVG Export Plug-In . SVG Version: 6.00 Build 0)  -->
<!DOCTYPE svg PUBLIC "-//W3C//DTD SVG 1.1//EN" "http://www.w3.org/Graphics/SVG/1.1/DTD/svg11.dtd">
<svg version="1.1" id="Version_1.0" xmlns="http://www.w3.org/2000/svg" xmlns:xlink="http://www.w3.org/1999/xlink" x="0px"
	 y="0px" width="612px" height="792px" viewBox="0 0 612 792" enable-background="new 0 0 612 792" xml:space="preserve">
<g id="main">
	<polyline fill="none" stroke="#000000" stroke-width="10" points="175.377,310.301 175.377,426.301 247.377,426.301 
		247.377,506.301 363.377,506.301 365.377,427.301 442.377,427.301 442.377,310.301 	"/>
	<line fill="none" stroke="#000000" stroke-width="10" x1="250.377" y1="345.301" x2="384.377" y2="472.301"/>
	<line fill="none" stroke="#000000" stroke-width="10" x1="230.377" y1="472.301" x2="356.377" y2="345.301"/>
</g>
<g id="template" display="none">
	<text transform="matrix(1 0 0 1 209.4136 240.2988)" display="inline" font-family="sans-serif" font-size="23.507">C</text>
	<text transform="matrix(1 0 0 1 226.3896 240.2988)" display="inline" font-family="sans-serif" font-size="23.507">E</text>
	<text transform="matrix(1 0 0 1 241.9746 240.2988)" display="inline" font-family="sans-serif" font-size="23.507">N</text>
	<text transform="matrix(1 0 0 1 258.9507 240.2988)" display="inline" font-family="sans-serif" font-size="23.507">T</text>
	<text transform="matrix(1 0 0 1 273.6626 240.2988)" display="inline" font-family="sans-serif" font-size="23.507">E</text>
	<text transform="matrix(1 0 0 1 289.2466 240.2988)" display="inline" font-family="sans-serif" font-size="23.507">R </text>
	<text transform="matrix(1 0 0 1 312.7539 240.2988)" display="inline" font-family="sans-serif" font-size="23.507">P</text>
	<text transform="matrix(1 0 0 1 328.3379 240.2988)" display="inline" font-family="sans-serif" font-size="23.507">O</text>
	<text transform="matrix(1 0 0 1 346.7422 240.2988)" display="inline" font-family="sans-serif" font-size="23.507">I</text>
	<text transform="matrix(1 0 0 1 353.5313 240.2988)" display="inline" font-family="sans-serif" font-size="23.507">N</text>
	<text transform="matrix(1 0 0 1 370.5059 240.2988)" display="inline" font-family="sans-serif" font-size="23.507">T</text>
	<text transform="matrix(1 0 0 1 385.2178 240.2988)" display="inline" font-family="sans-serif" font-size="23.507">  </text>
	<g display="inline">
		<g>
			<line fill="none" stroke="#000000" stroke-width="5" x1="305.377" y1="245.301" x2="305.377" y2="351.301"/>
			<polygon points="294.618,343.87 305.509,384.523 316.402,343.87 			"/>
		</g>
	</g>
</g>
</svg>
