<?xml version="1.0" encoding="utf-8"?>
<!-- Generator: Adobe Illustrator 16.0.0, SVG Export Plug-In . SVG Version: 6.00 Build 0)  -->
<!DOCTYPE svg PUBLIC "-//W3C//DTD SVG 1.1//EN" "http://www.w3.org/Graphics/SVG/1.1/DTD/svg11.dtd">
<svg version="1.1" id="Version_1.0" xmlns="http://www.w3.org/2000/svg" xmlns:xlink="http://www.w3.org/1999/xlink" x="0px"
	 y="0px" width="400px" height="400px" viewBox="0 0 400 400" enable-background="new 0 0 400 400" xml:space="preserve">
<g id="main">
	<polygon stroke="#000000" stroke-width="5" points="195.667,25 225.666,170 370.666,200 225.666,230 195.667,375 165.667,230 
		20.667,200 165.667,170 	"/>
</g>
<g id="template" display="none">
	<g id="varH" display="inline">
		<rect x="238.5" y="86.5" fill="none" stroke="#000000" stroke-width="5" width="79" height="66"/>
		<text transform="matrix(1 0 0 1 263.166 134.5)" font-family="sans-serif" font-size="35.9982">H</text>
	</g>
	<g id="points" display="inline">
		<polygon fill="#808080" stroke="#808080" stroke-width="2" points="197.612,197.986 220.877,192.959 209.563,218.572 		"/>
		<line fill="none" stroke="#808080" stroke-width="2" x1="208.166" y1="202.75" x2="292.166" y2="241.25"/>
		<g id="CENTER_x25_20POINT" transform="matrix(1.75 0 0 1.75 -59.25 -399.75)">
			<text transform="matrix(0.5714 0 0 0.5714 197.5235 363.0001)" font-family="sans-serif" font-size="20.9978">CENTER</text>
			<text transform="matrix(0.5714 0 0 0.5714 201.5229 373.0001)" font-family="sans-serif" font-size="20.9978">POINT</text>
		</g>
	</g>
</g>
<g id="example" display="none">
	<text id="varHe" transform="matrix(1 0 0 1 263.166 134.5001)" display="inline" font-family="sans-serif" font-size="35.9982">BM</text>
</g>
</svg>
