<?xml version="1.0" encoding="utf-8"?>
<!-- Generator: Adobe Illustrator 16.0.0, SVG Export Plug-In . SVG Version: 6.00 Build 0)  -->
<!DOCTYPE svg PUBLIC "-//W3C//DTD SVG 1.1//EN" "http://www.w3.org/Graphics/SVG/1.1/DTD/svg11.dtd">
<svg version="1.1" id="Version_1.0" xmlns="http://www.w3.org/2000/svg" xmlns:xlink="http://www.w3.org/1999/xlink" x="0px"
	 y="0px" width="400px" height="400px" viewBox="0 0 400 400" enable-background="new 0 0 400 400" xml:space="preserve">
<g id="main">
	<polyline fill="none" stroke="#000000" stroke-width="5" points="125.717,116.021 51.688,179.643 326.654,179.643 252.627,243.268 
			"/>
</g>
<g id="template" display="none">
	<g display="inline">
		<text transform="matrix(0.9973 0 0 1 318.3252 268.209)" font-family="sans-serif" font-size="24">P</text>
		<text transform="matrix(0.9973 0 0 1 334.3613 268.209)" font-family="sans-serif" font-size="24">T</text>
		<text transform="matrix(0.9973 0 0 1 348.9814 268.209)" font-family="sans-serif" font-size="24"> </text>
		<text transform="matrix(0.9973 0 0 1 355.6797 268.209)" font-family="sans-serif" font-size="24">2</text>
		
			<line fill="none" stroke="#000000" stroke-width="4" stroke-linecap="round" stroke-linejoin="round" stroke-miterlimit="10" x1="340.232" y1="206.152" x2="340.232" y2="245.92"/>
		<path stroke="#000000" stroke-width="3" stroke-linejoin="bevel" stroke-miterlimit="10" d="M339.412,206.42l-3.489-11.294
			c-0.133-0.478,0.132-0.98,0.581-1.114c0.477-0.132,0.952,0.106,1.11,0.584l3.464,11.32c0.158,0.452-0.105,0.955-0.582,1.087
			C340.047,207.16,339.545,206.896,339.412,206.42L339.412,206.42z M332.22,198.095l-0.132-18.452l10.261,15.35L332.22,198.095z"/>
	</g>
	<g display="inline">
		<text transform="matrix(0.9973 0 0 1 22.2148 270.5352)" font-family="sans-serif" font-size="24">P</text>
		<text transform="matrix(0.9973 0 0 1 38.2515 270.5352)" font-family="sans-serif" font-size="24">T</text>
		<text transform="matrix(0.9973 0 0 1 52.8721 270.5352)" font-family="sans-serif" font-size="24"> </text>
		<text transform="matrix(0.9973 0 0 1 59.5698 270.5352)" font-family="sans-serif" font-size="24">1</text>
		
			<line fill="none" stroke="#000000" stroke-width="5" stroke-linecap="round" stroke-linejoin="round" stroke-miterlimit="10" x1="40.452" y1="207.152" x2="40.452" y2="246.92"/>
		<path stroke="#000000" stroke-width="3" stroke-linejoin="bevel" stroke-miterlimit="10" d="M39.632,206.915l3.463-11.32
			c0.159-0.478,0.634-0.716,1.11-0.584c0.449,0.134,0.714,0.637,0.582,1.114l-3.491,11.294c-0.132,0.478-0.633,0.74-1.082,0.582
			C39.738,207.87,39.474,207.367,39.632,206.915L39.632,206.915z M38.363,195.993l10.258-15.35l-0.159,18.452L38.363,195.993z"/>
	</g>
</g>
</svg>
