<?xml version="1.0" encoding="utf-8"?>
<!-- Generator: Adobe Illustrator 16.0.0, SVG Export Plug-In . SVG Version: 6.00 Build 0)  -->
<!DOCTYPE svg PUBLIC "-//W3C//DTD SVG 1.1//EN" "http://www.w3.org/Graphics/SVG/1.1/DTD/svg11.dtd">
<svg version="1.1" id="Version_1.0" xmlns="http://www.w3.org/2000/svg" xmlns:xlink="http://www.w3.org/1999/xlink" x="0px"
	 y="0px" width="400px" height="400px" viewBox="0 0 400 400" enable-background="new 0 0 400 400" xml:space="preserve">
<g id="main">
	<path d="M321.5,227.641l-156.02,63.937L12.5,227.641H321.5z M62.569,56.813v-5.55h201.867v5.55H62.569z M88.001,176.136v-53.834
		h28.725c16.888,0,25.318,4.533,25.318,13.591c0,4.978-3.504,8.8-10.516,11.464c9.657,2.131,14.489,6.58,14.489,13.328
		c0,10.301-9.601,15.451-28.821,15.451H88.001z M97.539,145.057h17.3c3.847,0,7.038-0.173,9.601-0.537
		c5.392-1.247,8.074-3.757,8.074-7.517c0-3.938-2.556-6.531-7.687-7.788c-2.295-0.537-6.136-0.808-11.526-0.808H97.539V145.057z
		 M97.539,169.477h19.475h7.254c3.828-0.528,7.141-2.029,9.938-4.511c0.77-1.768,1.145-3.184,1.145-4.25
		c0-1.944-0.756-3.805-2.282-5.576c-2.817-2.65-8.666-3.979-17.587-3.979H97.539V169.477z M162.709,228.177V51.263h7.152v176.914
		H162.709z M245.623,156.782l10.645,1.856c-4.795,12.036-15.398,18.053-31.791,18.053c-15.895,0-26.625-4.622-32.178-13.884
		c-2.785-4.622-4.158-9.515-4.158-14.684c0-11.743,5.799-19.832,17.408-24.291c5.537-2.131,11.846-3.201,18.915-3.201
		c16.144,0,26.228,5.297,30.276,15.878l-10.268,1.612c-3.309-7.584-10.016-11.381-20.148-11.381
		c-17.236,0-25.852,7.127-25.852,21.383c0,14.977,8.233,22.463,24.713,22.463C235.604,170.587,243.093,165.991,245.623,156.782z"/>
</g>
<g id="template" transform="translate(-510 -230) scale(2.5 2.5)" display="none">
	<g id="ANCHOR_x25_20POINT" transform="translate(163 -77)" display="inline">
		<text transform="matrix(0.4 0 0 0.4 138.4 304.5047)" font-family="sans-serif" font-size="30">ANCHOR</text>
		<text transform="matrix(0.4 0 0 0.4 145.4 315.5047)" font-family="sans-serif" font-size="30">POINT</text>
	</g>
	<line display="inline" fill="none" stroke="#000000" stroke-width="2" x1="270.4" y1="217.505" x2="270.348" y2="233.402"/>
	<line display="inline" fill="none" stroke="#000000" stroke-width="2" x1="270.615" y1="232.535" x2="302.4" y2="232.505"/>
	<polygon display="inline" stroke="#000000" stroke-width="2" points="270.4,211.504 276.4,223.504 264.4,223.504 	"/>
</g>
</svg>
