<?xml version="1.0" encoding="utf-8"?>
<!-- Generator: Adobe Illustrator 16.0.0, SVG Export Plug-In . SVG Version: 6.00 Build 0)  -->
<!DOCTYPE svg PUBLIC "-//W3C//DTD SVG 1.1//EN" "http://www.w3.org/Graphics/SVG/1.1/DTD/svg11.dtd">
<svg version="1.1" id="Version_1.0" xmlns="http://www.w3.org/2000/svg" xmlns:xlink="http://www.w3.org/1999/xlink" x="0px"
	 y="0px" width="612px" height="792px" viewBox="0 0 612 792" enable-background="new 0 0 612 792" xml:space="preserve">
<g id="main">
	<polygon stroke="#000000" stroke-width="10" points="305.5,391.5 180.5,306.5 430.5,306.5 	"/>
	<line fill="none" stroke="#000000" stroke-width="10" x1="305.5" y1="306.5" x2="305.5" y2="145.5"/>
	<polyline fill="none" stroke="#000000" stroke-width="10" points="160.5,145.5 215.5,85.5 305.5,145.5 395.5,85.5 450.5,145.5 	"/>
</g>
<g id="template" display="none">
	<g transform="translate(113 164)" display="inline">
		<text transform="matrix(1 0 0 1 295.9512 226.499)" font-family="sans-serif" font-size="24">ANCHOR</text>
		<text transform="matrix(1 0 0 1 295.9512 226.499)" fill="none" stroke="#000000" font-family="sans-serif" font-size="24">ANCHOR</text>
		<text transform="matrix(1 0 0 1 307.9512 251.499)" font-family="sans-serif" font-size="24">POINT</text>
		<text transform="matrix(1 0 0 1 307.9512 251.499)" fill="none" stroke="#000000" font-family="sans-serif" font-size="24">POINT</text>
	</g>
	<g display="inline">
		<g>
			<line fill="none" stroke="#000000" stroke-width="5" x1="415.5" y1="398.4" x2="338.5" y2="398.4"/>
			<polygon points="345.932,387.641 305.277,398.532 345.932,409.426 			"/>
		</g>
	</g>
</g>
</svg>
