<?xml version="1.0" encoding="utf-8"?>
<!-- Generator: Adobe Illustrator 16.0.0, SVG Export Plug-In . SVG Version: 6.00 Build 0)  -->
<!DOCTYPE svg PUBLIC "-//W3C//DTD SVG 1.1//EN" "http://www.w3.org/Graphics/SVG/1.1/DTD/svg11.dtd">
<svg version="1.1" id="Version_1.0" xmlns="http://www.w3.org/2000/svg" xmlns:xlink="http://www.w3.org/1999/xlink" x="0px"
	 y="0px" width="612px" height="792px" viewBox="0 0 612 792" enable-background="new 0 0 612 792" xml:space="preserve">
<g id="main">
	<path fill="none" stroke="#000000" stroke-width="5" stroke-miterlimit="10" d="M304.826,206.744l0.219,176.624l-0.229,1.051
		c0,39.332-31.884,71.217-71.217,71.217c-39.331,0-71.216-31.885-71.216-71.217l0.097-2.054l-0.22-176.624 M305.044,207.407
		l0.219,176.624l-0.097,2.054c0,39.332,31.885,71.217,71.216,71.217c39.333,0,71.217-31.885,71.217-71.217l0.229-1.051
		L447.61,208.41"/>
</g>
<g id="template" display="none">
	<g display="inline">
		
			<line fill="none" stroke="#000000" stroke-width="5" stroke-miterlimit="10" x1="321.924" y1="427.795" x2="380.047" y2="513.128"/>
		<polygon points="335,427.879 303.113,400.411 316.994,440.145 		"/>
	</g>
	<text transform="matrix(1 0 0 1 341.167 532.167)" display="inline" font-family="sans-serif" font-size="24">ANCHOR </text>
	<text transform="matrix(1 0 0 1 341.167 560.9668)" display="inline" font-family="sans-serif" font-size="24">POINT</text>
</g>
</svg>
