<?xml version="1.0" encoding="utf-8"?>
<!-- Generator: Adobe Illustrator 16.0.0, SVG Export Plug-In . SVG Version: 6.00 Build 0)  -->
<!DOCTYPE svg PUBLIC "-//W3C//DTD SVG 1.1//EN" "http://www.w3.org/Graphics/SVG/1.1/DTD/svg11.dtd">
<svg version="1.1" id="Version_1.0" xmlns="http://www.w3.org/2000/svg" xmlns:xlink="http://www.w3.org/1999/xlink" x="0px"
	 y="0px" width="612px" height="792px" viewBox="0 0 612 792" enable-background="new 0 0 612 792" xml:space="preserve">
<g id="main">
	<path d="M467.75,325.324l-162.331,71.252L146.25,325.324H467.75z M198.345,134.949v-6.186h210.034v6.186H198.345z M302.535,325.923
		V128.764h7.441v197.159H302.535z"/>
	<text transform="matrix(1 0 0 1 325.25 263.001)" font-family="sans-serif" font-size="120">T</text>
	<text transform="matrix(1 0 0 1 213.2505 263.001)" font-family="sans-serif" font-size="120">T</text>
</g>
<g id="template" transform="translate(-360 -290) scale(2.5 2.5)" display="none">
	<line display="inline" fill="none" stroke="#000000" stroke-width="2" x1="266.1" y1="284.305" x2="266.1" y2="302.305"/>
	<line display="inline" fill="none" stroke="#000000" stroke-width="2" x1="265.15" y1="302.305" x2="291.1" y2="302.305"/>
	<polygon display="inline" stroke="#000000" stroke-width="2" points="266.1,277.305 274.1,290.305 258.1,290.305 	"/>
	<g id="ANCHOR_x25_20POINT" transform="matrix(1 0 0 1 77 -110)" display="inline">
		<text transform="matrix(0.4 0 0 0.4 214.1 408.3051)" font-family="sans-serif" font-size="30">ANCHOR</text>
		<text transform="matrix(0.4 0 0 0.4 220.1 420.3051)" font-family="sans-serif" font-size="30">POINT</text>
	</g>
</g>
</svg>
