<?xml version="1.0" encoding="utf-8"?>
<!-- Generator: Adobe Illustrator 16.0.0, SVG Export Plug-In . SVG Version: 6.00 Build 0)  -->
<!DOCTYPE svg PUBLIC "-//W3C//DTD SVG 1.1//EN" "http://www.w3.org/Graphics/SVG/1.1/DTD/svg11.dtd">
<svg version="1.1" id="Version_1.0" xmlns="http://www.w3.org/2000/svg" xmlns:xlink="http://www.w3.org/1999/xlink" x="0px"
	 y="0px" width="612px" height="792px" viewBox="0 0 612 792" enable-background="new 0 0 612 792" xml:space="preserve">
<g id="main">
	
		<line fill="none" stroke="#000000" stroke-width="6.3495" stroke-linecap="square" stroke-miterlimit="10" x1="213.833" y1="485.045" x2="395.191" y2="307.257"/>
	
		<line fill="none" stroke="#000000" stroke-width="6.3495" stroke-linecap="square" stroke-miterlimit="10" x1="395.191" y1="485.045" x2="213.833" y2="307.257"/>
	
		<line fill="none" stroke="#000000" stroke-width="6.3495" stroke-linecap="square" stroke-miterlimit="10" x1="213.833" y1="485.045" x2="395.191" y2="307.257"/>
	
		<line fill="none" stroke="#000000" stroke-width="6.3495" stroke-linecap="square" stroke-miterlimit="10" x1="395.191" y1="485.045" x2="213.833" y2="307.257"/>
	<polygon points="305.285,396.151 257.558,440.598 349.829,440.598 	"/>
	<polygon points="305.285,396.151 257.558,351.705 349.829,351.705 	"/>
	<text transform="matrix(1.0022 0 0 1 204.2896 421.543)" font-family="sans-serif" font-size="69.8444">S</text>
	<text transform="matrix(1.0022 0 0 1 353.8721 421.543)" font-family="sans-serif" font-size="69.8444">A</text>
</g>
<g id="template" display="none">
	<text transform="matrix(1 0 0 1 431.1309 421.3301)" display="inline" font-family="sans-serif" font-size="24.5599">P</text>
	<text transform="matrix(1 0 0 1 447.5117 421.3301)" display="inline" font-family="sans-serif" font-size="24.5599">O</text>
	<text transform="matrix(1 0 0 1 466.5176 421.3301)" display="inline" font-family="sans-serif" font-size="24.5599">I</text>
	<text transform="matrix(1 0 0 1 473.3906 421.3301)" display="inline" font-family="sans-serif" font-size="24.5599">N</text>
	<text transform="matrix(1 0 0 1 491.0781 421.3301)" display="inline" font-family="sans-serif" font-size="24.5599">T</text>
	<text transform="matrix(1 0 0 1 431.1309 391.8442)" display="inline" font-family="sans-serif" font-size="24.5599">C</text>
	<text transform="matrix(1 0 0 1 448.8184 391.8442)" display="inline" font-family="sans-serif" font-size="24.5599">E</text>
	<text transform="matrix(1 0 0 1 465.1992 391.8442)" display="inline" font-family="sans-serif" font-size="24.5599">N</text>
	<text transform="matrix(1 0 0 1 482.8867 391.8442)" display="inline" font-family="sans-serif" font-size="24.5599">T</text>
	<text transform="matrix(1 0 0 1 497.9375 391.8442)" display="inline" font-family="sans-serif" font-size="24.5599">E</text>
	<text transform="matrix(1 0 0 1 514.3184 391.8442)" display="inline" font-family="sans-serif" font-size="24.5599">R</text>
	<text transform="matrix(1 0 0 1 532.0059 391.8442)" display="inline" font-family="sans-serif" font-size="24.5599"> </text>
	<path display="inline" stroke="#000000" stroke-width="0.3275" stroke-linejoin="bevel" stroke-miterlimit="10" d="
		M431.021,397.371l-111.871,0.123l-0.02-2.743l111.891-0.125V397.371L431.021,397.371z M321.874,404.309l-16.374-8.167l16.352-8.207
		L321.874,404.309L321.874,404.309z"/>
</g>
</svg>
