<?xml version="1.0" encoding="utf-8"?>
<!-- Generator: Adobe Illustrator 16.0.0, SVG Export Plug-In . SVG Version: 6.00 Build 0)  -->
<!DOCTYPE svg PUBLIC "-//W3C//DTD SVG 1.1//EN" "http://www.w3.org/Graphics/SVG/1.1/DTD/svg11.dtd">
<svg version="1.1" id="Version_1.0" xmlns="http://www.w3.org/2000/svg" xmlns:xlink="http://www.w3.org/1999/xlink" x="0px"
	 y="0px" width="400px" height="400px" viewBox="0 0 400 400" enable-background="new 0 0 400 400" xml:space="preserve">
<g id="main">
	<g>
		
			<line fill="none" stroke="#000000" stroke-width="5" stroke-linejoin="round" stroke-miterlimit="10" x1="258.922" y1="224.336" x2="319.817" y2="168.142"/>
		
			<line fill="none" stroke="#000000" stroke-width="5" stroke-linejoin="round" stroke-miterlimit="10" x1="137.198" y1="224.336" x2="198.024" y2="168.142"/>
		
			<line fill="none" stroke="#000000" stroke-width="5" stroke-linejoin="round" stroke-miterlimit="10" x1="15.406" y1="224.336" x2="76.302" y2="168.142"/>
		
			<line fill="none" stroke="#000000" stroke-width="5" stroke-linejoin="round" stroke-miterlimit="10" x1="137.198" y1="224.336" x2="76.302" y2="168.142"/>
		
			<line fill="none" stroke="#000000" stroke-width="5" stroke-linejoin="round" stroke-miterlimit="10" x1="380.644" y1="224.336" x2="319.817" y2="168.142"/>
		
			<line fill="none" stroke="#000000" stroke-width="5" stroke-linejoin="round" stroke-miterlimit="10" x1="258.922" y1="224.336" x2="198.024" y2="168.142"/>
	</g>
	
		<line fill="none" stroke="#000000" stroke-width="5" stroke-linejoin="round" stroke-miterlimit="10" x1="198.024" y1="168.142" x2="198.024" y2="147.154"/>
	<polygon stroke="#000000" stroke-width="5" stroke-linejoin="round" stroke-miterlimit="10" points="44.25,166.295 56.566,186.827 
		39.434,201.221 16.858,175.913 16.335,135.045 44.25,135.045 	"/>
	<polygon stroke="#000000" stroke-width="5" stroke-linejoin="round" stroke-miterlimit="10" points="374.27,135.045 
		371.896,178.699 350.022,197.546 334.946,182.119 346.352,171.372 346.352,135.045 	"/>
	<polygon stroke="#000000" stroke-width="5" stroke-linejoin="round" stroke-miterlimit="10" points="246.279,95.813 
		246.279,125.902 221.784,147.154 173.144,147.154 148.58,125.902 148.58,95.813 173.144,74.5 221.784,74.5 	"/>
</g>
<g id="template" display="none">
	<path display="inline" stroke="#000000" stroke-width="0.281" stroke-linejoin="bevel" stroke-miterlimit="10" d="M196.269,280.531
		v-35.122c0-0.632,0.562-1.124,1.193-1.124c0.632,0,1.195,0.492,1.195,1.124v35.122c0,0.701-0.563,1.193-1.195,1.193
		C196.831,281.725,196.269,281.232,196.269,280.531L196.269,280.531z M190.438,247.8l7.024-23.464l7.024,23.464H190.438z"/>
	<text transform="matrix(1 0 0 1 133.8628 309.8887)" display="inline" font-family="sans-serif" font-size="28.1767">C</text>
	<text transform="matrix(1 0 0 1 154.2109 309.8887)" display="inline" font-family="sans-serif" font-size="28.1767">E</text>
	<text transform="matrix(1 0 0 1 172.8916 309.8887)" display="inline" font-family="sans-serif" font-size="28.1767">N</text>
	<text transform="matrix(1 0 0 1 193.2397 309.8887)" display="inline" font-family="sans-serif" font-size="28.1767">T</text>
	<text transform="matrix(1 0 0 1 210.874 309.8887)" display="inline" font-family="sans-serif" font-size="28.1767">E</text>
	<text transform="matrix(1 0 0 1 229.5547 309.8887)" display="inline" font-family="sans-serif" font-size="28.1767">R</text>
	<text transform="matrix(1 0 0 1 133.8628 343.7012)" display="inline" font-family="sans-serif" font-size="28.1767">POINT </text>
</g>
</svg>
