<?xml version="1.0" encoding="utf-8"?>
<!-- Generator: Adobe Illustrator 16.0.0, SVG Export Plug-In . SVG Version: 6.00 Build 0)  -->
<!DOCTYPE svg PUBLIC "-//W3C//DTD SVG 1.1//EN" "http://www.w3.org/Graphics/SVG/1.1/DTD/svg11.dtd">
<svg version="1.1" id="Version_1.0" xmlns="http://www.w3.org/2000/svg" xmlns:xlink="http://www.w3.org/1999/xlink" x="0px"
	 y="0px" width="612px" height="792px" viewBox="0 0 612 792" enable-background="new 0 0 612 792" xml:space="preserve">
<g>
	<path d="M393.371,396.27c0,24.75-8.389,45.528-25.17,62.358c-16.782,16.806-37.523,25.218-62.202,25.218
		c-24.444,0-45.126-8.473-62.028-25.404c-16.902-16.949-25.35-37.668-25.35-62.172c0-24.738,8.388-45.576,25.17-62.52
		c16.782-16.932,37.524-25.404,62.202-25.404c24.444,0,45.126,8.532,62.028,25.596C384.923,351.006,393.371,371.777,393.371,396.27z
		 M386.621,396.27c0-22.854-7.746-42.096-23.214-57.726c-15.479-15.63-34.62-23.448-57.408-23.448s-41.928,7.818-57.408,23.448
		c-15.468,15.63-23.214,34.878-23.214,57.726c0,22.62,7.806,41.742,23.388,57.378c15.612,15.63,34.686,23.448,57.234,23.448
		s41.628-7.818,57.222-23.448S386.621,418.89,386.621,396.27z M325.871,144.096v106.62l-24.096-30.234l0.366,87.516l7.23,0.354
		V242.79l24.443,27.726v-126.42H325.871z"/>
	<text transform="matrix(1.1335 0 0 1 285.7461 412.3828)" font-family="sans-serif" font-size="60">E</text>
</g>
<g id="template" display="none">
	<g id="varH" display="inline">
		<rect x="356.316" y="269.596" fill="#FFFFFF" stroke="#000000" stroke-width="1.8941" width="50.807" height="50.798"/>
		<text transform="matrix(1.1335 0 0 1 363.6494 309.3789)" font-family="sans-serif" font-size="42">H</text>
	</g>
	<g id="points" display="inline">
		<g transform="translate(-90 -35)">
			<text transform="matrix(1 0 0 1 251.623 304.5)" font-family="sans-serif" font-size="24">CENTER</text>
			<text transform="matrix(1 0 0 1 251.623 304.5)" fill="none" stroke="#000000" font-family="sans-serif" font-size="24">CENTER</text>
			<text transform="matrix(1 0 0 1 262.623 329.5)" font-family="sans-serif" font-size="24">POINT</text>
			<text transform="matrix(1 0 0 1 262.623 329.5)" fill="none" stroke="#000000" font-family="sans-serif" font-size="24">POINT</text>
		</g>
		<g>
			<line fill="none" stroke="#000000" stroke-width="3" x1="212.623" y1="303.5" x2="302.623" y2="393.5"/>
			<polygon stroke="#000000" stroke-width="2" points="305.623,396.5 293.623,392.5 301.623,384.5 			"/>
		</g>
	</g>
</g>
<g id="example" display="none">
	<text id="varHe" transform="matrix(1.1335 0 0 1 363.6494 309.3789)" display="inline" font-family="sans-serif" font-size="42">HOT</text>
</g>
</svg>
