<?xml version="1.0" encoding="utf-8"?>
<!-- Generator: Adobe Illustrator 16.0.0, SVG Export Plug-In . SVG Version: 6.00 Build 0)  -->
<!DOCTYPE svg PUBLIC "-//W3C//DTD SVG 1.1//EN" "http://www.w3.org/Graphics/SVG/1.1/DTD/svg11.dtd">
<svg version="1.1" id="Version_1.0" xmlns="http://www.w3.org/2000/svg" xmlns:xlink="http://www.w3.org/1999/xlink" x="0px"
	 y="0px" width="400px" height="400px" viewBox="0 0 400 400" enable-background="new 0 0 400 400" xml:space="preserve">
<g id="main">
	<line fill="none" stroke="#000000" stroke-width="10" stroke-dasharray="35,25" x1="4" y1="99" x2="270.5" y2="99"/>
	<line fill="none" stroke="#000000" stroke-width="10" x1="4" y1="299" x2="270.5" y2="299"/>
	<ellipse stroke="#000000" cx="136.5" cy="195.5" rx="55" ry="55"/>
</g>
<g id="template" display="none">
	<g id="varW1" display="inline">
		
			<rect x="322.495" y="110.69" fill="none" stroke="#000000" stroke-width="1.721" stroke-linecap="round" stroke-miterlimit="8" width="65.005" height="50.011"/>
		<text transform="matrix(1 0 0 1 333.8525 145.5508)" font-family="sans-serif" font-size="27.8344">W1</text>
	</g>
	<g id="varW" display="inline">
		<text transform="matrix(1 0 0 1 296.7246 145.7617)" font-family="sans-serif" font-size="39.2364">-</text>
		
			<rect x="229.5" y="110.69" fill="none" stroke="#000000" stroke-width="1.6116" stroke-linecap="round" stroke-miterlimit="8" width="57" height="50.011"/>
		<text transform="matrix(1 0 0 1 245.5176 145.5508)" font-family="sans-serif" font-size="27.8344">W</text>
	</g>
	<g id="varT" display="inline">
		
			<rect x="270.755" y="172.864" fill="none" stroke="#000000" stroke-width="1.7378" stroke-linecap="round" stroke-miterlimit="8" width="65.005" height="54.271"/>
		<text transform="matrix(1 0 0 1 291.1904 214.332)" font-family="sans-serif" font-size="36">T</text>
	</g>
	<g id="points" display="inline">
		<g>
			<g>
				<line fill="none" stroke="#FFFFFF" stroke-width="5" x1="136.5" y1="263.5" x2="136.5" y2="217.5"/>
				<polygon fill="#FFFFFF" points="149.003,221.146 136.539,199.558 124.074,221.146 				"/>
			</g>
		</g>
		<line fill="none" stroke="#000000" stroke-width="5" x1="136.5" y1="250.5" x2="136.5" y2="328.5"/>
		<text transform="matrix(1 0 0 1 87.1641 350.5)" font-family="sans-serif" font-size="24">CENTER</text>
		<text transform="matrix(1 0 0 1 99.832 379.2998)" font-family="sans-serif" font-size="24">POINT</text>
	</g>
</g>
<g id="example" display="none">
	<text id="varTe" transform="matrix(1 0 0 1 291.1904 214.332)" display="inline" font-family="sans-serif" font-size="36"> </text>
	<text transform="matrix(1 0 0 1 205.5176 138.5508)" display="inline" font-family="sans-serif" font-size="24">020300ZMAY08 -</text>
	<text transform="matrix(1 0 0 1 205.5176 167.3506)" display="inline" font-family="sans-serif" font-size="24">090500ZMAY08 </text>
</g>
</svg>
