<?xml version="1.0" encoding="utf-8"?>
<!-- Generator: Adobe Illustrator 16.0.0, SVG Export Plug-In . SVG Version: 6.00 Build 0)  -->
<!DOCTYPE svg PUBLIC "-//W3C//DTD SVG 1.1//EN" "http://www.w3.org/Graphics/SVG/1.1/DTD/svg11.dtd">
<svg version="1.1" id="Version_1.0" xmlns="http://www.w3.org/2000/svg" xmlns:xlink="http://www.w3.org/1999/xlink" x="0px"
	 y="0px" width="400px" height="400px" viewBox="0 0 400 400" enable-background="new 0 0 400 400" xml:space="preserve">
<g id="main">
	<line fill="none" stroke="#000000" stroke-width="5" x1="18.5" y1="172.5" x2="379.292" y2="172.5"/>
	<line fill="none" stroke="#000000" stroke-width="5" x1="337.5" y1="170.5" x2="337.5" y2="236.5"/>
	<line fill="none" stroke="#000000" stroke-width="5" x1="266.5" y1="170.5" x2="266.5" y2="236.5"/>
	<line fill="none" stroke="#000000" stroke-width="5" x1="73.5" y1="87.763" x2="73.5" y2="172.5"/>
	<line fill="none" stroke="#000000" stroke-width="5" x1="18.5" y1="170.5" x2="18.5" y2="236.5"/>
	<rect x="73.5" y="130.132" stroke="#000000" stroke-width="5" width="65" height="42.368"/>
</g>
<g id="template" display="none">
	<text transform="matrix(1 0 0 1 132.1152 327.7666)" display="inline" font-family="sans-serif" font-size="28.2962">C</text>
	<text transform="matrix(1 0 0 1 152.5503 327.7666)" display="inline" font-family="sans-serif" font-size="28.2962">E</text>
	<text transform="matrix(1 0 0 1 171.3101 327.7666)" display="inline" font-family="sans-serif" font-size="28.2962">N</text>
	<text transform="matrix(1 0 0 1 191.7441 327.7666)" display="inline" font-family="sans-serif" font-size="28.2962">T</text>
	<text transform="matrix(1 0 0 1 209.4531 327.7666)" display="inline" font-family="sans-serif" font-size="28.2962">E</text>
	<text transform="matrix(1 0 0 1 228.2148 327.7666)" display="inline" font-family="sans-serif" font-size="28.2962">R</text>
	<text transform="matrix(1 0 0 1 132.1152 361.7217)" display="inline" font-family="sans-serif" font-size="28.2962">POINT </text>
	<g display="inline">
		<g>
			<line fill="none" stroke="#000000" stroke-width="5" x1="197.731" y1="298.5" x2="197.731" y2="251.5"/>
			<polygon points="210.234,255.146 197.771,233.559 185.306,255.146 			"/>
		</g>
	</g>
</g>
</svg>
