<?xml version="1.0" encoding="utf-8"?>
<!-- Generator: Adobe Illustrator 16.0.0, SVG Export Plug-In . SVG Version: 6.00 Build 0)  -->
<!DOCTYPE svg PUBLIC "-//W3C//DTD SVG 1.1//EN" "http://www.w3.org/Graphics/SVG/1.1/DTD/svg11.dtd">
<svg version="1.1" id="Version_1.0" xmlns="http://www.w3.org/2000/svg" xmlns:xlink="http://www.w3.org/1999/xlink" x="0px"
	 y="0px" width="400px" height="400px" viewBox="0 0 400 400" enable-background="new 0 0 400 400" xml:space="preserve">
<g id="main">
	<text transform="matrix(1 0 0 1 149.5117 369.5)" font-family="sans-serif" font-size="72">RZ</text>
	<g>
		<path fill="none" stroke="#000000" stroke-width="5" stroke-linejoin="round" stroke-miterlimit="10" d="M92.76,187.914
			c-0.886-1.817-1.905-3.568-3.058-5.208c-12.237-17.468-36.488-21.591-54.199-9.2c-8.27,5.786-14.01,14.52-16.005,24.384"/>
		<path fill="none" stroke="#000000" stroke-width="5" stroke-linejoin="round" stroke-miterlimit="10" d="M92.717,187.449
			c0.886,1.817,1.906,3.546,3.058,5.208c12.236,17.47,36.467,21.591,54.155,9.224c5.254-3.682,9.533-8.602,12.458-14.3"/>
		<path fill="none" stroke="#000000" stroke-width="5" stroke-linejoin="round" stroke-miterlimit="10" d="M231.992,188.158
			c-0.887-1.817-1.904-3.568-3.059-5.208c-12.236-17.469-36.511-21.57-54.223-9.177c-5.274,3.702-9.575,8.623-12.523,14.342"/>
		<path fill="none" stroke="#000000" stroke-width="5" stroke-linejoin="round" stroke-miterlimit="10" d="M231.639,187.494
			c0.889,1.817,1.906,3.546,3.061,5.208c12.236,17.469,36.51,21.569,54.242,9.155c5.275-3.681,9.576-8.603,12.504-14.32"/>
		<path fill="none" stroke="#000000" stroke-width="5" stroke-linejoin="round" stroke-miterlimit="10" d="M374.309,199.397
			c-0.888-5.831-3.103-11.349-6.475-16.138c-12.235-17.49-36.464-21.613-54.154-9.244c-5.253,3.679-9.553,8.6-12.457,14.298"/>
	</g>
	<g>
		<path fill="none" stroke="#000000" stroke-width="5" stroke-linejoin="round" stroke-miterlimit="10" d="M92.76,291.214
			c-0.886-1.817-1.905-3.569-3.058-5.21c-12.237-17.469-36.488-21.59-54.199-9.197c-8.27,5.784-14.01,14.52-16.005,24.383"/>
		<path fill="none" stroke="#000000" stroke-width="5" stroke-linejoin="round" stroke-miterlimit="10" d="M92.717,290.749
			c0.886,1.815,1.906,3.545,3.058,5.207c12.236,17.469,36.467,21.594,54.155,9.224c5.254-3.682,9.533-8.6,12.458-14.298"/>
		<path fill="none" stroke="#000000" stroke-width="5" stroke-linejoin="round" stroke-miterlimit="10" d="M231.992,291.456
			c-0.887-1.815-1.904-3.565-3.059-5.206c-12.236-17.469-36.511-21.57-54.223-9.179c-5.274,3.704-9.575,8.624-12.523,14.342"/>
		<path fill="none" stroke="#000000" stroke-width="5" stroke-linejoin="round" stroke-miterlimit="10" d="M231.639,290.793
			c0.889,1.818,1.906,3.547,3.061,5.209c12.236,17.469,36.51,21.568,54.242,9.156c5.275-3.68,9.576-8.602,12.504-14.322"/>
		<path fill="none" stroke="#000000" stroke-width="5" stroke-linejoin="round" stroke-miterlimit="10" d="M374.309,302.695
			c-0.888-5.83-3.103-11.348-6.475-16.137c-12.235-17.488-36.464-21.613-54.154-9.242c-5.253,3.678-9.553,8.599-12.457,14.295"/>
	</g>
	
		<line fill="none" stroke="#000000" stroke-width="5" stroke-linejoin="round" stroke-miterlimit="10" x1="20.119" y1="239.164" x2="378.496" y2="239.164"/>
</g>
<g id="template" display="none">
	<text transform="matrix(1 0 0 1 153.8672 99.8691)" display="inline" font-family="sans-serif" font-size="30">C</text>
	<text transform="matrix(1 0 0 1 175.5322 99.8691)" display="inline" font-family="sans-serif" font-size="30">E</text>
	<text transform="matrix(1 0 0 1 195.4224 99.8691)" display="inline" font-family="sans-serif" font-size="30">N</text>
	<text transform="matrix(1 0 0 1 217.0879 99.8691)" display="inline" font-family="sans-serif" font-size="30">T</text>
	<text transform="matrix(1 0 0 1 235.8623 99.8691)" display="inline" font-family="sans-serif" font-size="30">E</text>
	<text transform="matrix(1 0 0 1 255.752 99.8691)" display="inline" font-family="sans-serif" font-size="30">R</text>
	<text transform="matrix(1 0 0 1 153.8672 135.8691)" display="inline" font-family="sans-serif" font-size="30">POINT </text>
	<path display="inline" stroke="#000000" stroke-width="0.3547" stroke-linejoin="bevel" stroke-miterlimit="10" d="
		M200.405,142.383l0.134,82.018h-2.949l-0.132-82.018H200.405L200.405,142.383z M207.92,221.432l-8.845,17.732l-8.888-17.71
		L207.92,221.432L207.92,221.432z"/>
</g>
</svg>
