<?xml version="1.0" encoding="utf-8"?>
<!-- Generator: Adobe Illustrator 16.0.0, SVG Export Plug-In . SVG Version: 6.00 Build 0)  -->
<!DOCTYPE svg PUBLIC "-//W3C//DTD SVG 1.1//EN" "http://www.w3.org/Graphics/SVG/1.1/DTD/svg11.dtd">
<svg version="1.1" id="Version_1.0" xmlns="http://www.w3.org/2000/svg" xmlns:xlink="http://www.w3.org/1999/xlink" x="0px"
	 y="0px" width="612px" height="792px" viewBox="0 0 612 792" enable-background="new 0 0 612 792" xml:space="preserve">
<g id="main">
	<line fill="none" stroke="#000000" stroke-width="5" x1="204.27" y1="481.807" x2="406.73" y2="310.195"/>
	
		<line fill="none" stroke="#000000" stroke-width="5" stroke-linejoin="bevel" stroke-miterlimit="10" x1="204.27" y1="310.195" x2="406.73" y2="481.807"/>
</g>
<g id="template" display="none">
	<text transform="matrix(1 0 0 1 417.8418 418.9297)" display="inline" font-family="sans-serif" font-size="24.5599">P</text>
	<text transform="matrix(1 0 0 1 434.2227 418.9297)" display="inline" font-family="sans-serif" font-size="24.5599">O</text>
	<text transform="matrix(1 0 0 1 453.2285 418.9297)" display="inline" font-family="sans-serif" font-size="24.5599">I</text>
	<text transform="matrix(1 0 0 1 460.1016 418.9297)" display="inline" font-family="sans-serif" font-size="24.5599">N</text>
	<text transform="matrix(1 0 0 1 477.7891 418.9297)" display="inline" font-family="sans-serif" font-size="24.5599">T</text>
	<text transform="matrix(1 0 0 1 417.8418 389.4448)" display="inline" font-family="sans-serif" font-size="24.5599">C</text>
	<text transform="matrix(1 0 0 1 435.5293 389.4448)" display="inline" font-family="sans-serif" font-size="24.5599">E</text>
	<text transform="matrix(1 0 0 1 451.9102 389.4448)" display="inline" font-family="sans-serif" font-size="24.5599">N</text>
	<text transform="matrix(1 0 0 1 469.5977 389.4448)" display="inline" font-family="sans-serif" font-size="24.5599">T</text>
	<text transform="matrix(1 0 0 1 484.6484 389.4448)" display="inline" font-family="sans-serif" font-size="24.5599">E</text>
	<text transform="matrix(1 0 0 1 501.0293 389.4448)" display="inline" font-family="sans-serif" font-size="24.5599">R</text>
	<text transform="matrix(1 0 0 1 518.7168 389.4448)" display="inline" font-family="sans-serif" font-size="24.5599"> </text>
	<path display="inline" stroke="#000000" stroke-width="0.3275" stroke-linejoin="bevel" stroke-miterlimit="10" d="
		M431.025,397.035l-111.873,0.344l-0.024-2.743l111.89-0.345L431.025,397.035L431.025,397.035z M321.891,404.188l-16.391-8.136
		l16.336-8.239L321.891,404.188L321.891,404.188z"/>
</g>
</svg>
