<?xml version="1.0" encoding="utf-8"?>
<!-- Generator: Adobe Illustrator 16.0.0, SVG Export Plug-In . SVG Version: 6.00 Build 0)  -->
<!DOCTYPE svg PUBLIC "-//W3C//DTD SVG 1.1//EN" "http://www.w3.org/Graphics/SVG/1.1/DTD/svg11.dtd">
<svg version="1.1" id="Version_1.0" xmlns="http://www.w3.org/2000/svg" xmlns:xlink="http://www.w3.org/1999/xlink" x="0px"
	 y="0px" width="612px" height="792px" viewBox="0 0 612 792" enable-background="new 0 0 612 792" xml:space="preserve">
<g id="main">
	<line fill="none" stroke="#000000" stroke-width="10" x1="173.961" y1="295.5" x2="440.461" y2="295.5"/>
	<line fill="none" stroke="#000000" stroke-width="10" x1="173.961" y1="495.5" x2="440.461" y2="495.5"/>
	<ellipse stroke="#000000" cx="306.461" cy="392" rx="55" ry="55"/>
</g>
<g id="template" display="none">
	<g id="varW1" display="inline">
		
			<rect x="492.456" y="307.19" fill="none" stroke="#000000" stroke-width="1.721" stroke-linecap="round" stroke-miterlimit="8" width="65.005" height="50.011"/>
		<text transform="matrix(1 0 0 1 503.8135 342.0508)" font-family="sans-serif" font-size="27.8344">W1</text>
	</g>
	<g id="varW" display="inline">
		<text transform="matrix(1 0 0 1 466.6855 342.2617)" font-family="sans-serif" font-size="39.2364">-</text>
		
			<rect x="399.461" y="307.19" fill="none" stroke="#000000" stroke-width="1.6116" stroke-linecap="round" stroke-miterlimit="8" width="57" height="50.011"/>
		<text transform="matrix(1 0 0 1 415.4785 342.0508)" font-family="sans-serif" font-size="27.8344">W</text>
	</g>
	<g id="varT" display="inline">
		
			<rect x="440.716" y="369.364" fill="none" stroke="#000000" stroke-width="1.7378" stroke-linecap="round" stroke-miterlimit="8" width="65.005" height="54.271"/>
		<text transform="matrix(1 0 0 1 461.1514 410.832)" font-family="sans-serif" font-size="36">T</text>
	</g>
	<g id="points" display="inline">
		<g>
			<g>
				<line fill="none" stroke="#FFFFFF" stroke-width="5" x1="306.461" y1="460" x2="306.461" y2="414"/>
				<polygon fill="#FFFFFF" points="318.964,417.646 306.5,396.058 294.035,417.646 				"/>
			</g>
		</g>
		<line fill="none" stroke="#000000" stroke-width="5" x1="306.461" y1="447" x2="306.461" y2="525"/>
		<text transform="matrix(1 0 0 1 257.125 547)" font-family="sans-serif" font-size="24">CENTER</text>
		<text transform="matrix(1 0 0 1 269.793 575.7998)" font-family="sans-serif" font-size="24">POINT</text>
	</g>
</g>
<g id="example" display="none">
	<text id="varTe" transform="matrix(1 0 0 1 461.1514 410.832)" display="inline" font-family="sans-serif" font-size="36"> </text>
	<text transform="matrix(1 0 0 1 375.4785 335.0508)" display="inline" font-family="sans-serif" font-size="24">020300ZMAY08 -</text>
	<text transform="matrix(1 0 0 1 375.4785 363.8506)" display="inline" font-family="sans-serif" font-size="24">090500ZMAY08 </text>
</g>
</svg>
