<?xml version="1.0" encoding="utf-8"?>
<!-- Generator: Adobe Illustrator 16.0.0, SVG Export Plug-In . SVG Version: 6.00 Build 0)  -->
<!DOCTYPE svg PUBLIC "-//W3C//DTD SVG 1.1//EN" "http://www.w3.org/Graphics/SVG/1.1/DTD/svg11.dtd">
<svg version="1.1" id="Version_1.0" xmlns="http://www.w3.org/2000/svg" xmlns:xlink="http://www.w3.org/1999/xlink" x="0px"
	 y="0px" width="612px" height="792px" viewBox="0 0 612 792" enable-background="new 0 0 612 792" xml:space="preserve">
<g id="main">
	<polygon points="303.851,236.984 238.796,395.5 368.904,395.5 	"/>
	<polygon points="188.197,294.626 123.144,395.5 253.252,395.5 	"/>
	<polygon points="426.73,265.805 354.449,395.5 499.014,395.5 	"/>
</g>
<g id="template" display="none">
	<text transform="matrix(1.0032 0 0 1 252.5322 476.7627)" display="inline" font-family="sans-serif" font-size="24">CENTER</text>
	<text transform="matrix(1.0032 0 0 1 252.5322 505.5625)" display="inline" font-family="sans-serif" font-size="24">POINT</text>
	<path display="inline" stroke="#000000" stroke-width="0.2882" stroke-linejoin="bevel" stroke-miterlimit="10" d="
		M303.271,453.144v-36.027c0-0.648,0.544-1.19,1.229-1.19c0.65,0,1.192,0.542,1.192,1.19v36.025c0,0.685-0.542,1.223-1.192,1.223
		C303.814,454.365,303.271,453.826,303.271,453.144L303.271,453.144z M297.272,419.528L304.5,395.5l7.229,24.028H297.272
		L297.272,419.528z"/>
</g>
</svg>
