<?xml version="1.0" encoding="utf-8"?>
<!-- Generator: Adobe Illustrator 16.0.0, SVG Export Plug-In . SVG Version: 6.00 Build 0)  -->
<!DOCTYPE svg PUBLIC "-//W3C//DTD SVG 1.1//EN" "http://www.w3.org/Graphics/SVG/1.1/DTD/svg11.dtd">
<svg version="1.1" id="Version_1.0" xmlns="http://www.w3.org/2000/svg" xmlns:xlink="http://www.w3.org/1999/xlink" x="0px"
	 y="0px" width="400px" height="400px" viewBox="0 0 400 400" enable-background="new 0 0 400 400" xml:space="preserve">
<g id="main">
	
		<line fill="none" stroke="#000000" stroke-width="5" stroke-linejoin="round" stroke-miterlimit="10" x1="53.262" y1="358.163" x2="347.168" y2="46.037"/>
	<g>
		<polygon fill="#FFFFFF" points="184.379,166.619 184.379,220.322 232.415,220.322 232.415,166.619 		"/>
		<text transform="matrix(1 0 0 1 197.29 200.4717)" font-family="sans-serif" font-size="30.4784">A</text>
	</g>
</g>
<g id="template" display="none">
	<g id="varH" display="inline">
		
			<rect x="309.5" y="99.799" fill="none" stroke="#000000" stroke-width="1.9535" stroke-linecap="round" stroke-miterlimit="8" width="47.003" height="38.491"/>
		<text transform="matrix(1 0 0 1 320.8379 129.9473)" font-family="sans-serif" font-size="30.4784">H</text>
	</g>
	<g id="points" display="inline">
		<text transform="matrix(1 0 0 1 188.394 56.8408)" font-family="sans-serif" font-size="28">PT 2</text>
		<text transform="matrix(1 0 0 1 137.3325 368.4512)" font-family="sans-serif" font-size="28">PT 1</text>
		<g>
			<line fill="none" stroke="#000000" stroke-width="5" x1="257.146" y1="47.575" x2="312.5" y2="47.575"/>
			<polygon points="308.853,60.078 330.441,47.614 308.853,35.149 			"/>
		</g>
		<g>
			<line fill="none" stroke="#000000" stroke-width="5" x1="135.5" y1="358.232" x2="80.146" y2="358.232"/>
			<polygon points="83.794,345.729 62.205,358.193 83.794,370.658 			"/>
		</g>
	</g>
</g>
<g id="example" display="none">
	<text id="varHe" transform="matrix(1 0 0 1 292.8379 129.9473)" display="inline" font-family="sans-serif" font-size="30.4784">L3-ACT</text>
</g>
</svg>
