<?xml version="1.0" encoding="utf-8"?>
<!-- Generator: Adobe Illustrator 16.0.0, SVG Export Plug-In . SVG Version: 6.00 Build 0)  -->
<!DOCTYPE svg PUBLIC "-//W3C//DTD SVG 1.1//EN" "http://www.w3.org/Graphics/SVG/1.1/DTD/svg11.dtd">
<svg version="1.1" id="Version_1.0" xmlns="http://www.w3.org/2000/svg" xmlns:xlink="http://www.w3.org/1999/xlink" x="0px"
	 y="0px" width="400px" height="400px" viewBox="0 0 400 400" enable-background="new 0 0 400 400" xml:space="preserve">
<g id="main">
	<polyline fill="none" stroke="#000000" stroke-width="5" stroke-dasharray="25,15" points="33,226 211.59,94.926 365.79,226 	"/>
</g>
<g id="template" transform="translate(-275 -290) scale(2 2)" display="none">
	<text transform="matrix(0.5 0 0 0.5 227 235)" display="inline" font-family="sans-serif" font-size="24">PT 1</text>
	<line display="inline" fill="none" stroke="#000000" stroke-width="2" x1="243.667" y1="221.778" x2="243.667" y2="204.778"/>
	<line display="inline" fill="none" stroke="#000000" stroke-width="2" x1="153.932" y1="284.987" x2="154.111" y2="267.944"/>
	<line display="inline" fill="none" stroke="#000000" stroke-width="2" x1="320.888" y1="282.209" x2="320.778" y2="269.722"/>
	<polygon display="inline" stroke="#000000" stroke-width="2" points="154.143,260.286 156.143,267.286 152.143,267.286 	"/>
	<polygon display="inline" stroke="#000000" stroke-width="2" points="243.444,197.777 246.444,204.778 240.444,204.778 	"/>
	<polygon display="inline" stroke="#000000" stroke-width="2" points="320.667,262.056 322.667,269.056 318.667,269.056 	"/>
	<text transform="matrix(0.5 0 0 0.5 145 296.5176)" display="inline" font-family="sans-serif" font-size="24">PT 2</text>
	<text transform="matrix(0.5 0 0 0.5 303 293.6289)" display="inline" font-family="sans-serif" font-size="24">PT 3</text>
</g>
<g display="none">
	
		<polygon display="inline" fill-rule="evenodd" clip-rule="evenodd" fill="#FFFFFF" stroke="#BFBFBF" stroke-width="5" stroke-miterlimit="10" points="
		33.286,229.587 365.79,229.587 365.79,387.488 33.286,387.488 33.286,229.587 	"/>
	<path display="inline" fill-rule="evenodd" clip-rule="evenodd" fill="#BFBFBF" d="M96.679,280.027
		c-17.506,0-31.696,12.764-31.696,28.512c0,15.743,14.19,28.508,31.696,28.508s31.696-12.765,31.696-28.508
		C128.375,292.791,114.185,280.027,96.679,280.027L96.679,280.027z"/>
	<path display="inline" fill-rule="evenodd" clip-rule="evenodd" fill="#BFBFBF" d="M199.539,280.027
		c-17.381,0-31.471,12.764-31.471,28.512c0,15.743,14.089,28.508,31.471,28.508c17.378,0,31.469-12.765,31.469-28.508
		C231.008,292.791,216.917,280.027,199.539,280.027L199.539,280.027z"/>
	<path display="inline" fill-rule="evenodd" clip-rule="evenodd" fill="#BFBFBF" d="M302.398,280.027
		c-17.509,0-31.697,12.764-31.697,28.512c0,15.743,14.188,28.508,31.697,28.508c17.506,0,31.693-12.765,31.693-28.508
		C334.092,292.791,319.904,280.027,302.398,280.027L302.398,280.027z"/>
</g>
</svg>
