<?xml version="1.0" encoding="utf-8"?>
<!-- Generator: Adobe Illustrator 16.0.0, SVG Export Plug-In . SVG Version: 6.00 Build 0)  -->
<!DOCTYPE svg PUBLIC "-//W3C//DTD SVG 1.1//EN" "http://www.w3.org/Graphics/SVG/1.1/DTD/svg11.dtd">
<svg version="1.1" id="Version_1.0" xmlns="http://www.w3.org/2000/svg" xmlns:xlink="http://www.w3.org/1999/xlink" x="0px"
	 y="0px" width="400px" height="400px" viewBox="0 0 400 400" enable-background="new 0 0 400 400" xml:space="preserve">
<g id="main">
	<polyline fill="none" stroke="#000000" stroke-width="5" stroke-dasharray="25,15" points="33,226 211.59,94.926 365.79,226 	"/>
</g>
<g id="template" display="none">
	<g id="varA" display="inline">
		
			<rect x="149.527" y="222.919" fill="none" stroke="#000000" stroke-width="4.8051" stroke-linecap="round" stroke-miterlimit="8" width="115.614" height="94.679"/>
		<text transform="matrix(1 0 0 1 180.395 296.293)" font-family="sans-serif" font-size="72">A</text>
	</g>
	<g id="points" display="inline">
		<g transform="translate(-275 -290) scale(2 2)">
			<text transform="matrix(0.5 0 0 0.5 227 235)" font-family="sans-serif" font-size="24">PT 1</text>
			<line fill="none" stroke="#000000" stroke-width="2" x1="243.667" y1="221.778" x2="243.667" y2="204.778"/>
			<line fill="none" stroke="#000000" stroke-width="2" x1="153.932" y1="284.987" x2="154.111" y2="267.944"/>
			<line fill="none" stroke="#000000" stroke-width="2" x1="320.888" y1="282.209" x2="320.778" y2="269.722"/>
			<polygon stroke="#000000" stroke-width="2" points="154.143,260.286 156.143,267.286 152.143,267.286 			"/>
			<polygon stroke="#000000" stroke-width="2" points="243.444,197.777 246.444,204.778 240.444,204.778 			"/>
			<polygon stroke="#000000" stroke-width="2" points="320.667,262.056 322.667,269.056 318.667,269.056 			"/>
			<text transform="matrix(0.5 0 0 0.5 145 296.5176)" font-family="sans-serif" font-size="24">PT 2</text>
			<text transform="matrix(0.5 0 0 0.5 303 293.6289)" font-family="sans-serif" font-size="24">PT 3</text>
		</g>
	</g>
</g>
<g id="example" display="none">
	
		<path display="inline" fill="none" stroke="#808080" stroke-width="5" stroke-linecap="round" stroke-linejoin="round" stroke-miterlimit="8" d="
		M209.711,163.201c-50.065,0-90.647,40.487-90.647,90.438c0,49.95,40.582,90.438,90.647,90.438
		c50.068,0,90.649-40.488,90.649-90.438C300.36,203.688,259.779,163.201,209.711,163.201L209.711,163.201z"/>
	
		<line display="inline" fill="none" stroke="#808080" stroke-width="5" stroke-linejoin="round" stroke-miterlimit="8" x1="146.75" y1="298.98" x2="146.75" y2="207.692"/>
	
		<line display="inline" fill="none" stroke="#808080" stroke-width="5" stroke-linejoin="round" stroke-miterlimit="8" x1="272.433" y1="298.98" x2="272.433" y2="207.692"/>
	
		<line display="inline" fill="none" stroke="#808080" stroke-width="5" stroke-linejoin="round" stroke-miterlimit="8" x1="146.75" y1="222.968" x2="269.881" y2="222.968"/>
	
		<line display="inline" fill="none" stroke="#808080" stroke-width="5" stroke-linejoin="round" stroke-miterlimit="8" x1="146.75" y1="283.825" x2="269.881" y2="283.825"/>
</g>
</svg>
