<?xml version="1.0" encoding="utf-8"?>
<!-- Generator: Adobe Illustrator 16.0.0, SVG Export Plug-In . SVG Version: 6.00 Build 0)  -->
<!DOCTYPE svg PUBLIC "-//W3C//DTD SVG 1.1//EN" "http://www.w3.org/Graphics/SVG/1.1/DTD/svg11.dtd">
<svg version="1.1" id="Version_1.0" xmlns="http://www.w3.org/2000/svg" xmlns:xlink="http://www.w3.org/1999/xlink" x="0px"
	 y="0px" width="612px" height="792px" viewBox="0 0 612 792" enable-background="new 0 0 612 792" xml:space="preserve">
<g id="main">
	<polyline fill="none" stroke="#000000" stroke-width="5" stroke-dasharray="25,15" points="136,403 314.59,271.926 468.79,403 	"/>
</g>
<g id="template" display="none">
	<g id="varA" display="inline">
		
			<rect x="252.527" y="399.919" fill="none" stroke="#000000" stroke-width="4.8051" stroke-linecap="round" stroke-miterlimit="8" width="115.614" height="94.679"/>
		<text transform="matrix(1 0 0 1 283.395 473.293)" font-family="sans-serif" font-size="72">A</text>
	</g>
	<g id="points" display="inline">
		<g transform="translate(-275 -290) scale(2 2)">
			<text transform="matrix(0.5 0 0 0.5 278.5 323.5)" font-family="sans-serif" font-size="24">PT 1</text>
			<line fill="none" stroke="#000000" stroke-width="2" x1="295.167" y1="310.278" x2="295.167" y2="293.278"/>
			<line fill="none" stroke="#000000" stroke-width="2" x1="205.432" y1="373.487" x2="205.611" y2="356.444"/>
			<line fill="none" stroke="#000000" stroke-width="2" x1="372.388" y1="370.709" x2="372.278" y2="358.222"/>
			<polygon stroke="#000000" stroke-width="2" points="205.643,348.786 207.643,355.786 203.643,355.786 			"/>
			<polygon stroke="#000000" stroke-width="2" points="294.944,286.277 297.944,293.278 291.944,293.278 			"/>
			<polygon stroke="#000000" stroke-width="2" points="372.167,350.556 374.167,357.556 370.167,357.556 			"/>
			<text transform="matrix(0.5 0 0 0.5 196.5 385.0176)" font-family="sans-serif" font-size="24">PT 2</text>
			<text transform="matrix(0.5 0 0 0.5 354.5 382.1289)" font-family="sans-serif" font-size="24">PT 3</text>
		</g>
	</g>
</g>
<g id="example" display="none">
	
		<path display="inline" fill="none" stroke="#808080" stroke-width="5" stroke-linecap="round" stroke-linejoin="round" stroke-miterlimit="8" d="
		M312.711,340.201c-50.065,0-90.647,40.487-90.647,90.438c0,49.95,40.582,90.438,90.647,90.438
		c50.068,0,90.648-40.488,90.648-90.438C403.359,380.688,362.779,340.201,312.711,340.201L312.711,340.201z"/>
	
		<line display="inline" fill="none" stroke="#808080" stroke-width="5" stroke-linejoin="round" stroke-miterlimit="8" x1="249.75" y1="475.98" x2="249.75" y2="384.692"/>
	
		<line display="inline" fill="none" stroke="#808080" stroke-width="5" stroke-linejoin="round" stroke-miterlimit="8" x1="375.434" y1="475.98" x2="375.434" y2="384.692"/>
	
		<line display="inline" fill="none" stroke="#808080" stroke-width="5" stroke-linejoin="round" stroke-miterlimit="8" x1="249.75" y1="399.968" x2="372.881" y2="399.968"/>
	
		<line display="inline" fill="none" stroke="#808080" stroke-width="5" stroke-linejoin="round" stroke-miterlimit="8" x1="249.75" y1="460.825" x2="372.881" y2="460.825"/>
</g>
</svg>
