<?xml version="1.0" encoding="utf-8"?>
<!-- Generator: Adobe Illustrator 16.0.0, SVG Export Plug-In . SVG Version: 6.00 Build 0)  -->
<!DOCTYPE svg PUBLIC "-//W3C//DTD SVG 1.1//EN" "http://www.w3.org/Graphics/SVG/1.1/DTD/svg11.dtd">
<svg version="1.1" id="Version_1.0" xmlns="http://www.w3.org/2000/svg" xmlns:xlink="http://www.w3.org/1999/xlink" x="0px"
	 y="0px" width="612px" height="792px" viewBox="0 0 612 792" enable-background="new 0 0 612 792" xml:space="preserve">
<g id="main">
	
		<line fill="none" stroke="#000000" stroke-width="5" stroke-linejoin="round" stroke-miterlimit="10" x1="305.49" y1="289.209" x2="305.49" y2="503.669"/>
	
		<line fill="none" stroke="#000000" stroke-width="5" stroke-linejoin="round" stroke-miterlimit="10" x1="412.541" y1="396.426" x2="198.247" y2="396.426"/>
	<g>
		<polygon fill="#FFFFFF" points="283.916,373.44 283.916,419.439 326.848,419.439 326.848,373.44 		"/>
		<path d="M305.382,387.729c-4.729,0-8.587,3.914-8.587,8.696c0,4.808,3.858,8.692,8.587,8.692c4.755,0,8.612-3.885,8.612-8.692
			C313.995,391.643,310.137,387.729,305.382,387.729"/>
		
			<path fill="none" stroke="#000000" stroke-width="2.7171" stroke-linecap="round" stroke-linejoin="round" stroke-miterlimit="10" d="
			M305.382,387.729c-4.729,0-8.587,3.914-8.587,8.696c0,4.808,3.858,8.692,8.587,8.692c4.755,0,8.612-3.885,8.612-8.692
			C313.995,391.643,310.137,387.729,305.382,387.729"/>
	</g>
</g>
<g id="template" display="none">
	<g id="varAP" display="inline">
		
			<rect x="344.559" y="316.923" fill="none" stroke="#000000" stroke-width="2.7171" stroke-linecap="round" stroke-miterlimit="8" width="75.941" height="56.517"/>
		<text transform="matrix(1 0 0 1 358.2344 359.127)" font-family="sans-serif" font-size="36.0826">AP</text>
	</g>
	<g id="points" display="inline">
		<path stroke="#000000" stroke-width="0.3938" stroke-linejoin="bevel" stroke-miterlimit="10" d="M227.035,338.278l38.498,29.047
			c0.736,0.542,0.886,1.574,0.318,2.289c-0.542,0.74-1.575,0.887-2.289,0.342l-38.522-29.07c-0.714-0.538-0.861-1.573-0.319-2.289
			C225.262,337.862,226.296,337.713,227.035,338.278L227.035,338.278z M267.87,358.81l20.258,27.614l-32.123-11.909L267.87,358.81z"
			/>
		<text transform="matrix(1 0 0 1 159.8281 338.3936)" font-family="sans-serif" font-size="29.1269">P</text>
		<text transform="matrix(1 0 0 1 179.3721 338.3936)" font-family="sans-serif" font-size="29.1269">T</text>
		<text transform="matrix(1 0 0 1 196.7852 338.3936)" font-family="sans-serif" font-size="29.1269"> </text>
		<text transform="matrix(1 0 0 1 205.0229 338.3936)" font-family="sans-serif" font-size="29.1269">1</text>
		<text transform="matrix(1 0 0 1 221.1353 338.3936)" font-family="sans-serif" font-size="29.1269"> </text>
		<text transform="matrix(1 0 0 1 229.373 338.3936)" font-family="sans-serif" font-size="29.1269"> </text>
		<text transform="matrix(1 0 0 1 237.2031 338.3936)" font-family="sans-serif" font-size="29.1269"> </text>
	</g>
</g>
<g id="example" display="none">
	<text id="varAPe" transform="matrix(1 0 0 1 344.2344 360.127)" display="inline" font-family="sans-serif" font-size="36.0826">AA0777</text>
</g>
</svg>
