<?xml version="1.0" encoding="utf-8"?>
<!-- Generator: Adobe Illustrator 16.0.0, SVG Export Plug-In . SVG Version: 6.00 Build 0)  -->
<!DOCTYPE svg PUBLIC "-//W3C//DTD SVG 1.1//EN" "http://www.w3.org/Graphics/SVG/1.1/DTD/svg11.dtd">
<svg version="1.1" id="Version_1.0" xmlns="http://www.w3.org/2000/svg" xmlns:xlink="http://www.w3.org/1999/xlink" x="0px"
	 y="0px" width="400px" height="400px" viewBox="0 0 400 400" enable-background="new 0 0 400 400" xml:space="preserve">
<g id="main">
	
		<rect x="19.126" y="85.696" fill="none" stroke="#000000" stroke-width="3.8817" stroke-linecap="round" stroke-miterlimit="8" width="328.646" height="238.085"/>
	<text transform="matrix(1 0 0 1 66.5493 113.8018)" font-family="sans-serif" font-size="19.5639">ACA</text>
	<text transform="matrix(1 0 0 1 66.5195 265.3311)" font-family="sans-serif" font-size="19.5639">EFF:</text>
	<text transform="matrix(1 0 0 1 66.5195 238.0166)" font-family="sans-serif" font-size="19.5639">Grids</text>
	<text transform="matrix(1 0 0 1 66.5195 207.2666)" font-family="sans-serif" font-size="19.5639">MAX ALT:</text>
	<text transform="matrix(1 0 0 1 66.5195 181.1865)" font-family="sans-serif" font-size="19.5639">MIN ALT:</text>
</g>
<g id="template" display="none">
	
		<g id="varAM" transform="matrix(6.12303e-017 1 -1 6.12303e-017 405 -5) translate(240 175) scale(0.742857 0.742857) translate(-240 -175) translate(-83.4615 -235.577) translate(240 175) scale(0.834615 0.834615) translate(-240 -175) translate(240 175) scale(0.806452 0.806452) translate(-240 -175) translate(0 2) translate(0 2) translate(0 2) translate(0 2) translate(0 2) translate(2 0) translate(2 0) translate(2 0) translate(2 0) translate(2 0) translate(2 0) translate(2 0) translate(2 0) translate(2 0) translate(2 0) translate(2 0) translate(2 0) translate(0 2)" display="inline">
		
			<rect x="154.805" y="186.691" transform="matrix(2.578893e-006 1 -1 2.578893e-006 401.4955 41.8863)" fill="#FFFFFF" stroke="#000000" stroke-width="3" width="50" height="70"/>
		<text transform="matrix(2 0 0 2 152.8104 234.6914)" font-family="sans-serif" font-size="18">AM</text>
	</g>
	<g id="varW1" display="inline">
		
			<rect x="114.332" y="276.624" fill="none" stroke="#000000" stroke-width="3" stroke-linecap="round" stroke-miterlimit="8" width="44.891" height="35.067"/>
		<text transform="matrix(1 0 0 1 121.4214 302.0107)" font-family="sans-serif" font-size="20.8061">W</text>
		<text transform="matrix(1 0 0 1 141.2885 302.0107)" font-family="sans-serif" font-size="20.8061">1</text>
		<text transform="matrix(1 0 0 1 152.4843 302.0107)" font-family="sans-serif" font-size="20.8061"> </text>
	</g>
	<g id="varW" display="inline">
		<text transform="matrix(1 0 0 1 158.3828 266.4668)" font-family="serif" font-size="22.0482">-</text>
		
			<rect x="120.947" y="247.313" fill="none" stroke="#000000" stroke-width="3" stroke-linecap="round" stroke-miterlimit="8" width="34.683" height="29.188"/>
		<text transform="matrix(1 0 0 1 127.956 268.791)" font-family="sans-serif" font-size="20.8061">W</text>
	</g>
	<g id="varH" display="inline">
		
			<rect x="120.923" y="221.305" fill="none" stroke="#000000" stroke-width="3" stroke-linecap="round" stroke-miterlimit="8" width="34.707" height="25.231"/>
		<text transform="matrix(1 0 0 1 132.4961 241.7363)" font-family="sans-serif" font-size="19.5639">H</text>
	</g>
	<g id="varX1" display="inline">
		
			<rect x="161.451" y="188.95" fill="none" stroke="#000000" stroke-width="3" stroke-linecap="round" stroke-miterlimit="8" width="43.357" height="27.309"/>
		<text transform="matrix(1 0 0 1 171.4677 209.4297)" font-family="sans-serif" font-size="19.5639">X1</text>
	</g>
	<g id="varX" display="inline">
		
			<rect x="161.451" y="151.297" fill="none" stroke="#000000" stroke-width="3" stroke-linecap="round" stroke-miterlimit="8" width="33.77" height="31.054"/>
		<text transform="matrix(1 0 0 1 172.0937 172.7959)" font-family="sans-serif" font-size="19.5639">X</text>
	</g>
	<g id="varT" display="inline">
		
			<rect x="68.335" y="118.962" fill="none" stroke="#000000" stroke-width="3" stroke-linecap="round" stroke-miterlimit="8" width="33.77" height="36.217"/>
		<text transform="matrix(1 0 0 1 79.5322 143.9258)" font-family="sans-serif" font-size="19.5639">T</text>
	</g>
	<g id="points" display="inline">
		<g>
			<path stroke="#000000" stroke-width="0.3105" stroke-linejoin="bevel" stroke-miterlimit="10" d="M40.864,201.507l-12.149-9.063
				c-0.563-0.427-0.68-1.243-0.252-1.825c0.427-0.563,1.242-0.68,1.806-0.252l12.149,9.063c0.583,0.427,0.699,1.242,0.271,1.825
				C42.261,201.816,41.446,201.934,40.864,201.507L40.864,201.507z M26.929,199.158l-7.803-15.507l17.08,3.086L26.929,199.158z"/>
			<text transform="matrix(1 0 0 1 28.9355 215.6563)" font-family="sans-serif" font-size="13.0426">P</text>
			<text transform="matrix(1 0 0 1 37.3213 215.6563)" font-family="sans-serif" font-size="13.0426">T</text>
			<text transform="matrix(1 0 0 1 45.7065 215.6563)" font-family="sans-serif" font-size="13.0426"> </text>
			<text transform="matrix(1 0 0 1 49.4204 215.6563)" font-family="sans-serif" font-size="13.0426">1</text>
		</g>
		<g>
			<path stroke="#000000" stroke-width="0.3105" stroke-linejoin="bevel" stroke-miterlimit="10" d="M320.059,210.9l13.121-4.483
				c0.678-0.231,1.414,0.116,1.646,0.796c0.234,0.682-0.134,1.418-0.813,1.65l-13.12,4.481c-0.658,0.232-1.396-0.137-1.63-0.815
				C319.029,211.87,319.378,211.133,320.059,210.9L320.059,210.9z M328.638,201.119l17.194,2.328l-12.168,12.363L328.638,201.119z"
				/>
			<text transform="matrix(1 0 0 1 293.4326 224.3936)" font-family="sans-serif" font-size="13.0426">P</text>
			<text transform="matrix(1 0 0 1 301.8193 224.3936)" font-family="sans-serif" font-size="13.0426">T</text>
			<text transform="matrix(1 0 0 1 310.2031 224.3936)" font-family="sans-serif" font-size="13.0426"> 2 </text>
		</g>
		<g>
			<path stroke="#000000" stroke-width="0.3105" stroke-linejoin="bevel" stroke-miterlimit="10" d="M359.691,102.135v202.491
				c0,0.718-0.584,1.299-1.303,1.299s-1.302-0.581-1.302-1.299V102.135c0-0.719,0.583-1.301,1.302-1.301
				S359.691,101.416,359.691,102.135L359.691,102.135z M350.627,104.716l7.764-15.527l7.766,15.527H350.627z M366.154,302.042
				l-7.766,15.526l-7.764-15.526H366.154z"/>
			<text transform="matrix(6.123234e-017 1 -1 6.123234e-017 368.8379 180.1611)" font-family="sans-serif" font-size="18">WIDTH (m)</text>
		</g>
	</g>
</g>
<g id="example" display="none">
	<text id="varWeW1e" transform="matrix(1 0 0 1 119.4214 265.4668)" display="inline" enable-background="new    "><tspan x="0" y="0" font-family="sans-serif" font-size="21">281400ZAPR08 -</tspan><tspan x="0" y="25.2" font-family="sans-serif" font-size="21">281530ZAPR08</tspan></text>
	<text id="VarYeYne" transform="matrix(1 0 0 1 120.4209 239.377)" display="inline" font-family="sans-serif" font-size="21">NK2312 to NK3013</text>
	<text id="varX1e" transform="matrix(1 0 0 1 160.7949 210.3594)" display="inline" font-family="sans-serif" font-size="21">3000 FT AGL</text>
	<text id="varXe" transform="matrix(1 0 0 1 160.0849 181.3457)" display="inline" font-family="sans-serif" font-size="21">500 FT AGL</text>
	<text id="varTe" transform="matrix(1 0 0 1 65.5752 143.4346)" display="inline" font-family="sans-serif" font-size="21">53ID(M)</text>
</g>
</svg>
