<?xml version="1.0" encoding="utf-8"?>
<!-- Generator: Adobe Illustrator 16.0.0, SVG Export Plug-In . SVG Version: 6.00 Build 0)  -->
<!DOCTYPE svg PUBLIC "-//W3C//DTD SVG 1.1//EN" "http://www.w3.org/Graphics/SVG/1.1/DTD/svg11.dtd">
<svg version="1.1" id="Version_1.0" xmlns="http://www.w3.org/2000/svg" xmlns:xlink="http://www.w3.org/1999/xlink" x="0px"
	 y="0px" width="400px" height="400px" viewBox="0 0 400 400" enable-background="new 0 0 400 400" xml:space="preserve">
<g id="main">
	<path fill="none" stroke="#000000" stroke-width="5" stroke-linecap="round" stroke-linejoin="round" stroke-miterlimit="10" d="
		M184.359,117.468c-36.691,0.892-60.847-10.18-78.3,10.881c-14.547,34.28-8.052,14.643-2.241,88.196
		c0.228,3.932,3.59,7.329,4.482,11.07c0.664,3.039-0.456,6.971,2.241,9.117c3.342,2.678,13.863,3.74,13.863,3.74
		c59.063-0.531,118.125,0,177.169-1.785c7.61-0.17,20.813-7.502,20.813-7.502c17.894-21.595,23.492-66.243-4.688-80.692
		c-1.575-1.785-2.241-4.102-4.481-5.545c-1.784-1.235-4.688-0.893-6.933-1.786c-17.909-7.14,3.568-1.063-13.884-5.527
		c-10.273-5.526-20.565-6.969-32.209-9.287C234.914,123.184,210.529,117.468,184.359,117.468"/>
	<text transform="matrix(1 0 0 1 162.6963 185.874)" font-family="sans-serif" font-size="24.0048">TGMF</text>
</g>
</svg>
