<?xml version="1.0" encoding="utf-8"?>
<!-- Generator: Adobe Illustrator 16.0.0, SVG Export Plug-In . SVG Version: 6.00 Build 0)  -->
<!DOCTYPE svg PUBLIC "-//W3C//DTD SVG 1.1//EN" "http://www.w3.org/Graphics/SVG/1.1/DTD/svg11.dtd">
<svg version="1.1" id="Version_1.0" xmlns="http://www.w3.org/2000/svg" xmlns:xlink="http://www.w3.org/1999/xlink" x="0px"
	 y="0px" width="400px" height="400px" viewBox="0 0 400 400" enable-background="new 0 0 400 400" xml:space="preserve">
<g id="main">
	
		<polygon fill="none" stroke="#000000" stroke-width="2" stroke-linecap="round" stroke-linejoin="round" stroke-miterlimit="10" points="
		60.918,81.519 311.29,17.322 311.29,388.244 60.918,388.244 	"/>
	<text transform="matrix(1 0 0 1 70.4443 110.2705)" font-family="sans-serif" font-size="25.157">ACA</text>
	<text transform="matrix(1 0 0 1 70.4058 241.7617)" font-family="sans-serif" font-size="23.7276">MAX ALT</text>
	<text transform="matrix(1 0 0 1 70.4058 209.4707)" font-family="sans-serif" font-size="23.7276">MIN ALT</text>
</g>
<g id="template" display="none">
	<g id="varY-Yn" display="inline">
		
			<rect x="70.406" y="264.064" fill="none" stroke="#000000" stroke-width="1.7867" stroke-linecap="round" stroke-miterlimit="8" width="84.332" height="41.81"/>
		<text transform="matrix(1 0 0 1 78.4209 294.377)" font-family="sans-serif" font-size="23.7276">Y - Yn</text>
	</g>
	<g id="varX1" display="inline">
		<text transform="matrix(1 0 0 1 191.7949 248.3594)" font-family="sans-serif" font-size="23.7276">X1</text>
		
			<rect x="178.033" y="218.111" fill="none" stroke="#000000" stroke-width="1.7867" stroke-linecap="round" stroke-miterlimit="8" width="55.869" height="41.81"/>
	</g>
	<g id="varX" display="inline">
		
			<rect x="178.033" y="176.983" fill="none" stroke="#000000" stroke-width="1.7867" stroke-linecap="round" stroke-miterlimit="8" width="45.508" height="41.809"/>
		<text transform="matrix(1 0 0 1 194.085 208.3457)" font-family="sans-serif" font-size="23.7276">X</text>
	</g>
	<g id="varW1" display="inline">
		<text transform="matrix(1 0 0 1 157.1689 347.8301)" font-family="sans-serif" font-size="25.157">W1</text>
		
			<rect x="141.285" y="316.488" fill="none" stroke="#000000" stroke-width="1.7867" stroke-linecap="round" stroke-miterlimit="8" width="69.322" height="46.687"/>
	</g>
	<g id="varW" display="inline">
		<text transform="matrix(1 0 0 1 125.4365 347.8301)" font-family="sans-serif" font-size="25.157">-</text>
		<text transform="matrix(1 0 0 1 82.835 348.9648)" font-family="sans-serif" font-size="25.157">W</text>
		
			<rect x="70.406" y="316.488" fill="none" stroke="#000000" stroke-width="1.7867" stroke-linecap="round" stroke-miterlimit="8" width="48.366" height="46.687"/>
	</g>
	<g id="varT" display="inline">
		<text transform="matrix(1 0 0 1 90.5752 152.4346)" font-family="sans-serif" font-size="23.7276">T</text>
		
			<rect x="74.406" y="122.134" fill="none" stroke="#000000" stroke-width="1.7867" stroke-linecap="round" stroke-miterlimit="8" width="44.561" height="41.703"/>
	</g>
</g>
<g id="example" display="none">
	<text id="varWeW1e" transform="matrix(1 0 0 1 72.835 348.9648)" display="inline" enable-background="new    "><tspan x="0" y="0" font-family="sans-serif" font-size="21">281400ZAPR08 -</tspan><tspan x="0" y="25.2" font-family="sans-serif" font-size="21">281530ZAPR08</tspan></text>
	<text id="VarYeYne" transform="matrix(1 0 0 1 69.4209 294.377)" display="inline" font-family="sans-serif" font-size="21">GRID NK2312 to NK3013</text>
	<text id="varX1e" transform="matrix(1 0 0 1 181.7949 242.3594)" display="inline" font-family="sans-serif" font-size="21">3000 FT AGL</text>
	<text id="varXe" transform="matrix(1 0 0 1 183.085 209.3457)" display="inline" font-family="sans-serif" font-size="21">500 FT AGL</text>
	<text id="varTe" transform="matrix(1 0 0 1 68.5752 152.4346)" display="inline" font-family="sans-serif" font-size="21">53ID(M)</text>
</g>
</svg>
