<?xml version="1.0" encoding="utf-8"?>
<!-- Generator: Adobe Illustrator 16.0.0, SVG Export Plug-In . SVG Version: 6.00 Build 0)  -->
<!DOCTYPE svg PUBLIC "-//W3C//DTD SVG 1.1//EN" "http://www.w3.org/Graphics/SVG/1.1/DTD/svg11.dtd">
<svg version="1.1" id="Version_1.0" xmlns="http://www.w3.org/2000/svg" xmlns:xlink="http://www.w3.org/1999/xlink" x="0px"
	 y="0px" width="612px" height="792px" viewBox="0 0 612 792" enable-background="new 0 0 612 792" xml:space="preserve">
<g id="main">
	
		<line fill="none" stroke="#000000" stroke-width="5" stroke-linejoin="round" stroke-miterlimit="10" x1="304.789" y1="295.935" x2="304.789" y2="495.434"/>
	
		<line fill="none" stroke="#000000" stroke-width="5" stroke-linejoin="round" stroke-miterlimit="10" x1="404.338" y1="395.698" x2="205.026" y2="395.698"/>
</g>
<g id="template" display="none">
	<g id="varX" display="inline">
		
			<rect x="233.686" y="416.559" fill="none" stroke="#000000" stroke-width="2.6575" stroke-linecap="round" stroke-miterlimit="8" width="63.287" height="49.613"/>
		<text transform="matrix(1 0 0 1 251.7515 455.3203)" font-family="sans-serif" font-size="36">X</text>
	</g>
	<g id="varAP" display="inline">
		
			<rect x="336.575" y="321.447" fill="none" stroke="#000000" stroke-width="2.6575" stroke-linecap="round" stroke-miterlimit="8" width="66.081" height="55.275"/>
		<text transform="matrix(1 0 0 1 346.543 363.4531)" font-family="sans-serif" font-size="36">AP</text>
	</g>
	<g id="varH" display="inline">
		
			<rect x="336.893" y="415.896" fill="none" stroke="#000000" stroke-width="2.6575" stroke-linecap="round" stroke-miterlimit="8" width="63.445" height="50.274"/>
		<text transform="matrix(1 0 0 1 353.7598 453.8398)" font-family="sans-serif" font-size="36">H</text>
	</g>
	<g id="points" display="inline">
		<path stroke="#000000" stroke-width="0.4252" stroke-linejoin="bevel" stroke-miterlimit="10" d="M235.52,339.6l38.323,28.915
			c0.796,0.581,0.955,1.699,0.345,2.47c-0.585,0.796-1.701,0.956-2.471,0.346l-38.322-28.914c-0.771-0.588-0.931-1.703-0.346-2.471
			C233.636,339.146,234.751,338.987,235.52,339.6L235.52,339.6z M276.368,359.316l21.871,29.818l-34.681-12.862L276.368,359.316z"/>
		<text transform="matrix(1 0 0 1 191.2778 333.7969)" font-family="sans-serif" font-size="26.7877">P</text>
		<text transform="matrix(1 0 0 1 209.145 333.7969)" font-family="sans-serif" font-size="26.7877">T</text>
		<text transform="matrix(1 0 0 1 225.3198 333.7969)" font-family="sans-serif" font-size="26.7877"> </text>
		<text transform="matrix(1 0 0 1 232.9497 333.7969)" font-family="sans-serif" font-size="26.7877">1</text>
	</g>
</g>
<g id="example" display="none">
	<text id="varXe" transform="matrix(1 0 0 1 252.4048 449.3203)" display="inline" font-family="sans-serif" font-size="21">25</text>
	<text id="varAPe" transform="matrix(1 0 0 1 329.543 363.4531)" display="inline" font-family="sans-serif" font-size="21">AA0001</text>
	<text id="varHe" transform="matrix(1 0 0 1 329.7598 448.8398)" display="inline" font-family="sans-serif" font-size="21">MISSILE LAUNCHER</text>
</g>
</svg>
