<?xml version="1.0" encoding="utf-8"?>
<!-- Generator: Adobe Illustrator 16.0.0, SVG Export Plug-In . SVG Version: 6.00 Build 0)  -->
<!DOCTYPE svg PUBLIC "-//W3C//DTD SVG 1.1//EN" "http://www.w3.org/Graphics/SVG/1.1/DTD/svg11.dtd">
<svg version="1.1" id="Version_1.0" xmlns="http://www.w3.org/2000/svg" xmlns:xlink="http://www.w3.org/1999/xlink" x="0px"
	 y="0px" width="400px" height="400px" viewBox="0 0 400 400" enable-background="new 0 0 400 400" xml:space="preserve">
<g id="main">
	<path fill="none" stroke="#000000" stroke-width="5" d="M58.458,118.806c36.54-25.074,85.383-40.393,139.042-40.393
		c52.309,0,100.04,14.558,136.259,38.518"/>
	<path fill="none" stroke="#000000" stroke-width="5" d="M87.954,170.328c31.49-15.993,68.67-26.822,108.914-26.822
		c40.028,0,74.278,11.927,104.384,28.264"/>
	<path fill="none" stroke="#000000" stroke-width="5" d="M75.073,257.781c19.896-35.602,64.979-60.447,117.409-60.447
		c26.075,0,50.333,6.146,70.577,16.702"/>
	<path fill="none" stroke="#000000" stroke-width="5" d="M124.643,292.805c14.534-21.408,40.683-35.688,70.524-35.688
		c14.635,0,28.382,3.435,40.306,9.461"/>
	<line fill="none" stroke="#000000" stroke-width="5" x1="335.25" y1="115.5" x2="300.25" y2="173.75"/>
	<line fill="none" stroke="#000000" stroke-width="5" x1="57.5" y1="116.931" x2="117.088" y2="216.68"/>
	<polyline fill="none" stroke="#000000" stroke-width="5" points="287.682,164.867 194.817,347.326 73.75,256.098 	"/>
	<g>
		<text transform="matrix(0.7681 -0.6404 0.6404 0.7681 146.7617 296.7676)" font-family="sans-serif" font-size="12.001">RG</text>
		<text transform="matrix(0.7681 -0.6404 0.6404 0.7681 153.3418 312.3486)" font-family="sans-serif" font-size="12.001">ALT</text>
	</g>
	<g>
		<text transform="matrix(0.8552 -0.5184 0.5184 0.8552 106.8154 246.6738)" font-family="sans-serif" font-size="12.0008">RG</text>
		<text transform="matrix(0.8552 -0.5184 0.5184 0.8552 111.189 262.1074)" font-family="sans-serif" font-size="12.0008">ALT</text>
	</g>
	<g>
		<text transform="matrix(1 0 0 1 204 100.835)" font-family="sans-serif" font-size="12">RG</text>
		<text transform="matrix(1 0 0 1 199.2393 114.9775)" font-family="sans-serif" font-size="12">ALT</text>
	</g>
	<g>
		<text transform="matrix(1 0 0 1 204.7607 169.3691)" font-family="sans-serif" font-size="12">RG</text>
		<text transform="matrix(1 0 0 1 200 183.5107)" font-family="sans-serif" font-size="12">ALT</text>
	</g>
	<g>
		<g>
			
				<line fill="none" stroke="#000000" stroke-width="5" stroke-linejoin="bevel" stroke-miterlimit="10" x1="195.108" y1="346.5" x2="195.108" y2="49"/>
			<polygon points="203.861,51.553 195.136,36.44 186.411,51.553 			"/>
		</g>
	</g>
</g>
<g id="template" display="none">
	<g id="varAN7" display="inline">
		
			<rect x="324.699" y="142.313" fill="none" stroke="#000000" stroke-width="2.0414" stroke-linecap="round" stroke-miterlimit="8" width="34.766" height="13.761"/>
		<text transform="matrix(1 0 0 1 327.5723 153.8906)" font-family="sans-serif" font-size="12">AN 7</text>
	</g>
	<g id="varAN6" display="inline">
		
			<rect x="31.315" y="144.313" fill="none" stroke="#000000" stroke-width="2.0414" stroke-linecap="round" stroke-miterlimit="8" width="34.766" height="13.761"/>
		<text transform="matrix(1 0 0 1 34.1885 155.8916)" font-family="sans-serif" font-size="12">AN 6</text>
	</g>
	<g id="varAN5" display="inline">
		
			<rect x="283.869" y="188.028" fill="none" stroke="#000000" stroke-width="2.0414" stroke-linecap="round" stroke-miterlimit="8" width="34.766" height="13.761"/>
		<text transform="matrix(1 0 0 1 286.7422 199.6064)" font-family="sans-serif" font-size="12">AN 5</text>
	</g>
	<g id="varAN4" display="inline">
		
			<rect x="60.719" y="197.334" fill="none" stroke="#000000" stroke-width="2.0414" stroke-linecap="round" stroke-miterlimit="8" width="34.766" height="13.761"/>
		<text transform="matrix(1 0 0 1 63.5923 208.9121)" font-family="sans-serif" font-size="12">AN 4</text>
	</g>
	<g id="varAN3" display="inline">
		
			<rect x="255.938" y="239.916" fill="none" stroke="#000000" stroke-width="2.0414" stroke-linecap="round" stroke-miterlimit="8" width="34.768" height="13.762"/>
		<text transform="matrix(1 0 0 1 258.8105 251.4941)" font-family="sans-serif" font-size="12">AN 3</text>
	</g>
	<g id="varAN2" display="inline">
		
			<rect x="61.559" y="278.191" fill="none" stroke="#000000" stroke-width="2.0414" stroke-linecap="round" stroke-miterlimit="8" width="34.766" height="13.761"/>
		<text transform="matrix(1 0 0 1 64.4321 289.7695)" font-family="sans-serif" font-size="12">AN 2</text>
	</g>
	<g id="varAN1" display="inline">
		
			<rect x="222.598" y="300.857" fill="none" stroke="#000000" stroke-width="1.9991" stroke-linecap="round" stroke-miterlimit="8" width="33.34" height="13.761"/>
		<text transform="matrix(1 0 0 1 225.4697 312.4355)" font-family="sans-serif" font-size="12">AN 1</text>
	</g>
	<g id="varAN" display="inline">
		
			<rect x="124.733" y="320.727" fill="none" stroke="#000000" stroke-width="1.6683" stroke-linecap="round" stroke-miterlimit="8" width="23.22" height="13.76"/>
		<text transform="matrix(1 0 0 1 127.6064 332.3037)" font-family="sans-serif" font-size="12">AN</text>
	</g>
	<g id="varAM3" display="inline">
		
			<rect x="225.552" y="89.541" fill="none" stroke="#000000" stroke-width="2.0414" stroke-linecap="round" stroke-miterlimit="8" width="34.767" height="13.76"/>
		<text transform="matrix(1 0 0 1 228.4248 101.1191)" font-family="sans-serif" font-size="12">AM3</text>
	</g>
	<g id="varAM2" display="inline">
		
			<rect x="226.313" y="158.074" fill="none" stroke="#000000" stroke-width="2.0414" stroke-linecap="round" stroke-miterlimit="8" width="34.768" height="13.76"/>
		<text transform="matrix(1 0 0 1 229.1855 169.6523)" font-family="sans-serif" font-size="12">AM2</text>
	</g>
	<g id="varAM1" display="inline">
		
			<rect x="123.639" y="215.516" transform="matrix(-0.8512 0.5249 -0.5249 -0.8512 375.838 339.6266)" fill="none" stroke="#000000" stroke-width="2.064" stroke-linecap="round" stroke-miterlimit="8" width="32.262" height="15.159"/>
		<text transform="matrix(0.8512 -0.5249 0.5249 0.8512 130.1367 234.2266)" font-family="sans-serif" font-size="12.0008">AM1</text>
	</g>
	<g id="varAM" display="inline">
		
			<rect x="158.676" y="265.912" transform="matrix(-0.8037 0.5951 -0.5951 -0.8037 472.3049 391.858)" fill="none" stroke="#000000" stroke-width="2.0998" stroke-linecap="round" stroke-miterlimit="8" width="25.674" height="15.854"/>
		<text transform="matrix(0.8037 -0.5951 0.5951 0.8037 165.7388 283.2695)" font-family="sans-serif" font-size="12.001">AM</text>
	</g>
	<g id="varX3" display="inline">
		
			<rect x="225.805" y="105.682" fill="none" stroke="#000000" stroke-width="2" stroke-linecap="round" stroke-miterlimit="8" width="22.416" height="13.249"/>
		<text transform="matrix(1 0 0 1 229.0176 115.9775)" font-family="sans-serif" font-size="12">X3</text>
	</g>
	<g id="varX2" display="inline">
		
			<rect x="226.564" y="172.216" fill="none" stroke="#000000" stroke-width="2" stroke-linecap="round" stroke-miterlimit="8" width="22.416" height="13.249"/>
		<text transform="matrix(1 0 0 1 229.7783 182.5107)" font-family="sans-serif" font-size="12">X2</text>
	</g>
	<g id="varX1" display="inline">
		
			<rect x="132.16" y="232.397" transform="matrix(-0.8511 0.5249 -0.5249 -0.8511 387.9579 367.9726)" fill="none" stroke="#000000" stroke-width="2.068" stroke-linecap="round" stroke-miterlimit="8" width="19.292" height="13.191"/>
		<text transform="matrix(0.8512 -0.5249 0.5249 0.8512 137.4834 246)" font-family="sans-serif" font-size="12.0008">X1</text>
	</g>
	<g id="varX" display="inline">
		
			<rect x="168.605" y="281.757" transform="matrix(-0.8036 0.5952 -0.5952 -0.8036 491.9119 416.0612)" fill="none" stroke="#000000" stroke-width="2.0844" stroke-linecap="round" stroke-miterlimit="8" width="17.406" height="14.874"/>
		<text transform="matrix(0.8037 -0.5951 0.5951 0.8037 176.6558 295.374)" font-family="sans-serif" font-size="12.001">X</text>
	</g>
	<g id="points" display="inline">
		<g>
			<g>
				<g>
					
						<line fill="none" stroke="#000000" stroke-width="5" stroke-linejoin="bevel" stroke-miterlimit="10" x1="133.315" y1="64" x2="172.139" y2="64"/>
					<polygon points="169.585,72.752 184.698,64.027 169.585,55.302 					"/>
				</g>
			</g>
			<text transform="matrix(1 0 0 1 69.4448 53.5)" font-family="sans-serif" font-size="14">CENTER OF</text>
			<text transform="matrix(1 0 0 1 69.4448 70.2998)" font-family="sans-serif" font-size="14">SECTOR</text>
		</g>
		<g>
			<g>
				<g>
					
						<line fill="none" stroke="#000000" stroke-width="5" stroke-linejoin="bevel" stroke-miterlimit="10" x1="132.772" y1="352" x2="180.058" y2="351.5"/>
					<polygon points="177.597,360.279 192.617,351.395 177.413,342.83 					"/>
				</g>
			</g>
			<text transform="matrix(1 0 0 1 22.25 356.3262)" font-family="sans-serif" font-size="14">ANCHOR POINT</text>
		</g>
	</g>
</g>
<g id="example" display="none">
	<text id="varAN7e" transform="matrix(1 0 0 1 327.5723 153.8906)" display="inline" font-family="sans-serif" font-size="12">35</text>
	<text id="varAN6e" transform="matrix(1 0 0 1 34.1885 155.8916)" display="inline" font-family="sans-serif" font-size="12">315</text>
	<text id="varAN5e" transform="matrix(1 0 0 1 286.7422 199.6064)" display="inline" font-family="sans-serif" font-size="12">30</text>
	<text id="varAN4e" transform="matrix(1 0 0 1 63.5923 208.9121)" display="inline" font-family="sans-serif" font-size="12">315</text>
	<text id="varAN3e" transform="matrix(1 0 0 1 258.8105 251.4941)" display="inline" font-family="sans-serif" font-size="12">30</text>
	<text id="varAN2e" transform="matrix(1 0 0 1 64.4321 289.7695)" display="inline" font-family="sans-serif" font-size="12">290</text>
	<text id="varAN1e" transform="matrix(1 0 0 1 225.4697 312.4355)" display="inline" font-family="sans-serif" font-size="12">30</text>
	<text id="varANe" transform="matrix(1 0 0 1 127.6064 332.3037)" display="inline" font-family="sans-serif" font-size="12">290</text>
	<text id="varAM3e" transform="matrix(1 0 0 1 228.4248 101.1191)" display="inline" font-family="sans-serif" font-size="12">5000</text>
	<text id="varAM2e" transform="matrix(1 0 0 1 229.1855 169.6523)" display="inline" font-family="sans-serif" font-size="12">3500</text>
	
		<text id="varAM1e" transform="matrix(0.8512 -0.5249 0.5249 0.8512 130.1367 234.2266)" display="inline" font-family="sans-serif" font-size="12.0008">2500</text>
	
		<text id="varAMe" transform="matrix(0.8037 -0.5951 0.5951 0.8037 165.7388 283.2695)" display="inline" font-family="sans-serif" font-size="12.001">1500</text>
	<text id="varX3e" transform="matrix(1 0 0 1 226.0176 114.9775)" display="inline" font-family="sans-serif" font-size="12">GL</text>
	<text id="varX2e" transform="matrix(1 0 0 1 225.7783 183.5107)" display="inline" font-family="sans-serif" font-size="12">GL</text>
	
		<text id="varX1e" transform="matrix(0.8512 -0.5249 0.5249 0.8512 137.4834 247)" display="inline" font-family="sans-serif" font-size="12.0008">GL</text>
	
		<text id="varXe" transform="matrix(0.8037 -0.5951 0.5951 0.8037 175.6558 295.374)" display="inline" font-family="sans-serif" font-size="12.001">GL</text>
	<g display="inline">
		
			<rect id="_x3C_path_x3E_" x="174.262" y="337.098" fill="#80E0FF" stroke="#000000" stroke-width="2" width="41.749" height="27.833"/>
		<path fill="none" stroke="#000000" stroke-width="2" d="M197.104,356.242c-5.215,0-10.738-4.229-10.738-9.444"/>
		<polyline fill="none" stroke="#000000" stroke-width="2" points="186.867,349.84 196.053,345.916 196.054,351.975 
			203.622,346.428 		"/>
	</g>
</g>
</svg>
