<?xml version="1.0" encoding="utf-8"?>
<!-- Generator: Adobe Illustrator 16.0.0, SVG Export Plug-In . SVG Version: 6.00 Build 0)  -->
<!DOCTYPE svg PUBLIC "-//W3C//DTD SVG 1.1//EN" "http://www.w3.org/Graphics/SVG/1.1/DTD/svg11.dtd">
<svg version="1.1" id="Version_1.0" xmlns="http://www.w3.org/2000/svg" xmlns:xlink="http://www.w3.org/1999/xlink" x="0px"
	 y="0px" width="400px" height="400px" viewBox="0 0 400 400" enable-background="new 0 0 400 400" xml:space="preserve">
<g id="main">
	<path fill="none" stroke="#000000" stroke-width="5" stroke-linecap="round" stroke-linejoin="round" stroke-miterlimit="10" d="
		M205.543,46.847c-86.479,0-156.582,67.732-156.582,151.288c0,83.576,70.103,151.309,156.582,151.309
		c86.48,0,156.581-67.73,156.581-151.309C362.124,114.579,292.023,46.847,205.543,46.847"/>
	<text transform="matrix(1 0 0 1 177.5981 140.0313)" font-family="sans-serif" font-size="24">PKB</text>
</g>
<g id="template" display="none">
	<g id="varW1" display="inline">
		
			<rect x="7.498" y="112.809" fill="none" stroke="#000000" stroke-width="2.5418" stroke-linecap="round" stroke-miterlimit="8" width="44.205" height="34.515"/>
		<text transform="matrix(1 0 0 1 14.5532 137.9102)" font-family="sans-serif" font-size="18">W1</text>
	</g>
	<g id="varW" display="inline">
		<text transform="matrix(1 0 0 1 45.4346 95.6123)" font-family="serif" font-size="21.7108">-</text>
		
			<rect x="8.498" y="70.719" fill="none" stroke="#000000" stroke-width="2.5418" stroke-linecap="round" stroke-miterlimit="8" width="34.152" height="34.535"/>
		<text transform="matrix(1 0 0 1 15.4731 95.9512)" font-family="sans-serif" font-size="18">W</text>
	</g>
	<g id="varT" display="inline">
		
			<rect x="187.238" y="147.225" fill="none" stroke="#000000" stroke-width="2.5418" stroke-linecap="round" stroke-miterlimit="8" width="33.254" height="35.682"/>
		<text transform="matrix(1 0 0 1 196.3374 174.6943)" font-family="sans-serif" font-size="24">T</text>
	</g>
	<g id="varAM" display="inline">
		
			<rect x="257.621" y="218.601" transform="matrix(-0.6486 0.7611 -0.7611 -0.6486 634.5595 192.2132)" fill="none" stroke="#000000" stroke-width="3" stroke-linecap="round" stroke-miterlimit="8" width="30.578" height="47.971"/>
		<text transform="matrix(0.7612 0.6486 -0.6486 0.7612 258.9395 238.2725)" font-family="sans-serif" font-size="19.2675">AM</text>
	</g>
	<g id="points" display="inline">
		<path stroke="#000000" stroke-width="0.3058" stroke-linejoin="bevel" stroke-miterlimit="10" d="M204.339,210.367l103.031,87.436
			c0.536,0.459,0.611,1.26,0.151,1.797c-0.461,0.535-1.264,0.592-1.797,0.151l-103.051-87.455c-0.535-0.458-0.594-1.262-0.135-1.797
			C202.98,209.964,203.805,209.906,204.339,210.367L204.339,210.367z M309.547,291.303l6.71,15.711l-16.588-4.052L309.547,291.303z"
			/>
		<g>
			<path stroke="#000000" stroke-width="0.3058" stroke-linejoin="bevel" stroke-miterlimit="10" d="M384.543,210.311
				l-168.299-1.074c-0.706,0-1.279-0.569-1.279-1.275c0.02-0.706,0.592-1.262,1.299-1.262l168.297,1.068
				c0.706,0,1.28,0.574,1.265,1.28C385.822,209.755,385.249,210.311,384.543,210.311L384.543,210.311z M218.748,215.641l-15.25-7.76
				l15.346-7.53L218.748,215.641z"/>
			<text transform="matrix(1 0 0 1 367.4688 202.9717)" font-family="sans-serif" font-size="12.843">P</text>
			<text transform="matrix(1 0 0 1 375.7266 202.9717)" font-family="sans-serif" font-size="12.843">T</text>
			<text transform="matrix(1 0 0 1 383.9824 202.9717)" font-family="sans-serif" font-size="12.843"> </text>
			<text transform="matrix(1 0 0 1 387.6406 202.9717)" font-family="sans-serif" font-size="12.843">1</text>
		</g>
		<g>
			
				<rect x="226.808" y="221.817" transform="matrix(-0.65 0.76 -0.76 -0.65 601.1764 259.5557)" fill="none" stroke="#000000" stroke-width="2.2146" stroke-linecap="round" stroke-miterlimit="8" width="28.011" height="92.819"/>
			<text transform="matrix(0.76 0.65 -0.65 0.76 210.6504 248.3184)" font-family="sans-serif" font-size="14.0021">RADIUS (M)</text>
		</g>
	</g>
</g>
<g id="example" display="none">
	<text transform="matrix(1 0 0 1 4.4731 95.9512)" display="inline" font-family="sans-serif" font-size="18">020300ZDEC08 -</text>
	<text transform="matrix(1 0 0 1 4.4731 117.5508)" display="inline" font-family="sans-serif" font-size="18">090500ZDEC08</text>
	
		<text id="varAMe" transform="matrix(0.7612 0.6486 -0.6486 0.7612 291.8145 238.2734)" display="inline" font-family="sans-serif" font-size="19.2675"> </text>
	<text id="varTe" transform="matrix(1 0 0 1 192.0122 217.1328)" display="inline" font-family="sans-serif" font-size="24">X CORPS</text>
	<g display="inline">
		<path fill="none" stroke="#000000" stroke-width="5" stroke-linecap="round" stroke-linejoin="round" stroke-miterlimit="10" d="
			M250.698,70.577c-79.697,0-144.303,62.42-144.303,139.424c0,77.021,64.605,139.442,144.303,139.442
			c79.699,0,144.302-62.42,144.302-139.442C395,132.998,330.397,70.577,250.698,70.577"/>
		<text transform="matrix(1 0 0 1 220.6289 185.4688)" font-family="sans-serif" font-size="24">PKB</text>
	</g>
</g>
</svg>
