<?xml version="1.0" encoding="utf-8"?>
<!-- Generator: Adobe Illustrator 16.0.0, SVG Export Plug-In . SVG Version: 6.00 Build 0)  -->
<!DOCTYPE svg PUBLIC "-//W3C//DTD SVG 1.1//EN" "http://www.w3.org/Graphics/SVG/1.1/DTD/svg11.dtd">
<svg version="1.1" id="Version_1.0" xmlns="http://www.w3.org/2000/svg" xmlns:xlink="http://www.w3.org/1999/xlink" x="0px"
	 y="0px" width="400px" height="400px" viewBox="0 0 400 400" enable-background="new 0 0 400 400" xml:space="preserve">
<g id="main">
	<path fill="none" stroke="#000000" stroke-width="5" stroke-linecap="round" stroke-linejoin="round" stroke-miterlimit="10" d="
		M183.543,46.847c-86.479,0-156.582,67.732-156.582,151.288c0,83.576,70.103,151.309,156.582,151.309
		c86.48,0,156.581-67.731,156.581-151.309C340.124,114.579,270.023,46.847,183.543,46.847"/>
	<text transform="matrix(1 0 0 1 83.1226 248.2432)" font-family="sans-serif" font-size="19.2645">Grids</text>
	<text transform="matrix(1 0 0 1 83.1226 275.1777)" font-family="sans-serif" font-size="19.2645">EFF:</text>
	<text transform="matrix(1 0 0 1 83.1226 193.8125)" font-family="sans-serif" font-size="19.2645">MAX ALT:</text>
	<text transform="matrix(1 0 0 1 83.1226 168.1328)" font-family="sans-serif" font-size="19.2645">MIN ALT:</text>
	<text transform="matrix(1 0 0 1 83.1519 101.7793)" font-family="sans-serif" font-size="19.2645">ACA</text>
</g>
<g id="template" display="none">
	<g id="varAM" display="inline">
		
			<rect x="235.603" y="218.621" transform="matrix(0.6486 -0.7611 0.7611 0.6486 -96.492 276.2242)" fill="none" stroke="#000000" stroke-width="3" stroke-linecap="round" stroke-miterlimit="8" width="30.581" height="47.975"/>
		<text transform="matrix(0.7612 0.6486 -0.6486 0.7612 236.9395 238.2734)" font-family="sans-serif" font-size="19.2665">AM</text>
	</g>
	<g id="varX1" display="inline">
		
			<rect x="179.09" y="175.907" fill="none" stroke="#000000" stroke-width="2.5418" stroke-linecap="round" stroke-miterlimit="8" width="45.867" height="25.477"/>
		<text transform="matrix(1 0 0 1 190.4463 195.9639)" font-family="sans-serif" font-size="18">X1</text>
	</g>
	<g id="varX" display="inline">
		
			<rect x="176.528" y="138.832" fill="none" stroke="#000000" stroke-width="2.5418" stroke-linecap="round" stroke-miterlimit="8" width="33.254" height="30.579"/>
		<text transform="matrix(1 0 0 1 187.0811 159.8711)" font-family="sans-serif" font-size="18">X</text>
	</g>
	<g id="varH" display="inline">
		
			<rect x="138.305" y="230.186" fill="none" stroke="#000000" stroke-width="1.9924" stroke-linecap="round" stroke-miterlimit="8" width="28.181" height="24.846"/>
		<text transform="matrix(1 0 0 1 143.6636 250.3926)" font-family="sans-serif" font-size="18">H</text>
	</g>
	<g id="varW1" display="inline">
		
			<rect x="123.15" y="292.241" fill="none" stroke="#000000" stroke-width="2.5418" stroke-linecap="round" stroke-miterlimit="8" width="44.205" height="34.515"/>
		<text transform="matrix(1 0 0 1 130.2056 317.3428)" font-family="sans-serif" font-size="18">W</text>
		<text transform="matrix(1 0 0 1 147.3936 317.3428)" font-family="sans-serif" font-size="18">1</text>
		<text transform="matrix(1 0 0 1 157.0796 317.3428)" font-family="sans-serif" font-size="18"> </text>
	</g>
	<g id="varW" display="inline">
		<text transform="matrix(1 0 0 1 169.6426 282.4648)" font-family="serif" font-size="21.7108">-</text>
		
			<rect x="132.706" y="257.571" fill="none" stroke="#000000" stroke-width="2.5418" stroke-linecap="round" stroke-miterlimit="8" width="34.152" height="34.534"/>
		<text transform="matrix(1 0 0 1 139.6812 282.8037)" font-family="sans-serif" font-size="18">W</text>
	</g>
	<g id="varT" display="inline">
		
			<rect x="89.762" y="106.973" fill="none" stroke="#000000" stroke-width="2.5418" stroke-linecap="round" stroke-miterlimit="8" width="33.254" height="35.682"/>
		<text transform="matrix(1 0 0 1 100.8608 131.4414)" font-family="sans-serif" font-size="18">T</text>
	</g>
	<g id="points" display="inline">
		<path stroke="#000000" stroke-width="0.3058" stroke-linejoin="bevel" stroke-miterlimit="10" d="M182.339,210.367l103.031,87.436
			c0.536,0.459,0.61,1.26,0.151,1.797c-0.459,0.535-1.263,0.592-1.797,0.151l-103.05-87.455c-0.537-0.458-0.594-1.262-0.135-1.797
			C180.981,209.964,181.804,209.906,182.339,210.367L182.339,210.367z M287.547,291.303l6.71,15.711l-16.588-4.052L287.547,291.303z
			"/>
		<g>
			<path stroke="#000000" stroke-width="0.3058" stroke-linejoin="bevel" stroke-miterlimit="10" d="M362.543,210.311
				l-168.298-1.074c-0.707,0-1.28-0.57-1.28-1.276c0.019-0.706,0.593-1.262,1.299-1.262l168.295,1.069
				c0.706,0,1.28,0.574,1.264,1.28C363.822,209.755,363.249,210.311,362.543,210.311L362.543,210.311z M196.748,215.641l-15.25-7.76
				l15.346-7.53L196.748,215.641z"/>
			<text transform="matrix(1 0 0 1 345.4688 202.9717)" font-family="sans-serif" font-size="12.843">P</text>
			<text transform="matrix(1 0 0 1 353.7266 202.9717)" font-family="sans-serif" font-size="12.843">T</text>
			<text transform="matrix(1 0 0 1 361.9824 202.9717)" font-family="sans-serif" font-size="12.843"> </text>
			<text transform="matrix(1 0 0 1 365.6406 202.9717)" font-family="sans-serif" font-size="12.843">1</text>
		</g>
		<g>
			
				<rect x="204.791" y="221.821" transform="matrix(0.65 -0.76 0.76 0.65 -127.2576 260.1669)" fill="none" stroke="#000000" stroke-width="2.2146" stroke-linecap="round" stroke-miterlimit="8" width="28.008" height="92.814"/>
			<text transform="matrix(0.76 0.65 -0.65 0.76 188.6509 248.3184)" font-family="sans-serif" font-size="14.0014">RADIUS (M)</text>
		</g>
	</g>
</g>
<g id="example" display="none">
	<text id="varWeW1e" transform="matrix(1 0 0 1 129.4214 276.4668)" display="inline" enable-background="new    "><tspan x="0" y="0" font-family="sans-serif" font-size="21">281400ZAPR08 -</tspan><tspan x="0" y="25.2" font-family="sans-serif" font-size="21">281530ZAPR08</tspan></text>
	<text id="VarYeYne" transform="matrix(1 0 0 1 136.4209 249.377)" display="inline" font-family="sans-serif" font-size="21">NK2312 to NK3013</text>
	<text id="varX1e" transform="matrix(1 0 0 1 170.4253 193.9639)" display="inline" font-family="sans-serif" font-size="21">3000 FT AGL</text>
	<text id="varXe" transform="matrix(1 0 0 1 169.6426 169.1328)" display="inline" font-family="sans-serif" font-size="21">500 FT AGL</text>
	<text id="varTe" transform="matrix(1 0 0 1 82.4497 131.4414)" display="inline" font-family="sans-serif" font-size="21">53ID(M)</text>
</g>
</svg>
