<?xml version="1.0" encoding="utf-8"?>
<!-- Generator: Adobe Illustrator 16.0.0, SVG Export Plug-In . SVG Version: 6.00 Build 0)  -->
<!DOCTYPE svg PUBLIC "-//W3C//DTD SVG 1.1//EN" "http://www.w3.org/Graphics/SVG/1.1/DTD/svg11.dtd">
<svg version="1.1" id="Version_1.0" xmlns="http://www.w3.org/2000/svg" xmlns:xlink="http://www.w3.org/1999/xlink" x="0px"
	 y="0px" width="400px" height="400px" viewBox="0 0 400 400" enable-background="new 0 0 400 400" xml:space="preserve">
<g id="main">
	<path fill="none" stroke="#000000" stroke-width="5" stroke-linecap="round" stroke-linejoin="round" stroke-miterlimit="10" d="
		M205.543,46.847c-86.479,0-156.582,67.732-156.582,151.288c0,83.576,70.103,151.309,156.582,151.309
		c86.48,0,156.581-67.731,156.581-151.309C362.124,114.579,292.023,46.847,205.543,46.847"/>
	<g>
		<rect x="182.408" y="334.189" fill="#FFFFFF" width="49.307" height="29.188"/>
		<text transform="matrix(1 0 0 1 186.417 355.668)" font-family="sans-serif" font-size="20.8061">PAA</text>
	</g>
	<g>
		<rect x="182.571" y="31.189" fill="#FFFFFF" width="49.307" height="29.188"/>
		<text transform="matrix(1 0 0 1 186.5801 52.668)" font-family="sans-serif" font-size="20.8061">PAA</text>
	</g>
	<g>
		<rect x="24.307" y="183.551" fill="#FFFFFF" width="49.307" height="29.188"/>
		<text transform="matrix(1 0 0 1 28.3164 205.0293)" font-family="sans-serif" font-size="20.8061">PAA</text>
	</g>
	<g>
		<rect x="339.473" y="180.869" fill="#FFFFFF" width="49.309" height="29.188"/>
		<text transform="matrix(1 0 0 1 343.4814 202.3467)" font-family="sans-serif" font-size="20.8061">PAA</text>
	</g>
</g>
<g id="template" display="none">
	<g id="varAM" display="inline">
		
			<rect x="257.629" y="218.605" transform="matrix(0.6486 -0.7611 0.7611 0.6486 -88.7413 292.96)" fill="none" stroke="#000000" stroke-width="3" stroke-linecap="round" stroke-miterlimit="8" width="30.578" height="47.972"/>
		<text transform="matrix(0.7612 0.6486 -0.6486 0.7612 258.9395 238.2725)" font-family="sans-serif" font-size="19.2665">AM</text>
	</g>
	<g id="points" display="inline">
		<path stroke="#000000" stroke-width="0.3058" stroke-linejoin="bevel" stroke-miterlimit="10" d="M204.339,210.367l103.031,87.436
			c0.536,0.459,0.611,1.26,0.151,1.797c-0.46,0.535-1.263,0.592-1.797,0.151l-103.05-87.455c-0.536-0.458-0.594-1.262-0.135-1.797
			C202.98,209.964,203.805,209.906,204.339,210.367L204.339,210.367z M309.547,291.303l6.71,15.711l-16.588-4.052L309.547,291.303z"
			/>
		<g>
			<path stroke="#000000" stroke-width="0.3058" stroke-linejoin="bevel" stroke-miterlimit="10" d="M357.281,113.948
				l-141.69,90.827c-0.592,0.385-1.385,0.218-1.771-0.375c-0.368-0.604-0.19-1.381,0.402-1.768l141.688-90.828
				c0.592-0.385,1.387-0.215,1.756,0.387C358.052,112.785,357.873,113.563,357.281,113.948L357.281,113.948z M221.182,208.777
				l-17.016,1.808l8.762-14.678L221.182,208.777z"/>
			<text transform="matrix(1 0 0 1 350.4688 105.9717)" font-family="sans-serif" font-size="12.843">P</text>
			<text transform="matrix(1 0 0 1 358.7266 105.9717)" font-family="sans-serif" font-size="12.843">T</text>
			<text transform="matrix(1 0 0 1 366.9824 105.9717)" font-family="sans-serif" font-size="12.843"> </text>
			<text transform="matrix(1 0 0 1 370.6406 105.9717)" font-family="sans-serif" font-size="12.843">1</text>
		</g>
		<g>
			
				<rect x="226.791" y="221.818" transform="matrix(0.65 -0.76 0.76 0.65 -119.5544 276.8849)" fill="none" stroke="#000000" stroke-width="2.2146" stroke-linecap="round" stroke-miterlimit="8" width="28.009" height="92.814"/>
			<text transform="matrix(0.76 0.65 -0.65 0.76 210.6504 248.3184)" font-family="sans-serif" font-size="14.0014">RADIUS (M)</text>
		</g>
	</g>
</g>
</svg>
