<?xml version="1.0" encoding="utf-8"?>
<!-- Generator: Adobe Illustrator 16.0.0, SVG Export Plug-In . SVG Version: 6.00 Build 0)  -->
<!DOCTYPE svg PUBLIC "-//W3C//DTD SVG 1.1//EN" "http://www.w3.org/Graphics/SVG/1.1/DTD/svg11.dtd">
<svg version="1.1" id="Version_1.0" xmlns="http://www.w3.org/2000/svg" xmlns:xlink="http://www.w3.org/1999/xlink" x="0px"
	 y="0px" width="400px" height="400px" viewBox="0 0 400 400" enable-background="new 0 0 400 400" xml:space="preserve">
<g id="main">
	<text transform="matrix(1 0 0 1 177.9268 202.2627)" font-family="sans-serif" font-size="31">FPF</text>
	
		<line fill="none" stroke="#000000" stroke-width="5" stroke-linejoin="round" stroke-miterlimit="10" x1="17.745" y1="154.801" x2="382.002" y2="154.801"/>
	
		<line fill="none" stroke="#000000" stroke-width="5" stroke-linejoin="round" stroke-miterlimit="10" x1="17.745" y1="115.133" x2="17.745" y2="194.447"/>
	
		<line fill="none" stroke="#000000" stroke-width="5" stroke-linejoin="round" stroke-miterlimit="10" x1="382.002" y1="115.133" x2="382.002" y2="194.447"/>
</g>
<g id="template" display="none">
	<g id="varAP" display="inline">
		
			<rect x="169.544" y="98.5" fill="none" stroke="#000000" stroke-width="3.269" stroke-linecap="round" stroke-miterlimit="8" width="63.956" height="49.233"/>
		<text transform="matrix(1 0 0 1 180.9424 133.418)" font-family="sans-serif" font-size="31.0676">AP</text>
	</g>
	<g id="varT1" display="inline">
		
			<rect x="177.523" y="210.079" fill="none" stroke="#000000" stroke-width="3.269" stroke-linecap="round" stroke-miterlimit="8" width="52.977" height="50.421"/>
		<text transform="matrix(1 0 0 1 185.4521 247.374)" font-family="sans-serif" font-size="31.0676">T1</text>
	</g>
	<g id="varV" display="inline">
		
			<rect x="177.927" y="269.322" fill="none" stroke="#000000" stroke-width="3.269" stroke-linecap="round" stroke-miterlimit="8" width="52.573" height="45.178"/>
		<text transform="matrix(1 0 0 1 195.6392 304.2783)" font-family="sans-serif" font-size="31.0676">V</text>
	</g>
	<g id="points" display="inline">
		<g>
			<g>
				<path stroke="#000000" stroke-width="0.3933" stroke-linejoin="bevel" stroke-miterlimit="10" d="M59.579,193.244l-9.955-8.014
					c-0.714-0.563-0.812-1.597-0.247-2.31c0.565-0.686,1.598-0.81,2.31-0.244l9.955,8.014c0.713,0.563,0.812,1.594,0.245,2.307
					C61.323,193.686,60.291,193.807,59.579,193.244L59.579,193.244z M47.043,193.659L27.65,165.471l31.706,12.878L47.043,193.659z"
					/>
				
					<line fill="none" stroke="#000000" stroke-width="2.4579" stroke-linecap="round" stroke-linejoin="round" stroke-miterlimit="10" x1="60.364" y1="252.945" x2="60.364" y2="189.532"/>
			</g>
			<text transform="matrix(1 0 0 1 37.3398 296.2529)" font-family="sans-serif" font-size="31.0676">P</text>
			<text transform="matrix(1 0 0 1 58.1548 296.2529)" font-family="sans-serif" font-size="31.0676">T</text>
			<text transform="matrix(1 0 0 1 77.4116 296.2529)" font-family="sans-serif" font-size="31.0676"> 1  </text>
		</g>
		<g>
			<g>
				<path stroke="#000000" stroke-width="0.3933" stroke-linejoin="bevel" stroke-miterlimit="10" d="M338.128,190.69l9.956-8.014
					c0.712-0.566,1.746-0.442,2.313,0.244c0.563,0.713,0.465,1.747-0.246,2.31l-9.979,8.014c-0.688,0.563-1.721,0.442-2.287-0.247
					C337.319,192.284,337.418,191.253,338.128,190.69L338.128,190.69z M340.413,178.349l31.71-12.878l-19.396,28.188
					L340.413,178.349z"/>
				
					<line fill="none" stroke="#000000" stroke-width="2.4579" stroke-linecap="round" stroke-linejoin="round" stroke-miterlimit="10" x1="339.578" y1="252.945" x2="339.578" y2="189.532"/>
			</g>
			<text transform="matrix(1 0 0 1 306.3242 296.2529)" font-family="sans-serif" font-size="31.0676">P</text>
			<text transform="matrix(1 0 0 1 327.1387 296.2529)" font-family="sans-serif" font-size="31.0676">T</text>
			<text transform="matrix(1 0 0 1 346.3965 296.2529)" font-family="sans-serif" font-size="31.0676"> 2  </text>
		</g>
	</g>
</g>
<g id="example" display="none">
	<text id="varVe" transform="matrix(1 0 0 1 139.8384 290.2783)" display="inline" font-family="sans-serif" font-size="31">MORTAR</text>
	<text id="varT1e" transform="matrix(1 0 0 1 140.6943 245.374)" display="inline" font-family="sans-serif" font-size="31">12 IN BN</text>
	<text id="varAPe" transform="matrix(1 0 0 1 147.9326 133.418)" display="inline" font-family="sans-serif" font-size="31">QC1968</text>
</g>
</svg>
