<?xml version="1.0" encoding="utf-8"?>
<!-- Generator: Adobe Illustrator 16.0.0, SVG Export Plug-In . SVG Version: 6.00 Build 0)  -->
<!DOCTYPE svg PUBLIC "-//W3C//DTD SVG 1.1//EN" "http://www.w3.org/Graphics/SVG/1.1/DTD/svg11.dtd">
<svg version="1.1" id="Version_1.0" xmlns="http://www.w3.org/2000/svg" xmlns:xlink="http://www.w3.org/1999/xlink" x="0px"
	 y="0px" width="400px" height="400px" viewBox="0 0 400 400" enable-background="new 0 0 400 400" xml:space="preserve">
<g id="main">
	
		<line fill="none" stroke="#000000" stroke-width="4.8501" stroke-linejoin="round" stroke-miterlimit="10" x1="74.857" y1="196.378" x2="142.795" y2="196.378"/>
	
		<line fill="none" stroke="#000000" stroke-width="4.8501" stroke-linejoin="round" stroke-miterlimit="10" x1="142.795" y1="142.062" x2="142.795" y2="246.691"/>
	<path stroke="#000000" stroke-width="0.2906" stroke-linejoin="bevel" stroke-miterlimit="10" d="M140.795,141.647h91.551v4.85
		h-91.551V141.647L140.795,141.647z M229.912,131.965l24.232,12.097l-24.232,12.117V131.965L229.912,131.965z"/>
	<path stroke="#000000" stroke-width="0.2906" stroke-linejoin="bevel" stroke-miterlimit="10" d="M142.795,193.961h57.508v4.851
		h-57.508V193.961L142.795,193.961z M197.889,184.28l24.212,12.098l-24.212,12.115V184.28L197.889,184.28z"/>
	<path stroke="#000000" stroke-width="0.2906" stroke-linejoin="bevel" stroke-miterlimit="10" d="M140.795,245.277h34.875v4.849
		h-34.875V245.277L140.795,245.277z M173.236,235.595l24.232,12.099l-24.232,12.117V235.595L173.236,235.595z"/>
</g>
<g id="template" display="none">
	<g display="inline">
		<path stroke="#000000" stroke-width="0.2906" stroke-linejoin="bevel" stroke-miterlimit="10" d="M304.336,145.279h-12.952
			c-0.672,0-1.218-0.544-1.218-1.217c0-0.653,0.546-1.198,1.218-1.198h12.952c0.671,0,1.216,0.545,1.216,1.198
			C305.552,144.735,305.007,145.279,304.336,145.279L304.336,145.279z M293.799,151.328l-24.213-7.266l24.213-7.266V151.328z"/>
		<text transform="matrix(1 0 0 1 317.332 151.9473)" font-family="sans-serif" font-size="22.9605">PT 3</text>
	</g>
	<g display="inline">
		<path stroke="#000000" stroke-width="0.2906" stroke-linejoin="bevel" stroke-miterlimit="10" d="M91.932,247.24h9.082
			c0.673,0,1.2,0.544,1.2,1.216s-0.527,1.218-1.2,1.218h-9.082c-0.672,0-1.217-0.546-1.217-1.218S91.26,247.24,91.932,247.24
			L91.932,247.24z M98.581,241.189l24.231,7.267l-24.231,7.267V241.189z"/>
		<text transform="matrix(1 0 0 1 29.1299 256.7637)" font-family="sans-serif" font-size="22.9605">PT 2</text>
	</g>
	<g display="inline">
		<path stroke="#000000" stroke-width="0.2906" stroke-linejoin="bevel" stroke-miterlimit="10" d="M93.857,146.497h12.97
			c0.673,0,1.199,0.544,1.199,1.197c0,0.674-0.526,1.218-1.199,1.218h-12.97c-0.654,0-1.198-0.544-1.198-1.218
			C92.659,147.042,93.203,146.497,93.857,146.497L93.857,146.497z M104.393,140.429l24.231,7.266l-24.231,7.267V140.429z"/>
		<text transform="matrix(1 0 0 1 35.2227 155.04)" font-family="sans-serif" font-size="22.9605">PT 1</text>
	</g>
</g>
<g id="example" display="none">
	
		<line display="inline" fill="#00FF00" stroke="#00FF00" stroke-width="4.8501" stroke-linejoin="round" stroke-miterlimit="10" x1="132.857" y1="196.378" x2="200.795" y2="196.378"/>
	
		<line display="inline" fill="#00FF00" stroke="#00FF00" stroke-width="4.8501" stroke-linejoin="round" stroke-miterlimit="10" x1="200.795" y1="142.062" x2="200.795" y2="246.691"/>
	<path display="inline" fill="#00FF00" stroke="#00FF00" stroke-width="0.2906" stroke-linejoin="bevel" stroke-miterlimit="10" d="
		M198.795,141.647h91.551v4.85h-91.551V141.647L198.795,141.647z M287.912,131.965l24.232,12.097l-24.232,12.117V131.965
		L287.912,131.965z"/>
	<path display="inline" fill="#00FF00" stroke="#00FF00" stroke-width="0.2906" stroke-linejoin="bevel" stroke-miterlimit="10" d="
		M200.795,193.961h57.508v4.851h-57.508V193.961L200.795,193.961z M255.889,184.28l24.213,12.098l-24.213,12.115V184.28
		L255.889,184.28z"/>
	<path display="inline" fill="#00FF00" stroke="#00FF00" stroke-width="0.2906" stroke-linejoin="bevel" stroke-miterlimit="10" d="
		M198.795,245.277h34.875v4.849h-34.875V245.277L198.795,245.277z M231.236,235.595l24.231,12.099l-24.231,12.117V235.595
		L231.236,235.595z"/>
	<g display="inline">
		<polygon fill-rule="evenodd" clip-rule="evenodd" fill="#969696" points="338.947,256.149 367.941,239.454 367.941,272.844 
			338.947,256.149 		"/>
		<polygon fill-rule="evenodd" clip-rule="evenodd" fill="#969696" points="338.947,222.826 367.941,206.198 367.941,239.454 
			338.947,222.826 		"/>
		<polygon fill-rule="evenodd" clip-rule="evenodd" fill="#969696" points="338.947,189.504 367.941,172.808 367.941,206.198 
			338.947,189.504 		"/>
	</g>
	<polyline display="inline" fill="none" stroke="#969696" stroke-width="3" stroke-linejoin="round" stroke-miterlimit="8" points="
		319.368,216.972 319.368,225.32 300.218,233.668 319.368,242.016 319.368,258.71 300.218,266.924 319.368,275.54 319.368,292.236 
		300.218,300.584 319.368,308.93 319.368,317.277 	"/>
	
		<polygon display="inline" fill-rule="evenodd" clip-rule="evenodd" fill="#FF8080" stroke="#808080" stroke-miterlimit="10" points="
		61.414,149.599 5.582,196.385 61.414,243.174 117.246,196.385 61.414,149.599 	"/>
</g>
</svg>
