<?xml version="1.0" encoding="utf-8"?>
<!-- Generator: Adobe Illustrator 16.0.0, SVG Export Plug-In . SVG Version: 6.00 Build 0)  -->
<!DOCTYPE svg PUBLIC "-//W3C//DTD SVG 1.1//EN" "http://www.w3.org/Graphics/SVG/1.1/DTD/svg11.dtd">
<svg version="1.1" id="Version_1.0" xmlns="http://www.w3.org/2000/svg" xmlns:xlink="http://www.w3.org/1999/xlink" x="0px"
	 y="0px" width="400px" height="400px" viewBox="0 0 400 400" enable-background="new 0 0 400 400" xml:space="preserve">
<g id="main">
	<polyline fill="none" stroke="#000000" stroke-width="5" points="102.5,31 152.5,81 152.5,281 102.5,331 	"/>
	<polyline fill="none" stroke="#000000" stroke-width="5" points="302.5,31 252.5,81 252.5,281 302.5,331 	"/>
</g>
<g id="template" display="none">
	<g display="inline">
		<text transform="matrix(1 0 0 1 337.5 181)" font-family="sans-serif" font-size="18">PT 3</text>
		<g>
			<g>
				<line fill="none" stroke="#000000" stroke-width="5" x1="328.5" y1="177" x2="273.5" y2="177"/>
				<polygon points="277.146,164.496 255.559,176.961 277.146,189.425 				"/>
			</g>
		</g>
	</g>
	<g display="inline">
		<text transform="matrix(1 0 0 1 32.5 86)" font-family="sans-serif" font-size="18">PT 1</text>
		<g>
			<g>
				<line fill="none" stroke="#000000" stroke-width="5" x1="80.5" y1="81" x2="130.5" y2="81"/>
				<polygon points="126.853,93.504 148.442,81.039 126.853,68.574 				"/>
			</g>
		</g>
	</g>
	<g display="inline">
		<text transform="matrix(1 0 0 1 32.5 286)" font-family="sans-serif" font-size="18">PT 2</text>
		<g>
			<g>
				<line fill="none" stroke="#000000" stroke-width="5" x1="81.5" y1="281" x2="131.5" y2="281"/>
				<polygon points="127.853,293.504 149.442,281.039 127.853,268.574 				"/>
			</g>
		</g>
	</g>
</g>
<g id="example" display="none">
	<path display="inline" fill="none" stroke="#808080" stroke-width="5" stroke-miterlimit="10" d="M51.5,138.5
		c17.994-0.235,37.248,0.402,55.109-2.055c9.403-1.293,16.242-5.421,25.327-8.746c8.307-3.04,22.048-6.646,30.496-3.319
		c10.049,3.958,20.278,16.582,31.861,17.18c8.423,0.436,13.339-7.364,20.958-9.159c12.638-2.978,28.074-0.241,41.216-2.199
		c17.67-2.633,36.744-0.132,54.633,0.098c10.262,0.132,30.116,2.308,38.4-1.801"/>
	<path display="inline" fill="none" stroke="#808080" stroke-width="5" stroke-miterlimit="10" d="M61.5,227.5
		c24.86,0,56.921,5.421,80.558-3.054c5.723-2.052,9.091-5.622,15.244-6.994c33.929-7.569,69.694,20.763,103.155,8.472
		c5.395-1.981,8.334-6.411,14.995-7.963c5.631-1.313,11.193-1.322,16.909-1.457c5.281-0.125,10.922-0.517,16.162-0.004
		c11.038,1.079,21.839,5.08,32.977,5"/>
</g>
</svg>
