<?xml version="1.0" encoding="utf-8"?>
<!-- Generator: Adobe Illustrator 16.0.0, SVG Export Plug-In . SVG Version: 6.00 Build 0)  -->
<!DOCTYPE svg PUBLIC "-//W3C//DTD SVG 1.1//EN" "http://www.w3.org/Graphics/SVG/1.1/DTD/svg11.dtd">
<svg version="1.1" id="Version_1.0" xmlns="http://www.w3.org/2000/svg" xmlns:xlink="http://www.w3.org/1999/xlink" x="0px"
	 y="0px" width="400px" height="400px" viewBox="0 0 400 400" enable-background="new 0 0 400 400" xml:space="preserve">
<g id="main">
	<polygon id="_x3C_path_x3E_" fill="none" stroke="#000000" stroke-width="5" points="327.545,283.492 309.648,318.46 
		291.621,283.492 255.871,283.492 237.975,318.46 219.947,283.492 184.197,283.492 166.301,318.46 148.272,283.492 112.524,283.492 
		94.628,318.46 76.599,283.492 58.185,283.492 58.172,266.135 20,248.547 58.146,231.396 58.121,196.35 22.821,178.917 
		58.095,161.614 58.069,126.592 20,108.475 58.043,91.853 58.031,74.34 84.194,80.299 110.039,50.498 119.129,88.352 
		154.108,96.415 179.975,66.546 189.002,104.409 223.869,112.397 249.716,82.597 258.826,120.456 293.783,128.514 319.653,101.526 
		328.746,136.549 346.111,140.54 345.913,163.491 381.19,178.763 345.632,196.219 345.331,231.09 383.5,248.68 345.031,265.902 
		344.881,283.492 	"/>
</g>
<g id="template" display="none">
	
		<rect x="168.114" y="159.496" display="inline" fill="none" stroke="#000000" stroke-width="2.1924" stroke-linecap="round" stroke-miterlimit="8" width="66.21" height="65.332"/>
	<text transform="matrix(1 0 0 1 190.6133 204.5869)" display="inline" font-family="sans-serif" font-size="35.078">T</text>
</g>
<g id="example" display="none">
	<text id="varTe" transform="matrix(1 0 0 1 134.4971 251.5869)" display="inline" font-family="sans-serif" font-size="35.078">5-7 RAR</text>
	<g display="inline">
		<g>
			<path fill="none" stroke="#808080" stroke-width="5" stroke-linejoin="round" d="M96.979,147.194
				c19.572,0,37.308,4.795,50.222,12.565"/>
			<g>
				<polygon fill="#808080" points="135.834,163.149 144.555,158.136 147,148.379 158.923,168.999 				"/>
			</g>
		</g>
	</g>
	<g display="inline">
		<g>
			<polyline fill="none" stroke="#808080" stroke-width="5" stroke-linejoin="round" points="167.97,186.003 201.378,186.003 
				214.773,158.097 234.952,208.456 254.962,158.097 268.357,186.003 284.576,186.003 			"/>
			<g>
				<polygon fill="#808080" points="277.555,195.261 281.486,186.003 277.555,176.745 299.5,186.003 				"/>
			</g>
		</g>
	</g>
	<polygon id="_x3C_path_x3E__1_" display="inline" fill="none" stroke="#00FF00" stroke-width="5" points="327.545,283.492 
		309.648,318.46 291.621,283.492 255.871,283.492 237.975,318.46 219.947,283.492 184.197,283.492 166.301,318.46 148.272,283.492 
		112.524,283.492 94.628,318.46 76.599,283.492 58.185,283.492 58.172,266.135 20,248.547 58.146,231.396 58.121,196.35 
		22.821,178.917 58.095,161.614 58.069,126.592 20,108.475 58.043,91.853 58.031,74.34 84.194,80.299 110.039,50.498 
		119.129,88.352 154.108,96.415 179.975,66.546 189.002,104.409 223.869,112.397 249.716,82.597 258.826,120.456 293.783,128.514 
		319.653,101.526 328.746,136.549 346.111,140.54 345.913,163.491 381.19,178.763 345.632,196.219 345.331,231.09 383.5,248.68 
		345.031,265.902 344.881,283.492 	"/>
</g>
</svg>
