<?xml version="1.0" encoding="utf-8"?>
<!-- Generator: Adobe Illustrator 16.0.0, SVG Export Plug-In . SVG Version: 6.00 Build 0)  -->
<!DOCTYPE svg PUBLIC "-//W3C//DTD SVG 1.1//EN" "http://www.w3.org/Graphics/SVG/1.1/DTD/svg11.dtd">
<svg version="1.1" id="Version_1.0" xmlns="http://www.w3.org/2000/svg" xmlns:xlink="http://www.w3.org/1999/xlink" x="0px"
	 y="0px" width="400px" height="400px" viewBox="0 0 400 400" enable-background="new 0 0 400 400" xml:space="preserve">
<g id="main">
	
		<line fill="none" stroke="#000000" stroke-width="5" stroke-linejoin="round" stroke-miterlimit="10" stroke-dasharray="12" x1="285.279" y1="107.943" x2="157.792" y2="292.096"/>
	
		<line fill="none" stroke="#000000" stroke-width="5" stroke-linejoin="round" stroke-miterlimit="10" stroke-dasharray="12" x1="327.777" y1="107.943" x2="200.287" y2="292.096"/>
</g>
<g id="template" display="none">
	<g display="inline">
		<path stroke="#000000" stroke-width="0.2833" stroke-linejoin="bevel" stroke-miterlimit="10" d="M164.999,189.395l40.371-0.371
			c0.653-0.019,1.188,0.513,1.188,1.168c0.019,0.638-0.517,1.187-1.17,1.187l-40.374,0.39c-0.655,0-1.186-0.514-1.186-1.168
			C163.813,189.943,164.343,189.412,164.999,189.395L164.999,189.395z M202.943,183.145l23.675,6.852l-23.53,7.313L202.943,183.145z
			"/>
		<text transform="matrix(1 0 0 1 110.1323 197.333)" font-family="sans-serif" font-size="24">PT 3</text>
	</g>
	<g display="inline">
		
			<line fill="none" stroke="#000000" stroke-width="1.7707" stroke-linecap="round" stroke-linejoin="round" stroke-miterlimit="10" x1="149.292" y1="304.739" x2="130.647" y2="304.739"/>
		<path stroke="#000000" stroke-width="0.2833" stroke-linejoin="bevel" stroke-miterlimit="10" d="M148.956,303.604l15.104-4.619
			c0.62-0.195,1.275,0.158,1.47,0.775c0.195,0.62-0.159,1.275-0.779,1.473l-15.104,4.64c-0.62,0.178-1.275-0.159-1.47-0.798
			C147.981,304.455,148.335,303.801,148.956,303.604L148.956,303.604z M160.058,294.023l24.648-0.158l-20.487,13.705
			L160.058,294.023z"/>
		<text transform="matrix(1 0 0 1 73.6187 313.4795)" font-family="sans-serif" font-size="24">PT 2</text>
	</g>
	<g display="inline">
		
			<line fill="none" stroke="#000000" stroke-width="1.7707" stroke-linecap="round" stroke-linejoin="round" stroke-miterlimit="10" x1="278.197" y1="92.608" x2="259.677" y2="92.608"/>
		<path stroke="#000000" stroke-width="0.2833" stroke-linejoin="bevel" stroke-miterlimit="10" d="M278.678,91.475l15.086,4.64
			c0.637,0.176,0.973,0.85,0.797,1.469c-0.194,0.62-0.851,0.974-1.487,0.779l-15.087-4.622c-0.637-0.195-0.973-0.867-0.795-1.487
			C277.384,91.635,278.039,91.28,278.678,91.475L278.678,91.475z M293.249,89.776l20.487,13.687l-24.649-0.142L293.249,89.776z"/>
		<text transform="matrix(1 0 0 1 202.8232 98.1572)" font-family="sans-serif" font-size="24">PT 1</text>
	</g>
</g>
<g id="example" display="none">
	<path display="inline" fill="none" stroke="#808080" stroke-width="5" stroke-linejoin="round" stroke-miterlimit="8" d="
		M16.166,185.742c12.694,1.267,25.389,2.534,45.699,0c20.312-2.535,50.778-15.208,76.167-15.208
		c25.388,0,55.854,10.139,76.165,15.208c20.312,5.069,17.773,15.207,45.699,15.207c27.928,0,101.557-12.673,121.865-15.207"/>
	<path display="inline" fill="none" stroke="#808080" stroke-width="5" stroke-linejoin="round" stroke-miterlimit="8" d="
		M16.166,216.157c12.694,1.267,25.389,2.536,45.699,0c20.312-2.532,50.778-15.208,76.167-15.208
		c25.388,0,55.854,10.14,76.165,15.208c20.312,5.07,17.773,15.209,45.699,15.209c27.928,0,101.557-12.673,121.865-15.209"/>
	
		<line display="inline" fill="none" stroke="#00FF00" stroke-width="5" stroke-linejoin="round" stroke-miterlimit="10" stroke-dasharray="12" x1="285.279" y1="107.943" x2="157.792" y2="292.096"/>
	
		<line display="inline" fill="none" stroke="#00FF00" stroke-width="5" stroke-linejoin="round" stroke-miterlimit="10" stroke-dasharray="12" x1="327.777" y1="107.943" x2="200.287" y2="292.096"/>
</g>
</svg>
