<?xml version="1.0" encoding="utf-8"?>
<!-- Generator: Adobe Illustrator 16.0.0, SVG Export Plug-In . SVG Version: 6.00 Build 0)  -->
<!DOCTYPE svg PUBLIC "-//W3C//DTD SVG 1.1//EN" "http://www.w3.org/Graphics/SVG/1.1/DTD/svg11.dtd">
<svg version="1.1" id="Version_1.0" xmlns="http://www.w3.org/2000/svg" xmlns:xlink="http://www.w3.org/1999/xlink" x="0px"
	 y="0px" width="400px" height="400px" viewBox="0 0 400 400" enable-background="new 0 0 400 400" xml:space="preserve">
<g id="main">
	<polyline fill="none" stroke="#000000" stroke-width="5" points="101.797,167.287 152.5,167.287 164.797,205.035 200,135.787 
		230.797,205.035 250.797,167.287 311.297,167.287 	"/>
	<polyline fill="none" stroke="#000000" stroke-width="5" points="276.297,132.287 311.297,167.167 277.221,195.46 	"/>
</g>
<g id="points" transform="translate(-220 -200) scale(1.75 1.75)" display="none">
	<line display="inline" fill="none" stroke="#000000" stroke-width="2" x1="182.884" y1="221.449" x2="182.884" y2="245.449"/>
	<line display="inline" fill="none" stroke="#000000" stroke-width="2" x1="182.671" y1="244.792" x2="194.884" y2="262.449"/>
	<polygon display="inline" stroke="#000000" stroke-width="2" points="182.884,215.449 186.884,226.448 178.884,226.448 	"/>
	<line display="inline" fill="none" stroke="#000000" stroke-width="2" x1="306.259" y1="221.878" x2="306.259" y2="245.878"/>
	<line display="inline" fill="none" stroke="#000000" stroke-width="2" x1="306.472" y1="245.22" x2="294.259" y2="262.878"/>
	<polygon display="inline" stroke="#000000" stroke-width="2" points="306.259,215.877 302.259,226.877 310.259,226.877 	"/>
	<text transform="matrix(0.5714 0 0 0.5714 198.8831 269.4492)" display="inline" font-family="sans-serif" font-size="20.9978">PT. 2</text>
	<text transform="matrix(0.5714 0 0 0.5714 262.1685 273.8778)" display="inline" font-family="sans-serif" font-size="20.9978">PT. 1</text>
</g>
<g display="none">
	<g display="inline">
		<polygon fill-rule="evenodd" clip-rule="evenodd" fill="#969696" points="123.809,239.545 146.176,226.666 146.176,252.425 
			123.809,239.545 		"/>
		<polygon fill-rule="evenodd" clip-rule="evenodd" fill="#969696" points="123.809,213.84 146.176,201.014 146.176,226.666 
			123.809,213.84 		"/>
		<polygon fill-rule="evenodd" clip-rule="evenodd" fill="#969696" points="123.809,188.133 146.176,175.255 146.176,201.014 
			123.809,188.133 		"/>
	</g>
	<polygon display="inline" fill-rule="evenodd" clip-rule="evenodd" fill="#FF8080" points="52.483,131.062 9.413,167.153 
		52.483,203.247 95.553,167.153 52.483,131.062 	"/>
	
		<polygon display="inline" fill="none" stroke="#808080" stroke-width="0.7489" stroke-linecap="round" stroke-linejoin="round" stroke-miterlimit="8" points="
		52.483,131.062 9.413,167.153 52.483,203.247 95.553,167.153 52.483,131.062 	"/>
	<g display="inline">
		<polygon fill-rule="evenodd" clip-rule="evenodd" fill="#969696" points="218.484,159.891 240.851,147.064 240.851,172.72 
			218.484,159.891 		"/>
		<polygon fill-rule="evenodd" clip-rule="evenodd" fill="#969696" points="218.484,134.187 240.851,121.307 240.851,147.064 
			218.484,134.187 		"/>
		<polygon fill-rule="evenodd" clip-rule="evenodd" fill="#969696" points="218.484,108.48 240.851,95.653 240.851,121.307 
			218.484,108.48 		"/>
	</g>
	<g display="inline">
		
			<line fill="none" stroke="#969696" stroke-width="1.9971" stroke-linejoin="round" stroke-miterlimit="8" x1="208.946" y1="215.524" x2="191.054" y2="227.572"/>
		
			<line fill="none" stroke="#969696" stroke-width="1.9971" stroke-linejoin="round" stroke-miterlimit="8" x1="191.054" y1="214.693" x2="208.946" y2="228.404"/>
		
			<line fill="none" stroke="#969696" stroke-width="1.9971" stroke-linejoin="round" stroke-miterlimit="8" x1="200" y1="165.255" x2="200" y2="256.342"/>
		
			<line fill="none" stroke="#969696" stroke-width="1.9971" stroke-linejoin="round" stroke-miterlimit="8" x1="208.946" y1="193.4" x2="191.054" y2="205.45"/>
		
			<line fill="none" stroke="#969696" stroke-width="1.9971" stroke-linejoin="round" stroke-miterlimit="8" x1="191.054" y1="192.57" x2="208.946" y2="206.281"/>
		
			<line fill="none" stroke="#969696" stroke-width="1.9971" stroke-linejoin="round" stroke-miterlimit="8" x1="208.946" y1="234.428" x2="191.054" y2="246.371"/>
		
			<line fill="none" stroke="#969696" stroke-width="1.9971" stroke-linejoin="round" stroke-miterlimit="8" x1="191.054" y1="233.596" x2="208.946" y2="247.202"/>
		
			<line fill="none" stroke="#969696" stroke-width="1.9971" stroke-linejoin="round" stroke-miterlimit="8" x1="208.946" y1="172.941" x2="191.054" y2="184.885"/>
		
			<line fill="none" stroke="#969696" stroke-width="1.9971" stroke-linejoin="round" stroke-miterlimit="8" x1="191.054" y1="172.111" x2="208.946" y2="185.716"/>
	</g>
	<g display="inline">
		
			<line fill="none" stroke="#969696" stroke-width="1.9971" stroke-linejoin="round" stroke-miterlimit="8" x1="178.45" y1="132.856" x2="160.453" y2="144.904"/>
		
			<line fill="none" stroke="#969696" stroke-width="1.9971" stroke-linejoin="round" stroke-miterlimit="8" x1="160.453" y1="132.025" x2="178.45" y2="145.734"/>
		
			<line fill="none" stroke="#969696" stroke-width="1.9971" stroke-linejoin="round" stroke-miterlimit="8" x1="169.503" y1="82.586" x2="169.503" y2="173.674"/>
		
			<line fill="none" stroke="#969696" stroke-width="1.9971" stroke-linejoin="round" stroke-miterlimit="8" x1="178.45" y1="110.732" x2="160.453" y2="122.781"/>
		
			<line fill="none" stroke="#969696" stroke-width="1.9971" stroke-linejoin="round" stroke-miterlimit="8" x1="160.453" y1="109.902" x2="178.45" y2="123.612"/>
		
			<line fill="none" stroke="#969696" stroke-width="1.9971" stroke-linejoin="round" stroke-miterlimit="8" x1="178.45" y1="151.759" x2="160.453" y2="163.704"/>
		
			<line fill="none" stroke="#969696" stroke-width="1.9971" stroke-linejoin="round" stroke-miterlimit="8" x1="160.453" y1="150.928" x2="178.45" y2="164.534"/>
		
			<line fill="none" stroke="#969696" stroke-width="1.9971" stroke-linejoin="round" stroke-miterlimit="8" x1="178.45" y1="90.273" x2="160.453" y2="102.217"/>
		
			<line fill="none" stroke="#969696" stroke-width="1.9971" stroke-linejoin="round" stroke-miterlimit="8" x1="160.453" y1="89.44" x2="178.45" y2="103.047"/>
	</g>
	<g display="inline">
		
			<line fill="none" stroke="#969696" stroke-width="1.9971" stroke-linejoin="round" stroke-miterlimit="8" x1="269.913" y1="223.483" x2="252.021" y2="235.531"/>
		
			<line fill="none" stroke="#969696" stroke-width="1.9971" stroke-linejoin="round" stroke-miterlimit="8" x1="252.021" y1="222.652" x2="269.913" y2="236.361"/>
		
			<line fill="none" stroke="#969696" stroke-width="1.9971" stroke-linejoin="round" stroke-miterlimit="8" x1="260.967" y1="173.111" x2="260.967" y2="264.301"/>
		
			<line fill="none" stroke="#969696" stroke-width="1.9971" stroke-linejoin="round" stroke-miterlimit="8" x1="269.913" y1="201.256" x2="252.021" y2="213.305"/>
		
			<line fill="none" stroke="#969696" stroke-width="1.9971" stroke-linejoin="round" stroke-miterlimit="8" x1="252.021" y1="200.426" x2="269.913" y2="214.135"/>
		
			<line fill="none" stroke="#969696" stroke-width="1.9971" stroke-linejoin="round" stroke-miterlimit="8" x1="269.913" y1="242.387" x2="252.021" y2="254.33"/>
		
			<line fill="none" stroke="#969696" stroke-width="1.9971" stroke-linejoin="round" stroke-miterlimit="8" x1="252.021" y1="241.556" x2="269.913" y2="255.16"/>
		
			<line fill="none" stroke="#969696" stroke-width="1.9971" stroke-linejoin="round" stroke-miterlimit="8" x1="269.913" y1="180.797" x2="252.021" y2="192.845"/>
		
			<line fill="none" stroke="#969696" stroke-width="1.9971" stroke-linejoin="round" stroke-miterlimit="8" x1="252.021" y1="179.965" x2="269.913" y2="193.675"/>
	</g>
	<polyline display="inline" fill="none" stroke="#00FF00" stroke-width="5" points="101.797,167.287 152.5,167.287 164.797,205.035 
		200,135.787 230.797,205.035 250.797,167.287 311.297,167.287 	"/>
	<polyline display="inline" fill="none" stroke="#00FF00" stroke-width="5" points="276.297,132.287 311.297,167.167 
		277.221,195.46 	"/>
</g>
</svg>
