<?xml version="1.0" encoding="utf-8"?>
<!-- Generator: Adobe Illustrator 16.0.0, SVG Export Plug-In . SVG Version: 6.00 Build 0)  -->
<!DOCTYPE svg PUBLIC "-//W3C//DTD SVG 1.1//EN" "http://www.w3.org/Graphics/SVG/1.1/DTD/svg11.dtd">
<svg version="1.1" id="Version_1.0" xmlns="http://www.w3.org/2000/svg" xmlns:xlink="http://www.w3.org/1999/xlink" x="0px"
	 y="0px" width="400px" height="400px" viewBox="0 0 400 400" enable-background="new 0 0 400 400" xml:space="preserve">
<g id="main">
	<polyline fill="none" stroke="#000000" stroke-width="5" points="343,319.5 23,319.5 23,219.5 	"/>
	<polyline fill="none" stroke="#000000" stroke-width="5" points="23,179.5 23,79.5 343,79.5 	"/>
	<polygon stroke="#000000" stroke-width="5" points="343,94.5 343,64.5 378,79.5 	"/>
	<polygon stroke="#000000" stroke-width="5" points="343,334.5 343,304.5 378,319.5 	"/>
	<line fill="none" stroke="#000000" stroke-width="5" x1="8" y1="179.5" x2="38" y2="179.5"/>
	<line fill="none" stroke="#000000" stroke-width="5" x1="8" y1="219.5" x2="38" y2="219.5"/>
</g>
<g id="template" display="none">
	<polyline display="inline" fill="none" stroke="#000000" stroke-width="3" points="385.5,90.5 385.5,120.5 365.5,140.5 	"/>
	<polyline display="inline" fill="none" stroke="#000000" stroke-width="3" points="385.5,310.5 385.5,280.5 365.5,260.5 	"/>
	<polygon display="inline" stroke="#000000" stroke-width="3" points="381.5,95.5 385.5,85.5 389.5,95.5 	"/>
	<polygon display="inline" stroke="#000000" stroke-width="3" points="381.5,305.5 385.5,315.5 389.5,305.5 	"/>
	<line display="inline" fill="none" stroke="#000000" stroke-width="3" x1="40.5" y1="200.5" x2="75.5" y2="200.5"/>
	<polygon display="inline" stroke="#000000" stroke-width="3" points="43.5,204.5 33.5,200.5 43.5,196.5 	"/>
	<text transform="matrix(1 0 0 1 85.5 209.5)" display="inline" font-family="sans-serif" font-size="24">PT.3</text>
	<text transform="matrix(1 0 0 1 310.5 159.5)" display="inline" font-family="sans-serif" font-size="24">PT.1</text>
	<text transform="matrix(1 0 0 1 310.5 259.5)" display="inline" font-family="sans-serif" font-size="24">PT.2</text>
</g>
</svg>
