<?xml version="1.0" encoding="utf-8"?>
<!-- Generator: Adobe Illustrator 16.0.0, SVG Export Plug-In . SVG Version: 6.00 Build 0)  -->
<!DOCTYPE svg PUBLIC "-//W3C//DTD SVG 1.1//EN" "http://www.w3.org/Graphics/SVG/1.1/DTD/svg11.dtd">
<svg version="1.1" id="Version_1.0" xmlns="http://www.w3.org/2000/svg" xmlns:xlink="http://www.w3.org/1999/xlink" x="0px"
	 y="0px" width="400px" height="400px" viewBox="0 0 400 400" enable-background="new 0 0 400 400" xml:space="preserve">
<g id="main">
	<polyline fill="none" stroke="#000000" stroke-width="5" points="102.5,31 152.5,81 152.5,281 102.5,331 	"/>
	<polyline fill="none" stroke="#000000" stroke-width="5" points="302.5,31 252.5,81 252.5,281 302.5,331 	"/>
</g>
<g id="template" display="none">
	<g id="varW1" display="inline">
		
			<rect x="204.587" y="319.822" fill="none" stroke="#000000" stroke-width="1.7867" stroke-linecap="round" stroke-miterlimit="8" width="69.322" height="46.687"/>
		<text transform="matrix(1 0 0 1 220.4707 351.1641)" font-family="sans-serif" font-size="25.157">W1</text>
	</g>
	<g id="varW" display="inline">
		<text transform="matrix(1 0 0 1 188.7383 351.1641)" font-family="sans-serif" font-size="25.157">-</text>
		
			<rect x="133.708" y="319.822" fill="none" stroke="#000000" stroke-width="1.7867" stroke-linecap="round" stroke-miterlimit="8" width="48.366" height="46.687"/>
		<text transform="matrix(1 0 0 1 146.1367 352.2988)" font-family="sans-serif" font-size="25.157">W</text>
	</g>
	<g id="points" display="inline">
		<g>
			<text transform="matrix(1 0 0 1 337.5 86)" font-family="sans-serif" font-size="18">PT 3</text>
			<g>
				<g>
					<line fill="none" stroke="#000000" stroke-width="5" x1="328.5" y1="82" x2="273.5" y2="82"/>
					<polygon points="277.146,69.496 255.559,81.961 277.146,94.425 					"/>
				</g>
			</g>
		</g>
		<g>
			<text transform="matrix(1 0 0 1 337.5 286)" font-family="sans-serif" font-size="18">PT 4</text>
			<g>
				<g>
					<line fill="none" stroke="#000000" stroke-width="5" x1="324.5" y1="281" x2="274.5" y2="281.667"/>
					<polygon points="277.98,269.116 256.561,281.867 278.313,294.043 					"/>
				</g>
			</g>
		</g>
		<g>
			<text transform="matrix(1 0 0 1 32.5 86)" font-family="sans-serif" font-size="18">PT 1</text>
			<g>
				<g>
					<line fill="none" stroke="#000000" stroke-width="5" x1="80.5" y1="81" x2="130.5" y2="81"/>
					<polygon points="126.853,93.504 148.442,81.039 126.853,68.574 					"/>
				</g>
			</g>
		</g>
		<g>
			<text transform="matrix(1 0 0 1 32.5 286)" font-family="sans-serif" font-size="18">PT 2</text>
			<g>
				<g>
					<line fill="none" stroke="#000000" stroke-width="5" x1="81.5" y1="281" x2="131.5" y2="281"/>
					<polygon points="127.853,293.504 149.442,281.039 127.853,268.574 					"/>
				</g>
			</g>
		</g>
	</g>
</g>
<g id="example" display="none">
	<path display="inline" fill="none" stroke="#808080" stroke-width="5" stroke-miterlimit="10" d="M169.5,17.5
		c0,53.813,9.791,110.229,2.777,164.003c-2.307,17.689-6.955,33.105-7.829,50.949c-1.021,20.841,2.293,40.733,3.052,61.048
		c0.839,22.467,2.031,31.949,2.031,55"/>
	<path display="inline" fill="none" stroke="#808080" stroke-width="5" stroke-miterlimit="10" d="M230.5,18.5
		c8.965,47.307,2.073,100.545-0.223,148.005c-1.264,26.121,2.945,50.297,6.223,75.919c2.747,21.475,3.121,42.96,6.246,64.075
		c1.941,13.119,1.856,28.772,1.754,42"/>
	<text id="varWeW1e" transform="matrix(1 0 0 1 197.6421 352.2988)" display="inline" font-family="sans-serif" font-size="25.157"> </text>
</g>
</svg>
