<?xml version="1.0" encoding="utf-8"?>
<!-- Generator: Adobe Illustrator 16.0.0, SVG Export Plug-In . SVG Version: 6.00 Build 0)  -->
<!DOCTYPE svg PUBLIC "-//W3C//DTD SVG 1.1//EN" "http://www.w3.org/Graphics/SVG/1.1/DTD/svg11.dtd">
<svg version="1.1" id="Version_1.0" xmlns="http://www.w3.org/2000/svg" xmlns:xlink="http://www.w3.org/1999/xlink" x="0px"
	 y="0px" width="400px" height="400px" viewBox="0 0 400 400" enable-background="new 0 0 400 400" xml:space="preserve">
<g id="main">
	
		<path fill="none" stroke="#000000" stroke-width="5.4331" stroke-linecap="round" stroke-linejoin="round" stroke-miterlimit="10" d="
		M195.951,118.865c34.328-1.161,89.678-17.114,108.297,5.248c18.617,22.344,39.128,107.79,3.438,128.829
		c-35.691,21.041-182.692,17.744-217.569-2.604c-34.897-20.328-9.421-97.45,8.222-119.366
		C115.979,109.056,161.644,120.004,195.951,118.865"/>
	<g>
		<polygon fill="#FFFFFF" points="183.762,249.361 183.762,281.92 216.32,281.92 216.32,249.361 		"/>
		<text transform="matrix(1 0 0 1 188.6768 279.1348)" font-family="sans-serif" font-size="32.5581">M</text>
	</g>
	<g>
		<polygon fill="#FFFFFF" points="183.762,102.849 183.762,135.407 216.32,135.407 216.32,102.849 		"/>
		<text transform="matrix(1 0 0 1 188.6768 132.623)" font-family="sans-serif" font-size="32.5581">M</text>
	</g>
	<g>
		<polygon fill="#FFFFFF" points="307.218,159.825 307.218,192.385 339.775,192.385 339.775,159.825 		"/>
		<text transform="matrix(1 0 0 1 312.0625 189.6211)" font-family="sans-serif" font-size="32.5581">M</text>
	</g>
	<g>
		<polygon fill="#FFFFFF" points="57.032,176.105 57.032,208.664 89.59,208.664 89.59,176.105 		"/>
		<text transform="matrix(1 0 0 1 61.8779 205.8789)" font-family="sans-serif" font-size="32.5581">M</text>
	</g>
</g>
<g id="template" display="none">
	<g id="varW" display="inline">
		
			<rect x="165.448" y="292.378" fill="none" stroke="#000000" stroke-width="2.0349" stroke-linecap="round" stroke-miterlimit="8" width="72.178" height="60.642"/>
		<text transform="matrix(1 0 0 1 186.0908 334.1406)" font-family="sans-serif" font-size="32.5581">W</text>
	</g>
	<g id="varA" display="inline">
		
			<rect x="169.111" y="161.739" fill="none" stroke="#000000" stroke-width="2.0349" stroke-linecap="round" stroke-miterlimit="8" width="64.851" height="60.761"/>
		<text transform="matrix(1 0 0 1 189.6523 203.6113)" font-family="sans-serif" font-size="32.5581">A</text>
	</g>
	<g id="varH" display="inline">
		
			<rect x="169.111" y="27.437" fill="none" stroke="#000000" stroke-width="2.0349" stroke-linecap="round" stroke-miterlimit="8" width="64.851" height="60.761"/>
		<text transform="matrix(1 0 0 1 189.6523 69.1396)" font-family="sans-serif" font-size="32.5581">H</text>
	</g>
</g>
<g id="example" display="none">
	<g id="varAe" display="inline">
		<path fill="none" stroke="#00FF00" stroke-width="5" stroke-linecap="round" stroke-linejoin="round" stroke-miterlimit="8" d="
			M127.809,172.672c-13.144,0-23.799,9.708-23.799,21.681c0,11.976,10.655,21.68,23.799,21.68c13.145,0,23.798-9.704,23.798-21.68
			C151.607,182.379,140.954,172.672,127.809,172.672L127.809,172.672z"/>
		<path fill-rule="evenodd" clip-rule="evenodd" fill="#00FF00" d="M200.39,170.513c-13.799,0-24.984,10.191-24.984,22.76
			c0,12.572,11.186,22.759,24.984,22.759s24.983-10.188,24.983-22.759C225.373,180.704,214.188,170.513,200.39,170.513
			L200.39,170.513z"/>
		<path fill-rule="evenodd" clip-rule="evenodd" fill="#00FF00" d="M273.464,170.046c-12.936,0-23.423,10.294-23.423,22.992
			c0,12.7,10.487,22.994,23.423,22.994s23.422-10.294,23.422-22.994C296.886,180.34,286.399,170.046,273.464,170.046
			L273.464,170.046z"/>
		
			<line fill="none" stroke="#00FF00" stroke-width="5" stroke-linejoin="round" stroke-miterlimit="8" x1="286.962" y1="177.127" x2="300.35" y2="162.575"/>
		
			<line fill="none" stroke="#00FF00" stroke-width="5" stroke-linejoin="round" stroke-miterlimit="8" x1="260.188" y1="177.127" x2="246.802" y2="162.575"/>
	</g>
	<text id="varWe" transform="matrix(1 0 0 1 186.0908 334.1406)" display="inline" font-family="sans-serif" font-size="32.5581"> </text>
	<text id="varHe" transform="matrix(1 0 0 1 189.6523 69.1396)" display="inline" font-family="sans-serif" font-size="32.5581"> </text>
	<g display="inline">
		
			<path fill="none" stroke="#00FF00" stroke-width="5.4331" stroke-linecap="round" stroke-linejoin="round" stroke-miterlimit="10" d="
			M195.951,118.865c34.328-1.161,89.678-17.114,108.297,5.248c18.617,22.344,39.128,107.79,3.438,128.829
			c-35.691,21.041-182.692,17.744-217.569-2.604c-34.897-20.328-9.421-97.45,8.222-119.366
			C115.979,109.056,161.644,120.004,195.951,118.865"/>
		<g>
			<polygon fill="#FFFFFF" points="183.762,249.361 183.762,281.92 216.32,281.92 216.32,249.361 			"/>
			<text transform="matrix(1 0 0 1 188.6768 279.1348)" fill="#00FF00" font-family="sans-serif" font-size="32.5581">M</text>
		</g>
		<g>
			<polygon fill="#FFFFFF" points="183.762,102.849 183.762,135.407 216.32,135.407 216.32,102.849 			"/>
			<text transform="matrix(1 0 0 1 188.6768 132.623)" fill="#00FF00" font-family="sans-serif" font-size="32.5581">M</text>
		</g>
		<g>
			<polygon fill="#FFFFFF" points="307.218,159.825 307.218,192.385 339.775,192.385 339.775,159.825 			"/>
			<text transform="matrix(1 0 0 1 312.0625 189.6211)" fill="#00FF00" font-family="sans-serif" font-size="32.5581">M</text>
		</g>
		<g>
			<polygon fill="#FFFFFF" points="57.032,176.105 57.032,208.664 89.59,208.664 89.59,176.105 			"/>
			<text transform="matrix(1 0 0 1 61.8779 205.8789)" fill="#00FF00" font-family="sans-serif" font-size="32.5581">M</text>
		</g>
	</g>
</g>
</svg>
