<?xml version="1.0" encoding="utf-8"?>
<!-- Generator: Adobe Illustrator 16.0.0, SVG Export Plug-In . SVG Version: 6.00 Build 0)  -->
<!DOCTYPE svg PUBLIC "-//W3C//DTD SVG 1.1//EN" "http://www.w3.org/Graphics/SVG/1.1/DTD/svg11.dtd">
<svg version="1.1" id="Version_1.0" xmlns="http://www.w3.org/2000/svg" xmlns:xlink="http://www.w3.org/1999/xlink" x="0px"
	 y="0px" width="400px" height="400px" viewBox="0 0 400 400" enable-background="new 0 0 400 400" xml:space="preserve">
<g id="main">
	
		<path fill="none" stroke="#000000" stroke-width="5.4331" stroke-linecap="round" stroke-linejoin="round" stroke-miterlimit="10" d="
		M195.951,118.865c34.328-1.161,89.678-17.114,108.297,5.248c18.617,22.344,39.128,107.79,3.438,128.829
		c-35.691,21.041-182.692,17.744-217.569-2.604c-34.897-20.328-9.421-97.45,8.222-119.366
		C115.979,109.056,161.644,120.004,195.951,118.865"/>
	<g>
		<polygon fill="#FFFFFF" points="183.762,249.361 183.762,281.92 216.32,281.92 216.32,249.361 		"/>
		<text transform="matrix(1 0 0 1 188.6768 279.1348)" font-family="sans-serif" font-size="32.5581">M</text>
	</g>
	<g>
		<polygon fill="#FFFFFF" points="183.762,102.849 183.762,135.407 216.32,135.407 216.32,102.849 		"/>
		<text transform="matrix(1 0 0 1 188.6768 132.623)" font-family="sans-serif" font-size="32.5581">M</text>
	</g>
	<g>
		<polygon fill="#FFFFFF" points="307.218,159.825 307.218,192.385 339.775,192.385 339.775,159.825 		"/>
		<text transform="matrix(1 0 0 1 312.0625 189.6211)" font-family="sans-serif" font-size="32.5581">M</text>
	</g>
	<g>
		<polygon fill="#FFFFFF" points="57.032,176.105 57.032,208.664 89.59,208.664 89.59,176.105 		"/>
		<text transform="matrix(1 0 0 1 61.8779 205.8789)" font-family="sans-serif" font-size="32.5581">M</text>
	</g>
	<polyline fill="none" stroke="#000000" stroke-width="5" stroke-dasharray="15,15" points="130.5,218.385 202.236,153.167 
		275.834,218.385 	"/>
</g>
<g id="example" display="none">
	
		<path display="inline" fill="none" stroke="#00FF00" stroke-width="5.4331" stroke-linecap="round" stroke-linejoin="round" stroke-miterlimit="10" d="
		M195.951,118.865c34.328-1.161,89.678-17.114,108.297,5.248c18.617,22.344,39.128,107.79,3.438,128.829
		c-35.691,21.041-182.692,17.744-217.569-2.604c-34.897-20.328-9.421-97.45,8.222-119.366
		C115.979,109.056,161.644,120.004,195.951,118.865"/>
	<g display="inline">
		<polygon fill="#FFFFFF" points="183.762,249.361 183.762,281.92 216.32,281.92 216.32,249.361 		"/>
		<text transform="matrix(1 0 0 1 188.6768 279.1348)" fill="#00FF00" font-family="sans-serif" font-size="32.5581">M</text>
	</g>
	<g display="inline">
		<polygon fill="#FFFFFF" points="183.762,102.849 183.762,135.407 216.32,135.407 216.32,102.849 		"/>
		<text transform="matrix(1 0 0 1 188.6768 132.623)" fill="#00FF00" font-family="sans-serif" font-size="32.5581">M</text>
	</g>
	<g display="inline">
		<polygon fill="#FFFFFF" points="307.218,159.825 307.218,192.385 339.775,192.385 339.775,159.825 		"/>
		<text transform="matrix(1 0 0 1 312.0625 189.6211)" fill="#00FF00" font-family="sans-serif" font-size="32.5581">M</text>
	</g>
	<g display="inline">
		<polygon fill="#FFFFFF" points="57.032,176.105 57.032,208.664 89.59,208.664 89.59,176.105 		"/>
		<text transform="matrix(1 0 0 1 61.8779 205.8789)" fill="#00FF00" font-family="sans-serif" font-size="32.5581">M</text>
	</g>
	<polyline display="inline" fill="none" stroke="#00FF00" stroke-width="5" stroke-dasharray="15,15" points="130.5,218.385 
		202.236,153.167 275.834,218.385 	"/>
</g>
</svg>
