<?xml version="1.0" encoding="utf-8"?>
<!-- Generator: Adobe Illustrator 16.0.0, SVG Export Plug-In . SVG Version: 6.00 Build 0)  -->
<!DOCTYPE svg PUBLIC "-//W3C//DTD SVG 1.1//EN" "http://www.w3.org/Graphics/SVG/1.1/DTD/svg11.dtd">
<svg version="1.1" id="Version_1.0" xmlns="http://www.w3.org/2000/svg" xmlns:xlink="http://www.w3.org/1999/xlink" x="0px"
	 y="0px" width="400px" height="400px" viewBox="0 0 400 400" enable-background="new 0 0 400 400" xml:space="preserve">
<pattern  x="-105.5" y="596.5" width="72" height="72" patternUnits="userSpaceOnUse" id="_x3C_path_x3E__1_" viewBox="20 -72 72 72" overflow="visible">
	<g>
		<polygon fill="none" points="20,0 92,0 92,-72 20,-72 		"/>
		<g>
			<polygon fill="none" points="20,-72 92,-72 92,0 20,0 			"/>
			<g>
				<polygon fill="none" points="20,0 92,0 92,-72 20,-72 				"/>
				<g>
					<polygon fill="none" points="20,-72 92,-72 92,0 20,0 					"/>
					<g>
						<polygon fill="none" points="20,0 20,-72 92,-72 92,0 						"/>
						<line fill="none" stroke="#00FF00" stroke-width="1.44" x1="19.75" y1="-3.6" x2="92.25" y2="-3.6"/>
						<line fill="none" stroke="#00FF00" stroke-width="1.44" x1="19.75" y1="-18" x2="92.25" y2="-18"/>
						<line fill="none" stroke="#00FF00" stroke-width="1.44" x1="19.75" y1="-32.398" x2="92.25" y2="-32.398"/>
						<line fill="none" stroke="#00FF00" stroke-width="1.44" x1="19.75" y1="-46.8" x2="92.25" y2="-46.8"/>
						<line fill="none" stroke="#00FF00" stroke-width="1.44" x1="19.75" y1="-61.2" x2="92.25" y2="-61.2"/>
						<line fill="none" stroke="#00FF00" stroke-width="1.44" x1="0" y1="-61.2" x2="14" y2="-61.2"/>
						<line fill="none" stroke="#00FF00" stroke-width="1.44" x1="19.75" y1="-10.8" x2="92.25" y2="-10.8"/>
						<line fill="none" stroke="#00FF00" stroke-width="1.44" x1="19.75" y1="-25.2" x2="92.25" y2="-25.2"/>
						<line fill="none" stroke="#00FF00" stroke-width="1.44" x1="19.75" y1="-39.6" x2="92.25" y2="-39.6"/>
						<line fill="none" stroke="#00FF00" stroke-width="1.44" x1="19.75" y1="-54" x2="92.25" y2="-54"/>
						<line fill="none" stroke="#00FF00" stroke-width="1.44" x1="19.75" y1="-68.398" x2="92.25" y2="-68.398"/>
						<line fill="none" stroke="#00FF00" stroke-width="1.44" x1="0" y1="-68.398" x2="14" y2="-68.398"/>
					</g>
				</g>
			</g>
		</g>
	</g>
</pattern>
<g id="main">
	
		<pattern  id="_x3C_path_x3E__2_" xlink:href="#_x3C_path_x3E__1_" patternTransform="matrix(0.7071 -0.7071 0.7071 0.7071 -5616.3682 17018.2168)">
	</pattern>
	<polygon id="_x3C_path_x3E_" fill="url(#_x3C_path_x3E__2_)" stroke="#00FF00" stroke-width="5" points="360.041,173.999 
		333.5,188 361.347,209.506 363.479,267.482 333,285 364.747,301.973 366.752,356.5 306,356.5 289.5,324 275,356.5 221,356.5 
		204.629,322.5 189,356.5 136,356.5 120,323 102,356.5 50,356.5 50,265.5 85,250.04 50,231.5 50,171 85.5,155.5 50,136 50,29.5 
		110.644,47.024 119.5,85.5 142.252,56.157 193.774,71.045 202.5,110 227.096,80.673 275.723,94.725 285,132 307.922,104.029 
		358,118.5 	"/>
</g>
<g id="template" display="none">
	<g id="varW1" display="inline">
		
			<rect x="211.023" y="220.482" fill="#FFFFFF" stroke="#000000" stroke-width="2.128" stroke-linecap="round" stroke-miterlimit="8" width="69.797" height="55.604"/>
		<text transform="matrix(1 0 0 1 223.7598 257.9971)" font-family="sans-serif" font-size="29.9625">W1</text>
	</g>
	<g id="varW" display="inline">
		<text transform="matrix(1 0 0 1 192.4155 257.6416)" font-family="sans-serif" font-size="29.9625">-</text>
		
			<rect x="126.604" y="220.482" fill="#FFFFFF" stroke="#000000" stroke-width="2.128" stroke-linecap="round" stroke-miterlimit="8" width="57.606" height="55.604"/>
		<text transform="matrix(1 0 0 1 141.7183 257.9971)" font-family="sans-serif" font-size="29.9625">W</text>
	</g>
	<g id="varT" display="inline">
		
			<rect x="180.082" y="159.75" fill="#FFFFFF" stroke="#000000" stroke-width="2.128" stroke-linecap="round" stroke-miterlimit="8" width="49.094" height="52.498"/>
		<text transform="matrix(1 0 0 1 194.5015 199.7646)" font-family="sans-serif" font-size="36">T</text>
	</g>
</g>
<g id="example" display="none">
	<g id="W_x5F_W1" display="inline">
		<rect x="89.5" y="204.248" fill="#FFFFFF" width="245" height="73.838"/>
		<text id="varW1e" transform="matrix(1 0 0 1 93.3936 260.7988)" font-family="sans-serif" font-size="28">250900ZMAY07</text>
		<text id="varWe" transform="matrix(1 0 0 1 93.3936 232.9971)" font-family="sans-serif" font-size="28">210700ZMAY07 – </text>
	</g>
	<g id="T" display="inline">
		<rect x="112.5" y="151.75" fill="#FFFFFF" width="181" height="52.498"/>
		<text id="varTe" transform="matrix(1 0 0 1 115.4819 191.7646)" font-family="sans-serif" font-size="36">1AD(USA)</text>
	</g>
</g>
</svg>
