<?xml version="1.0" encoding="utf-8"?>
<!-- Generator: Adobe Illustrator 16.0.0, SVG Export Plug-In . SVG Version: 6.00 Build 0)  -->
<!DOCTYPE svg PUBLIC "-//W3C//DTD SVG 1.1//EN" "http://www.w3.org/Graphics/SVG/1.1/DTD/svg11.dtd">
<svg version="1.1" id="Version_1.0" xmlns="http://www.w3.org/2000/svg" xmlns:xlink="http://www.w3.org/1999/xlink" x="0px"
	 y="0px" width="400px" height="400px" viewBox="0 0 400 400" enable-background="new 0 0 400 400" xml:space="preserve">
<g id="main">
	
		<rect x="56.219" y="119.088" fill="none" stroke="#000000" stroke-width="5" stroke-linecap="round" stroke-miterlimit="8" stroke-dasharray="20,20" width="289.521" height="139.076"/>
</g>
<g id="template" display="none">
	<g id="varW" display="inline">
		
			<rect x="169.5" y="268.529" fill="none" stroke="#000000" stroke-width="2.585" stroke-linecap="round" stroke-miterlimit="8" width="59" height="52.971"/>
		<text transform="matrix(1 0 0 1 181.7949 312.9238)" font-family="sans-serif" font-size="42">W</text>
	</g>
	<g id="varA" display="inline">
		
			<rect x="169.5" y="158.5" fill="none" stroke="#000000" stroke-width="2.585" stroke-linecap="round" stroke-miterlimit="8" width="59" height="58"/>
		<text transform="matrix(1 0 0 1 185.7563 203.5039)" font-family="sans-serif" font-size="42">A</text>
	</g>
	<g id="varH" display="inline">
		
			<rect x="169.5" y="52.5" fill="none" stroke="#000000" stroke-width="2.585" stroke-linecap="round" stroke-miterlimit="8" width="59" height="57.221"/>
		<text transform="matrix(1 0 0 1 185.5977 98.0547)" font-family="sans-serif" font-size="42">H</text>
	</g>
</g>
<g id="example" display="none">
	<g id="varAe" display="inline">
		<path d="M292.135,164.932c-14.801,0-26.799,10.968-26.799,24.5c0,13.531,11.998,24.5,26.799,24.5
			c14.805,0,26.803-10.969,26.803-24.5C318.938,175.9,306.938,164.932,292.135,164.932L292.135,164.932z"/>
		<path d="M111.231,164.932c-14.803,0-26.8,10.968-26.8,24.5c0,13.531,11.998,24.5,26.8,24.5c14.802,0,26.802-10.969,26.802-24.5
			C138.033,175.9,126.034,164.932,111.231,164.932L111.231,164.932z"/>
		<path d="M201.686,164.932c-14.806,0-26.803,10.968-26.803,24.5c0,13.531,11.998,24.5,26.803,24.5
			c14.801,0,26.799-10.969,26.799-24.5C228.482,175.9,216.484,164.932,201.686,164.932L201.686,164.932z"/>
	</g>
	<text id="varWe" transform="matrix(1 0 0 1 49.3105 305.9238)" display="inline" font-family="sans-serif" font-size="41.3602">220001ZDEC07</text>
	<text id="varHe" transform="matrix(1 0 0 1 186.7563 102.0547)" display="inline" font-family="sans-serif" font-size="42">S</text>
</g>
</svg>
