<?xml version="1.0" encoding="utf-8"?>
<!-- Generator: Adobe Illustrator 16.0.0, SVG Export Plug-In . SVG Version: 6.00 Build 0)  -->
<!DOCTYPE svg PUBLIC "-//W3C//DTD SVG 1.1//EN" "http://www.w3.org/Graphics/SVG/1.1/DTD/svg11.dtd">
<svg version="1.1" id="Version_1.0" xmlns="http://www.w3.org/2000/svg" xmlns:xlink="http://www.w3.org/1999/xlink" x="0px"
	 y="0px" width="400px" height="400px" viewBox="0 0 400 400" enable-background="new 0 0 400 400" xml:space="preserve">
<g id="main" transform="translate(-410 -400) scale(2.5 2.5)">
	<g>
		<g>
			<path fill="none" stroke="#000000" stroke-width="5" d="M203.935,189.362c57.015,5.183,97.882,37.608,98.8,92.6"/>
			<g>
				<polygon points="287.705,277.836 303.094,303.488 317.619,277.336 				"/>
			</g>
		</g>
	</g>
</g>
<g id="template" display="none">
	<polygon display="inline" stroke="#000000" stroke-width="5" points="97.837,83.2 104.837,91.2 90.837,91.2 	"/>
	<polyline display="inline" fill="none" stroke="#000000" stroke-width="2" points="95.837,93.2 95.837,116.2 108.837,127.2 	"/>
	<polygon display="inline" stroke="#000000" stroke-width="5" points="335.564,360.08 327.906,367.454 327.238,353.47 	"/>
	<polyline display="inline" fill="none" stroke="#000000" stroke-width="2" points="331.938,360.606 308.964,361.703 
		297.357,349.242 	"/>
	<polygon display="inline" stroke="#000000" stroke-width="5" points="276.681,155.423 259.668,156.187 273.445,172.38 	"/>
	<text transform="matrix(1 0 0 1 74.3359 155.4229)" display="inline" font-family="sans-serif" font-size="28">PT 1</text>
	<line display="inline" fill="none" stroke="#000000" stroke-width="2" x1="265.535" y1="165.769" x2="239.26" y2="185.405"/>
	<text transform="matrix(1 0 0 1 248.7705 342.3545)" display="inline" font-family="sans-serif" font-size="28">PT 2</text>
	<text transform="matrix(1 0 0 1 205.3359 215.9043)" display="inline" font-family="sans-serif" font-size="28">PT 3</text>
</g>
<g id="example" display="none">
	<g display="inline">
		<g>
			<path fill="none" stroke="#00FF00" stroke-width="5" d="M99.837,73.405c142.537,12.957,244.704,94.02,247,231.5"/>
			<g>
				<polygon fill="#00FF00" points="309.262,294.589 347.735,358.72 384.047,293.34 				"/>
			</g>
		</g>
	</g>
	
		<polygon display="inline" fill-rule="evenodd" clip-rule="evenodd" fill="#FF8080" stroke="#808080" stroke-width="2" stroke-miterlimit="8" points="
		49.57,36.1 5,73.407 49.57,110.71 94.141,73.407 49.57,36.1 	"/>
	<g display="inline">
		<polygon fill-rule="evenodd" clip-rule="evenodd" fill="#808080" points="297.374,142.329 320.533,129.021 320.533,155.639 
			297.374,142.329 		"/>
		<polygon fill-rule="evenodd" clip-rule="evenodd" fill="#808080" points="297.374,115.78 320.533,102.538 320.533,129.021 
			297.374,115.78 		"/>
		<polygon fill-rule="evenodd" clip-rule="evenodd" fill="#808080" points="297.374,89.229 320.533,75.92 320.533,102.538 
			297.374,89.229 		"/>
	</g>
	<g display="inline">
		<polygon fill="none" stroke="#808080" stroke-width="1.9971" stroke-linecap="round" stroke-miterlimit="8" points="
			243.297,14.322 243.297,108.155 281.942,108.155 281.942,14.322 243.297,14.322 		"/>
		<path fill-rule="evenodd" clip-rule="evenodd" fill="#808080" d="M262.62,25.344c-5.317,0-9.628,4.002-9.628,8.94
			c0,4.938,4.311,8.94,9.628,8.94s9.628-4.002,9.628-8.94C272.248,29.346,267.938,25.344,262.62,25.344L262.62,25.344z"/>
		<path fill-rule="evenodd" clip-rule="evenodd" fill="#808080" d="M262.62,52.231c-5.317,0-9.628,4.003-9.628,8.939
			c0,4.938,4.311,8.939,9.628,8.939s9.628-4.002,9.628-8.939C272.248,56.234,267.938,52.231,262.62,52.231L262.62,52.231z"/>
		<path fill-rule="evenodd" clip-rule="evenodd" fill="#808080" d="M262.62,79.118c-5.317,0-9.628,4.002-9.628,8.939
			c0,4.938,4.311,8.94,9.628,8.94s9.628-4.002,9.628-8.94C272.248,83.12,267.938,79.118,262.62,79.118L262.62,79.118z"/>
	</g>
	<g display="inline">
		<polygon fill-rule="evenodd" clip-rule="evenodd" fill="#808080" points="328.659,196.945 351.818,183.639 351.818,210.256 
			328.659,196.945 		"/>
		<polygon fill-rule="evenodd" clip-rule="evenodd" fill="#808080" points="328.659,170.397 351.818,157.155 351.818,183.639 
			328.659,170.397 		"/>
		<polygon fill-rule="evenodd" clip-rule="evenodd" fill="#808080" points="328.659,143.846 351.818,130.538 351.818,157.155 
			328.659,143.846 		"/>
	</g>
	<g display="inline">
		<polygon fill="none" stroke="#808080" stroke-width="1.9971" stroke-linecap="round" stroke-miterlimit="8" points="
			358.219,193.155 358.219,286.854 397,286.854 397,193.155 358.219,193.155 		"/>
		<path fill-rule="evenodd" clip-rule="evenodd" fill="#808080" d="M377.609,204.043c-5.354,0-9.695,4.002-9.695,8.941
			c0,4.938,4.342,8.939,9.695,8.939c5.355,0,9.693-4.002,9.693-8.939C387.303,208.045,382.965,204.043,377.609,204.043
			L377.609,204.043z"/>
		<path fill-rule="evenodd" clip-rule="evenodd" fill="#808080" d="M377.609,230.93c-5.354,0-9.695,4.002-9.695,8.939
			s4.342,8.939,9.695,8.939c5.355,0,9.693-4.002,9.693-8.939S382.965,230.93,377.609,230.93L377.609,230.93z"/>
		<path fill-rule="evenodd" clip-rule="evenodd" fill="#808080" d="M377.609,257.818c-5.354,0-9.695,4.002-9.695,8.938
			c0,4.938,4.342,8.939,9.695,8.939c5.355,0,9.693-4.002,9.693-8.939C387.303,261.82,382.965,257.818,377.609,257.818
			L377.609,257.818z"/>
	</g>
</g>
</svg>
