<?xml version="1.0" encoding="utf-8"?>
<!-- Generator: Adobe Illustrator 16.0.0, SVG Export Plug-In . SVG Version: 6.00 Build 0)  -->
<!DOCTYPE svg PUBLIC "-//W3C//DTD SVG 1.1//EN" "http://www.w3.org/Graphics/SVG/1.1/DTD/svg11.dtd">
<svg version="1.1" id="Version_1.0" xmlns="http://www.w3.org/2000/svg" xmlns:xlink="http://www.w3.org/1999/xlink" x="0px"
	 y="0px" width="400px" height="400px" viewBox="0 0 400 400" enable-background="new 0 0 400 400" xml:space="preserve">
<g id="main">
	<path fill="none" stroke="#FFFF00" stroke-width="2" stroke-miterlimit="10" d="M47.475,174.975L104.5,117 M48.167,183.833
		l76.22-75.666 M50.5,192.998l90.443-91.374 M51.5,201L154.44,98.308 M53.833,209.167L166.424,96.659 M54.167,219.534
		L178.739,95.405 M56.5,227.5L188.578,94.659 M56.833,237.088L198.867,95.405 M58.5,245.5L207.373,96.659 M60.167,254.5
		L220.9,93.399 M63.167,261.5L227.71,97 M69.5,264.833L235.999,98.747 M77.5,267.833L245.505,99 M86.277,269.5L255.032,99.741
		 M193.34,293.521l146.494-146.21 M203.676,293.521L348.5,148.654 M214.99,292.324L356.167,151.5 M228.244,289.639l133.795-134.102
		 M157.5,288.833l148.334-149.227 M165.167,291.324L315.5,141.167 M173.459,293.521l149.873-150.498 M184.3,293.521l147.999-148.337
		 M95.722,269.5l168.065-169.138 M251.322,286.986l114.884-114.66 M262.962,285.628l104.351-105.265 M273.891,284.891l93.422-94.001
		 M285.578,282.855l81.734-81.022 M239.338,288.833L364.964,162.92 M300.598,278.266l66.715-66.136 M337.167,251.833l29.146-29.845
		 M104.5,271.167l168.034-168.654 M114.5,271.167l163.625-164.264 M124.387,271.167l158.925-159.179 M132.937,272.833
		l154.502-154.067 M140.534,275.833l151.655-151.666 M150.5,284.891l150.098-149.3 M145.438,279.833l150.289-149.266"/>
	
		<path fill="none" stroke="#000000" stroke-width="5.3925" stroke-linecap="round" stroke-linejoin="round" stroke-miterlimit="10" d="
		M211.646,94.092c-20.781-6.726-44.775,0.263-66.083,2.969c-20.782,5.11-36.958,17.249-56.913,23.973
		c-13.754,20.763-5.131,15.896-21.044,21.025c-5.938,5.918-11.876,11.855-17.793,17.773c-2.162,2.161-6.221,6.2-6.221,6.2
		c2.442,14.825,5.675,27.489,9.189,41.767c0.262,2.161,4.583,43.119,5.917,47.967c4.585,15.353,27.528,13.475,38.858,14.826
		c38.555,4.301,18.601,0.809,45.037,6.198c21.854,32.86,85.494,12.666,110.861,11.858c18.884-2.162,41.261-2.162,56.914-14.828
		c5.107-4.038,6.745-11.592,12.139-15.086c5.393-3.229,12.136-4.039,18.059-5.938c2.969-1.071,8.901-2.969,8.901-2.969
		c7.292-7.819,10.263-16.704,18.077-23.978c1.07-2.97,2.969-5.918,2.969-9.168c0-19.937,2.688-40.678-2.969-59.804
		c-2.161-7.008-11.068-10.239-18.077-11.855c-29.93-7.291-15.912-4.584-42.065-8.907c-16.724-11.572-18.339-35.828-41.811-39.06
		c-10.784-1.616-21.852-1.878-32.92-2.969C212.455,87.367,217.586,82.5,211.646,94.092"/>
	<polygon fill="#FFFFFF" stroke="#000000" stroke-width="5.3925" stroke-linecap="round" stroke-miterlimit="8" points="
		202.336,261.686 279.284,138.606 125.387,138.606 	"/>
	<g>
		<path stroke="#000000" stroke-width="1.2709" d="M180.962,168.839c-4.44,0-8.06,4.723-8.06,10.523
			c0,5.827,3.62,10.525,8.06,10.525c4.439,0,8.035-4.698,8.035-10.525C188.997,173.562,185.401,168.839,180.962,168.839"/>
		<path fill="none" stroke="#000000" stroke-width="5.3925" stroke-linejoin="round" stroke-miterlimit="10" d="M181.675,171.326
			c17.551,0,31.771,18.521,31.771,41.343"/>
		<path fill="none" stroke="#000000" stroke-width="5.3925" stroke-linejoin="round" stroke-miterlimit="10" d="M226.107,171.326
			c-17.551,0-31.792,18.521-31.792,41.343"/>
		<path stroke="#000000" stroke-width="1.2566" d="M225.609,168.547c-4.395,0-7.971,4.669-7.971,10.404
			c0,5.762,3.576,10.407,7.971,10.407c4.393,0,7.945-4.645,7.945-10.407C233.555,173.217,230.002,168.547,225.609,168.547"/>
	</g>
	<text transform="matrix(1 0 0 1 194.9912 167.1943)" font-family="sans-serif" font-size="26.8212">R</text>
</g>
</svg>
