<?xml version="1.0" encoding="utf-8"?>
<!-- Generator: Adobe Illustrator 16.0.0, SVG Export Plug-In . SVG Version: 6.00 Build 0)  -->
<!DOCTYPE svg PUBLIC "-//W3C//DTD SVG 1.1//EN" "http://www.w3.org/Graphics/SVG/1.1/DTD/svg11.dtd">
<svg version="1.1" id="Version_1.0" xmlns="http://www.w3.org/2000/svg" xmlns:xlink="http://www.w3.org/1999/xlink" x="0px"
	 y="0px" width="612px" height="792px" viewBox="0 0 612 792" enable-background="new 0 0 612 792" xml:space="preserve">
<g id="main">
	<polygon fill="none" stroke="#000000" stroke-width="5" stroke-linecap="round" stroke-miterlimit="8" points="305.701,395.762 
		379.287,278.062 232.117,278.062 	"/>
	<g>
		<path stroke="#000000" stroke-width="1.1654" d="M284.943,307.355c-3.894,0-7.046,4.143-7.046,9.229
			c0,5.11,3.152,9.229,7.046,9.229c3.895,0,7.045-4.119,7.045-9.229C291.988,311.499,288.838,307.355,284.943,307.355"/>
		<path fill="none" stroke="#000000" stroke-width="5.1568" stroke-linejoin="round" stroke-miterlimit="10" d="M285.943,309.351
			c16.783,0,30.381,17.71,30.381,39.537"/>
		<path fill="none" stroke="#000000" stroke-width="5.1568" stroke-linejoin="round" stroke-miterlimit="10" d="M328.433,309.351
			c-16.784,0-30.38,17.71-30.38,39.537"/>
		<path stroke="#000000" stroke-width="1.135" d="M329.207,307.103c-3.77,0-6.819,4.059-6.819,9.043
			c0,5.007,3.052,9.043,6.819,9.043c3.771,0,6.82-4.037,6.82-9.043C336.027,311.162,332.978,307.103,329.207,307.103"/>
	</g>
	<text transform="matrix(1 0 0 1 298.7988 305.5615)" font-family="sans-serif" font-size="28">N</text>
</g>
<g id="template" display="none">
	<g id="varW" display="inline">
		
			<rect x="168.766" y="278.062" fill="none" stroke="#000000" stroke-width="1.9314" stroke-linecap="round" stroke-miterlimit="8" width="54.851" height="46.103"/>
		<text transform="matrix(1 0 0 1 181.3574 310.2285)" font-family="sans-serif" font-size="28">W</text>
	</g>
	<g id="varT" display="inline">
		
			<rect x="172.899" y="376.947" fill="none" stroke="#000000" stroke-width="1.9314" stroke-linecap="round" stroke-miterlimit="8" width="46.605" height="46.105"/>
		<text transform="matrix(1 0 0 1 184.6865 409.1133)" font-family="sans-serif" font-size="28">T</text>
	</g>
	<g id="varH" display="inline">
		
			<rect x="385.602" y="278.062" fill="none" stroke="#000000" stroke-width="1.9314" stroke-linecap="round" stroke-miterlimit="8" width="49.195" height="46.103"/>
		<text transform="matrix(1 0 0 1 401.7061 310.2285)" font-family="sans-serif" font-size="28">H</text>
	</g>
	<g id="varN" display="inline">
		
			<rect x="385.602" y="376.947" fill="none" stroke="#000000" stroke-width="1.9314" stroke-linecap="round" stroke-miterlimit="8" width="49.195" height="46.105"/>
		<text transform="matrix(1 0 0 1 401.7061 409.1133)" font-family="sans-serif" font-size="28">N</text>
	</g>
	<g id="varY" display="inline">
		
			<rect x="281.059" y="438.755" fill="none" stroke="#000000" stroke-width="1.9314" stroke-linecap="round" stroke-miterlimit="8" width="48.014" height="46.103"/>
		<text transform="matrix(1 0 0 1 295.6104 470.8994)" font-family="sans-serif" font-size="28">Y</text>
	</g>
	<g id="varC" display="inline">
		
			<rect x="280.535" y="219.619" fill="none" stroke="#000000" stroke-width="1.9314" stroke-linecap="round" stroke-miterlimit="8" width="49.193" height="46.083"/>
		<text transform="matrix(1 0 0 1 293.5352 251.5039)" font-family="sans-serif" font-size="28">C</text>
	</g>
	<g display="inline">
		<g id="varQ">
			
				<line fill="none" stroke="#000000" stroke-width="3" stroke-linecap="round" stroke-linejoin="round" stroke-miterlimit="10" x1="302.688" y1="488.196" x2="302.805" y2="537.642"/>
			<path stroke="#000000" stroke-width="0.309" stroke-linejoin="bevel" stroke-miterlimit="10" d="M302.688,536.366l63.351,0.098
				c0.719,0,1.297,0.578,1.273,1.275c0,0.715-0.559,1.293-1.273,1.293l-63.351-0.095c-0.715,0-1.295-0.582-1.295-1.296
				C301.394,536.946,301.974,536.366,302.688,536.366L302.688,536.366z M363.47,530.014l25.745,7.764l-25.766,7.688L363.47,530.014z
				"/>
			<text id="Q" transform="matrix(1 0 0 1 394.3008 545.9814)" font-family="sans-serif" font-size="28">Q</text>
		</g>
		<text transform="matrix(1 0 0 1 127.7656 491.833)" font-family="sans-serif" font-size="23.1768">POINT</text>
		<text transform="matrix(1 0 0 1 127.7656 464.0205)" font-family="sans-serif" font-size="23.1768">ANCHOR</text>
		<g>
			<g>
				
					<line fill="none" stroke="#000000" stroke-width="4" stroke-linejoin="bevel" x1="223.617" y1="472.899" x2="290.547" y2="414.778"/>
				<g>
					<polygon points="291.469,428.691 287.748,417.208 276.9,411.915 304.07,403.036 					"/>
				</g>
			</g>
		</g>
	</g>
	<g id="varV" display="inline">
		
			<rect x="172.899" y="327.947" fill="none" stroke="#000000" stroke-width="1.9314" stroke-linecap="round" stroke-miterlimit="8" width="46.605" height="46.105"/>
		<text id="V" transform="matrix(1 0 0 1 184.6865 360.1133)" font-family="sans-serif" font-size="28">V</text>
	</g>
</g>
<g id="example" display="none">
	<g id="varQ_1_" display="inline">
		
			<line fill="none" stroke="#000000" stroke-width="3" stroke-linecap="round" stroke-linejoin="round" stroke-miterlimit="10" x1="305.688" y1="441.196" x2="305.805" y2="490.642"/>
		<path stroke="#000000" stroke-width="0.309" stroke-linejoin="bevel" stroke-miterlimit="10" d="M305.688,489.366l63.351,0.098
			c0.719,0,1.297,0.578,1.273,1.275c0,0.715-0.559,1.293-1.273,1.293l-63.351-0.095c-0.715,0-1.295-0.582-1.295-1.296
			C304.394,489.946,304.974,489.366,305.688,489.366L305.688,489.366z M366.47,483.014l25.745,7.764l-25.766,7.688L366.47,483.014z"
			/>
	</g>
	<text id="varYe" transform="matrix(1 0 0 1 222.2109 438.8994)" display="inline" font-family="sans-serif" font-size="28">JK01041973</text>
	<text id="varCe" transform="matrix(1 0 0 1 295.8594 251.5039)" display="inline" font-family="sans-serif" font-size="28">1</text>
	<text id="varTe" transform="matrix(1 0 0 1 173.4346 398.1133)" display="inline" font-family="sans-serif" font-size="24">BOMB</text>
	<text id="varHe_1_" transform="matrix(1 0 0 1 377.7061 307.2285)" display="inline" font-family="sans-serif" font-size="24">1MT</text>
	<text id="varNe" transform="matrix(1 0 0 1 377.7061 398.1133)" display="inline" font-family="sans-serif" font-size="24">ENY</text>
	<text id="varWe" transform="matrix(1 0 0 1 92.6973 306.2285)" display="inline" font-family="sans-serif" font-size="20">291000ZFEB08</text>
	<text id="varVe" transform="matrix(1 0 0 1 198.9834 352.1133)" display="inline" font-family="sans-serif" font-size="24">B61</text>
</g>
</svg>
