<?xml version="1.0" encoding="utf-8"?>
<!-- Generator: Adobe Illustrator 16.0.0, SVG Export Plug-In . SVG Version: 6.00 Build 0)  -->
<!DOCTYPE svg PUBLIC "-//W3C//DTD SVG 1.1//EN" "http://www.w3.org/Graphics/SVG/1.1/DTD/svg11.dtd">
<svg version="1.1" id="Version_1.0" xmlns="http://www.w3.org/2000/svg" xmlns:xlink="http://www.w3.org/1999/xlink" x="0px"
	 y="0px" width="612px" height="792px" viewBox="0 0 612 792" enable-background="new 0 0 612 792" xml:space="preserve">
<g id="main">
	<polygon fill="none" stroke="#000000" stroke-width="5" stroke-linecap="round" stroke-miterlimit="8" points="305.01,395.762 
		378.596,278.062 231.425,278.062 	"/>
	<g>
		<path stroke="#000000" stroke-width="1.1654" d="M284.252,307.355c-3.894,0-7.046,4.143-7.046,9.229
			c0,5.11,3.152,9.229,7.046,9.229c3.895,0,7.045-4.119,7.045-9.229C291.297,311.499,288.146,307.355,284.252,307.355"/>
		<path fill="none" stroke="#000000" stroke-width="5.1568" stroke-linejoin="round" stroke-miterlimit="10" d="M285.252,309.351
			c16.783,0,30.381,17.71,30.381,39.537"/>
		<path fill="none" stroke="#000000" stroke-width="5.1568" stroke-linejoin="round" stroke-miterlimit="10" d="M327.741,309.351
			c-16.784,0-30.38,17.71-30.38,39.537"/>
		<path stroke="#000000" stroke-width="1.135" d="M328.516,307.103c-3.77,0-6.819,4.059-6.819,9.043
			c0,5.007,3.052,9.043,6.819,9.043c3.771,0,6.82-4.037,6.82-9.043C335.336,311.162,332.286,307.103,328.516,307.103"/>
	</g>
	<text transform="matrix(1 0 0 1 298.1074 305.5615)" font-family="sans-serif" font-size="28">N</text>
</g>
<g id="template" display="none">
	<g id="varW" display="inline">
		
			<rect x="168.074" y="278.062" fill="none" stroke="#000000" stroke-width="1.9314" stroke-linecap="round" stroke-miterlimit="8" width="54.851" height="46.103"/>
		<text transform="matrix(1 0 0 1 180.666 310.2285)" font-family="sans-serif" font-size="28">W</text>
	</g>
	<g id="varT" display="inline">
		
			<rect x="172.208" y="376.947" fill="none" stroke="#000000" stroke-width="1.9314" stroke-linecap="round" stroke-miterlimit="8" width="46.605" height="46.105"/>
		<text transform="matrix(1 0 0 1 183.9951 409.1133)" font-family="sans-serif" font-size="28">T</text>
	</g>
	<g id="varH" display="inline">
		
			<rect x="384.91" y="278.062" fill="none" stroke="#000000" stroke-width="1.9314" stroke-linecap="round" stroke-miterlimit="8" width="49.195" height="46.103"/>
		<text transform="matrix(1 0 0 1 401.0146 310.2285)" font-family="sans-serif" font-size="28">H</text>
	</g>
	<g id="varN" display="inline">
		
			<rect x="384.91" y="376.947" fill="none" stroke="#000000" stroke-width="1.9314" stroke-linecap="round" stroke-miterlimit="8" width="49.195" height="46.105"/>
		<text transform="matrix(1 0 0 1 401.0146 409.1133)" font-family="sans-serif" font-size="28">N</text>
	</g>
	<g id="varY" display="inline">
		
			<rect x="280.367" y="438.755" fill="none" stroke="#000000" stroke-width="1.9314" stroke-linecap="round" stroke-miterlimit="8" width="48.014" height="46.103"/>
		<text transform="matrix(1 0 0 1 294.9189 470.8994)" font-family="sans-serif" font-size="28">Y</text>
	</g>
	<g id="varC" display="inline">
		
			<rect x="279.844" y="219.619" fill="none" stroke="#000000" stroke-width="1.9314" stroke-linecap="round" stroke-miterlimit="8" width="49.193" height="46.083"/>
		<text transform="matrix(1 0 0 1 292.8438 251.5039)" font-family="sans-serif" font-size="28">C</text>
	</g>
	<g display="inline">
		<g id="varQ">
			
				<line fill="none" stroke="#000000" stroke-width="3" stroke-linecap="round" stroke-linejoin="round" stroke-miterlimit="10" x1="301.997" y1="488.196" x2="302.113" y2="537.642"/>
			<path stroke="#000000" stroke-width="0.309" stroke-linejoin="bevel" stroke-miterlimit="10" d="M301.997,536.366l63.351,0.098
				c0.719,0,1.297,0.578,1.273,1.275c0,0.715-0.559,1.293-1.273,1.293l-63.351-0.095c-0.715,0-1.295-0.582-1.295-1.296
				C300.702,536.946,301.282,536.366,301.997,536.366L301.997,536.366z M362.778,530.014l25.745,7.764l-25.766,7.688
				L362.778,530.014z"/>
			<text id="Q" transform="matrix(1 0 0 1 393.6094 545.9814)" font-family="sans-serif" font-size="28">Q</text>
		</g>
		<text transform="matrix(1 0 0 1 127.0742 491.833)" font-family="sans-serif" font-size="23.1768">POINT</text>
		<text transform="matrix(1 0 0 1 127.0742 464.0205)" font-family="sans-serif" font-size="23.1768">ANCHOR</text>
		<g>
			<g>
				
					<line fill="none" stroke="#000000" stroke-width="4" stroke-linejoin="bevel" x1="222.925" y1="472.899" x2="289.855" y2="414.778"/>
				<g>
					<polygon points="290.777,428.691 287.057,417.208 276.209,411.915 303.379,403.036 					"/>
				</g>
			</g>
		</g>
	</g>
	<g id="varV" display="inline">
		
			<rect x="172.208" y="327.947" fill="none" stroke="#000000" stroke-width="1.9314" stroke-linecap="round" stroke-miterlimit="8" width="46.605" height="46.105"/>
		<text id="V" transform="matrix(1 0 0 1 183.9951 360.1133)" font-family="sans-serif" font-size="28">V</text>
	</g>
</g>
<g id="example" display="none">
	<g id="varQ_1_" display="inline">
		
			<line fill="none" stroke="#000000" stroke-width="3" stroke-linecap="round" stroke-linejoin="round" stroke-miterlimit="10" x1="304.997" y1="441.196" x2="305.113" y2="490.642"/>
		<path stroke="#000000" stroke-width="0.309" stroke-linejoin="bevel" stroke-miterlimit="10" d="M304.997,489.366l63.351,0.098
			c0.719,0,1.297,0.578,1.273,1.275c0,0.715-0.559,1.293-1.273,1.293l-63.351-0.095c-0.715,0-1.295-0.582-1.295-1.296
			C303.702,489.946,304.282,489.366,304.997,489.366L304.997,489.366z M365.778,483.014l25.745,7.764l-25.766,7.688L365.778,483.014
			z"/>
	</g>
	<text id="varYe" transform="matrix(1 0 0 1 221.5195 438.8994)" display="inline" font-family="sans-serif" font-size="28">SL12071962</text>
	<text id="varCe" transform="matrix(1 0 0 1 295.168 251.5039)" display="inline" font-family="sans-serif" font-size="28">1</text>
	<text id="varTe" transform="matrix(1 0 0 1 203.4111 398.1133)" display="inline" font-family="sans-serif" font-size="24">IED</text>
	<text id="varHe_1_" transform="matrix(1 0 0 1 377.0146 307.2285)" display="inline" font-family="sans-serif" font-size="24">3.5KT</text>
	<text id="varNe" transform="matrix(1 0 0 1 377.0146 398.1133)" display="inline" font-family="sans-serif" font-size="24">ENY</text>
	<text id="varWe" transform="matrix(1 0 0 1 92.0059 306.2285)" display="inline" font-family="sans-serif" font-size="20">092100ZFEB07</text>
	<text id="varVe" transform="matrix(1 0 0 1 87.292 352.1133)" display="inline" font-family="sans-serif" font-size="24">XRAY SOURCE</text>
</g>
</svg>
