<?xml version="1.0" encoding="utf-8"?>
<!-- Generator: Adobe Illustrator 16.0.0, SVG Export Plug-In . SVG Version: 6.00 Build 0)  -->
<!DOCTYPE svg PUBLIC "-//W3C//DTD SVG 1.1//EN" "http://www.w3.org/Graphics/SVG/1.1/DTD/svg11.dtd">
<svg version="1.1" id="Version_1.0" xmlns="http://www.w3.org/2000/svg" xmlns:xlink="http://www.w3.org/1999/xlink" x="0px"
	 y="0px" width="400px" height="400px" viewBox="0 0 400 400" enable-background="new 0 0 400 400" xml:space="preserve">
<g id="main">
	<ellipse stroke="#000000" cx="190" cy="320.75" rx="20" ry="20"/>
	<path fill="none" stroke="#000000" stroke-width="15" d="M190.8,90.35c-5.724,57.244-3.417,223.809-99.2,248"/>
	<path fill="none" stroke="#000000" stroke-width="15" d="M190.271,89.95c5.725,57.243,3.418,223.808,99.202,248"/>
	<path fill="none" stroke="#000000" stroke-width="10" d="M120.223,327.954c49.012-27.532,68.266-64.359,69.377-112.134"/>
	<path fill="none" stroke="#000000" stroke-width="10" d="M260.912,327.954c-49.014-27.532-68.268-64.359-69.378-112.134"/>
	
		<rect x="197.417" y="180.403" transform="matrix(-0.9357 0.3527 -0.3527 -0.9357 478.681 388.7332)" stroke="#000000" stroke-width="3" width="13.013" height="115.151"/>
	
		<rect x="171.415" y="180.398" transform="matrix(0.9357 0.3528 -0.3528 0.9357 95.388 -47.4654)" stroke="#000000" stroke-width="3" width="13.014" height="115.159"/>
</g>
<g id="template" transform="translate(74.5 -75.5) translate(175 175) scale(1.78 1.78) translate(-175 -175) translate(0 -7.86517) translate(0 -2.24719)" display="none">
	<rect x="164.226" y="162.5" display="inline" fill="none" stroke="#000000" stroke-width="5" width="50" height="50"/>
	<text transform="matrix(0.5618 0 0 0.5618 177.2203 200.5009)" display="inline" font-family="sans-serif" font-size="64.08">X</text>
</g>
<g id="example" transform="translate(74.5 -75.5) translate(175 175) scale(1.78 1.78) translate(-175 -175) translate(0 -7.86517) translate(0 -2.24719)" display="none">
	<text transform="matrix(0.5618 0 0 0.5618 159.8046 200.501)" display="inline" font-family="sans-serif" font-size="64.08">2562</text>
</g>
</svg>
