<?xml version="1.0" encoding="utf-8"?>
<!-- Generator: Adobe Illustrator 16.0.0, SVG Export Plug-In . SVG Version: 6.00 Build 0)  -->
<!DOCTYPE svg PUBLIC "-//W3C//DTD SVG 1.1//EN" "http://www.w3.org/Graphics/SVG/1.1/DTD/svg11.dtd">
<svg version="1.1" id="Version_1.0" xmlns="http://www.w3.org/2000/svg" xmlns:xlink="http://www.w3.org/1999/xlink" x="0px"
	 y="0px" width="400px" height="400px" viewBox="0 0 400 400" enable-background="new 0 0 400 400" xml:space="preserve">
<g id="main">
	
		<g transform="translate(-133.735 -1.80723) translate(145 350) scale(0.344828 0.344828) translate(-145 -350) translate(-6.98795 -143.253)">
		<polygon fill="none" stroke="#000000" stroke-width="5" stroke-linejoin="round" points="181.987,238.211 211.986,-61.789 
			241.986,238.211 211.986,163.213 		"/>
		<line fill="none" stroke="#000000" stroke-width="5" x1="197.986" y1="73.211" x2="224.987" y2="73.211"/>
		
			<line fill="none" stroke="#000000" stroke-width="5" stroke-linecap="round" x1="161.987" y1="-28.787" x2="261.987" y2="-28.787"/>
		<line fill="none" stroke="#000000" stroke-width="5" x1="219.987" y1="-27.79" x2="301.987" y2="168.211"/>
		<path fill="none" stroke="#000000" stroke-width="5" stroke-linecap="round" d="M161.987-28.787l-5,6.998v10"/>
		<path fill="none" stroke="#000000" stroke-width="5" stroke-linecap="round" d="M261.987-28.787l5,6.998v10"/>
	</g>
	
		<g transform="translate(96.988 4.81928) translate(145 350) scale(0.34 0.34) translate(-145 -350) translate(0 -14.1743) translate(0 -2.94118) translate(0 -2.94118) translate(287.03 -145.287)">
		<polygon fill="none" stroke="#000000" stroke-width="5" stroke-linejoin="round" points="182.155,236.624 212.158,-63.376 
			242.156,236.624 212.158,161.624 		"/>
		<line fill="none" stroke="#000000" stroke-width="5" x1="198.159" y1="71.623" x2="225.158" y2="71.623"/>
		
			<line fill="none" stroke="#000000" stroke-width="5" stroke-linecap="round" x1="162.158" y1="-30.376" x2="262.158" y2="-30.376"/>
		<line fill="none" stroke="#000000" stroke-width="5" x1="220.155" y1="-29.377" x2="302.157" y2="166.625"/>
		<path fill="none" stroke="#000000" stroke-width="5" stroke-linecap="round" d="M162.158-30.376l-5.003,7.001v10"/>
		<path fill="none" stroke="#000000" stroke-width="5" stroke-linecap="round" d="M262.158-30.376l4.998,7.001v10"/>
	</g>
	<line fill="none" stroke="#000000" stroke-width="3" x1="64.133" y1="201.452" x2="344.133" y2="201.452"/>
</g>
<g id="points" display="none">
	<text transform="matrix(1 0 0 1 31.9546 112.9521)" display="inline" font-family="sans-serif" font-size="24">For use on maps of all scales</text>
	<text transform="matrix(1 0 0 1 71.3139 314.8975)" display="inline" font-family="sans-serif" font-size="24">PT. 1</text>
	<text transform="matrix(1 0 0 1 267.5996 315.0518)" display="inline" font-family="sans-serif" font-size="24">PT. 2</text>
	<g transform="translate(-128 156)" display="inline">
		<line fill="none" stroke="#000000" stroke-width="3" x1="170.133" y1="114.452" x2="194.133" y2="141.452"/>
		<polygon stroke="#000000" stroke-width="5" points="165.595,109.223 168.133,116.452 172.287,112.684 		"/>
	</g>
	<g transform="matrix(-1 0 0 1 515.139 156) translate(0 1)" display="inline">
		<line fill="none" stroke="#000000" stroke-width="3" x1="161.868" y1="114.452" x2="185.868" y2="141.452"/>
		<polygon stroke="#000000" stroke-width="5" points="157.328,109.223 159.868,116.452 164.02,112.684 		"/>
	</g>
</g>
<g id="example" display="none">
	
		<g transform="translate(-133.735 -1.80723) translate(145 350) scale(0.344828 0.344828) translate(-145 -350) translate(-6.98795 -143.253)" display="inline">
		<polygon fill="none" stroke="#000000" stroke-width="5" stroke-linejoin="round" points="181.986,354.211 211.986,54.211 
			241.986,354.211 211.986,279.213 		"/>
		<line fill="none" stroke="#000000" stroke-width="5" x1="197.986" y1="189.211" x2="224.987" y2="189.211"/>
		<line fill="none" stroke="#000000" stroke-width="5" stroke-linecap="round" x1="161.987" y1="87.213" x2="261.987" y2="87.213"/>
		<line fill="none" stroke="#000000" stroke-width="5" x1="219.987" y1="88.209" x2="301.987" y2="284.211"/>
		<path fill="none" stroke="#000000" stroke-width="5" stroke-linecap="round" d="M161.987,87.213l-5,6.998v10"/>
		<path fill="none" stroke="#000000" stroke-width="5" stroke-linecap="round" d="M261.987,87.213l5,6.998v10"/>
	</g>
	
		<g transform="translate(96.988 4.81928) translate(145 350) scale(0.34 0.34) translate(-145 -350) translate(0 -14.1743) translate(0 -2.94118) translate(0 -2.94118) translate(287.03 -145.287)" display="inline">
		<polygon fill="none" stroke="#000000" stroke-width="5" stroke-linejoin="round" points="182.155,236.624 212.158,-63.376 
			242.156,236.624 212.158,161.624 		"/>
		<line fill="none" stroke="#000000" stroke-width="5" x1="198.159" y1="71.623" x2="225.158" y2="71.623"/>
		
			<line fill="none" stroke="#000000" stroke-width="5" stroke-linecap="round" x1="162.158" y1="-30.376" x2="262.158" y2="-30.376"/>
		<line fill="none" stroke="#000000" stroke-width="5" x1="220.155" y1="-29.377" x2="302.157" y2="166.625"/>
		<path fill="none" stroke="#000000" stroke-width="5" stroke-linecap="round" d="M162.158-30.376l-5.003,7.001v10"/>
		<path fill="none" stroke="#000000" stroke-width="5" stroke-linecap="round" d="M262.158-30.376l4.998,7.001v10"/>
	</g>
	
		<g transform="translate(96.988 4.81928) translate(145 350) scale(0.34 0.34) translate(-145 -350) translate(0 -14.1743) translate(0 -2.94118) translate(0 -2.94118) translate(287.03 -145.287)" display="inline">
		<polygon fill="none" stroke="#000000" stroke-width="5" stroke-linejoin="round" points="-313.025,-120.594 -283.022,-420.594 
			-253.024,-120.594 -283.022,-195.594 		"/>
		<line fill="none" stroke="#000000" stroke-width="5" x1="-297.021" y1="-285.595" x2="-270.022" y2="-285.595"/>
		
			<line fill="none" stroke="#000000" stroke-width="5" stroke-linecap="round" x1="-333.022" y1="-387.594" x2="-233.022" y2="-387.594"/>
		<line fill="none" stroke="#000000" stroke-width="5" x1="-275.026" y1="-386.595" x2="-193.023" y2="-190.593"/>
		<path fill="none" stroke="#000000" stroke-width="5" stroke-linecap="round" d="M-333.022-387.594l-5.003,7.001v10"/>
		<path fill="none" stroke="#000000" stroke-width="5" stroke-linecap="round" d="M-233.022-387.594l4.998,7.001v10"/>
	</g>
	<line display="inline" fill="none" stroke="#000000" stroke-width="3" x1="224.65" y1="81.48" x2="345.412" y2="211.109"/>
	<line display="inline" fill="none" stroke="#000000" stroke-width="3" x1="53.5" y1="236.775" x2="177.051" y2="108.5"/>
</g>
</svg>
