<?xml version="1.0" encoding="utf-8"?>
<!-- Generator: Adobe Illustrator 16.0.0, SVG Export Plug-In . SVG Version: 6.00 Build 0)  -->
<!DOCTYPE svg PUBLIC "-//W3C//DTD SVG 1.1//EN" "http://www.w3.org/Graphics/SVG/1.1/DTD/svg11.dtd">
<svg version="1.1" id="Version_1.0" xmlns="http://www.w3.org/2000/svg" xmlns:xlink="http://www.w3.org/1999/xlink" x="0px"
	 y="0px" width="400px" height="400px" viewBox="0 0 400 400" enable-background="new 0 0 400 400" xml:space="preserve">
<g id="main">
	<text transform="matrix(1 0 0 1 17.6787 149)" font-family="sans-serif" font-size="55">x x x x x x x x x</text>
	<line fill="none" stroke="#000000" stroke-width="5" x1="13.679" y1="151" x2="390.679" y2="151"/>
</g>
<g id="points" display="none">
	<g display="inline">
		<text transform="matrix(1 0 0 1 32.499 210.999)" font-family="sans-serif" font-size="15">PT 2</text>
		<line fill="none" stroke="#000000" stroke-width="2" x1="13.75" y1="166" x2="13.75" y2="186"/>
		<line fill="none" stroke="#000000" stroke-width="2" x1="13.326" y1="185.096" x2="28.75" y2="204.75"/>
		<polygon stroke="#000000" stroke-width="2" points="13.75,159.75 21.25,176.001 6.25,176.001 		"/>
	</g>
	<g display="inline">
		<text transform="matrix(1 0 0 1 338.499 204.9277)" font-family="sans-serif" font-size="15">PT 1</text>
		<line fill="none" stroke="#000000" stroke-width="2" x1="391.75" y1="167.429" x2="391.75" y2="186.179"/>
		<line fill="none" stroke="#000000" stroke-width="2" x1="392.186" y1="185.275" x2="374.25" y2="198.679"/>
		<polygon stroke="#000000" stroke-width="2" points="390.5,162.429 398,178.679 383,178.679 		"/>
	</g>
</g>
<g id="example" display="none">
	<g display="inline">
		<path fill="none" stroke="#808080" stroke-width="5" stroke-linecap="round" stroke-linejoin="round" stroke-miterlimit="8" d="
			M40.72,161.958c-4.45,0-8.057,7.202-8.057,16.088s3.607,16.087,8.057,16.087c4.451,0,8.059-7.201,8.059-16.087
			S45.171,161.958,40.72,161.958L40.72,161.958z"/>
		<path fill="none" stroke="#808080" stroke-width="5" stroke-linecap="round" stroke-linejoin="round" stroke-miterlimit="8" d="
			M363.013,161.958c-4.451,0-8.059,7.202-8.059,16.088s3.607,16.087,8.059,16.087c4.45,0,8.058-7.201,8.058-16.087
			S367.463,161.958,363.013,161.958L363.013,161.958z"/>
		<path fill="none" stroke="#808080" stroke-width="5" stroke-linecap="round" stroke-linejoin="round" stroke-miterlimit="8" d="
			M132.708,161.958c-4.45,0-8.057,7.202-8.057,16.088s3.607,16.087,8.057,16.087c4.451,0,8.058-7.201,8.058-16.087
			S137.158,161.958,132.708,161.958L132.708,161.958z"/>
		<path fill="none" stroke="#808080" stroke-width="5" stroke-linecap="round" stroke-linejoin="round" stroke-miterlimit="8" d="
			M178.769,161.958c-4.451,0-8.058,7.202-8.058,16.088s3.607,16.087,8.058,16.087c4.45,0,8.058-7.201,8.058-16.087
			S183.218,161.958,178.769,161.958L178.769,161.958z"/>
		<path fill="none" stroke="#808080" stroke-width="5" stroke-linecap="round" stroke-linejoin="round" stroke-miterlimit="8" d="
			M224.695,161.958c-4.45,0-8.057,7.202-8.057,16.088s3.606,16.087,8.057,16.087s8.059-7.201,8.059-16.087
			S229.146,161.958,224.695,161.958L224.695,161.958z"/>
		<path fill="none" stroke="#808080" stroke-width="5" stroke-linecap="round" stroke-linejoin="round" stroke-miterlimit="8" d="
			M270.755,161.958c-4.449,0-8.056,7.202-8.056,16.088s3.606,16.087,8.056,16.087c4.453,0,8.059-7.201,8.059-16.087
			S275.208,161.958,270.755,161.958L270.755,161.958z"/>
		<path fill="none" stroke="#808080" stroke-width="5" stroke-linecap="round" stroke-linejoin="round" stroke-miterlimit="8" d="
			M316.682,161.958c-4.449,0-8.056,7.202-8.056,16.088s3.606,16.087,8.056,16.087c4.453,0,8.059-7.201,8.059-16.087
			S321.135,161.958,316.682,161.958L316.682,161.958z"/>
		<path fill="none" stroke="#808080" stroke-width="5" stroke-linecap="round" stroke-linejoin="round" stroke-miterlimit="8" d="
			M86.781,161.958c-4.45,0-8.057,7.202-8.057,16.088s3.607,16.087,8.057,16.087s8.057-7.201,8.057-16.087
			S91.231,161.958,86.781,161.958L86.781,161.958z"/>
		
			<line fill="none" stroke="#808080" stroke-width="5" stroke-linejoin="round" stroke-miterlimit="8" x1="16.549" y1="194.133" x2="387.184" y2="194.133"/>
		
			<line fill="none" stroke="#808080" stroke-width="5" stroke-linejoin="round" stroke-miterlimit="8" x1="16.549" y1="161.958" x2="387.184" y2="161.958"/>
	</g>
	<g display="inline">
		<text transform="matrix(1 0 0 1 17.6787 149)" fill="#00FF00" font-family="sans-serif" font-size="55">x x x x x x x x x</text>
		<line fill="none" stroke="#00FF00" stroke-width="5" x1="13.679" y1="151" x2="390.679" y2="151"/>
	</g>
</g>
</svg>
