<?xml version="1.0" encoding="utf-8"?>
<!-- Generator: Adobe Illustrator 16.0.0, SVG Export Plug-In . SVG Version: 6.00 Build 0)  -->
<!DOCTYPE svg PUBLIC "-//W3C//DTD SVG 1.1//EN" "http://www.w3.org/Graphics/SVG/1.1/DTD/svg11.dtd">
<svg version="1.1" id="Version_1.0" xmlns="http://www.w3.org/2000/svg" xmlns:xlink="http://www.w3.org/1999/xlink" x="0px"
	 y="0px" width="400px" height="400px" viewBox="0 0 400 400" enable-background="new 0 0 400 400" xml:space="preserve">
<g id="main">
	<path fill="none" stroke="#000000" stroke-width="5" stroke-dasharray="15,15" d="M54.026,213.146
		c0-82.815,67.134-149.952,149.949-149.952c82.813,0,149.948,67.134,149.948,149.952"/>
	
		<line fill="none" stroke="#000000" stroke-width="5" stroke-dasharray="15,15" x1="51.194" y1="215.115" x2="356.167" y2="215.203"/>
</g>
<g id="template" display="none">
	<g display="inline">
		<text transform="matrix(1 0 0 1 87.7129 306.7813)" font-family="sans-serif" font-size="24">PT 1</text>
		<line fill="none" stroke="#000000" stroke-width="5" x1="51.713" y1="236.781" x2="51.713" y2="272.781"/>
		<line fill="none" stroke="#000000" stroke-width="5" x1="50.945" y1="271.148" x2="83.713" y2="298.781"/>
		<polygon stroke="#000000" stroke-width="2" points="51.713,224.781 61.713,248.781 41.713,248.781 		"/>
	</g>
	<g display="inline">
		<text transform="matrix(1 0 0 1 249.7129 307.7813)" font-family="sans-serif" font-size="24">PT 2</text>
		<line fill="none" stroke="#000000" stroke-width="5" x1="357.713" y1="237.781" x2="357.713" y2="267.781"/>
		<line fill="none" stroke="#000000" stroke-width="5" x1="358.011" y1="266.148" x2="309.713" y2="297.781"/>
		<polygon stroke="#000000" stroke-width="2" points="355.713,225.781 365.713,249.781 345.713,249.781 		"/>
	</g>
</g>
</svg>
