<?xml version="1.0" encoding="utf-8"?>
<!-- Generator: Adobe Illustrator 16.0.0, SVG Export Plug-In . SVG Version: 6.00 Build 0)  -->
<!DOCTYPE svg PUBLIC "-//W3C//DTD SVG 1.1//EN" "http://www.w3.org/Graphics/SVG/1.1/DTD/svg11.dtd">
<svg version="1.1" id="Version_1.0" xmlns="http://www.w3.org/2000/svg" xmlns:xlink="http://www.w3.org/1999/xlink" x="0px"
	 y="0px" width="400px" height="400px" viewBox="0 0 400 400" enable-background="new 0 0 400 400" xml:space="preserve">
<g id="main">
	
		<line fill="none" stroke="#000000" stroke-width="5" stroke-linejoin="round" stroke-miterlimit="10" x1="241.093" y1="57.824" x2="240.173" y2="279.684"/>
	
		<line fill="none" stroke="#000000" stroke-width="5" stroke-linejoin="round" stroke-miterlimit="10" x1="282.63" y1="314.504" x2="240.988" y2="279.684"/>
	
		<line fill="none" stroke="#000000" stroke-width="5" stroke-linejoin="round" stroke-miterlimit="10" x1="199.348" y1="314.504" x2="240.988" y2="279.684"/>
	
		<line fill="none" stroke="#000000" stroke-width="5" stroke-linejoin="round" stroke-miterlimit="10" x1="199.452" y1="23.02" x2="241.093" y2="57.824"/>
	
		<line fill="none" stroke="#000000" stroke-width="5" stroke-linejoin="round" stroke-miterlimit="10" x1="282.732" y1="23.02" x2="241.093" y2="57.824"/>
</g>
<g id="template" display="none">
	<g id="varW1" display="inline">
		
			<rect x="245.848" y="321.67" fill="none" stroke="#000000" stroke-width="1.735" stroke-linecap="round" stroke-miterlimit="8" width="56.909" height="45.337"/>
		<text transform="matrix(1 0 0 1 256.2441 352.3008)" font-family="sans-serif" font-size="24.4293">W1</text>
	</g>
	<g id="varW" display="inline">
		<text transform="matrix(1 0 0 1 230.6875 352.0107)" font-family="sans-serif" font-size="24.4293">-</text>
		
			<rect x="177.019" y="321.67" fill="none" stroke="#000000" stroke-width="1.735" stroke-linecap="round" stroke-miterlimit="8" width="46.967" height="45.337"/>
		<text transform="matrix(1 0 0 1 189.3193 352.3008)" font-family="sans-serif" font-size="24.4293">W</text>
	</g>
	<g id="points" display="inline">
		<g>
			<text transform="matrix(1 0 0 1 97.4453 285.375)" font-family="sans-serif" font-size="24">P</text>
			<text transform="matrix(1 0 0 1 113.5254 285.375)" font-family="sans-serif" font-size="24">T</text>
			<text transform="matrix(1 0 0 1 128.4014 285.375)" font-family="sans-serif" font-size="24"> </text>
			<text transform="matrix(1 0 0 1 134.9014 285.375)" font-family="sans-serif" font-size="24">2</text>
			<path stroke="#000000" stroke-width="0.2776" stroke-linejoin="bevel" stroke-miterlimit="10" d="M153.812,276.826h62.461
				c0.642,0,1.162,0.521,1.162,1.16c0,0.645-0.521,1.164-1.162,1.164h-62.461c-0.625,0-1.146-0.521-1.146-1.164
				C152.666,277.348,153.186,276.826,153.812,276.826L153.812,276.826z M213.966,271.047l23.127,6.939l-23.127,6.939V271.047z"/>
		</g>
		<g>
			<text transform="matrix(1 0 0 1 97.4453 62.7314)" font-family="sans-serif" font-size="24">P</text>
			<text transform="matrix(1 0 0 1 113.5254 62.7314)" font-family="sans-serif" font-size="24">T</text>
			<text transform="matrix(1 0 0 1 128.4014 62.7314)" font-family="sans-serif" font-size="24"> </text>
			<text transform="matrix(1 0 0 1 134.9014 62.7314)" font-family="sans-serif" font-size="24">1</text>
			<path stroke="#000000" stroke-width="0.2776" stroke-linejoin="bevel" stroke-miterlimit="10" d="M153.812,57.169h62.461
				c0.642,0,1.162,0.521,1.162,1.163c0,0.641-0.521,1.145-1.162,1.145h-62.461c-0.625,0-1.146-0.504-1.146-1.145
				C152.666,57.69,153.186,57.169,153.812,57.169L153.812,57.169z M213.966,51.392l23.127,6.94l-23.127,6.939V51.392z"/>
		</g>
	</g>
</g>
<g id="example" display="none">
	<text id="varWeW1e" transform="matrix(1 0 0 1 152.3193 348.3008)" display="inline" font-family="sans-serif" font-size="24.4293">120600ZFEB07</text>
	<g display="inline">
		<polygon fill="none" stroke="#808080" stroke-width="5" stroke-linecap="round" stroke-miterlimit="8" points="96.927,139.985 
			96.927,206.021 383.202,206.021 383.202,139.985 96.927,139.985 		"/>
		<path fill-rule="evenodd" clip-rule="evenodd" fill="#808080" d="M140.737,154.242c-10.253,0-18.564,8.297-18.564,18.534
			c0,10.234,8.311,18.531,18.564,18.531c10.252,0,18.563-8.296,18.563-18.531C159.301,162.539,150.99,154.242,140.737,154.242
			L140.737,154.242z"/>
		<path fill-rule="evenodd" clip-rule="evenodd" fill="#808080" d="M206.822,154.242c-10.285,0-18.62,8.297-18.62,18.534
			c0,10.234,8.335,18.531,18.62,18.531c10.285,0,18.621-8.296,18.621-18.531C225.443,162.539,217.107,154.242,206.822,154.242
			L206.822,154.242z"/>
		<path fill-rule="evenodd" clip-rule="evenodd" fill="#808080" d="M272.852,154.242c-10.285,0-18.622,8.297-18.622,18.534
			c0,10.234,8.337,18.531,18.622,18.531c10.284,0,18.62-8.296,18.62-18.531C291.472,162.539,283.136,154.242,272.852,154.242
			L272.852,154.242z"/>
		<path fill-rule="evenodd" clip-rule="evenodd" fill="#808080" d="M338.937,154.242c-10.252,0-18.563,8.297-18.563,18.534
			c0,10.234,8.312,18.531,18.563,18.531c10.253,0,18.564-8.296,18.564-18.531C357.501,162.539,349.189,154.242,338.937,154.242
			L338.937,154.242z"/>
	</g>
</g>
</svg>
