<?xml version="1.0" encoding="utf-8"?>
<!-- Generator: Adobe Illustrator 16.0.0, SVG Export Plug-In . SVG Version: 6.00 Build 0)  -->
<!DOCTYPE svg PUBLIC "-//W3C//DTD SVG 1.1//EN" "http://www.w3.org/Graphics/SVG/1.1/DTD/svg11.dtd">
<svg version="1.1" id="Version_1.0" xmlns="http://www.w3.org/2000/svg" xmlns:xlink="http://www.w3.org/1999/xlink" x="0px"
	 y="0px" width="400px" height="400px" viewBox="0 0 400 400" enable-background="new 0 0 400 400" xml:space="preserve">
<g id="main">
	<line fill="none" stroke="#000000" stroke-width="5" x1="147.066" y1="80" x2="147.066" y2="296"/>
	<line fill="none" stroke="#000000" stroke-width="5" x1="83.066" y1="130" x2="215.066" y2="130"/>
	<line fill="none" stroke="#000000" stroke-width="5" x1="26.5" y1="213.834" x2="281.859" y2="213.53"/>
	<path fill="none" stroke="#000000" stroke-width="5" d="M147.052,295.643c0,50.139,30.509,77.067,79.414,81.957"/>
</g>
<g id="template" transform="translate(-330 -220) scale(2 2)" display="none">
	<g display="inline">
		<text transform="matrix(0.5 0 0 0.5 281.1997 138.6665)" font-family="sans-serif" font-size="24">PT 1</text>
		<line fill="none" stroke="#000000" stroke-width="2" x1="253.533" y1="145" x2="278.233" y2="135.002"/>
		<polygon stroke="#000000" stroke-width="2" points="243.477,149.361 255.604,137.322 260.53,148.264 		"/>
	</g>
	<g display="inline">
		<text transform="matrix(0.5 0 0 0.5 278.2334 253.3335)" font-family="sans-serif" font-size="24">PT 2</text>
		<line fill="none" stroke="#000000" stroke-width="2" x1="253.533" y1="259" x2="274.533" y2="250.5"/>
		<polygon stroke="#000000" stroke-width="2" points="243.478,263.361 255.604,251.322 260.53,262.264 		"/>
	</g>
	<g display="inline">
		<text transform="matrix(0.5 0 0 0.5 312.8667 165.4121)" font-family="sans-serif" font-size="24">PT 3</text>
		<line fill="none" stroke="#000000" stroke-width="2" x1="287.533" y1="170" x2="310.204" y2="160.824"/>
		<polygon stroke="#000000" stroke-width="2" points="277.477,174.361 289.604,162.322 294.53,173.264 		"/>
	</g>
</g>
<g id="example" display="none">
	<path display="inline" fill-rule="evenodd" clip-rule="evenodd" d="M332.289,167.017c-27.853,0-50.43,20.823-50.43,46.513
		c0,25.691,22.577,46.513,50.43,46.513s50.43-20.821,50.43-46.513C382.719,187.84,360.142,167.017,332.289,167.017L332.289,167.017z
		"/>
	
		<line display="inline" fill="none" stroke="#000000" stroke-width="5" stroke-linejoin="round" stroke-miterlimit="8" x1="362.572" y1="177.325" x2="392.854" y2="146.272"/>
	
		<line display="inline" fill="none" stroke="#000000" stroke-width="5" stroke-linejoin="round" stroke-miterlimit="8" x1="302.007" y1="177.325" x2="271.725" y2="146.272"/>
</g>
</svg>
