<?xml version="1.0" encoding="utf-8"?>
<!-- Generator: Adobe Illustrator 16.0.0, SVG Export Plug-In . SVG Version: 6.00 Build 0)  -->
<!DOCTYPE svg PUBLIC "-//W3C//DTD SVG 1.1//EN" "http://www.w3.org/Graphics/SVG/1.1/DTD/svg11.dtd">
<svg version="1.1" id="Version_1.0" xmlns="http://www.w3.org/2000/svg" xmlns:xlink="http://www.w3.org/1999/xlink" x="0px"
	 y="0px" width="400px" height="400px" viewBox="0 0 400 400" enable-background="new 0 0 400 400" xml:space="preserve">
<g id="main">
	<g>
		<g>
			<line fill="none" stroke="#000000" stroke-width="5" x1="72.5" y1="169.942" x2="327.5" y2="169.942"/>
			<g>
				<polygon points="78.336,189.887 43.795,169.942 78.336,149.997 				"/>
			</g>
			<g>
				<polygon points="321.664,189.887 356.205,169.942 321.664,149.997 				"/>
			</g>
		</g>
	</g>
</g>
<g id="template" display="none">
	<g display="inline">
		<text transform="matrix(1 0 0 1 69.9995 241.5)" font-family="sans-serif" font-size="18">PT 1</text>
		<line fill="none" stroke="#000000" stroke-width="2" x1="43" y1="186" x2="43" y2="219"/>
		<line fill="none" stroke="#000000" stroke-width="2" x1="42.535" y1="217.875" x2="67" y2="234"/>
		<polygon stroke="#000000" stroke-width="2" points="43,175.5 50.5,190.5 35.5,190.5 		"/>
	</g>
	<g display="inline">
		<text transform="matrix(1 0 0 1 271.999 234)" font-family="sans-serif" font-size="18">PT 2</text>
		<line fill="none" stroke="#000000" stroke-width="2" x1="355" y1="183" x2="355" y2="210"/>
		<line fill="none" stroke="#000000" stroke-width="2" x1="355.81" y1="208.875" x2="319" y2="228"/>
		<polygon stroke="#000000" stroke-width="2" points="355,175.501 362.5,190.5 347.5,190.5 		"/>
	</g>
</g>
<g id="example" display="none">
	<path display="inline" fill="none" stroke="#808080" stroke-width="5" stroke-linejoin="round" stroke-miterlimit="8" d="
		M94.995,335.704c-10.564-52.085-11.186-85.626-6.836-142.62c32.316-40.358,27.965-81.263,27.965-124.076"/>
	<path display="inline" fill="none" stroke="#808080" stroke-width="5" stroke-linejoin="round" stroke-miterlimit="8" d="
		M294.039,335.704c-10.566-52.085-11.188-85.626-6.839-142.62c32.315-40.358,27.967-81.263,27.967-124.076"/>
</g>
</svg>
