<?xml version="1.0" encoding="utf-8"?>
<!-- Generator: Adobe Illustrator 16.0.0, SVG Export Plug-In . SVG Version: 6.00 Build 0)  -->
<!DOCTYPE svg PUBLIC "-//W3C//DTD SVG 1.1//EN" "http://www.w3.org/Graphics/SVG/1.1/DTD/svg11.dtd">
<svg version="1.1" id="Version_1.0" xmlns="http://www.w3.org/2000/svg" xmlns:xlink="http://www.w3.org/1999/xlink" x="0px"
	 y="0px" width="400px" height="400px" viewBox="0 0 400 400" enable-background="new 0 0 400 400" xml:space="preserve">
<g id="main">
	<polyline fill="none" stroke="#000000" stroke-width="5" points="165.9,249.667 255.9,294.667 165.9,339.667 165.9,69.667 
		255.9,114.667 165.9,159.667 	"/>
	<polyline fill="none" stroke="#000000" stroke-width="5" points="165.9,159.667 255.9,204.667 165.9,249.667 	"/>
</g>
<g id="template" display="none">
	<g display="inline">
		<text transform="matrix(1 0 0 1 10.9004 346.667)" font-family="sans-serif" font-size="24">PT 2</text>
		<polygon display="none" stroke="#000000" stroke-width="3" points="130.9,381.667 141.9,383.667 134.9,374.667 		"/>
		<g>
			<g>
				<line fill="none" stroke="#000000" stroke-width="3" x1="64.9" y1="340.667" x2="134.591" y2="340.667"/>
				<g>
					<polygon points="126.165,351.776 130.885,340.667 126.165,329.558 152.5,340.667 					"/>
				</g>
			</g>
		</g>
	</g>
	<g display="inline">
		<text transform="matrix(1 0 0 1 10.9004 79.667)" font-family="sans-serif" font-size="24">PT 1</text>
		<g>
			<g>
				<line fill="none" stroke="#000000" stroke-width="3" x1="64.9" y1="68.667" x2="134.591" y2="68.667"/>
				<g>
					<polygon points="126.165,79.776 130.885,68.667 126.165,57.558 152.5,68.667 					"/>
				</g>
			</g>
		</g>
		<polygon display="none" stroke="#000000" stroke-width="3" points="130.9,27.667 141.9,25.667 134.9,34.667 		"/>
	</g>
</g>
<g display="none">
	<polygon display="inline" fill-rule="evenodd" clip-rule="evenodd" fill="#FF8080" stroke="#808080" stroke-width="3" points="
		339.269,159.983 282.88,204.933 339.269,249.881 395.657,204.933 339.269,159.983 	"/>
	
		<path display="inline" fill="none" stroke="#808080" stroke-width="3" stroke-linecap="round" stroke-linejoin="round" stroke-miterlimit="8" d="
		M339.269,190.066c-13.236,0-23.965,6.656-23.965,14.866s10.729,14.865,23.965,14.865c13.235,0,23.964-6.655,23.964-14.865
		S352.504,190.066,339.269,190.066L339.269,190.066z"/>
	
		<line display="inline" fill="none" stroke="#808080" stroke-width="3" stroke-linejoin="round" stroke-miterlimit="8" x1="339.269" y1="140.104" x2="339.269" y2="159.983"/>
	<g display="inline">
		<polyline fill="none" stroke="#00FF00" stroke-width="5" points="165.9,249.667 255.9,294.667 165.9,339.667 165.9,69.667 
			255.9,114.667 165.9,159.667 		"/>
		<polyline fill="none" stroke="#00FF00" stroke-width="5" points="165.9,159.667 255.9,204.667 165.9,249.667 		"/>
	</g>
</g>
</svg>
