<?xml version="1.0" encoding="utf-8"?>
<!-- Generator: Adobe Illustrator 16.0.0, SVG Export Plug-In . SVG Version: 6.00 Build 0)  -->
<!DOCTYPE svg PUBLIC "-//W3C//DTD SVG 1.1//EN" "http://www.w3.org/Graphics/SVG/1.1/DTD/svg11.dtd">
<svg version="1.1" id="Version_1.0" xmlns="http://www.w3.org/2000/svg" xmlns:xlink="http://www.w3.org/1999/xlink" x="0px"
	 y="0px" width="400px" height="400px" viewBox="0 0 400 400" enable-background="new 0 0 400 400" xml:space="preserve">
<g id="main">
	<line fill="none" stroke="#000000" stroke-width="5" x1="37" y1="122.5" x2="357" y2="122.5"/>
	<text transform="matrix(1 0 0 1 304 143.499)" font-family="sans-serif" font-size="60">X</text>
	<text transform="matrix(1 0 0 1 179.9995 143.499)" font-family="sans-serif" font-size="60">X</text>
	<text transform="matrix(1 0 0 1 49.4995 143.499)" font-family="sans-serif" font-size="60">X</text>
</g>
<g id="template" display="none">
	<g display="inline">
		<text transform="matrix(1 0 0 1 86.9995 223.499)" font-family="sans-serif" font-size="30">PT 2</text>
		<line fill="none" stroke="#000000" stroke-width="2" x1="36.465" y1="177.393" x2="77" y2="208.5"/>
		<line fill="none" stroke="#000000" stroke-width="2" x1="37" y1="146" x2="37" y2="178.5"/>
		<polygon stroke="#000000" points="37,133.502 52,161.002 22,161.002 		"/>
	</g>
	<g display="inline">
		<text transform="matrix(1 0 0 1 258.5 218.999)" font-family="sans-serif" font-size="30">PT 1</text>
		<line fill="none" stroke="#000000" stroke-width="2" x1="357" y1="145" x2="357" y2="180"/>
		<line fill="none" stroke="#000000" stroke-width="2" x1="357.51" y1="178.21" x2="327" y2="202.5"/>
		<polygon stroke="#000000" points="357,130 372,157.5 342,157.5 		"/>
	</g>
</g>
<g id="example" display="none">
	<polyline display="inline" fill="none" stroke="#00FF00" stroke-width="5" points="37,122.5 281.5,122.5 369.5,213.5 	"/>
	
		<text transform="matrix(0.7245 0.6893 -0.6893 0.7245 298.4824 173.2983)" display="inline" fill="#00FF00" font-family="sans-serif" font-size="60">X</text>
	<text transform="matrix(1 0 0 1 179.9995 143.499)" display="inline" fill="#00FF00" font-family="sans-serif" font-size="60">X</text>
	<text transform="matrix(1 0 0 1 49.4995 143.499)" display="inline" fill="#00FF00" font-family="sans-serif" font-size="60">X</text>
</g>
</svg>
