<?xml version="1.0" encoding="utf-8"?>
<!-- Generator: Adobe Illustrator 16.0.0, SVG Export Plug-In . SVG Version: 6.00 Build 0)  -->
<!DOCTYPE svg PUBLIC "-//W3C//DTD SVG 1.1//EN" "http://www.w3.org/Graphics/SVG/1.1/DTD/svg11.dtd">
<svg version="1.1" id="Version_1.0" xmlns="http://www.w3.org/2000/svg" xmlns:xlink="http://www.w3.org/1999/xlink" x="0px"
	 y="0px" width="400px" height="400px" viewBox="0 0 400 400" enable-background="new 0 0 400 400" xml:space="preserve">
<g id="main">
	
		<line fill="none" stroke="#000000" stroke-width="5" stroke-linejoin="round" stroke-miterlimit="10" x1="241.093" y1="79.824" x2="240.173" y2="301.684"/>
	
		<line fill="none" stroke="#000000" stroke-width="5" stroke-linejoin="round" stroke-miterlimit="10" x1="282.63" y1="336.504" x2="240.988" y2="301.684"/>
	
		<line fill="none" stroke="#000000" stroke-width="5" stroke-linejoin="round" stroke-miterlimit="10" x1="199.348" y1="336.504" x2="240.988" y2="301.684"/>
	
		<line fill="none" stroke="#000000" stroke-width="5" stroke-linejoin="round" stroke-miterlimit="10" x1="199.452" y1="45.02" x2="241.093" y2="79.824"/>
	
		<line fill="none" stroke="#000000" stroke-width="5" stroke-linejoin="round" stroke-miterlimit="10" x1="282.732" y1="45.02" x2="241.093" y2="79.824"/>
</g>
<g id="template" display="none">
	<g display="inline">
		<text transform="matrix(1 0 0 1 97.4453 307.375)" font-family="sans-serif" font-size="24">P</text>
		<text transform="matrix(1 0 0 1 113.5254 307.375)" font-family="sans-serif" font-size="24">T</text>
		<text transform="matrix(1 0 0 1 128.4014 307.375)" font-family="sans-serif" font-size="24"> </text>
		<text transform="matrix(1 0 0 1 134.9014 307.375)" font-family="sans-serif" font-size="24">2</text>
		<path stroke="#000000" stroke-width="0.2776" stroke-linejoin="bevel" stroke-miterlimit="10" d="M153.812,298.826h62.461
			c0.642,0,1.162,0.521,1.162,1.16c0,0.645-0.521,1.164-1.162,1.164h-62.461c-0.625,0-1.146-0.521-1.146-1.164
			C152.666,299.348,153.186,298.826,153.812,298.826L153.812,298.826z M213.966,293.047l23.127,6.939l-23.127,6.938V293.047z"/>
	</g>
	<g display="inline">
		<text transform="matrix(1 0 0 1 97.4453 84.7314)" font-family="sans-serif" font-size="24">P</text>
		<text transform="matrix(1 0 0 1 113.5254 84.7314)" font-family="sans-serif" font-size="24">T</text>
		<text transform="matrix(1 0 0 1 128.4014 84.7314)" font-family="sans-serif" font-size="24"> </text>
		<text transform="matrix(1 0 0 1 134.9014 84.7314)" font-family="sans-serif" font-size="24">1</text>
		<path stroke="#000000" stroke-width="0.2776" stroke-linejoin="bevel" stroke-miterlimit="10" d="M153.812,79.169h62.461
			c0.642,0,1.162,0.521,1.162,1.163c0,0.641-0.521,1.145-1.162,1.145h-62.461c-0.625,0-1.146-0.504-1.146-1.145
			C152.666,79.69,153.186,79.169,153.812,79.169L153.812,79.169z M213.966,73.392l23.127,6.94l-23.127,6.939V73.392z"/>
	</g>
</g>
<g id="example" display="none">
	<path display="inline" fill="none" stroke="#808080" stroke-width="5" stroke-linejoin="round" stroke-miterlimit="8" d="
		M335.573,109.399c-36.517,8.523-79.383,18.226-113.096-2.417c-32.735-9.564-5.721-2.615-84.185-2.472"/>
	<path display="inline" fill="none" stroke="#808080" stroke-width="5" stroke-linejoin="round" stroke-miterlimit="8" d="
		M144.42,271.765c36.9-16.04-10.897,3.296,90.02-7.945c6.68-0.833,19.329-7.405,19.329-7.405
		c32.01,3.216,54.886,10.955,86.536,10.897"/>
</g>
</svg>
