<?xml version="1.0" encoding="utf-8"?>
<!-- Generator: Adobe Illustrator 16.0.0, SVG Export Plug-In . SVG Version: 6.00 Build 0)  -->
<!DOCTYPE svg PUBLIC "-//W3C//DTD SVG 1.1//EN" "http://www.w3.org/Graphics/SVG/1.1/DTD/svg11.dtd">
<svg version="1.1" id="Version_1.0" xmlns="http://www.w3.org/2000/svg" xmlns:xlink="http://www.w3.org/1999/xlink" x="0px"
	 y="0px" width="400px" height="400px" viewBox="0 0 400 400" enable-background="new 0 0 400 400" xml:space="preserve">
<g id="main">
	<path fill="none" stroke="#000000" stroke-width="7" stroke-linecap="round" stroke-linejoin="round" stroke-miterlimit="10" d="
		M151.972,113.492c-42.024,4.464-96.079,2.243-108.09,26.702c-12.01,24.46-9.997,97.839,36.03,120.08
		c46.028,22.236,194.148,31.146,240.177,13.354c46.027-17.794,40.034-93.396,36.03-120.099
		c-4.003-26.681-26.032-33.347-60.051-40.032C262.052,106.827,193.997,109.048,151.972,113.492"/>
	<text transform="matrix(1 0 0 1 135.8384 184.834)" font-family="sans-serif" font-size="48">FARP</text>
	<text transform="matrix(1 0 0 1 266.502 184.834)" font-family="sans-serif" font-size="24"> </text>
</g>
<g id="template" display="none">
	
		<rect x="172.002" y="203.227" display="inline" fill="none" stroke="#000000" stroke-width="1.7378" stroke-linecap="round" stroke-miterlimit="8" width="65.006" height="54.273"/>
	<text transform="matrix(1 0 0 1 187.7773 249.6943)" display="inline" font-family="sans-serif" font-size="48">T</text>
</g>
<g id="example" display="none">
	<text id="varTe" transform="matrix(1 0 0 1 139.7422 249.6943)" display="inline" font-family="sans-serif" font-size="48">2AVN</text>
</g>
</svg>
