<?xml version="1.0" encoding="utf-8"?>
<!-- Generator: Adobe Illustrator 16.0.0, SVG Export Plug-In . SVG Version: 6.00 Build 0)  -->
<!DOCTYPE svg PUBLIC "-//W3C//DTD SVG 1.1//EN" "http://www.w3.org/Graphics/SVG/1.1/DTD/svg11.dtd">
<svg version="1.1" id="Version_1.0" xmlns="http://www.w3.org/2000/svg" xmlns:xlink="http://www.w3.org/1999/xlink" x="0px"
	 y="0px" width="612px" height="792px" viewBox="0 0 612 792" enable-background="new 0 0 612 792" xml:space="preserve">
<g id="main">
	
		<rect x="242.408" y="137.849" fill="none" stroke="#000000" stroke-width="4" stroke-linecap="round" stroke-miterlimit="8" width="128.229" height="170.972"/>
	<polygon fill="none" stroke="#000000" stroke-width="4" stroke-linecap="round" stroke-miterlimit="8" points="306.521,394.5 
		242.408,309.015 370.636,309.015 	"/>
	<line fill="none" stroke="#000000" stroke-width="4" x1="242.408" y1="287.311" x2="370.636" y2="287.311"/>
	<g>
		<path fill="none" stroke="#000000" stroke-width="7" d="M273.25,267.973c0-39.164-0.263-66.686,1.466-92.977
			c1.178-17.937,19.419-23.633,33.708-23.633c13.623,0,33.95,8.604,34.748,26.292c1.384,30.723,0.969,49.793,0.969,90.318"/>
		<line fill="none" stroke="#000000" stroke-width="7" x1="260.435" y1="265.01" x2="356.611" y2="265.01"/>
	</g>
</g>
<g id="template" display="none">
	<g id="varW1" display="inline">
		
			<rect x="190.827" y="178.935" fill="none" stroke="#000000" stroke-width="4" stroke-linecap="round" stroke-miterlimit="8" width="49.993" height="42.513"/>
		<text transform="matrix(1 0 0 1 196.9272 210.374)" font-family="sans-serif" font-size="23.6512">W1</text>
	</g>
	<g id="varW" display="inline">
		<text transform="matrix(1 0 0 1 225.98 167.9082)" font-family="sans-serif" font-size="23.6512">-</text>
		<polygon fill="none" stroke="#000000" stroke-width="4" stroke-linecap="round" stroke-miterlimit="8" points="190.827,136.672 
			190.827,179.167 222.721,178.694 223.721,137.849 		"/>
		<text transform="matrix(1 0 0 1 196.9272 167.9082)" font-family="sans-serif" font-size="23.6512">W</text>
	</g>
	<g id="varH" display="inline">
		<text transform="matrix(1 0 0 1 299.5117 116.0566)" font-family="sans-serif" font-size="23.6512">H</text>
		
			<rect x="281.382" y="83.832" fill="none" stroke="#000000" stroke-width="4" stroke-linecap="round" stroke-miterlimit="8" width="56.634" height="53.197"/>
	</g>
	<g id="varT" display="inline">
		
			<rect x="370.636" y="137.672" fill="none" stroke="#000000" stroke-width="4" stroke-linecap="round" stroke-miterlimit="8" width="56.636" height="53.179"/>
		<text transform="matrix(1 0 0 1 388.8262 169.7803)" font-family="sans-serif" font-size="23.6512">T</text>
	</g>
	<g id="points" display="inline">
		<text transform="matrix(1 0 0 1 376.1563 419.1416)" font-family="sans-serif" font-size="23.6512">POINT</text>
		<text transform="matrix(1 0 0 1 376.1563 391.5)" font-family="sans-serif" font-size="23.6512">ANCHOR</text>
		<path stroke="#000000" stroke-width="2" stroke-linejoin="bevel" stroke-miterlimit="10" d="M369.636,396.444h-35.62
			c-0.658,0-1.191-0.517-1.191-1.176c0-0.658,0.533-1.192,1.191-1.192h35.62c0.66,0,1.192,0.534,1.192,1.192
			C370.828,395.928,370.296,396.444,369.636,396.444L369.636,396.444z M336.387,402.393l-23.741-7.124l23.741-7.124V402.393z"/>
	</g>
</g>
<g id="example" display="none">
	<text id="varw1e" transform="matrix(1 0 0 1 95.9272 186.374)" display="inline" font-family="sans-serif" font-size="18">050700ZMAY08 </text>
	<text id="varWe" transform="matrix(1 0 0 1 95.9272 161.9082)" display="inline" font-family="sans-serif" font-size="18">030200ZMAY08 - </text>
	<text id="varHe" transform="matrix(1 0 0 1 301.8379 116.0566)" display="inline" font-family="sans-serif" font-size="24">6</text>
	<text id="varTe" transform="matrix(1 0 0 1 388.8262 169.7803)" display="inline" font-family="sans-serif" font-size="24">14</text>
</g>
</svg>
