<?xml version="1.0" encoding="utf-8"?>
<!-- Generator: Adobe Illustrator 16.0.0, SVG Export Plug-In . SVG Version: 6.00 Build 0)  -->
<!DOCTYPE svg PUBLIC "-//W3C//DTD SVG 1.1//EN" "http://www.w3.org/Graphics/SVG/1.1/DTD/svg11.dtd">
<svg version="1.1" id="Version_1.0" xmlns="http://www.w3.org/2000/svg" xmlns:xlink="http://www.w3.org/1999/xlink" x="0px"
	 y="0px" width="612px" height="792px" viewBox="0 0 612 792" enable-background="new 0 0 612 792" xml:space="preserve">
<g id="main">
	
		<rect x="241.408" y="139.849" fill="none" stroke="#000000" stroke-width="4" stroke-linecap="round" stroke-miterlimit="8" width="128.229" height="170.972"/>
	<polygon fill="none" stroke="#000000" stroke-width="4" stroke-linecap="round" stroke-miterlimit="8" points="305.521,396.5 
		241.408,311.015 369.636,311.015 	"/>
	<line fill="none" stroke="#000000" stroke-width="4" x1="241.408" y1="289.311" x2="369.636" y2="289.311"/>
	<text transform="matrix(1 0 0 1 300.3848 198.8516)" font-family="sans-serif" font-size="48">I</text>
</g>
<g id="template" display="none">
	<g id="varW1" display="inline">
		
			<rect x="189.827" y="180.935" fill="none" stroke="#000000" stroke-width="4" stroke-linecap="round" stroke-miterlimit="8" width="49.993" height="42.513"/>
		<text transform="matrix(1 0 0 1 195.9272 212.374)" font-family="sans-serif" font-size="23.6512">W1</text>
	</g>
	<g id="varW" display="inline">
		<text transform="matrix(1 0 0 1 224.98 169.9082)" font-family="sans-serif" font-size="23.6512">-</text>
		<polygon fill="none" stroke="#000000" stroke-width="4" stroke-linecap="round" stroke-miterlimit="8" points="189.827,138.672 
			189.827,181.167 221.721,180.694 222.721,139.849 		"/>
		<text transform="matrix(1 0 0 1 195.9272 169.9082)" font-family="sans-serif" font-size="23.6512">W</text>
	</g>
	<g id="varH" display="inline">
		<text transform="matrix(1 0 0 1 298.5117 118.0566)" font-family="sans-serif" font-size="23.6512">H</text>
		
			<rect x="280.382" y="85.832" fill="none" stroke="#000000" stroke-width="4" stroke-linecap="round" stroke-miterlimit="8" width="56.634" height="53.197"/>
	</g>
	<g id="varT1" display="inline">
		
			<rect x="280.605" y="220.443" fill="none" stroke="#000000" stroke-width="4" stroke-linecap="round" stroke-miterlimit="8" width="53.833" height="53.198"/>
		<text transform="matrix(1 0 0 1 296.8223 257.8047)" font-family="sans-serif" font-size="23.6512">T1</text>
	</g>
	<g id="varT" display="inline">
		
			<rect x="369.636" y="139.672" fill="none" stroke="#000000" stroke-width="4" stroke-linecap="round" stroke-miterlimit="8" width="56.636" height="53.179"/>
		<text transform="matrix(1 0 0 1 387.8262 171.7803)" font-family="sans-serif" font-size="23.6512">T</text>
	</g>
	<g id="points" display="inline">
		<text transform="matrix(1 0 0 1 375.1563 421.1416)" font-family="sans-serif" font-size="23.6512">POINT</text>
		<text transform="matrix(1 0 0 1 375.1563 393.5)" font-family="sans-serif" font-size="23.6512">ANCHOR</text>
		<path stroke="#000000" stroke-width="2" stroke-linejoin="bevel" stroke-miterlimit="10" d="M368.636,398.444h-35.62
			c-0.657,0-1.19-0.518-1.19-1.177c0-0.657,0.533-1.191,1.19-1.191h35.62c0.66,0,1.192,0.534,1.192,1.191
			C369.828,397.928,369.296,398.444,368.636,398.444L368.636,398.444z M335.387,404.393l-23.74-7.124l23.74-7.124V404.393z"/>
	</g>
</g>
<g id="example" display="none">
	<text id="varw1e" transform="matrix(1 0 0 1 94.9272 188.374)" display="inline" font-family="sans-serif" font-size="18">050700ZMAY08 </text>
	<text id="varWe" transform="matrix(1 0 0 1 94.9272 163.9082)" display="inline" font-family="sans-serif" font-size="18">030200ZMAY08 - </text>
	<text id="varHe" transform="matrix(1 0 0 1 300.8379 118.0566)" display="inline" font-family="sans-serif" font-size="24">7</text>
	<text id="varT1e" transform="matrix(1 0 0 1 268.1445 257.8047)" display="inline" font-family="sans-serif" font-size="24">3SUST</text>
	<text id="varTe" transform="matrix(1 0 0 1 387.8262 171.7803)" display="inline" font-family="sans-serif" font-size="24">2</text>
</g>
</svg>
