<?xml version="1.0" encoding="utf-8"?>
<!-- Generator: Adobe Illustrator 16.0.0, SVG Export Plug-In . SVG Version: 6.00 Build 0)  -->
<!DOCTYPE svg PUBLIC "-//W3C//DTD SVG 1.1//EN" "http://www.w3.org/Graphics/SVG/1.1/DTD/svg11.dtd">
<svg version="1.1" id="Version_1.0" xmlns="http://www.w3.org/2000/svg" xmlns:xlink="http://www.w3.org/1999/xlink" x="0px"
	 y="0px" width="612px" height="792px" viewBox="0 0 612 792" enable-background="new 0 0 612 792" xml:space="preserve">
<g id="main">
	
		<rect x="242.408" y="138.849" fill="none" stroke="#000000" stroke-width="4" stroke-linecap="round" stroke-miterlimit="8" width="128.229" height="170.972"/>
	<polygon fill="none" stroke="#000000" stroke-width="4" stroke-linecap="round" stroke-miterlimit="8" points="306.521,395.5 
		242.408,310.015 370.636,310.015 	"/>
	<line fill="none" stroke="#000000" stroke-width="4" x1="242.408" y1="288.311" x2="370.636" y2="288.311"/>
	<g>
		<path fill="none" stroke="#000000" stroke-width="5" d="M291.103,217.025c0-20.733-0.133-35.303,0.741-49.221
			c0.596-9.496,9.968-17.494,17.191-17.494c6.889,0,17.02,9.536,17.422,18.901c0.699,16.265,0.488,26.36,0.488,47.814"/>
		<line fill="none" stroke="#000000" stroke-width="5" x1="284.623" y1="214.928" x2="333.252" y2="214.928"/>
	</g>
</g>
<g id="template" display="none">
	<g id="varW1" display="inline">
		
			<rect x="190.827" y="179.935" fill="none" stroke="#000000" stroke-width="4" stroke-linecap="round" stroke-miterlimit="8" width="49.993" height="42.513"/>
		<text transform="matrix(1 0 0 1 196.9272 211.374)" font-family="sans-serif" font-size="23.6512">W1</text>
	</g>
	<g id="varW" display="inline">
		<text transform="matrix(1 0 0 1 225.98 168.9082)" font-family="sans-serif" font-size="23.6512">-</text>
		<polygon fill="none" stroke="#000000" stroke-width="4" stroke-linecap="round" stroke-miterlimit="8" points="190.827,137.672 
			190.827,180.167 222.721,179.694 223.721,138.849 		"/>
		<text transform="matrix(1 0 0 1 196.9272 168.9082)" font-family="sans-serif" font-size="23.6512">W</text>
	</g>
	<g id="varH" display="inline">
		<text transform="matrix(1 0 0 1 299.5117 117.0566)" font-family="sans-serif" font-size="23.6512">H</text>
		
			<rect x="281.382" y="84.832" fill="none" stroke="#000000" stroke-width="4" stroke-linecap="round" stroke-miterlimit="8" width="56.634" height="53.197"/>
	</g>
	<g id="varT1" display="inline">
		
			<rect x="281.605" y="219.443" fill="none" stroke="#000000" stroke-width="4" stroke-linecap="round" stroke-miterlimit="8" width="53.832" height="53.198"/>
		<text transform="matrix(1 0 0 1 297.8223 256.8047)" font-family="sans-serif" font-size="23.6512">T1</text>
	</g>
	<g id="varT" display="inline">
		
			<rect x="370.636" y="138.672" fill="none" stroke="#000000" stroke-width="4" stroke-linecap="round" stroke-miterlimit="8" width="56.636" height="53.179"/>
		<text transform="matrix(1 0 0 1 388.8262 170.7803)" font-family="sans-serif" font-size="23.6512">T</text>
	</g>
	<g id="points" display="inline">
		<text transform="matrix(1 0 0 1 376.1563 420.1416)" font-family="sans-serif" font-size="23.6512">POINT</text>
		<text transform="matrix(1 0 0 1 376.1563 392.5)" font-family="sans-serif" font-size="23.6512">ANCHOR</text>
		<path stroke="#000000" stroke-width="2" stroke-linejoin="bevel" stroke-miterlimit="10" d="M369.636,397.444h-35.62
			c-0.658,0-1.191-0.517-1.191-1.176c0-0.658,0.533-1.192,1.191-1.192h35.62c0.66,0,1.192,0.534,1.192,1.192
			C370.828,396.928,370.296,397.444,369.636,397.444L369.636,397.444z M336.387,403.393l-23.741-7.124l23.741-7.124V403.393z"/>
	</g>
</g>
<g id="example" display="none">
	<text id="varw1e" transform="matrix(1 0 0 1 95.9272 187.374)" display="inline" font-family="sans-serif" font-size="18">050700ZMAY08 </text>
	<text id="varWe" transform="matrix(1 0 0 1 95.9272 162.9082)" display="inline" font-family="sans-serif" font-size="18">030200ZMAY08 - </text>
	<text id="varHe" transform="matrix(1 0 0 1 268.1646 117.0566)" display="inline" font-family="sans-serif" font-size="24">&gt;20MM</text>
	<text id="varT1e" transform="matrix(1 0 0 1 267.8086 256.8047)" display="inline" font-family="sans-serif" font-size="24">55ORD</text>
	<text id="varTe" transform="matrix(1 0 0 1 388.8262 170.7803)" display="inline" font-family="sans-serif" font-size="24">6A</text>
</g>
</svg>
