<?xml version="1.0" encoding="utf-8"?>
<!-- Generator: Adobe Illustrator 16.0.0, SVG Export Plug-In . SVG Version: 6.00 Build 0)  -->
<!DOCTYPE svg PUBLIC "-//W3C//DTD SVG 1.1//EN" "http://www.w3.org/Graphics/SVG/1.1/DTD/svg11.dtd">
<svg version="1.1" id="Version_1.0" xmlns="http://www.w3.org/2000/svg" xmlns:xlink="http://www.w3.org/1999/xlink" x="0px"
	 y="0px" width="612px" height="792px" viewBox="0 0 612 792" enable-background="new 0 0 612 792" xml:space="preserve">
<g id="main">
	
		<rect x="241.652" y="138.849" fill="none" stroke="#000000" stroke-width="4" stroke-linecap="round" stroke-miterlimit="8" width="128.229" height="170.972"/>
	<text transform="matrix(1 0 0 1 268.6318 194.7129)" font-family="sans-serif" font-size="36">TCP</text>
	<polygon fill="none" stroke="#000000" stroke-width="4" stroke-linecap="round" stroke-miterlimit="8" points="305.766,396.5 
		241.652,311.015 369.88,311.015 	"/>
</g>
<g id="template" display="none">
	<g id="varW1" display="inline">
		
			<rect x="191.891" y="180.33" fill="none" stroke="#000000" stroke-width="4" stroke-linecap="round" stroke-miterlimit="8" width="49.993" height="42.513"/>
		<text transform="matrix(1 0 0 1 197.9917 211.7686)" font-family="sans-serif" font-size="24">W1</text>
	</g>
	<g id="varW" display="inline">
		<text transform="matrix(1 0 0 1 227.0444 169.3027)" font-family="sans-serif" font-size="23.6512">-</text>
		<polygon fill="none" stroke="#000000" stroke-width="4" stroke-linecap="round" stroke-miterlimit="8" points="191.891,138.066 
			191.891,180.561 223.785,180.088 224.785,139.244 		"/>
		<text transform="matrix(1 0 0 1 197.9917 169.3027)" font-family="sans-serif" font-size="24">W</text>
	</g>
	<g id="varT1" display="inline">
		
			<rect x="277.518" y="231.438" fill="none" stroke="#000000" stroke-width="4" stroke-linecap="round" stroke-miterlimit="8" width="53.832" height="53.197"/>
		<text transform="matrix(1 0 0 1 293.7344 268.7979)" font-family="sans-serif" font-size="24">T1</text>
	</g>
	<g id="varT" display="inline">
		
			<rect x="370.699" y="139.066" fill="none" stroke="#000000" stroke-width="4" stroke-linecap="round" stroke-miterlimit="8" width="56.637" height="53.179"/>
		<text transform="matrix(1 0 0 1 388.8906 171.1748)" font-family="sans-serif" font-size="24">T</text>
	</g>
	<g id="varH" display="inline">
		<text transform="matrix(1 0 0 1 296.5762 117.4512)" font-family="sans-serif" font-size="24">H</text>
		
			<rect x="278.446" y="85.227" fill="none" stroke="#000000" stroke-width="4" stroke-linecap="round" stroke-miterlimit="8" width="56.634" height="53.197"/>
	</g>
	<g id="points" display="inline">
		<text transform="matrix(1 0 0 1 376.4004 420.1416)" font-family="sans-serif" font-size="23.6512">POINT</text>
		<text transform="matrix(1 0 0 1 376.4004 392.5)" font-family="sans-serif" font-size="23.6512">ANCHOR</text>
		<path stroke="#000000" stroke-width="2" stroke-linejoin="bevel" stroke-miterlimit="10" d="M369.88,397.444h-35.62
			c-0.658,0-1.191-0.517-1.191-1.176c0-0.658,0.533-1.192,1.191-1.192h35.62c0.66,0,1.192,0.534,1.192,1.192
			C371.072,396.928,370.54,397.444,369.88,397.444L369.88,397.444z M336.631,403.393l-23.741-7.124l23.741-7.124V403.393z"/>
	</g>
</g>
<g id="example" display="none">
	<text id="varWe" transform="matrix(1 0 0 1 90.9917 165.3027)" display="inline" font-family="sans-serif" font-size="18">030200ZMAY08 -  </text>
	<text id="varW1e" transform="matrix(1 0 0 1 90.9917 186.9023)" display="inline" font-family="sans-serif" font-size="18">050700ZMAY08  </text>
	<text id="varT1e" transform="matrix(1 0 0 1 274.5562 266.7979)" display="inline" font-family="sans-serif" font-size="30">3MP</text>
	<text transform="matrix(1 0 0 1 383.8906 171.1748)" display="inline" font-family="sans-serif" font-size="24">RC(N)</text>
	
		<text transform="matrix(1 0 0 1 451.8711 171.1748)" display="inline" font-family="sans-serif" font-size="24" letter-spacing="-1"> </text>
	<text id="varHe_1_" transform="matrix(1 0 0 1 269.6113 119.4512)" display="inline" font-family="sans-serif" font-size="24">MSR1</text>
</g>
</svg>
