<?xml version="1.0" encoding="utf-8"?>
<!-- Generator: Adobe Illustrator 16.0.0, SVG Export Plug-In . SVG Version: 6.00 Build 0)  -->
<!DOCTYPE svg PUBLIC "-//W3C//DTD SVG 1.1//EN" "http://www.w3.org/Graphics/SVG/1.1/DTD/svg11.dtd">
<svg version="1.1" id="Version_1.0" xmlns="http://www.w3.org/2000/svg" xmlns:xlink="http://www.w3.org/1999/xlink" x="0px"
	 y="0px" width="612px" height="792px" viewBox="0 0 612 792" enable-background="new 0 0 612 792" xml:space="preserve">
<g id="main">
	
		<rect x="241.408" y="138.849" fill="none" stroke="#000000" stroke-width="4" stroke-linecap="round" stroke-miterlimit="8" width="128.229" height="170.972"/>
	<polygon fill="none" stroke="#000000" stroke-width="4" stroke-linecap="round" stroke-miterlimit="8" points="305.521,395.5 
		241.408,310.015 369.636,310.015 	"/>
	<line fill="none" stroke="#000000" stroke-width="4" x1="241.408" y1="288.311" x2="369.636" y2="288.311"/>
	<text transform="matrix(1 0 0 1 285.3809 197.8516)" font-family="sans-serif" font-size="48">I I</text>
</g>
<g id="template" display="none">
	<g id="varW1" display="inline">
		
			<rect x="189.827" y="179.935" fill="none" stroke="#000000" stroke-width="4" stroke-linecap="round" stroke-miterlimit="8" width="49.993" height="42.513"/>
		<text transform="matrix(1 0 0 1 195.9272 211.374)" font-family="sans-serif" font-size="23.6512">W1</text>
	</g>
	<g id="varW" display="inline">
		<text transform="matrix(1 0 0 1 224.98 168.9082)" font-family="sans-serif" font-size="23.6512">-</text>
		<polygon fill="none" stroke="#000000" stroke-width="4" stroke-linecap="round" stroke-miterlimit="8" points="189.827,137.672 
			189.827,180.167 221.721,179.694 222.721,138.849 		"/>
		<text transform="matrix(1 0 0 1 195.9272 168.9082)" font-family="sans-serif" font-size="23.6512">W</text>
	</g>
	<g id="varH" display="inline">
		<text transform="matrix(1 0 0 1 298.5117 117.0566)" font-family="sans-serif" font-size="23.6512">H</text>
		
			<rect x="280.382" y="84.832" fill="none" stroke="#000000" stroke-width="4" stroke-linecap="round" stroke-miterlimit="8" width="56.634" height="53.197"/>
	</g>
	<g id="varT1" display="inline">
		
			<rect x="280.605" y="219.443" fill="none" stroke="#000000" stroke-width="4" stroke-linecap="round" stroke-miterlimit="8" width="53.832" height="53.198"/>
		<text transform="matrix(1 0 0 1 296.8223 256.8047)" font-family="sans-serif" font-size="23.6512">T1</text>
	</g>
	<g id="varT" display="inline">
		
			<rect x="369.636" y="138.672" fill="none" stroke="#000000" stroke-width="4" stroke-linecap="round" stroke-miterlimit="8" width="56.636" height="53.179"/>
		<text transform="matrix(1 0 0 1 387.8262 170.7803)" font-family="sans-serif" font-size="23.6512">T</text>
	</g>
	<g id="points" display="inline">
		<text transform="matrix(1 0 0 1 375.1563 420.1416)" font-family="sans-serif" font-size="23.6512">POINT</text>
		<text transform="matrix(1 0 0 1 375.1563 392.5)" font-family="sans-serif" font-size="23.6512">ANCHOR</text>
		<path stroke="#000000" stroke-width="2" stroke-linejoin="bevel" stroke-miterlimit="10" d="M368.636,397.444h-35.62
			c-0.658,0-1.191-0.517-1.191-1.176c0-0.658,0.533-1.192,1.191-1.192h35.62c0.66,0,1.192,0.534,1.192,1.192
			C369.828,396.928,369.296,397.444,368.636,397.444L368.636,397.444z M335.387,403.393l-23.741-7.124l23.741-7.124V403.393z"/>
	</g>
</g>
<g id="example" display="none">
	<text id="varw1e" transform="matrix(1 0 0 1 94.9272 187.374)" display="inline" font-family="sans-serif" font-size="18">050700ZMAY08 </text>
	<text id="varWe" transform="matrix(1 0 0 1 94.9272 162.9082)" display="inline" font-family="sans-serif" font-size="18">030200ZMAY08 - </text>
	<text id="varHe" transform="matrix(1 0 0 1 300.8379 117.0566)" display="inline" font-family="sans-serif" font-size="24">1</text>
	<text id="varT1e" transform="matrix(1 0 0 1 272.1523 256.8047)" display="inline" font-family="sans-serif" font-size="24">MNSE</text>
	<text id="varTe" transform="matrix(1 0 0 1 387.8262 170.7803)" display="inline" font-family="sans-serif" font-size="24">3</text>
</g>
</svg>
