<?xml version="1.0" encoding="utf-8"?>
<!-- Generator: Adobe Illustrator 16.0.0, SVG Export Plug-In . SVG Version: 6.00 Build 0)  -->
<!DOCTYPE svg PUBLIC "-//W3C//DTD SVG 1.1//EN" "http://www.w3.org/Graphics/SVG/1.1/DTD/svg11.dtd">
<svg version="1.1" id="Version_1.0" xmlns="http://www.w3.org/2000/svg" xmlns:xlink="http://www.w3.org/1999/xlink" x="0px"
	 y="0px" width="612px" height="792px" viewBox="0 0 612 792" enable-background="new 0 0 612 792" xml:space="preserve">
<g id="main">
	
		<rect x="241.386" y="137.849" fill="none" stroke="#000000" stroke-width="4" stroke-linecap="round" stroke-miterlimit="8" width="128.229" height="170.972"/>
	<text transform="matrix(1 0 0 1 265.3604 193.7129)" font-family="sans-serif" font-size="36">MEP</text>
	<polygon fill="none" stroke="#000000" stroke-width="4" stroke-linecap="round" stroke-miterlimit="8" points="305.5,395.5 
		241.386,310.015 369.614,310.015 	"/>
	<g>
		<rect x="276.207" y="221.664" stroke="#000000" stroke-miterlimit="10" width="56.766" height="17.52"/>
		<rect x="296.045" y="201.097" stroke="#000000" stroke-miterlimit="10" width="17.549" height="56.672"/>
	</g>
</g>
<g id="template" display="none">
	<g id="varW1" display="inline">
		
			<rect x="191.625" y="179.33" fill="none" stroke="#000000" stroke-width="4" stroke-linecap="round" stroke-miterlimit="8" width="49.993" height="42.513"/>
		<text transform="matrix(1 0 0 1 197.7261 210.7686)" font-family="sans-serif" font-size="24">W1</text>
	</g>
	<g id="varW" display="inline">
		<text transform="matrix(1 0 0 1 226.7788 168.3027)" font-family="sans-serif" font-size="23.6512">-</text>
		<polygon fill="none" stroke="#000000" stroke-width="4" stroke-linecap="round" stroke-miterlimit="8" points="191.625,137.066 
			191.625,179.561 223.519,179.088 224.519,138.244 		"/>
		<text transform="matrix(1 0 0 1 197.7261 168.3027)" font-family="sans-serif" font-size="24">W</text>
	</g>
	<g id="varT1" display="inline">
		
			<rect x="277.252" y="230.438" fill="none" stroke="#000000" stroke-width="4" stroke-linecap="round" stroke-miterlimit="8" width="53.832" height="53.197"/>
		<text transform="matrix(1 0 0 1 293.4688 267.7979)" font-family="sans-serif" font-size="24">T1</text>
	</g>
	<g id="varT" display="inline">
		
			<rect x="370.434" y="138.066" fill="none" stroke="#000000" stroke-width="4" stroke-linecap="round" stroke-miterlimit="8" width="56.637" height="53.179"/>
		<text transform="matrix(1 0 0 1 388.625 170.1748)" font-family="sans-serif" font-size="24">T</text>
	</g>
	<g id="varH" display="inline">
		<text transform="matrix(1 0 0 1 296.3105 116.4512)" font-family="sans-serif" font-size="24">H</text>
		
			<rect x="278.18" y="84.227" fill="none" stroke="#000000" stroke-width="4" stroke-linecap="round" stroke-miterlimit="8" width="56.634" height="53.197"/>
	</g>
	<g id="points" display="inline">
		<text transform="matrix(1 0 0 1 376.1348 419.1416)" font-family="sans-serif" font-size="23.6512">POINT</text>
		<text transform="matrix(1 0 0 1 376.1348 391.5)" font-family="sans-serif" font-size="23.6512">ANCHOR</text>
		<path stroke="#000000" stroke-width="4" stroke-linejoin="bevel" stroke-miterlimit="10" d="M369.614,396.444h-35.62
			c-0.658,0-1.191-0.517-1.191-1.176c0-0.658,0.533-1.192,1.191-1.192h35.62c0.66,0,1.192,0.534,1.192,1.192
			C370.807,395.928,370.274,396.444,369.614,396.444L369.614,396.444z M336.365,402.393l-23.741-7.124l23.741-7.124V402.393z"/>
	</g>
</g>
<g id="example" display="none">
	<text id="varWe" transform="matrix(1 0 0 1 90.7261 164.3027)" display="inline" font-family="sans-serif" font-size="18">030200ZMAY08 -  </text>
	<text id="varW1e" transform="matrix(1 0 0 1 90.7261 185.9023)" display="inline" font-family="sans-serif" font-size="18">050700ZMAY08  </text>
	<text id="varT1e" transform="matrix(1 0 0 1 296.791 288.7979)" display="inline" font-family="sans-serif" font-size="30">3</text>
	<text transform="matrix(1 0 0 1 383.625 170.1748)" display="inline" font-family="sans-serif" font-size="24">US</text>
	
		<text transform="matrix(1 0 0 1 416.9648 170.1748)" display="inline" font-family="sans-serif" font-size="24" letter-spacing="-3"> </text>
	<text id="varHe_1_" transform="matrix(1 0 0 1 296.0117 118.4512)" display="inline" font-family="sans-serif" font-size="24">2</text>
</g>
</svg>
