<?xml version="1.0" encoding="utf-8"?>
<!-- Generator: Adobe Illustrator 16.0.0, SVG Export Plug-In . SVG Version: 6.00 Build 0)  -->
<!DOCTYPE svg PUBLIC "-//W3C//DTD SVG 1.1//EN" "http://www.w3.org/Graphics/SVG/1.1/DTD/svg11.dtd">
<svg version="1.1" id="Version_1.0" xmlns="http://www.w3.org/2000/svg" xmlns:xlink="http://www.w3.org/1999/xlink" x="0px"
	 y="0px" width="400px" height="400px" viewBox="0 0 400 400" enable-background="new 0 0 400 400" xml:space="preserve">
<g id="main">
	<text transform="matrix(1 0 0 1 124.8159 151.1807)" font-family="sans-serif" font-size="36">MSR</text>
	<path fill="none" stroke="#000000" stroke-width="5" d="M22.8,195.307c50.979,10.195,59.01,8.481,112-3.2
		c27.079-5.97,89.124-13.007,118.4-14.399c50.938-2.425,76.974,14.703,128,9.6"/>
</g>
<g id="template" display="none">
	<g id="varT" transform="scale(0.6 0.6) translate(206 58)" display="inline">
		<rect x="172.006" y="144.16" fill="#FFFFFF" stroke="#000000" stroke-width="4" width="64.494" height="63.674"/>
		<text transform="matrix(1.6667 0 0 1.6667 187.6735 198.9449)" font-family="sans-serif" font-size="36">T</text>
	</g>
	<g id="points" display="inline">
		<g transform="translate(10 -3)">
			<text transform="matrix(1 0 0 1 12.4995 287)" font-family="sans-serif" font-size="18">PT 1</text>
			<polyline fill="none" stroke="#000000" stroke-width="3" points="12.5,202.029 12.5,247.029 32.5,267.029 			"/>
			<polygon stroke="#000000" stroke-width="3" points="8.5,212.029 12.5,199.029 16.5,212.029 			"/>
		</g>
		<g transform="translate(10 -3)">
			<text transform="matrix(1 0 0 1 185.7735 261)" font-family="sans-serif" font-size="18">PT 2</text>
			<line fill="none" stroke="#000000" stroke-width="3" x1="208.5" y1="197.029" x2="208.5" y2="240.5"/>
			<polygon stroke="#000000" stroke-width="3" points="204.5,201.029 208.5,188.029 212.5,201.029 			"/>
		</g>
		<g>
			<g transform="scale(1 1.1) translate(-12 -42.7273)">
				<polyline fill="none" stroke="#000000" stroke-width="3" points="393.5,222.209 393.5,267.209 373.5,287.209 				"/>
				<polygon stroke="#000000" stroke-width="3" points="389.5,232.209 393.5,219.209 397.5,232.209 				"/>
			</g>
			<g transform="scale(0.75 0.75) translate(246 166)">
				<text transform="matrix(1.3333 0 0 1.3333 179.0313 206.2657)" font-family="sans-serif" font-size="18">PT N</text>
			</g>
		</g>
	</g>
</g>
<g id="example" transform="scale(0.6 0.6) translate(206 58)" display="none">
	
		<text id="varTe" transform="matrix(1.6667 0 0 1.6667 156.0068 193.9449)" display="inline" font-family="sans-serif" font-size="36">CAMEL</text>
</g>
</svg>
