<?xml version="1.0" encoding="utf-8"?>
<!-- Generator: Adobe Illustrator 16.0.0, SVG Export Plug-In . SVG Version: 6.00 Build 0)  -->
<!DOCTYPE svg PUBLIC "-//W3C//DTD SVG 1.1//EN" "http://www.w3.org/Graphics/SVG/1.1/DTD/svg11.dtd">
<svg version="1.1" id="Version_1.0" xmlns="http://www.w3.org/2000/svg" xmlns:xlink="http://www.w3.org/1999/xlink" x="0px"
	 y="0px" width="400px" height="400px" viewBox="0 0 400 400" enable-background="new 0 0 400 400" xml:space="preserve">
<g id="main" transform="translate(-220 -160) scale(1.75 1.75)">
	<path fill="none" stroke="#000000" stroke-width="2" d="M181.336,222.638c13.174-104.438,162.599-86.176,158,10.4
		c-3.446,72.352-109.576,99.648-149.2,29.6"/>
	<line fill="none" stroke="#000000" stroke-width="2" x1="212.978" y1="270.704" x2="169.835" y2="257.847"/>
	<line fill="none" stroke="#000000" stroke-width="2" x1="178.121" y1="278.704" x2="203.263" y2="248.133"/>
	<g transform="translate(172 50) translate(1 0)">
		<rect x="155.571" y="167.714" fill="#FFFFFF" stroke="#FFFFFF" width="20" height="20"/>
		<text transform="matrix(0.5714 0 0 0.5714 158.0781 184.8571)" font-family="sans-serif" font-size="34.9982">O</text>
	</g>
</g>
<g id="template" display="none">
	<ellipse display="inline" stroke="#000000" cx="237.596" cy="238.164" rx="2.984" ry="2.934"/>
	<line display="inline" fill="none" stroke="#000000" stroke-width="2" x1="81" y1="220.749" x2="56.19" y2="181.406"/>
	<line display="inline" fill="none" stroke="#000000" stroke-width="2" x1="56.5" y1="182.249" x2="56.5" y2="115.749"/>
	<polygon display="inline" stroke="#000000" stroke-width="2" points="87.669,224.311 69.553,216.924 82.71,205.385 	"/>
	<g id="_x3C_group_x3E__1_" transform="translate(56 40)" display="inline">
		<text transform="matrix(1 0 0 1 -27.5005 5.75)" font-family="sans-serif" font-size="20.9989">PT. 2</text>
		<text transform="matrix(1 0 0 1 -41.5005 30.25)" font-family="sans-serif" font-size="20.9989">(START</text>
		<text transform="matrix(1 0 0 1 -39.7505 56.5)" font-family="sans-serif" font-size="20.9989">POINT)</text>
	</g>
	<g id="_x3C_group_x3E_" transform="translate(-5 174)" display="inline">
		<text transform="matrix(1 0 0 1 213.749 90.5)" font-family="sans-serif" font-size="20.9989">PT. 1</text>
		<text transform="matrix(1 0 0 1 148.9995 109.75)" font-family="sans-serif" font-size="20.9989">(CENTER POINT)</text>
	</g>
</g>
</svg>
