<?xml version="1.0" encoding="utf-8"?>
<!-- Generator: Adobe Illustrator 16.0.0, SVG Export Plug-In . SVG Version: 6.00 Build 0)  -->
<!DOCTYPE svg PUBLIC "-//W3C//DTD SVG 1.1//EN" "http://www.w3.org/Graphics/SVG/1.1/DTD/svg11.dtd">
<svg version="1.1" id="Version_1.0" xmlns="http://www.w3.org/2000/svg" xmlns:xlink="http://www.w3.org/1999/xlink" x="0px"
	 y="0px" width="400px" height="400px" viewBox="0 0 400 400" enable-background="new 0 0 400 400" xml:space="preserve">
<g id="main" transform="translate(-170 -140) scale(1.5 1.5)">
	<line fill="none" stroke="#000000" stroke-width="2" x1="331.333" y1="150.333" x2="331.333" y2="298.333"/>
	<line fill="none" stroke="#000000" stroke-width="2" x1="330.63" y1="226.517" x2="161.333" y2="226.333"/>
	<line fill="none" stroke="#000000" stroke-width="2" x1="331.201" y1="226.803" x2="303.333" y2="203.333"/>
	<line fill="none" stroke="#000000" stroke-width="2" x1="330.915" y1="226.66" x2="304.333" y2="246.333"/>
	
		<g transform="translate(0 1) translate(0 1) translate(0 1) translate(0 1) translate(0 1) translate(0 1) translate(0 1) translate(0 1) translate(0 1) translate(0 1) translate(0 1) translate(-1 0) translate(-1 0) translate(-1 0) translate(-1 0) translate(-1 0) translate(-1 0) translate(-1 0) translate(0 1)">
		<rect x="242.333" y="202" fill="#FFFFFF" stroke="#FFFFFF" width="23.333" height="23.333"/>
		<text transform="matrix(0.6667 0 0 0.6667 246.5518 222)" font-family="sans-serif" font-size="35.0018">P</text>
	</g>
</g>
<g id="template" display="none">
	<g display="inline">
		<text transform="matrix(1 0 0 1 76.4995 136.4991)" font-family="sans-serif" font-size="18.0009">PT. 3</text>
		<line fill="none" stroke="#000000" stroke-width="2" x1="79.5" y1="180" x2="100.5" y2="145.5"/>
		<polygon stroke="#000000" stroke-width="2" points="72.167,192.323 76.694,173.974 86.59,180.747 		"/>
	</g>
	<g display="inline">
		<text transform="matrix(1 0 0 1 235.499 364.4991)" font-family="sans-serif" font-size="18.0009">PT. 2</text>
		<line fill="none" stroke="#000000" stroke-width="2" x1="312.213" y1="320.361" x2="291.213" y2="354.861"/>
		<polygon stroke="#000000" stroke-width="2" points="319.548,308.039 315.019,326.389 305.123,319.617 		"/>
	</g>
	<g display="inline">
		<text transform="matrix(1 0 0 1 236.999 43.4991)" font-family="sans-serif" font-size="18.0009">PT. 1</text>
		<line fill="none" stroke="#000000" stroke-width="2" x1="315.213" y1="69" x2="294.213" y2="34.5"/>
		<polygon stroke="#000000" stroke-width="2" points="322.548,81.323 318.019,62.974 308.125,69.747 		"/>
	</g>
</g>
</svg>
