<?xml version="1.0" encoding="utf-8"?>
<!-- Generator: Adobe Illustrator 16.0.0, SVG Export Plug-In . SVG Version: 6.00 Build 0)  -->
<!DOCTYPE svg PUBLIC "-//W3C//DTD SVG 1.1//EN" "http://www.w3.org/Graphics/SVG/1.1/DTD/svg11.dtd">
<svg version="1.1" id="Version_1.0" xmlns="http://www.w3.org/2000/svg" xmlns:xlink="http://www.w3.org/1999/xlink" x="0px"
	 y="0px" width="400px" height="400px" viewBox="0 0 400 400" enable-background="new 0 0 400 400" xml:space="preserve">
<g id="main" transform="translate(-110 -100) scale(1.25 1.25)">
	<path fill="none" stroke="#000000" stroke-width="2" d="M316.6,167.8c80.069,0,98.652,105.535-6,111"/>
	<line fill="none" stroke="#000000" stroke-width="2" x1="310.6" y1="278.8" x2="227.6" y2="278.8"/>
	<line fill="none" stroke="#000000" stroke-width="2" x1="202.6" y1="278.8" x2="123.6" y2="278.8"/>
	<line fill="none" stroke="#000000" stroke-width="2" x1="124.6" y1="278.8" x2="138.6" y2="266.8"/>
	<line fill="none" stroke="#000000" stroke-width="2" x1="124.587" y1="279.533" x2="136.987" y2="292.333"/>
	<text transform="matrix(0.8 0 0 0.8 206.5992 284.7992)" font-family="sans-serif" font-size="22.5">R</text>
</g>
<g id="template" display="none">
	<g display="inline">
		<line fill="none" stroke="#000000" stroke-width="2" x1="274.988" y1="103.055" x2="253.957" y2="87.346"/>
		<polygon stroke="#000000" stroke-width="2" points="281.998,108.291 273.721,94.308 266.24,104.322 		"/>
		<line fill="none" stroke="#000000" stroke-width="2" x1="254.973" y1="87.513" x2="224.5" y2="87.25"/>
		<text transform="matrix(1 0 0 1 178.249 90.999)" font-family="sans-serif" font-size="15">PT. 3</text>
	</g>
	<g display="inline">
		<line fill="none" stroke="#000000" stroke-width="2" x1="280.76" y1="263.5" x2="280.76" y2="289.75"/>
		<line fill="none" stroke="#000000" stroke-width="2" x1="281.063" y1="288.936" x2="263.26" y2="308.5"/>
		<polygon stroke="#000000" stroke-width="2" points="280.76,254.75 274.51,269.75 287.01,269.75 		"/>
		<text transform="matrix(1 0 0 1 218.249 312.249)" font-family="sans-serif" font-size="15">PT. 2</text>
	</g>
	<g display="inline">
		<line fill="none" stroke="#000000" stroke-width="2" x1="39.5" y1="266" x2="39.5" y2="292.25"/>
		<line fill="none" stroke="#000000" stroke-width="2" x1="39.197" y1="291.436" x2="57" y2="311"/>
		<polygon stroke="#000000" stroke-width="2" points="39.5,257.25 45.75,272.25 33.25,272.25 		"/>
		<text transform="matrix(1 0 0 1 61.999 314.749)" font-family="sans-serif" font-size="15">PT. 1</text>
	</g>
</g>
</svg>
