<?xml version="1.0" encoding="utf-8"?>
<!-- Generator: Adobe Illustrator 16.0.0, SVG Export Plug-In . SVG Version: 6.00 Build 0)  -->
<!DOCTYPE svg PUBLIC "-//W3C//DTD SVG 1.1//EN" "http://www.w3.org/Graphics/SVG/1.1/DTD/svg11.dtd">
<svg version="1.1" id="Version_1.0" xmlns="http://www.w3.org/2000/svg" xmlns:xlink="http://www.w3.org/1999/xlink" x="0px"
	 y="0px" width="400px" height="400px" viewBox="0 0 400 400" enable-background="new 0 0 400 400" xml:space="preserve">
<g id="main" transform="translate(-169 16) translate(1 0) translate(1 0) translate(1 0) translate(0 -1) translate(0 -1) translate(0 -1) translate(0 -1) translate(0 1)">
	<g>
		<line fill="none" stroke="#000000" stroke-width="5" x1="199.181" y1="91.826" x2="198.806" y2="296.35"/>
		<line fill="none" stroke="#000000" stroke-width="5" x1="199.051" y1="295.033" x2="533.552" y2="295.033"/>
		<line fill="none" stroke="#000000" stroke-width="5" x1="198.243" y1="92.276" x2="531.434" y2="92.501"/>
		<line fill="none" stroke="#000000" stroke-width="5" x1="525.059" y1="75.251" x2="539.684" y2="109.751"/>
		<line fill="none" stroke="#000000" stroke-width="5" x1="526.934" y1="309.25" x2="539.684" y2="283"/>
	</g>
	<rect x="180.052" y="173.534" fill="#FFFFFF" stroke="#FFFFFF" width="35" height="35"/>
	<text transform="matrix(1 0 0 1 185.4141 203.5332)" font-family="sans-serif" font-size="35">B</text>
</g>
<g id="template" transform="translate(-160 -120) scale(1.5 1.5)" display="none">
	<line display="inline" fill="none" stroke="#000000" stroke-width="2" x1="140.701" y1="218.689" x2="184.701" y2="218.689"/>
	<line display="inline" fill="none" stroke="#000000" stroke-width="2" x1="338.701" y1="162.356" x2="304.701" y2="180.356"/>
	<polygon display="inline" stroke="#000000" stroke-width="2" points="141.067,218.323 156.067,213.323 156.067,223.323 	"/>
	<polygon display="inline" stroke="#000000" stroke-width="2" points="345.949,156.707 336.219,169.17 330.688,160.84 	"/>
	<line display="inline" fill="none" stroke="#000000" stroke-width="2" x1="339.701" y1="274.674" x2="305.701" y2="256.674"/>
	<polygon display="inline" stroke="#000000" stroke-width="2" points="346.949,280.323 337.219,267.861 331.688,276.191 	"/>
	<text transform="matrix(0.6667 0 0 0.6667 191.3672 223.6888)" display="inline" font-family="sans-serif" font-size="18.0018">PT. 3</text>
	<text transform="matrix(0.6667 0 0 0.6667 268.7005 260.3555)" display="inline" font-family="sans-serif" font-size="18.0018">PT. 2</text>
	<text transform="matrix(0.6667 0 0 0.6667 267.7005 184.3555)" display="inline" font-family="sans-serif" font-size="18.0018">PT. 1</text>
</g>
</svg>
