<?xml version="1.0" encoding="utf-8"?>
<!-- Generator: Adobe Illustrator 16.0.0, SVG Export Plug-In . SVG Version: 6.00 Build 0)  -->
<!DOCTYPE svg PUBLIC "-//W3C//DTD SVG 1.1//EN" "http://www.w3.org/Graphics/SVG/1.1/DTD/svg11.dtd">
<svg version="1.1" id="Version_1.0" xmlns="http://www.w3.org/2000/svg" xmlns:xlink="http://www.w3.org/1999/xlink" x="0px"
	 y="0px" width="400px" height="400px" viewBox="0 0 400 400" enable-background="new 0 0 400 400" xml:space="preserve">
<g id="main" transform="translate(-160 -170) scale(1.75 1.75)">
	<path fill="none" stroke="#000000" stroke-width="2" d="M152.622,220.067c13.174-104.438,162.599-86.175,158,10.4
		c-3.446,72.352-109.576,99.648-149.2,29.6"/>
	<line fill="none" stroke="#000000" stroke-width="2" x1="161.286" y1="260" x2="161.286" y2="285"/>
	<line fill="none" stroke="#000000" stroke-width="2" x1="160.299" y1="259.815" x2="181.702" y2="259.827"/>
	<g transform="translate(186 43) translate(-1 0) translate(-1 0) translate(1 0) translate(1 0) translate(1 0)">
		<rect x="113.571" y="171.857" fill="#FFFFFF" stroke="#FFFFFF" width="14.286" height="20"/>
		<text transform="matrix(0.5714 0 0 0.5714 117.187 189)" font-family="sans-serif" font-size="34.9982">S</text>
	</g>
</g>
<g id="template" display="none">
	<line display="inline" fill="none" stroke="#000000" stroke-width="2" x1="80.25" y1="190.5" x2="48.75" y2="153.75"/>
	<line display="inline" fill="none" stroke="#000000" stroke-width="2" x1="49.332" y1="154.884" x2="48.75" y2="106.5"/>
	<polygon display="inline" stroke="#000000" stroke-width="2" points="101.317,210.598 74.029,195.865 86.349,183.437 	"/>
	<ellipse display="inline" stroke="#000000" cx="247.346" cy="223.665" rx="2.985" ry="2.933"/>
	<g id="_x3C_group_x3E_" transform="translate(112 168)" display="inline">
		<text transform="matrix(1 0 0 1 110 80.25)" font-family="sans-serif" font-size="20.9989">PT. 1</text>
		<text transform="matrix(1 0 0 1 45.2495 104.75)" font-family="sans-serif" font-size="20.9989">(CENTER POINT)</text>
	</g>
	<g id="_x3C_group_x3E__1_" transform="translate(-247 25)" display="inline">
		<text transform="matrix(1 0 0 1 267.7495 22)" font-family="sans-serif" font-size="20.9989">PT. 2</text>
		<text transform="matrix(1 0 0 1 255.4995 67.5)" font-family="sans-serif" font-size="20.9989">POINT)</text>
		<text transform="matrix(1 0 0 1 251.9995 43)" font-family="sans-serif" font-size="20.9989">(START</text>
	</g>
</g>
</svg>
