<?xml version="1.0" encoding="utf-8"?>
<!-- Generator: Adobe Illustrator 16.0.0, SVG Export Plug-In . SVG Version: 6.00 Build 0)  -->
<!DOCTYPE svg PUBLIC "-//W3C//DTD SVG 1.1//EN" "http://www.w3.org/Graphics/SVG/1.1/DTD/svg11.dtd">
<svg version="1.1" id="Version_1.0" xmlns="http://www.w3.org/2000/svg" xmlns:xlink="http://www.w3.org/1999/xlink" x="0px"
	 y="0px" width="400px" height="400px" viewBox="0 0 400 400" enable-background="new 0 0 400 400" xml:space="preserve">
<g id="main">
	
		<line fill="none" stroke="#000000" stroke-width="3" stroke-linecap="round" stroke-dasharray="10,10" x1="247" y1="162" x2="92" y2="162"/>
	
		<line fill="none" stroke="#000000" stroke-width="3" stroke-linecap="round" stroke-dasharray="10,10" x1="247" y1="242" x2="125" y2="242"/>
	
		<line fill="none" stroke="#000000" stroke-width="3" stroke-linecap="round" stroke-dasharray="10,10" x1="247" y1="162" x2="247" y2="122"/>
	
		<line fill="none" stroke="#000000" stroke-width="3" stroke-linecap="round" stroke-dasharray="10,8" x1="247" y1="122" x2="307" y2="202"/>
	
		<line fill="none" stroke="#000000" stroke-width="3" stroke-linecap="round" stroke-dasharray="10,10" x1="247" y1="242" x2="247" y2="282"/>
	
		<line fill="none" stroke="#000000" stroke-width="3" stroke-linecap="round" stroke-dasharray="10,8" x1="247" y1="282" x2="307" y2="202"/>
	
		<line fill="none" stroke="#000000" stroke-width="3" stroke-linecap="round" stroke-dasharray="10,10" x1="17" y1="247" x2="92" y2="162"/>
	
		<line fill="none" stroke="#000000" stroke-width="3" stroke-linecap="round" stroke-dasharray="10,10" x1="125" y1="242" x2="75" y2="300"/>
	<text transform="matrix(1 0 0 1 132.9375 217)" font-family="sans-serif" font-size="40">CATK</text>
	<path fill="none" stroke="#000000" stroke-width="3" stroke-linecap="round" stroke-dasharray="10,9" d="M280,75l65,45v160l-65,45"
		/>
	<polygon stroke="#000000" stroke-width="3" points="375,208 375,192 389,200 	"/>
	
		<line fill="none" stroke="#000000" stroke-width="3" stroke-linecap="round" stroke-dasharray="10,9" x1="345" y1="200" x2="375" y2="200"/>
</g>
<g id="template" display="none">
	<text transform="matrix(1 0 0 1 112.9409 326.3477)" display="inline" font-family="sans-serif" font-size="20">PT. N-1</text>
	<text transform="matrix(1 0 0 1 163.3989 281.0098)" display="inline" font-family="sans-serif" font-size="20">PT. 2</text>
	<text transform="matrix(1 0 0 1 123.7686 82.6523)" display="inline" font-family="sans-serif" font-size="20">PT. N</text>
	<text transform="matrix(1 0 0 1 345.2402 302.1924)" display="inline" font-family="sans-serif" font-size="20">PT. 1</text>
	<path display="inline" d="M379.241,222.193l8-16l8,16H379.241z"/>
	<line display="inline" fill="none" stroke="#000000" stroke-width="2" x1="387" y1="279.71" x2="387" y2="222.041"/>
	<line display="inline" fill="none" stroke="#000000" stroke-width="2" x1="107.93" y1="314.758" x2="58.427" y2="281.242"/>
	<line display="inline" fill="none" stroke="#000000" stroke-width="2" x1="229.124" y1="111.354" x2="179.621" y2="77.837"/>
	<line display="inline" fill="none" stroke="#000000" stroke-width="2" x1="162.399" y1="262.852" x2="116.509" y2="219.041"/>
	<path display="inline" d="M232.41,103.799l9.247,15.313l-17.8-1.791L232.41,103.799"/>
	<path display="inline" d="M110.895,224.938L105.144,208l17.002,5.563L110.895,224.938z"/>
	<path display="inline" d="M53.998,287.686l-8.87-15.535l17.75,2.228L53.998,287.686z"/>
</g>
</svg>
