<?xml version="1.0" encoding="utf-8"?>
<!-- Generator: Adobe Illustrator 16.0.0, SVG Export Plug-In . SVG Version: 6.00 Build 0)  -->
<!DOCTYPE svg PUBLIC "-//W3C//DTD SVG 1.1//EN" "http://www.w3.org/Graphics/SVG/1.1/DTD/svg11.dtd">
<svg version="1.1" id="Version_1.0" xmlns="http://www.w3.org/2000/svg" xmlns:xlink="http://www.w3.org/1999/xlink" x="0px"
	 y="0px" width="400px" height="400px" viewBox="0 0 400 400" enable-background="new 0 0 400 400" xml:space="preserve">
<g id="main">
	<line fill="none" stroke="#000000" stroke-width="5" x1="378.456" y1="155.45" x2="344.749" y2="122"/>
	<line fill="none" stroke="#000000" stroke-width="5" x1="378.924" y1="155.423" x2="345.674" y2="185.173"/>
	<polyline fill="none" stroke="#000000" stroke-width="5" stroke-miterlimit="10" points="26.25,157 75.25,157 89.25,193.75 
		117.25,123.75 131.25,193.75 155.75,125.5 169.75,192 194.25,125.5 211.75,192 236.25,125.5 253.75,193.75 285.25,125.5 
		299.25,192 319.448,155.45 378.456,157 	"/>
	<g transform="translate(-145 -18) translate(1 0)">
		<rect x="178" y="156" fill="#FFFFFF" stroke="#FFFFFF" width="35" height="35"/>
		<text transform="matrix(1 0 0 1 185.3105 186)" font-family="sans-serif" font-size="35">F</text>
	</g>
</g>
<g id="template" display="none">
	<line display="inline" fill="none" stroke="#000000" stroke-width="2" x1="24.5" y1="176.25" x2="24.5" y2="218.25"/>
	<line display="inline" fill="none" stroke="#000000" stroke-width="2" x1="24.127" y1="217.1" x2="45.5" y2="248"/>
	<polygon display="inline" stroke="#000000" stroke-width="2" points="24.5,165.749 31.5,184.998 17.5,184.998 	"/>
	<line display="inline" fill="none" stroke="#000000" stroke-width="2" x1="379.78" y1="218.85" x2="358.407" y2="249.75"/>
	<line display="inline" fill="none" stroke="#000000" stroke-width="2" x1="376.407" y1="178" x2="379.407" y2="220"/>
	<polygon display="inline" stroke="#000000" stroke-width="2" points="379.407,167.499 372.407,186.748 386.407,186.748 	"/>
	<text transform="matrix(1 0 0 1 302.25 269)" display="inline" font-family="sans-serif" font-size="21">PT. 1</text>
	<text transform="matrix(1 0 0 1 52.5 260.25)" display="inline" font-family="sans-serif" font-size="21">PT. 2</text>
</g>
</svg>
