<?xml version="1.0" encoding="utf-8"?>
<!-- Generator: Adobe Illustrator 16.0.0, SVG Export Plug-In . SVG Version: 6.00 Build 0)  -->
<!DOCTYPE svg PUBLIC "-//W3C//DTD SVG 1.1//EN" "http://www.w3.org/Graphics/SVG/1.1/DTD/svg11.dtd">
<svg version="1.1" id="Version_1.0" xmlns="http://www.w3.org/2000/svg" xmlns:xlink="http://www.w3.org/1999/xlink" x="0px"
	 y="0px" width="400px" height="400px" viewBox="0 0 400 400" enable-background="new 0 0 400 400" xml:space="preserve">
<g id="main" transform="translate(-50 -40)">
	<line fill="none" stroke="#000000" stroke-width="2" x1="114.16" y1="187.177" x2="199.493" y2="187.177"/>
	<line fill="none" stroke="#000000" stroke-width="2" x1="114.503" y1="234.105" x2="199.77" y2="234.063"/>
	<line fill="none" stroke="#000000" stroke-width="2" x1="199.104" y1="234.285" x2="217.548" y2="212.285"/>
	<line fill="none" stroke="#000000" stroke-width="2" x1="217.992" y1="212.063" x2="198.826" y2="187.178"/>
	<line fill="none" stroke="#000000" stroke-width="2" x1="115" y1="234" x2="142.715" y2="210.398"/>
	<line fill="none" stroke="#000000" stroke-width="2" x1="142.965" y1="211.648" x2="114.156" y2="187.178"/>
	<polygon stroke="#000000" points="410.591,211.993 349.59,235.493 349.59,188.493 	"/>
	<line fill="none" stroke="#000000" stroke-width="2" x1="217" y1="212" x2="349" y2="212"/>
</g>
<g id="template" display="none">
	<g id="varT" transform="translate(96 118)" display="inline">
		<rect x="14" y="44" fill="#FFFFFF" stroke="#000000" stroke-width="2" width="18" height="16"/>
		<text transform="matrix(1 0 0 1 18 57)" font-family="sans-serif" font-size="12">T</text>
	</g>
	<g id="points" display="inline">
		<g>
			<text transform="matrix(1 0 0 1 54 247)" font-family="sans-serif" font-size="12">PT. 2</text>
			<line fill="none" stroke="#000000" stroke-width="2" x1="31.038" y1="176.271" x2="68" y2="234"/>
			<line fill="none" stroke="#000000" stroke-width="2" x1="30.288" y1="176.021" x2="58" y2="176"/>
			<polygon stroke="#000000" stroke-width="2" points="72.778,174.778 57.778,180.778 57.778,168.778 			"/>
		</g>
		<g id="_x3C_Group_x3E_">
			<text transform="matrix(1 0 0 1 295 236)" font-family="sans-serif" font-size="12">PT. 1</text>
			<line fill="none" stroke="#000000" stroke-width="2" x1="362" y1="184" x2="362" y2="216"/>
			<line fill="none" stroke="#000000" stroke-width="2" x1="362.525" y1="215.271" x2="332" y2="232"/>
			<polygon stroke="#000000" stroke-width="2" points="362,175.001 368,190 356,190 			"/>
		</g>
	</g>
</g>
<g id="example" transform="translate(96 118)" display="none">
	<text id="varTe" transform="matrix(1 0 0 1 18 57)" display="inline" font-family="sans-serif" font-size="12"> </text>
</g>
</svg>
