<?xml version="1.0" encoding="utf-8"?>
<!-- Generator: Adobe Illustrator 16.0.0, SVG Export Plug-In . SVG Version: 6.00 Build 0)  -->
<!DOCTYPE svg PUBLIC "-//W3C//DTD SVG 1.1//EN" "http://www.w3.org/Graphics/SVG/1.1/DTD/svg11.dtd">
<svg version="1.1" id="Version_1.0" xmlns="http://www.w3.org/2000/svg" xmlns:xlink="http://www.w3.org/1999/xlink" x="0px"
	 y="0px" width="400px" height="400px" viewBox="0 0 400 400" enable-background="new 0 0 400 400" xml:space="preserve">
<g id="main" transform="translate(-170 -200) scale(1.75 1.75)">
	<line fill="none" stroke="#000000" stroke-width="2" x1="117.077" y1="283.344" x2="309.286" y2="147.571"/>
	<line fill="none" stroke="#000000" stroke-width="2" x1="103.286" y1="213.571" x2="319.286" y2="213.571"/>
	<line fill="none" stroke="#000000" stroke-width="2" x1="318.711" y1="213.257" x2="294.623" y2="189.097"/>
	<line fill="none" stroke="#000000" stroke-width="2" x1="318.544" y1="213.924" x2="297.044" y2="235.424"/>
	<line fill="none" stroke="#000000" stroke-width="2" x1="308.544" y1="147.924" x2="279.623" y2="147.896"/>
	<line fill="none" stroke="#000000" stroke-width="2" x1="308.711" y1="148.257" x2="308.748" y2="175.271"/>
	
		<g transform="translate(0 -1) translate(0 -1) translate(0 -1) translate(0 -1) translate(0 -1) translate(0 -1) translate(0 -1) translate(0 -1) translate(1 0) translate(1 0) translate(0 -1) translate(0 -1) translate(0 -1) translate(0 -1) translate(0 -1) translate(0 1) translate(0 1) translate(0 1) translate(0 1) translate(1 0) translate(0 1) translate(1 0) translate(0 1) translate(0 1) translate(0 -1)">
		<rect x="197.714" y="211" fill="#FFFFFF" stroke="#FFFFFF" width="20" height="20"/>
		<text transform="matrix(0.5714 0 0 0.5714 205.2213 228.1429)" font-family="sans-serif" font-size="34.9982">I</text>
	</g>
</g>
<g id="template" display="none">
	<line display="inline" fill="none" stroke="#000000" stroke-width="2" x1="214.5" y1="204.75" x2="246" y2="295.75"/>
	<polygon display="inline" stroke="#000000" stroke-width="2" points="210.738,196.762 229.074,213.838 209.641,221.794 	"/>
	<text transform="matrix(1 0 0 1 210.25 332.7501)" display="inline" font-family="sans-serif" font-size="20.9989">POINT</text>
	<text transform="matrix(1 0 0 1 203.25 313.5001)" display="inline" font-family="sans-serif" font-size="20.9989">CENTER</text>
</g>
</svg>
