<?xml version="1.0" encoding="utf-8"?>
<!-- Generator: Adobe Illustrator 16.0.0, SVG Export Plug-In . SVG Version: 6.00 Build 0)  -->
<!DOCTYPE svg PUBLIC "-//W3C//DTD SVG 1.1//EN" "http://www.w3.org/Graphics/SVG/1.1/DTD/svg11.dtd">
<svg version="1.1" id="Version_1.0" xmlns="http://www.w3.org/2000/svg" xmlns:xlink="http://www.w3.org/1999/xlink" x="0px"
	 y="0px" width="400px" height="400px" viewBox="0 0 400 400" enable-background="new 0 0 400 400" xml:space="preserve">
<g id="main" transform="translate(-110 -110) scale(1.25 1.25)">
	<path fill="none" stroke="#000000" stroke-width="2" d="M311,175.8c80.069,0,98.652,105.535-6,111"/>
	<line fill="none" stroke="#000000" stroke-width="2" x1="305" y1="286.8" x2="222" y2="286.8"/>
	<line fill="none" stroke="#000000" stroke-width="2" x1="197" y1="286.8" x2="118" y2="286.8"/>
	<line fill="none" stroke="#000000" stroke-width="2" x1="119" y1="286.8" x2="133" y2="274.8"/>
	<line fill="none" stroke="#000000" stroke-width="2" x1="118.987" y1="287.533" x2="131.387" y2="300.333"/>
	<text transform="matrix(0.8 0 0 0.8 202.9992 290.7992)" font-family="sans-serif" font-size="22.5">D</text>
</g>
<g id="template" display="none">
	<g id="varW" transform="translate(149 138)" display="inline">
		<rect x="-12.75" y="68" fill="#FFFFFF" stroke="#000000" stroke-width="2" width="30" height="23.75"/>
		<text transform="matrix(1 0 0 1 -5.251 85.499)" font-family="sans-serif" font-size="15">W</text>
	</g>
	<g id="points" display="inline">
		<g>
			<line fill="none" stroke="#000000" stroke-width="2" x1="267.988" y1="103.055" x2="246.957" y2="87.346"/>
			<polygon stroke="#000000" stroke-width="2" points="274.998,108.291 266.721,94.308 259.24,104.322 			"/>
			<line fill="none" stroke="#000000" stroke-width="2" x1="247.973" y1="87.513" x2="217.5" y2="87.25"/>
			<text transform="matrix(1 0 0 1 171.249 90.999)" font-family="sans-serif" font-size="15">PT. 3</text>
		</g>
		<g>
			<line fill="none" stroke="#000000" stroke-width="2" x1="273.76" y1="263.5" x2="273.76" y2="289.75"/>
			<line fill="none" stroke="#000000" stroke-width="2" x1="274.063" y1="288.936" x2="256.26" y2="308.5"/>
			<polygon stroke="#000000" stroke-width="2" points="273.76,254.75 267.51,269.75 280.01,269.75 			"/>
			<text transform="matrix(1 0 0 1 211.249 312.249)" font-family="sans-serif" font-size="15">PT. 2</text>
		</g>
		<g>
			<line fill="none" stroke="#000000" stroke-width="2" x1="32.5" y1="266" x2="32.5" y2="292.25"/>
			<line fill="none" stroke="#000000" stroke-width="2" x1="32.197" y1="291.436" x2="50" y2="311"/>
			<polygon stroke="#000000" stroke-width="2" points="32.5,257.25 38.75,272.25 26.25,272.25 			"/>
			<text transform="matrix(1 0 0 1 54.999 314.749)" font-family="sans-serif" font-size="15">PT. 1</text>
		</g>
	</g>
</g>
<g id="example" transform="translate(149 138)" display="none">
	<text id="varWe" transform="matrix(1 0 0 1 -5.251 85.499)" display="inline" font-family="sans-serif" font-size="15"> </text>
</g>
</svg>
