<?xml version="1.0" encoding="utf-8"?>
<!-- Generator: Adobe Illustrator 16.0.0, SVG Export Plug-In . SVG Version: 6.00 Build 0)  -->
<!DOCTYPE svg PUBLIC "-//W3C//DTD SVG 1.1//EN" "http://www.w3.org/Graphics/SVG/1.1/DTD/svg11.dtd">
<svg version="1.1" id="Version_1.0" xmlns="http://www.w3.org/2000/svg" xmlns:xlink="http://www.w3.org/1999/xlink" x="0px"
	 y="0px" width="400px" height="400px" viewBox="0 0 400 400" enable-background="new 0 0 400 400" xml:space="preserve">
<g id="main" transform="translate(-80 -120) scale(1.25 1.25)">
	<line fill="none" stroke="#000000" stroke-width="2" x1="342.474" y1="237.309" x2="302.047" y2="198.432"/>
	<line fill="none" stroke="#000000" stroke-width="2" x1="341.608" y1="236.842" x2="300.145" y2="266.11"/>
	<line fill="none" stroke="#000000" stroke-width="2" x1="302.4" y1="199.2" x2="302.4" y2="188.2"/>
	<line fill="none" stroke="#000000" stroke-width="2" x1="300.557" y1="265.228" x2="300.279" y2="274.934"/>
	<line fill="none" stroke="#000000" stroke-width="2" x1="300.498" y1="274.169" x2="351.608" y2="236.309"/>
	<line fill="none" stroke="#000000" stroke-width="2" x1="302.714" y1="188.912" x2="351.008" y2="237.042"/>
	<line fill="none" stroke="#000000" stroke-width="2" stroke-dasharray="12" x1="209.4" y1="237.2" x2="341.198" y2="237.2"/>
	<polygon fill="none" stroke="#000000" stroke-width="2" points="190.503,259.485 138.4,259.485 138.4,218.2 190.503,218.2 
		208.948,237.485 	"/>
</g>
<g id="template" display="none">
	<g id="varT" transform="translate(63 147)" display="inline">
		<rect x="56.25" y="19.5" fill="#FFFFFF" stroke="#000000" stroke-width="2" width="20" height="20"/>
		<text transform="matrix(1 0 0 1 61.249 35.749)" font-family="sans-serif" font-size="15">T</text>
	</g>
	<g id="points" display="inline">
		<g>
			<text transform="matrix(1 0 0 1 272.999 277.749)" font-family="sans-serif" font-size="15">PT. 1</text>
			<line fill="none" stroke="#000000" stroke-width="2" x1="315.5" y1="274" x2="360.813" y2="229.514"/>
			<line fill="none" stroke="#000000" stroke-width="2" x1="360.5" y1="230.25" x2="360.5" y2="199"/>
			<polygon stroke="#000000" stroke-width="2" points="359.25,187.75 364.25,202.749 354.25,202.749 			"/>
		</g>
		<g>
			<text transform="matrix(1 0 0 1 62.999 235.249)" font-family="sans-serif" font-size="15">PT. 2</text>
			<line fill="none" stroke="#000000" stroke-width="2" x1="59.25" y1="229" x2="33.35" y2="182.036"/>
			<line fill="none" stroke="#000000" stroke-width="2" x1="34.25" y1="182.75" x2="71.75" y2="184"/>
			<polygon stroke="#000000" stroke-width="2" points="84.417,182.917 69.417,187.917 69.417,177.917 			"/>
		</g>
	</g>
</g>
<g id="example" transform="translate(63 147)" display="none">
	<text id="varTe" transform="matrix(1 0 0 1 61.249 35.749)" display="inline" font-family="sans-serif" font-size="15"> </text>
</g>
</svg>
