<?xml version="1.0" encoding="utf-8"?>
<!-- Generator: Adobe Illustrator 16.0.0, SVG Export Plug-In . SVG Version: 6.00 Build 0)  -->
<!DOCTYPE svg PUBLIC "-//W3C//DTD SVG 1.1//EN" "http://www.w3.org/Graphics/SVG/1.1/DTD/svg11.dtd">
<svg version="1.1" id="Version_1.0" xmlns="http://www.w3.org/2000/svg" xmlns:xlink="http://www.w3.org/1999/xlink" x="0px"
	 y="0px" width="400px" height="400px" viewBox="0 0 400 400" enable-background="new 0 0 400 400" xml:space="preserve">
<g id="main">
	<line fill="none" stroke="#000000" stroke-width="2" x1="41.107" y1="112.91" x2="40.795" y2="283.348"/>
	<line fill="none" stroke="#000000" stroke-width="2" x1="41" y1="282.25" x2="319.683" y2="282.178"/>
	<line fill="none" stroke="#000000" stroke-width="2" x1="40.326" y1="113.285" x2="317.985" y2="113.473"/>
	<line fill="none" stroke="#000000" stroke-width="2" x1="310.182" y1="126.237" x2="326.182" y2="99.737"/>
	<line fill="none" stroke="#000000" stroke-width="2" x1="309.75" y1="267.25" x2="331" y2="298.5"/>
	<g transform="translate(-166 4)">
		<rect x="188" y="171" fill="#FFFFFF" stroke="#FFFFFF" width="35" height="35"/>
		<text transform="matrix(1 0 0 1 193.3623 201)" font-family="sans-serif" font-size="35">C</text>
	</g>
</g>
<g id="template" transform="translate(-120 -80) scale(1.25 1.25)" display="none">
	<line display="inline" fill="none" stroke="#000000" stroke-width="2" x1="353.8" y1="165.8" x2="367.002" y2="180.343"/>
	<line display="inline" fill="none" stroke="#000000" stroke-width="2" x1="149.6" y1="220.4" x2="189.6" y2="220.4"/>
	<polygon display="inline" stroke="#000000" stroke-width="2" points="350.142,161.192 361.191,166.082 353.723,172.733 	"/>
	<line display="inline" fill="none" stroke="#000000" stroke-width="2" x1="358.8" y1="281.543" x2="372.002" y2="267"/>
	<polygon display="inline" stroke="#000000" stroke-width="2" points="355.142,286.151 366.191,281.261 358.723,274.611 	"/>
	<polygon display="inline" stroke="#000000" stroke-width="2" points="144.75,220.25 153.75,216.25 153.75,224.25 	"/>
	<text transform="matrix(0.8 0 0 0.8 192.3992 224.3992)" display="inline" font-family="sans-serif" font-size="15">PT. 3</text>
	<text transform="matrix(0.8 0 0 0.8 360.7992 261.7992)" display="inline" font-family="sans-serif" font-size="15">PT. 2</text>
	<text transform="matrix(0.8 0 0 0.8 364.7992 191.7992)" display="inline" font-family="sans-serif" font-size="15">PT. 1</text>
</g>
</svg>
