<?xml version="1.0" encoding="utf-8"?>
<!-- Generator: Adobe Illustrator 16.0.0, SVG Export Plug-In . SVG Version: 6.00 Build 0)  -->
<!DOCTYPE svg PUBLIC "-//W3C//DTD SVG 1.1//EN" "http://www.w3.org/Graphics/SVG/1.1/DTD/svg11.dtd">
<svg version="1.1" id="Version_1.0" xmlns="http://www.w3.org/2000/svg" xmlns:xlink="http://www.w3.org/1999/xlink" x="0px"
	 y="0px" width="400px" height="400px" viewBox="0 0 400 400" enable-background="new 0 0 400 400" xml:space="preserve">
<g id="main">
	<line fill="none" stroke="#000000" stroke-width="4" x1="13" y1="70" x2="385" y2="303"/>
	<line fill="none" stroke="#000000" stroke-width="4" x1="386" y1="70" x2="15" y2="304"/>
	
		<g transform="translate(0 1) translate(0 1) translate(0 1) translate(-1 0) translate(-1 0) translate(0 1) translate(0 1) translate(-1 0)">
		<rect x="185" y="164" fill="#FFFFFF" stroke="#FFFFFF" width="35" height="35"/>
		<text transform="matrix(1 0 0 1 190.3623 194)" font-family="sans-serif" font-size="35">D</text>
	</g>
</g>
<g id="template" transform="translate(-250 -190) scale(1.75 1.75)" display="none">
	<line display="inline" fill="none" stroke="#000000" stroke-width="2" x1="253.714" y1="233.571" x2="243.714" y2="265.571"/>
	<polygon display="inline" stroke="#000000" stroke-width="2" points="255.989,228.199 258.029,240.561 246.7,236.607 	"/>
	<g id="CENTER_x25_20POINT" transform="translate(19 -76)" display="inline">
		<text transform="matrix(0.5714 0 0 0.5714 195.7137 356.5714)" font-family="sans-serif" font-size="20.9978">CENTER</text>
		<text transform="matrix(0.5714 0 0 0.5714 201.7137 368.5714)" font-family="sans-serif" font-size="20.9978">POINT</text>
	</g>
</g>
</svg>
