<?xml version="1.0" encoding="utf-8"?>
<!-- Generator: Adobe Illustrator 16.0.0, SVG Export Plug-In . SVG Version: 6.00 Build 0)  -->
<!DOCTYPE svg PUBLIC "-//W3C//DTD SVG 1.1//EN" "http://www.w3.org/Graphics/SVG/1.1/DTD/svg11.dtd">
<svg version="1.1" id="Version_1.0" xmlns="http://www.w3.org/2000/svg" xmlns:xlink="http://www.w3.org/1999/xlink" x="0px"
	 y="0px" width="400px" height="400px" viewBox="0 0 400 400" enable-background="new 0 0 400 400" xml:space="preserve">
<g id="main">
	<line fill="none" stroke="#000000" stroke-width="2" x1="58.107" y1="114.41" x2="57.795" y2="284.848"/>
	<line fill="none" stroke="#000000" stroke-width="2" x1="58" y1="283.75" x2="336.683" y2="283.678"/>
	<line fill="none" stroke="#000000" stroke-width="2" x1="57.326" y1="114.785" x2="334.985" y2="114.973"/>
	<line fill="none" stroke="#000000" stroke-width="2" x1="311.216" y1="97.053" x2="334.25" y2="115"/>
	<line fill="none" stroke="#000000" stroke-width="2" x1="334.339" y1="115.178" x2="309.716" y2="134.053"/>
	<line fill="none" stroke="#000000" stroke-width="2" x1="310.716" y1="263.053" x2="336.214" y2="283.678"/>
	<line fill="none" stroke="#000000" stroke-width="2" x1="336.214" y1="283.678" x2="309.716" y2="301.053"/>
	<g transform="translate(-144 7)">
		<rect x="185" y="175" fill="#FFFFFF" stroke="#FFFFFF" width="35" height="35"/>
		<text transform="matrix(1 0 0 1 190.3623 205)" font-family="sans-serif" font-size="35">B</text>
	</g>
</g>
<g id="template" transform="translate(-110 -80) scale(1.25 1.25)" display="none">
	<text transform="matrix(0.8 0 0 0.8 213.5992 228.7992)" display="inline" font-family="sans-serif" font-size="15">PT. 3</text>
	<text transform="matrix(0.8 0 0 0.8 341.3992 254.9992)" display="inline" font-family="sans-serif" font-size="15">PT. 2</text>
	<text transform="matrix(0.8 0 0 0.8 341.3992 201.9992)" display="inline" font-family="sans-serif" font-size="15">PT. 1</text>
	<line display="inline" fill="none" stroke="#000000" stroke-width="2" x1="155.2" y1="224.8" x2="207.2" y2="224.8"/>
	<polygon display="inline" stroke="#000000" stroke-width="2" points="152.016,224.386 171.016,218.386 171.016,230.386 	"/>
	<line display="inline" fill="none" stroke="#000000" stroke-width="2" x1="356.366" y1="165.2" x2="356.366" y2="189.206"/>
	<polygon display="inline" stroke="#000000" stroke-width="2" points="356.78,162.622 362.78,171.394 350.78,171.394 	"/>
	<line display="inline" fill="none" stroke="#000000" stroke-width="2" x1="357.481" y1="284.972" x2="357.481" y2="260.966"/>
	<polygon display="inline" stroke="#000000" stroke-width="2" points="357.78,287.55 363.78,281.216 351.78,281.216 	"/>
</g>
</svg>
