<?xml version="1.0" encoding="utf-8"?>
<!-- Generator: Adobe Illustrator 16.0.0, SVG Export Plug-In . SVG Version: 6.00 Build 0)  -->
<!DOCTYPE svg PUBLIC "-//W3C//DTD SVG 1.1//EN" "http://www.w3.org/Graphics/SVG/1.1/DTD/svg11.dtd">
<svg version="1.1" id="Version_1.0" xmlns="http://www.w3.org/2000/svg" xmlns:xlink="http://www.w3.org/1999/xlink" x="0px"
	 y="0px" width="612px" height="792px" viewBox="0 0 612 792" enable-background="new 0 0 612 792" xml:space="preserve">
<g id="frame">
	<g>
		<path fill="#FFA1FF" d="M391,514c125,0,125-205,0-205c0-139-170-139-170,0c-125,0-125,205,0,205"/>
		<g>
			<path fill="none" stroke="#000000" stroke-width="5" stroke-miterlimit="10" d="M391,514c4.308,0,8.466-0.243,12.477-0.714"/>
			<path fill="none" stroke="#000000" stroke-width="5" stroke-miterlimit="10" stroke-dasharray="24.267,14.5602" d="
				M417.76,510.511c91.627-25.37,89.261-181.046-7.099-199.686"/>
			<path fill="none" stroke="#000000" stroke-width="5" stroke-miterlimit="10" d="M403.477,309.713
				C399.466,309.243,395.308,309,391,309c0-4.297-0.162-8.461-0.478-12.492"/>
			<path fill="none" stroke="#000000" stroke-width="5" stroke-miterlimit="10" stroke-dasharray="23.3682,14.0209" d="
				M388.754,282.599c-19.008-106.062-152.553-103.749-166.565,6.938"/>
			<path fill="none" stroke="#000000" stroke-width="5" stroke-miterlimit="10" d="M221.478,296.508
				C221.163,300.539,221,304.703,221,309c-4.307,0-8.466,0.243-12.476,0.713"/>
			<path fill="none" stroke="#000000" stroke-width="5" stroke-miterlimit="10" stroke-dasharray="24.267,14.5602" d="
				M194.24,312.489c-91.627,25.371-89.261,181.046,7.099,199.686"/>
			<path fill="none" stroke="#000000" stroke-width="5" stroke-miterlimit="10" d="M208.524,513.286
				c4.01,0.471,8.169,0.714,12.476,0.714"/>
		</g>
	</g>
	<text transform="matrix(1 0 0 1 442.082 252.8145)" font-family="sans-serif" font-size="72">X</text>
</g>
</svg>
