<?xml version="1.0" encoding="utf-8"?>
<!-- Generator: Adobe Illustrator 16.0.0, SVG Export Plug-In . SVG Version: 6.00 Build 0)  -->
<!DOCTYPE svg PUBLIC "-//W3C//DTD SVG 1.1//EN" "http://www.w3.org/Graphics/SVG/1.1/DTD/svg11.dtd">
<svg version="1.1" id="Version_1.0" xmlns="http://www.w3.org/2000/svg" xmlns:xlink="http://www.w3.org/1999/xlink" x="0px"
	 y="0px" width="612px" height="792px" viewBox="0 0 612 792" enable-background="new 0 0 612 792" xml:space="preserve">
<g id="frame">
	<path fill="#FFFF80" stroke="#000000" stroke-width="5" stroke-dasharray="5,5" d="M221,480c0,115,170,115,170,0
		c115,0,115-170,0-170c0-115-170-115-170,0C106,310,106,480,221,480z"/>
	<path stroke="#000000" stroke-width="2" d="M426.807,317.284c29.657,13.611,50.247,43.509,50.247,78.202
		c0,34.618-20.501,64.462-50.057,78.114"/>
	<text transform="matrix(1 0 0 1 443.082 266.8145)" font-family="'ArialMT'" font-size="72">X</text>
</g>
<g id="Octagon" display="none">
	<polygon display="inline" fill="none" stroke="#0000FF" stroke-width="2" points="305,516.5 218.733,480.768 183,394.5 
		218.733,308.233 305,272.5 391.268,308.233 427,394.5 391.268,480.768 	"/>
	<line display="inline" fill="none" stroke="#0000FF" stroke-width="2" x1="202.5" y1="345.7" x2="407.5" y2="345.7"/>
	<line display="inline" fill="none" stroke="#0000FF" stroke-width="2" x1="202.5" y1="443.3" x2="407.5" y2="443.3"/>
</g>
</svg>
