<?xml version="1.0" encoding="utf-8"?>
<!-- Generator: Adobe Illustrator 16.0.0, SVG Export Plug-In . SVG Version: 6.00 Build 0)  -->
<!DOCTYPE svg PUBLIC "-//W3C//DTD SVG 1.1//EN" "http://www.w3.org/Graphics/SVG/1.1/DTD/svg11.dtd">
<svg version="1.1" id="Version_1.0" xmlns="http://www.w3.org/2000/svg" xmlns:xlink="http://www.w3.org/1999/xlink" x="0px"
	 y="0px" width="612px" height="792px" viewBox="0 0 612 792" enable-background="new 0 0 612 792" xml:space="preserve">
<g id="frame">
	<g>
		<path fill="#FFFF80" d="M391,516c125,0,125-205,0-205c0-139-170-139-170,0c-125,0-125,205,0,205"/>
		<g>
			<path fill="none" stroke="#000000" stroke-width="5" d="M391,516c0.84,0,1.675-0.009,2.503-0.027"/>
			<path fill="none" stroke="#000000" stroke-width="5" stroke-dasharray="5.0221,5.0221" d="M398.521,515.746
				c115.803-7.942,114.967-199.34-2.508-204.634"/>
			<path fill="none" stroke="#000000" stroke-width="5" d="M393.503,311.028C392.675,311.009,391.84,311,391,311
				c0-0.838-0.006-1.672-0.019-2.5"/>
			<path fill="none" stroke="#000000" stroke-width="5" stroke-dasharray="5.0126,5.0126" d="M390.83,303.489
				c-5.937-129.815-165.798-128.98-169.755,2.504"/>
			<path fill="none" stroke="#000000" stroke-width="5" d="M221.019,308.5c-0.012,0.828-0.019,1.662-0.019,2.5
				c-0.84,0-1.674,0.009-2.503,0.028"/>
			<path fill="none" stroke="#000000" stroke-width="5" stroke-dasharray="5.0221,5.0221" d="M213.479,311.254
				c-115.803,7.942-114.967,199.339,2.507,204.633"/>
			<path fill="none" stroke="#000000" stroke-width="5" d="M218.497,515.973C219.326,515.991,220.16,516,221,516"/>
		</g>
	</g>
	<path stroke="#000000" stroke-width="2" d="M226,278c30-95,130-95,160,0"/>
	<text transform="matrix(1 0 0 1 452.082 253.8145)" font-family="sans-serif" font-size="72">S</text>
</g>
</svg>
