<?xml version="1.0" encoding="utf-8"?>
<!-- Generator: Adobe Illustrator 16.0.0, SVG Export Plug-In . SVG Version: 6.00 Build 0)  -->
<!DOCTYPE svg PUBLIC "-//W3C//DTD SVG 1.1//EN" "http://www.w3.org/Graphics/SVG/1.1/DTD/svg11.dtd">
<svg version="1.1" id="Version_1.0" xmlns="http://www.w3.org/2000/svg" xmlns:xlink="http://www.w3.org/1999/xlink" x="0px"
	 y="0px" width="612px" height="792px" viewBox="0 0 612 792" enable-background="new 0 0 612 792" xml:space="preserve">
<g id="frame">
	<g>
		<path fill="#FFA1FF" d="M221,480c0,115,170,115,170,0c115,0,115-170,0-170c0-115-170-115-170,0C106,310,106,480,221,480z"/>
		<g>
			<path fill="none" stroke="#000000" stroke-width="5" d="M218.496,479.973c0.829,0.019,1.664,0.027,2.504,0.027
				c0,0.841,0.009,1.676,0.027,2.505"/>
			<path fill="none" stroke="#000000" stroke-width="5" stroke-dasharray="5.029,5.029" d="M221.25,487.529
				c7.145,105.793,164.883,104.954,169.64-2.518"/>
			<path fill="none" stroke="#000000" stroke-width="5" d="M390.973,482.505c0.019-0.829,0.027-1.664,0.027-2.505
				c0.841,0,1.676-0.009,2.505-0.027"/>
			<path fill="none" stroke="#000000" stroke-width="5" stroke-dasharray="5.029,5.029" d="M398.529,479.75
				c105.793-7.145,104.954-164.884-2.518-169.64"/>
			<path fill="none" stroke="#000000" stroke-width="5" d="M393.505,310.027C392.676,310.009,391.841,310,391,310
				c0-0.841-0.009-1.676-0.027-2.504"/>
			<path fill="none" stroke="#000000" stroke-width="5" stroke-dasharray="5.029,5.029" d="M390.75,302.471
				c-7.145-105.794-164.884-104.955-169.64,2.517"/>
			<path fill="none" stroke="#000000" stroke-width="5" d="M221.027,307.496C221.009,308.324,221,309.159,221,310
				c-0.841,0-1.676,0.009-2.504,0.027"/>
			<path fill="none" stroke="#000000" stroke-width="5" stroke-dasharray="5.029,5.029" d="M213.471,310.25
				c-105.794,7.145-104.955,164.883,2.517,169.64"/>
		</g>
	</g>
	<text transform="matrix(1 0 0 1 441.082 261.8145)" font-family="sans-serif" font-size="72">S</text>
</g>
</svg>
