<?xml version="1.0" encoding="utf-8"?>
<!-- Generator: Adobe Illustrator 16.0.0, SVG Export Plug-In . SVG Version: 6.00 Build 0)  -->
<!DOCTYPE svg PUBLIC "-//W3C//DTD SVG 1.1//EN" "http://www.w3.org/Graphics/SVG/1.1/DTD/svg11.dtd">
<svg version="1.1" id="Version_1.0" xmlns="http://www.w3.org/2000/svg" xmlns:xlink="http://www.w3.org/1999/xlink" x="0px"
	 y="0px" width="612px" height="792px" viewBox="0 0 612 792" enable-background="new 0 0 612 792" xml:space="preserve">
<g id="frame">
	<rect x="268.5" y="204.032" stroke="#000000" stroke-width="2" width="75" height="21.788"/>
	<g>
		<path fill="#FFA1FF" d="M221,480c0,115,170,115,170,0c115,0,115-170,0-170c0-115-170-115-170,0C106,310,106,480,221,480z"/>
		<g>
			<path fill="none" stroke="#000000" stroke-width="5" d="M208.521,479.298C212.519,479.76,216.678,480,221,480
				c0,4.322,0.24,8.481,0.702,12.479"/>
			<path fill="none" stroke="#000000" stroke-width="5" stroke-dasharray="24.1702,14.5021" d="M224.442,506.711
				c22.503,81.681,148.228,79.319,164.763-7.084"/>
			<path fill="none" stroke="#000000" stroke-width="5" d="M390.298,492.479C390.76,488.481,391,484.322,391,480
				c4.322,0,8.481-0.24,12.479-0.702"/>
			<path fill="none" stroke="#000000" stroke-width="5" stroke-dasharray="24.1702,14.5021" d="M417.711,476.558
				c81.681-22.504,79.319-148.228-7.084-164.763"/>
			<path fill="none" stroke="#000000" stroke-width="5" d="M403.479,310.702C399.481,310.24,395.322,310,391,310
				c0-4.322-0.24-8.481-0.702-12.479"/>
			<path fill="none" stroke="#000000" stroke-width="5" stroke-dasharray="24.1702,14.5021" d="M387.558,283.289
				c-22.504-81.681-148.228-79.319-164.763,7.084"/>
			<path fill="none" stroke="#000000" stroke-width="5" d="M221.702,297.521C221.24,301.519,221,305.678,221,310
				c-4.322,0-8.481,0.24-12.479,0.702"/>
			<path fill="none" stroke="#000000" stroke-width="5" stroke-dasharray="24.1702,14.5021" d="M194.289,313.442
				c-81.681,22.503-79.319,148.228,7.084,164.763"/>
		</g>
	</g>
	<text transform="matrix(1 0 0 1 444.082 245.8145)" font-family="sans-serif" font-size="72">S</text>
</g>
</svg>
