<?xml version="1.0" encoding="utf-8"?>
<!-- Generator: Adobe Illustrator 16.0.0, SVG Export Plug-In . SVG Version: 6.00 Build 0)  -->
<!DOCTYPE svg PUBLIC "-//W3C//DTD SVG 1.1//EN" "http://www.w3.org/Graphics/SVG/1.1/DTD/svg11.dtd">
<svg version="1.1" id="Version_1.0" xmlns="http://www.w3.org/2000/svg" xmlns:xlink="http://www.w3.org/1999/xlink" x="0px"
	 y="0px" width="612px" height="792px" viewBox="0 0 612 792" enable-background="new 0 0 612 792" xml:space="preserve">
<g id="frame">
	<g>
		<path fill="#FFFF80" d="M221,279.75c-125,0-125,205,0,205c0,139,170,139,170,0c125,0,125-205,0-205"/>
		<g>
			<path fill="none" stroke="#000000" stroke-width="5" d="M221,279.75c-4.307,0-8.466,0.243-12.476,0.713"/>
			<path fill="none" stroke="#000000" stroke-width="5" stroke-dasharray="24.267,14.5602" d="M194.24,283.239
				c-91.627,25.371-89.261,181.046,7.099,199.686"/>
			<path fill="none" stroke="#000000" stroke-width="5" d="M208.524,484.036c4.01,0.471,8.169,0.714,12.476,0.714
				c0,4.297,0.163,8.461,0.478,12.492"/>
			<path fill="none" stroke="#000000" stroke-width="5" stroke-dasharray="23.3682,14.0209" d="M223.247,511.151
				C242.254,617.213,375.8,614.9,389.812,504.213"/>
			<path fill="none" stroke="#000000" stroke-width="5" d="M390.522,497.242c0.315-4.031,0.478-8.195,0.478-12.492
				c4.308,0,8.466-0.243,12.477-0.714"/>
			<path fill="none" stroke="#000000" stroke-width="5" stroke-dasharray="24.267,14.5602" d="M417.76,481.261
				c91.627-25.37,89.261-181.046-7.099-199.686"/>
			<path fill="none" stroke="#000000" stroke-width="5" d="M403.477,280.463c-4.011-0.47-8.169-0.713-12.477-0.713"/>
		</g>
	</g>
	<text transform="matrix(1 0 0 1 457.3418 277)" font-family="sans-serif" font-size="72">S</text>
</g>
</svg>
