<?xml version="1.0" encoding="utf-8"?>
<!-- Generator: Adobe Illustrator 16.0.0, SVG Export Plug-In . SVG Version: 6.00 Build 0)  -->
<!DOCTYPE svg PUBLIC "-//W3C//DTD SVG 1.1//EN" "http://www.w3.org/Graphics/SVG/1.1/DTD/svg11.dtd">
<svg version="1.1" id="Version_1.0" xmlns="http://www.w3.org/2000/svg" xmlns:xlink="http://www.w3.org/1999/xlink" x="0px"
	 y="0px" width="612px" height="792px" viewBox="0 0 612 792" enable-background="new 0 0 612 792" xml:space="preserve">
<g id="frame">
	<g>
		<polyline fill="#FF8080" points="174.25,516 174.25,326 306.25,204 438.25,326 438.25,516 		"/>
		<g>
			<line fill="none" stroke="#000000" stroke-width="5" x1="174.25" y1="516" x2="174.25" y2="503.5"/>
			
				<line fill="none" stroke="#000000" stroke-width="5" stroke-dasharray="23.5714,14.1429" x1="174.25" y1="489.357" x2="174.25" y2="345.571"/>
			<polyline fill="none" stroke="#000000" stroke-width="5" points="174.25,338.5 174.25,326 183.43,317.516 			"/>
			
				<line fill="none" stroke="#000000" stroke-width="5" stroke-dasharray="22.1063,13.2638" x1="193.17" y1="308.513" x2="292.2" y2="216.985"/>
			<polyline fill="none" stroke="#000000" stroke-width="5" points="297.07,212.484 306.25,204 315.43,212.484 			"/>
			
				<line fill="none" stroke="#000000" stroke-width="5" stroke-dasharray="22.1063,13.2638" x1="325.17" y1="221.487" x2="424.2" y2="313.014"/>
			<polyline fill="none" stroke="#000000" stroke-width="5" points="429.07,317.516 438.25,326 438.25,338.5 			"/>
			
				<line fill="none" stroke="#000000" stroke-width="5" stroke-dasharray="23.5714,14.1429" x1="438.25" y1="352.643" x2="438.25" y2="496.429"/>
			<line fill="none" stroke="#000000" stroke-width="5" x1="438.25" y1="503.5" x2="438.25" y2="516"/>
		</g>
	</g>
	<polygon stroke="#000000" points="229.25,275.814 306.25,205.814 383.25,275.814 	"/>
	<text transform="matrix(1 0 0 1 424.082 240.8145)" font-family="sans-serif" font-size="72">S</text>
</g>
</svg>
