<?xml version="1.0" encoding="utf-8"?>
<!-- Generator: Adobe Illustrator 16.0.0, SVG Export Plug-In . SVG Version: 6.00 Build 0)  -->
<!DOCTYPE svg PUBLIC "-//W3C//DTD SVG 1.1//EN" "http://www.w3.org/Graphics/SVG/1.1/DTD/svg11.dtd">
<svg version="1.1" id="Version_1.0" xmlns="http://www.w3.org/2000/svg" xmlns:xlink="http://www.w3.org/1999/xlink" x="0px"
	 y="0px" width="612px" height="792px" viewBox="0 0 612 792" enable-background="new 0 0 612 792" xml:space="preserve">
<g id="frame">
	<g>
		<polyline fill="#FF8080" points="174.25,517 174.25,327 306.25,205 438.25,327 438.25,517 		"/>
		<g>
			<line fill="none" stroke="#000000" stroke-width="5" x1="174.25" y1="517" x2="174.25" y2="504.5"/>
			
				<line fill="none" stroke="#000000" stroke-width="5" stroke-dasharray="23.5714,14.1429" x1="174.25" y1="490.357" x2="174.25" y2="346.571"/>
			<polyline fill="none" stroke="#000000" stroke-width="5" points="174.25,339.5 174.25,327 183.43,318.516 			"/>
			
				<line fill="none" stroke="#000000" stroke-width="5" stroke-dasharray="22.1063,13.2638" x1="193.17" y1="309.513" x2="292.2" y2="217.985"/>
			<polyline fill="none" stroke="#000000" stroke-width="5" points="297.07,213.484 306.25,205 315.43,213.484 			"/>
			
				<line fill="none" stroke="#000000" stroke-width="5" stroke-dasharray="22.1063,13.2638" x1="325.17" y1="222.487" x2="424.2" y2="314.014"/>
			<polyline fill="none" stroke="#000000" stroke-width="5" points="429.07,318.516 438.25,327 438.25,339.5 			"/>
			
				<line fill="none" stroke="#000000" stroke-width="5" stroke-dasharray="23.5714,14.1429" x1="438.25" y1="353.643" x2="438.25" y2="497.429"/>
			<line fill="none" stroke="#000000" stroke-width="5" x1="438.25" y1="504.5" x2="438.25" y2="517"/>
		</g>
	</g>
	<text transform="matrix(1 0 0 1 424.082 241.8145)" font-family="sans-serif" font-size="72">S</text>
</g>
</svg>
