<?xml version="1.0" encoding="utf-8"?>
<!-- Generator: Adobe Illustrator 16.0.0, SVG Export Plug-In . SVG Version: 6.00 Build 0)  -->
<!DOCTYPE svg PUBLIC "-//W3C//DTD SVG 1.1//EN" "http://www.w3.org/Graphics/SVG/1.1/DTD/svg11.dtd">
<svg version="1.1" id="Version_1.0" xmlns="http://www.w3.org/2000/svg" xmlns:xlink="http://www.w3.org/1999/xlink" x="0px"
	 y="0px" width="612px" height="792px" viewBox="0 0 612 792" enable-background="new 0 0 612 792" xml:space="preserve">
<g id="frame">
	<polyline id="group" fill="#FF8080" stroke="#000000" stroke-width="5" stroke-linecap="square" points="306,568 479,395 306,222 
		133,395 306,568 	"/>
	<g>
		
			<rect x="453.974" y="385.085" transform="matrix(-0.7071 0.7071 -0.7071 -0.7071 1070.5847 346.0176)" width="19.308" height="19.31"/>
		
			<rect x="138.713" y="385.459" transform="matrix(-0.7071 0.7071 -0.7071 -0.7071 532.6663 569.59)" width="19.309" height="19.309"/>
		
			<rect x="296.19" y="542.898" transform="matrix(-0.7071 0.7071 -0.7071 -0.7071 912.8234 727.0016)" width="19.309" height="19.309"/>
		
			<rect x="296.509" y="226.667" transform="matrix(-0.7071 0.7071 -0.7071 -0.7071 689.7587 186.9352)" width="19.309" height="19.309"/>
	</g>
	<text transform="matrix(1 0 0 1 437.2881 269.3135)" font-family="sans-serif" font-size="72">S</text>
</g>
</svg>
