<?xml version="1.0" encoding="utf-8"?>
<!-- Generator: Adobe Illustrator 16.0.0, SVG Export Plug-In . SVG Version: 6.00 Build 0)  -->
<!DOCTYPE svg PUBLIC "-//W3C//DTD SVG 1.1//EN" "http://www.w3.org/Graphics/SVG/1.1/DTD/svg11.dtd">
<svg version="1.1" id="Version_1.0" xmlns="http://www.w3.org/2000/svg" xmlns:xlink="http://www.w3.org/1999/xlink" x="0px" y="0px"
	 width="400px" height="400px" viewBox="0 0 400 400" enable-background="new 0 0 400 400" xml:space="preserve">
<g id="main">
	<line fill="none" stroke="#C61021" stroke-width="5" x1="14" y1="188" x2="84" y2="188"/>
	<line fill="none" stroke="#0000FF" stroke-width="5" x1="114" y1="188" x2="184" y2="188"/>
	<line fill="none" stroke="#C61021" stroke-width="5" x1="214" y1="188" x2="284" y2="188"/>
	<line fill="none" stroke="#0000FF" stroke-width="5" x1="314" y1="188" x2="384" y2="188"/>
	<polyline fill="#0000FF" stroke="#0000FF" stroke-width="5" points="124,188 149,233 174,188 	"/>
	<path fill="#C61021" stroke="#C61021" stroke-width="5" d="M224,188c0-13.807,11.193-25,25-25s25,11.193,25,25"/>
	<polyline fill="#0000FF" stroke="#0000FF" stroke-width="5" points="324,188 349,233 374,188 	"/>
	<path fill="#C61021" stroke="#C61021" stroke-width="5" d="M24,188c0-13.807,11.193-25,25-25s25,11.193,25,25"/>
	<circle fill="#C61021" stroke="#C61021" stroke-width="5" cx="4" cy="188" r="2.5"/>
	<circle fill="#C61021" stroke="#C61021" stroke-width="5" cx="199" cy="188" r="2.5"/>
	<circle fill="#C61021" stroke="#C61021" stroke-width="5" cx="394" cy="188" r="2.5"/>
	<circle fill="#0000FF" stroke="#0000FF" stroke-width="5" cx="99" cy="188" r="2.5"/>
	<circle fill="#0000FF" stroke="#0000FF" stroke-width="5" cx="299" cy="188" r="2.5"/>
</g>
</svg>
