<?xml version="1.0" encoding="utf-8"?>
<!-- Generator: Adobe Illustrator 16.0.0, SVG Export Plug-In . SVG Version: 6.00 Build 0)  -->
<!DOCTYPE svg PUBLIC "-//W3C//DTD SVG 1.1//EN" "http://www.w3.org/Graphics/SVG/1.1/DTD/svg11.dtd">
<svg version="1.1" id="Version_1.0" xmlns="http://www.w3.org/2000/svg" xmlns:xlink="http://www.w3.org/1999/xlink" x="0px" y="0px"
	 width="400px" height="400px" viewBox="0 0 400 400" enable-background="new 0 0 400 400" xml:space="preserve">
<g id="main" transform="scale(140) translate(0.114286 0.0571429)">
	<polygon id="_65829736" points="0.635,0.805 2.062,0.805 2.062,0.653 0.635,0.653 	"/>
	<path id="_64553904" d="M0.803,1.098c0-0.021,0.074-0.071,0.108-0.071h0.005c0.059,0,0.16,0.163,0.271,0.163H1.22
		c0.097,0,0.202-0.163,0.266-0.163c0.062,0,0.157,0.163,0.271,0.163h0.016c0.152,0,0.188-0.078,0.277-0.125L1.955,0.95
		c-0.06,0.032-0.073,0.083-0.169,0.095C1.747,1.05,1.669,0.975,1.637,0.947C1.495,0.825,1.404,0.894,1.29,0.983
		C1.22,1.038,1.221,1.078,1.138,1.007c-0.039-0.033-0.1-0.086-0.147-0.108C0.924,0.867,0.838,0.886,0.788,0.92
		C0.76,0.938,0.657,1.012,0.657,1.043v0.933h0.146V1.098z"/>
</g>
</svg>
