<?xml version="1.0" encoding="utf-8"?>
<!-- Generator: Adobe Illustrator 16.0.0, SVG Export Plug-In . SVG Version: 6.00 Build 0)  -->
<!DOCTYPE svg PUBLIC "-//W3C//DTD SVG 1.1//EN" "http://www.w3.org/Graphics/SVG/1.1/DTD/svg11.dtd">
<svg version="1.1" id="Version_1.0" xmlns="http://www.w3.org/2000/svg" xmlns:xlink="http://www.w3.org/1999/xlink" x="0px"
	 y="0px" width="400px" height="400px" viewBox="0 0 400 400" enable-background="new 0 0 400 400" xml:space="preserve">
<g id="main">
	<g>
		<circle fill="none" stroke="#C61021" stroke-width="5" cx="200.5" cy="182" r="40"/>
		<path fill="none" stroke="#C61021" stroke-width="5" d="M337.5,45c78,78,78,196,0,274s-196,78-274,0l24-24c-62-62-62-164,0-226
			s164-62,226,0L337.5,45z"/>
		<path fill="none" stroke="#FF00FF" stroke-width="5" d="M271.5,111c39,39,39,103,0,142s-103,39-142,0l18-18c-31-31-31-75,0-106
			s75-31,106,0L271.5,111z"/>
		<line fill="none" stroke="#C61021" stroke-width="4" x1="190.5" y1="172" x2="65.5" y2="67"/>
		<text transform="matrix(1 0 0 1 4.5 72)" fill="#C61021" font-family="sans-serif" font-size="20">1012Z</text>
	</g>
	<g transform="scale(0.175 0.175) translate(940 943)">
		<path fill="#C61021" stroke="#C61021" stroke-width="5" d="M150.642,126.121C102.255,38.51,196.847-69.348,266.518-91.647
			c0,0-50.614,75.067-50.882,117.718"/>
		<path fill="#C61021" stroke="#C61021" stroke-width="5" d="M281.345,67.879c48.393,87.606-46.205,195.472-115.876,217.771
			c0,0,50.614-75.067,50.882-117.72"/>
		<circle fill="#C61021" stroke="#C61021" stroke-width="10" cx="215.993" cy="97.003" r="70"/>
	</g>
</g>
</svg>
