<?xml version="1.0" encoding="utf-8"?>
<!-- Generator: Adobe Illustrator 16.0.0, SVG Export Plug-In . SVG Version: 6.00 Build 0)  -->
<!DOCTYPE svg PUBLIC "-//W3C//DTD SVG 1.1//EN" "http://www.w3.org/Graphics/SVG/1.1/DTD/svg11.dtd">
<svg version="1.1" id="Version_1.0" xmlns="http://www.w3.org/2000/svg" xmlns:xlink="http://www.w3.org/1999/xlink" x="0px" y="0px"
	 width="400px" height="400px" viewBox="0 0 400 400" enable-background="new 0 0 400 400" xml:space="preserve">
<g id="main">
	<path fill="none" stroke="#AD694A" stroke-width="10" d="M275,70c0-20-30-30-50-30c-40,0-100,35-100,75s60,75,100,75
		c20,0,50-10,50-30s-30-30-50-30c-40,0-100,35-100,75s60,75,100,75c20,0,50-10,50-30s-30-30-50-30c-40,0-100,35-100,75s60,75,100,75
		c20,0,50-10,50-30"/>
</g>
</svg>
