<?xml version="1.0" encoding="utf-8"?>
<!-- Generator: Adobe Illustrator 16.0.0, SVG Export Plug-In . SVG Version: 6.00 Build 0)  -->
<!DOCTYPE svg PUBLIC "-//W3C//DTD SVG 1.1//EN" "http://www.w3.org/Graphics/SVG/1.1/DTD/svg11.dtd">
<svg version="1.1" id="Version_1.0" xmlns="http://www.w3.org/2000/svg" xmlns:xlink="http://www.w3.org/1999/xlink" x="0px" y="0px"
	 width="400px" height="400px" viewBox="0 0 400 400" enable-background="new 0 0 400 400" xml:space="preserve">
<g id="main">
	<g>
		<g transform="translate(-24 56)">
			<circle fill="#008000" stroke="#008000" cx="224.035" cy="-4.715" r="25"/>
			<path fill="#008000" stroke="#008000" d="M224.035,20.785c2.18,12.43-21,36-21,36c32.107,0.18,45.902-33.495,45.857-58.43"/>
		</g>
		<g transform="translate(-24 56)">
			<circle fill="#008000" stroke="#008000" cx="224.035" cy="256.215" r="25"/>
			<path fill="#008000" stroke="#008000" d="M224.035,281.715c2.18,12.43-21,36-21,36c32.107,0.18,45.902-33.494,45.857-58.43"/>
		</g>
		<g transform="translate(-24 56)">
			<circle fill="#008000" stroke="#008000" cx="336.035" cy="125.232" r="25"/>
			<path fill="#008000" stroke="#008000" d="M336.035,150.732c2.18,12.43-21,36-21,36c32.106,0.18,45.902-33.494,45.856-58.431"/>
		</g>
	</g>
	<g transform="translate(-24 56)">
		<circle fill="#008000" stroke="#008000" cx="111.964" cy="125.232" r="25"/>
		<path fill="#008000" stroke="#008000" d="M111.964,150.732c2.18,12.43-21,36-21,36c32.107,0.18,45.902-33.494,45.857-58.431"/>
	</g>
</g>
</svg>
