<?xml version="1.0" encoding="utf-8"?>
<!-- Generator: Adobe Illustrator 16.0.0, SVG Export Plug-In . SVG Version: 6.00 Build 0)  -->
<!DOCTYPE svg PUBLIC "-//W3C//DTD SVG 1.1//EN" "http://www.w3.org/Graphics/SVG/1.1/DTD/svg11.dtd">
<svg version="1.1" id="Version_1.0" xmlns="http://www.w3.org/2000/svg" xmlns:xlink="http://www.w3.org/1999/xlink" x="0px" y="0px"
	 width="400px" height="400px" viewBox="0 0 400 400" enable-background="new 0 0 400 400" xml:space="preserve">
<g id="main">
	<g transform="translate(-96 -6)">
		<g transform="translate(-24 56)">
			<circle fill="#C61021" stroke="#C61021" cx="207.964" cy="131.75" r="25"/>
			<path fill="#C61021" stroke="#C61021" d="M207.964,157.25c2.18,12.43-21,36-21,36c32.107,0.18,45.902-33.494,45.857-58.43"/>
		</g>
	</g>
	<g transform="translate(-24 56)">
		<circle fill="#C61021" stroke="#C61021" cx="328.964" cy="125.75" r="25"/>
		<path fill="#C61021" stroke="#C61021" d="M328.964,151.25c2.18,12.43-21,36-21,36c32.107,0.18,45.902-33.494,45.857-58.43"/>
	</g>
	<g>
		<path fill="none" stroke="#C61021" stroke-width="10" d="M40.035,273.23c-17-15-30-40-30-67c0-50,40-90,90-90s80,40,100,90
			c20,50,50,90,100,90s90-40,90-90c0-27-13-52-30-67"/>
	</g>
</g>
</svg>
