<?xml version="1.0" encoding="utf-8"?>
<!-- Generator: Adobe Illustrator 16.0.0, SVG Export Plug-In . SVG Version: 6.00 Build 0)  -->
<!DOCTYPE svg PUBLIC "-//W3C//DTD SVG 1.1//EN" "http://www.w3.org/Graphics/SVG/1.1/DTD/svg11.dtd">
<svg version="1.1" id="Version_1.0" xmlns="http://www.w3.org/2000/svg" xmlns:xlink="http://www.w3.org/1999/xlink" x="0px" y="0px"
	 width="400px" height="400px" viewBox="0 0 400 400" enable-background="new 0 0 400 400" xml:space="preserve">
<g id="main">
	<g transform="matrix(1.7 0 0 1.7 -145.1 -83.9)">
		<circle fill="#0000FF" stroke="#0000FF" cx="199.412" cy="99.412" r="6"/>
		<circle fill="#0000FF" stroke="#0000FF" cx="131.412" cy="226.412" r="6"/>
		<circle fill="#0000FF" stroke="#0000FF" cx="117.412" cy="212.412" r="6"/>
		<circle fill="#0000FF" stroke="#0000FF" cx="115.412" cy="191.412" r="6"/>
		<circle fill="#0000FF" stroke="#0000FF" cx="118.412" cy="169.412" r="6"/>
		<circle fill="#0000FF" stroke="#0000FF" cx="122.412" cy="148.412" r="6"/>
		<circle fill="#0000FF" stroke="#0000FF" cx="133.412" cy="127.412" r="6"/>
		<circle fill="#0000FF" stroke="#0000FF" cx="150.412" cy="109.412" r="6"/>
		<circle fill="#0000FF" stroke="#0000FF" cx="174.412" cy="99.412" r="6"/>
		<circle fill="#0000FF" stroke="#0000FF" cx="155.412" cy="230.412" r="6"/>
		<circle fill="#0000FF" stroke="#0000FF" cx="178.412" cy="233.412" r="6"/>
		<circle fill="#0000FF" stroke="#0000FF" cx="203.412" cy="233.412" r="6"/>
		<circle fill="#0000FF" stroke="#0000FF" cx="227.412" cy="232.412" r="6"/>
		<circle fill="#0000FF" stroke="#0000FF" cx="252.412" cy="230.412" r="6"/>
		<circle fill="#0000FF" stroke="#0000FF" cx="274.412" cy="216.412" r="6"/>
		<circle fill="#0000FF" stroke="#0000FF" cx="289.412" cy="196.412" r="6"/>
		<circle fill="#0000FF" stroke="#0000FF" cx="289.412" cy="172.412" r="6"/>
		<circle fill="#0000FF" stroke="#0000FF" cx="276.412" cy="152.412" r="6"/>
		<circle fill="#0000FF" stroke="#0000FF" cx="253.412" cy="144.412" r="6"/>
		<circle fill="#0000FF" stroke="#0000FF" cx="234.412" cy="130.412" r="6"/>
		<circle fill="#0000FF" stroke="#0000FF" cx="220.412" cy="111.412" r="6"/>
	</g>
</g>
</svg>
