<?xml version="1.0" encoding="utf-8"?>
<!-- Generator: Adobe Illustrator 16.0.0, SVG Export Plug-In . SVG Version: 6.00 Build 0)  -->
<!DOCTYPE svg PUBLIC "-//W3C//DTD SVG 1.1//EN" "http://www.w3.org/Graphics/SVG/1.1/DTD/svg11.dtd">
<svg version="1.1" id="Version_1.0" xmlns="http://www.w3.org/2000/svg" xmlns:xlink="http://www.w3.org/1999/xlink" x="0px" y="0px"
	 width="400px" height="400px" viewBox="0 0 400 400" enable-background="new 0 0 400 400" xml:space="preserve">
<g id="main">
	<path fill="none" stroke="#BD9A38" stroke-width="10" stroke-dasharray="50,10" d="M92.5,88.5c17.488-14.103,64.342-15.611,147-12
		s112,17.5,115,55c2.569,32.114-70.932,44.419-79,74c-8.492,31.137-0.738,64.164-35,84c-20.34,11.775-105.21,40.316-164,6
		c-22.375-13.061-27.605-100.977-31-127c-3.056-23.428-0.21-41.927,16-55L92.5,88.5z"/>
	<line fill="none" stroke="#BD9A38" stroke-width="5" x1="111" y1="309" x2="119" y2="281"/>
	<line fill="none" stroke="#BD9A38" stroke-width="5" x1="67" y1="281" x2="89" y2="271"/>
	<line fill="none" stroke="#BD9A38" stroke-width="5" x1="51" y1="223" x2="75" y2="219"/>
	<line fill="none" stroke="#BD9A38" stroke-width="5" x1="43" y1="165" x2="69" y2="165"/>
	<line fill="none" stroke="#BD9A38" stroke-width="5" x1="65" y1="109" x2="83" y2="127"/>
	<line fill="none" stroke="#BD9A38" stroke-width="5" x1="115" y1="81" x2="121" y2="109"/>
	<line fill="none" stroke="#BD9A38" stroke-width="5" x1="175" y1="77" x2="173" y2="105"/>
	<line fill="none" stroke="#BD9A38" stroke-width="5" x1="233" y1="77" x2="231" y2="109"/>
	<line fill="none" stroke="#BD9A38" stroke-width="5" x1="295" y1="83" x2="285" y2="111"/>
	<line fill="none" stroke="#BD9A38" stroke-width="5" x1="347" y1="109" x2="325" y2="121"/>
	<line fill="none" stroke="#BD9A38" stroke-width="5" x1="335" y1="159" x2="319" y2="141"/>
	<line fill="none" stroke="#BD9A38" stroke-width="5" x1="283" y1="191" x2="263" y2="175"/>
	<line fill="none" stroke="#BD9A38" stroke-width="5" x1="267" y1="245" x2="243" y2="239"/>
	<line fill="none" stroke="#BD9A38" stroke-width="5" x1="231" y1="291" x2="221" y2="271"/>
	<line fill="none" stroke="#BD9A38" stroke-width="5" x1="177" y1="309" x2="171" y2="281"/>
</g>
</svg>
