<?xml version="1.0" encoding="utf-8"?>
<!-- Generator: Adobe Illustrator 16.0.0, SVG Export Plug-In . SVG Version: 6.00 Build 0)  -->
<!DOCTYPE svg PUBLIC "-//W3C//DTD SVG 1.1//EN" "http://www.w3.org/Graphics/SVG/1.1/DTD/svg11.dtd">
<svg version="1.1" id="Version_1.0" xmlns="http://www.w3.org/2000/svg" xmlns:xlink="http://www.w3.org/1999/xlink" x="0px"
	 y="0px" width="612px" height="792px" viewBox="0 0 612 792" enable-background="new 0 0 612 792" xml:space="preserve">
<g id="octagon" display="none">
	
		<line id="mod2_1_" display="inline" fill="none" stroke="#0000FF" stroke-width="2" x1="203.966" y1="445.015" x2="406.199" y2="445.295"/>
	
		<line id="mod1_1_" display="inline" fill="none" stroke="#0000FF" stroke-width="2" x1="203.966" y1="346.985" x2="406.199" y2="346.705"/>
	<g id="outFrame" display="inline">
		<line fill="none" stroke="#0000FF" stroke-width="2" x1="220" y1="309.5" x2="306" y2="273"/>
		<line fill="none" stroke="#0000FF" stroke-width="2" x1="306" y1="273" x2="390.5" y2="309.5"/>
		<line fill="none" stroke="#0000FF" stroke-width="2" x1="390.5" y1="309.5" x2="427" y2="396"/>
		<line fill="none" stroke="#0000FF" stroke-width="2" x1="427" y1="396" x2="390.5" y2="482.5"/>
		<line fill="none" stroke="#0000FF" stroke-width="2" x1="390.5" y1="482.5" x2="306" y2="516"/>
		<line fill="none" stroke="#0000FF" stroke-width="2" x1="306" y1="516" x2="220" y2="482.5"/>
		<line fill="none" stroke="#0000FF" stroke-width="2" x1="220" y1="482.5" x2="183" y2="396"/>
		<line fill="none" stroke="#0000FF" stroke-width="2" x1="183" y1="396" x2="220" y2="309.5"/>
	</g>
</g>
<g id="main">
	<path fill="none" stroke="#000000" stroke-width="5" d="M210.368,471.004"/>
	<path fill="none" stroke="#000000" stroke-width="5" d="M170.884,471.004"/>
	<path fill="none" stroke="#000000" stroke-width="5" d="M250.087,470.191c0,11.594-8.838,20.99-19.742,20.99
		c-3.238,0-6.294-0.829-8.991-2.299"/>
	<path fill="none" stroke="#000000" stroke-width="5" d="M250.087,471.004c0-11.592,8.839-20.989,19.743-20.989
		c10.903,0,19.741,9.397,19.741,20.989"/>
	<path fill="none" stroke="#000000" stroke-width="5" d="M329.054,470.191c0,11.594-8.839,20.99-19.741,20.99
		c-10.904,0-19.743-9.396-19.743-20.99"/>
	<path fill="none" stroke="#000000" stroke-width="5" d="M329.054,471.004c0-11.592,8.837-20.989,19.743-20.989
		c10.903,0,19.742,9.397,19.742,20.989"/>
	<path fill="none" stroke="#000000" stroke-width="5" d="M390.446,491.056c-0.712,0.083-1.436,0.126-2.168,0.126
		c-10.903,0-19.742-9.396-19.742-20.99"/>
</g>
</svg>
