<?xml version="1.0" encoding="utf-8"?>
<!-- Generator: Adobe Illustrator 16.0.0, SVG Export Plug-In . SVG Version: 6.00 Build 0)  -->
<!DOCTYPE svg PUBLIC "-//W3C//DTD SVG 1.1//EN" "http://www.w3.org/Graphics/SVG/1.1/DTD/svg11.dtd">
<svg version="1.1" id="Version_1.0" xmlns="http://www.w3.org/2000/svg" xmlns:xlink="http://www.w3.org/1999/xlink" x="0px" y="0px"
	 width="612px" height="792px" viewBox="0 0 612 792" enable-background="new 0 0 612 792" xml:space="preserve">
<g id="octagon" display="none">
	<g id="outFrame" display="inline">
		<line fill="none" stroke="#0000FF" stroke-width="2" x1="220" y1="309.5" x2="306" y2="273"/>
		<line fill="none" stroke="#0000FF" stroke-width="2" x1="306" y1="273" x2="390.5" y2="309.5"/>
		<line fill="none" stroke="#0000FF" stroke-width="2" x1="390.5" y1="309.5" x2="427" y2="396"/>
		<line fill="none" stroke="#0000FF" stroke-width="2" x1="427" y1="396" x2="390.5" y2="482.5"/>
		<line fill="none" stroke="#0000FF" stroke-width="2" x1="390.5" y1="482.5" x2="306" y2="516"/>
		<line fill="none" stroke="#0000FF" stroke-width="2" x1="306" y1="516" x2="220" y2="482.5"/>
		<line fill="none" stroke="#0000FF" stroke-width="2" x1="220" y1="482.5" x2="183" y2="396"/>
		<line fill="none" stroke="#0000FF" stroke-width="2" x1="183" y1="396" x2="220" y2="309.5"/>
	</g>
	
		<line id="mod2_1_" display="inline" fill="none" stroke="#0000FF" stroke-width="2" x1="203.966" y1="445.015" x2="406.199" y2="445.295"/>
	
		<line id="mod1_1_" display="inline" fill="none" stroke="#0000FF" stroke-width="2" x1="203.966" y1="346.985" x2="406.199" y2="346.705"/>
</g>
<g id="main">
	<text transform="matrix(1 0 0 1 279.5 342.8398)" font-family="sans-serif" font-size="80">?</text>
	<path id="_65081736" fill="#FFFFFF" d="M267.9,376.7v1c0,0.7,1.8,2.2,2.4,2.2h0.5c2.1,0,2.4-2.1,3.2-3.1c0.6-0.7,2.7-2.4,3.6-3
		l-4.2-3.5c-0.2,0.8-1.8,2.6-2.4,3.5C270.3,374.9,267.9,375.5,267.9,376.7z"/>
	<path id="_65428032" d="M342.7,376.5c2.899,0.7,5.8,6,5.8,9.6v1.9c0,2.3-1.7,6.5-3.6,6.5h-0.7c-2.8,0-5.3-7-5.3-10.3v-1
		c0-1.7,0.6-2.9,1-4.3h0.5c0.1,0.6,1.8,3.1,2.3,3.1c1.1,0,1.7-0.6,1.7-1.7v-1C344.4,379,343,377,342.7,376.5z M334.1,363.8
		c-1-0.7-1.6-2.7-3.1-2.7c-0.7,0-1.4,1-1.4,1.9c0,0.3,1.2,1.9,1.4,2.4c-0.8,0.1-0.9,0.3-1.7,0.3h-0.7c-3.399,0-10.199-2.7-10.8-5
		h4.101c1.1,0,2.1-0.7,2.1-2c0-2.3-3.2-1.9-5.5-1.9c2.5-2.1,7.6-1.4,10.3,0C331.9,358.4,335.1,359.7,334.1,363.8z M290.9,365.7
		c0-5.9,10.8-13.5,13.9-8.9c-2.3,0-4.8-0.4-4.8,1.9c0,1.7,0.9,1.9,2.6,1.9h1.7c-1,4.1-6.2,8.9-11.5,8.9c-0.9,0-1.9-1.3-1.9-2.4
		V365.7L290.9,365.7z M288,367.6c0,2.3,2.3,4,4.5,4.3c2.5,0.4,4.7-0.6,6.6-1.6c2.7-1.4,7.6-6.1,7.9-9.6h7.2c0.399,0,2.1,2.4,2.7,3.1
		c1.1,1,1.699,1.5,3.199,2.2c1.4,0.7,6.9,2.6,9,2.3l3.601-0.4l5.8,8.3c-1.2,1.8-2.2,3.9-2.2,7v2.6c0,3.6,3.7,11,7.4,11h1.2
		c3.8,0,6-5,6-8.9v-1.6c0-2.8-1.5-6.7-2.601-8.5c-2.1-3.3-2.8-3.5-7-3.5c-0.2,0-5.2-7.4-5.8-8.2c0.6-0.7,1.7-1.8,1.7-3.1
		c0-3.5-2.4-5.7-4.601-7.2c-1.6-0.9-6.3-2.8-8.8-2.8h-2.2c-2.899,0-6.399,1.6-7,3.8H307.2c-0.5-2.1-2.2-4.1-4.8-4.1H301
		c-4.8,0-13,8.2-13,13V367.6z"/>
	<path id="_65789088" fill="#FFFFFF" d="M354.3,405.3l0.4,7.7c0.1,2,1.399,1.8,2.6,2.4c1.2-0.601,2.7-1.101,2.7-2.7
		c0-1.101-0.3-1.5-0.8-2.2l0.8-5.5L354.3,405.3z"/>
	<path id="_66342352" d="M324.7,443.4c0-7.2,4.399-14,8.7-16.9c6.3-4.2,10.699-4.7,20.8-4.7c1,0,6.3,2.3,7.5,2.8
		c1.8,0.801,4.7,3,5.899,4.4c1.601,2.1,3.2,3.4,4.4,6c1,2.2,1.9,5.3,1.9,8.4v3.1c0,6.8-3,10.4-6,14.2c-3.101,4.2-8.301,5-12.9,7.2
		c-1-1.4-2.9-1.9-5.3-1.9h-1c-2.2,0-3.3,1.3-4.601,2.2c-11.699-1-19.399-10.9-19.399-24V443.4z M360,405l-0.8,5.6
		c0.5,0.601,0.8,1,0.8,2.101c0,1.6-1.6,2.1-2.6,2.6c-1.301-0.5-2.5-0.3-2.7-2.3l-0.4-7.7L360,405z M323.6,422.6
		c-0.899,1.2-2.399,2.801-3.5,4.2c-0.699,1-2.1,3.7-2.699,5c-1.4,3.4-2.2,8.4-2.2,13.101c0,10.3,3.3,16.5,8.2,22
		c2.399,2.699,5.199,4.899,8.6,6.5c2.1,1,8.5,3.8,11.3,3.8c1.7,3.3,5.9,5.3,10,3.2c1.7-0.9,3.3-3.301,4.101-3.601
		c2.1-0.6,3.6-1,5.6-1.8c8.2-3.2,12-6.9,16.4-13.8c3.8-6,4.699-16.601,2.8-25.3c-1-4.601-2.7-6.9-4.9-10.2c-1.1-1.7-5.8-6.7-7.7-7.2
		l-0.5-13.9c-2.6-1.3-7.399-3.199-10.199-4.1c-0.301-0.1-11.5,0.4-13.5,0.5c-4.2,0.2-9.801,0.2-13,1.4c-2.9,1.1-7.101,3.1-9.7,4.6
		L323.6,422.6z"/>
	<path id="_66285896" d="M267.9,376.7c0-1.3,2.4-1.9,3.1-2.9c0.6-0.9,2.2-2.7,2.4-3.6l4.2,3.5c-0.9,0.6-3,2.3-3.6,3
		c-0.8,1-1.1,3.1-3.2,3.1h-0.5c-0.6,0-2.4-1.5-2.4-2.2V376.7z M232.9,407c0-11.7,11.4-23.3,23-23.3h2.1c8.4,0,12.7,5.8,17.2,9.9
		c2.4,2.2,4.7,4.2,7,6.5c1.7,1.7,5.2,5.2,7,6.4c1.3-2,11-11,11-12.2c0-0.7-4.5-10.7-5.1-11.2c-2.7-2.8-5.6-5.3-8.3-8
		c-2.6-2.5-5.7-5.6-8.5-7.8c-1.8-1.3-8.9-3.4-11.4-4.7l-11.2,11.8c-9.7-0.1-16.7,4.5-21.6,9.4c-4.3,4.3-10.4,12.2-10.4,20.5v2.9
		c0,3.899,1.3,8.5,2.4,11.5c0.6,1.6,1.4,3.2,2.2,4.7c1.4,2.5,1.5,1.699,1.3,4.8c-0.2,3.3,0.8,1.6-1.2,4.8c-0.8,1.4-1.7,3.2-2.3,4.6
		c-1.1,2.601-2.6,7.7-2.6,11.101v3.1c0,13.7,14.7,29.2,27.4,30.2l-1.3,3.7l9.6-2.601v4.301l8.3-5.601l1.1,3.2l6-7.3l2.1,2.5l0.3-0.3
		c0.1-1,1.5-4.101,2-5.2c0.7-1.9,0.2-0.9,1.6-2c0.4-0.5,1-1.5,1-2.4c0-2-2.7-4.8-4.7-5.2c-2-0.399-4.7,2.2-6.2,3.101
		c-3.6,2.3-8.9,4.8-14.6,4.8h-0.7c-11.1,0-22.3-11.1-22.3-22.3v-1c0-5.4,2.4-9.9,4.3-13.4c9.9,0,10.9-15.6-0.2-15.6
		c-2-3.101-4.3-7.9-4.3-13V407z"/>
</g>
</svg>
