<?xml version="1.0" encoding="utf-8"?>
<!-- Generator: Adobe Illustrator 16.0.0, SVG Export Plug-In . SVG Version: 6.00 Build 0)  -->
<!DOCTYPE svg PUBLIC "-//W3C//DTD SVG 1.1//EN" "http://www.w3.org/Graphics/SVG/1.1/DTD/svg11.dtd">
<svg version="1.1" id="Version_1.0" xmlns="http://www.w3.org/2000/svg" xmlns:xlink="http://www.w3.org/1999/xlink" x="0px" y="0px"
	 width="612px" height="792px" viewBox="0 0 612 792" enable-background="new 0 0 612 792" xml:space="preserve">
<g id="octagon" display="none">
	<g id="outFrame" display="inline">
		<line fill="none" stroke="#0000FF" stroke-width="2" x1="220" y1="309.5" x2="306" y2="273"/>
		<line fill="none" stroke="#0000FF" stroke-width="2" x1="306" y1="273" x2="390.5" y2="309.5"/>
		<line fill="none" stroke="#0000FF" stroke-width="2" x1="390.5" y1="309.5" x2="427" y2="396"/>
		<line fill="none" stroke="#0000FF" stroke-width="2" x1="427" y1="396" x2="390.5" y2="482.5"/>
		<line fill="none" stroke="#0000FF" stroke-width="2" x1="390.5" y1="482.5" x2="306" y2="516"/>
		<line fill="none" stroke="#0000FF" stroke-width="2" x1="306" y1="516" x2="220" y2="482.5"/>
		<line fill="none" stroke="#0000FF" stroke-width="2" x1="220" y1="482.5" x2="183" y2="396"/>
		<line fill="none" stroke="#0000FF" stroke-width="2" x1="183" y1="396" x2="220" y2="309.5"/>
	</g>
	
		<line id="mod2_1_" display="inline" fill="none" stroke="#0000FF" stroke-width="2" x1="203.966" y1="445.015" x2="406.199" y2="445.295"/>
	
		<line id="mod1_1_" display="inline" fill="none" stroke="#0000FF" stroke-width="2" x1="203.966" y1="346.985" x2="406.199" y2="346.705"/>
</g>
<g id="main">
	<path d="M298.9,381.5c0-9.7,7.8-18.6,7.8-25v-0.8c0-2.5-0.101-7.3-2.1-7.8c-2,8.6-6.7,15.3-11.3,21.4c-2.4,3.1-4.6,6.3-6.9,9.5
		c-2,2.6-6,6.7-6,10.6c0,2.8,11.7,34,5.8,34c-0.2,0-7.2-4.801-8.1-5.5c-2.7-2-4.5-4.4-6.4-7.101c-5.9-8.899-4.7-8.5-7.3-19.8
		c-2.9,0.7-4.9,9.5-5.6,13.2c-0.8,4.6-0.5,12.8,0.5,17.3c1.2,5.4,2.6,9.6,4.8,14c1.2,2.3,5.9,10.5,6,12.5c-4.1-1-13.5-8.9-16.5-11.8
		c-2.8-3-10.5-15.9-11.3-16.5c0,18.899,9.6,43.7,18.7,53c5.9,5.899,12.1,12.2,19.5,16.6c4.7,2.8,20.1,8.3,27.4,8.3h4.5
		c5.399,0,20.699-5.8,24.699-8.1c6.5-3.6,13.2-9,17.301-15.1c8.3-12.601,15.3-28.801,15.3-49.4v-2.5l-0.8-11
		c-1.4,0.6-4.301,8.3-4.801,9.9c-1,2.5-3.899,6.5-5.5,8.899c-2.699,4.101-10,12-15,13.2v-2.1c0-8.4,5.301-16.9,5.301-23.801V413.9
		l-2.601-23.3h-1.2c-0.6,7.4-3.1,15.1-6.399,20.1c-2.601,3.8-10.2,10.7-14.8,11.8c-0.5-0.8-0.9-1.2-0.9-2.5v-4.4
		c0-9.699,5.8-17,5.8-24.6v-1.6c0-2.9-4-7.4-5.6-10c-1.3-2.1-4.601-8.3-6.8-8.8v2.4c0,11.8-2.601,20.3-10.7,24.2
		c-2-3.2-6.8-6.1-6.8-12V381.5L298.9,381.5z"/>
	<text transform="matrix(1 0 0 1 242.2739 341.8848)" font-family="sans-serif" font-size="60">ASN</text>
</g>
</svg>
