<?xml version="1.0" encoding="utf-8"?>
<!-- Generator: Adobe Illustrator 16.0.0, SVG Export Plug-In . SVG Version: 6.00 Build 0)  -->
<!DOCTYPE svg PUBLIC "-//W3C//DTD SVG 1.1//EN" "http://www.w3.org/Graphics/SVG/1.1/DTD/svg11.dtd">
<svg version="1.1" id="Version_1.0" xmlns="http://www.w3.org/2000/svg" xmlns:xlink="http://www.w3.org/1999/xlink" x="0px" y="0px"
	 width="612px" height="792px" viewBox="0 0 612 792" enable-background="new 0 0 612 792" xml:space="preserve">
<g id="octagon" display="none">
	<g id="outFrame" display="inline">
		<line fill="none" stroke="#0000FF" stroke-width="2" x1="220" y1="309.5" x2="306" y2="273"/>
		<line fill="none" stroke="#0000FF" stroke-width="2" x1="306" y1="273" x2="390.5" y2="309.5"/>
		<line fill="none" stroke="#0000FF" stroke-width="2" x1="390.5" y1="309.5" x2="427" y2="396"/>
		<line fill="none" stroke="#0000FF" stroke-width="2" x1="427" y1="396" x2="390.5" y2="482.5"/>
		<line fill="none" stroke="#0000FF" stroke-width="2" x1="390.5" y1="482.5" x2="306" y2="516"/>
		<line fill="none" stroke="#0000FF" stroke-width="2" x1="306" y1="516" x2="220" y2="482.5"/>
		<line fill="none" stroke="#0000FF" stroke-width="2" x1="220" y1="482.5" x2="183" y2="396"/>
		<line fill="none" stroke="#0000FF" stroke-width="2" x1="183" y1="396" x2="220" y2="309.5"/>
	</g>
	
		<line id="bottom" display="inline" fill="none" stroke="#0000FF" stroke-width="2" x1="203.966" y1="445.015" x2="406.199" y2="445.295"/>
	
		<line id="top" display="inline" fill="none" stroke="#0000FF" stroke-width="2" x1="203.966" y1="346.985" x2="406.199" y2="346.705"/>
</g>
<g id="main">
	<path id="_94720800" d="M366.9,348.8l27.899,77h-56.3L366.9,348.8z M245,348.9l27.9,77l-55.6-0.2L245,348.9z M246.5,340.4h-2v-0.5
		L246.5,340.4z M246.5,340.4l7.6,1.2l1.6-0.2l23.8-3.4l2.6,0.3c7.9,0,8.2,9.1,10.2,9.1h7.1v116.4H272v5.601h-11.2v6.1h-9.2v9.7
		h108.8V475.1h-9.7v-5.6h-11.2v-5.6h-28.4V347.5h8.101c2.399,0,1.5-9.1,11.2-9.1h1.5l23.399,3l2.5,0.1l7.601-0.9
		c-2.7,5.7-5.601,15.4-8,21.7c-2.801,7.5-5,14.7-7.9,22.1c-2.9,7.5-5.2,14.6-8,22c-1.2,3.3-2.8,7.399-3.9,10.8
		c-0.699,2.1-1.399,3.7-2,5.6c-0.899,3-0.3,3-4.1,3c5.1,7.601,19.2,17.3,32,17.3h6.1c12.9,0,27.5-9.699,32.5-17.3h-2.6L367.8,340
		c2.4-0.3,6.8-2.1,6.8-4.1s-3.6,0.5-6.1,0.5h-1c-13.1,0-23.1-10.7-36.6-10.7h-3c-7,0-13,3.3-16.801,6.6c-1.899-0.9-3.1-0.6-3.1-3.6
		c0-1,2.6-8.2,3-9.1l-4.7-14.7l-0.8-0.1c-0.2,2.3-2.8,9.7-3.6,12.2c-2,6,1.6,6.3,1.6,11.8v1.5c0,1.8-1.1,1.3-2.5,2
		c-4-3.4-9.7-6.6-16.8-6.6h-3c-13.8,0-23.6,10.7-36.6,10.7H243c-3.9,0-5.8-3.5-6.1,0.5l6.9,3.4c-5.9,12.3-10.3,29.7-15.9,43.5
		c-3,7.3-5.2,14.5-8.1,21.9c-1.5,3.8-2.4,7.1-3.9,10.8c-1.2,3-1.6,9.2-5.4,9.3c5.1,7.601,18.5,17.3,31,17.3h6.6
		c13.3,0,26.7-9.3,32-17.3H277L246.5,340.4L246.5,340.4z"/>
</g>
</svg>
