<?xml version="1.0" encoding="utf-8"?>
<!-- Generator: Adobe Illustrator 16.0.0, SVG Export Plug-In . SVG Version: 6.00 Build 0)  -->
<!DOCTYPE svg PUBLIC "-//W3C//DTD SVG 1.1//EN" "http://www.w3.org/Graphics/SVG/1.1/DTD/svg11.dtd">
<svg version="1.1" id="Version_1.0" xmlns="http://www.w3.org/2000/svg" xmlns:xlink="http://www.w3.org/1999/xlink" x="0px" y="0px"
	 width="612px" height="792px" viewBox="0 0 612 792" enable-background="new 0 0 612 792" xml:space="preserve">
<g id="octagon" display="none">
	<g id="outFrame" display="inline">
		<line fill="none" stroke="#0000FF" stroke-width="2" x1="220" y1="309.5" x2="306" y2="273"/>
		<line fill="none" stroke="#0000FF" stroke-width="2" x1="306" y1="273" x2="390.5" y2="309.5"/>
		<line fill="none" stroke="#0000FF" stroke-width="2" x1="390.5" y1="309.5" x2="427" y2="396"/>
		<line fill="none" stroke="#0000FF" stroke-width="2" x1="427" y1="396" x2="390.5" y2="482.5"/>
		<line fill="none" stroke="#0000FF" stroke-width="2" x1="390.5" y1="482.5" x2="306" y2="516"/>
		<line fill="none" stroke="#0000FF" stroke-width="2" x1="306" y1="516" x2="220" y2="482.5"/>
		<line fill="none" stroke="#0000FF" stroke-width="2" x1="220" y1="482.5" x2="183" y2="396"/>
		<line fill="none" stroke="#0000FF" stroke-width="2" x1="183" y1="396" x2="220" y2="309.5"/>
	</g>
	
		<line id="mod2_1_" display="inline" fill="none" stroke="#0000FF" stroke-width="2" x1="203.966" y1="445.015" x2="406.199" y2="445.295"/>
	
		<line id="mod1_1_" display="inline" fill="none" stroke="#0000FF" stroke-width="2" x1="203.966" y1="346.985" x2="406.199" y2="346.705"/>
</g>
<g id="main">
	<polygon id="_90216200" points="226.8,354.2 384,354.5 305.5,316.4 	"/>
	<polygon id="_90684368" points="269,416.8 292.8,416.8 292.8,440.6 318.1,440.6 318.1,416.8 342,416.8 342,390.9 318.1,390.9 
		318.1,366.6 292.8,366.6 292.8,390.9 269,390.9 	"/>
	<polygon id="_90735616" points="235.5,370.2 238.6,370.2 238.6,439.6 235.5,439.6 235.5,449.2 253.8,449.2 253.8,439.6 
		250.2,439.6 250.2,370.2 253.8,370.2 253.8,361 235.5,361 	"/>
	<polygon id="_95177896" points="357.2,370.2 360.2,370.2 360.2,439.6 357.2,439.6 357.2,449.2 375.4,449.2 375.4,439.6 
		371.9,439.6 371.9,370.2 375.4,370.2 375.4,361 357.2,361 	"/>
	<polygon id="_98888752" points="231,459.9 379.5,459.9 379.5,452.3 231,452.3 	"/>
	<polygon id="_98662552" points="226.4,474.6 384.5,474.6 384.5,467.5 226.4,467.5 	"/>
</g>
</svg>
