<?xml version="1.0" encoding="utf-8"?>
<!-- Generator: Adobe Illustrator 16.0.0, SVG Export Plug-In . SVG Version: 6.00 Build 0)  -->
<!DOCTYPE svg PUBLIC "-//W3C//DTD SVG 1.1//EN" "http://www.w3.org/Graphics/SVG/1.1/DTD/svg11.dtd">
<svg version="1.1" id="Version_1.0" xmlns="http://www.w3.org/2000/svg" xmlns:xlink="http://www.w3.org/1999/xlink" x="0px" y="0px"
	 width="612px" height="792px" viewBox="0 0 612 792" enable-background="new 0 0 612 792" xml:space="preserve">
<g id="octagon" display="none">
	<g id="outFrame" display="inline">
		<line fill="none" stroke="#0000FF" stroke-width="2" x1="220" y1="309.5" x2="306" y2="273"/>
		<line fill="none" stroke="#0000FF" stroke-width="2" x1="306" y1="273" x2="390.5" y2="309.5"/>
		<line fill="none" stroke="#0000FF" stroke-width="2" x1="390.5" y1="309.5" x2="427" y2="396"/>
		<line fill="none" stroke="#0000FF" stroke-width="2" x1="427" y1="396" x2="390.5" y2="482.5"/>
		<line fill="none" stroke="#0000FF" stroke-width="2" x1="390.5" y1="482.5" x2="306" y2="516"/>
		<line fill="none" stroke="#0000FF" stroke-width="2" x1="306" y1="516" x2="220" y2="482.5"/>
		<line fill="none" stroke="#0000FF" stroke-width="2" x1="220" y1="482.5" x2="183" y2="396"/>
		<line fill="none" stroke="#0000FF" stroke-width="2" x1="183" y1="396" x2="220" y2="309.5"/>
	</g>
	
		<line id="mod2_1_" display="inline" fill="none" stroke="#0000FF" stroke-width="2" x1="203.966" y1="445.015" x2="406.199" y2="445.295"/>
	
		<line id="mod1_1_" display="inline" fill="none" stroke="#0000FF" stroke-width="2" x1="203.966" y1="346.985" x2="406.199" y2="346.705"/>
</g>
<g id="main">
	<polygon id="_116065592" points="254.9,345.8 266.5,345.8 266.5,341.6 254.9,341.6 	"/>
	<polygon id="_116412880" points="254.9,356.9 266.5,356.9 266.5,352.1 254.9,352.1 	"/>
	<path id="_65604072" d="M278.7,329.4V369h-5.3v-39.6l1.6-0.2L278.7,329.4z M252.8,335.2h16.4v27.4h-16.4V335.2z M345.7,337.9
		c0-1.2,0.399-1.6,1.6-1.6h3.7c1.2,0,1.6,0.4,1.6,1.6v22.7H345.7V337.9z M283.4,334.7l57,5.9v16.2l-57,4.7V334.7z M215.9,364.2h32.2
		v2.6l20.7,0.2l3.1,6l4.1,0.7c1.4,0.3,2.6-0.5,4.6-0.7l2.3-1.4l0.5-6l57-4c3,6.2,10.399,4,16.399,2.6c0.101-1.7,0.5-1.9,0.5-3.7
		v-23.7c0-3.8-2-5.3-5.8-5.3h-5.3c-9.5,0,0.399,6.3-12.5,4c-5.3-1-11.601-1-16.7-1.8c-8.2-1.2-26-3.3-33.7-3.3
		c-0.2-7.8-14-8.3-14.2,1.1h-21v1.6h-32.4L215.9,364.2L215.9,364.2z"/>
	<path id="_66048696" d="M347.8,446.1c0,5.9,4.4,11.101,9.5,11.101c1.8,0,3.8-1.601,4.2-3.2c-4-1.1-8-6.3-8.4-11.1L347.8,446.1z"/>
	<path id="_116531984" d="M338.8,438.1c0-7.199,11.101-23.199,14.4-29.399c6.899-12.4,7.8-17,11.399-32.4
		c5.301,3.5,5.5,10.8,7.601,17.7c2.1,6.9,4,12,7.2,17.6c5.399,9.4,16.8,20,12.5,35.2c-4.101,14.5-13,19.4-30.4,18.8
		C347.1,465.1,338.8,453.3,338.8,438.1z M335.7,437.1v1.601c0,18.7,11.399,30.6,30.1,30.6c17,0,30.101-11.6,30.101-27.399v-3.2
		c0-12.5-11.801-25-16.601-34.5c-2.8-5.5-4-13.8-5.8-20.2c-2.3-8.2-6-10-12-13.9C361.5,404,335.7,420.2,335.7,437.1z"/>
</g>
</svg>
