<?xml version="1.0" encoding="utf-8"?>
<!-- Generator: Adobe Illustrator 16.0.0, SVG Export Plug-In . SVG Version: 6.00 Build 0)  -->
<!DOCTYPE svg PUBLIC "-//W3C//DTD SVG 1.1//EN" "http://www.w3.org/Graphics/SVG/1.1/DTD/svg11.dtd">
<svg version="1.1" id="Version_1.0" xmlns="http://www.w3.org/2000/svg" xmlns:xlink="http://www.w3.org/1999/xlink" x="0px" y="0px"
	 width="612px" height="792px" viewBox="0 0 612 792" enable-background="new 0 0 612 792" xml:space="preserve">
<g id="octagon" display="none">
	<g id="outFrame" display="inline">
		<line fill="none" stroke="#0000FF" stroke-width="2" x1="220" y1="309.5" x2="306" y2="273"/>
		<line fill="none" stroke="#0000FF" stroke-width="2" x1="306" y1="273" x2="390.5" y2="309.5"/>
		<line fill="none" stroke="#0000FF" stroke-width="2" x1="390.5" y1="309.5" x2="427" y2="396"/>
		<line fill="none" stroke="#0000FF" stroke-width="2" x1="427" y1="396" x2="390.5" y2="482.5"/>
		<line fill="none" stroke="#0000FF" stroke-width="2" x1="390.5" y1="482.5" x2="306" y2="516"/>
		<line fill="none" stroke="#0000FF" stroke-width="2" x1="306" y1="516" x2="220" y2="482.5"/>
		<line fill="none" stroke="#0000FF" stroke-width="2" x1="220" y1="482.5" x2="183" y2="396"/>
		<line fill="none" stroke="#0000FF" stroke-width="2" x1="183" y1="396" x2="220" y2="309.5"/>
	</g>
	
		<line id="bottom" display="inline" fill="none" stroke="#0000FF" stroke-width="2" x1="203.966" y1="445.015" x2="406.199" y2="445.295"/>
	
		<line id="top" display="inline" fill="none" stroke="#0000FF" stroke-width="2" x1="203.966" y1="346.985" x2="406.199" y2="346.705"/>
</g>
<g id="main">
	<path id="_64249792" d="M342.1,319.5v3.8h29.2v-1.6c0-9.5-5.6-14.6-15.1-14.6C348.6,307.1,342.1,311.9,342.1,319.5z"/>
	<path id="_65485904" d="M319.4,330.8H342.6l-0.1,3.9l1.3,8.6c2.8,1.8,2.2,4.3,7.2,6.8c3.3,1.6,8.1,1.4,11.3-0.1
		c5.8-2.8,9.8-10.8,7.9-19.1H394v-3.3h-74.6V330.8z"/>
	<path id="_65378144" d="M276.8,354.1v0.5c0,3.6,10.3,15.8,12.7,19.1c3.2,4.3,9.9,16,15.9,16c3.5,0,20.6-13.2,24.3-15.7l0.1,34.6
		l35.5-53c-8.899,0-29.7-1-36.5,0.7c-5.1,1.4-18.6,14.7-22.3,15c-0.5-1.7-7.7-10.9-9.3-13.3c-2-3-7.1-11.4-11.2-11.4h-2.2
		C280,346.5,276.8,350.1,276.8,354.1L276.8,354.1z"/>
	<path id="_65378808" d="M264.9,408.6l13,8.601l-0.1,19l-12.9-8.7V408.6z M240.1,390.8l12.4,8.601v19l-12.4-8.7V390.8z M214.7,373.5
		l12.3,8.2l0.1,18.8l-12.4-8.1V373.5z M200.6,384.8c0,2.1,36.8,26.4,41.4,29.4c7.3,4.899,13.8,9.7,21.1,14.6
		c3.7,2.601,6.9,4.8,10.5,7.2c3.4,2.3,8.6,4.4,8.6,9.3v32.9h29.2V448.6c0-2.899,4.3-7,4.3-7.6c0-2.9-2.8-0.4-3.9-4.7
		c-1-3.8-0.7-3.3-2.899-6.3c-2.5-3.4-6.601-6.3-12.101-6.3c-7.8,0-5.6-0.7-11.6-4.601c-3.7-2.5-7.1-4.8-10.5-7.3
		c-6.4-4.899-14-10-20.7-14.399c-6-4-38.6-28-42-28.8C211,370.6,200.6,384.8,200.6,384.8z"/>
	<path id="_65717896" d="M339.4,408.6H369.6V419.9h-40v58.3h20.9l3.5-40.4h6l3.2,40.5h20.5V361.6c0-2-6-5.9-8.101-5.9
		C373.5,355.7,342.3,403.2,339.4,408.6z"/>
</g>
</svg>
