<?xml version="1.0" encoding="utf-8"?>
<!-- Generator: Adobe Illustrator 16.0.0, SVG Export Plug-In . SVG Version: 6.00 Build 0)  -->
<!DOCTYPE svg PUBLIC "-//W3C//DTD SVG 1.1//EN" "http://www.w3.org/Graphics/SVG/1.1/DTD/svg11.dtd">
<svg version="1.1" id="Version_1.0" xmlns="http://www.w3.org/2000/svg" xmlns:xlink="http://www.w3.org/1999/xlink" x="0px" y="0px"
	 width="612px" height="792px" viewBox="0 0 612 792" enable-background="new 0 0 612 792" xml:space="preserve">
<g id="octagon" display="none">
	<g id="outFrame" display="inline">
		<line fill="none" stroke="#0000FF" stroke-width="2" x1="220" y1="309.5" x2="306" y2="273"/>
		<line fill="none" stroke="#0000FF" stroke-width="2" x1="306" y1="273" x2="390.5" y2="309.5"/>
		<line fill="none" stroke="#0000FF" stroke-width="2" x1="390.5" y1="309.5" x2="427" y2="396"/>
		<line fill="none" stroke="#0000FF" stroke-width="2" x1="427" y1="396" x2="390.5" y2="482.5"/>
		<line fill="none" stroke="#0000FF" stroke-width="2" x1="390.5" y1="482.5" x2="306" y2="516"/>
		<line fill="none" stroke="#0000FF" stroke-width="2" x1="306" y1="516" x2="220" y2="482.5"/>
		<line fill="none" stroke="#0000FF" stroke-width="2" x1="220" y1="482.5" x2="183" y2="396"/>
		<line fill="none" stroke="#0000FF" stroke-width="2" x1="183" y1="396" x2="220" y2="309.5"/>
	</g>
	
		<line id="bottom" display="inline" fill="none" stroke="#0000FF" stroke-width="2" x1="203.966" y1="445.015" x2="406.199" y2="445.295"/>
	
		<line id="top" display="inline" fill="none" stroke="#0000FF" stroke-width="2" x1="203.966" y1="346.985" x2="406.199" y2="346.705"/>
</g>
<g id="main">
	<path id="_65363480" d="M341.5,319.8h27.4V312H336.3C337.1,313.5,339.9,319.8,341.5,319.8z"/>
	<path id="_65379072" d="M336.9,328.1h3.6v1.6c0,7.4,6.8,12.9,14.5,12.9c9.5,0,14-8.1,14-18.1h-28
		C339.5,324.5,337.5,327.1,336.9,328.1z"/>
	<path id="_94401360" d="M259.3,398.4v1c0,1.6,4.5,6.699,7.2,6.699h1.5c3.7,0,49.2-33.899,57.4-38.3l0.3,34.8l37.5-55.5h-37.7
		c-1.9,0-30.3,21.1-34.6,23.9c-5.6,3.7-12,8.1-17.3,12.2C268.7,387.1,259.3,390.5,259.3,398.4z"/>
	<path id="_66403960" d="M241.7,416v-68.8h-8.3c-2,0-4.7,2-4.7,3.6V411.9c0,2.3,1.2,3.199,2.6,4.1H241.7z"/>
	<path id="_66403768" d="M336.3,402.6h31v12.9H326v62.6h20.7c2.7,0,3.8-17.6,4.3-21c1.2-6.899,2.9-15.899,3.4-22.5h0.8L361.6,478
		h21.7V355c0-2.6-5.1-7.8-8.3-7.8h-0.4c-2.3,0-17.199,23.7-19.5,27.1C352.6,378.2,336.9,400.5,336.3,402.6z"/>
	<polygon id="_66403824" points="241.7,416 241.7,479.1 311,479.1 311,416 	"/>
</g>
</svg>
