<?xml version="1.0" encoding="utf-8"?>
<!-- Generator: Adobe Illustrator 14.0.0, SVG Export Plug-In . SVG Version: 6.00 Build 43363)  -->
<!DOCTYPE svg PUBLIC "-//W3C//DTD SVG 1.1//EN" "http://www.w3.org/Graphics/SVG/1.1/DTD/svg11.dtd">
<svg version="1.1" id="Version_1.0" xmlns="http://www.w3.org/2000/svg" xmlns:xlink="http://www.w3.org/1999/xlink" x="0px" y="0px"
	 width="612px" height="792px" viewBox="0 0 612 792" enable-background="new 0 0 612 792" xml:space="preserve">
<g id="octagon" display="none">
	<g id="outFrame" display="inline">
		<line fill="none" stroke="#0000FF" stroke-width="2" x1="220" y1="309.5" x2="306" y2="273"/>
		<line fill="none" stroke="#0000FF" stroke-width="2" x1="306" y1="273" x2="390.5" y2="309.5"/>
		<line fill="none" stroke="#0000FF" stroke-width="2" x1="390.5" y1="309.5" x2="427" y2="396"/>
		<line fill="none" stroke="#0000FF" stroke-width="2" x1="427" y1="396" x2="390.5" y2="482.5"/>
		<line fill="none" stroke="#0000FF" stroke-width="2" x1="390.5" y1="482.5" x2="306" y2="516"/>
		<line fill="none" stroke="#0000FF" stroke-width="2" x1="306" y1="516" x2="220" y2="482.5"/>
		<line fill="none" stroke="#0000FF" stroke-width="2" x1="220" y1="482.5" x2="183" y2="396"/>
		<line fill="none" stroke="#0000FF" stroke-width="2" x1="183" y1="396" x2="220" y2="309.5"/>
	</g>
	<line id="mod2" fill="none" stroke="#0000FF" stroke-width="2" x1="203.966" y1="445.015" x2="406.199" y2="445.295"/>
	<line id="mod1" fill="none" stroke="#0000FF" stroke-width="2" x1="203.966" y1="346.985" x2="406.199" y2="346.705"/>
</g>
<g id="main">
	<g>
		<ellipse fill="none" stroke="#000000" stroke-width="9.0002" cx="237.999" cy="368.916" rx="18" ry="18"/>
		<line fill="none" stroke="#000000" stroke-width="9.0002" x1="237.999" y1="386.916" x2="237.999" y2="485.918"/>
		<line fill="none" stroke="#000000" stroke-width="9.0002" x1="210.998" y1="413.917" x2="264.999" y2="413.917"/>
	</g>
	<g>
		<ellipse fill="none" stroke="#000000" stroke-width="9.0002" cx="307.002" cy="394.998" rx="18" ry="18"/>
		<line fill="none" stroke="#000000" stroke-width="9.0002" x1="307.002" y1="412.998" x2="307.002" y2="512"/>
		<line fill="none" stroke="#000000" stroke-width="9.0002" x1="280.001" y1="439.999" x2="334.002" y2="439.999"/>
	</g>
	<g>
		<ellipse fill="none" stroke="#000000" stroke-width="9.0002" cx="375.25" cy="368.916" rx="18" ry="18"/>
		<line fill="none" stroke="#000000" stroke-width="9.0002" x1="375.25" y1="386.916" x2="375.25" y2="485.918"/>
		<line fill="none" stroke="#000000" stroke-width="9.0002" x1="348.25" y1="413.917" x2="402.25" y2="413.917"/>
	</g>
	<text transform="matrix(1 0 0 1 239.3491 342.25)" font-family="sans-serif" font-size="60">MTG</text>
</g>
</svg>
