<?xml version="1.0" encoding="utf-8"?>
<!-- Generator: Adobe Illustrator 16.0.0, SVG Export Plug-In . SVG Version: 6.00 Build 0)  -->
<!DOCTYPE svg PUBLIC "-//W3C//DTD SVG 1.1//EN" "http://www.w3.org/Graphics/SVG/1.1/DTD/svg11.dtd">
<svg version="1.1" id="Version_1.0" xmlns="http://www.w3.org/2000/svg" xmlns:xlink="http://www.w3.org/1999/xlink" x="0px" y="0px"
	 width="612px" height="792px" viewBox="0 0 612 792" enable-background="new 0 0 612 792" xml:space="preserve">
<g id="octagon" display="none">
	<g id="outFrame" display="inline">
		<line fill="none" stroke="#0000FF" stroke-width="2" x1="220" y1="309.5" x2="306" y2="273"/>
		<line fill="none" stroke="#0000FF" stroke-width="2" x1="306" y1="273" x2="390.5" y2="309.5"/>
		<line fill="none" stroke="#0000FF" stroke-width="2" x1="390.5" y1="309.5" x2="427" y2="396"/>
		<line fill="none" stroke="#0000FF" stroke-width="2" x1="427" y1="396" x2="390.5" y2="482.5"/>
		<line fill="none" stroke="#0000FF" stroke-width="2" x1="390.5" y1="482.5" x2="306" y2="516"/>
		<line fill="none" stroke="#0000FF" stroke-width="2" x1="306" y1="516" x2="220" y2="482.5"/>
		<line fill="none" stroke="#0000FF" stroke-width="2" x1="220" y1="482.5" x2="183" y2="396"/>
		<line fill="none" stroke="#0000FF" stroke-width="2" x1="183" y1="396" x2="220" y2="309.5"/>
	</g>
	
		<line id="mod2_1_" display="inline" fill="none" stroke="#0000FF" stroke-width="2" x1="203.966" y1="445.015" x2="406.199" y2="445.295"/>
	
		<line id="mod1_1_" display="inline" fill="none" stroke="#0000FF" stroke-width="2" x1="203.966" y1="346.985" x2="406.199" y2="346.705"/>
</g>
<g id="main">
	<path id="_40120960" d="M300.2,343.3l1.6,1.6c4.1-2.2,8.601-5.8,14.7-5.8h2.6c13.7,0,25.2,10.9,25.2,24.2v1.6
		c-3.7-0.1-6.5-2.1-11.5-2.1h-2.6c-3.8,0-10.2,0.7-10.5,4.2c1.399,0.3,1,0.5,2.1,0.5c2.2,0,3.601-1.6,7.4-1.6h5.8
		c5.5,0,13.9,4.6,16.4,7.8c5,6.5,4.6,9.2,6.6,18c1.2,0,2.6,0.2,2.6-1.1c0-10-6.6-20.2-13.1-23.6c0-17.2-11.2-31-27.8-31h-3.2
		C310.7,336,302.6,339.9,300.2,343.3z"/>
	<path id="_39502352" d="M252.4,382.7v4.2c0,3.6,1.6,5.5,1.6,7.9c0,0-9,8.4-9.4,13.601l1.5,0.6c2.4-1.6,3.9-6.5,7.5-9.9
		c2.4-2.199,7.7-5.399,12-5.399h1.6c3.2,0,8.9,2.5,8.9-0.5c0-2.3-6.5-2.6-8.9-2.6h-0.6c-4,0-7.6,1.5-10,3.2
		c-0.2-2.6-1.5-4.8-1.5-7.9c0-11.4,9.3-21.5,21-21.5h2.6c2.5,0,3.8,0.6,5.8,1.1c0.3-0.5,1-1.4,1-1.7c0-1.8-4.4-2.6-6.3-2.6h-3.7
		C264.2,361.2,252.4,372.1,252.4,382.7z"/>
	<path id="_40261424" d="M338.6,414.2c1.2,0,2.601,0.2,2.601-1.101c0-7.699-10.3-16.8-18.9-16.8h-4.7c-1.6,0-2.5,1.9-1.399,2.4
		c0.899,0.6,3.899,0.3,5.1,0.3c3.101,0,6.601,1.2,8.5,2.5C335.1,405.5,336.8,406.7,338.6,414.2z"/>
	<path id="_40313144" d="M300.2,322.8c0.5-6.5,10.899-13.8,18.1-15c10.601-1.9,17.3,2.9,22.8,8.3c2.7,2.7,4.7,6.7,6,10.8
		c1.601,5.5,4.7,3.2,10.101,6.2c6.1,3.4,12.2,11.1,14,18.6c13.2,0,25.7,11.9,25.7,24.7v3.2c0,7.5-3.101,12.3-7,16.2
		c-2.7,2.7-3,3.101-6.4,5.2c-3.3,2-6.2,1.4-6.7,4.9c-1.6,11.5-10.399,22.5-23.5,22.5c8.3,12.399,5.7,21.699-1.6,32.6
		c0,12.1-0.601,15.6-7,21.9c-6.101,6.199-11.2,5.899-21.4,5.899c1.8-2.6,3.101-2.6,4.9-6.1c1.5-2.7,2.1-4.2,3.399-7.2
		c2.4-5.5,4.4-9.3,4.4-17.1V453.1c0-3.399-0.5-6.1-2.1-7.899c-3.101,13.1-3.601,16-14.2,21.5c0-20.7,9.6-17.101-4.7-33.601
		c0,9.601-0.5,14-6.8,17.301c-2-1.2-5.3-4.2-5.3-7.301v-1c0-5,6.3-13.1,6.3-16.8v-1.1c0-2.8-0.9-5.2-2.601-6.3
		c0,7.3-8.399,19-12.2,23c-4.1,4.3-2.8,7-0.6,12.399c1.7,4.2,2.8,8.8,2.8,14.5v2.601c-8-0.7-11-15.601-15.2-20.5
		c0,8.5-2.1,15.699,1,23.6c1.9,4.8,6.1,13.9,11,15.2v1L285,491.1l-0.5-0.199c-8.4,0-15.9-6-19.4-11c-1.9-2.801-3.7-6.7-4.2-11
		c-0.8-5.801,1.5-9.101,1.5-12.601c0,0-12.8-11.8-11-22.6l0.5-4.2c-0.9-1.3-3.5-3.4-5-5.5c-1.5-1.9-2.8-4.5-3.9-6.6
		c-3.4,0.1-4.9,1.6-7.9,1.6h-1.6c-13.5,0-26.3-12.9-26.3-26.3v-2.1c0-12.2,10.3-23.1,22.6-23.1h5.3c1.9-8.1,14.3-17.2,25.2-14.7
		c-0.9-3.8-2.6-6.8-2.6-12.1v-1c0-9.6,8.1-19.4,15.2-22.1c4.7-1.8,9.8-2.4,15.3-1C294,318,297.4,322.1,300.2,322.8L300.2,322.8z
		 M299.2,318.1c-3.3-0.3-7.2-5.2-14.7-5.2h-4.8c-12.6,0-26.5,14.6-24.9,28.4l1.2,8.4h-1.5c-10.7,0-17.8,8.1-21.5,15.2
		c-5.8-2.8-17,3-19.8,5.9c-4.1,4-9.1,10.5-9.1,18.2v3.7c0,9.1,6,18.3,11.3,22.3c4.4,3.3,5.1,3.9,10.9,5.9
		c6.7,2.199,9.3,0.199,14.8,0.399l7.7,9.2c-1.6,3.3,1.1,12.3,2.2,15.1c1.2,3,1.8,3.601,3.4,6c0.6,1,4.3,5.101,4.3,5.101
		c0,2.8-1.1,3.6-1.1,6.8v0.5c0,15.7,11.9,29.9,26.8,29.9c5.3,0,9-0.9,12.6-2.601c6.6,3.5,17.8,7.4,23.1-0.2l8.5,1.301
		c6.7,1.1,17-5.5,19.801-9.101c2.6-3.5,9.3-14.899,6-21.899c2.8-1.801,6.399-9.301,6.8-13.7c0.3-4.2,0.5-4.5-0.2-9.101
		c-0.6-3.5-2.2-5.5-2.5-8.1c10.1-0.8,21-13,21-24.2c6.2-4.1,8.4-2.899,14.1-9.6c3.2-3.6,6.4-11,6.4-17.6c0-15.8-11.7-29.9-26.8-29.9
		c-2.2-9.9-12-20.7-23.101-21.6c-0.899-11-14.3-23.6-26.8-23.6C313,303.9,301.1,310.8,299.2,318.1L299.2,318.1z"/>
</g>
</svg>
