<?xml version="1.0" encoding="utf-8"?>
<!-- Generator: Adobe Illustrator 16.0.0, SVG Export Plug-In . SVG Version: 6.00 Build 0)  -->
<!DOCTYPE svg PUBLIC "-//W3C//DTD SVG 1.1//EN" "http://www.w3.org/Graphics/SVG/1.1/DTD/svg11.dtd">
<svg version="1.1" id="Version_1.0" xmlns="http://www.w3.org/2000/svg" xmlns:xlink="http://www.w3.org/1999/xlink" x="0px" y="0px"
	 width="612px" height="792px" viewBox="0 0 612 792" enable-background="new 0 0 612 792" xml:space="preserve">
<g id="octagon" display="none">
	<g id="outFrame" display="inline">
		<line fill="none" stroke="#0000FF" stroke-width="2" x1="220" y1="309.5" x2="306" y2="273"/>
		<line fill="none" stroke="#0000FF" stroke-width="2" x1="306" y1="273" x2="390.5" y2="309.5"/>
		<line fill="none" stroke="#0000FF" stroke-width="2" x1="390.5" y1="309.5" x2="427" y2="396"/>
		<line fill="none" stroke="#0000FF" stroke-width="2" x1="427" y1="396" x2="390.5" y2="482.5"/>
		<line fill="none" stroke="#0000FF" stroke-width="2" x1="390.5" y1="482.5" x2="306" y2="516"/>
		<line fill="none" stroke="#0000FF" stroke-width="2" x1="306" y1="516" x2="220" y2="482.5"/>
		<line fill="none" stroke="#0000FF" stroke-width="2" x1="220" y1="482.5" x2="183" y2="396"/>
		<line fill="none" stroke="#0000FF" stroke-width="2" x1="183" y1="396" x2="220" y2="309.5"/>
	</g>
	
		<line id="mod2_1_" display="inline" fill="none" stroke="#0000FF" stroke-width="2" x1="203.966" y1="445.015" x2="406.199" y2="445.295"/>
	
		<line id="mod1_1_" display="inline" fill="none" stroke="#0000FF" stroke-width="2" x1="203.966" y1="346.985" x2="406.199" y2="346.705"/>
</g>
<g id="main">
	<path d="M296.65,342.307c0-12.675,10.151-24.231,10.151-32.59v-1.068c0-3.205-0.107-9.467-2.672-10.151
		c-2.612,11.211-8.714,19.951-14.814,27.926c-3.127,4.089-5.871,8.161-9.015,12.357c-2.492,3.328-7.693,8.618-7.693,13.677
		c0,3.594,15.274,44.344,7.48,44.344c-0.271,0-9.373-6.33-10.474-7.157c-3.469-2.605-5.932-5.695-8.333-9.298
		c-7.651-11.48-6.088-11.064-9.51-25.751c-3.73,0.996-6.377,12.446-7.266,17.309c-1.086,5.944-0.676,16.644,0.627,22.454
		c1.592,7.104,3.373,12.528,6.284,18.292c1.53,3.029,7.63,13.735,7.835,16.208c-5.428-1.268-17.643-11.445-21.512-15.354
		c-3.776-3.813-13.753-20.732-14.818-21.513c0,24.697,12.459,56.964,24.435,69.062c7.676,7.754,15.774,15.94,25.347,21.667
		c6.134,3.672,26.215,10.781,35.701,10.781h5.876c7.143,0,27.002-7.608,32.237-10.502c8.519-4.706,17.154-11.848,22.479-19.729
		c10.968-16.229,20.08-37.427,20.08-64.335v-3.204l-1.11-14.473c-1.721,0.946-5.519,10.94-6.294,12.945
		c-1.272,3.296-5.097,8.537-7.124,11.575c-3.543,5.309-13.121,15.677-19.664,17.2v-2.673c0-10.981,6.944-21.977,6.944-30.985v-4.808
		l-3.182-30.456l-1.628,0.002c-0.808,9.708-4.14,19.766-8.438,26.287c-3.288,4.988-13.181,13.951-19.342,15.386
		c-0.557-1.05-1.068-1.576-1.068-3.206v-5.876c0-12.683,7.479-22.218,7.479-32.056v-2.137c0-3.802-5.217-9.672-7.265-13.039
		c-1.706-2.808-6.01-10.802-8.764-11.537v3.206c0,15.386-3.412,26.493-13.891,31.521c-2.768-4.133-9.083-7.778-9.083-15.494v-4.808
		H296.65z"/>
	<ellipse fill="#FFFFFF" stroke="#000000" cx="305.001" cy="439.25" rx="28.5" ry="28.5"/>
	<line fill="none" stroke="#000000" stroke-width="6" x1="288.308" y1="422.491" x2="322.107" y2="456.091"/>
	<line fill="none" stroke="#000000" stroke-width="6" x1="287.908" y1="457.091" x2="320.709" y2="421.491"/>
</g>
</svg>
