<?xml version="1.0" encoding="utf-8"?>
<!-- Generator: Adobe Illustrator 16.0.0, SVG Export Plug-In . SVG Version: 6.00 Build 0)  -->
<!DOCTYPE svg PUBLIC "-//W3C//DTD SVG 1.1//EN" "http://www.w3.org/Graphics/SVG/1.1/DTD/svg11.dtd">
<svg version="1.1" id="Version_1.0" xmlns="http://www.w3.org/2000/svg" xmlns:xlink="http://www.w3.org/1999/xlink" x="0px" y="0px"
	 width="612px" height="792px" viewBox="0 0 612 792" enable-background="new 0 0 612 792" xml:space="preserve">
<g id="octagon" display="none">
	<g id="outFrame" display="inline">
		<line fill="none" stroke="#0000FF" stroke-width="2" x1="220" y1="309.5" x2="306" y2="273"/>
		<line fill="none" stroke="#0000FF" stroke-width="2" x1="306" y1="273" x2="390.5" y2="309.5"/>
		<line fill="none" stroke="#0000FF" stroke-width="2" x1="390.5" y1="309.5" x2="427" y2="396"/>
		<line fill="none" stroke="#0000FF" stroke-width="2" x1="427" y1="396" x2="390.5" y2="482.5"/>
		<line fill="none" stroke="#0000FF" stroke-width="2" x1="390.5" y1="482.5" x2="306" y2="516"/>
		<line fill="none" stroke="#0000FF" stroke-width="2" x1="306" y1="516" x2="220" y2="482.5"/>
		<line fill="none" stroke="#0000FF" stroke-width="2" x1="220" y1="482.5" x2="183" y2="396"/>
		<line fill="none" stroke="#0000FF" stroke-width="2" x1="183" y1="396" x2="220" y2="309.5"/>
	</g>
	
		<line id="mod2_1_" display="inline" fill="none" stroke="#0000FF" stroke-width="2" x1="203.966" y1="445.015" x2="406.199" y2="445.295"/>
	
		<line id="mod1_1_" display="inline" fill="none" stroke="#0000FF" stroke-width="2" x1="203.966" y1="346.985" x2="406.199" y2="346.705"/>
</g>
<g id="main">
	<path d="M296.7,342.3c0-12.7,10.2-24.2,10.2-32.6v-1.1c0-3.2-0.101-9.5-2.7-10.2c-2.6,11.2-8.7,20-14.8,27.9
		c-3.1,4.1-5.9,8.2-9,12.4c-2.6,3.4-7.8,8.7-7.8,13.8c0,3.6,15.3,44.3,7.5,44.3c-0.3,0-9.4-6.3-10.5-7.2c-3.5-2.6-5.9-5.7-8.3-9.3
		c-7.7-11.4-6.1-11-9.5-25.7c-3.8,1-6.4,12.4-7.3,17.3c-1.1,5.9-0.7,16.6,0.6,22.5c1.6,7.1,3.4,12.5,6.3,18.3
		c1.5,3,7.6,13.7,7.8,16.2c-5.4-1.301-17.6-11.5-21.5-15.4c-3.7-3.8-13.7-20.7-14.8-21.5c0,24.7,12.5,57,24.4,69.1
		c7.7,7.7,15.8,15.9,25.4,21.601c6.1,3.7,26.2,10.8,35.7,10.8h5.899c7.101,0,27-7.6,32.2-10.5c8.5-4.7,17.2-11.8,22.5-19.7
		c11-16.3,20.1-37.5,20.1-64.399v-3.2l-1.1-14.4c-1.8,0.9-5.6,10.9-6.3,12.9c-1.3,3.3-5.101,8.5-7.2,11.6
		c-3.5,5.3-13.1,15.7-19.6,17.2v-2.7c0-11,6.899-22,6.899-31v-4.8l-3.2-30.4H357c-0.8,9.7-4.1,19.7-8.4,26.2
		c-3.3,5-13.199,14-19.3,15.4c-0.6-1-1.1-1.6-1.1-3.2v-5.8c0-12.7,7.5-22.2,7.5-32.1v-2.1c0-3.8-5.2-9.7-7.3-13
		c-1.7-2.8-6-10.8-8.801-11.5v3.2c0,15.4-3.399,26.5-13.899,31.5c-2.7-4.2-9-7.9-9-15.6V342.3L296.7,342.3z"/>
</g>
</svg>
