<?xml version="1.0" encoding="utf-8"?>
<!-- Generator: Adobe Illustrator 16.0.0, SVG Export Plug-In . SVG Version: 6.00 Build 0)  -->
<!DOCTYPE svg PUBLIC "-//W3C//DTD SVG 1.1//EN" "http://www.w3.org/Graphics/SVG/1.1/DTD/svg11.dtd">
<svg version="1.1" id="Version_1.0" xmlns="http://www.w3.org/2000/svg" xmlns:xlink="http://www.w3.org/1999/xlink" x="0px" y="0px"
	 width="612px" height="792px" viewBox="0 0 612 792" enable-background="new 0 0 612 792" xml:space="preserve">
<g id="octagon" display="none">
	<g id="outFrame" display="inline">
		<line fill="none" stroke="#0000FF" stroke-width="2" x1="220" y1="309.5" x2="306" y2="273"/>
		<line fill="none" stroke="#0000FF" stroke-width="2" x1="306" y1="273" x2="390.5" y2="309.5"/>
		<line fill="none" stroke="#0000FF" stroke-width="2" x1="390.5" y1="309.5" x2="427" y2="396"/>
		<line fill="none" stroke="#0000FF" stroke-width="2" x1="427" y1="396" x2="390.5" y2="482.5"/>
		<line fill="none" stroke="#0000FF" stroke-width="2" x1="390.5" y1="482.5" x2="306" y2="516"/>
		<line fill="none" stroke="#0000FF" stroke-width="2" x1="306" y1="516" x2="220" y2="482.5"/>
		<line fill="none" stroke="#0000FF" stroke-width="2" x1="220" y1="482.5" x2="183" y2="396"/>
		<line fill="none" stroke="#0000FF" stroke-width="2" x1="183" y1="396" x2="220" y2="309.5"/>
	</g>
	
		<line id="mod2_1_" display="inline" fill="none" stroke="#0000FF" stroke-width="2" x1="203.966" y1="445.015" x2="406.199" y2="445.295"/>
	
		<line id="mod1_1_" display="inline" fill="none" stroke="#0000FF" stroke-width="2" x1="203.966" y1="346.985" x2="406.199" y2="346.705"/>
</g>
<g id="main">
	
		<ellipse transform="matrix(-0.9753 -0.2209 0.2209 -0.9753 591.8166 806.8671)" stroke="#000000" cx="341.026" cy="370.341" rx="18.9" ry="46.55"/>
	<ellipse stroke="#000000" cx="299.6" cy="356.5" rx="23.8" ry="28"/>
	<polygon stroke="#000000" points="262.269,418.373 334.221,445.013 318.673,486.891 246.721,460.251 	"/>
	
		<ellipse transform="matrix(0.9419 0.3359 -0.3359 0.9419 175.0303 -67.8059)" fill="#FFFFFF" stroke="#FFFFFF" cx="283.5" cy="472" rx="39.199" ry="14"/>
	
		<ellipse transform="matrix(0.9419 0.3359 -0.3359 0.9419 176.271 -66.6201)" stroke="#000000" cx="280.7" cy="476.2" rx="39.199" ry="14.001"/>
	
		<ellipse transform="matrix(0.9419 0.336 -0.336 0.9419 176.396 -66.3016)" fill="#FFFFFF" stroke="#000000" cx="279.806" cy="476.624" rx="16.1" ry="4.9"/>
	
		<rect x="287.683" y="360.002" transform="matrix(0.9463 0.3233 -0.3233 0.9463 142.9727 -80.5424)" stroke="#000000" width="52.5" height="60.2"/>
	<ellipse stroke="#000000" cx="325.5" cy="340.4" rx="16.101" ry="11.2"/>
	<ellipse fill="#FFFFFF" stroke="#000000" cx="324.311" cy="361.26" rx="15.75" ry="18.34"/>
	<ellipse fill="#FFFFFF" stroke="#000000" cx="288.05" cy="355.66" rx="9.45" ry="16.66"/>
	<path stroke="#000000" d="M280.84,373.642c2.19,6.568,3.64,11.318,3.64,18.2l-1.12,9.24c19.019,13.946,16.011-17.101,0.84-27.72"/>
	<path stroke="#000000" d="M285.979,334.962c67.241-40.345,83.403,8.476,59.458,2.952"/>
	<path stroke="#000000" d="M283.5,336.06c18.355-21.414,48.352-29.825,67.76-3.36"/>
	
		<ellipse transform="matrix(-0.9482 -0.3176 0.3176 -0.9482 458.1422 914.1415)" fill="#FFFFFF" cx="303.587" cy="419.726" rx="26.753" ry="9.001"/>
	
		<ellipse transform="matrix(0.9419 0.3359 -0.3359 0.9419 163.1429 -74.7047)" stroke="#000000" cx="297.5" cy="434.2" rx="39.2" ry="14"/>
</g>
</svg>
