<?xml version="1.0" encoding="utf-8"?>
<!-- Generator: Adobe Illustrator 16.0.0, SVG Export Plug-In . SVG Version: 6.00 Build 0)  -->
<!DOCTYPE svg PUBLIC "-//W3C//DTD SVG 1.1//EN" "http://www.w3.org/Graphics/SVG/1.1/DTD/svg11.dtd">
<svg version="1.1" id="Version_1.0" xmlns="http://www.w3.org/2000/svg" xmlns:xlink="http://www.w3.org/1999/xlink" x="0px" y="0px"
	 width="612px" height="792px" viewBox="0 0 612 792" enable-background="new 0 0 612 792" xml:space="preserve">
<g id="octagon" display="none">
	<g id="outFrame" display="inline">
		<line fill="none" stroke="#0000FF" stroke-width="2" x1="220" y1="309.5" x2="306" y2="273"/>
		<line fill="none" stroke="#0000FF" stroke-width="2" x1="306" y1="273" x2="390.5" y2="309.5"/>
		<line fill="none" stroke="#0000FF" stroke-width="2" x1="390.5" y1="309.5" x2="427" y2="396"/>
		<line fill="none" stroke="#0000FF" stroke-width="2" x1="427" y1="396" x2="390.5" y2="482.5"/>
		<line fill="none" stroke="#0000FF" stroke-width="2" x1="390.5" y1="482.5" x2="306" y2="516"/>
		<line fill="none" stroke="#0000FF" stroke-width="2" x1="306" y1="516" x2="220" y2="482.5"/>
		<line fill="none" stroke="#0000FF" stroke-width="2" x1="220" y1="482.5" x2="183" y2="396"/>
		<line fill="none" stroke="#0000FF" stroke-width="2" x1="183" y1="396" x2="220" y2="309.5"/>
	</g>
	
		<line id="mod2_1_" display="inline" fill="none" stroke="#0000FF" stroke-width="2" x1="203.966" y1="445.015" x2="406.199" y2="445.295"/>
	
		<line id="mod1_1_" display="inline" fill="none" stroke="#0000FF" stroke-width="2" x1="203.966" y1="346.985" x2="406.199" y2="346.705"/>
</g>
<g id="main">
	<path id="_105632040" d="M274,360.6l6.9,11.9c7.4-3.9,12.1-8.2,23.8-8.2h1.3c14.5,0,17.3,6.5,24.2,8l6.6-11.7
		C313.1,348.1,297.6,348.1,274,360.6z"/>
	<path id="_66381448" d="M313.5,304.1c0,1.6,10.4,5.2,12.6,6.3c3.101,1.6,8.7,6.1,10.601,8.8c5.3,7.2,10.7,15.1,10.7,27.6
		c0,20.4-18.601,40.8-38.9,40.8v7.5c5.8,0.5,11.1,8.4,8.2,14.4c1.6,0.4,6.2,3.1,6.3,3.1c1.8,0,12.4-17.6,35.7-17.6h0.6
		c11.2,0,22.5,6.4,27.8,12.4c4.2,4.699,13.2,19.1,12,28.399l-2.1,13.7l3.1,1.4c0.2-2.2,2-5.801,2.801-9.101
		c0.699-3.1,1-7.5,1-10.899v-8.2c0-21.101-20.801-46.9-37.601-50.8c0-12.6,1.101-15.9-2.3-27.2c-2.2-7.1-6.5-16.1-10.8-20.7
		c-12.7-13.3-18.8-17.5-39.7-22.4V304.1L313.5,304.1z"/>
	<path id="_106969376" d="M244.5,367.5v2.5c0,1.2-12.4,8-14.4,9.4c-4,2.8-8.7,8.1-11.7,12.1c-6.9,8.9-12.1,20.2-12.1,35.6
		c0,10.9,2.5,15.101,4.5,23.4l3-1.5c-0.3-3.7-1.9-5.8-1.9-10v-5c0-19.5,19.7-38.9,40.1-38.9h4.4c6.4,0,14.8,3.2,18.8,5.6
		c5.4,3.3,8.9,9.1,13.2,11.899l5.7-2.5V405.7c0-5.101,4.1-9.7,8.2-10.7v-7.5c-18.9-0.4-38.3-19.5-38.3-38.8v-3.8
		c0-10.3,5.3-21.4,10.5-26.5c3.2-3.1,6.2-5.7,10-8.1c2.1-1.3,12.7-3.7,12.7-6.2v-2.5c-16.6,3.9-29.3,9.6-38.4,21.2
		C248.1,336.6,244.5,345.4,244.5,367.5L244.5,367.5z"/>
	<path id="_66087312" d="M250.8,410.1c0,18.5,17.1,41.801,31.3,45.101l5.7-11.2c-16.3-8.6-23.8-19.9-23.8-42.7h-13.2V410.1z"/>
	<path id="_103737712" d="M322.3,444.6l6.3,10.7c8.101-1.899,19.301-13,23.2-19.399c5.601-9.301,8.8-19.601,8.8-34.5h-13.8
		c0.3,13.1-0.2,17.899-6.3,27c-3.1,4.6-4.3,5.199-8,8.899C329.9,439.9,323.6,442.9,322.3,444.6z"/>
	<path id="_66431984" d="M316.6,435.8c0-9.1,2.2-11.5,3.801-18.2l-6.301-3.1c-6.1,5.3-11,4-16.899,0l-6.2,3.4
		c0.5,6.6,5.1,9.699,3.7,21.8c-0.9,7.7-2.8,14.399-6.6,19.6c-7.3,9.8-17.5,18.601-34.2,18.601h-2.5c-11.7,0-25.5-8.101-30.1-15.101
		l-3,1.4c8.2,12.2,28.6,24.899,49.5,24.899h0.6c16.1,0,27.3-6.699,37-13.199c9.3,6.199,19.1,12.5,34.5,12.5h7.5
		c9.6,0,20.6-4.101,26.5-8C378.5,477.3,390.6,469.1,392,464c-2.8-0.7-1.2-1.2-3.2-1.2c-1.3,0-4.2,4.8-5.5,5.8
		c-1.899,1.4-4.5,2.7-6.6,4.101c-3.4,2.3-11.7,4.5-17.4,4.5H354.9c-19.7,0-38.301-19.3-38.301-39.5V435.8z"/>
</g>
</svg>
