<?xml version="1.0" encoding="utf-8"?>
<!-- Generator: Adobe Illustrator 16.0.0, SVG Export Plug-In . SVG Version: 6.00 Build 0)  -->
<!DOCTYPE svg PUBLIC "-//W3C//DTD SVG 1.1//EN" "http://www.w3.org/Graphics/SVG/1.1/DTD/svg11.dtd">
<svg version="1.1" id="Version_1.0" xmlns="http://www.w3.org/2000/svg" xmlns:xlink="http://www.w3.org/1999/xlink" x="0px"
	 y="0px" width="612px" height="792px" viewBox="0 0 612 792" enable-background="new 0 0 612 792" xml:space="preserve">
<g id="octagon" display="none">
	<g id="outFrame" display="inline">
		<line fill="none" stroke="#0000FF" stroke-width="2" x1="220" y1="309.5" x2="306" y2="273"/>
		<line fill="none" stroke="#0000FF" stroke-width="2" x1="306" y1="273" x2="390.5" y2="309.5"/>
		<line fill="none" stroke="#0000FF" stroke-width="2" x1="390.5" y1="309.5" x2="427" y2="396"/>
		<line fill="none" stroke="#0000FF" stroke-width="2" x1="427" y1="396" x2="390.5" y2="482.5"/>
		<line fill="none" stroke="#0000FF" stroke-width="2" x1="390.5" y1="482.5" x2="306" y2="516"/>
		<line fill="none" stroke="#0000FF" stroke-width="2" x1="306" y1="516" x2="220" y2="482.5"/>
		<line fill="none" stroke="#0000FF" stroke-width="2" x1="220" y1="482.5" x2="183" y2="396"/>
		<line fill="none" stroke="#0000FF" stroke-width="2" x1="183" y1="396" x2="220" y2="309.5"/>
	</g>
	
		<line id="mod2_1_" display="inline" fill="none" stroke="#0000FF" stroke-width="2" x1="203.966" y1="445.015" x2="406.199" y2="445.295"/>
	
		<line id="mod1_1_" display="inline" fill="none" stroke="#0000FF" stroke-width="2" x1="203.966" y1="346.985" x2="406.199" y2="346.705"/>
</g>
<g id="main">
	<polygon id="_65456320" fill="none" stroke="#000000" stroke-width="5" stroke-miterlimit="10" points="349.38,312.12 318.9,352.2 
		313.98,298.8 301.62,336 287.58,314.16 283.74,355.92 256.26,324.72 265.74,360.36 229.5,358.56 229.26,359.04 262.98,383.4 
		205.74,387.24 255.54,401.76 255.54,402.48 220.5,422.76 220.74,423.36 266.1,417.84 251.58,442.8 278.22,431.76 268.62,472.8 
		293.94,439.8 307.74,492.84 308.82,492.84 311.46,439.68 338.58,472.56 329.1,429.12 360.3,446.521 341.34,423.72 388.02,437.04 
		357.42,408.84 396.9,402.72 351.9,390.36 404.82,363.48 357.06,367.8 376.5,336.48 334.62,359.16 	"/>
	<text transform="matrix(1 0 0 1 282.2607 425)" font-family="sans-serif" font-size="81">?</text>
</g>
</svg>
