<?xml version="1.0" encoding="utf-8"?>
<!-- Generator: Adobe Illustrator 16.0.0, SVG Export Plug-In . SVG Version: 6.00 Build 0)  -->
<!DOCTYPE svg PUBLIC "-//W3C//DTD SVG 1.1//EN" "http://www.w3.org/Graphics/SVG/1.1/DTD/svg11.dtd">
<svg version="1.1" id="Version_1.0" xmlns="http://www.w3.org/2000/svg" xmlns:xlink="http://www.w3.org/1999/xlink" x="0px" y="0px"
	 width="612px" height="792px" viewBox="0 0 612 792" enable-background="new 0 0 612 792" xml:space="preserve">
<g id="octagon" display="none">
	<g id="outFrame" display="inline">
		<line fill="none" stroke="#0000FF" stroke-width="2" x1="220" y1="309.5" x2="306" y2="273"/>
		<line fill="none" stroke="#0000FF" stroke-width="2" x1="306" y1="273" x2="390.5" y2="309.5"/>
		<line fill="none" stroke="#0000FF" stroke-width="2" x1="390.5" y1="309.5" x2="427" y2="396"/>
		<line fill="none" stroke="#0000FF" stroke-width="2" x1="427" y1="396" x2="390.5" y2="482.5"/>
		<line fill="none" stroke="#0000FF" stroke-width="2" x1="390.5" y1="482.5" x2="306" y2="516"/>
		<line fill="none" stroke="#0000FF" stroke-width="2" x1="306" y1="516" x2="220" y2="482.5"/>
		<line fill="none" stroke="#0000FF" stroke-width="2" x1="220" y1="482.5" x2="183" y2="396"/>
		<line fill="none" stroke="#0000FF" stroke-width="2" x1="183" y1="396" x2="220" y2="309.5"/>
	</g>
	
		<line id="mod2_1_" display="inline" fill="none" stroke="#0000FF" stroke-width="2" x1="203.966" y1="445.015" x2="406.199" y2="445.295"/>
	
		<line id="mod1_1_" display="inline" fill="none" stroke="#0000FF" stroke-width="2" x1="203.966" y1="346.985" x2="406.199" y2="346.705"/>
</g>
<g id="main">
	<path id="_105869056" d="M309.67,376.72c-13.97,0-24.09-8.58-24.09-22.44v-2.64c0-11.99,22.439-31.35,22.439-52.8
		c6.931,8.03,5.61,19.03,10.78,27.39c2.97,4.73,13.311,19.47,13.311,24.86v2.64C332.11,366.93,322.87,376.72,309.67,376.72z
		 M282.5,351.64v2.64c0,34.21,52.8,32.89,52.8,2.09v-5.28c0-8.8-11.33-20.79-14.85-29.15c-5.5-12.76-2.641-22.11-15.51-28.93
		C304.94,320.95,282.5,337.01,282.5,351.64z"/>
	<path id="_106084312" d="M375.56,458.45v15.51l-91.52,5.39v-16.83l1.54,0.221L375.56,458.45z M216.06,430.62
		c6.49,4.29,65.34,30.25,65.34,32.89v14.63l-0.22,0.551l-65.12-36.631V430.62z M368.74,455.7c-11.66,0-82.5,5.28-86.46,3.85
		c-4.62-1.649-59.4-28.6-60.94-30.03c9.46,0,18.81,0,28.27,0c7.37,0,22-1.979,25.08,2.641l-22.55,1.43l5.17,1.87v0.88h-3.08
		l-4.62,0.55c5.06,3.19,45.87,12.98,55.88,12.98h4.729c11.99,0,22.99-3.19,32.45-3.521C344.32,446.35,367.31,454.71,368.74,455.7z
		 M305.16,397.73l2.75,23.539l13.53-17.05l-6.16,20.57l19.359-10.67l-9.35,14.85l21.01-1.979l-22.88,11.66l20.35,6.489
		l-36.079,4.181c-8.25,0.439-47.521-9.24-51.371-11.88l25.63-1.431l-15.4-11.33l16.94,0.33l-4.18-14.74l12.65,12.98l1.65-18.7
		l6.38,9.79L305.16,397.73z M306.92,392.34l-0.33-1.43h-0.77l-4.51,15.62l-0.88-0.11l-5.94-9.24l-0.11,5.28l-1.76-2.64l-1.54,15.399
		l-12.21-13.42l1.43,6.38l-3.74-3.08l4.4,15.62l-6.27,0.11l-10.12-0.44l3.85,2.86l-5.94-0.33l3.85,3.521h-53.35
		c-0.33,1.21-0.55,1.21-0.55,2.64v12.54c0,3.96,12.1,9.24,15.51,11.11c5.83,3.3,11.44,6.05,17.16,9.569
		c11.11,6.82,23.1,12.431,34.32,19.03c4.4,2.64,17.05,1.32,23.98,0.439c7.041-0.77,18.041-0.439,24.86-1.649
		c7.04-1.32,17.601-1.101,24.86-1.87c6.82-0.88,18.59-1.54,25.08-1.65v-19.8c0-2.31-13.2-6.05-16.061-7.04
		c-4.069-1.319-14.3-4.729-16.939-6.6l7.37-0.771l-21.011-5.5l0.11-0.88l22.88-11.77l-3.63,0.439l4.18-2.75l-24.97,2.42l9.68-16.5
		L319.57,419.62l7.37-25.08l-15.95,20.9l-2.641-27.831L306.92,392.34z"/>
</g>
</svg>
