<?xml version="1.0" encoding="utf-8"?>
<!-- Generator: Adobe Illustrator 16.0.0, SVG Export Plug-In . SVG Version: 6.00 Build 0)  -->
<!DOCTYPE svg PUBLIC "-//W3C//DTD SVG 1.1//EN" "http://www.w3.org/Graphics/SVG/1.1/DTD/svg11.dtd">
<svg version="1.1" id="Version_1.0" xmlns="http://www.w3.org/2000/svg" xmlns:xlink="http://www.w3.org/1999/xlink" x="0px" y="0px"
	 width="612px" height="792px" viewBox="0 0 612 792" enable-background="new 0 0 612 792" xml:space="preserve">
<g id="octagon" display="none">
	<g id="outFrame" display="inline">
		<line fill="none" stroke="#0000FF" stroke-width="2" x1="220" y1="309.5" x2="306" y2="273"/>
		<line fill="none" stroke="#0000FF" stroke-width="2" x1="306" y1="273" x2="390.5" y2="309.5"/>
		<line fill="none" stroke="#0000FF" stroke-width="2" x1="390.5" y1="309.5" x2="427" y2="396"/>
		<line fill="none" stroke="#0000FF" stroke-width="2" x1="427" y1="396" x2="390.5" y2="482.5"/>
		<line fill="none" stroke="#0000FF" stroke-width="2" x1="390.5" y1="482.5" x2="306" y2="516"/>
		<line fill="none" stroke="#0000FF" stroke-width="2" x1="306" y1="516" x2="220" y2="482.5"/>
		<line fill="none" stroke="#0000FF" stroke-width="2" x1="220" y1="482.5" x2="183" y2="396"/>
		<line fill="none" stroke="#0000FF" stroke-width="2" x1="183" y1="396" x2="220" y2="309.5"/>
	</g>
	
		<line id="mod2_1_" display="inline" fill="none" stroke="#0000FF" stroke-width="2" x1="203.966" y1="445.015" x2="406.199" y2="445.295"/>
	
		<line id="mod1_1_" display="inline" fill="none" stroke="#0000FF" stroke-width="2" x1="203.966" y1="346.985" x2="406.199" y2="346.705"/>
</g>
<g id="main">
	<path id="_106078456" d="M221.28,362.76c0,3.24,4.8,11.64,4.8,17.4v4.8c-6.48-0.6-15.36-13.08-15.36-21.6
		c-8.52,6.12-1.8,28.56,2.16,35.28c3.84,6.48,4.56,7.561,10.92,11.761c1.08,0.72,15.36,7.68,15.48,7.68c3.36,0,10.2-6.36,13.2-7.92
		c6.24-3.12,7.32-4.2,10.44-10.68c1.08-2.16,4.08-13.561,4.68-16.44c0.96-5.16-1.2-14.4-1.32-19.8h-1.2
		c-0.72,8.64-7.2,21-14.76,21.12c-0.12-2.16-0.48-1.2-0.48-3.12c0-5.04,3.72-12.24,4.56-17.64c0.48-2.88-6.72-12.96-8.76-13.56
		c2.52,5.28-2.64,15.24-6.84,17.4c-2.16-1.44-4.8-5.4-4.8-9v-0.96c0-9.24,6.84-11.52,4.2-22.68c-1.32,0.96-1.92,5.04-3.6,7.44
		c-1.68,2.52-2.52,4.32-4.44,6.72C228.24,351.48,221.28,359.52,221.28,362.76L221.28,362.76z"/>
	<path id="_106081520" d="M362.76,362.76v0.48c0,5.76,6,13.8,4.2,21.6c-3.36-0.24-8.76-5.52-10.32-8.04c-1.319-2.16-2.159-3.36-3-6
		c-0.72-1.8-1.439-6.6-1.92-7.56c-3,2.16-4.2,9.96-4.2,15.36c0,8.04,6.601,21,9.961,25.919c2.399,3.36,6.239,5.761,10.199,7.681
		c1.561,0.72,12.12,6,12.48,6c2.16,0,19.08-11.04,20.4-12.84c2.159-2.641,8.64-20.041,8.279-25.2l-1.68-16.92h-1.08
		c-0.24,8.76-7.08,20.52-14.76,21.12c0,0,0.72-8.64,1.319-10.92c0.841-3.36,2.4-7.2,2.4-10.8v-0.48c0-2.4-6.72-11.52-8.4-12.72
		c0,9.24-0.479,14.88-6.84,18c-1.68-1.44-4.8-4.32-4.8-7.44v-3.6c0-5.76,5.28-11.76,5.28-16.32l0.12-0.6l-0.721-4.68
		c-2.52,0.6-2.64,4.92-3.84,7.2c-1.2,2.16-3,4.68-4.439,6.6C369.12,351.48,362.76,358.8,362.76,362.76z"/>
	<path id="_106279528" d="M307.92,483.6c-18.6,0-28.32-13.439-32.76-27.84c-5.16-16.68-5.88-36.12,2.04-50.399
		c14.64-26.4,26.64-54,29.76-91.68c9.96,11.52,9,43.56,15.72,59.76C329.28,389.76,345,407.04,345,426v4.2
		c0,24.96-11.16,53.28-35.4,53.28h-1.68V483.6z M306.36,487.8h4.8c25.32,0,38.52-29.16,38.52-54.84v-7.44
		c0-23.64-19.199-39.479-24.72-60.24c-6-22.32-4.32-52.92-22.8-62.76c0,21.6-3.36,39.96-9,55.92c-2.88,8.16-5.88,15.6-9.12,23.64
		c-2.88,6.84-7.8,14.52-11.28,21.479c-3.48,6.721-7.44,15.36-6.6,26.16c0.96,11.04,1.44,19.08,4.44,28.32
		C275.52,472.8,287.28,487.8,306.36,487.8z"/>
</g>
</svg>
