<?xml version="1.0" encoding="utf-8"?>
<!-- Generator: Adobe Illustrator 16.0.0, SVG Export Plug-In . SVG Version: 6.00 Build 0)  -->
<!DOCTYPE svg PUBLIC "-//W3C//DTD SVG 1.1//EN" "http://www.w3.org/Graphics/SVG/1.1/DTD/svg11.dtd">
<svg version="1.1" id="Version_1.0" xmlns="http://www.w3.org/2000/svg" xmlns:xlink="http://www.w3.org/1999/xlink" x="0px" y="0px"
	 width="612px" height="792px" viewBox="0 0 612 792" enable-background="new 0 0 612 792" xml:space="preserve">
<g id="octagon" display="none">
	<g id="outFrame" display="inline">
		<line fill="none" stroke="#0000FF" stroke-width="2" x1="220" y1="309.5" x2="306" y2="273"/>
		<line fill="none" stroke="#0000FF" stroke-width="2" x1="306" y1="273" x2="390.5" y2="309.5"/>
		<line fill="none" stroke="#0000FF" stroke-width="2" x1="390.5" y1="309.5" x2="427" y2="396"/>
		<line fill="none" stroke="#0000FF" stroke-width="2" x1="427" y1="396" x2="390.5" y2="482.5"/>
		<line fill="none" stroke="#0000FF" stroke-width="2" x1="390.5" y1="482.5" x2="306" y2="516"/>
		<line fill="none" stroke="#0000FF" stroke-width="2" x1="306" y1="516" x2="220" y2="482.5"/>
		<line fill="none" stroke="#0000FF" stroke-width="2" x1="220" y1="482.5" x2="183" y2="396"/>
		<line fill="none" stroke="#0000FF" stroke-width="2" x1="183" y1="396" x2="220" y2="309.5"/>
	</g>
	
		<line id="mod2_1_" display="inline" fill="none" stroke="#0000FF" stroke-width="2" x1="203.966" y1="445.015" x2="406.199" y2="445.295"/>
	
		<line id="mod1_1_" display="inline" fill="none" stroke="#0000FF" stroke-width="2" x1="203.966" y1="346.985" x2="406.199" y2="346.705"/>
</g>
<g id="main">
	<path id="_119021864" fill="#FFFE6F" d="M287.6,387.1c0,19-29.8,24.6-31.1,51c-0.9,17.101,18.7,49.9,35.7,49.9h27.5
		c18.1,0,35-29.5,35.7-46.5c1.199-30.4-31.101-33.9-31.101-54.4v-82.5h-36.7V387.1z"/>
	<path id="_67510408" d="M287.6,304.6h36.7v82.5c0,20.5,32.3,24,31.101,54.4c-0.7,17.1-17.5,46.5-35.7,46.5h-27.5
		c-17.1,0-36.6-32.8-35.7-49.9c1.4-26.399,31.1-32,31.1-51V304.6z M250.9,442.2c0,17.1,19.8,50.399,36.7,50.399h36.7
		c20.2,0,36.7-32.6,36.7-55c0-29.6-32.1-34-32.1-55v-87.2H283v87.1C283,402.1,250.9,404.3,250.9,442.2L250.9,442.2z"/>
	<text id="_66152456" transform="matrix(1 0 0 1 277.98 467.0195)" font-family="sans-serif" font-size="71.7953">C</text>
</g>
</svg>
