<?xml version="1.0" encoding="utf-8"?>
<!-- Generator: Adobe Illustrator 16.0.0, SVG Export Plug-In . SVG Version: 6.00 Build 0)  -->
<!DOCTYPE svg PUBLIC "-//W3C//DTD SVG 1.1//EN" "http://www.w3.org/Graphics/SVG/1.1/DTD/svg11.dtd">
<svg version="1.1" id="Version_1.0" xmlns="http://www.w3.org/2000/svg" xmlns:xlink="http://www.w3.org/1999/xlink" x="0px" y="0px"
	 width="612px" height="792px" viewBox="0 0 612 792" enable-background="new 0 0 612 792" xml:space="preserve">
<g id="octagon" display="none">
	<g id="outFrame" display="inline">
		<line fill="none" stroke="#0000FF" stroke-width="2" x1="220" y1="309.5" x2="306" y2="273"/>
		<line fill="none" stroke="#0000FF" stroke-width="2" x1="306" y1="273" x2="390.5" y2="309.5"/>
		<line fill="none" stroke="#0000FF" stroke-width="2" x1="390.5" y1="309.5" x2="427" y2="396"/>
		<line fill="none" stroke="#0000FF" stroke-width="2" x1="427" y1="396" x2="390.5" y2="482.5"/>
		<line fill="none" stroke="#0000FF" stroke-width="2" x1="390.5" y1="482.5" x2="306" y2="516"/>
		<line fill="none" stroke="#0000FF" stroke-width="2" x1="306" y1="516" x2="220" y2="482.5"/>
		<line fill="none" stroke="#0000FF" stroke-width="2" x1="220" y1="482.5" x2="183" y2="396"/>
		<line fill="none" stroke="#0000FF" stroke-width="2" x1="183" y1="396" x2="220" y2="309.5"/>
	</g>
	
		<line id="mod2_1_" display="inline" fill="none" stroke="#0000FF" stroke-width="2" x1="203.966" y1="445.015" x2="406.199" y2="445.295"/>
	
		<line id="mod1_1_" display="inline" fill="none" stroke="#0000FF" stroke-width="2" x1="203.966" y1="346.985" x2="406.199" y2="346.705"/>
</g>
<g id="main">
	<path stroke="#000000" stroke-width="5" d="M234.79,363.09h178.33h-97.75v5.95c0,5.61-5.271,6.12-7.65,9.86
		c-2.38,3.74-1.529,11.22,1.19,14.28c9.689,11.39-4.08,16.66-4.08,24.31c0,3.399,4.25,10.71,4.25,14.96c0,4.59-6.97,5.439-6.97,9.01
		v2.21c0,6.12,4.93,9.69,4.93,11.9c0,5.95-4.76,6.29-6.12,14.45c-1.36,8.84,0,10.199-10.71,10.199h-0.85
		c-5.95,0-5.44-7.14-6.97-11.899c-1.7-4.76-8.33-3.57-8.33-11.221v-1.529c0-1.7,2.04-2.891,2.04-6.63c0-4.931-11.22-3.91-11.22-9.69
		c0-4.42,1.36-6.63,1.36-10.37c0-6.97-13.94-8.33-13.43-15.64l0.85-11.22c-2.04-3.57-9.01-8.84-9.01-11.221v-1.53
		c0-2.21,0.68-3.06,0.85-4.25L234.79,363.09h-37.57H234.79L234.79,363.09z"/>
</g>
</svg>
