<?xml version="1.0" encoding="utf-8"?>
<!-- Generator: Adobe Illustrator 16.0.0, SVG Export Plug-In . SVG Version: 6.00 Build 0)  -->
<!DOCTYPE svg PUBLIC "-//W3C//DTD SVG 1.1//EN" "http://www.w3.org/Graphics/SVG/1.1/DTD/svg11.dtd">
<svg version="1.1" id="Version_1.0" xmlns="http://www.w3.org/2000/svg" xmlns:xlink="http://www.w3.org/1999/xlink" x="0px" y="0px"
	 width="612px" height="792px" viewBox="0 0 612 792" enable-background="new 0 0 612 792" xml:space="preserve">
<g id="octagon" display="none">
	<g id="outFrame" display="inline">
		<line fill="none" stroke="#0000FF" stroke-width="2" x1="220" y1="309.5" x2="306" y2="273"/>
		<line fill="none" stroke="#0000FF" stroke-width="2" x1="306" y1="273" x2="390.5" y2="309.5"/>
		<line fill="none" stroke="#0000FF" stroke-width="2" x1="390.5" y1="309.5" x2="427" y2="396"/>
		<line fill="none" stroke="#0000FF" stroke-width="2" x1="427" y1="396" x2="390.5" y2="482.5"/>
		<line fill="none" stroke="#0000FF" stroke-width="2" x1="390.5" y1="482.5" x2="306" y2="516"/>
		<line fill="none" stroke="#0000FF" stroke-width="2" x1="306" y1="516" x2="220" y2="482.5"/>
		<line fill="none" stroke="#0000FF" stroke-width="2" x1="220" y1="482.5" x2="183" y2="396"/>
		<line fill="none" stroke="#0000FF" stroke-width="2" x1="183" y1="396" x2="220" y2="309.5"/>
	</g>
	
		<line id="mod2_1_" display="inline" fill="none" stroke="#0000FF" stroke-width="2" x1="203.966" y1="445.015" x2="406.199" y2="445.295"/>
	
		<line id="mod1_1_" display="inline" fill="none" stroke="#0000FF" stroke-width="2" x1="203.966" y1="346.985" x2="406.199" y2="346.705"/>
</g>
<g id="main">
	<path id="_64483584" d="M288.225,394.27v1.08c0,8.521,7.32,15.84,15.84,15.84h1.08c8.16,0,15.84-7.439,15.84-15.239v-2.28
		c0-8.04-8.16-15.24-16.44-15.24C296.145,378.43,288.225,385.51,288.225,394.27z"/>
	<g>
		
			<ellipse fill="none" stroke="#070404" stroke-width="10" stroke-miterlimit="10" stroke-dasharray="19.8714,9.9357" cx="304.605" cy="394.81" rx="38.531" ry="37.388"/>
	</g>
	<g>
		
			<ellipse fill="none" stroke="#070404" stroke-width="8" stroke-miterlimit="10" stroke-dasharray="15.123,10.082" cx="304.605" cy="394.81" rx="65.154" ry="63.22"/>
	</g>
	<g>
		
			<ellipse fill="none" stroke="#070404" stroke-width="7" stroke-miterlimit="10" stroke-dasharray="25.6197,15.3718" cx="304.605" cy="394.809" rx="92.32" ry="90.34"/>
	</g>
</g>
</svg>
