<?xml version="1.0" encoding="utf-8"?>
<!-- Generator: Adobe Illustrator 16.0.0, SVG Export Plug-In . SVG Version: 6.00 Build 0)  -->
<!DOCTYPE svg PUBLIC "-//W3C//DTD SVG 1.1//EN" "http://www.w3.org/Graphics/SVG/1.1/DTD/svg11.dtd">
<svg version="1.1" id="Version_1.0" xmlns="http://www.w3.org/2000/svg" xmlns:xlink="http://www.w3.org/1999/xlink" x="0px" y="0px"
	 width="612px" height="792px" viewBox="0 0 612 792" enable-background="new 0 0 612 792" xml:space="preserve">
<g id="octagon" display="none">
	<g id="outFrame" display="inline">
		<line fill="none" stroke="#0000FF" stroke-width="2" x1="220" y1="309.5" x2="306" y2="273"/>
		<line fill="none" stroke="#0000FF" stroke-width="2" x1="306" y1="273" x2="390.5" y2="309.5"/>
		<line fill="none" stroke="#0000FF" stroke-width="2" x1="390.5" y1="309.5" x2="427" y2="396"/>
		<line fill="none" stroke="#0000FF" stroke-width="2" x1="427" y1="396" x2="390.5" y2="482.5"/>
		<line fill="none" stroke="#0000FF" stroke-width="2" x1="390.5" y1="482.5" x2="306" y2="516"/>
		<line fill="none" stroke="#0000FF" stroke-width="2" x1="306" y1="516" x2="220" y2="482.5"/>
		<line fill="none" stroke="#0000FF" stroke-width="2" x1="220" y1="482.5" x2="183" y2="396"/>
		<line fill="none" stroke="#0000FF" stroke-width="2" x1="183" y1="396" x2="220" y2="309.5"/>
	</g>
	
		<line id="mod2_1_" display="inline" fill="none" stroke="#0000FF" stroke-width="2" x1="203.966" y1="445.015" x2="406.199" y2="445.295"/>
	
		<line id="mod1_1_" display="inline" fill="none" stroke="#0000FF" stroke-width="2" x1="203.966" y1="346.985" x2="406.199" y2="346.705"/>
</g>
<g id="main">
	<path id="_64907552" d="M317.6,340.48c2.4,2.88,3.521,7.04,5.601,10.4c0.96,1.6,7.2,8.32,7.2,8.8c0,1.92-2.24,5.76-3.2,5.76
		C320.48,365.44,317.6,348.64,317.6,340.48z M313.12,337.6c-0.64,2.4-4.8,11.2-6.24,14.08c-2.24,4.48-4.8,8.8-11.04,8.8
		c-1.28,0-2.56-1.12-2.56-1.92c0-7.84,9.6-14.4,12.96-18.88L313.12,337.6z M336.8,359.04h-1.92c-5.76,0-17.28-20-17.28-24.32
		c0-0.16,0.641-1.28,0.641-1.28c4.319,1.28,19.84,14.88,19.84,21.76C338.08,356.48,337.12,357.28,336.8,359.04z M338.24,344.16
		c-1.76-0.8-4.16-2.4-6.08-3.36c-3.521-1.92-8.8-7.2-11.68-8.16l2.72-3.2c7.84,3.84,25.28,3.2,25.28,14.24
		c0,0.8-1.921,2.08-2.561,2.56C344,345.44,340.96,345.28,338.24,344.16z M276,347.52h-2.56c2.4-4.96-5.44-16.64-10.88-17.92
		c-5.6,3.04-10.56,1.6-13.76,8.16c-1.12,2.56-1.76,5.6-3.84,7.04c-1.92,1.44-6.08,1.92-6.08,4.64c0,3.84,10.72,1.12,12.32-0.48
		c2.88-2.72,5.92-5.28,11.36-5.28c4.96,0,7.36,14.4,7.68,20.48c0.48,8-5.76,19.36-5.44,23.68l2.24,16.96l-10.88-0.8
		c5.28,7.84,21.28,15.04,33.6,16l-0.96-19.2l-14.08,3.2c0-10.88-4.96-13.76-1.28-23.68c1.6-4.16,2.56-5.44,2.4-11.68
		c0-2.72,0.48-11.52,1.44-13.28c3.84-6.24,4.8-13.92,7.68-21.12c3.04-7.04,12.48-6.56,20.64-8.64l3.04,3.2l-2.56,0.8l1.92,4.48
		c-4.32,4.96-7.36,7.2-11.36,12.48c-1.92,2.56-9.6,15.84-1.6,15.84h2.56c9.76,0,12.8-17.76,17.28-23.04
		c1.12,11.04,3.04,23.84,11.04,28c4.32-0.96,5.44-2.72,6.4-7.04c1.76,0.48,1.279,0.64,2.56,0.64c3.36,0,5.12-2.72,5.12-5.76v-0.64
		c0-5.28-2.88-5.92-3.84-9.6c1.92,0.96,5.439,2.56,8.32,2.56h1.279c3.04,0,3.36-1.44,4.48-3.2c-0.48-6.24-3.84-9.76-8.8-11.52
		c-3.2-1.12-12.96-4.32-16.801-4.32l1.28-2.56h-1.76l1.92-4l-12.32,2.56c-2.24-1.44-3.04-3.84-6.399-3.84h-4.48
		C284.96,320.64,276,329.76,276,347.52L276,347.52z"/>
	<path id="_65682552" d="M215.04,428.32c3.2,0,14.56,1.76,17.28,2.56c3.52,0.96,11.68,5.76,14.08,5.76h7.04
		c2.4,0,2.24-0.8,4.16-1.279l4.32-20.641l-12.96-11.359l-22.4-5.12c-1.12,4.16-6.08,7.52-7.68,12.64
		C218.24,412.64,215.2,426.56,215.04,428.32z"/>
	<path id="_65664272" d="M295.36,400.32v1.92c0,5.6-0.16,8.16,0,13.439c0.32,8.16-0.8,6.24,7.68,7.04c2.88,0.32,8.64,2.4,11.2,3.521
		c1.76,0.96,3.84,1.279,5.12,1.92c2.08,0.96,0.64,1.6,4.159,3.52l-0.479-0.479l13.92-11.681c7.84,0,10.4,0.961,14.56-3.359
		c6.08-6.24,2.08-3.521,10.08-7.68l1.601-7.681c-6.24,1.601-13.76,5.601-20.48,2.72c-6.399-2.72-9.439-7.039-18.56-7.039l-4-0.641
		L295.36,400.32z"/>
	<path id="_65682440" d="M372.64,397.6c-2.399,10.24-1.76,8.801,2.4,17.44c2.88,5.92,4.96,10.88,7.84,16.479
		c14.4-1.279,15.521-1.279,23.521-9.119c4-4,2.56-16.96,5.119-20.801c-6.239-3.04-4.159-1.6-11.52-3.359
		C388.64,395.68,383.52,397.28,372.64,397.6z"/>
	<path id="_65445832" d="M197.92,403.2l7.52,30.24c1.76-7.521,5.44-11.36,6.88-18.24c0.8-4.48,0.16-6.561,2.24-9.92
		c1.12-1.761,3.2-6.88,3.68-9.12c-3.52-0.8-17.28-4-21.44-4L197.92,403.2z"/>
	<path id="_65907856" d="M261.6,434.72c-0.16,4.8,19.2,3.84,23.36,3.84H292c0-4.159-1.76-7.04-1.92-10.88
		c-0.32-6.239-0.96-4.479-7.68-5.279c-10.08-1.12-11.52-5.12-19.2-7.04L261.6,434.72z"/>
	<path id="_65663696" d="M389.92,435.36c-2.24,0-2.4-0.48-4.8-0.48l2.56,6.08l6.721-6.88C392.16,434.56,392.32,435.36,389.92,435.36
		z"/>
	<path id="_65663792" d="M295.84,434.08c0,9.28,1.28,10.56,5.44,18.24l21.28-17.761l-0.479-0.479c-4.16-0.96-6.08-3.68-12-5.44
		c-4-1.12-10.24-3.199-14.4-3.52v8.96H295.84z"/>
	<path id="_65663888" d="M302.88,456.48l16.8-0.641l46.4-4.16c3.84-1.12,11.2-0.96,15.04-3.52c-3.2-6.561-5.92-10.24-9.28-16.48
		c-3.52-6.399-4.64-12.16-7.52-18.08c-9.28,2.08-11.84,8.801-15.681,9.92c-8.64,2.721-12,1.12-16.8,9.44
		c-4.32,7.521-6.24,8.32-13.28,12.96C312.48,450.08,309.44,452.96,302.88,456.48z"/>
	<path id="_131168192" d="M213.12,441.12c-1.6,4.64,44,17.28,51.36,18.56c6.72-4.479,11.2-6.08,12-16.64
		c-9.92,0-28.48-1.92-36.96-4.16c-5.6-1.439-10.4-2.88-16-4.32C214.88,432.32,213.12,430.72,213.12,441.12z"/>
	<path id="_65663216" d="M273.28,458.56c3.36,1.601,11.2,0,15.2,0h10.56l-5.12-14.72l-12.16-0.8
		C267.52,469.92,275.68,453.76,273.28,458.56z"/>
</g>
</svg>
