<?xml version="1.0" encoding="utf-8"?>
<!-- Generator: Adobe Illustrator 16.0.0, SVG Export Plug-In . SVG Version: 6.00 Build 0)  -->
<!DOCTYPE svg PUBLIC "-//W3C//DTD SVG 1.1//EN" "http://www.w3.org/Graphics/SVG/1.1/DTD/svg11.dtd">
<svg version="1.1" id="Version_1.0" xmlns="http://www.w3.org/2000/svg" xmlns:xlink="http://www.w3.org/1999/xlink" x="0px" y="0px"
	 width="612px" height="792px" viewBox="0 0 612 792" enable-background="new 0 0 612 792" xml:space="preserve">
<g id="octagon" display="none">
	<g id="outFrame" display="inline">
		<line fill="none" stroke="#0000FF" stroke-width="2" x1="220" y1="309.5" x2="306" y2="273"/>
		<line fill="none" stroke="#0000FF" stroke-width="2" x1="306" y1="273" x2="390.5" y2="309.5"/>
		<line fill="none" stroke="#0000FF" stroke-width="2" x1="390.5" y1="309.5" x2="427" y2="396"/>
		<line fill="none" stroke="#0000FF" stroke-width="2" x1="427" y1="396" x2="390.5" y2="482.5"/>
		<line fill="none" stroke="#0000FF" stroke-width="2" x1="390.5" y1="482.5" x2="306" y2="516"/>
		<line fill="none" stroke="#0000FF" stroke-width="2" x1="306" y1="516" x2="220" y2="482.5"/>
		<line fill="none" stroke="#0000FF" stroke-width="2" x1="220" y1="482.5" x2="183" y2="396"/>
		<line fill="none" stroke="#0000FF" stroke-width="2" x1="183" y1="396" x2="220" y2="309.5"/>
	</g>
	
		<line id="mod2_1_" display="inline" fill="none" stroke="#0000FF" stroke-width="2" x1="203.966" y1="445.015" x2="406.199" y2="445.295"/>
	
		<line id="mod1_1_" display="inline" fill="none" stroke="#0000FF" stroke-width="2" x1="203.966" y1="346.985" x2="406.199" y2="346.705"/>
</g>
<g id="main">
	<path d="M289.76,349.76c0-5.12,4.48-6.72,4.48-10.72c0-2.56-1.44-3.84-2.88-4.96c-6.88,0.64-16.16,1.6-18.4,6.72
		c-1.28,2.88-1.28,6.08-2.88,9.76c-1.28,2.56-2.88,6.08-2.88,9.6c0,2.08,0.96,1.76,0.96,4v1.92c0,5.44-5.92,8.64-1.44,15.2
		c-0.48,0.64-4.96,3.84-5.92,4.32c-4.32,2.4-4.48-1.44-6.4-1.44h-1.92l-0.64-2.88c-1.28-0.8-2.4-2.08-4.32-2.08s-2.08,1.28-1.44,2.4
		l-5.28,1.12l-2.08,5.76h2.56c2.24,0,3.52,1.12,4,2.88l-3.84,2.88l-0.16,1.12c7.04,0.64,11.52-1.44,17.92-3.04
		c3.68-0.96,16.96-1.6,18.24-2.4l0.16-5.44c2.4,0.64,5.12,3.2,7.68,4.16c2.88,1.12,4.16,1.92,7.84,3.04
		c6.08,1.6,11.2,2.88,19.2,2.88h1.439l15.2-1.44c0,6.56,5.76,6.24,6.88,11.2c-3.359-0.801-5.76-4.96-8.8-4.96
		c-0.16,0-0.96,0.319-1.44,0.479l0.641,2.88l-4,0.641v1.92l1.6,1.12l-2.24,1.6l2.4,2.4c-0.48,2.08-1.76,1.439-1.76,3.199
		c0,1.12,0.32,1.44,1.439,1.44c1.601,0,4-2.4,6.88-2.4c4.641,0,20.641,2.08,20.641-1.92v-0.479c0-3.681-8.64-4-8.32-13.76
		c12.48,6.56,23.36,18.56,11.36,33.92c-3.84,4.96-10.24,8.96-16.8,11.199c-3.521,1.28-18.561,4.641-23.36,3.681
		c-10.56-1.92-13.44-1.92-21.92-6.08c-6.4-3.04-11.68-6.24-17.6-9.92c-9.76-5.92-25.12-15.2-40.16-15.2
		c-12.48,0-28.48,7.84-28.48,19.68c2.88-1.6,3.2-3.2,5.28-5.6c1.28-1.44,4.32-3.2,6.08-4.32c3.84-2.56,9.76-4.479,16.16-4.479h2.4
		c10.88,0,29.12,11.84,36.32,16.64c11.2,7.68,20.16,13.76,36.64,16.64c17.601,3.04,31.84-0.159,43.521-6.88
		c4.8-2.72,10.72-8.16,13.76-12.64c2.56-4,7.36-13.601,6.72-20l-0.8-6.4c0.64,0.16,7.04,9.28,9.12,11.36
		c1.92,2.08,9.6,6.24,13.28,6.24c2.399,0,10.88-5.601,11.84-7.36l-3.36-1.6l2.88-2.561c-3.68-2.56-1.92-1.6-6.08-1.6h-2.399
		c0-3.521-0.8-4.48-3.36-4l0.48,0.319l-4.16,8.48c-3.521,0-7.36-2.24-8.96-4.48c0-0.159-3.36-9.439-3.36-9.76
		c-1.439-4.96-1.6-5.6-4.479-8.96c-3.04-3.36-4.641-2.88-8.48-4.8l-0.16,1.6c-1.6-4.48-15.52-16.16-20.16-18.56
		c-5.439-2.88-8-3.04-14.88-4.32c-5.279-0.8-13.439,0.64-17.439-1.28c0.96-3.84,4-1.44,4-5.44c0-1.28-1.761-0.96-2.88-0.96
		c1.439-2.88-0.641-2.4-3.36-2.4c0.32-0.64,0.96-1.6,0.96-2.4c0-0.64-0.64-0.96-1.44-0.96c-1.119,0,0,1.44-3.359,1.44
		c-0.8-2.56-0.64-3.36-3.68-3.52v4h-3.36v1.44c0,1.92,1.6,3.84,2.4,5.44c-0.96,1.76-0.64,4.96-3.52,4.96
		c-1.44,0-4.48-3.84-7.68-4.64c-3.36-0.96-7.52,1.28-7.52-3.84C282.88,356.32,288.16,352.32,289.76,349.76L289.76,349.76z"/>
</g>
</svg>
