<?xml version="1.0" encoding="utf-8"?>
<!-- Generator: Adobe Illustrator 16.0.0, SVG Export Plug-In . SVG Version: 6.00 Build 0)  -->
<!DOCTYPE svg PUBLIC "-//W3C//DTD SVG 1.1//EN" "http://www.w3.org/Graphics/SVG/1.1/DTD/svg11.dtd">
<svg version="1.1" id="Version_1.0" xmlns="http://www.w3.org/2000/svg" xmlns:xlink="http://www.w3.org/1999/xlink" x="0px" y="0px"
	 width="612px" height="792px" viewBox="0 0 612 792" enable-background="new 0 0 612 792" xml:space="preserve">
<g id="octagon" display="none">
	<g id="outFrame" display="inline">
		<line fill="none" stroke="#0000FF" stroke-width="2" x1="220" y1="309.5" x2="306" y2="273"/>
		<line fill="none" stroke="#0000FF" stroke-width="2" x1="306" y1="273" x2="390.5" y2="309.5"/>
		<line fill="none" stroke="#0000FF" stroke-width="2" x1="390.5" y1="309.5" x2="427" y2="396"/>
		<line fill="none" stroke="#0000FF" stroke-width="2" x1="427" y1="396" x2="390.5" y2="482.5"/>
		<line fill="none" stroke="#0000FF" stroke-width="2" x1="390.5" y1="482.5" x2="306" y2="516"/>
		<line fill="none" stroke="#0000FF" stroke-width="2" x1="306" y1="516" x2="220" y2="482.5"/>
		<line fill="none" stroke="#0000FF" stroke-width="2" x1="220" y1="482.5" x2="183" y2="396"/>
		<line fill="none" stroke="#0000FF" stroke-width="2" x1="183" y1="396" x2="220" y2="309.5"/>
	</g>
	
		<line id="mod2_1_" display="inline" fill="none" stroke="#0000FF" stroke-width="2" x1="203.966" y1="445.015" x2="406.199" y2="445.295"/>
	
		<line id="mod1_1_" display="inline" fill="none" stroke="#0000FF" stroke-width="2" x1="203.966" y1="346.985" x2="406.199" y2="346.705"/>
</g>
<g id="main">
	<path d="M252.98,377.2l-46.07,7.31v0.85l16.49,1.19c-1.87,1.36-8.33,2.72-11.22,3.74c-6.46,2.21-5.1,0.85-8.67,6.12l8.5,0.17
		l-2.55,2.38c4.42,0,8.16,0.17,11.9,0.51c3.57,0.34,4.76-3.229,8.84-3.57c7.48-0.51,14.28,0.51,23.29,0.68l-2.04,1.36
		c1.53,0.17,1.7,0.51,3.4,0.51h3.91l0.34,2.21l7.31,3.06l3.91-0.34c4.08,2.72,4.76,5.78,12.92,5.95c0.51,6.8,1.53,9.52,7.48,10.88
		v2.04c0,5.44,0.51,11.9,5.27,12.41l3.06,13.26h-1.02v1.021c-0.85-0.681-3.4-2.891-4.42-2.891h-0.51c-1.36,0-1.36,0.17-2.55,0.51
		c1.53,2.04,6.63,4.25,7.65,6.631c1.36,3.909,0.34,9.52,0.51,13.26l2.21,1.53l2.04-0.341l0.17-2.04l-0.17-6.8
		c1.7,1.19,6.8,7.48,8.33,7.48h2.55c-1.189-4.931-4.59-5.95-6.8-9.69l9.35,2.72c-2.55-3.739-2.21-4.42-7.14-5.779
		c-7.65-2.04-4.59-4.761-7.65-5.61l-2.55-13.43c2.38-0.51,3.4-2.55,3.4-5.44l0.17-3.91l-0.68-6.46h2.55c1.87,0,1.7-0.51,3.399-1.02
		c0.17,3.91,2.891,8.33,6.801,8.5l7.649,15.81c-0.68,0.851-1.02,0.851-1.02,2.04v1.7l-10.88-2.21v0.51
		c2.04,1.87,9.18,4.25,12.75,6.971c2.72,2.039,3.06,1.529,5.1,4.76c0.85,1.359,3.229,5.609,4.76,5.609h2.04l0.51-0.34l-4.25-7.99
		l10.71,4.761c-0.17-5.271-5.27-3.74-9.01-6.971h7.48c-3.23-2.72-3.91-2.21-8.84-2.89c-4.08-0.51-4.25-2.89-6.631-5.27
		c-2.72-2.891-5.1-12.24-7.31-16.49c3.06-4.59,2.55-3.57,2.55-10.88c12.07-5.78,13.94-5.271,23.29-14.79
		c6.8-6.8,9.86-15.13,14.45-24.14c2.21-4.59,3.74-8.33,5.61-13.09c1.869-4.42,1.699-11.73,3.569-15.64
		c5.78-11.56,22.44-7.99,25.67-12.92l-10.88,0.51v-0.51l12.41-1.53c-5.61-4.76-12.07-3.4-20.74-4.42
		c-5.27-0.68-7.14,1.87-11.05-0.85c-3.57-2.38-3.91-2.89-9.18-3.74c-7.65-1.36-13.94,2.89-18.53,6.29
		c-4.25,3.23-7.99,12.92-10.54,15.13c-0.68,0.51-15.3,6.8-17.68,7.99c-7.31,3.74-8.84,6.29-18.19,7.82
		C272.7,363.94,263.86,369.89,252.98,377.2L252.98,377.2z"/>
</g>
</svg>
