<?xml version="1.0" encoding="utf-8"?>
<!-- Generator: Adobe Illustrator 16.0.0, SVG Export Plug-In . SVG Version: 6.00 Build 0)  -->
<!DOCTYPE svg PUBLIC "-//W3C//DTD SVG 1.1//EN" "http://www.w3.org/Graphics/SVG/1.1/DTD/svg11.dtd">
<svg version="1.1" id="Version_1.0" xmlns="http://www.w3.org/2000/svg" xmlns:xlink="http://www.w3.org/1999/xlink" x="0px" y="0px"
	 width="612px" height="792px" viewBox="0 0 612 792" enable-background="new 0 0 612 792" xml:space="preserve">
<g id="octagon" display="none">
	<g id="outFrame" display="inline">
		<line fill="none" stroke="#0000FF" stroke-width="2" x1="220" y1="309.5" x2="306" y2="273"/>
		<line fill="none" stroke="#0000FF" stroke-width="2" x1="306" y1="273" x2="390.5" y2="309.5"/>
		<line fill="none" stroke="#0000FF" stroke-width="2" x1="390.5" y1="309.5" x2="427" y2="396"/>
		<line fill="none" stroke="#0000FF" stroke-width="2" x1="427" y1="396" x2="390.5" y2="482.5"/>
		<line fill="none" stroke="#0000FF" stroke-width="2" x1="390.5" y1="482.5" x2="306" y2="516"/>
		<line fill="none" stroke="#0000FF" stroke-width="2" x1="306" y1="516" x2="220" y2="482.5"/>
		<line fill="none" stroke="#0000FF" stroke-width="2" x1="220" y1="482.5" x2="183" y2="396"/>
		<line fill="none" stroke="#0000FF" stroke-width="2" x1="183" y1="396" x2="220" y2="309.5"/>
	</g>
	
		<line id="mod2_1_" display="inline" fill="none" stroke="#0000FF" stroke-width="2" x1="203.966" y1="445.015" x2="406.199" y2="445.295"/>
	
		<line id="mod1_1_" display="inline" fill="none" stroke="#0000FF" stroke-width="2" x1="203.966" y1="346.985" x2="406.199" y2="346.705"/>
</g>
<g id="main">
	<polygon id="_65492976" points="322.1,323.8 303.7,313.9 302.1,316.6 320,327.7 302,337.9 303.5,341.4 322.1,330.4 322.1,351.4 
		326.1,351.4 326.2,330.6 344,341.3 345.9,338 327.5,327.7 346.3,316.7 343.7,313.8 326.1,323.8 326.1,303.2 322.1,303.2 	"/>
	<polygon id="_66340648" points="227.6,480 352.3,480 331.1,455 341.8,451.9 313.8,350.3 	"/>
	<polygon id="_65105008" points="335.7,366.2 363.2,461.3 351.6,465.1 375.7,488 383.4,455.5 372,458.9 344.7,363.9 	"/>
</g>
</svg>
