<?xml version="1.0" encoding="utf-8"?>
<!-- Generator: Adobe Illustrator 16.0.0, SVG Export Plug-In . SVG Version: 6.00 Build 0)  -->
<!DOCTYPE svg PUBLIC "-//W3C//DTD SVG 1.1//EN" "http://www.w3.org/Graphics/SVG/1.1/DTD/svg11.dtd">
<svg version="1.1" id="Version_1.0" xmlns="http://www.w3.org/2000/svg" xmlns:xlink="http://www.w3.org/1999/xlink" x="0px" y="0px"
	 width="400px" height="400px" viewBox="0 0 400 400" enable-background="new 0 0 400 400" xml:space="preserve">
<g id="main">
	<line fill="none" stroke="#000000" stroke-width="20" x1="49" y1="364" x2="349" y2="364"/>
	<circle fill="none" stroke="#000000" stroke-width="10" cx="199" cy="139" r="40"/>
	<line fill="none" stroke="#000000" stroke-width="10" x1="124" y1="364" x2="165" y2="160"/>
	<line fill="none" stroke="#000000" stroke-width="10" x1="274" y1="364" x2="233" y2="160"/>
	<g transform="rotate(-90 200 125)">
		<g>
			<g id="rayOfLight">
				<line fill="none" stroke="#000000" stroke-width="10" x1="186" y1="9" x2="186" y2="69"/>
			</g>
		</g>
	</g>
	<g transform="rotate(-67.5 200 125)">
		<g>
			<g id="rayOfLight_1_">
				<line fill="none" stroke="#000000" stroke-width="10" x1="186.683" y1="14.434" x2="186.682" y2="74.434"/>
			</g>
		</g>
	</g>
	<g transform="rotate(-45 200 125)">
		<g>
			<g id="rayOfLight_2_">
				<line fill="none" stroke="#000000" stroke-width="10" x1="189.393" y1="19.192" x2="189.393" y2="79.193"/>
			</g>
		</g>
	</g>
	<g transform="rotate(-22.5 200 125)">
		<g>
			<g id="rayOfLight_3_">
				<line fill="none" stroke="#000000" stroke-width="10" x1="193.718" y1="22.552" x2="193.719" y2="82.552"/>
			</g>
		</g>
	</g>
	<g>
		<g>
			<g id="rayOfLight_4_">
				<line fill="none" stroke="#000000" stroke-width="10" x1="199" y1="24" x2="199" y2="84"/>
			</g>
		</g>
	</g>
	<g transform="rotate(22.5 200 125)">
		<g>
			<g id="rayOfLight_5_">
				<line fill="none" stroke="#000000" stroke-width="10" x1="204.434" y1="23.317" x2="204.433" y2="83.317"/>
			</g>
		</g>
	</g>
	<g transform="rotate(45 200 125)">
		<g>
			<g id="rayOfLight_6_">
				<line fill="none" stroke="#000000" stroke-width="10" x1="209.192" y1="20.607" x2="209.192" y2="80.607"/>
			</g>
		</g>
	</g>
	<g transform="rotate(67.5 200 125)">
		<g>
			<g id="rayOfLight_7_">
				<line fill="none" stroke="#000000" stroke-width="10" x1="212.551" y1="16.281" x2="212.552" y2="76.281"/>
			</g>
		</g>
	</g>
	<g transform="rotate(90 200 125)">
		<g>
			<g id="rayOfLight_8_">
				<line fill="none" stroke="#000000" stroke-width="10" x1="214" y1="11" x2="214" y2="71"/>
			</g>
		</g>
	</g>
</g>
</svg>
