<?xml version="1.0" encoding="utf-8"?>
<!-- Generator: Adobe Illustrator 16.0.0, SVG Export Plug-In . SVG Version: 6.00 Build 0)  -->
<!DOCTYPE svg PUBLIC "-//W3C//DTD SVG 1.1//EN" "http://www.w3.org/Graphics/SVG/1.1/DTD/svg11.dtd">
<svg version="1.1" id="Version_1.0" xmlns="http://www.w3.org/2000/svg" xmlns:xlink="http://www.w3.org/1999/xlink" x="0px" y="0px"
	 width="400px" height="400px" viewBox="0 0 400 400" enable-background="new 0 0 400 400" xml:space="preserve">
<g id="main">
	<text transform="matrix(1 0 0 1 67.6846 118)" fill="#808080" font-family="sans-serif" font-size="60">#</text>
	<text transform="matrix(1 0 0 1 67.6846 118)" fill="none" stroke="#808080" font-family="sans-serif" font-size="60">#</text>
	<text transform="matrix(1 0 0 1 317.6846 118)" fill="#808080" font-family="sans-serif" font-size="60">#</text>
	<text transform="matrix(1 0 0 1 317.6846 118)" fill="none" stroke="#808080" font-family="sans-serif" font-size="60">#</text>
	<text transform="matrix(1 0 0 1 190.6846 215)" fill="#808080" font-family="sans-serif" font-size="60">#</text>
	<text transform="matrix(1 0 0 1 190.6846 215)" fill="none" stroke="#808080" font-family="sans-serif" font-size="60">#</text>
	<text transform="matrix(1 0 0 1 67.6846 318)" fill="#808080" font-family="sans-serif" font-size="60">#</text>
	<text transform="matrix(1 0 0 1 67.6846 318)" fill="none" stroke="#808080" font-family="sans-serif" font-size="60">#</text>
	<text transform="matrix(1 0 0 1 317.6846 318)" fill="#808080" font-family="sans-serif" font-size="60">#</text>
	<text transform="matrix(1 0 0 1 317.6846 318)" fill="none" stroke="#808080" font-family="sans-serif" font-size="60">#</text>
</g>
</svg>
