<?xml version="1.0" encoding="utf-8"?>
<!-- Generator: Adobe Illustrator 16.0.0, SVG Export Plug-In . SVG Version: 6.00 Build 0)  -->
<!DOCTYPE svg PUBLIC "-//W3C//DTD SVG 1.1//EN" "http://www.w3.org/Graphics/SVG/1.1/DTD/svg11.dtd">
<svg version="1.1" id="Version_1.0" xmlns="http://www.w3.org/2000/svg" xmlns:xlink="http://www.w3.org/1999/xlink" x="0px" y="0px"
	 width="400px" height="400px" viewBox="0 0 400 400" enable-background="new 0 0 400 400" xml:space="preserve">
<g id="main">
	<g>
		<g id="kelp" transform="scale(0.25 0.25)">
			<path fill="none" stroke="#808080" stroke-width="7" d="M271.5,354.5c22.973-20.676,49.014-39.547,80-46
				c37.059-7.719,81.906,7.875,108-28"/>
			<path fill="none" stroke="#808080" stroke-width="7" d="M347.277,309.832c-43.969-7.328-80.516-35.457-105.445-76"/>
			<path fill="none" stroke="#808080" stroke-width="7" d="M282.5,280.5c-50.059-5.008-102.018,38.008-142,62"/>
			<path fill="none" stroke="#808080" stroke-width="7" d="M220.832,294.391c-52.047,0-87.924-24.668-135.332-38.891"/>
			<path fill="none" stroke="#808080" stroke-width="7" d="M131.5,274.5c0,0-22.5,15.75-30,21"/>
		</g>
	</g>
	<g>
		<g id="kelp_1_" transform="scale(0.25 0.25)">
			<path fill="none" stroke="#808080" stroke-width="7" d="M971.5,354.5c22.973-20.676,49.016-39.547,80-46
				c37.059-7.719,81.906,7.875,108-28"/>
			<path fill="none" stroke="#808080" stroke-width="7" d="M1047.277,309.832c-43.969-7.328-80.516-35.457-105.445-76"/>
			<path fill="none" stroke="#808080" stroke-width="7" d="M982.5,280.5c-50.059-5.008-102.016,38.008-142,62"/>
			<path fill="none" stroke="#808080" stroke-width="7" d="M920.832,294.391c-52.047,0-87.926-24.668-135.332-38.891"/>
			<path fill="none" stroke="#808080" stroke-width="7" d="M831.5,274.5c0,0-22.5,15.75-30,21"/>
		</g>
	</g>
	<g>
		<g id="kelp_2_" transform="scale(0.25 0.25)">
			<path fill="none" stroke="#808080" stroke-width="7" d="M671.5,854.5c22.973-20.676,49.016-39.547,80-46
				c37.059-7.719,81.906,7.875,108-28"/>
			<path fill="none" stroke="#808080" stroke-width="7" d="M747.277,809.832c-43.969-7.328-80.516-35.457-105.445-76"/>
			<path fill="none" stroke="#808080" stroke-width="7" d="M682.5,780.5c-50.059-5.008-102.016,38.008-142,62"/>
			<path fill="none" stroke="#808080" stroke-width="7" d="M620.832,794.391c-52.047,0-87.926-24.668-135.332-38.891"/>
			<path fill="none" stroke="#808080" stroke-width="7" d="M531.5,774.5c0,0-22.5,15.75-30,21"/>
		</g>
	</g>
	<g>
		<g id="kelp_3_" transform="scale(0.25 0.25)">
			<path fill="none" stroke="#808080" stroke-width="7" d="M1371.5,854.5c22.973-20.676,49.016-39.547,80-46
				c37.059-7.719,81.906,7.875,108-28"/>
			<path fill="none" stroke="#808080" stroke-width="7" d="M1447.277,809.832c-43.969-7.328-80.516-35.457-105.445-76"/>
			<path fill="none" stroke="#808080" stroke-width="7" d="M1382.5,780.5c-50.059-5.008-102.016,38.008-142,62"/>
			<path fill="none" stroke="#808080" stroke-width="7" d="M1320.832,794.391c-52.047,0-87.922-24.668-135.332-38.891"/>
			<path fill="none" stroke="#808080" stroke-width="7" d="M1231.5,774.5c0,0-22.5,15.75-30,21"/>
		</g>
	</g>
	<g>
		<g id="kelp_4_" transform="scale(0.25 0.25)">
			<path fill="none" stroke="#808080" stroke-width="7" d="M271.5,1354.5c22.973-20.676,49.014-39.547,80-46
				c37.059-7.719,81.906,7.875,108-28"/>
			<path fill="none" stroke="#808080" stroke-width="7" d="M347.277,1309.832c-43.969-7.324-80.516-35.457-105.445-76"/>
			<path fill="none" stroke="#808080" stroke-width="7" d="M282.5,1280.5c-50.059-5.008-102.018,38.008-142,62"/>
			<path fill="none" stroke="#808080" stroke-width="7" d="M220.832,1294.391c-52.047,0-87.924-24.668-135.332-38.891"/>
			<path fill="none" stroke="#808080" stroke-width="7" d="M131.5,1274.5c0,0-22.5,15.75-30,21"/>
		</g>
	</g>
	<g>
		<g id="kelp_5_" transform="scale(0.25 0.25)">
			<path fill="none" stroke="#808080" stroke-width="7" d="M971.5,1354.5c22.973-20.676,49.016-39.547,80-46
				c37.059-7.719,81.906,7.875,108-28"/>
			<path fill="none" stroke="#808080" stroke-width="7" d="M1047.277,1309.832c-43.969-7.324-80.516-35.457-105.445-76"/>
			<path fill="none" stroke="#808080" stroke-width="7" d="M982.5,1280.5c-50.059-5.008-102.016,38.008-142,62"/>
			<path fill="none" stroke="#808080" stroke-width="7" d="M920.832,1294.391c-52.047,0-87.926-24.668-135.332-38.891"/>
			<path fill="none" stroke="#808080" stroke-width="7" d="M831.5,1274.5c0,0-22.5,15.75-30,21"/>
		</g>
	</g>
</g>
</svg>
