<?xml version="1.0" encoding="utf-8"?>
<!-- Generator: Adobe Illustrator 16.0.0, SVG Export Plug-In . SVG Version: 6.00 Build 0)  -->
<!DOCTYPE svg PUBLIC "-//W3C//DTD SVG 1.1//EN" "http://www.w3.org/Graphics/SVG/1.1/DTD/svg11.dtd">
<svg version="1.1" id="Version_1.0" xmlns="http://www.w3.org/2000/svg" xmlns:xlink="http://www.w3.org/1999/xlink" x="0px" y="0px"
	 width="400px" height="400px" viewBox="0 0 400 400" enable-background="new 0 0 400 400" xml:space="preserve">
<g id="main">
	<g transform="scale(0.3 0.3) translate(467 860)">
		<line fill="none" stroke="#FF00FF" stroke-width="10" x1="196.333" y1="-30" x2="196.333" y2="270"/>
		<line fill="none" stroke="#FF00FF" stroke-width="10" x1="71.333" y1="45" x2="321.333" y2="45"/>
		<path fill="none" stroke="#FF00FF" stroke-width="10" d="M31.333,200c5,50,165,70,165,70s160-20,165-70"/>
	</g>
	<g>
		<g>
			<g>
				<g id="chevron" transform="scale(0.4 0.4) translate(300 0)">
					<line fill="none" stroke="#FF00FF" stroke-width="5" x1="162.5" y1="135" x2="232.5" y2="135"/>
					<path fill="none" stroke="#FF00FF" stroke-width="5" d="M171.5,135c14,40,37.999,40,52.001,0"/>
				</g>
			</g>
		</g>
		<g transform="rotate(15 200 200)">
			<g>
				<g id="chevron_1_" transform="scale(0.4 0.4) translate(300 0)">
					<line fill="none" stroke="#FF00FF" stroke-width="5" x1="149.643" y1="137.351" x2="219.643" y2="137.351"/>
					<path fill="none" stroke="#FF00FF" stroke-width="5" d="M158.644,137.351c14.001,40,38,39.998,52.001-0.002"/>
				</g>
			</g>
		</g>
		<g transform="rotate(30 200 200)">
			<g>
				<g id="chevron_2_" transform="scale(0.4 0.4) translate(300 0)">
					<line fill="none" stroke="#FF00FF" stroke-width="5" x1="137.836" y1="142.948" x2="207.834" y2="142.949"/>
					<path fill="none" stroke="#FF00FF" stroke-width="5" d="M146.834,142.947c14,40.001,38.001,40,52.001,0"/>
				</g>
			</g>
		</g>
		<g transform="rotate(45 200 200)">
			<g>
				<g id="chevron_3_" transform="scale(0.4 0.4) translate(300 0)">
					<line fill="none" stroke="#FF00FF" stroke-width="5" x1="127.877" y1="151.411" x2="197.876" y2="151.411"/>
					<path fill="none" stroke="#FF00FF" stroke-width="5" d="M136.875,151.412c14.002,39.997,38,39.999,52-0.001"/>
				</g>
			</g>
		</g>
		<g transform="rotate(60 200 200)">
			<g>
				<g id="chevron_4_" transform="scale(0.4 0.4) translate(300 0)">
					<line fill="none" stroke="#FF00FF" stroke-width="5" x1="120.447" y1="162.164" x2="190.449" y2="162.165"/>
					<path fill="none" stroke="#FF00FF" stroke-width="5" d="M129.448,162.165c14.002,39.999,38.001,39.999,52.001,0"/>
				</g>
			</g>
		</g>
		<g transform="rotate(75 200 200)">
			<g>
				<g id="chevron_5_" transform="scale(0.4 0.4) translate(300 0)">
					<line fill="none" stroke="#FF00FF" stroke-width="5" x1="116.054" y1="174.473" x2="186.054" y2="174.473"/>
					<path fill="none" stroke="#FF00FF" stroke-width="5" d="M125.055,174.474c14,39.999,38,39.999,52-0.001"/>
				</g>
			</g>
		</g>
		<g transform="rotate(90 200 200)">
			<g>
				<g id="chevron_6_" transform="scale(0.4 0.4) translate(300 0)">
					<line fill="none" stroke="#FF00FF" stroke-width="5" x1="114.998" y1="187.5" x2="184.998" y2="187.5"/>
					<path fill="none" stroke="#FF00FF" stroke-width="5" d="M123.998,187.5c14,40,37.999,40,52,0"/>
				</g>
			</g>
		</g>
		<g transform="rotate(105 200 200)">
			<g>
				<g id="chevron_7_" transform="scale(0.4 0.4) translate(300 0)">
					<line fill="none" stroke="#FF00FF" stroke-width="5" x1="117.349" y1="200.356" x2="187.351" y2="200.356"/>
					<path fill="none" stroke="#FF00FF" stroke-width="5" d="M126.347,200.356c14.004,39.999,38,39.999,52.001-0.002"/>
				</g>
			</g>
		</g>
		<g transform="rotate(120 200 200)">
			<g>
				<g id="chevron_8_" transform="scale(0.4 0.4) translate(300 0)">
					<line fill="none" stroke="#FF00FF" stroke-width="5" x1="122.946" y1="212.166" x2="192.949" y2="212.164"/>
					<path fill="none" stroke="#FF00FF" stroke-width="5" d="M131.945,212.166c14.004,39.997,38.001,39.999,52-0.002"/>
				</g>
			</g>
		</g>
		<g transform="rotate(135 200 200)">
			<g>
				<g id="chevron_9_" transform="scale(0.4 0.4) translate(300 0)">
					<line fill="none" stroke="#FF00FF" stroke-width="5" x1="131.408" y1="222.123" x2="201.407" y2="222.123"/>
					<path fill="none" stroke="#FF00FF" stroke-width="5" d="M140.412,222.123c13.997,40.003,37.997,39.999,51.997,0"/>
				</g>
			</g>
		</g>
		<g transform="rotate(150 200 200)">
			<g>
				<g id="chevron_10_" transform="scale(0.4 0.4) translate(300 0)">
					<line fill="none" stroke="#FF00FF" stroke-width="5" x1="142.161" y1="229.554" x2="212.163" y2="229.552"/>
					<path fill="none" stroke="#FF00FF" stroke-width="5" d="M151.16,229.553c14.002,39.996,38.002,39.999,52.001,0"/>
				</g>
			</g>
		</g>
		<g transform="rotate(165 200 200)">
			<g>
				<g id="chevron_11_" transform="scale(0.4 0.4) translate(300 0)">
					<line fill="none" stroke="#FF00FF" stroke-width="5" x1="154.471" y1="233.947" x2="224.474" y2="233.945"/>
					<path fill="none" stroke="#FF00FF" stroke-width="5" d="M163.47,233.942c14.001,40.001,38.002,40.002,52.001,0.002"/>
				</g>
			</g>
		</g>
		<g transform="rotate(180 200 200)">
			<g>
				<g id="chevron_12_" transform="scale(0.4 0.4) translate(300 0)">
					<line fill="none" stroke="#FF00FF" stroke-width="5" x1="167.499" y1="235.004" x2="237.498" y2="235.004"/>
					<path fill="none" stroke="#FF00FF" stroke-width="5" d="M176.498,235.004c13.999,40,37.999,40,52,0"/>
				</g>
			</g>
		</g>
		<g transform="rotate(195 200 200)">
			<g>
				<g id="chevron_13_" transform="scale(0.4 0.4) translate(300 0)">
					<line fill="none" stroke="#FF00FF" stroke-width="5" x1="180.354" y1="232.651" x2="250.355" y2="232.654"/>
					<path fill="none" stroke="#FF00FF" stroke-width="5" d="M189.354,232.651c14,40,38,39.999,52-0.002"/>
				</g>
			</g>
		</g>
		<g transform="rotate(210 200 200)">
			<g>
				<g id="chevron_14_" transform="scale(0.4 0.4) translate(300 0)">
					<line fill="none" stroke="#FF00FF" stroke-width="5" x1="192.165" y1="227.056" x2="262.164" y2="227.053"/>
					<path fill="none" stroke="#FF00FF" stroke-width="5" d="M201.165,227.055c14.001,39.999,37.998,39.997,52.001,0"/>
				</g>
			</g>
		</g>
		<g transform="rotate(225 200 200)">
			<g>
				<g id="chevron_15_" transform="scale(0.4 0.4) translate(300 0)">
					<line fill="none" stroke="#FF00FF" stroke-width="5" x1="202.123" y1="218.593" x2="272.124" y2="218.591"/>
					<path fill="none" stroke="#FF00FF" stroke-width="5" d="M211.125,218.592c14,40,37.999,40,51.998-0.001"/>
				</g>
			</g>
		</g>
		<g transform="rotate(240 200 200)">
			<g>
				<g id="chevron_16_" transform="scale(0.4 0.4) translate(300 0)">
					<line fill="none" stroke="#FF00FF" stroke-width="5" x1="209.552" y1="207.838" x2="279.553" y2="207.839"/>
					<path fill="none" stroke="#FF00FF" stroke-width="5" d="M218.553,207.838c14.002,40.002,37.996,39.999,52.001,0.001"/>
				</g>
			</g>
		</g>
		<g transform="rotate(255 200 200)">
			<g>
				<g id="chevron_17_" transform="scale(0.4 0.4) translate(300 0)">
					<line fill="none" stroke="#FF00FF" stroke-width="5" x1="213.942" y1="195.529" x2="283.945" y2="195.529"/>
					<path fill="none" stroke="#FF00FF" stroke-width="5" d="M222.945,195.528c14.001,40.001,38,40.001,52.001,0.001"/>
				</g>
			</g>
		</g>
		<g transform="rotate(270 200 200)">
			<g>
				<g id="chevron_18_" transform="scale(0.4 0.4) translate(300 0)">
					<line fill="none" stroke="#FF00FF" stroke-width="5" x1="215.004" y1="182.502" x2="285.004" y2="182.502"/>
					<path fill="none" stroke="#FF00FF" stroke-width="5" d="M224.003,182.502c14,40,37.999,40,52.001,0"/>
				</g>
			</g>
		</g>
		<g transform="rotate(285 200 200)">
			<g>
				<g id="chevron_19_" transform="scale(0.4 0.4) translate(300 0)">
					<line fill="none" stroke="#FF00FF" stroke-width="5" x1="212.654" y1="169.645" x2="282.654" y2="169.647"/>
					<path fill="none" stroke="#FF00FF" stroke-width="5" d="M221.653,169.645c13.999,40.001,37.999,40.001,51.999,0"/>
				</g>
			</g>
		</g>
		<g transform="rotate(300 200 200)">
			<g>
				<g id="chevron_20_" transform="scale(0.4 0.4) translate(300 0)">
					<line fill="none" stroke="#FF00FF" stroke-width="5" x1="207.057" y1="157.836" x2="277.057" y2="157.835"/>
					<path fill="none" stroke="#FF00FF" stroke-width="5" d="M216.056,157.835c14.001,40,38,40,52.002-0.001"/>
				</g>
			</g>
		</g>
		<g transform="rotate(315 200 200)">
			<g>
				<g id="chevron_21_" transform="scale(0.4 0.4) translate(300 0)">
					<line fill="none" stroke="#FF00FF" stroke-width="5" x1="198.591" y1="147.876" x2="268.593" y2="147.876"/>
					<path fill="none" stroke="#FF00FF" stroke-width="5" d="M207.593,147.876c14,40,37.999,40,51.999,0"/>
				</g>
			</g>
		</g>
		<g transform="rotate(330 200 200)">
			<g>
				<g id="chevron_22_" transform="scale(0.4 0.4) translate(300 0)">
					<line fill="none" stroke="#FF00FF" stroke-width="5" x1="187.839" y1="140.446" x2="257.841" y2="140.447"/>
					<path fill="none" stroke="#FF00FF" stroke-width="5" d="M196.84,140.447c14,39.999,38,40,52.001,0"/>
				</g>
			</g>
		</g>
		<g transform="rotate(345 200 200)">
			<g>
				<g id="chevron_23_" transform="scale(0.4 0.4) translate(300 0)">
					<line fill="none" stroke="#FF00FF" stroke-width="5" x1="175.529" y1="136.053" x2="245.529" y2="136.053"/>
					<path fill="none" stroke="#FF00FF" stroke-width="5" d="M184.529,136.054c14,40,38,40.001,52-0.001"/>
				</g>
			</g>
		</g>
	</g>
</g>
</svg>
