<?xml version="1.0" encoding="utf-8"?>
<!-- Generator: Adobe Illustrator 14.0.0, SVG Export Plug-In . SVG Version: 6.00 Build 43363)  -->
<!DOCTYPE svg PUBLIC "-//W3C//DTD SVG 1.1//EN" "http://www.w3.org/Graphics/SVG/1.1/DTD/svg11.dtd">
<svg version="1.1" id="Layer_1" xmlns="http://www.w3.org/2000/svg" xmlns:xlink="http://www.w3.org/1999/xlink" x="0px" y="0px"
	 width="612px" height="792px" viewBox="0 0 612 792" enable-background="new 0 0 612 792" xml:space="preserve">
<g id="frame">
	<g>
		<path fill="#FFFF80" d="M221,480c0,115,170,115,170,0c115,0,115-170,0-170c0-115-170-115-170,0C106,310,106,480,221,480z"/>
		<g>
			<g>
				<g>
					<path fill="#231F20" d="M424.807,473.122l1.061,2.808c1.565-0.653,3.181-1.203,4.71-1.948l-1.229-2.737
						C427.876,471.963,426.317,472.488,424.807,473.122z"/>
					<path fill="#231F20" d="M416.4,475.793l0.762,2.901c1.627-0.484,3.286-0.854,4.885-1.438l-0.927-2.854
						C419.579,474.968,417.971,475.323,416.4,475.793z"/>
					<path fill="#231F20" d="M407.789,477.603l0.479,2.963c1.671-0.296,3.348-0.537,4.994-0.945l-0.637-2.934
						C411.033,477.083,409.405,477.316,407.789,477.603z"/>
				</g>
			</g>
			<g>
				<g>
					<path fill="#231F20" d="M447.544,459.818l1.938,2.291c1.316-1.08,2.565-2.235,3.791-3.423l-2.082-2.157
						C450.014,457.669,448.813,458.781,447.544,459.818z"/>
					<path fill="#231F20" d="M440.504,465.106l1.658,2.5c1.412-0.952,2.825-1.9,4.158-2.964l-1.816-2.388
						C443.223,463.279,441.861,464.19,440.504,465.106z"/>
					<path fill="#231F20" d="M432.925,469.536l1.362,2.673c1.494-0.813,3.03-1.553,4.467-2.469l-1.529-2.58
						C435.844,468.043,434.362,468.751,432.925,469.536z"/>
				</g>
			</g>
			<g>
				<g>
					<path fill="#231F20" d="M464.443,439.609l2.593,1.51c0.813-1.49,1.696-2.947,2.421-4.484l-2.678-1.353
						C466.081,436.768,465.229,438.171,464.443,439.609z"/>
					<polygon fill="#231F20" points="459.597,446.97 462.007,448.756 464.915,444.565 462.399,442.932 					"/>
					<path fill="#231F20" d="M453.969,453.707l2.191,2.049c1.203-1.207,2.251-2.552,3.375-3.83l-2.318-1.902
						C456.134,451.25,455.127,452.548,453.969,453.707z"/>
				</g>
			</g>
			<g>
				<g>
					<polygon fill="#231F20" points="473.998,414.993 476.927,415.644 477.894,410.65 474.935,410.159 					"/>
					<path fill="#231F20" d="M471.65,423.5l2.85,0.938c0.573-1.599,0.983-3.245,1.466-4.871l-2.896-0.777
						C472.601,420.359,472.206,421.955,471.65,423.5z"/>
					<path fill="#231F20" d="M468.481,431.701l2.737,1.224c0.709-1.544,1.354-3.115,1.942-4.707l-2.806-1.063
						C469.787,428.692,469.167,430.21,468.481,431.701z"/>
				</g>
			</g>
			<g>
				<g>
					<path fill="#231F20" d="M475.951,388.624l2.993-0.206c-0.075-1.694-0.309-3.375-0.475-5.062l-2.979,0.364
						C475.653,385.354,475.88,386.982,475.951,388.624z"/>
					<path fill="#231F20" d="M476.138,397.451l2.999,0.079c0.062-1.694,0.061-3.388-0.001-5.083l-2.999,0.08
						C476.194,394.168,476.195,395.81,476.138,397.451z"/>
					<path fill="#231F20" d="M475.499,406.229l2.978,0.362c0.171-1.686,0.396-3.367,0.473-5.062l-2.993-0.204
						C475.882,402.968,475.66,404.596,475.499,406.229z"/>
				</g>
			</g>
			<g>
				<g>
					<path fill="#231F20" d="M470.34,362.8l2.805-1.065c-0.589-1.593-1.234-3.162-1.943-4.707l-2.738,1.225
						C469.146,359.744,469.771,361.26,470.34,362.8z"/>
					<path fill="#231F20" d="M473.063,371.192l2.897-0.778c-0.481-1.626-0.894-3.274-1.467-4.873l-2.852,0.938
						C472.199,368.025,472.596,369.62,473.063,371.192z"/>
					<polygon fill="#231F20" points="474.927,379.791 477.886,379.298 476.915,374.306 473.986,374.958 					"/>
				</g>
			</g>
			<g>
				<g>
					<path fill="#231F20" d="M457.184,339.94l2.317-1.906c-1.122-1.279-2.174-2.621-3.377-3.828l-2.19,2.05
						C455.093,337.417,456.104,338.71,457.184,339.94z"/>
					<polygon fill="#231F20" points="462.388,347.05 464.903,345.416 461.993,341.227 459.584,343.014 					"/>
					<path fill="#231F20" d="M466.757,354.673l2.677-1.354c-0.724-1.538-1.607-2.992-2.423-4.484l-2.591,1.512
						C465.202,351.787,466.06,353.188,466.757,354.673z"/>
				</g>
			</g>
			<g>
				<g>
					<path fill="#231F20" d="M437.182,322.814l1.528-2.582c-1.437-0.916-2.976-1.65-4.468-2.465l-1.361,2.673
						C434.317,321.227,435.801,321.931,437.182,322.814z"/>
					<path fill="#231F20" d="M444.487,327.73l1.813-2.388c-1.332-1.062-2.748-2.008-4.158-2.961l-1.656,2.5
						C441.844,325.798,443.206,326.708,444.487,327.73z"/>
					<path fill="#231F20" d="M451.153,333.437l2.081-2.161c-1.223-1.188-2.477-2.338-3.793-3.418l-1.938,2.292
						C448.773,331.187,449.979,332.295,451.153,333.437z"/>
				</g>
			</g>
			<g>
				<g>
					<path fill="#231F20" d="M412.578,313.303l0.635-2.932c-1.646-0.409-3.326-0.646-4.994-0.943l-0.479,2.961
						C409.355,312.678,410.984,312.905,412.578,313.303z"/>
					<path fill="#231F20" d="M421.1,315.589l0.928-2.854c-1.601-0.579-3.26-0.951-4.886-1.436l-0.762,2.902
						C417.951,314.671,419.558,315.028,421.1,315.589z"/>
					<path fill="#231F20" d="M429.303,318.737l1.228-2.738c-1.531-0.742-3.145-1.293-4.711-1.948l-1.06,2.808
						C426.271,317.492,427.828,318.021,429.303,318.737z"/>
				</g>
			</g>
			<g>
				<g>
					<path fill="#231F20" d="M384.122,276.194l2.808-1.059c-0.653-1.568-1.203-3.181-1.948-4.71l-2.737,1.228
						C382.963,273.124,383.488,274.683,384.122,276.194z"/>
					<path fill="#231F20" d="M386.793,284.6l2.901-0.762c-0.484-1.626-0.854-3.286-1.438-4.884l-2.854,0.926
						C385.968,281.421,386.323,283.029,386.793,284.6z"/>
					<path fill="#231F20" d="M388.603,293.211l2.963-0.481c-0.296-1.668-0.537-3.346-0.945-4.994l-2.934,0.637
						C388.083,289.967,388.316,291.595,388.603,293.211z"/>
				</g>
			</g>
			<g>
				<g>
					<path fill="#231F20" d="M370.818,253.457l2.291-1.938c-1.08-1.318-2.235-2.568-3.423-3.791l-2.157,2.082
						C368.669,250.986,369.781,252.188,370.818,253.457z"/>
					<path fill="#231F20" d="M376.106,260.496l2.5-1.658c-0.952-1.412-1.9-2.826-2.964-4.159l-2.388,1.817
						C374.279,257.777,375.19,259.139,376.106,260.496z"/>
					<path fill="#231F20" d="M380.536,268.075l2.673-1.363c-0.813-1.494-1.553-3.03-2.469-4.467l-2.58,1.53
						C379.043,265.157,379.751,266.638,380.536,268.075z"/>
				</g>
			</g>
			<g>
				<g>
					<path fill="#231F20" d="M350.609,236.556l1.51-2.592c-1.49-0.815-2.947-1.697-4.484-2.421l-1.353,2.678
						C347.768,234.919,349.171,235.771,350.609,236.556z"/>
					<polygon fill="#231F20" points="357.97,241.403 359.756,238.993 355.565,236.085 353.932,238.601 					"/>
					<path fill="#231F20" d="M364.707,247.032l2.049-2.192c-1.207-1.203-2.552-2.251-3.83-3.375l-1.902,2.318
						C362.25,244.866,363.548,245.873,364.707,247.032z"/>
				</g>
			</g>
			<g>
				<g>
					<polygon fill="#231F20" points="325.993,227.002 326.644,224.073 321.65,223.106 321.159,226.066 					"/>
					<path fill="#231F20" d="M334.5,229.35l0.938-2.85c-1.599-0.573-3.245-0.983-4.871-1.466l-0.777,2.897
						C331.359,228.399,332.955,228.794,334.5,229.35z"/>
					<path fill="#231F20" d="M342.701,232.519l1.224-2.739c-1.544-0.709-3.115-1.354-4.707-1.942l-1.063,2.805
						C339.692,231.213,341.21,231.833,342.701,232.519z"/>
				</g>
			</g>
			<g>
				<g>
					<path fill="#231F20" d="M299.624,225.049l-0.206-2.993c-1.694,0.075-3.375,0.306-5.062,0.473l0.364,2.978
						C296.354,225.347,297.982,225.121,299.624,225.049z"/>
					<path fill="#231F20" d="M308.451,224.863l0.079-2.999c-1.694-0.06-3.388-0.059-5.083,0l0.08,2.999
						C305.168,224.805,306.811,224.804,308.451,224.863z"/>
					<path fill="#231F20" d="M317.229,225.501l0.362-2.978c-1.686-0.168-3.367-0.395-5.062-0.471l-0.204,2.993
						C313.968,225.118,315.596,225.339,317.229,225.501z"/>
				</g>
			</g>
			<g>
				<g>
					<path fill="#231F20" d="M273.8,230.66l-1.065-2.804c-1.593,0.589-3.162,1.236-4.707,1.944l1.225,2.739
						C270.744,231.854,272.26,231.229,273.8,230.66z"/>
					<path fill="#231F20" d="M282.192,227.938l-0.778-2.897c-1.626,0.481-3.274,0.894-4.873,1.467l0.938,2.85
						C279.025,228.801,280.62,228.404,282.192,227.938z"/>
					<polygon fill="#231F20" points="290.791,226.073 290.298,223.114 285.306,224.085 285.958,227.014 					"/>
				</g>
			</g>
			<g>
				<g>
					<path fill="#231F20" d="M250.94,243.816l-1.906-2.317c-1.279,1.122-2.621,2.174-3.828,3.376l2.05,2.19
						C248.417,245.907,249.71,244.897,250.94,243.816z"/>
					<polygon fill="#231F20" points="258.05,238.612 256.416,236.096 252.227,239.006 254.014,241.416 					"/>
					<path fill="#231F20" d="M265.673,234.243l-1.354-2.677c-1.538,0.724-2.992,1.61-4.484,2.423l1.512,2.591
						C262.787,235.797,264.188,234.94,265.673,234.243z"/>
				</g>
			</g>
			<g>
				<g>
					<path fill="#231F20" d="M233.814,263.818l-2.582-1.528c-0.916,1.437-1.65,2.976-2.465,4.468l2.673,1.361
						C232.227,266.683,232.931,265.199,233.814,263.818z"/>
					<path fill="#231F20" d="M238.73,256.513l-2.388-1.816c-1.062,1.333-2.008,2.748-2.961,4.159l2.5,1.658
						C236.798,259.156,237.708,257.794,238.73,256.513z"/>
					<path fill="#231F20" d="M244.437,249.846l-2.161-2.081c-1.188,1.221-2.338,2.475-3.418,3.792l2.292,1.936
						C242.187,252.227,243.294,251.021,244.437,249.846z"/>
				</g>
			</g>
			<g>
				<g>
					<path fill="#231F20" d="M224.303,288.422l-2.932-0.635c-0.409,1.647-0.646,3.326-0.943,4.994l2.961,0.479
						C223.678,291.644,223.905,290.015,224.303,288.422z"/>
					<path fill="#231F20" d="M226.589,279.9l-2.854-0.926c-0.579,1.599-0.951,3.258-1.436,4.885l2.902,0.761
						C225.671,283.049,226.028,281.442,226.589,279.9z"/>
					<path fill="#231F20" d="M229.737,271.697l-2.738-1.228c-0.742,1.531-1.293,3.145-1.948,4.711l2.808,1.057
						C228.492,274.729,229.021,273.172,229.737,271.697z"/>
				</g>
			</g>
			<g>
				<g>
					<path fill="#231F20" d="M187.194,316.877l-1.059-2.807c-1.568,0.656-3.181,1.203-4.71,1.95l1.228,2.738
						C184.124,318.037,185.683,317.512,187.194,316.877z"/>
					<path fill="#231F20" d="M195.6,314.207l-0.763-2.902c-1.626,0.485-3.286,0.855-4.884,1.437l0.926,2.854
						C192.421,315.032,194.029,314.677,195.6,314.207z"/>
					<path fill="#231F20" d="M204.211,312.397l-0.481-2.961c-1.668,0.294-3.346,0.537-4.994,0.945l0.637,2.932
						C200.967,312.917,202.595,312.684,204.211,312.397z"/>
				</g>
			</g>
			<g>
				<g>
					<path fill="#231F20" d="M164.457,330.182l-1.938-2.291c-1.318,1.08-2.568,2.235-3.791,3.42l2.082,2.16
						C161.986,332.331,163.188,331.219,164.457,330.182z"/>
					<path fill="#231F20" d="M171.496,324.894l-1.658-2.5c-1.412,0.952-2.826,1.9-4.159,2.962l1.817,2.387
						C168.777,326.721,170.139,325.81,171.496,324.894z"/>
					<path fill="#231F20" d="M179.075,320.464l-1.363-2.673c-1.494,0.814-3.03,1.552-4.467,2.468l1.53,2.581
						C176.157,321.957,177.638,321.249,179.075,320.464z"/>
				</g>
			</g>
			<g>
				<g>
					<path fill="#231F20" d="M147.556,350.391l-2.592-1.51c-0.815,1.491-1.697,2.947-2.421,4.485l2.678,1.352
						C145.919,353.232,146.771,351.83,147.556,350.391z"/>
					<polygon fill="#231F20" points="152.403,343.031 149.993,341.244 147.085,345.435 149.601,347.068 					"/>
					<path fill="#231F20" d="M158.032,336.293l-2.192-2.048c-1.203,1.207-2.251,2.552-3.375,3.83l2.318,1.904
						C155.866,338.75,156.873,337.452,158.032,336.293z"/>
				</g>
			</g>
			<g>
				<g>
					<polygon fill="#231F20" points="138.002,375.007 135.073,374.356 134.106,379.35 137.066,379.841 					"/>
					<path fill="#231F20" d="M140.35,366.5l-2.85-0.938c-0.573,1.599-0.984,3.247-1.466,4.873l2.897,0.777
						C139.399,369.641,139.794,368.045,140.35,366.5z"/>
					<path fill="#231F20" d="M143.519,358.299l-2.739-1.224c-0.709,1.544-1.352,3.115-1.942,4.707l2.805,1.064
						C142.213,361.308,142.833,359.79,143.519,358.299z"/>
				</g>
			</g>
			<g>
				<g>
					<path fill="#231F20" d="M136.049,401.376l-2.993,0.206c0.075,1.693,0.306,3.375,0.473,5.062l2.978-0.362
						C136.347,404.646,136.121,403.018,136.049,401.376z"/>
					<path fill="#231F20" d="M135.863,392.548l-2.999-0.079c-0.06,1.694-0.059,3.389,0,5.083l2.999-0.08
						C135.805,395.832,135.804,394.19,135.863,392.548z"/>
					<path fill="#231F20" d="M136.501,383.771l-2.978-0.363c-0.168,1.687-0.395,3.368-0.471,5.062l2.993,0.204
						C136.118,387.032,136.339,385.404,136.501,383.771z"/>
				</g>
			</g>
			<g>
				<g>
					<path fill="#231F20" d="M141.66,427.2l-2.804,1.063c0.589,1.595,1.236,3.162,1.944,4.706l2.739-1.225
						C142.854,430.256,142.229,428.74,141.66,427.2z"/>
					<path fill="#231F20" d="M138.938,418.808l-2.897,0.778c0.481,1.626,0.894,3.273,1.467,4.872l2.85-0.938
						C139.801,421.975,139.404,420.38,138.938,418.808z"/>
					<polygon fill="#231F20" points="137.073,410.209 134.114,410.701 135.085,415.693 138.014,415.041 					"/>
				</g>
			</g>
			<g>
				<g>
					<path fill="#231F20" d="M154.816,450.06l-2.317,1.905c1.122,1.28,2.174,2.621,3.376,3.828l2.19-2.05
						C156.907,452.584,155.897,451.29,154.816,450.06z"/>
					<polygon fill="#231F20" points="149.612,442.95 147.096,444.584 150.006,448.773 152.416,446.986 					"/>
					<path fill="#231F20" d="M145.243,435.327l-2.677,1.354c0.724,1.538,1.61,2.992,2.423,4.483l2.591-1.511
						C146.797,438.213,145.94,436.813,145.243,435.327z"/>
				</g>
			</g>
			<g>
				<g>
					<path fill="#231F20" d="M174.818,467.186l-1.528,2.582c1.437,0.916,2.976,1.649,4.468,2.468l1.361-2.676
						C177.683,468.772,176.199,468.069,174.818,467.186z"/>
					<path fill="#231F20" d="M167.513,462.27l-1.816,2.391c1.333,1.062,2.748,2.008,4.159,2.961l1.658-2.501
						C170.156,464.201,168.794,463.292,167.513,462.27z"/>
					<path fill="#231F20" d="M160.846,456.563l-2.081,2.161c1.221,1.188,2.475,2.339,3.792,3.418l1.936-2.292
						C163.227,458.813,162.021,457.705,160.846,456.563z"/>
				</g>
			</g>
			<g>
				<g>
					<path fill="#231F20" d="M199.422,476.697l-0.635,2.932c1.647,0.41,3.326,0.646,4.994,0.943l0.479-2.961
						C202.644,477.322,201.015,477.095,199.422,476.697z"/>
					<path fill="#231F20" d="M190.9,474.411l-0.926,2.854c1.599,0.579,3.258,0.951,4.885,1.438l0.761-2.901
						C194.049,475.329,192.442,474.973,190.9,474.411z"/>
					<path fill="#231F20" d="M182.697,471.263l-1.225,2.738c1.532,0.742,3.143,1.293,4.711,1.947l1.057-2.81
						C185.729,472.508,184.172,471.979,182.697,471.263z"/>
				</g>
			</g>
			<g>
				<g>
					<path fill="#231F20" d="M227.877,513.807l-2.807,1.061c0.656,1.565,1.203,3.181,1.95,4.71l2.738-1.229
						C229.037,516.876,228.511,515.317,227.877,513.807z"/>
					<path fill="#231F20" d="M225.207,505.4l-2.902,0.762c0.485,1.627,0.855,3.286,1.437,4.885l2.854-0.927
						C226.032,508.579,225.677,506.971,225.207,505.4z"/>
					<path fill="#231F20" d="M223.397,496.789l-2.961,0.479c0.295,1.671,0.537,3.348,0.946,4.994l2.932-0.637
						C223.917,500.033,223.684,498.405,223.397,496.789z"/>
				</g>
			</g>
			<g>
				<g>
					<path fill="#231F20" d="M241.182,536.544l-2.291,1.938c1.08,1.316,2.235,2.565,3.42,3.791l2.16-2.082
						C243.331,539.014,242.219,537.813,241.182,536.544z"/>
					<path fill="#231F20" d="M235.894,529.504l-2.5,1.658c0.952,1.412,1.9,2.825,2.962,4.158l2.387-1.816
						C237.721,532.223,236.81,530.861,235.894,529.504z"/>
					<path fill="#231F20" d="M231.464,521.925l-2.672,1.362c0.813,1.494,1.552,3.03,2.468,4.467l2.581-1.529
						C232.957,524.844,232.249,523.362,231.464,521.925z"/>
				</g>
			</g>
			<g>
				<g>
					<path fill="#231F20" d="M261.391,553.443l-1.51,2.593c1.491,0.813,2.947,1.696,4.485,2.421l1.352-2.678
						C264.232,555.081,262.83,554.229,261.391,553.443z"/>
					<polygon fill="#231F20" points="254.031,548.597 252.244,551.007 256.435,553.915 258.068,551.399 					"/>
					<path fill="#231F20" d="M247.293,542.969l-2.048,2.191c1.207,1.203,2.552,2.251,3.83,3.375l1.904-2.318
						C249.75,545.134,248.452,544.127,247.293,542.969z"/>
				</g>
			</g>
			<g>
				<g>
					<polygon fill="#231F20" points="286.007,562.998 285.356,565.927 290.35,566.894 290.841,563.935 					"/>
					<path fill="#231F20" d="M277.5,560.65l-0.938,2.85c1.599,0.573,3.247,0.983,4.873,1.466l0.777-2.896
						C280.641,561.601,279.045,561.206,277.5,560.65z"/>
					<path fill="#231F20" d="M269.299,557.481l-1.224,2.737c1.544,0.709,3.115,1.354,4.707,1.942l1.064-2.806
						C272.308,558.787,270.79,558.167,269.299,557.481z"/>
				</g>
			</g>
			<g>
				<g>
					<path fill="#231F20" d="M312.376,564.951l0.206,2.993c1.693-0.075,3.375-0.309,5.062-0.475l-0.362-2.979
						C315.646,564.653,314.018,564.88,312.376,564.951z"/>
					<path fill="#231F20" d="M303.548,565.138l-0.079,2.999c1.694,0.062,3.391,0.061,5.083-0.001l-0.08-2.999
						C306.831,565.194,305.19,565.195,303.548,565.138z"/>
					<path fill="#231F20" d="M294.771,564.499l-0.363,2.978c1.687,0.171,3.368,0.396,5.062,0.473l0.204-2.993
						C298.032,564.882,296.404,564.66,294.771,564.499z"/>
				</g>
			</g>
			<g>
				<g>
					<path fill="#231F20" d="M338.2,559.34l1.063,2.805c1.595-0.589,3.162-1.234,4.706-1.943l-1.225-2.738
						C341.256,558.146,339.74,558.771,338.2,559.34z"/>
					<path fill="#231F20" d="M329.808,562.063l0.778,2.897c1.626-0.481,3.273-0.894,4.872-1.467l-0.938-2.852
						C332.975,561.199,331.38,561.596,329.808,562.063z"/>
					<polygon fill="#231F20" points="321.209,563.927 321.701,566.886 326.693,565.915 326.041,562.986 					"/>
				</g>
			</g>
			<g>
				<g>
					<path fill="#231F20" d="M361.06,546.184l1.905,2.317c1.28-1.122,2.621-2.174,3.828-3.377l-2.05-2.19
						C363.584,544.093,362.29,545.104,361.06,546.184z"/>
					<polygon fill="#231F20" points="353.95,551.388 355.584,553.903 359.773,550.993 357.986,548.584 					"/>
					<path fill="#231F20" d="M346.327,555.757l1.354,2.677c1.538-0.724,2.992-1.607,4.483-2.423l-1.511-2.592
						C349.213,554.202,347.813,555.06,346.327,555.757z"/>
				</g>
			</g>
			<g>
				<g>
					<path fill="#231F20" d="M378.186,526.182l2.582,1.528c0.916-1.437,1.649-2.976,2.468-4.468l-2.676-1.361
						C379.772,523.317,379.069,524.801,378.186,526.182z"/>
					<path fill="#231F20" d="M373.27,533.487l2.391,1.813c1.062-1.332,2.008-2.748,2.961-4.158l-2.501-1.656
						C375.201,530.844,374.292,532.206,373.27,533.487z"/>
					<path fill="#231F20" d="M367.563,540.153l2.161,2.081c1.188-1.223,2.339-2.477,3.418-3.793l-2.292-1.938
						C369.813,537.773,368.705,538.979,367.563,540.153z"/>
				</g>
			</g>
			<g>
				<g>
					<path fill="#231F20" d="M387.697,501.578l2.932,0.635c0.41-1.646,0.646-3.326,0.943-4.994l-2.961-0.479
						C388.322,498.355,388.095,499.984,387.697,501.578z"/>
					<path fill="#231F20" d="M385.411,510.1l2.854,0.928c0.579-1.601,0.951-3.26,1.438-4.886l-2.901-0.762
						C386.329,506.951,385.973,508.558,385.411,510.1z"/>
					<path fill="#231F20" d="M382.263,518.303l2.738,1.228c0.742-1.531,1.293-3.145,1.947-4.711l-2.81-1.06
						C383.508,515.271,382.979,516.828,382.263,518.303z"/>
				</g>
			</g>
			<g>
				<path fill="#231F20" d="M403.753,312.048l0.36-2.99c-1.684-0.23-3.369-0.389-5.063-0.483l-0.215,3.004
					C400.482,311.669,402.122,311.824,403.753,312.048z"/>
				<path fill="#231F20" d="M389.936,311.273c1.674-0.011,3.304,0.063,4.955,0.091l0.104-3.01c-0.708-0.049-1.284,0.043-2.103-0.122
					l-0.047-2.021l-2.998,0.099C389.875,307.965,389.955,309.599,389.936,311.273z"/>
				<path fill="#231F20" d="M389.644,302.355l2.993-0.208c-0.104-1.694-0.238-3.385-0.473-5.07l-2.979,0.352
					C389.411,299.063,389.544,300.707,389.644,302.355z"/>
			</g>
			<g>
				<path fill="#231F20" d="M223.048,297.247l-2.99-0.36c-0.23,1.682-0.389,3.369-0.483,5.062l3.004,0.215
					C222.669,300.518,222.824,298.878,223.048,297.247z"/>
				<path fill="#231F20" d="M222.273,311.064c-0.011-1.672,0.063-3.302,0.091-4.955l-3.01-0.105c-0.049,0.708,0.043,1.284-0.122,2.1
					l-2.021,0.047l0.099,2.999C218.965,311.125,220.599,311.045,222.273,311.064z"/>
				<path fill="#231F20" d="M213.355,311.356l-0.208-2.993c-1.694,0.103-3.385,0.241-5.07,0.473l0.352,2.979
					C210.063,311.589,211.707,311.456,213.355,311.356z"/>
			</g>
			<g>
				<path fill="#231F20" d="M208.247,477.952l-0.359,2.99c1.682,0.229,3.369,0.389,5.061,0.48l0.215-3.004
					C211.518,478.33,209.878,478.176,208.247,477.952z"/>
				<path fill="#231F20" d="M222.064,478.727c-1.672,0.013-3.302-0.063-4.955-0.091l-0.105,3.011c0.708,0.051,1.284-0.043,2.1,0.121
					l0.047,2.021l2.999-0.099C222.125,482.035,222.045,480.401,222.064,478.727z"/>
				<path fill="#231F20" d="M222.356,487.646l-2.993,0.206c0.103,1.694,0.241,3.388,0.473,5.069l2.979-0.352
					C222.589,490.938,222.456,489.293,222.356,487.646z"/>
			</g>
			<g>
				<path fill="#231F20" d="M388.952,492.753l2.99,0.36c0.229-1.684,0.389-3.369,0.48-5.063l-3.004-0.215
					C389.33,489.482,389.176,491.122,388.952,492.753z"/>
				<path fill="#231F20" d="M389.727,478.936c0.013,1.674-0.063,3.304-0.091,4.955l3.011,0.104c0.051-0.708-0.043-1.284,0.121-2.103
					l2.021-0.047l-0.099-2.998C393.035,478.875,391.401,478.955,389.727,478.936z"/>
				<path fill="#231F20" d="M398.646,478.644l0.206,2.993c1.694-0.104,3.388-0.238,5.069-0.473l-0.352-2.979
					C401.938,478.411,400.293,478.544,398.646,478.644z"/>
			</g>
		</g>
	</g>
	<text transform="matrix(1 0 0 1 227.4141 493.1133)" font-family="'ArialMT'" font-size="288">?</text>
</g>
</svg>
