<?xml version="1.0" encoding="utf-8"?>
<!-- Generator: Adobe Illustrator 14.0.0, SVG Export Plug-In . SVG Version: 6.00 Build 43363)  -->
<!DOCTYPE svg PUBLIC "-//W3C//DTD SVG 1.1//EN" "http://www.w3.org/Graphics/SVG/1.1/DTD/svg11.dtd">
<svg version="1.1" id="Layer_1" xmlns="http://www.w3.org/2000/svg" xmlns:xlink="http://www.w3.org/1999/xlink" x="0px" y="0px"
	 width="400px" height="400px" viewBox="0 0 400 400" enable-background="new 0 0 400 400" xml:space="preserve">
<g id="frame">
	<circle fill="#80E0FF" cx="200" cy="199" r="144"/>
	<g>
		<g>
			<g>
				<path fill="#231F20" d="M219.787,55.317l-0.406,2.973c1.616,0.175,3.219,0.438,4.814,0.743l0.508-2.957
					C223.073,55.765,221.438,55.497,219.787,55.317z"/>
				<path fill="#231F20" d="M210.913,54.39l-0.224,2.992c1.619,0.146,3.246,0.194,4.854,0.421l0.324-2.982
					C214.227,54.589,212.564,54.539,210.913,54.39z"/>
				<polygon fill="#231F20" points="202.029,53.99 201.988,56.99 206.861,57.113 207.004,54.116 				"/>
			</g>
		</g>
		<g>
			<g>
				<path fill="#231F20" d="M245.855,61.381l-0.947,2.846c1.533,0.536,3.09,1.007,4.604,1.595l1.047-2.813
					C249.012,62.411,247.422,61.927,245.855,61.381z"/>
				<polygon fill="#231F20" points="237.313,58.807 236.543,61.707 241.23,63.038 242.1,60.167 				"/>
				<path fill="#231F20" d="M228.652,56.782l-0.59,2.941c1.595,0.309,3.168,0.715,4.754,1.068l0.69-2.919
					C231.889,57.512,230.279,57.097,228.652,56.782z"/>
			</g>
		</g>
		<g>
			<g>
				<polygon fill="#231F20" points="270.361,72.147 268.904,74.77 273.13,77.198 274.677,74.628 				"/>
				<polygon fill="#231F20" points="262.441,68.041 261.148,70.748 265.495,72.948 266.881,70.287 				"/>
				<path fill="#231F20" d="M254.29,64.481l-1.123,2.782c1.522,0.569,3.013,1.216,4.483,1.904l1.219-2.741
					C257.366,65.724,255.846,65.063,254.29,64.481z"/>
			</g>
		</g>
		<g>
			<g>
				<polygon fill="#231F20" points="292.475,87.238 290.561,89.548 294.243,92.739 296.234,90.496 				"/>
				<path fill="#231F20" d="M285.416,81.778l-1.77,2.423c1.346,0.914,2.599,1.95,3.879,2.948l1.852-2.361
					C288.068,83.769,286.789,82.712,285.416,81.778z"/>
				<path fill="#231F20" d="M278.068,76.767l-1.615,2.527c1.355,0.894,2.764,1.71,4.066,2.683l1.701-2.47
					C280.893,78.514,279.454,77.68,278.068,76.767z"/>
			</g>
		</g>
		<g>
			<g>
				<path fill="#231F20" d="M311.429,106.142l-2.304,1.922c1.06,1.231,2.022,2.542,3.039,3.809l2.368-1.842
					C313.494,108.736,312.511,107.398,311.429,106.142z"/>
				<path fill="#231F20" d="M305.489,99.484l-2.183,2.059c1.133,1.165,2.243,2.351,3.285,3.598l2.251-1.983
					C307.779,101.884,306.646,100.673,305.489,99.484z"/>
				<polygon fill="#231F20" points="299.193,93.203 297.143,95.391 300.658,98.764 302.784,96.647 				"/>
			</g>
		</g>
		<g>
			<g>
				<path fill="#231F20" d="M326.599,128.196l-2.615,1.467c0.838,1.392,1.563,2.847,2.301,4.294l2.666-1.376
					C328.194,131.103,327.454,129.618,326.599,128.196z"/>
				<path fill="#231F20" d="M321.992,120.555l-2.521,1.625c0.855,1.38,1.801,2.707,2.584,4.13l2.576-1.538
					C323.829,123.319,322.866,121.964,321.992,120.555z"/>
				<polygon fill="#231F20" points="316.963,113.22 314.545,114.997 317.369,118.968 319.847,117.275 				"/>
			</g>
		</g>
		<g>
			<g>
				<path fill="#231F20" d="M337.456,152.661l-2.843,0.958c0.509,1.542,1.08,3.065,1.486,4.638l2.875-0.859
					C338.558,155.792,337.977,154.236,337.456,152.661z"/>
				<polygon fill="#231F20" points="334.355,144.294 331.577,145.427 333.364,149.96 336.18,148.924 				"/>
				<polygon fill="#231F20" points="330.775,136.152 328.072,137.454 330.079,141.894 332.825,140.687 				"/>
			</g>
		</g>
		<g>
			<g>
				<polygon fill="#231F20" points="343.618,178.708 340.647,179.124 341.262,183.958 344.245,183.645 				"/>
				<polygon fill="#231F20" points="342.14,169.908 339.199,170.507 340.056,175.304 343.015,174.807 				"/>
				<path fill="#231F20" d="M340.071,161.258l-2.897,0.779c0.48,1.553,0.79,3.15,1.169,4.729l2.923-0.678
					C340.879,164.475,340.561,162.844,340.071,161.258z"/>
			</g>
		</g>
		<g>
			<g>
				<path fill="#231F20" d="M344.898,205.443l-2.997-0.131c-0.021,1.625-0.221,3.242-0.319,4.862l2.99,0.232
					C344.676,208.754,344.875,207.104,344.898,205.443z"/>
				<path fill="#231F20" d="M344.999,196.524l-3,0.05c0.069,1.624,0.068,3.249,0,4.871l2.999,0.053
					C345.067,199.84,345.068,198.182,344.999,196.524z"/>
				<path fill="#231F20" d="M344.576,187.642l-2.99,0.232c0.099,1.621,0.3,3.237,0.316,4.862l2.997-0.13
					C344.882,190.947,344.679,189.297,344.576,187.642z"/>
			</g>
		</g>
		<g>
			<g>
				<path fill="#231F20" d="M341.254,231.962l-2.922-0.68c-0.377,1.579-0.691,3.176-1.172,4.729l2.896,0.78
					C340.546,235.204,340.869,233.575,341.254,231.962z"/>
				<polygon fill="#231F20" points="343.011,223.214 340.052,222.717 339.196,227.514 342.136,228.111 				"/>
				<polygon fill="#231F20" points="344.239,214.406 341.256,214.091 340.642,218.925 343.612,219.342 				"/>
			</g>
		</g>
		<g>
			<g>
				<polygon fill="#231F20" points="332.805,257.359 330.059,256.15 328.052,260.591 330.755,261.895 				"/>
				<polygon fill="#231F20" points="336.172,249.096 333.356,248.061 331.569,252.593 334.347,253.727 				"/>
				<path fill="#231F20" d="M338.962,240.65l-2.874-0.86c-0.408,1.573-0.982,3.095-1.49,4.638l2.843,0.959
					C337.958,243.813,338.544,242.257,338.962,240.65z"/>
			</g>
		</g>
		<g>
			<g>
				<polygon fill="#231F20" points="319.817,280.766 317.341,279.072 314.517,283.044 316.934,284.82 				"/>
				<path fill="#231F20" d="M324.62,273.246l-2.576-1.538c-0.785,1.423-1.729,2.75-2.585,4.13l2.521,1.625
					C322.855,276.055,323.817,274.698,324.62,273.246z"/>
				<path fill="#231F20" d="M328.926,265.465l-2.665-1.377c-0.736,1.447-1.465,2.9-2.304,4.293l2.617,1.467
					C327.429,268.426,328.174,266.943,328.926,265.465z"/>
			</g>
		</g>
		<g>
			<g>
				<polygon fill="#231F20" points="302.749,301.391 300.624,299.271 297.105,302.643 299.157,304.832 				"/>
				<path fill="#231F20" d="M308.829,294.859l-2.25-1.983c-1.042,1.247-2.154,2.431-3.286,3.597l2.182,2.061
					C306.63,297.342,307.765,296.133,308.829,294.859z"/>
				<path fill="#231F20" d="M314.501,288.01l-2.367-1.843c-1.018,1.267-1.978,2.579-3.041,3.808l2.304,1.922
					C312.481,290.643,313.463,289.303,314.501,288.01z"/>
			</g>
		</g>
		<g>
			<g>
				<path fill="#231F20" d="M282.182,318.521l-1.703-2.471c-1.302,0.975-2.713,1.785-4.066,2.682l1.615,2.527
					C279.41,320.346,280.852,319.516,282.182,318.521z"/>
				<path fill="#231F20" d="M289.359,313.225l-1.851-2.36c-1.28,0.999-2.534,2.032-3.879,2.946l1.769,2.424
					C286.771,315.3,288.052,314.245,289.359,313.225z"/>
				<polygon fill="#231F20" points="296.195,307.537 294.206,305.293 290.521,308.484 292.436,310.795 				"/>
			</g>
		</g>
		<g>
			<g>
				<path fill="#231F20" d="M258.823,331.596l-1.218-2.742c-1.473,0.69-2.963,1.332-4.484,1.901l1.122,2.782
					C255.798,332.954,257.32,332.299,258.823,331.596z"/>
				<polygon fill="#231F20" points="266.861,327.723 265.477,325.063 261.129,327.261 262.422,329.968 				"/>
				<polygon fill="#231F20" points="274.633,323.396 273.087,320.826 268.861,323.255 270.318,325.878 				"/>
			</g>
		</g>
		<g>
			<g>
				<path fill="#231F20" d="M233.458,340.141l-0.688-2.92c-1.586,0.352-3.16,0.762-4.754,1.064l0.588,2.941
					C230.23,340.916,231.839,340.498,233.458,340.141z"/>
				<polygon fill="#231F20" points="242.079,337.84 241.21,334.968 236.523,336.299 237.292,339.199 				"/>
				<path fill="#231F20" d="M250.512,335.009l-1.046-2.813c-1.516,0.584-3.069,1.059-4.604,1.594l0.947,2.847
					C247.375,336.09,248.963,335.604,250.512,335.009z"/>
			</g>
		</g>
		<g>
			<g>
				<polygon fill="#231F20" points="206.954,343.886 206.813,340.889 201.939,341.012 201.979,344.012 				"/>
				<path fill="#231F20" d="M215.85,343.184l-0.324-2.982c-1.609,0.225-3.237,0.273-4.854,0.42l0.224,2.992
					C212.544,343.464,214.205,343.411,215.85,343.184z"/>
				<path fill="#231F20" d="M224.652,341.934l-0.506-2.957c-1.596,0.308-3.198,0.564-4.814,0.74l0.404,2.973
					C221.387,342.509,223.023,342.246,224.652,341.934z"/>
			</g>
		</g>
		<g>
			<g>
				<path fill="#231F20" d="M180.213,342.684l0.405-2.974c-1.616-0.175-3.218-0.438-4.814-0.743l-0.508,2.957
					C176.927,342.234,178.563,342.503,180.213,342.684z"/>
				<path fill="#231F20" d="M189.086,343.609l0.223-2.991c-1.618-0.146-3.245-0.193-4.854-0.421l-0.325,2.982
					C185.774,343.411,187.435,343.461,189.086,343.609z"/>
				<polygon fill="#231F20" points="197.97,344.01 198.011,341.01 193.138,340.889 192.996,343.884 				"/>
			</g>
		</g>
		<g>
			<g>
				<path fill="#231F20" d="M154.144,336.619l0.948-2.848c-1.533-0.535-3.089-1.006-4.604-1.594l-1.046,2.813
					C150.989,335.59,152.578,336.072,154.144,336.619z"/>
				<polygon fill="#231F20" points="162.687,339.193 163.457,336.294 158.77,334.963 157.9,337.834 				"/>
				<path fill="#231F20" d="M171.348,341.218l0.589-2.94c-1.594-0.31-3.168-0.717-4.754-1.067l-0.69,2.919
					C168.111,340.488,169.719,340.902,171.348,341.218z"/>
			</g>
		</g>
		<g>
			<g>
				<polygon fill="#231F20" points="129.637,325.854 131.095,323.23 126.87,320.802 125.323,323.372 				"/>
				<polygon fill="#231F20" points="137.559,329.959 138.852,327.252 134.505,325.052 133.119,327.713 				"/>
				<path fill="#231F20" d="M145.709,333.52l1.124-2.781c-1.522-0.569-3.012-1.217-4.484-1.904l-1.219,2.741
					C142.634,332.275,144.155,332.938,145.709,333.52z"/>
			</g>
		</g>
		<g>
			<g>
				<polygon fill="#231F20" points="107.526,310.762 109.44,308.452 105.757,305.261 103.765,307.504 				"/>
				<path fill="#231F20" d="M114.584,316.223l1.769-2.425c-1.345-0.913-2.598-1.948-3.879-2.946l-1.85,2.36
					C111.932,314.23,113.211,315.288,114.584,316.223z"/>
				<path fill="#231F20" d="M121.93,321.232l1.617-2.526c-1.355-0.894-2.764-1.71-4.066-2.683l-1.703,2.47
					C119.108,319.484,120.546,320.32,121.93,321.232z"/>
			</g>
		</g>
		<g>
			<g>
				<path fill="#231F20" d="M88.571,291.857l2.304-1.922c-1.06-1.229-2.022-2.541-3.039-3.809l-2.368,1.842
					C86.505,289.264,87.49,290.602,88.571,291.857z"/>
				<path fill="#231F20" d="M94.511,298.518l2.182-2.061c-1.133-1.165-2.244-2.35-3.286-3.598l-2.251,1.982
					C92.221,296.116,93.354,297.326,94.511,298.518z"/>
				<polygon fill="#231F20" points="100.807,304.797 102.859,302.607 99.341,299.236 97.216,301.354 				"/>
			</g>
		</g>
		<g>
			<g>
				<path fill="#231F20" d="M73.401,269.805l2.617-1.467c-0.839-1.393-1.563-2.848-2.301-4.294l-2.666,1.376
					C71.806,266.896,72.545,268.382,73.401,269.805z"/>
				<path fill="#231F20" d="M78.008,277.445l2.521-1.625c-0.855-1.381-1.8-2.706-2.584-4.131l-2.576,1.537
					C76.17,274.682,77.133,276.036,78.008,277.445z"/>
				<polygon fill="#231F20" points="83.037,284.779 85.455,283.004 82.63,279.032 80.153,280.725 				"/>
			</g>
		</g>
		<g>
			<g>
				<path fill="#231F20" d="M62.544,245.339l2.843-0.958c-0.509-1.542-1.08-3.064-1.488-4.639l-2.874,0.859
					C61.443,242.208,62.024,243.766,62.544,245.339z"/>
				<polygon fill="#231F20" points="65.645,253.705 68.423,252.573 66.635,248.04 63.82,249.076 				"/>
				<polygon fill="#231F20" points="69.225,261.848 71.928,260.546 69.921,256.105 67.174,257.313 				"/>
			</g>
		</g>
		<g>
			<g>
				<polygon fill="#231F20" points="56.382,219.292 59.353,218.876 58.738,214.042 55.754,214.355 				"/>
				<polygon fill="#231F20" points="57.861,228.092 60.8,227.493 59.944,222.695 56.985,223.193 				"/>
				<path fill="#231F20" d="M59.929,236.742l2.897-0.778c-0.48-1.554-0.79-3.149-1.168-4.729l-2.922,0.679
					C59.122,233.525,59.439,235.156,59.929,236.742z"/>
			</g>
		</g>
		<g>
			<g>
				<path fill="#231F20" d="M55.102,192.555l2.998,0.131c0.021-1.625,0.219-3.241,0.319-4.862l-2.991-0.233
					C55.324,189.246,55.125,190.896,55.102,192.555z"/>
				<path fill="#231F20" d="M55.001,201.477l3-0.051c-0.069-1.624-0.068-3.249,0-4.873l-3-0.051
					C54.933,198.16,54.932,199.818,55.001,201.477z"/>
				<path fill="#231F20" d="M55.423,210.357l2.991-0.231c-0.099-1.621-0.3-3.235-0.317-4.862l-2.997,0.131
					C55.119,207.055,55.322,208.703,55.423,210.357z"/>
			</g>
		</g>
		<g>
			<g>
				<path fill="#231F20" d="M58.746,166.038l2.922,0.679c0.376-1.58,0.691-3.175,1.171-4.729l-2.897-0.779
					C59.454,162.796,59.13,164.425,58.746,166.038z"/>
				<polygon fill="#231F20" points="56.989,174.786 59.948,175.283 60.804,170.486 57.864,169.887 				"/>
				<polygon fill="#231F20" points="55.761,183.594 58.744,183.909 59.359,179.075 56.388,178.658 				"/>
			</g>
		</g>
		<g>
			<g>
				<polygon fill="#231F20" points="67.195,140.641 69.941,141.849 71.948,137.409 69.246,136.106 				"/>
				<polygon fill="#231F20" points="63.828,148.904 66.643,149.94 68.431,145.407 65.653,144.275 				"/>
				<path fill="#231F20" d="M61.039,157.35l2.874,0.86c0.408-1.574,0.983-3.095,1.49-4.638l-2.843-0.959
					C62.042,154.188,61.456,155.743,61.039,157.35z"/>
			</g>
		</g>
		<g>
			<g>
				<polygon fill="#231F20" points="80.183,117.234 82.659,118.928 85.483,114.956 83.066,113.179 				"/>
				<path fill="#231F20" d="M75.38,124.754l2.576,1.538c0.785-1.423,1.729-2.75,2.585-4.13l-2.522-1.625
					C77.145,121.945,76.183,123.302,75.38,124.754z"/>
				<path fill="#231F20" d="M71.074,132.536l2.666,1.376c0.736-1.448,1.465-2.9,2.303-4.292l-2.617-1.468
					C72.571,129.575,71.827,131.057,71.074,132.536z"/>
			</g>
		</g>
		<g>
			<g>
				<polygon fill="#231F20" points="97.25,96.61 99.375,98.728 102.895,95.357 100.843,93.168 				"/>
				<path fill="#231F20" d="M91.17,103.141l2.25,1.984c1.042-1.248,2.154-2.431,3.286-3.597l-2.181-2.059
					C93.37,100.659,92.235,101.868,91.17,103.141z"/>
				<path fill="#231F20" d="M85.5,109.99l2.367,1.843c1.017-1.266,1.977-2.58,3.041-3.808l-2.303-1.922
					C87.519,107.357,86.538,108.697,85.5,109.99z"/>
			</g>
		</g>
		<g>
			<g>
				<path fill="#231F20" d="M117.819,79.478l1.702,2.47c1.302-0.974,2.713-1.785,4.068-2.681l-1.616-2.527
					C120.589,77.654,119.149,78.485,117.819,79.478z"/>
				<path fill="#231F20" d="M110.64,84.775l1.85,2.362c1.281-0.999,2.535-2.034,3.88-2.947l-1.769-2.423
					C113.229,82.7,111.948,83.755,110.64,84.775z"/>
				<polygon fill="#231F20" points="103.804,90.462 105.794,92.707 109.478,89.516 107.564,87.205 				"/>
			</g>
		</g>
		<g>
			<g>
				<path fill="#231F20" d="M141.177,66.405l1.218,2.742c1.471-0.69,2.963-1.332,4.485-1.902l-1.123-2.782
					C144.203,65.045,142.679,65.701,141.177,66.405z"/>
				<polygon fill="#231F20" points="133.138,70.277 134.523,72.938 138.871,70.739 137.579,68.032 				"/>
				<polygon fill="#231F20" points="125.367,74.603 126.913,77.174 131.138,74.745 129.681,72.122 				"/>
			</g>
		</g>
		<g>
			<g>
				<path fill="#231F20" d="M166.542,57.861l0.689,2.919c1.585-0.351,3.159-0.762,4.754-1.065l-0.588-2.941
					C169.768,57.083,168.161,57.501,166.542,57.861z"/>
				<polygon fill="#231F20" points="157.92,60.161 158.79,63.032 163.477,61.701 162.708,58.801 				"/>
				<path fill="#231F20" d="M149.489,62.991l1.045,2.813c1.516-0.583,3.071-1.058,4.604-1.592l-0.947-2.847
					C152.625,61.91,151.037,62.397,149.489,62.991z"/>
			</g>
		</g>
		<g>
			<g>
				<polygon fill="#231F20" points="193.046,54.115 193.188,57.111 198.061,56.988 198.02,53.989 				"/>
				<path fill="#231F20" d="M184.152,54.817l0.324,2.982c1.609-0.225,3.237-0.273,4.854-0.419l-0.222-2.992
					C187.457,54.537,185.795,54.589,184.152,54.817z"/>
				<path fill="#231F20" d="M175.347,56.068l0.506,2.957c1.596-0.308,3.199-0.565,4.815-0.741l-0.405-2.973
					C178.613,55.491,176.976,55.754,175.347,56.068z"/>
			</g>
		</g>
	</g>
	<text transform="matrix(1 0 0 1 120.6621 305.293)" font-family="'ArialMT'" font-size="288">?</text>
</g>
</svg>
