<?xml version="1.0" encoding="utf-8"?>
<!-- Generator: Adobe Illustrator 16.0.0, SVG Export Plug-In . SVG Version: 6.00 Build 0)  -->
<!DOCTYPE svg PUBLIC "-//W3C//DTD SVG 1.1//EN" "http://www.w3.org/Graphics/SVG/1.1/DTD/svg11.dtd">
<svg version="1.1" id="Version_1.0" xmlns="http://www.w3.org/2000/svg" xmlns:xlink="http://www.w3.org/1999/xlink" x="0px" y="0px"
	 width="612px" height="792px" viewBox="0 0 612 792" enable-background="new 0 0 612 792" xml:space="preserve">
<g id="octagon" display="none">
	<g id="outFrame" display="inline">
		<line fill="none" stroke="#0000FF" stroke-width="2" x1="220" y1="309.5" x2="306" y2="273"/>
		<line fill="none" stroke="#0000FF" stroke-width="2" x1="306" y1="273" x2="390.5" y2="309.5"/>
		<line fill="none" stroke="#0000FF" stroke-width="2" x1="390.5" y1="309.5" x2="427" y2="396"/>
		<line fill="none" stroke="#0000FF" stroke-width="2" x1="427" y1="396" x2="390.5" y2="482.5"/>
		<line fill="none" stroke="#0000FF" stroke-width="2" x1="390.5" y1="482.5" x2="306" y2="516"/>
		<line fill="none" stroke="#0000FF" stroke-width="2" x1="306" y1="516" x2="220" y2="482.5"/>
		<line fill="none" stroke="#0000FF" stroke-width="2" x1="220" y1="482.5" x2="183" y2="396"/>
		<line fill="none" stroke="#0000FF" stroke-width="2" x1="183" y1="396" x2="220" y2="309.5"/>
	</g>
	
		<line id="mod2_1_" display="inline" fill="none" stroke="#0000FF" stroke-width="2" x1="203.966" y1="445.015" x2="406.199" y2="445.295"/>
	
		<line id="mod1_1_" display="inline" fill="none" stroke="#0000FF" stroke-width="2" x1="203.966" y1="346.985" x2="406.199" y2="346.705"/>
</g>
<g id="main">
	<polyline fill="none" stroke="#000000" stroke-width="8" points="191.4,394.2 230.6,364.6 223.4,319.8 253.8,341.4 262.6,301.4 
		288.2,348.6 301,287.8 318.6,334.2 347.4,299.8 353,344.6 381.8,320.6 381.8,370.2 416.2,401.4 381.8,430.2 389,462.2 356.2,446.2 
		351.4,486.2 325.8,440.6 305,505.4 284.2,455.8 265.8,481.4 249.8,433.4 216.2,447.8 226.6,425.4 191.4,394.2 	"/>
	<ellipse fill="none" stroke="#000000" stroke-width="8" cx="306" cy="424" rx="15" ry="15"/>
	<line fill="none" stroke="#000000" stroke-width="8" x1="306" y1="409" x2="306" y2="354"/>
	<line fill="none" stroke="#000000" stroke-width="8" x1="306" y1="354" x2="286" y2="374"/>
	<polyline fill="none" stroke="#000000" stroke-width="8" points="286,374 306,354 326,374 	"/>
</g>
</svg>
