<?xml version="1.0" encoding="utf-8"?>
<!-- Generator: Adobe Illustrator 16.0.0, SVG Export Plug-In . SVG Version: 6.00 Build 0)  -->
<!DOCTYPE svg PUBLIC "-//W3C//DTD SVG 1.1//EN" "http://www.w3.org/Graphics/SVG/1.1/DTD/svg11.dtd">
<svg version="1.1" id="Version_1.0" xmlns="http://www.w3.org/2000/svg" xmlns:xlink="http://www.w3.org/1999/xlink" x="0px" y="0px"
	 width="612px" height="792px" viewBox="0 0 612 792" enable-background="new 0 0 612 792" xml:space="preserve">
<g id="octagon" display="none">
	
		<line id="mod2_1_" display="inline" fill="none" stroke="#0000FF" stroke-width="2" x1="203.966" y1="445.015" x2="406.199" y2="445.295"/>
	
		<line id="mod1_1_" display="inline" fill="none" stroke="#0000FF" stroke-width="2" x1="203.966" y1="346.985" x2="406.199" y2="346.705"/>
	<g id="outFrame" display="inline">
		<line fill="none" stroke="#0000FF" stroke-width="2" x1="220" y1="309.5" x2="306" y2="273"/>
		<line fill="none" stroke="#0000FF" stroke-width="2" x1="306" y1="273" x2="390.5" y2="309.5"/>
		<line fill="none" stroke="#0000FF" stroke-width="2" x1="390.5" y1="309.5" x2="427" y2="396"/>
		<line fill="none" stroke="#0000FF" stroke-width="2" x1="427" y1="396" x2="390.5" y2="482.5"/>
		<line fill="none" stroke="#0000FF" stroke-width="2" x1="390.5" y1="482.5" x2="306" y2="516"/>
		<line fill="none" stroke="#0000FF" stroke-width="2" x1="306" y1="516" x2="220" y2="482.5"/>
		<line fill="none" stroke="#0000FF" stroke-width="2" x1="220" y1="482.5" x2="183" y2="396"/>
		<line fill="none" stroke="#0000FF" stroke-width="2" x1="183" y1="396" x2="220" y2="309.5"/>
	</g>
</g>
<g id="main">
	<path id="_65081736" fill="#FFFFFF" d="M263.5,345.1v1.1c0,0.8,2.1,2.5,2.8,2.5h0.6c2.4,0,2.8-2.4,3.7-3.6c0.7-0.8,3.2-2.8,4.3-3.6
		l-5-4c-0.3,1-2.2,3.1-2.9,4.2C266.3,342.9,263.5,343.6,263.5,345.1z"/>
	<path id="_65428032" d="M351.1,344.8c3.4,0.8,6.7,7,6.7,11.2v2.2c0,2.7-2,7.6-4.2,7.6h-0.8c-3.3,0-6.2-8.2-6.2-12.1v-1
		c0-2,0.801-3.5,1.101-5.1h0.6c0.2,0.7,2.2,3.7,2.8,3.7c1.301,0,2-0.7,2-2v-1.1C353.1,347.7,351.5,345.4,351.1,344.8z M341,329.9
		c-1.1-0.8-1.8-3.1-3.6-3.1c-0.801,0-1.7,1.2-1.7,2.2c0,0.4,1.399,2.2,1.7,2.8c-0.9,0.1-1,0.3-2,0.3H334.6c-4,0-11.899-3.2-12.6-5.9
		h4.8c1.4,0,2.5-0.8,2.5-2.2c0-2.7-3.7-2.2-6.5-2.2c2.9-2.5,8.9-1.6,12.101,0C338.5,323.6,342.1,325.1,341,329.9z M290.4,332.2
		c0-6.9,12.6-15.9,16.3-10.4c-2.7,0-5.6-0.5-5.6,2.2c0,2,1.1,2.2,3.1,2.2h2c-1.1,4.9-7.3,10.5-13.5,10.5c-1,0-2.2-1.5-2.2-2.8v-1.7
		H290.4z M287.1,334.4c0,2.7,2.7,4.7,5.3,5.1c2.9,0.5,5.5-0.7,7.7-1.9c3.1-1.7,8.8-7.2,9.2-11.3h8.4c0.5,0,2.399,2.9,3.2,3.6
		c1.3,1.3,2,1.8,3.8,2.7c1.7,0.8,8,3.1,10.5,2.7l4.2-0.5l6.699,9.8c-1.5,2.1-2.6,4.5-2.6,8.1v3.1c0,4.3,4.3,12.9,8.7,12.9h1.399
		c4.4,0,7-5.8,7-10.4v-2c0-3.2-1.699-7.9-3-9.9c-2.399-3.8-3.199-4.1-8.199-4.1c-0.301,0-6.101-8.6-6.7-9.6c0.7-0.8,2-2.2,2-3.7
		c0-4.1-2.8-6.7-5.4-8.4c-1.899-1.1-7.5-3.3-10.399-3.3h-2.5c-3.4,0-7.5,1.9-8.101,4.5h-8.7c-0.6-2.5-2.6-4.8-5.7-4.8h-1.7
		c-5.6,0-15.2,9.6-15.2,15.2v2.2H287.1z"/>
	<path id="_65789088" fill="#FFFFFF" d="M364.6,378.6l0.601,9c0.2,2.4,1.6,2.1,3.1,2.8c1.3-0.7,3.101-1.2,3.101-3.1
		c0-1.3-0.301-1.7-0.9-2.5l0.9-6.5L364.6,378.6z"/>
	<path id="_66342352" d="M330.1,423.2c0-8.5,5.2-16.4,10.2-19.8c7.4-5,12.5-5.4,24.3-5.4c1.2,0,7.4,2.7,8.801,3.3
		c2.1,0.8,5.6,3.4,6.899,5.101c1.8,2.3,3.7,3.899,5.101,7c1.199,2.5,2.199,6.199,2.199,9.8v3.7c0,8-3.5,12.1-7,16.6
		c-3.699,4.8-9.699,5.7-15.1,8.3c-1.1-1.6-3.4-2.2-6.2-2.2h-1.1c-2.5,0-3.8,1.5-5.3,2.5C339.1,451,330.1,439.4,330.1,424V423.2z
		 M371.4,378.2l-1,6.5c0.6,0.8,1,1.2,1,2.5c0,1.8-1.801,2.4-3.101,3.1c-1.5-0.7-3-0.4-3.1-2.8l-0.601-9L371.4,378.2z M328.8,398.7
		c-1.1,1.5-2.899,3.3-4.1,5c-0.9,1.3-2.5,4.399-3.2,5.899c-1.7,4-2.7,9.7-2.7,15.301c0,12,3.9,19.399,9.601,25.8
		c2.8,3.1,6.1,5.7,10,7.7c2.399,1.199,10,4.399,13.199,4.5c2,3.8,7,6.1,11.801,3.699c2-1,3.8-3.899,4.8-4.199
		c2.5-0.801,4.2-1.2,6.6-2.101c9.5-3.8,14-8.1,19.2-16.2c4.4-7,5.5-19.5,3.3-29.6c-1.2-5.4-3.2-8.1-5.7-12c-1.3-2-6.899-7.8-9-8.4
		l-0.6-16.4c-3-1.5-8.7-3.7-12-4.9c-0.3-0.1-13.4,0.6-15.8,0.7c-4.9,0.1-11.5,0.2-15.2,1.6c-3.4,1.3-8.3,3.7-11.4,5.4L328.8,398.7z"
		/>
	<path id="_66285896" d="M263.5,345.1c0-1.5,2.8-2.2,3.6-3.4c0.7-1.1,2.6-3.1,2.9-4.2l4.9,4.1c-1.1,0.7-3.6,2.7-4.3,3.6
		c-1,1.2-1.3,3.6-3.7,3.6h-0.6c-0.7,0-2.8-1.7-2.8-2.5V345.1z M222.5,380.5c0-13.7,13.4-27.3,27-27.3h2.5c9.9,0,14.8,6.8,20.2,11.6
		c2.8,2.6,5.5,4.9,8.2,7.6c2,2,6.1,6.1,8.2,7.5c1.4-2.3,12.8-12.9,12.8-14.3c0-0.8-5.3-12.5-6-13.1c-3.3-3.3-6.6-6.1-9.8-9.3
		c-3-3-6.7-6.6-10-9.1c-2-1.6-10.3-4-13.3-5.6l-13,13.9c-11.5-0.1-19.6,5.2-25.4,10.9c-5,5-12.2,14.3-12.2,24.1v3.4
		c0,4.6,1.6,10,2.8,13.5c0.8,1.8,1.7,3.7,2.7,5.5c1.6,2.9,1.7,2,1.5,5.601c-0.2,3.8,0.9,1.8-1.4,5.6c-1,1.5-2.1,3.7-2.8,5.4
		c-1.3,3-3,9-3,13v3.6c0,16.1,17.2,34.2,32,35.4l-1.4,4.199l11.3-3v5l9.7-6.6l1.3,3.8l7-8.6l2.5,2.899l0.2-0.199
		c0.1-1.2,1.8-4.801,2.3-6.101c0.8-2.2,0.3-1.1,1.8-2.399c0.6-0.5,1.2-1.7,1.2-2.7c0-2.4-3.2-5.601-5.5-6c-2.3-0.5-5.4,2.5-7.2,3.6
		c-4.2,2.601-10.4,5.5-17,5.5h-0.8c-13,0-26.1-13-26.1-26.1v-1.2c0-6.3,2.9-11.6,5.1-15.7c11.6,0,12.7-18.3-0.3-18.3
		c-2.5-3.6-5.1-9.2-5.1-15.2V380.5z"/>
</g>
</svg>
