<?xml version="1.0" encoding="utf-8"?>
<!-- Generator: Adobe Illustrator 14.0.0, SVG Export Plug-In . SVG Version: 6.00 Build 43363)  -->
<!DOCTYPE svg PUBLIC "-//W3C//DTD SVG 1.1//EN" "http://www.w3.org/Graphics/SVG/1.1/DTD/svg11.dtd">
<svg version="1.1" id="Version_1.0" xmlns="http://www.w3.org/2000/svg" xmlns:xlink="http://www.w3.org/1999/xlink" x="0px" y="0px"
	 width="612px" height="792px" viewBox="0 0 612 792" enable-background="new 0 0 612 792" xml:space="preserve">
<g id="octagon" display="none">
	<g id="outFrame" display="inline">
		<line fill="none" stroke="#0000FF" stroke-width="2" x1="220" y1="309.5" x2="306" y2="273"/>
		<line fill="none" stroke="#0000FF" stroke-width="2" x1="306" y1="273" x2="390.5" y2="309.5"/>
		<line fill="none" stroke="#0000FF" stroke-width="2" x1="390.5" y1="309.5" x2="427" y2="396"/>
		<line fill="none" stroke="#0000FF" stroke-width="2" x1="427" y1="396" x2="390.5" y2="482.5"/>
		<line fill="none" stroke="#0000FF" stroke-width="2" x1="390.5" y1="482.5" x2="306" y2="516"/>
		<line fill="none" stroke="#0000FF" stroke-width="2" x1="306" y1="516" x2="220" y2="482.5"/>
		<line fill="none" stroke="#0000FF" stroke-width="2" x1="220" y1="482.5" x2="183" y2="396"/>
		<line fill="none" stroke="#0000FF" stroke-width="2" x1="183" y1="396" x2="220" y2="309.5"/>
	</g>
	<line id="mod2_1_" fill="none" stroke="#0000FF" stroke-width="2" x1="203.966" y1="445.015" x2="406.199" y2="445.295"/>
	<line id="mod1_1_" fill="none" stroke="#0000FF" stroke-width="2" x1="203.966" y1="346.985" x2="406.199" y2="346.705"/>
</g>
<g id="main">
	<path d="M402.773,411.217c-16.168,28.745-38.168,79.745-79.548,60.15c-2.833-0.845-5.581-1.884-8.23-3.104
		c-11.39-5.302-23.39-13.302-21.39-25.302c4-24-1-45,3-69c1-3,4-5,5.636-6.74c2.242-2,4.583-3.942,6.989-5.82s4.875-3.69,7.375-5.44
		c11-7,22-1,32.041,3.268c2.903,1.343,5.792,2.732,8.709,4.107c8.75,4.125,17.75,8.125,28.25,10.625
		c8.25,1.5,13.125,9.188,15.548,18.149c0.808,2.986,1.343,6.115,1.635,9.202C403.217,404.585,403.234,407.892,402.773,411.217z"/>
	<line fill="none" stroke="#000000" stroke-width="5" x1="214" y1="349.5" x2="281.5" y2="380.5"/>
	<line fill="none" stroke="#000000" stroke-width="5" x1="202.5" y1="380.5" x2="276.5" y2="417.007"/>
	<line fill="none" stroke="#000000" stroke-width="5" x1="234.5" y1="317.5" x2="300" y2="349.5"/>
</g>
</svg>
