<?xml version="1.0" encoding="utf-8"?>
<!-- Generator: Adobe Illustrator 16.0.0, SVG Export Plug-In . SVG Version: 6.00 Build 0)  -->
<!DOCTYPE svg PUBLIC "-//W3C//DTD SVG 1.1//EN" "http://www.w3.org/Graphics/SVG/1.1/DTD/svg11.dtd">
<svg version="1.1" id="Version_1.0" xmlns="http://www.w3.org/2000/svg" xmlns:xlink="http://www.w3.org/1999/xlink" x="0px" y="0px"
	 width="612px" height="792px" viewBox="0 0 612 792" enable-background="new 0 0 612 792" xml:space="preserve">
<g id="octagon" display="none">
	<g id="outFrame" display="inline">
		<line fill="none" stroke="#0000FF" stroke-width="2" x1="220" y1="309.5" x2="306" y2="273"/>
		<line fill="none" stroke="#0000FF" stroke-width="2" x1="306" y1="273" x2="390.5" y2="309.5"/>
		<line fill="none" stroke="#0000FF" stroke-width="2" x1="390.5" y1="309.5" x2="427" y2="396"/>
		<line fill="none" stroke="#0000FF" stroke-width="2" x1="427" y1="396" x2="390.5" y2="482.5"/>
		<line fill="none" stroke="#0000FF" stroke-width="2" x1="390.5" y1="482.5" x2="306" y2="516"/>
		<line fill="none" stroke="#0000FF" stroke-width="2" x1="306" y1="516" x2="220" y2="482.5"/>
		<line fill="none" stroke="#0000FF" stroke-width="2" x1="220" y1="482.5" x2="183" y2="396"/>
		<line fill="none" stroke="#0000FF" stroke-width="2" x1="183" y1="396" x2="220" y2="309.5"/>
	</g>
	
		<line id="mod2_1_" display="inline" fill="none" stroke="#0000FF" stroke-width="2" x1="203.966" y1="445.015" x2="406.199" y2="445.295"/>
	
		<line id="mod1_1_" display="inline" fill="none" stroke="#0000FF" stroke-width="2" x1="203.966" y1="346.985" x2="406.199" y2="346.705"/>
</g>
<g id="main">
	<path id="pattern" d="M372.11,438.44l4.409-1.53l0.631,14.76h-5.04V438.44z M335.39,418.1c6.301,3.33,6.57,5.671,9.99,11.881
		c2.521,4.409,5.851,9.63,5.851,16.109c0.359,0.63,1.17,2.07,2.069,2.07c2.971,0,6.12-10.89,8.641-12.78v0.99h0.989v15.3h-27.54
		V418.1z M286.97,416.57c0-3.061,10.98-2.521,14.76-2.521c5.76,0,11.88-1.529,15.84-1.529c2.79,0,6.479,1.89,9.18,2.52v36.72h-39.78
		V416.57z M250.79,435.38c2.88,1.08,6.21,13.771,8.64,13.771c4.32,0,4.5-12.42,7.11-16.83c2.79-4.59,5.22-11.88,11.25-13.23v32.67
		h-27V435.38z M237.11,437.45c1.26,0.27,3.96,0.899,3.96,2.52v11.7h-4.68L237.11,437.45z M361.4,423.14
		c-0.63-4.68,3.779-11.159,8.729-11.159c4.771,0,8.19,6.21,8.19,11.25v0.54c0,6.93-2.88,6.84-5.13,10.17l-6.66,0.09l-4.771-6.12
		L361.4,423.14z M251.24,423.68c0,9.54-9.99,14.49-15.12,6.931c-4.14-6.12-1.53-18.63,6.48-18.63c4.86,0,8.64,5.399,8.64,10.17
		V423.68z M250.79,338.54h27v74.43c0,1.71-5.04,2.7-7.02,4.681c-1.62,1.62-3.51,4.5-4.77,6.479c-2.34,3.42-6.48,10.71-6.57,15.84
		l-5.22-8.64c0.72-1.35,1.62-5.13,1.62-7.2v-2.97c0-5.85-5.13-9.18-5.13-12.24v-70.38H250.79z M335.39,338.54h27.54v70.38
		c0,0.9-5.04,5.851-5.939,9.9c-1.44,6.479,0.18,7.47,1.35,12.51l-3.78,6.75c-1.17-3.96-5.489-10.98-7.649-14.22
		c-2.88-4.41-4.95-9.36-11.521-9.9V338.54z M286.97,402.8l6.03,6.75l-6.03,1.351V402.8z M326.93,396.23l-0.18,13.68l-7.38-1.35
		L326.93,396.23z M303.8,408.38c-9.54,0-17.1-12.87-16.65-22.86c0.36-10.17,7.11-22.5,17.19-22.5h2.07
		c8.91,0,16.83,11.79,16.83,20.88v3.6c0,8.46-7.561,20.88-15.3,20.88H303.8L303.8,408.38z M286.97,338.54h39.78v37.26
		c-2.43-2.88-2.88-6.75-7.29-11.16c-2.88-2.88-7.02-5.76-12.6-5.76h-0.99c-4.5,0-9,1.26-11.61,3.15c-1.44,1.08-2.7,2.07-3.96,3.24
		c-1.35,1.35-1.8,2.79-3.33,3.87V338.54z M225.23,338.54h15.84v69.39c-6.57,1.53-11.7,7.74-11.7,15.841
		c0,5.579,2.88,7.47,3.06,10.71c0.27,3.96-0.54,8.369-0.54,13.14v4.05h-6.66v11.7h159.66v-11.7h-3.149l-0.9-19.35
		c5.76-8.641,0.54-22.32-8.729-24.48v-69.3h12.779v-11.7H225.23V338.54z"/>
	<line fill="none" stroke="#000000" stroke-width="10" x1="227.258" y1="461.459" x2="380.264" y2="329.5"/>
</g>
</svg>
