<?xml version="1.0" encoding="utf-8"?>
<!-- Generator: Adobe Illustrator 16.0.0, SVG Export Plug-In . SVG Version: 6.00 Build 0)  -->
<!DOCTYPE svg PUBLIC "-//W3C//DTD SVG 1.1//EN" "http://www.w3.org/Graphics/SVG/1.1/DTD/svg11.dtd">
<svg version="1.1" id="Version_1.0" xmlns="http://www.w3.org/2000/svg" xmlns:xlink="http://www.w3.org/1999/xlink" x="0px" y="0px"
	 width="612px" height="792px" viewBox="0 0 612 792" enable-background="new 0 0 612 792" xml:space="preserve">
<g id="octagon" display="none">
	<g id="outFrame" display="inline">
		<line fill="none" stroke="#0000FF" stroke-width="2" x1="220" y1="309.5" x2="306" y2="273"/>
		<line fill="none" stroke="#0000FF" stroke-width="2" x1="306" y1="273" x2="390.5" y2="309.5"/>
		<line fill="none" stroke="#0000FF" stroke-width="2" x1="390.5" y1="309.5" x2="427" y2="396"/>
		<line fill="none" stroke="#0000FF" stroke-width="2" x1="427" y1="396" x2="390.5" y2="482.5"/>
		<line fill="none" stroke="#0000FF" stroke-width="2" x1="390.5" y1="482.5" x2="306" y2="516"/>
		<line fill="none" stroke="#0000FF" stroke-width="2" x1="306" y1="516" x2="220" y2="482.5"/>
		<line fill="none" stroke="#0000FF" stroke-width="2" x1="220" y1="482.5" x2="183" y2="396"/>
		<line fill="none" stroke="#0000FF" stroke-width="2" x1="183" y1="396" x2="220" y2="309.5"/>
	</g>
	
		<line id="mod2_1_" display="inline" fill="none" stroke="#0000FF" stroke-width="2" x1="203.966" y1="445.015" x2="406.199" y2="445.295"/>
	
		<line id="mod1_1_" display="inline" fill="none" stroke="#0000FF" stroke-width="2" x1="203.966" y1="346.985" x2="406.199" y2="346.705"/>
</g>
<g id="main">
	<path id="_72297208" d="M296.3,431.8H314V402.4h60.9v-62.2H359.1v46.5H314v-26.8c0-2.3,5.2-3.1,7.4-4.3c1.899-1,5.3-3.6,6.8-5
		c3.7-3.6,8-9,9.5-14.8c4-15.8-0.601-26.4-9.5-35.3c-7.5-7.7-23.1-12.2-35.8-6.8c-9,3.9-20.9,15.4-20.9,27.5v7.9
		c0,6.9,4.8,15.5,8.3,19.2c2.5,2.5,4.4,4.3,7.6,6.2c2.4,1.4,9,3.3,9,5.4v26.8h-45.2v-46.5h-15.7v62.2h60.9V431.8H296.3z"/>
	<polygon id="_40642360" points="296.3,431.8 278.6,431.8 278.6,503.2 296.3,503.2 	"/>
	<polygon id="_39018016" points="314,431.8 314,503.2 331.7,503.2 331.7,431.8 	"/>
</g>
</svg>
