<?xml version="1.0" encoding="utf-8"?>
<!-- Generator: Adobe Illustrator 14.0.0, SVG Export Plug-In . SVG Version: 6.00 Build 43363)  -->
<!DOCTYPE svg PUBLIC "-//W3C//DTD SVG 1.1//EN" "http://www.w3.org/Graphics/SVG/1.1/DTD/svg11.dtd">
<svg version="1.1" id="Version_1.0" xmlns="http://www.w3.org/2000/svg" xmlns:xlink="http://www.w3.org/1999/xlink" x="0px" y="0px"
	 width="612px" height="792px" viewBox="0 0 612 792" enable-background="new 0 0 612 792" xml:space="preserve">
<g id="octagon" display="none">
	<g id="outFrame" display="inline">
		<line fill="none" stroke="#0000FF" stroke-width="2" x1="220" y1="309.5" x2="306" y2="273"/>
		<line fill="none" stroke="#0000FF" stroke-width="2" x1="306" y1="273" x2="390.5" y2="309.5"/>
		<line fill="none" stroke="#0000FF" stroke-width="2" x1="390.5" y1="309.5" x2="427" y2="396"/>
		<line fill="none" stroke="#0000FF" stroke-width="2" x1="427" y1="396" x2="390.5" y2="482.5"/>
		<line fill="none" stroke="#0000FF" stroke-width="2" x1="390.5" y1="482.5" x2="306" y2="516"/>
		<line fill="none" stroke="#0000FF" stroke-width="2" x1="306" y1="516" x2="220" y2="482.5"/>
		<line fill="none" stroke="#0000FF" stroke-width="2" x1="220" y1="482.5" x2="183" y2="396"/>
		<line fill="none" stroke="#0000FF" stroke-width="2" x1="183" y1="396" x2="220" y2="309.5"/>
	</g>
	<line id="mod2_1_" fill="none" stroke="#0000FF" stroke-width="2" x1="203.966" y1="445.015" x2="406.199" y2="445.295"/>
	<line id="mod1_1_" fill="none" stroke="#0000FF" stroke-width="2" x1="203.966" y1="346.985" x2="406.199" y2="346.705"/>
</g>
<g id="main">
	<g>
		<polyline fill="#FFFFFF" stroke="#000000" stroke-width="10" points="225,356 225,436 315,436 355,476 355,316 315,356 225,356 
			225,436 		"/>
		<line fill="none" stroke="#000000" stroke-width="10" x1="355" y1="413" x2="395" y2="413"/>
		<line fill="none" stroke="#000000" stroke-width="10" x1="355" y1="379" x2="395" y2="379"/>
		<line fill="none" stroke="#000000" stroke-width="10" x1="355" y1="346" x2="395" y2="346"/>
		<line fill="none" stroke="#000000" stroke-width="10" x1="355" y1="446" x2="395" y2="446"/>
	</g>
	<g>
		<line fill="none" stroke="#000000" stroke-width="10" x1="173" y1="264" x2="305" y2="416"/>
		<line fill="none" stroke="#000000" stroke-width="10" x1="305" y1="376" x2="437" y2="528"/>
		<line fill="none" stroke="#000000" stroke-width="10" x1="305" y1="373" x2="305" y2="419"/>
	</g>
</g>
</svg>
