<?xml version="1.0" encoding="utf-8"?>
<!-- Generator: Adobe Illustrator 16.0.0, SVG Export Plug-In . SVG Version: 6.00 Build 0)  -->
<!DOCTYPE svg PUBLIC "-//W3C//DTD SVG 1.1//EN" "http://www.w3.org/Graphics/SVG/1.1/DTD/svg11.dtd">
<svg version="1.1" id="Version_1.0" xmlns="http://www.w3.org/2000/svg" xmlns:xlink="http://www.w3.org/1999/xlink" x="0px" y="0px"
	 width="612px" height="792px" viewBox="0 0 612 792" enable-background="new 0 0 612 792" xml:space="preserve">
<g id="octagon" display="none">
	<g id="outFrame" display="inline">
		<line fill="none" stroke="#0000FF" stroke-width="2" x1="220" y1="309.5" x2="306" y2="273"/>
		<line fill="none" stroke="#0000FF" stroke-width="2" x1="306" y1="273" x2="390.5" y2="309.5"/>
		<line fill="none" stroke="#0000FF" stroke-width="2" x1="390.5" y1="309.5" x2="427" y2="396"/>
		<line fill="none" stroke="#0000FF" stroke-width="2" x1="427" y1="396" x2="390.5" y2="482.5"/>
		<line fill="none" stroke="#0000FF" stroke-width="2" x1="390.5" y1="482.5" x2="306" y2="516"/>
		<line fill="none" stroke="#0000FF" stroke-width="2" x1="306" y1="516" x2="220" y2="482.5"/>
		<line fill="none" stroke="#0000FF" stroke-width="2" x1="220" y1="482.5" x2="183" y2="396"/>
		<line fill="none" stroke="#0000FF" stroke-width="2" x1="183" y1="396" x2="220" y2="309.5"/>
	</g>
	
		<line id="mod2_1_" display="inline" fill="none" stroke="#0000FF" stroke-width="2" x1="203.966" y1="445.015" x2="406.199" y2="445.295"/>
	
		<line id="mod1_1_" display="inline" fill="none" stroke="#0000FF" stroke-width="2" x1="203.966" y1="346.985" x2="406.199" y2="346.705"/>
</g>
<g id="main">
	<path id="_66314896" d="M300.54,404.42c0.84-1.4,1.96-4.62,3.5-4.62h3.5c1.68,0,3.5,3.22,3.5,5.04c0,0.14-2.24,4.061-3.5,4.061
		h-3.5C302.5,409.04,301.38,405.82,300.54,404.42z M293.4,404.42l5.6,10.64h12.6c1.82,0,6.021-8.96,7.141-10.64l-6.021-11.2h-12.18
		C298.58,393.36,294.38,402.46,293.4,404.42z"/>
	<path id="_65769096" d="M303.06,427.24c-9.94,0-20.72-12.46-20.3-23.24c0.42-10.92,10.5-22.4,20.72-22.4h5.04
		c10.5,0,20.721,11.76,20.721,22.82c0,10.64-10.08,22.82-20.16,22.82H303.06L303.06,427.24z M276.74,402.46v4.62
		c0,12.88,13.44,26.88,26.32,26.88h6.02c14,0,26.88-14.56,26.88-29.4c0-14.979-13.16-29.399-27.3-29.399h-5.18
		C290.04,375.02,276.74,388.74,276.74,402.46L276.74,402.46z"/>
	<path id="_116579992" d="M255.88,473.3v-2.52c3.22,0.279,14.28,4.62,19.32,5.6c7,1.4,14.42,2.521,22.68,2.521h16.24
		c8.399,0,15.26-1.12,22.26-2.521c5.04-0.979,16.24-5.32,19.32-5.6v2.52c0,7.14-31.221,11.2-41.58,11.2h-16.1
		C287.8,484.5,255.88,480.439,255.88,473.3L255.88,473.3z M300.54,364.8l11.2,0.14l30.939,0.98v20.86h15.681v29.82h-15.82v43.54
		l11.2,3.36c-2.94,4.06-30.521,8.26-39.62,8.26h-16.1c-8.82,0-37.38-4.479-40.04-8.12l11.48-3.92l0.14-43.12h-15.68v-29.82h15.68
		v-20.86L300.54,364.8L300.54,364.8z M364.8,379.64h7.561v16.66h8.12v9.66h-8.12v16.66H364.8V379.64z M239.78,379.64h7.14v42.98
		h-7.14v-16.66h-8.68v-9.66h8.54v-16.66H239.78z M305.02,358.92c-12.88,0-24.22,0.42-36.96,0.56c-10.92,0-8.68-6.44-4.48-7
		c5.32-0.84,12.32-0.28,17.22-1.12c13.16-1.96,59.08-0.7,70.28,1.96c0.42,4.48,0.979,3.78-2.521,6.02l-39.479-0.56L305.02,358.92z
		 M302.5,306.28h7.14v9.52h5.04v4.62c8.12,1.82,13.301,2.66,18.62,7.7c3.36,3.22,8.68,10.78,9.24,16.66l-25.9-0.7l-24.78,0.14
		l0.56-0.28l-22.82,1.26c0.98-11.76,12.88-24.36,25.9-24.36h1.96v-5.04h5.04V306.28z M295.92,309.22h-5.04v5.6
		c-14.14,1.26-26.6,16.38-27.86,31.36c-5.6,0.56-5.74,3.22-8.54,5.18l-0.56,3.92c-0.84,5.6,5.04,9.66,9.1,10.64v13.72h-9.1v-6.02
		H233.2v16.66h-8.12v22.26h8.12v15.68h20.72v-6.02h9.1v32.34c-5.74,1.399-13.72,5.04-13.72,12.18v5.04
		c0,15.82,32.2,19.18,49.56,19.18h14.7c17.36,0,48.58-3.079,48.58-19.18v-5.04c0-7-7.42-10.78-13.16-12.18V422.2h9.101v6.02h20.3
		v-15.68h8.12v-22.82h-7.98v-16.1h-20.3v6.02h-9.1v-13.72c4.06-0.84,9.1-4.48,9.1-9.52c0-5.6-4.06-9.66-9.1-10.08
		c-1.26-14.7-14.28-30.24-28.42-31.5v-5.6h-5.04v-10.08h-19.74V309.22z"/>
</g>
</svg>
