<?xml version="1.0" encoding="utf-8"?>
<!-- Generator: Adobe Illustrator 16.0.0, SVG Export Plug-In . SVG Version: 6.00 Build 0)  -->
<!DOCTYPE svg PUBLIC "-//W3C//DTD SVG 1.1//EN" "http://www.w3.org/Graphics/SVG/1.1/DTD/svg11.dtd">
<svg version="1.1" id="Version_1.0" xmlns="http://www.w3.org/2000/svg" xmlns:xlink="http://www.w3.org/1999/xlink" x="0px"
	 y="0px" width="612px" height="792px" viewBox="0 0 612 792" enable-background="new 0 0 612 792" xml:space="preserve">
<g id="octagon" display="none">
	<g id="outFrame" display="inline">
		<line fill="none" stroke="#0000FF" stroke-width="2" x1="220" y1="309.5" x2="306" y2="273"/>
		<line fill="none" stroke="#0000FF" stroke-width="2" x1="306" y1="273" x2="390.5" y2="309.5"/>
		<line fill="none" stroke="#0000FF" stroke-width="2" x1="390.5" y1="309.5" x2="427" y2="396"/>
		<line fill="none" stroke="#0000FF" stroke-width="2" x1="427" y1="396" x2="390.5" y2="482.5"/>
		<line fill="none" stroke="#0000FF" stroke-width="2" x1="390.5" y1="482.5" x2="306" y2="516"/>
		<line fill="none" stroke="#0000FF" stroke-width="2" x1="306" y1="516" x2="220" y2="482.5"/>
		<line fill="none" stroke="#0000FF" stroke-width="2" x1="220" y1="482.5" x2="183" y2="396"/>
		<line fill="none" stroke="#0000FF" stroke-width="2" x1="183" y1="396" x2="220" y2="309.5"/>
	</g>
	<line id="mod2_1_" fill="none" stroke="#0000FF" stroke-width="2" x1="203.966" y1="445.015" x2="406.199" y2="445.295"/>
	<line id="mod1_1_" fill="none" stroke="#0000FF" stroke-width="2" x1="203.966" y1="346.985" x2="406.199" y2="346.705"/>
</g>
<g id="main">
	<path fill="#FFFFFF" stroke="#000000" stroke-width="5" stroke-miterlimit="10" d="M359.75,474.625
		c0,7.111-24.009,12.875-53.625,12.875s-53.292-5.666-53.875-12.666c-0.109-1.307-1.25-9.833-0.083-11.417
		c5.061-6.872,29.803-1.667,53.958-1.667c24.309,0,46.548-4.049,53.125,1.275C360.687,464.188,359.75,473.351,359.75,474.625z"/>
	<path fill="#FFFFFF" stroke="#000000" stroke-width="6" stroke-miterlimit="10" d="M361.417,383.333L346,383.25V362.5h-79.75V383
		H251l-0.25,36.5h15.5v35.75c-8.544,2.435-13.75,4.238-13.75,7.775c0,7.58,23.897,13.725,53.375,13.725
		c29.478,0,53.375-6.145,53.375-13.725c0-3.466-4.758-5.109-13-7.525L346,420h15.5L361.417,383.333z"/>
	<path id="_66314896" d="M300.54,404.42c0.84-1.4,1.96-4.62,3.5-4.62h3.5c1.68,0,3.5,3.22,3.5,5.04c0,0.141-2.24,4.062-3.5,4.062
		h-3.5C302.5,409.04,301.38,405.82,300.54,404.42z M293.4,404.42l5.6,10.64h12.6c1.82,0,6.021-8.96,7.142-10.64l-6.021-11.2h-12.18
		C298.58,393.36,294.38,402.46,293.4,404.42z"/>
	<path id="_65769096" d="M303.06,427.24c-9.94,0-20.72-12.46-20.3-23.24c0.42-10.92,10.5-22.4,20.72-22.4h5.04
		c10.5,0,20.722,11.76,20.722,22.82c0,10.64-10.08,22.82-20.16,22.82H303.06L303.06,427.24z M276.74,402.46v4.62
		c0,12.88,13.44,26.88,26.32,26.88h6.02c14,0,26.88-14.56,26.88-29.4c0-14.979-13.16-29.398-27.3-29.398h-5.18
		C290.04,375.02,276.74,388.74,276.74,402.46L276.74,402.46z"/>
	<path fill="#FFFFFF" stroke="#000000" stroke-width="6" stroke-miterlimit="10" d="M263,362.25h85c3.59,0,6.5-2.91,6.5-6.5
		s-2.91-6.5-6.5-6.5h-85c-3.59,0-6.5,2.91-6.5,6.5S259.41,362.25,263,362.25z"/>
	<polygon fill="#FFFFFF" stroke="#000000" stroke-width="6" stroke-miterlimit="10" points="250,425.438 235.625,425.416 
		235.667,409.166 227,409.125 227,393.666 235.375,393.668 235.333,376.166 250.042,376.166 	"/>
	<polygon fill="#FFFFFF" stroke="#000000" stroke-width="6" stroke-miterlimit="10" points="362.043,376.166 376.418,376.187 
		376.376,392.437 385.043,392.479 385.043,407.938 376.668,407.936 376.709,425.438 362.001,425.438 	"/>
	<g>
		<path fill="#FFFFFF" stroke="#000000" stroke-width="6" stroke-miterlimit="10" d="M316.832,317.145l-0.04-4.687h-4.729v-10.833
			h-12.688v11l-5.708,0.042l0.019,4.285c-15.674,4.157-27.117,16.783-27.328,31.77h77.117
			C343.267,333.955,332.152,321.484,316.832,317.145z"/>
		<path fill="#FFFFFF" stroke="#000000" stroke-width="6" stroke-miterlimit="10" d="M266.354,349.394v-0.507
			c-0.001,0.084-0.007,0.168-0.007,0.253C266.347,349.225,266.353,349.309,266.354,349.394z"/>
	</g>
</g>
</svg>
