<?xml version="1.0" encoding="utf-8"?>
<!-- Generator: Adobe Illustrator 16.0.0, SVG Export Plug-In . SVG Version: 6.00 Build 0)  -->
<!DOCTYPE svg PUBLIC "-//W3C//DTD SVG 1.1//EN" "http://www.w3.org/Graphics/SVG/1.1/DTD/svg11.dtd">
<svg version="1.1" id="Version_1.0" xmlns="http://www.w3.org/2000/svg" xmlns:xlink="http://www.w3.org/1999/xlink" x="0px"
	 y="0px" width="612px" height="792px" viewBox="0 0 612 792" enable-background="new 0 0 612 792" xml:space="preserve">
<g id="octagon" display="none">
	<g id="outFrame" display="inline">
		<line fill="none" stroke="#0000FF" stroke-width="2" x1="220" y1="309.5" x2="306" y2="273"/>
		<line fill="none" stroke="#0000FF" stroke-width="2" x1="306" y1="273" x2="390.5" y2="309.5"/>
		<line fill="none" stroke="#0000FF" stroke-width="2" x1="390.5" y1="309.5" x2="427" y2="396"/>
		<line fill="none" stroke="#0000FF" stroke-width="2" x1="427" y1="396" x2="390.5" y2="482.5"/>
		<line fill="none" stroke="#0000FF" stroke-width="2" x1="390.5" y1="482.5" x2="306" y2="516"/>
		<line fill="none" stroke="#0000FF" stroke-width="2" x1="306" y1="516" x2="220" y2="482.5"/>
		<line fill="none" stroke="#0000FF" stroke-width="2" x1="220" y1="482.5" x2="183" y2="396"/>
		<line fill="none" stroke="#0000FF" stroke-width="2" x1="183" y1="396" x2="220" y2="309.5"/>
	</g>
	
		<line id="mod2_1_" display="inline" fill="none" stroke="#0000FF" stroke-width="2" x1="203.966" y1="445.015" x2="406.199" y2="445.295"/>
	
		<line id="mod1_1_" display="inline" fill="none" stroke="#0000FF" stroke-width="2" x1="203.966" y1="346.985" x2="406.199" y2="346.705"/>
</g>
<g id="main">
	<line fill="none" stroke="#000000" stroke-width="10" x1="175" y1="443" x2="435" y2="443"/>
	<g>
		<path d="M303.948,352.68c-3.926,9.448-5.342,20.444-5.836,28.054c-1.051,16.185,0.967,35.493,7.038,49.524
			c-5.664-2.128-10.553-5.531-14.482-10.128c-6.459-7.557-10.016-17.82-10.016-28.898c0-11.079,3.557-21.342,10.016-28.899
			C294.316,358.064,298.792,354.825,303.948,352.68 M320.808,342.07c-0.556,0-2.045,0.511-0.378,0.511
			C321.13,342.198,321.085,342.07,320.808,342.07L320.808,342.07z M320.43,342.582c-62.371,0-62.371,97.299,0,97.299
			c-2.152,0-0.298,0.831,0.42,0.831c0.358,0,0.433-0.208-0.42-0.831C300.244,425.137,299.053,354.292,320.43,342.582L320.43,342.582
			z"/>
	</g>
</g>
</svg>
