<?xml version="1.0" encoding="utf-8"?>
<!-- Generator: Adobe Illustrator 16.0.0, SVG Export Plug-In . SVG Version: 6.00 Build 0)  -->
<!DOCTYPE svg PUBLIC "-//W3C//DTD SVG 1.1//EN" "http://www.w3.org/Graphics/SVG/1.1/DTD/svg11.dtd">
<svg version="1.1" id="Version_1.0" xmlns="http://www.w3.org/2000/svg" xmlns:xlink="http://www.w3.org/1999/xlink" x="0px"
	 y="0px" width="612px" height="792px" viewBox="0 0 612 792" enable-background="new 0 0 612 792" xml:space="preserve">
<g id="octagon" display="none">
	<g id="outFrame" display="inline">
		<line fill="none" stroke="#0000FF" stroke-width="2" x1="220" y1="309.5" x2="306" y2="273"/>
		<line fill="none" stroke="#0000FF" stroke-width="2" x1="306" y1="273" x2="390.5" y2="309.5"/>
		<line fill="none" stroke="#0000FF" stroke-width="2" x1="390.5" y1="309.5" x2="427" y2="396"/>
		<line fill="none" stroke="#0000FF" stroke-width="2" x1="427" y1="396" x2="390.5" y2="482.5"/>
		<line fill="none" stroke="#0000FF" stroke-width="2" x1="390.5" y1="482.5" x2="306" y2="516"/>
		<line fill="none" stroke="#0000FF" stroke-width="2" x1="306" y1="516" x2="220" y2="482.5"/>
		<line fill="none" stroke="#0000FF" stroke-width="2" x1="220" y1="482.5" x2="183" y2="396"/>
		<line fill="none" stroke="#0000FF" stroke-width="2" x1="183" y1="396" x2="220" y2="309.5"/>
	</g>
	<line id="mod2_1_" fill="none" stroke="#0000FF" stroke-width="2" x1="203.966" y1="445.015" x2="406.199" y2="445.295"/>
	<line id="mod1_1_" fill="none" stroke="#0000FF" stroke-width="2" x1="203.966" y1="346.985" x2="406.199" y2="346.705"/>
</g>
<g id="main">
	<g>
		<path id="_90684368" d="M300.28,302.88c0,1.56,0.6,18.12,0.72,18.48c0.84,2.52,9.36,6.48,13.68,6c2.28-0.24,6.36-0.72,8.643-0.96
			c4.438-0.48,3.12-1.44,3.72-6.48c0.6-4.8,1.56-12.36,2.64-17.04c-0.96-1.92-6.119-11.76-7.92-11.76h-12.84
			C307.12,291.12,301.48,301.08,300.28,302.88z"/>
		<path id="_95177896" d="M273.64,322.68l6.36,12.6l9.72-1.92c0.12-2.52,1.56-6.36,1.56-8.52c0-5.52-2.64-11.64-2.64-17.16h-11.76
			L273.64,322.68z"/>
		<path id="_98888752" d="M254.56,329.76c4.8,10.32,1.08,9.36,10.44,17.4l5.88-3.12v-9.6c0-3.72-2.88-9-3.24-13.32l-4.8-0.6h-4.2
			L254.56,329.76z"/>
		<path id="_98662552" d="M239.92,338.64c0,2.28,5.04,11.4,5.4,15c0.84,0.24,2.64,1.08,2.64,1.08c0.84,0,5.28-2.28,6.96-2.64
			c-1.8-7.8-4.32-16.44-10.68-19.8C243.76,334.08,239.92,338.04,239.92,338.64z"/>
		<path id="_97819216" d="M225.52,350.4c0,3.72,8.04,11.04,10.56,12.72l3.84-4.08l-5.28-11.76h-5.4
			C228.04,347.28,225.52,349.92,225.52,350.4z"/>
		<path id="_100179568" d="M239.92,370.2c1.08,12.24,5.76,28.2,8.4,39.12c3.6,14.16,8.64,21.72,15.36,32.76
			c5.52,8.88,8.52,24,13.92,33.6c1.8,3.24,6.96,13.2,9.12,14.88c1.2,0.96,13.8,10.08,14.04,10.08c3.96,0,24.24-0.96,25.92-1.8
			C327.52,498.48,337,482.4,337,481.44v-7.563h-19.56c-6.843,0-14.042-3.24-20.88-3.24V427.44c0-6.12,3.24-43.2,5.16-45
			c2.04-1.8,28.44-20.4,29.76-20.76l-2.399-21.36c-1.2,0.6-13.92,2.52-15.12,2.28c-2.4-0.48-11.76-3.6-13.68-4.56
			c-4.68,2.64-11.04,4.44-16.32,6.72c-4.08,1.8-8.64,6.84-13.68,9.24c-6,2.88-9.72,4.32-16.68,6.24c-3.96,1.08-5.88,0.96-8.16,3.72
			C243.76,366,241.12,368.52,239.92,370.2z"/>
	</g>
	<g>
		<path id="_87107048" d="M331.24,322.08c2.04,1.08,6,1.92,6,4.8c0,2.16-1.2,3.48-1.563,5.28l-6.479-0.96
			c-2.4-0.36-10.563,1.56-14.4,1.56v2.64c0,2.64,9.96,0,13.92,0h1.08c4.2,0,13.44,3.12,15.48,4.8c1.317,1.2,3.479,12.96,4.8,15.6
			c4.438-2.16,3.36-1.2,1.56-7.92c-0.72-2.28-2.64-7.68-2.76-10.08l-9.84-4.08l3-5.76c-2.76-5.16-2.04-8.88-10.08-9L331.24,322.08z"
			/>
		<polygon fill="#FFFFFF" stroke="#000000" stroke-width="5" stroke-miterlimit="10" points="313,387.5 343.667,360.5 360,361.333 
			383.833,392.167 378.5,468.167 307,462 		"/>
		<path id="_90849136" d="M349.479,383.04h2.643c3,0,6.357-3.24,6.357-6.36v-1.08c0-3.6-3.96-6.36-7.438-6.36
			C340.12,369.12,341.92,383.04,349.479,383.04z"/>
		<path id="_90849112" d="M322.84,401.28l1.2,3.479l14.16-4.8l12.479,9.24l19.92-2.521l-0.72-4.199L351.64,405
			c-2.04-1.44-11.64-9.12-13.317-9.12C337,395.88,324.28,400.56,322.84,401.28z"/>
		<path id="_87969136" d="M323.32,421.56l0.479,3.723c7.8-1.8,13.92-3.603,21.84-2.04c3.36,0.72,6.96,1.438,10.563,2.277
			c6.24,1.44,6.96,2.883,8.277-2.397c-3.357,0-17.037-3.24-20.88-4.2C337.36,417.24,329.92,420,323.32,421.56z"/>
		<path id="_88120160" d="M337.24,441.24l0.6,0.12c5.642,0,16.32,6.96,20.28,6.96h7.438v-3.84h-6.479
			c-1.563,0-15.36-5.763-17.88-6.723c-3.721-1.56-16.44,0.723-21.603,0.84v3.36L337.24,441.24z"/>
	</g>
</g>
</svg>
