<?xml version="1.0" encoding="utf-8"?>
<!-- Generator: Adobe Illustrator 16.0.0, SVG Export Plug-In . SVG Version: 6.00 Build 0)  -->
<!DOCTYPE svg PUBLIC "-//W3C//DTD SVG 1.1//EN" "http://www.w3.org/Graphics/SVG/1.1/DTD/svg11.dtd">
<svg version="1.1" id="Version_1.0" xmlns="http://www.w3.org/2000/svg" xmlns:xlink="http://www.w3.org/1999/xlink" x="0px"
	 y="0px" width="612px" height="792px" viewBox="0 0 612 792" enable-background="new 0 0 612 792" xml:space="preserve">
<g id="octagon" display="none">
	<g id="outFrame" display="inline">
		<line fill="none" stroke="#0000FF" stroke-width="2" x1="220" y1="309.5" x2="306" y2="273"/>
		<line fill="none" stroke="#0000FF" stroke-width="2" x1="306" y1="273" x2="390.5" y2="309.5"/>
		<line fill="none" stroke="#0000FF" stroke-width="2" x1="390.5" y1="309.5" x2="427" y2="396"/>
		<line fill="none" stroke="#0000FF" stroke-width="2" x1="427" y1="396" x2="390.5" y2="482.5"/>
		<line fill="none" stroke="#0000FF" stroke-width="2" x1="390.5" y1="482.5" x2="306" y2="516"/>
		<line fill="none" stroke="#0000FF" stroke-width="2" x1="306" y1="516" x2="220" y2="482.5"/>
		<line fill="none" stroke="#0000FF" stroke-width="2" x1="220" y1="482.5" x2="183" y2="396"/>
		<line fill="none" stroke="#0000FF" stroke-width="2" x1="183" y1="396" x2="220" y2="309.5"/>
	</g>
	
		<line id="mod2_1_" display="inline" fill="none" stroke="#0000FF" stroke-width="2" x1="203.966" y1="445.015" x2="406.199" y2="445.295"/>
	
		<line id="mod1_1_" display="inline" fill="none" stroke="#0000FF" stroke-width="2" x1="203.966" y1="346.985" x2="406.199" y2="346.705"/>
</g>
<g id="main">
	<line fill="none" stroke="#000000" stroke-width="7" x1="145" y1="445.015" x2="465" y2="445.015"/>
	<g>
		<path d="M305.614,356.875c-3.926,9.448-5.342,20.444-5.836,28.054c-1.051,16.184,0.967,35.492,7.039,49.525
			c-5.664-2.129-10.553-5.532-14.482-10.129c-6.459-7.558-10.016-17.819-10.016-28.898c0-11.079,3.557-21.342,10.016-28.898
			C295.982,362.26,300.458,359.021,305.614,356.875 M322.474,346.266c-0.556,0-2.045,0.511-0.378,0.511
			C322.796,346.394,322.751,346.266,322.474,346.266L322.474,346.266z M322.096,346.777c-62.371,0-62.371,97.299,0,97.299
			c-2.151,0-0.297,0.831,0.421,0.831c0.358,0,0.434-0.208-0.421-0.831C301.91,429.332,300.719,358.488,322.096,346.777
			L322.096,346.777z"/>
	</g>
</g>
</svg>
