<?xml version="1.0" encoding="utf-8"?>
<!-- Generator: Adobe Illustrator 16.0.0, SVG Export Plug-In . SVG Version: 6.00 Build 0)  -->
<!DOCTYPE svg PUBLIC "-//W3C//DTD SVG 1.1//EN" "http://www.w3.org/Graphics/SVG/1.1/DTD/svg11.dtd">
<svg version="1.1" id="Version_1.0" xmlns="http://www.w3.org/2000/svg" xmlns:xlink="http://www.w3.org/1999/xlink" x="0px"
	 y="0px" width="612px" height="792px" viewBox="0 0 612 792" enable-background="new 0 0 612 792" xml:space="preserve">
<g id="octagon" display="none">
	<g id="outFrame" display="inline">
		<line fill="none" stroke="#0000FF" stroke-width="2" x1="220" y1="309.5" x2="306" y2="273"/>
		<line fill="none" stroke="#0000FF" stroke-width="2" x1="306" y1="273" x2="390.5" y2="309.5"/>
		<line fill="none" stroke="#0000FF" stroke-width="2" x1="390.5" y1="309.5" x2="427" y2="396"/>
		<line fill="none" stroke="#0000FF" stroke-width="2" x1="427" y1="396" x2="390.5" y2="482.5"/>
		<line fill="none" stroke="#0000FF" stroke-width="2" x1="390.5" y1="482.5" x2="306" y2="516"/>
		<line fill="none" stroke="#0000FF" stroke-width="2" x1="306" y1="516" x2="220" y2="482.5"/>
		<line fill="none" stroke="#0000FF" stroke-width="2" x1="220" y1="482.5" x2="183" y2="396"/>
		<line fill="none" stroke="#0000FF" stroke-width="2" x1="183" y1="396" x2="220" y2="309.5"/>
	</g>
	<line id="mod2_1_" fill="none" stroke="#0000FF" stroke-width="2" x1="203.966" y1="445.015" x2="406.199" y2="445.295"/>
	<line id="mod1_1_" fill="none" stroke="#0000FF" stroke-width="2" x1="203.966" y1="346.985" x2="406.199" y2="346.705"/>
</g>
<g id="main">
	<g>
		<g>
			<path fill="#FFFFFF" d="M273,369.333c-1.381,0-2.5-1.119-2.5-2.5v-37.092c0-1.277,0.963-2.349,2.233-2.486l1.746-0.188
				c0.089-0.009,0.178-0.014,0.267-0.014c0.039,0,4.153,0.19,4.153,0.19c1.334,0.062,2.384,1.162,2.384,2.497v37.092
				c0,1.381-1.119,2.5-2.5,2.5H273z"/>
			<path d="M274.745,329.553l4.037,0.188v37.092H273v-37.092L274.745,329.553 M274.745,324.553c-0.178,0-0.356,0.009-0.534,0.029
				l-1.746,0.188c-2.54,0.272-4.466,2.417-4.466,4.971v37.092c0,2.761,2.239,5,5,5h5.782c2.761,0,5-2.239,5-5v-37.092
				c0-2.671-2.1-4.871-4.768-4.995l-4.037-0.188C274.9,324.555,274.822,324.553,274.745,324.553L274.745,324.553z"/>
		</g>
		<polygon fill="#FFFFFF" stroke="#000000" stroke-width="4" stroke-miterlimit="10" points="251.466,335.283 269.033,335.283 
			269.033,362.683 251.466,362.683 251.466,335.283 		"/>
		<polygon fill="#FFFFFF" stroke="#000000" stroke-width="5" stroke-miterlimit="10" points="281.233,334.783 340.233,340.683 
			340.233,356.883 281.233,361.583 		"/>
		<g>
			<path fill="#FFFFFF" d="M342.916,364.333c-1.381,0-2.5-1.119-2.5-2.5v-25.25c0-1.381,1.119-2.5,2.5-2.5H351
				c1.381,0,2.5,1.119,2.5,2.5v25.25c0,1.381-1.119,2.5-2.5,2.5H342.916z"/>
			<path d="M351,336.583v25.25h-8.084v-25.25H351 M351,331.583h-8.084c-2.762,0-5,2.239-5,5v25.25c0,2.761,2.238,5,5,5H351
				c2.762,0,5-2.239,5-5v-25.25C356,333.822,353.762,331.583,351,331.583L351,331.583z"/>
		</g>
		<rect x="216.833" y="335.667" width="33" height="26.999"/>
	</g>
	<polygon id="_116412880" points="255.9,355.525 265.125,355.525 265.125,352.1 255.9,352.1 	"/>
	<polygon id="_116412880_1_" points="255.775,345.525 265,345.525 265,342.1 255.775,342.1 	"/>
	<path fill="#FFFFFF" stroke="#000000" stroke-width="5" stroke-miterlimit="10" d="M335.7,437.1v1.602
		c0,18.7,11.398,30.6,30.1,30.6c17,0,30.102-11.6,30.102-27.398v-3.2c0-12.5-11.802-25-16.602-34.5c-2.8-5.5-4-13.8-5.8-20.2
		c-2.3-8.2-6-10-12-13.9C361.5,404,335.7,420.2,335.7,437.1z"/>
	<path id="_66048696" d="M347.8,446.1c0,5.9,4.4,11.102,9.5,11.102c1.8,0,3.8-1.602,4.2-3.2c-4-1.1-8-6.3-8.4-11.1L347.8,446.1z"/>
</g>
</svg>
