<?xml version="1.0" encoding="utf-8"?>
<!-- Generator: Adobe Illustrator 16.0.0, SVG Export Plug-In . SVG Version: 6.00 Build 0)  -->
<!DOCTYPE svg PUBLIC "-//W3C//DTD SVG 1.1//EN" "http://www.w3.org/Graphics/SVG/1.1/DTD/svg11.dtd">
<svg version="1.1" id="Version_1.0" xmlns="http://www.w3.org/2000/svg" xmlns:xlink="http://www.w3.org/1999/xlink" x="0px" y="0px"
	 width="612px" height="792px" viewBox="0 0 612 792" enable-background="new 0 0 612 792" xml:space="preserve">
<g id="octagon" display="none">
	<g id="outFrame" display="inline">
		<line fill="none" stroke="#0000FF" stroke-width="2" x1="220" y1="309.5" x2="306" y2="273"/>
		<line fill="none" stroke="#0000FF" stroke-width="2" x1="306" y1="273" x2="390.5" y2="309.5"/>
		<line fill="none" stroke="#0000FF" stroke-width="2" x1="390.5" y1="309.5" x2="427" y2="396"/>
		<line fill="none" stroke="#0000FF" stroke-width="2" x1="427" y1="396" x2="390.5" y2="482.5"/>
		<line fill="none" stroke="#0000FF" stroke-width="2" x1="390.5" y1="482.5" x2="306" y2="516"/>
		<line fill="none" stroke="#0000FF" stroke-width="2" x1="306" y1="516" x2="220" y2="482.5"/>
		<line fill="none" stroke="#0000FF" stroke-width="2" x1="220" y1="482.5" x2="183" y2="396"/>
		<line fill="none" stroke="#0000FF" stroke-width="2" x1="183" y1="396" x2="220" y2="309.5"/>
	</g>
	
		<line id="mod2_1_" display="inline" fill="none" stroke="#0000FF" stroke-width="2" x1="203.966" y1="445.015" x2="406.199" y2="445.295"/>
	
		<line id="mod1_1_" display="inline" fill="none" stroke="#0000FF" stroke-width="2" x1="203.966" y1="346.985" x2="406.199" y2="346.705"/>
</g>
<g id="main">
	<path d="M332.444,494.386c0.606-1.148,16.309-15.39,18.478-17.536c6.611-6.543,13.893-13.009,19.389-20.321
		c9.725-12.938,19.939-37.414,19.939-59.992v-17.31c0-2.563,0.077-5.545-2.036-6.109c-1.972,8.463-8.19,19.205-12.866,25.316
		c-1.186,1.552-19.718,21.808-19.718,15.411c0-11.801,6.242-20.971,7.129-33.6c0.506-7.197-1.896-28.479-3.563-35.64
		c-2.225,1.628-2.93,10.518-4.13,14.197c-1.388,4.241-2.934,8.944-5.327,12.492c-1.79,2.65-15.317,18.112-17.526,18.112
		c-1.836,0-4.073-7.332-4.073-10.182c0-11.852,8.146-24.35,8.146-33.602v-1.527c0-5.915-4.813-9.074-7.463-13.92
		c-1.401-2.56-6.729-11.76-9.338-12.045v7.127c0,5.574-1.354,13.916-3.202,17.672c-1.015,2.061-8.002,10.33-10.035,10.33
		c-2.584,0-9.673-9.789-9.673-14.255v-8.655c0-10.132,10.183-21.601,10.183-31.565v-0.509c0-3.684-0.086-9.893-3.565-10.182
		c-1.669,20.062-31.564,46.764-31.564,54.475c0,10.996,9.673,22.946,9.673,39.71v5.601c0,1.755-0.377,1.971-0.509,3.564
		c-1.96-0.524-3.388-3.369-4.713-4.961c-1.629-1.957-3.497-2.808-5.477-4.196c-3.705-2.597-6.719-5.636-9.528-9.31
		c-4.694-6.138-10.32-16.792-10.32-27.354c-4.482,1.197-8.146,15.788-8.146,21.892v8.655c0,20.729,14.764,37.727,14.764,45.311
		c-7.9-4.18-15.098-9.786-21.26-15.903c-3.02-2.998-13.765-21.334-15.396-21.769c0,14.207,4.145,25.873,6.496,37.795
		c1.134,5.754,2.886,12.834,4.633,17.771c2.431,6.863,4.67,8.188,8.517,13.374c7.38,9.951,12.147,15.038,20.701,23.592
		c3.771,3.771,7.197,7.153,10.946,10.946l11.824,8.585l14.778,7.068v-32.582h-32.583l24.638-28.847l-18.529-0.174l24.601-27.856
		l-16.454-0.146l27.217-43.126l0.313-0.498l27.961,43.627l-15.271-0.003l23.483,27.437l-18.902,0.058l25.213,29.299l-32.849,0.229
		v32.584L332.444,494.386z"/>
</g>
</svg>
