<?xml version="1.0" encoding="utf-8"?>
<!-- Generator: Adobe Illustrator 16.0.0, SVG Export Plug-In . SVG Version: 6.00 Build 0)  -->
<!DOCTYPE svg PUBLIC "-//W3C//DTD SVG 1.1//EN" "http://www.w3.org/Graphics/SVG/1.1/DTD/svg11.dtd">
<svg version="1.1" id="Version_1.0" xmlns="http://www.w3.org/2000/svg" xmlns:xlink="http://www.w3.org/1999/xlink" x="0px" y="0px"
	 width="612px" height="792px" viewBox="0 0 612 792" enable-background="new 0 0 612 792" xml:space="preserve">
<g id="octagon" display="none">
	<g id="outFrame" display="inline">
		<line fill="none" stroke="#0000FF" stroke-width="2" x1="220" y1="309.5" x2="306" y2="273"/>
		<line fill="none" stroke="#0000FF" stroke-width="2" x1="306" y1="273" x2="390.5" y2="309.5"/>
		<line fill="none" stroke="#0000FF" stroke-width="2" x1="390.5" y1="309.5" x2="427" y2="396"/>
		<line fill="none" stroke="#0000FF" stroke-width="2" x1="427" y1="396" x2="390.5" y2="482.5"/>
		<line fill="none" stroke="#0000FF" stroke-width="2" x1="390.5" y1="482.5" x2="306" y2="516"/>
		<line fill="none" stroke="#0000FF" stroke-width="2" x1="306" y1="516" x2="220" y2="482.5"/>
		<line fill="none" stroke="#0000FF" stroke-width="2" x1="220" y1="482.5" x2="183" y2="396"/>
		<line fill="none" stroke="#0000FF" stroke-width="2" x1="183" y1="396" x2="220" y2="309.5"/>
	</g>
	
		<line id="mod2_1_" display="inline" fill="none" stroke="#0000FF" stroke-width="2" x1="203.966" y1="445.015" x2="406.199" y2="445.295"/>
	
		<line id="mod1_1_" display="inline" fill="none" stroke="#0000FF" stroke-width="2" x1="203.966" y1="346.985" x2="406.199" y2="346.705"/>
</g>
<g id="main">
	<path id="_38129400" d="M309.767,341.8c0,2.2,5.2,13.2,6.2,17.3c1.1,4.4,3.7,15.2,3.7,19.6c-17.7-4.1-17.3-24.8-25.8-30.5
		c-4.3,18.7,1.9,37.8,9.3,48.8c6.1,9.1,6.4,8.6,14.9,15c1.101,1,19.801,10.7,19.801,10.7c5.1,0,23.899-17.7,27.699-21.601
		c4.5-4.5,13.9-27,13.9-36V350c0-4.7-0.7-8.1-3.5-10c0,5-4.5,17.4-6.4,21.1c-2.1,4.4-10.699,10.6-15.8,11.8v-4.2
		c0-11.1,5.9-17.1,5.9-25.2c0-4.9-10.101-18.1-12.9-20c0,13.4-1.8,20-10.6,24.6c-2.9-1.8-7.7-6.6-7.7-11v-2.4
		c0-3.8,4.6-13.5,6.3-16.6c5-9.8,1.2-9.4-1-17.4h-1.1c-3.3,13.7-2,12.1-9.4,22.3C320.767,326.4,309.767,337.7,309.767,341.8z"/>
	<polygon id="_39502352" points="260.467,453.3 282.167,453.3 282.167,432.7 260.467,432.7 	"/>
	<polygon id="_40261424" points="329.066,453.3 349.667,453.3 349.667,432.1 329.066,432.1 	"/>
	<path id="_39073376" d="M280.767,362.1l-1.7-7.4l-75.3,63l39,0.3v64h126.2v-64h31.1c-0.899-1.3-19.1-14.7-20-14.7
		c-0.7,0-3,4-3.5,4.7l3.5,3.5h-5.899c-1.7,1.3-12.2,7.8-12.2,9.5v55.8h-45.8v-32.3h-21.7v32.3h-45.2V418h56.4l-5.5-6.8l-76.8-0.3
		L280.767,362.1z"/>
</g>
</svg>
