<?xml version="1.0" encoding="utf-8"?>
<!-- Generator: Adobe Illustrator 16.0.0, SVG Export Plug-In . SVG Version: 6.00 Build 0)  -->
<!DOCTYPE svg PUBLIC "-//W3C//DTD SVG 1.1//EN" "http://www.w3.org/Graphics/SVG/1.1/DTD/svg11.dtd">
<svg version="1.1" id="Version_1.0" xmlns="http://www.w3.org/2000/svg" xmlns:xlink="http://www.w3.org/1999/xlink" x="0px" y="0px"
	 width="612px" height="792px" viewBox="0 0 612 792" enable-background="new 0 0 612 792" xml:space="preserve">
<g id="octagon" display="none">
	<g id="outFrame" display="inline">
		<line fill="none" stroke="#0000FF" stroke-width="2" x1="220" y1="309.5" x2="306" y2="273"/>
		<line fill="none" stroke="#0000FF" stroke-width="2" x1="306" y1="273" x2="390.5" y2="309.5"/>
		<line fill="none" stroke="#0000FF" stroke-width="2" x1="390.5" y1="309.5" x2="427" y2="396"/>
		<line fill="none" stroke="#0000FF" stroke-width="2" x1="427" y1="396" x2="390.5" y2="482.5"/>
		<line fill="none" stroke="#0000FF" stroke-width="2" x1="390.5" y1="482.5" x2="306" y2="516"/>
		<line fill="none" stroke="#0000FF" stroke-width="2" x1="306" y1="516" x2="220" y2="482.5"/>
		<line fill="none" stroke="#0000FF" stroke-width="2" x1="220" y1="482.5" x2="183" y2="396"/>
		<line fill="none" stroke="#0000FF" stroke-width="2" x1="183" y1="396" x2="220" y2="309.5"/>
	</g>
	
		<line id="mod2_1_" display="inline" fill="none" stroke="#0000FF" stroke-width="2" x1="203.966" y1="445.015" x2="406.199" y2="445.295"/>
	
		<line id="mod1_1_" display="inline" fill="none" stroke="#0000FF" stroke-width="2" x1="203.966" y1="346.985" x2="406.199" y2="346.705"/>
</g>
<g id="main">
	<path id="_39508208" d="M251.733,330.333h9.7v71.6h22.2v-71.6h9.1v13.6c0.7-0.5,3.4-3.5,3.4-4.5v-12.5h-16v71.6h-15.9v-71.6h-15.3
		v71.6h-13.1v81.8h136.9v-76.7c-1,0.601-2.8,2.601-2.8,4v68.7h-131.2v-74.399h13.1v-71.6H251.733z"/>
	<path id="_95420056" d="M292.633,401.934h9.1c-0.3-1.601-0.8-3.4-2.8-3.4h-2.9v-6.8c0-2.3-2.2-6-3.4-7.4V401.934z"/>
	<path id="_95425904" d="M329.633,336.033c0-8.6,8.5-18.6,8.5-22.7c0-3.4-1.899-10.4-4.5-11.4c0,17.8-21.6,32.1-21.6,39.2v1.1
		c0,1.8,4.8,13.1,5.7,16.5c1.1,4.3,3.6,14,4,18.2c-15.5-0.3-18.3-24.6-25.7-29.6l-0.7,7.4l0.1,11.4c0,11.7,8.4,28.6,14.1,34.8
		c2.5,2.8,10.4,9.2,13.8,10.699c2.101,1,15.7,7.4,16.5,7.4c3.601,0,23-18.1,26.3-21.4c6.301-6.299,10.101-24,10.101-37.1v-1.8
		l-1.8-14.3c-2.4,1.5-5.301,14.1-6.9,17.5c-3.8,7.9-4.4,7.8-13.5,9.9c-0.7-30.5,16.7-20.7-6.8-47.8c0,12.2-2.3,19.7-10.2,23.9
		C333.633,346.133,329.633,341.133,329.633,336.033z"/>
	<polygon id="_40302024" points="252.933,434.934 267.133,434.934 267.133,419.533 252.933,419.533 	"/>
	<polygon id="_40301232" points="283.033,434.934 297.833,434.934 297.833,419.533 283.033,419.533 	"/>
	<polygon id="_40299896" points="313.133,434.934 328.434,434.934 328.434,419.533 313.133,419.533 	"/>
	<path id="_40298096" d="M343.233,434.934h15.3v-15.4h-6.2c-3,0-6.2,3.8-9.1,4.5V434.934z"/>
	<polygon id="_40299008" points="252.933,461.633 267.133,461.633 267.133,446.833 252.933,446.833 	"/>
	<polygon id="_40296992" points="283.033,461.633 297.833,461.633 297.833,446.833 283.033,446.833 	"/>
	<polygon id="_95419864" points="313.133,461.633 328.434,461.633 328.434,446.833 313.133,446.833 	"/>
	<polygon id="_95419576" points="343.233,461.633 358.633,461.633 358.633,446.833 343.233,446.833 	"/>
</g>
</svg>
