<?xml version="1.0" encoding="utf-8"?>
<!-- Generator: Adobe Illustrator 16.0.0, SVG Export Plug-In . SVG Version: 6.00 Build 0)  -->
<!DOCTYPE svg PUBLIC "-//W3C//DTD SVG 1.1//EN" "http://www.w3.org/Graphics/SVG/1.1/DTD/svg11.dtd">
<svg version="1.1" id="Version_1.0" xmlns="http://www.w3.org/2000/svg" xmlns:xlink="http://www.w3.org/1999/xlink" x="0px" y="0px"
	 width="612px" height="792px" viewBox="0 0 612 792" enable-background="new 0 0 612 792" xml:space="preserve">
<g id="octagon" display="none">
	<g id="outFrame" display="inline">
		<line fill="none" stroke="#0000FF" stroke-width="2" x1="220" y1="309.5" x2="306" y2="273"/>
		<line fill="none" stroke="#0000FF" stroke-width="2" x1="306" y1="273" x2="390.5" y2="309.5"/>
		<line fill="none" stroke="#0000FF" stroke-width="2" x1="390.5" y1="309.5" x2="427" y2="396"/>
		<line fill="none" stroke="#0000FF" stroke-width="2" x1="427" y1="396" x2="390.5" y2="482.5"/>
		<line fill="none" stroke="#0000FF" stroke-width="2" x1="390.5" y1="482.5" x2="306" y2="516"/>
		<line fill="none" stroke="#0000FF" stroke-width="2" x1="306" y1="516" x2="220" y2="482.5"/>
		<line fill="none" stroke="#0000FF" stroke-width="2" x1="220" y1="482.5" x2="183" y2="396"/>
		<line fill="none" stroke="#0000FF" stroke-width="2" x1="183" y1="396" x2="220" y2="309.5"/>
	</g>
	
		<line id="mod2_1_" display="inline" fill="none" stroke="#0000FF" stroke-width="2" x1="203.966" y1="445.015" x2="406.199" y2="445.295"/>
	
		<line id="mod1_1_" display="inline" fill="none" stroke="#0000FF" stroke-width="2" x1="203.966" y1="346.985" x2="406.199" y2="346.705"/>
</g>
<g id="main">
	<path id="_40143512" d="M223.3,396.7l2.6,4.7c12.6-6.7,27.5-17.3,40-25.2c6.7-4.2,12.9-8.4,19.5-12.8c3.4-2.3,6.4-4.1,9.8-6.4
		c4.5-3,4.8-4.7,6.1-10.7L223.3,396.7z"/>
	<polygon id="_39045184" points="377.4,396.4 386.1,401.3 388.7,396.7 380.4,391.7 	"/>
	<path id="_95677688" d="M327.9,371.1v2.6l-1.101,0.7C318.7,369,308.4,360,308.4,346.8c-3.3,2.3-5.4,10.1-5.4,15.7v2.7
		c0,11.3,7.6,26.7,12.5,33.3c7,9.3,18.5,11.9,29,17.4c4-2.101,23.3-13.4,25.1-15.801C372.9,395.8,380.2,375.7,380.2,369
		c0-4.8-0.8-20.4-3.2-22.1c-1.7,6.8-1.9,11.7-5.8,16.9c-2.601,3.5-8.2,8.8-12.601,10l-0.5-5.9v-0.6c0-7.4,4.9-13.4,4.9-22.1
		c0-2.5-8.5-15.2-10.2-15.6c0,4.5-0.6,10.2-1.5,13.6c-0.8,2.6-4.8,8.5-7.3,8.5h-1.6c-0.9-3.4-4.801-4.2-4.801-11.9v-2.7
		c0-5.7,6.5-13.7,6.5-19.4l0.101-1.6l-0.7-5.9c-2.5,0.6-2.6,4.8-3.6,7.2c-1.101,2.6-2.5,5.1-4.101,7.2c-3.3,4.3-6.5,8.4-9.8,12.8
		c-5,6.9-5.3,6.7-2.4,15.3C325.2,357.6,327.9,364.8,327.9,371.1z"/>
	<path id="_39508208" d="M278.2,389.5v1.1c0,2,1.3,3.6,2,4.9l3.4,36.7l28.3,0.1l10.699,25.4L338,452.6l-2.5-7.399l-8.7,2.5
		C326.1,444.6,317.9,424,316,424h-24.8c-0.2-1.7-0.6-1.9-0.6-3.8v-2.7h18.9v-5.9h-19.9L289,402.4V397c8.6-2,6.8-15.6-2.7-15.6
		C281.7,381.4,278.2,384.9,278.2,389.5z"/>
	<path id="_95419000" d="M288.5,467.7h4.9c10.6,0,18.9-6.101,23.2-12.4l-3.3-8.7c-3,0.801-5.2,12.9-21.6,12.9h-2.1
		c-8.4,0-15.7-8.2-18-14.9c-1.5-4.3-1.5-9,0-13.399c2.1-6.2,4-6,6.5-10l-0.9-8.5c-8,2.1-17.7,19.899-14.3,32
		C265.8,455,276.3,467.7,288.5,467.7z"/>
	<path id="_40311872" d="M244.2,479.5h123.5v-72.2c-1.4,1-5.9,3.101-5.9,4.9v62H249.6v-75h-5.4V479.5L244.2,479.5z"/>
</g>
</svg>
