<?xml version="1.0" encoding="utf-8"?>
<!-- Generator: Adobe Illustrator 16.0.0, SVG Export Plug-In . SVG Version: 6.00 Build 0)  -->
<!DOCTYPE svg PUBLIC "-//W3C//DTD SVG 1.1//EN" "http://www.w3.org/Graphics/SVG/1.1/DTD/svg11.dtd">
<svg version="1.1" id="Version_1.0" xmlns="http://www.w3.org/2000/svg" xmlns:xlink="http://www.w3.org/1999/xlink" x="0px" y="0px"
	 width="612px" height="792px" viewBox="0 0 612 792" enable-background="new 0 0 612 792" xml:space="preserve">
<g id="octagon" display="none">
	<g id="outFrame" display="inline">
		<line fill="none" stroke="#0000FF" stroke-width="2" x1="220" y1="309.5" x2="306" y2="273"/>
		<line fill="none" stroke="#0000FF" stroke-width="2" x1="306" y1="273" x2="390.5" y2="309.5"/>
		<line fill="none" stroke="#0000FF" stroke-width="2" x1="390.5" y1="309.5" x2="427" y2="396"/>
		<line fill="none" stroke="#0000FF" stroke-width="2" x1="427" y1="396" x2="390.5" y2="482.5"/>
		<line fill="none" stroke="#0000FF" stroke-width="2" x1="390.5" y1="482.5" x2="306" y2="516"/>
		<line fill="none" stroke="#0000FF" stroke-width="2" x1="306" y1="516" x2="220" y2="482.5"/>
		<line fill="none" stroke="#0000FF" stroke-width="2" x1="220" y1="482.5" x2="183" y2="396"/>
		<line fill="none" stroke="#0000FF" stroke-width="2" x1="183" y1="396" x2="220" y2="309.5"/>
	</g>
	
		<line id="mod2_1_" display="inline" fill="none" stroke="#0000FF" stroke-width="2" x1="203.966" y1="445.015" x2="406.199" y2="445.295"/>
	
		<line id="mod1_1_" display="inline" fill="none" stroke="#0000FF" stroke-width="2" x1="203.966" y1="346.985" x2="406.199" y2="346.705"/>
</g>
<g id="main">
	<path id="_95418424" d="M255.6,357.9c0-7.6,9.1-20,9.1-25c0-4.5-2.1-9.7-4.9-11.6c-0.9,2-0.9,8.9-2.3,12.4
		c-0.7,1.8-4.5,6.7-5.8,8.8c-3.9,5.8-8.5,10.4-12.7,15.9c-5.4,7.1,0,12.5,2.8,20.6c2,5.6,3.5,19.7,5.2,23.4
		c-16.8-0.4-20.1-26.8-27.4-31.7l-1.4,18.9l0.2,0.6c0,12.6,8.9,30.7,14.8,37.6c2.8,3.3,10.7,9,14.7,11.5
		c2.8,1.7,6.3,2.601,9.3,4.101c0.9,0.5,8.1,4.699,8.1,4.699c5.3,0,24.7-18.399,28.8-22.399c4.6-4.5,14.5-27.4,14.5-36.1v-15.8
		c0-5.2-1-6.6-1.8-10.4h-1.9c-0.4,4.8-5.5,17.8-7.5,21.8c-1.7,3.2-15.7,14.3-15.7,9.3v-3c0-9.5,6.1-17.9,6.1-25v-1.9
		c0-3.8-10.8-17.1-13.4-18.9c0,6.3,0.3,12-2,16.3c-1.2,2.2-6.2,8.7-8.9,8.7S255.6,362.1,255.6,357.9z"/>
	<path id="_95479736" d="M378.7,328.4c-10.101-2.6-42.5-18-49.5-18H323.1V386h-1.8c0,14-9.399,38.3-15.5,46.6
		c-4.9,6.801-9.3,10.301-15.6,15.4c-2.1,1.6-17.6,12.3-17.6,13.5v20.1h110.2V386h-51.1l0.1-37L378.7,328.4z"/>
</g>
</svg>
