<?xml version="1.0" encoding="utf-8"?>
<!-- Generator: Adobe Illustrator 16.0.0, SVG Export Plug-In . SVG Version: 6.00 Build 0)  -->
<!DOCTYPE svg PUBLIC "-//W3C//DTD SVG 1.1//EN" "http://www.w3.org/Graphics/SVG/1.1/DTD/svg11.dtd">
<svg version="1.1" id="Version_1.0" xmlns="http://www.w3.org/2000/svg" xmlns:xlink="http://www.w3.org/1999/xlink" x="0px" y="0px"
	 width="612px" height="792px" viewBox="0 0 612 792" enable-background="new 0 0 612 792" xml:space="preserve">
<g id="octagon" display="none">
	<g id="outFrame" display="inline">
		<line fill="none" stroke="#0000FF" stroke-width="2" x1="220" y1="309.5" x2="306" y2="273"/>
		<line fill="none" stroke="#0000FF" stroke-width="2" x1="306" y1="273" x2="390.5" y2="309.5"/>
		<line fill="none" stroke="#0000FF" stroke-width="2" x1="390.5" y1="309.5" x2="427" y2="396"/>
		<line fill="none" stroke="#0000FF" stroke-width="2" x1="427" y1="396" x2="390.5" y2="482.5"/>
		<line fill="none" stroke="#0000FF" stroke-width="2" x1="390.5" y1="482.5" x2="306" y2="516"/>
		<line fill="none" stroke="#0000FF" stroke-width="2" x1="306" y1="516" x2="220" y2="482.5"/>
		<line fill="none" stroke="#0000FF" stroke-width="2" x1="220" y1="482.5" x2="183" y2="396"/>
		<line fill="none" stroke="#0000FF" stroke-width="2" x1="183" y1="396" x2="220" y2="309.5"/>
	</g>
	
		<line id="mod2_1_" display="inline" fill="none" stroke="#0000FF" stroke-width="2" x1="203.966" y1="445.015" x2="406.199" y2="445.295"/>
	
		<line id="mod1_1_" display="inline" fill="none" stroke="#0000FF" stroke-width="2" x1="203.966" y1="346.985" x2="406.199" y2="346.705"/>
</g>
<g id="main">
	<path id="_103643800" d="M285.92,366.4v1.56c0,1.2,3.6,10.8,4.2,12.72c1.8,5.52,1.8,8.4,1.68,14.16
		c-3.12-0.36-11.04-7.44-12.72-10.08c-4.2-6.24-4.32-8.52-6.36-16.8c-2.28,1.68-4.68,9.48-4.68,13.68v5.76
		c0,13.92,8.88,21.12,9.48,27.84c-2.28-0.48-12.12-7.92-13.56-9.601c-1.8-2.04-8.16-13.2-9.6-13.56c0,9.84,2.64,17.28,5.16,24.24
		c1.44,3.84,2.88,7.199,4.2,10.56c2.04,5.4,3.6,5.04,6.48,8.76c7.2,9.12,23.4,20.641,39.36,20.641h2.039
		c5.4,0,16.08-4.32,19.801-6.48c5.88-3.36,11.159-6.72,15-11.88c7.08-9.6,13.199-23.28,13.199-39.96v-6.84l-0.6-5.76h-1.08
		c-2.76,11.64-10.439,21.12-20.04,26.28c0-9.12,3.36-13.199,4.68-21.12c0.96-6-2.399-17.28-2.52-23.04c-1.08,0.72-3,13.44-6.24,17.4
		c-0.84,1.08-12.72,13.08-12.72,7.8v-5.28c0-7.44,4.68-12,4.68-20.52c0-2.04-8.64-14.88-10.199-15.72l0.239,2.16
		c0,2.88-0.96,10.2-1.8,12.48c-0.479,1.2-5.64,7.44-6.6,7.44c-3,0-6.36-7.32-6.36-11.04v-2.64c0-7.2,6.96-15.24,6.479-20.04
		l-1.199-7.32c-1.32,0.96-3,7.56-3.96,9.72c-1.44,3.36-3.48,5.4-5.52,8.04C295.04,352.24,285.92,364.12,285.92,366.4z"/>
	<polygon id="_105503304" stroke="#000000" stroke-width="5" points="304.28,318.04 309.561,318.04 309.561,293.8 304.28,293.8 	"/>
	<polygon id="_105869056" stroke="#000000" stroke-width="5" points="237.92,337.36 260.72,360.16 264.2,356.44 241.04,333.4 
		240.92,334 	"/>
	<polygon id="_105157840" stroke="#000000" stroke-width="5" points="350.12,355.96 353.84,359.68 375.92,337.36 372.56,334.24 	"/>
	<polygon id="_106024416" stroke="#000000" stroke-width="5" points="211.16,405.28 243.2,405.28 243.8,400.6 211.16,400.6 	"/>
	<polygon id="_104646648" stroke="#000000" stroke-width="5" points="371.6,405.28 402.08,405.28 402.08,400.6 371.6,400.6 	"/>
	<polygon id="_103507112" stroke="#000000" stroke-width="5" points="237.92,468.76 241.28,472.24 263.36,449.92 260,446.68 	"/>
	<polygon id="_106084312" stroke="#000000" stroke-width="5" points="350.96,450.4 372.8,472.24 375.92,468.76 354.08,447.28 	"/>
	<polygon id="_107381592" stroke="#000000" stroke-width="5" points="304.28,498.88 309.561,498.88 309.561,467.32 304.28,467.32 	
		"/>
</g>
</svg>
