<?xml version="1.0" encoding="utf-8"?>
<!-- Generator: Adobe Illustrator 16.0.0, SVG Export Plug-In . SVG Version: 6.00 Build 0)  -->
<!DOCTYPE svg PUBLIC "-//W3C//DTD SVG 1.1//EN" "http://www.w3.org/Graphics/SVG/1.1/DTD/svg11.dtd">
<svg version="1.1" id="Version_1.0" xmlns="http://www.w3.org/2000/svg" xmlns:xlink="http://www.w3.org/1999/xlink" x="0px" y="0px"
	 width="612px" height="792px" viewBox="0 0 612 792" enable-background="new 0 0 612 792" xml:space="preserve">
<g id="octagon" display="none">
	<g id="outFrame" display="inline">
		<line fill="none" stroke="#0000FF" stroke-width="2" x1="220" y1="309.5" x2="306" y2="273"/>
		<line fill="none" stroke="#0000FF" stroke-width="2" x1="306" y1="273" x2="390.5" y2="309.5"/>
		<line fill="none" stroke="#0000FF" stroke-width="2" x1="390.5" y1="309.5" x2="427" y2="396"/>
		<line fill="none" stroke="#0000FF" stroke-width="2" x1="427" y1="396" x2="390.5" y2="482.5"/>
		<line fill="none" stroke="#0000FF" stroke-width="2" x1="390.5" y1="482.5" x2="306" y2="516"/>
		<line fill="none" stroke="#0000FF" stroke-width="2" x1="306" y1="516" x2="220" y2="482.5"/>
		<line fill="none" stroke="#0000FF" stroke-width="2" x1="220" y1="482.5" x2="183" y2="396"/>
		<line fill="none" stroke="#0000FF" stroke-width="2" x1="183" y1="396" x2="220" y2="309.5"/>
	</g>
	
		<line id="mod2_1_" display="inline" fill="none" stroke="#0000FF" stroke-width="2" x1="203.966" y1="445.015" x2="406.199" y2="445.295"/>
	
		<line id="mod1_1_" display="inline" fill="none" stroke="#0000FF" stroke-width="2" x1="203.966" y1="346.985" x2="406.199" y2="346.705"/>
</g>
<g id="main">
	<path id="_106033680" d="M338,432.7c0.4,4,2.3,2.8,3.8,5l-1.899,0.7c-2.601-0.601-4.2-1.9-4.4-4.801L338,432.7z M342.9,404.9
		c-0.7,9-5.601,13.899-9.101,20.199c-4.2,7.7-0.8,17,8,17h3.3c5.4,0,9.301-4.3,9.301-9.699v-2.2c0-3.601-4.7-9.5-6.4-12.2
		C345.8,414.5,346.2,407.1,342.9,404.9z"/>
	<path id="_103805872" d="M263,432.7c1,2.2,1.1,3.6,3.8,4.2l-1.4,1.6c-4.1-1.1-3.1-1.6-4.6-4.6L263,432.7z M267.1,442.1h3.7
		c5.7,0,9.3-5.6,9.3-11.5c0-3.1-4.8-9.699-6.4-12.199c-2.2-3.601-2.9-11.7-5.4-13.5c-0.6,7.6-5.7,14.8-9,20
		C254.6,432.1,258.4,442.1,267.1,442.1z"/>
	<path id="_106033968" d="M300.6,458.8c0.6,2.601,1.4,3.9,4.1,4.5l-2,1.4c-3.2-1.5-3.3-0.3-4.3-4.8L300.6,458.8z M294.6,456.2
		c0,7.3,3.3,12.3,10.4,12.3h2.2c4.7,0,7.399-2.5,9-5.8c2.3-4.601,1.399-7.7-0.601-11.4c-1.899-3.399-4.1-5.7-5.6-9.399
		c-1.3-3.101-2.1-9.4-4.2-10.9C304.9,440.9,294.6,452,294.6,456.2z"/>
	<path id="_106107784" d="M207.2,396.9l197-0.101l-98.5,98.5L207.2,396.9z M374.9,365.2c1.5,1,15.199,14.7,15.199,15.6v14.5H374.9
		V365.2z M344,334.4c1.5,1,15.2,14.7,15.2,15.6v45.3H344V334.4z M282.7,319.5c0-0.9,13.7-14.6,15.2-15.6v91.4h-15.2V319.5z
		 M252.3,350c0-0.9,13.7-14.6,15.2-15.6v60.9h-15.2V350z M236.6,365.1l0.1,30.2h-14.9v-14.1c0-0.7-0.1-0.7-0.3-1L236.6,365.1z
		 M313.6,303.9l15.5,15.3c-0.399,0.9-0.3-0.4-0.3,1v75h-15.2V303.9z M197.6,395.6l108.3,108.3L414,395.6L305.7,287.5L197.6,395.6z"
		/>
</g>
</svg>
