<?xml version="1.0" encoding="utf-8"?>
<!-- Generator: Adobe Illustrator 16.0.0, SVG Export Plug-In . SVG Version: 6.00 Build 0)  -->
<!DOCTYPE svg PUBLIC "-//W3C//DTD SVG 1.1//EN" "http://www.w3.org/Graphics/SVG/1.1/DTD/svg11.dtd">
<svg version="1.1" id="Version_1.0" xmlns="http://www.w3.org/2000/svg" xmlns:xlink="http://www.w3.org/1999/xlink" x="0px" y="0px"
	 width="612px" height="792px" viewBox="0 0 612 792" enable-background="new 0 0 612 792" xml:space="preserve">
<g id="octagon" display="none">
	<g id="outFrame" display="inline">
		<line fill="none" stroke="#0000FF" stroke-width="2" x1="220" y1="309.5" x2="306" y2="273"/>
		<line fill="none" stroke="#0000FF" stroke-width="2" x1="306" y1="273" x2="390.5" y2="309.5"/>
		<line fill="none" stroke="#0000FF" stroke-width="2" x1="390.5" y1="309.5" x2="427" y2="396"/>
		<line fill="none" stroke="#0000FF" stroke-width="2" x1="427" y1="396" x2="390.5" y2="482.5"/>
		<line fill="none" stroke="#0000FF" stroke-width="2" x1="390.5" y1="482.5" x2="306" y2="516"/>
		<line fill="none" stroke="#0000FF" stroke-width="2" x1="306" y1="516" x2="220" y2="482.5"/>
		<line fill="none" stroke="#0000FF" stroke-width="2" x1="220" y1="482.5" x2="183" y2="396"/>
		<line fill="none" stroke="#0000FF" stroke-width="2" x1="183" y1="396" x2="220" y2="309.5"/>
	</g>
	
		<line id="mod2_1_" display="inline" fill="none" stroke="#0000FF" stroke-width="2" x1="203.966" y1="445.015" x2="406.199" y2="445.295"/>
	
		<line id="mod1_1_" display="inline" fill="none" stroke="#0000FF" stroke-width="2" x1="203.966" y1="346.985" x2="406.199" y2="346.705"/>
</g>
<g id="main">
	<ellipse stroke="#000000" stroke-width="0.823" cx="306.378" cy="392.004" rx="24.69" ry="24.69"/>
	<path id="_x31_" stroke="#000000" stroke-width="0.823" d="M264.841,320.651c24.69-14.814,57.61-14.814,82.302,0l-22.224,38.681
		c-10.698-6.584-27.159-6.584-37.857,0L264.841,320.651z"/>
	<path id="_x32_" stroke="#000000" stroke-width="0.823" d="M387.848,391.687c0.504,28.79-15.937,57.312-41.101,71.305
		l-22.415-38.568c11.047-5.981,19.269-20.242,18.904-32.8L387.848,391.687z"/>
	<path id="_x33_" stroke="#000000" stroke-width="0.823" d="M265.16,462.211c-25.146-14.025-41.549-42.569-41.006-71.357
		l44.61-0.007c-0.378,12.558,7.823,26.829,18.863,32.826L265.16,462.211z"/>
</g>
</svg>
