<?xml version="1.0" encoding="utf-8"?>
<!-- Generator: Adobe Illustrator 16.0.0, SVG Export Plug-In . SVG Version: 6.00 Build 0)  -->
<!DOCTYPE svg PUBLIC "-//W3C//DTD SVG 1.1//EN" "http://www.w3.org/Graphics/SVG/1.1/DTD/svg11.dtd">
<svg version="1.1" id="Version_1.0" xmlns="http://www.w3.org/2000/svg" xmlns:xlink="http://www.w3.org/1999/xlink" x="0px" y="0px"
	 width="612px" height="792px" viewBox="0 0 612 792" enable-background="new 0 0 612 792" xml:space="preserve">
<g id="octagon" display="none">
	<g id="outFrame" display="inline">
		<line fill="none" stroke="#0000FF" stroke-width="2" x1="220" y1="309.5" x2="306" y2="273"/>
		<line fill="none" stroke="#0000FF" stroke-width="2" x1="306" y1="273" x2="390.5" y2="309.5"/>
		<line fill="none" stroke="#0000FF" stroke-width="2" x1="390.5" y1="309.5" x2="427" y2="396"/>
		<line fill="none" stroke="#0000FF" stroke-width="2" x1="427" y1="396" x2="390.5" y2="482.5"/>
		<line fill="none" stroke="#0000FF" stroke-width="2" x1="390.5" y1="482.5" x2="306" y2="516"/>
		<line fill="none" stroke="#0000FF" stroke-width="2" x1="306" y1="516" x2="220" y2="482.5"/>
		<line fill="none" stroke="#0000FF" stroke-width="2" x1="220" y1="482.5" x2="183" y2="396"/>
		<line fill="none" stroke="#0000FF" stroke-width="2" x1="183" y1="396" x2="220" y2="309.5"/>
	</g>
	
		<line id="mod2_1_" display="inline" fill="none" stroke="#0000FF" stroke-width="2" x1="203.966" y1="445.015" x2="406.199" y2="445.295"/>
	
		<line id="mod1_1_" display="inline" fill="none" stroke="#0000FF" stroke-width="2" x1="203.966" y1="346.985" x2="406.199" y2="346.705"/>
</g>
<g id="main">
	<path id="_103643800" d="M288.1,404.56V354.62l49.94-0.99v48.51L288.1,404.56z M253.34,385.64l0.11-42.02l27.06,10.01v49.39
		C277.43,401.37,253.34,387.4,253.34,385.64z M257.19,339.55c14.3,0,28.6,0,42.9,0c5.17,0,30.25,7.81,33.11,9.68l-9.351,0.66H286.45
		C284.14,349.89,258.73,340.65,257.19,339.55z M248.5,335.92l0.11,36.74l-0.66,16.83c5.61,2.97,13.31,7.59,18.7,11.22
		c4.73,3.08,13.64,9.9,20.35,9.9c18.92,0,38.28-2.75,57.64-2.75l-0.109-59.07c-2.53-1.21-36.96-13.53-37.95-13.53l-9.79-0.22
		L248.5,335.92z"/>
	<path id="_106024416" d="M377.09,399.83c0-4.29,5.391-11.22,5.391-15.73c0-1.87-0.551-4.07-1.65-4.84
		c-2.2,9.35-14.63,22.22-14.63,25.41v1.1c0,4.73,3.85,9.351,3.85,15.181v5.39c-5.83-1.54-13.97-12.21-14.189-20.02
		c-2.53,1.76-3.74,7.479-3.74,11.88v2.75c0,6.93,6.27,19.359,9.46,23.649c4.95,6.71,15.95,7.811,20.9,12.101
		c5.17-2.75,7.81-4.4,12.649-7.37c6.49-3.96,5.5-3.85,8.8-10.67c1.65-3.41,4.181-11.33,4.511-15.51
		c0.22-3.851-0.33-15.95-2.2-17.381c-1.98,8.801-5.17,17.82-13.42,20.021c-0.11-1.65-0.551-1.87-0.551-3.74v-0.55
		c0-4.4,4.181-12.32,3.631-16.06c-0.33-2.091-6.271-11.88-7.48-12.76c0,7.04-1.32,16.72-7.59,16.83
		C379.95,406.21,377.09,406.98,377.09,399.83z"/>
	<path id="_104646648" d="M226.28,400.82c0-4.95,4.84-10.561,4.84-15.73v-3.74c0-1.54-0.22-0.99-1.1-1.65
		c-2.09,9.13-15.18,22.77-15.18,26.069c0,4.07,4.84,11.44,4.84,20.57c-6.38-0.55-14.63-12.32-14.63-20.02
		c-2.09,2.31-3.74,6.6-3.74,10.779c0,11,4.18,20.131,8.69,26.62c1.98,2.971,17.6,12.98,21.67,12.98c2.75,0,16.83-9.351,18.15-11.11
		c2.2-3.08,7.92-17.05,7.92-21.45c0-4.069-0.11-16.39-2.2-17.93c-2.75,11.88-3.63,14.85-13.53,20.13c0-10.67,3.3-14.3,3.3-20.57
		v-1.1c0-0.33-6.93-11-7.59-11.44c0,6.05-1.65,16.83-6.49,16.83C228.81,410.06,226.28,404.01,226.28,400.82z"/>
</g>
</svg>
