<?xml version="1.0" encoding="utf-8"?>
<!-- Generator: Adobe Illustrator 16.0.0, SVG Export Plug-In . SVG Version: 6.00 Build 0)  -->
<!DOCTYPE svg PUBLIC "-//W3C//DTD SVG 1.1//EN" "http://www.w3.org/Graphics/SVG/1.1/DTD/svg11.dtd">
<svg version="1.1" id="Version_1.0" xmlns="http://www.w3.org/2000/svg" xmlns:xlink="http://www.w3.org/1999/xlink" x="0px" y="0px"
	 width="612px" height="792px" viewBox="0 0 612 792" enable-background="new 0 0 612 792" xml:space="preserve">
<g id="octagon" display="none">
	<g id="outFrame" display="inline">
		<line fill="none" stroke="#0000FF" stroke-width="2" x1="220" y1="309.5" x2="306" y2="273"/>
		<line fill="none" stroke="#0000FF" stroke-width="2" x1="306" y1="273" x2="390.5" y2="309.5"/>
		<line fill="none" stroke="#0000FF" stroke-width="2" x1="390.5" y1="309.5" x2="427" y2="396"/>
		<line fill="none" stroke="#0000FF" stroke-width="2" x1="427" y1="396" x2="390.5" y2="482.5"/>
		<line fill="none" stroke="#0000FF" stroke-width="2" x1="390.5" y1="482.5" x2="306" y2="516"/>
		<line fill="none" stroke="#0000FF" stroke-width="2" x1="306" y1="516" x2="220" y2="482.5"/>
		<line fill="none" stroke="#0000FF" stroke-width="2" x1="220" y1="482.5" x2="183" y2="396"/>
		<line fill="none" stroke="#0000FF" stroke-width="2" x1="183" y1="396" x2="220" y2="309.5"/>
	</g>
	
		<line id="mod2_1_" display="inline" fill="none" stroke="#0000FF" stroke-width="2" x1="203.966" y1="445.015" x2="406.199" y2="445.295"/>
	
		<line id="mod1_1_" display="inline" fill="none" stroke="#0000FF" stroke-width="2" x1="203.966" y1="346.985" x2="406.199" y2="346.705"/>
</g>
<g id="main">
	<path id="_106559552" d="M225.2,380.2v0.96c0,2.88,4.44,10.8,4.44,15.24v5.399c-5.88-0.479-14.16-12.48-14.16-20.16
		c-4.2,2.76-3.72,10.8-3.48,16.68c0.24,6,3.36,11.64,5.4,15.84c3.24,6.479,4.08,7.319,9.96,11.16c1.56,1.08,13.2,6.96,14.64,6.96
		c2.88,0,17.04-9.721,18.84-11.641c2.16-2.52,8.16-18.239,7.8-22.8l-1.56-16.2H266c-1.32,5.64-0.84,8.28-4.08,12.6
		c-1.44,2.041-6.84,6.84-9.6,7.081c0-2.28-0.48-1.681-0.48-3.48c0-4.56,3.6-10.8,4.2-16.44c0.24-2.4-6.48-11.4-8.16-12.6
		c1.08,4.92-2.04,16.2-5.88,16.2h-0.48c-2.16,0-4.44-5.4-4.44-8.4c0-9.84,6.48-11.16,3.96-22.08c-0.12,0.12-5.4,11.28-7.2,13.44
		C232.4,369.52,225.2,378.76,225.2,380.2z"/>
	<path id="_106588544" d="M356.96,380.2v1.44c0,5.4,5.64,12.84,3.96,20.16c-3.36-0.72-7.8-4.92-9.6-7.56
		c-0.84-1.08-2.28-4.2-2.88-5.52c-0.96-2.28-1.08-5.64-1.801-7.08c-2.76,2.04-3.96,8.76-3.96,13.8v0.48c0,8.04,6,18.84,9.48,24
		c4.92,7.44,15.72,8.16,21,12.84c3.96-2.16,17.16-9.359,19.2-12.24c2.159-3.119,8.04-18.6,7.56-24.119l-1.68-14.76h-0.96
		c-0.12,8.04-6.84,19.08-13.8,19.68v-4.92c0-4.32,3.479-10.081,3.479-15.24v-0.48c0-2.28-6.12-10.92-7.92-11.76
		c0,8.52-0.72,13.68-6.36,16.68c-2.04-1.8-4.439-3.96-4.439-7.8v-3c0-5.16,4.92-10.2,4.92-15.24c0-2.16-0.24-3.96-1.44-4.92
		C369.56,364.12,356.96,376.96,356.96,380.2z"/>
	<path id="_103507112" d="M289.16,351.16c0-10.68,34.439-10.8,34.439,0v139.08c0,3.239-10.92,3-14.76,3h-4.92
		c-3.84,0-14.76,0.24-14.76-3V351.16L289.16,351.16z M302.48,299.56h-16.32v7.32h15.72v7.92h-9.24v4.92H302v13.32h-11.4v11.28
		c-2.64,0.72-4.92,3.96-4.92,7.44V488.8c0,8.28,9.36,7.92,17.64,7.92h5.88c8.399,0,17.64,0.48,17.64-7.92V352.72
		c0-6.96-4.439-6.96-4.439-9.36v-10.32H310.76V307h15.721v-7.44H309.8v-6.36h-7.32V299.56L302.48,299.56z"/>
</g>
</svg>
