<?xml version="1.0" encoding="utf-8"?>
<!-- Generator: Adobe Illustrator 16.0.0, SVG Export Plug-In . SVG Version: 6.00 Build 0)  -->
<!DOCTYPE svg PUBLIC "-//W3C//DTD SVG 1.1//EN" "http://www.w3.org/Graphics/SVG/1.1/DTD/svg11.dtd">
<svg version="1.1" id="Version_1.0" xmlns="http://www.w3.org/2000/svg" xmlns:xlink="http://www.w3.org/1999/xlink" x="0px" y="0px"
	 width="612px" height="792px" viewBox="0 0 612 792" enable-background="new 0 0 612 792" xml:space="preserve">
<g id="octagon" display="none">
	<g id="outFrame" display="inline">
		<line fill="none" stroke="#0000FF" stroke-width="2" x1="220" y1="309.5" x2="306" y2="273"/>
		<line fill="none" stroke="#0000FF" stroke-width="2" x1="306" y1="273" x2="390.5" y2="309.5"/>
		<line fill="none" stroke="#0000FF" stroke-width="2" x1="390.5" y1="309.5" x2="427" y2="396"/>
		<line fill="none" stroke="#0000FF" stroke-width="2" x1="427" y1="396" x2="390.5" y2="482.5"/>
		<line fill="none" stroke="#0000FF" stroke-width="2" x1="390.5" y1="482.5" x2="306" y2="516"/>
		<line fill="none" stroke="#0000FF" stroke-width="2" x1="306" y1="516" x2="220" y2="482.5"/>
		<line fill="none" stroke="#0000FF" stroke-width="2" x1="220" y1="482.5" x2="183" y2="396"/>
		<line fill="none" stroke="#0000FF" stroke-width="2" x1="183" y1="396" x2="220" y2="309.5"/>
	</g>
	
		<line id="mod2_1_" display="inline" fill="none" stroke="#0000FF" stroke-width="2" x1="203.966" y1="445.015" x2="406.199" y2="445.295"/>
	
		<line id="mod1_1_" display="inline" fill="none" stroke="#0000FF" stroke-width="2" x1="203.966" y1="346.985" x2="406.199" y2="346.705"/>
</g>
<g id="main">
	<path id="_104963896" d="M291.3,359v3.4c0,11,5.2,21.7,14.3,23.6c9.2,2,17.6-11.3,17.6-20.1v-3.8c0-7.4-5.2-21.5-7.4-28.2
		c-1.3-3.5-7.7-26.4-9.7-26.4c-2.1,0-2.2,11.2-2.8,13.5c-1.4,5.3-2.3,8-3.9,12.8C297.5,339.6,291.3,352.8,291.3,359L291.3,359z"/>
	<polygon id="_105660528" points="288.6,392.3 287.1,388.6 231.5,388.6 231.5,419.6 379.6,419.6 379.6,388.6 323.2,388.6 
		323.2,395.8 315.6,395.3 317.9,402.2 315.2,402.5 311.1,400.3 310.2,407.9 307.6,404.1 299.3,406.7 297.7,398.8 292.6,402 291,398 
		284.8,399.1 	"/>
	<path id="_65687072" d="M311.4,429.1c0,5,8.3,4.7,8.1-0.3c-0.2-5.8-8.1-4.6-8.1-0.8V429.1z"/>
	<path id="_66482768" d="M301.2,438.2c1.6,0,3.4-2.101,3.4-3.8V434c0-5.6-8-4.4-8-0.8v1.899C296.6,436.8,299.3,438.2,301.2,438.2z"
		/>
	<path id="_63651176" d="M308,446.9c0,1.6,1.7,3.8,3,3.8h1.9c1.1,0,3-1.9,3-3v-1.9c0-1.5-2.101-3-3.801-3h-0.3
		c-1.899,0-3.8,1.9-3.8,3.8V446.9z"/>
	<path id="_65838568" d="M301.9,453.7c1.5,0,3-2.101,3-3.8c0-2.4-1.8-4.2-4.2-4.2c-1.5,0-3.8,1.6-3.8,3v1.5c0,1.7,1.8,3.399,3,3.399
		h2V453.7z"/>
	<path id="_65673176" d="M303.5,463.9c0,1.5,1.6,3.8,3,3.8h1.5c1.9,0,3.4-1.5,3.4-3.4v-1.5c0-1.3-1.7-3-3.4-3h-0.8
		C305.1,459.8,303.5,461.8,303.5,463.9z"/>
	<path id="_104804272" d="M319,474.9c3.3,0,5.4-4.4,2.8-7c-2.6-2.601-7-0.5-7,2.8C314.8,472.8,317,474.9,319,474.9z"/>
	<path id="_66315408" d="M297.8,477.2c0,1.7,1.6,3.8,3,3.8h1.5c2,0,3.4-1.9,3.4-3.8v-0.4c0-1.7-1.6-3.8-3-3.8h-1.9
		c-1.4,0-3,2.2-3,3.8V477.2z"/>
	<path id="_65661896" d="M312.9,484.4c2,0,3.399-1.9,3.399-3.801c0-1.699-1.6-3.8-3-3.8H311.4c-1.301,0-3,1.7-3,3.4v0.8
		c0,1.9,1.5,3.4,3.399,3.4H312.9z"/>
</g>
</svg>
