<?xml version="1.0" encoding="utf-8"?>
<!-- Generator: Adobe Illustrator 16.0.0, SVG Export Plug-In . SVG Version: 6.00 Build 0)  -->
<!DOCTYPE svg PUBLIC "-//W3C//DTD SVG 1.1//EN" "http://www.w3.org/Graphics/SVG/1.1/DTD/svg11.dtd">
<svg version="1.1" id="Version_1.0" xmlns="http://www.w3.org/2000/svg" xmlns:xlink="http://www.w3.org/1999/xlink" x="0px" y="0px"
	 width="612px" height="792px" viewBox="0 0 612 792" enable-background="new 0 0 612 792" xml:space="preserve">
<g id="octagon" display="none">
	<g id="outFrame" display="inline">
		<line fill="none" stroke="#0000FF" stroke-width="2" x1="220" y1="309.5" x2="306" y2="273"/>
		<line fill="none" stroke="#0000FF" stroke-width="2" x1="306" y1="273" x2="390.5" y2="309.5"/>
		<line fill="none" stroke="#0000FF" stroke-width="2" x1="390.5" y1="309.5" x2="427" y2="396"/>
		<line fill="none" stroke="#0000FF" stroke-width="2" x1="427" y1="396" x2="390.5" y2="482.5"/>
		<line fill="none" stroke="#0000FF" stroke-width="2" x1="390.5" y1="482.5" x2="306" y2="516"/>
		<line fill="none" stroke="#0000FF" stroke-width="2" x1="306" y1="516" x2="220" y2="482.5"/>
		<line fill="none" stroke="#0000FF" stroke-width="2" x1="220" y1="482.5" x2="183" y2="396"/>
		<line fill="none" stroke="#0000FF" stroke-width="2" x1="183" y1="396" x2="220" y2="309.5"/>
	</g>
	
		<line id="mod2_1_" display="inline" fill="none" stroke="#0000FF" stroke-width="2" x1="203.966" y1="445.015" x2="406.199" y2="445.295"/>
	
		<line id="mod1_1_" display="inline" fill="none" stroke="#0000FF" stroke-width="2" x1="203.966" y1="346.985" x2="406.199" y2="346.705"/>
</g>
<g id="main">
	<path id="_65447096" d="M274.38,431.94c0-18.48,15.29-35.091,33.55-35.091h2.641c18.7,0,34.1,16.391,34.1,35.091
		c0,17.819-15.51,34.649-33,34.649h-4.84C289.78,466.48,274.38,449.65,274.38,431.94z M306.28,342.29c-1.76,0-5.17-5.17-5.83-7.37
		c-0.77-3.08-0.88-7.48,0-11.11c1.32-5.28,6.93-14.63,6.93-18.81c0-2.75-0.33-7.59-3.19-7.81c-2.53,11.11-5.17,12.32-10.34,20.02
		c-2.42,3.63-11.66,14.41-11.66,18.26v1.1c0,5.94,7.81,20.35,6.82,26.18l-0.55,4.18c-8.8-2.09-20.35-18.37-20.35-29.92
		c-3.41,0.33-6.27,11-6.27,15.18v7.37c0,14.3,8.36,20.79,10.45,29.92c-6.71-3.52-9.9-5.39-14.85-10.89
		c-2.64-2.97-9.13-13.97-10.34-14.85c-2.86,5.94,4.29,25.63,6.05,30.14c1.76,4.29,3.52,8.8,5.72,12.54c2.64,4.4,5.61,6.6,8.03,10.23
		c0,4.18-1.32,6.05-1.43,11.659c-0.11,4.62-0.11,6.49,0.55,11.44c0.55,5.17,5.17,15.29,8.03,18.26c6.05,6.49,5.94,7.04,14.08,12.101
		c4.95,3.189,12.32,5.39,20.351,5.39h1.539c16.061,0,28.49-8.69,35.421-18.04c9.569-12.979,9.46-24.86,5.5-41.8
		c8.689-16.5,14.63-23.32,14.63-49.28v-1.1l-0.88-9.9c-0.221,0-8.141,15.4-9.46,17.38c-2.53,3.85-9.131,12.1-14.301,12.54
		c0.221-8.03,5.28-15.4,5.28-23.54v-5.39l-2.64-19.91c-2.42,1.76-3.63,14.63-7.48,19.36c-1.1,1.32-14.08,13.86-14.08,9.02v-4.18
		c0-7.7,5.28-15.84,5.28-22.55v-3.19c0-2.09-9.79-16.17-11.55-17.27c0,5.72-0.55,10.89-1.87,15.4
		C313.1,335.69,308.92,342.29,306.28,342.29z"/>
	<polygon id="_103707224" points="258.65,494.86 360.29,494.86 360.29,484.3 258.65,484.3 	"/>
</g>
</svg>
