<?xml version="1.0" encoding="utf-8"?>
<!-- Generator: Adobe Illustrator 16.0.0, SVG Export Plug-In . SVG Version: 6.00 Build 0)  -->
<!DOCTYPE svg PUBLIC "-//W3C//DTD SVG 1.1//EN" "http://www.w3.org/Graphics/SVG/1.1/DTD/svg11.dtd">
<svg version="1.1" id="Version_1.0" xmlns="http://www.w3.org/2000/svg" xmlns:xlink="http://www.w3.org/1999/xlink" x="0px" y="0px"
	 width="612px" height="792px" viewBox="0 0 612 792" enable-background="new 0 0 612 792" xml:space="preserve">
<g id="octagon" display="none">
	<g id="outFrame" display="inline">
		<line fill="none" stroke="#0000FF" stroke-width="2" x1="220" y1="309.5" x2="306" y2="273"/>
		<line fill="none" stroke="#0000FF" stroke-width="2" x1="306" y1="273" x2="390.5" y2="309.5"/>
		<line fill="none" stroke="#0000FF" stroke-width="2" x1="390.5" y1="309.5" x2="427" y2="396"/>
		<line fill="none" stroke="#0000FF" stroke-width="2" x1="427" y1="396" x2="390.5" y2="482.5"/>
		<line fill="none" stroke="#0000FF" stroke-width="2" x1="390.5" y1="482.5" x2="306" y2="516"/>
		<line fill="none" stroke="#0000FF" stroke-width="2" x1="306" y1="516" x2="220" y2="482.5"/>
		<line fill="none" stroke="#0000FF" stroke-width="2" x1="220" y1="482.5" x2="183" y2="396"/>
		<line fill="none" stroke="#0000FF" stroke-width="2" x1="183" y1="396" x2="220" y2="309.5"/>
	</g>
	
		<line id="mod2_1_" display="inline" fill="none" stroke="#0000FF" stroke-width="2" x1="203.966" y1="445.015" x2="406.199" y2="445.295"/>
	
		<line id="mod1_1_" display="inline" fill="none" stroke="#0000FF" stroke-width="2" x1="203.966" y1="346.985" x2="406.199" y2="346.705"/>
</g>
<g id="main">
	<path id="_64583336" d="M326.1,358c-0.3,2.6-0.699,1.4-0.699,3.8c0,2.4,2,7.6,4.399,7.6h0.601c7.8,0,7.699-0.6,12-3.8
		c-2.601-5.7-1.101-8.9-10.601-8.9C329,356.7,328.3,357.4,326.1,358z"/>
	<path id="_65170960" d="M334.3,392.2c2.101,0,2.4-1.8,3.2-3.2c-1.6-3.4-1.3-6.3-6.4-6.3h-0.6c-2.5,0-5.1,1.4-5.1,3.8
		c0,1.7,4.1,5.7,7,5.7H334.3z"/>
	<path id="_65102432" d="M355.2,378.9c-5.5,0-17.5,15.9-10,21.4c4.2,3,6.6,3.9,13.2,1.4c5-1.9,6.899-3.9,6.899-10.8
		C365.3,385,360.2,378.9,355.2,378.9z"/>
	<path id="_63613312" d="M348.2,420c0,9.1,15.2,6.9,15.2-1.9C363.4,407.7,348.2,413.4,348.2,420z"/>
	<path id="_65492976" d="M323.9,335.1l-13.301-13l-98.2,145.8L352,468.1V465c0-1.8-2.6-3.7-3.8-4.4c0-4.899-1.4-3.899-2.3-7.199
		c-0.601-2.301-0.2-6.801-0.2-9.301c0-6.899-0.3-10.8-4.3-14.1c-5.601-4.7-3.2-3.8-10.7-7.7c-5-2.5-3.7-5.2-12.9-5.5V413
		c0-4.7-5-9.1-7-12c0-5.7-1.3-11.7-1.3-17.1c0-3.9-0.5-4.9-0.6-8.3c-0.2-4.3-1.9-3.7-1.9-7v-0.5c0-7.5,1.3-11.2,5.2-15
		c5.399-5.3,2.2-5.5,9.6-9.8L323.9,335.1L323.9,335.1z"/>
	<path id="_66340648" d="M379.3,422.5c-6.8,0-15.5,10.3-10.8,12.7c-2.6,3.8-8.9,5-8.9,10.1c0,4.4,6.601,11.7,8.601,15.4
		c2.7,5,7.899,8,15.399,8h4.4c6.8,0,11.4-6.4,11.4-13.3v-2.5c0-8.601-2.601-12.601-5.301-18.801c-2.399-5.899-4.1-11.6-12.3-11.6
		H379.3z"/>
</g>
</svg>
