<?xml version="1.0" encoding="utf-8"?>
<!-- Generator: Adobe Illustrator 16.0.0, SVG Export Plug-In . SVG Version: 6.00 Build 0)  -->
<!DOCTYPE svg PUBLIC "-//W3C//DTD SVG 1.1//EN" "http://www.w3.org/Graphics/SVG/1.1/DTD/svg11.dtd">
<svg version="1.1" id="Version_1.0" xmlns="http://www.w3.org/2000/svg" xmlns:xlink="http://www.w3.org/1999/xlink" x="0px" y="0px"
	 width="612px" height="792px" viewBox="0 0 612 792" enable-background="new 0 0 612 792" xml:space="preserve">
<g id="octagon" display="none">
	<g id="outFrame" display="inline">
		<line fill="none" stroke="#0000FF" stroke-width="2" x1="220" y1="309.5" x2="306" y2="273"/>
		<line fill="none" stroke="#0000FF" stroke-width="2" x1="306" y1="273" x2="390.5" y2="309.5"/>
		<line fill="none" stroke="#0000FF" stroke-width="2" x1="390.5" y1="309.5" x2="427" y2="396"/>
		<line fill="none" stroke="#0000FF" stroke-width="2" x1="427" y1="396" x2="390.5" y2="482.5"/>
		<line fill="none" stroke="#0000FF" stroke-width="2" x1="390.5" y1="482.5" x2="306" y2="516"/>
		<line fill="none" stroke="#0000FF" stroke-width="2" x1="306" y1="516" x2="220" y2="482.5"/>
		<line fill="none" stroke="#0000FF" stroke-width="2" x1="220" y1="482.5" x2="183" y2="396"/>
		<line fill="none" stroke="#0000FF" stroke-width="2" x1="183" y1="396" x2="220" y2="309.5"/>
	</g>
	
		<line id="mod2_1_" display="inline" fill="none" stroke="#0000FF" stroke-width="2" x1="203.966" y1="445.015" x2="406.199" y2="445.295"/>
	
		<line id="mod1_1_" display="inline" fill="none" stroke="#0000FF" stroke-width="2" x1="203.966" y1="346.985" x2="406.199" y2="346.705"/>
</g>
<g id="main">
	<path id="_64068888" d="M359.56,377.17c0-0.85,0.851-1.36,1.87-1.36h1.87l0.34,1.36l-0.85,2.55h-2.55
		C359.9,377.85,359.56,378.7,359.56,377.17z M368.57,372.58c-0.511,0-3.91-4.42-8.33-4.42h-1.19c-5.1,0-4.93,5.61-6.29,9.69
		c-1.359,3.57-3.399,9.18-3.399,13.43c0,1.53,1.02,2.55,2.55,2.55c5.95,0,15.979-12.92,17.34-18.53c9.86,0,27.71-2.72,29.41-9.69
		c-6.46,1.7-7.141,5.95-19.891,6.97c4.421-3.91,14.11-10.71,14.79-18.02h-1.189C390.33,362.21,378.26,372.58,368.57,372.58z"/>
	<path id="_64006504" d="M247.02,349.12l0.17-0.68l15.3,12.24l-0.34,0.51c-5.61,3.74-19.21,22.44-24.99,22.44l-4.08-0.17
		L247.02,349.12z M264.7,357.28c-1.02-4.25-12.58-15.98-16.66-18.02c-1.02,0.68-4.42,2.55-4.42,3.91c0,2.04,0.68,2.55,1.19,3.74
		l-14.11,36.72h-2.55c0.51,2.21,1.36,1.7,1.36,2.55s-7.48,19.55-8.33,21.76c-1.53,3.569-2.55,6.63-4.08,10.54
		c-0.85,2.039-1.53,4.079-2.21,5.609c-1.36,2.72-1.53,0.851-3.4,4.25l-3.23,0.68c0.85,1.19,4.59,1.19,6.29,1.021
		c2.89-0.51,1.02-2.55,2.04-5.44c1.7-4.42,3.57-8.84,5.27-13.43c1.19-3.06,9.35-25.67,11.56-25.67h3.23c2.04,0,2.55,0.68,3.74,1.19
		l5.78-6.97c6.63,4.42,21.25,11.56,31.96,11.56H280l0.51-0.34l-8.67-12.58l-24.65-0.17l16.15-15.81
		c10.71,7.14,29.24,42.33,37.23,42.33h0.68c3.57,0,3.23-1.53,4.42-3.91c-2.21-9.35-11.9-15.81-18.36-21.25
		c-5.95-5.1-15.3-16.15-20.74-19.72c2.89-4.25,25.84-27.03,30.6-28.22l2.21,19.21l0.34,7.14l-2.89,18.53h-4.59l12.92,10.88
		l18.02-9.69c-1.189,5.27-0.85,6.29-5.609,8.5c-1.53,0.85-9.181,4.76-9.181,5.78c0,1.36,1.87,4.25,1.87,7.65
		c0,7.14-7.82,10.88-14.45,8.159c-5.27-2.38-12.24-12.75-13.77-12.75h-2.55c-11.39,0-16.83,3.91-26.35,3.91h-1.19
		c-4.76,0-6.29-1.87-10.2-1.87h-1.36c-1.53,0-2.55,1.021-2.55,2.551c0,7.989,30.77,11.729,42.33,11.56l32.64-0.68v0.68
		c-2.21,3.23-14.45,12.07-19.89,12.07c-0.34,0.51-1.19,1.7-1.19,2.04c0,1.7,0.34,1.7,0.68,3.229c1.7,0.34,1.19,0.681,2.55,0.681
		s1.36-0.511,2.55-1.36v-3.23l19.21-13.43l-3.91,15.3c-2.21,0.17-3.229,1.021-3.229,3.23s1.36,1.7,3.4,2.89l2.89-3.399
		c0-0.511-1.7-3.23-1.7-3.4c0-3.23,5.95-19.04,6.97-23.8l39.101-1.19l2.89,21.08l-1.02,0.17c0.85,1.36,0.68,2.55,2.55,2.55
		c2.38,0,2.72-0.85,3.91-1.869c-1.19-2.381-1.19-4.761-4.25-3.23l-2.04-16.83l12.069,13.771l-1.699,2.04l3.399,2.89
		c1.36-0.68,2.55-0.51,2.55-2.55v-1.36c0-2.21-2.21-2.55-4.079-2.89L363.3,402.16l0.851-2.55H342.9c0-12.41,4.93-20.57,5.779-31.11
		l-22.949,1.02l-2.04,6.29H312.13c-4.42,0-6.97-19.89-7.14-25.67c0-5.95-0.68-10.2-0.51-15.98c0.17-3.4,2.55-12.75-2.55-12.75h-1.87
		c-2.55,0-3.23,2.55-3.91,4.42c-0.68,2.38-2.38,3.4-4.08,4.93c-3.06,3.23-5.78,5.95-8.84,9.01S267.76,356.43,264.7,357.28
		L264.7,357.28z"/>
</g>
</svg>
