<?xml version="1.0" encoding="utf-8"?>
<!-- Generator: Adobe Illustrator 16.0.0, SVG Export Plug-In . SVG Version: 6.00 Build 0)  -->
<!DOCTYPE svg PUBLIC "-//W3C//DTD SVG 1.1//EN" "http://www.w3.org/Graphics/SVG/1.1/DTD/svg11.dtd">
<svg version="1.1" id="Version_1.0" xmlns="http://www.w3.org/2000/svg" xmlns:xlink="http://www.w3.org/1999/xlink" x="0px" y="0px"
	 width="612px" height="792px" viewBox="0 0 612 792" enable-background="new 0 0 612 792" xml:space="preserve">
<g id="octagon" display="none">
	<g id="outFrame" display="inline">
		<line fill="none" stroke="#0000FF" stroke-width="2" x1="220" y1="309.5" x2="306" y2="273"/>
		<line fill="none" stroke="#0000FF" stroke-width="2" x1="306" y1="273" x2="390.5" y2="309.5"/>
		<line fill="none" stroke="#0000FF" stroke-width="2" x1="390.5" y1="309.5" x2="427" y2="396"/>
		<line fill="none" stroke="#0000FF" stroke-width="2" x1="427" y1="396" x2="390.5" y2="482.5"/>
		<line fill="none" stroke="#0000FF" stroke-width="2" x1="390.5" y1="482.5" x2="306" y2="516"/>
		<line fill="none" stroke="#0000FF" stroke-width="2" x1="306" y1="516" x2="220" y2="482.5"/>
		<line fill="none" stroke="#0000FF" stroke-width="2" x1="220" y1="482.5" x2="183" y2="396"/>
		<line fill="none" stroke="#0000FF" stroke-width="2" x1="183" y1="396" x2="220" y2="309.5"/>
	</g>
	
		<line id="mod2_1_" display="inline" fill="none" stroke="#0000FF" stroke-width="2" x1="203.966" y1="445.015" x2="406.199" y2="445.295"/>
	
		<line id="mod1_1_" display="inline" fill="none" stroke="#0000FF" stroke-width="2" x1="203.966" y1="346.985" x2="406.199" y2="346.705"/>
</g>
<g id="main">
	<path id="_65101984" d="M284.36,395.11v0.55c0,9.35,8.69,19.359,17.49,19.359h4.18c9.79,0,18.149-9.68,18.149-19.359
		c0-9.9-8.689-19.91-17.489-19.91h-4.181C293.71,375.75,284.36,385.87,284.36,395.11z"/>
	<path id="_64546440" d="M303.72,432.07c-21.12,0-33.77-16.17-35.97-36.08c-1.87-18.15,16.94-36.52,34.76-36.52h4.29
		c18.37,0,33.88,17.16,33.88,36.3c0,19.25-15.62,36.3-34.43,36.3H303.72z M257.19,395.11c0,28.82,19.91,45.21,45.98,48.291
		c15.51,1.979,25.63-7.261,33.88-13.2c7.04-5.061,14.521-20.681,14.521-33.22v-1.871c0-25.96-20.681-46.53-46.53-46.53h-1.87
		C278.31,348.58,257.19,370.14,257.19,395.11z"/>
	<path id="_65585136" d="M300.09,462.32c-34.1,0-61.71-32.67-62.92-67.101c-1.21-33,31.13-65.89,63.47-65.89h7.26
		c31.899,0,62.92,31.02,62.92,62.92v6.05c0,31.9-30.91,64.13-62.92,64.13h-7.811V462.32z M232.44,395.11
		c0,21.89,9.35,39.93,20.13,51.26c5.72,5.939,12.98,10.89,20.79,14.85c10.56,5.391,15.84,4.84,28.71,6.931
		c7.371,1.21,25.081-3.301,29.92-5.5c11.55-5.5,12.54-7.37,21.56-14.08c10.67-7.7,22.771-30.69,22.771-49.17v-8.47
		c0-34.21-33.99-67.1-68.311-67.1h-7.92C263.9,323.83,232.44,357.82,232.44,395.11z"/>
	<path id="_64132552" d="M211.21,395.11c0-26.95,12.32-50.6,25.85-64.24c12.65-12.76,36.96-28.27,61.82-28.27h10.23
		c12.21,0,26.29,4.73,34.649,8.91c12.431,6.27,15.95,9.9,25.96,17.6c11.55,8.91,27.721,38.5,27.721,59.4v13.311
		c0,43.449-43.78,86.46-87.67,86.46h-11.44c-25.63,0-48.4-15.511-61.49-28.601C223.2,446.26,211.21,422.06,211.21,395.11z
		 M309.77,491.25c26.841,0,49.94-15.73,63.69-29.48c16.83-16.829,24.64-34.649,26.73-66.22c3.189-47.96-44.33-95.37-90.421-95.37
		h-12.1c-25.63,0-50.27,16.61-63.03,30.14c-7.59,8.03-14.08,16.72-18.81,27.72c-2.86,6.93-8.8,28.16-7.59,38.28
		c1.87,16.06,2.31,25.96,8.47,38.17c5.5,11,10.01,19.029,18.26,27.609c12.54,13.2,38.06,29.15,63.36,29.15H309.77z"/>
</g>
</svg>
