<?xml version="1.0" encoding="utf-8"?>
<!-- Generator: Adobe Illustrator 16.0.0, SVG Export Plug-In . SVG Version: 6.00 Build 0)  -->
<!DOCTYPE svg PUBLIC "-//W3C//DTD SVG 1.1//EN" "http://www.w3.org/Graphics/SVG/1.1/DTD/svg11.dtd">
<svg version="1.1" id="Version_1.0" xmlns="http://www.w3.org/2000/svg" xmlns:xlink="http://www.w3.org/1999/xlink" x="0px" y="0px"
	 width="612px" height="792px" viewBox="0 0 612 792" enable-background="new 0 0 612 792" xml:space="preserve">
<g id="octagon" display="none">
	<g id="outFrame" display="inline">
		<line fill="none" stroke="#0000FF" stroke-width="2" x1="220" y1="309.5" x2="306" y2="273"/>
		<line fill="none" stroke="#0000FF" stroke-width="2" x1="306" y1="273" x2="390.5" y2="309.5"/>
		<line fill="none" stroke="#0000FF" stroke-width="2" x1="390.5" y1="309.5" x2="427" y2="396"/>
		<line fill="none" stroke="#0000FF" stroke-width="2" x1="427" y1="396" x2="390.5" y2="482.5"/>
		<line fill="none" stroke="#0000FF" stroke-width="2" x1="390.5" y1="482.5" x2="306" y2="516"/>
		<line fill="none" stroke="#0000FF" stroke-width="2" x1="306" y1="516" x2="220" y2="482.5"/>
		<line fill="none" stroke="#0000FF" stroke-width="2" x1="220" y1="482.5" x2="183" y2="396"/>
		<line fill="none" stroke="#0000FF" stroke-width="2" x1="183" y1="396" x2="220" y2="309.5"/>
	</g>
	
		<line id="mod2_1_" display="inline" fill="none" stroke="#0000FF" stroke-width="2" x1="203.966" y1="445.015" x2="406.199" y2="445.295"/>
	
		<line id="mod1_1_" display="inline" fill="none" stroke="#0000FF" stroke-width="2" x1="203.966" y1="346.985" x2="406.199" y2="346.705"/>
</g>
<g id="main">
	<rect x="249.987" y="371.486" fill="#FFFFFF" stroke="#000000" stroke-width="3.0608" width="110.19" height="71.624"/>
	<polygon fill="#FFFFFF" stroke="#000000" stroke-width="3.0608" points="249.987,370.874 305.082,320.064 360.177,370.874 	"/>
	<g transform="translate(0 -79.5181)">
		<rect x="215.094" y="519.25" stroke="#000000" stroke-width="0.6122" width="181.813" height="15.304"/>
		
			<line fill="none" stroke="#000000" stroke-width="3.0608" stroke-linecap="round" x1="216.318" y1="520.474" x2="216.318" y2="505.782"/>
		
			<line fill="none" stroke="#000000" stroke-width="3.0608" stroke-linecap="round" x1="395.682" y1="520.474" x2="395.682" y2="505.782"/>
		<path stroke="#000000" stroke-width="0.6122" d="M216.938,504.677c9.654,26.548,25.3,0.599,26.731,1.02
			c7.127,2.097,4.035,10.942,16.324,8.775c4.22-0.745,11.248-8.459,13.263-8.571c5.221-0.29,7.549,13.173,18.162,10.611
			c4.983-1.203,8.266-8.945,11.834-9.795c3.089-0.735,3.404,5.185,4.897,6.528c3.93,3.536,12.5,4.587,17.346,2.857
			c5.756-2.057,6.241-10.138,10.202-11.835c4.276-1.834,4.156,9.547,8.569,11.019c14.404,4.803,13.794-7.406,22.242-11.632
			c2.509-1.254,1.531,5.55,3.266,7.755c5.872,7.475,17.041,1.652,22.444-3.47c2.004-1.896,2.313-2.657,3.267,0.612
			c0.521,1.792,1.33,11.933,0,13.264c-1.778,1.779-10.762,2.792-11.631,2.856c-18.281,1.38-163.411,2.572-167.733-6.938"/>
	</g>
</g>
</svg>
