<?xml version="1.0" encoding="utf-8"?>
<!-- Generator: Adobe Illustrator 16.0.0, SVG Export Plug-In . SVG Version: 6.00 Build 0)  -->
<!DOCTYPE svg PUBLIC "-//W3C//DTD SVG 1.1//EN" "http://www.w3.org/Graphics/SVG/1.1/DTD/svg11.dtd">
<svg version="1.1" id="Version_1.0" xmlns="http://www.w3.org/2000/svg" xmlns:xlink="http://www.w3.org/1999/xlink" x="0px" y="0px"
	 width="612px" height="792px" viewBox="0 0 612 792" enable-background="new 0 0 612 792" xml:space="preserve">
<g id="octagon" display="none">
	<g id="outFrame" display="inline">
		<line fill="none" stroke="#0000FF" stroke-width="2" x1="220" y1="309.5" x2="306" y2="273"/>
		<line fill="none" stroke="#0000FF" stroke-width="2" x1="306" y1="273" x2="390.5" y2="309.5"/>
		<line fill="none" stroke="#0000FF" stroke-width="2" x1="390.5" y1="309.5" x2="427" y2="396"/>
		<line fill="none" stroke="#0000FF" stroke-width="2" x1="427" y1="396" x2="390.5" y2="482.5"/>
		<line fill="none" stroke="#0000FF" stroke-width="2" x1="390.5" y1="482.5" x2="306" y2="516"/>
		<line fill="none" stroke="#0000FF" stroke-width="2" x1="306" y1="516" x2="220" y2="482.5"/>
		<line fill="none" stroke="#0000FF" stroke-width="2" x1="220" y1="482.5" x2="183" y2="396"/>
		<line fill="none" stroke="#0000FF" stroke-width="2" x1="183" y1="396" x2="220" y2="309.5"/>
	</g>
	
		<line id="mod2_1_" display="inline" fill="none" stroke="#0000FF" stroke-width="2" x1="203.966" y1="445.015" x2="406.199" y2="445.295"/>
	
		<line id="mod1_1_" display="inline" fill="none" stroke="#0000FF" stroke-width="2" x1="203.966" y1="346.985" x2="406.199" y2="346.705"/>
</g>
<g id="main">
	<path id="_65373472" d="M216.92,465.12l52.36,1.53v-4.761l-44.54-1.699L255,366.52h98.43l30.09,93.67l-44.369,1.699v4.761
		l52.359-1.53c-3.229-15.98-12.75-36.55-17.51-54.061c-3.06-7.989-12.75-50.83-20.57-50.83H255c-7.99,0-17.51,42.84-20.57,50.83
		C229.5,428.57,219.98,449.14,216.92,465.12L216.92,465.12z"/>
	<path id="_64119160" d="M286.62,461.89v4.761c0,7.989,7.99,15.81,15.81,15.81h3.23c7.99,0,15.81-7.99,15.81-15.81v-4.761
		c0-7.989-7.989-15.81-15.81-15.81h-3.06C294.61,445.91,286.62,453.9,286.62,461.89z"/>
	<line fill="none" stroke="#000000" stroke-width="5" x1="270.47" y1="354.45" x2="250.58" y2="309.57"/>
	<line fill="none" stroke="#000000" stroke-width="5" x1="304.13" y1="354.45" x2="304.13" y2="309.57"/>
	<line fill="none" stroke="#000000" stroke-width="5" x1="335.75" y1="354.45" x2="361.76" y2="309.57"/>
</g>
</svg>
