<?xml version="1.0" encoding="utf-8"?>
<!-- Generator: Adobe Illustrator 16.0.0, SVG Export Plug-In . SVG Version: 6.00 Build 0)  -->
<!DOCTYPE svg PUBLIC "-//W3C//DTD SVG 1.1//EN" "http://www.w3.org/Graphics/SVG/1.1/DTD/svg11.dtd">
<svg version="1.1" id="Version_1.0" xmlns="http://www.w3.org/2000/svg" xmlns:xlink="http://www.w3.org/1999/xlink" x="0px" y="0px"
	 width="612px" height="792px" viewBox="0 0 612 792" enable-background="new 0 0 612 792" xml:space="preserve">
<g id="octagon" display="none">
	<g id="outFrame" display="inline">
		<line fill="none" stroke="#0000FF" stroke-width="2" x1="220" y1="309.5" x2="306" y2="273"/>
		<line fill="none" stroke="#0000FF" stroke-width="2" x1="306" y1="273" x2="390.5" y2="309.5"/>
		<line fill="none" stroke="#0000FF" stroke-width="2" x1="390.5" y1="309.5" x2="427" y2="396"/>
		<line fill="none" stroke="#0000FF" stroke-width="2" x1="427" y1="396" x2="390.5" y2="482.5"/>
		<line fill="none" stroke="#0000FF" stroke-width="2" x1="390.5" y1="482.5" x2="306" y2="516"/>
		<line fill="none" stroke="#0000FF" stroke-width="2" x1="306" y1="516" x2="220" y2="482.5"/>
		<line fill="none" stroke="#0000FF" stroke-width="2" x1="220" y1="482.5" x2="183" y2="396"/>
		<line fill="none" stroke="#0000FF" stroke-width="2" x1="183" y1="396" x2="220" y2="309.5"/>
	</g>
	
		<line id="mod2_1_" display="inline" fill="none" stroke="#0000FF" stroke-width="2" x1="203.966" y1="445.015" x2="406.199" y2="445.295"/>
	
		<line id="mod1_1_" display="inline" fill="none" stroke="#0000FF" stroke-width="2" x1="203.966" y1="346.985" x2="406.199" y2="346.705"/>
</g>
<g id="main">
	<path id="_119733392" d="M284,390.56c3.36,4.96,12.48,7.36,20.64,7.36c1.919,0,3.52-1.12,4.8-1.76
		C304.32,388.8,294.24,389.76,284,390.56z"/>
	<path id="_65792248" d="M260.32,395.36c2.88,4.48,14.72,10.4,21.92,10.4c2.4,0,4-2.08,4.8-3.68c-2.24-3.2-7.36-6.88-11.68-7.68
		C266.08,392.32,268,394.72,260.32,395.36L260.32,395.36z"/>
	<path id="_65581296" d="M372.96,410.56H376c-0.48-6.399-12.8-7.04-13.44-13.439l-5.439,0.8c0.479,3.68,2.72,7.36,5.92,8.64
		c2.24,0.801,3.68,0,5.76,1.601C369.76,408.8,371.52,410.56,372.96,410.56z"/>
	<path id="_65580432" d="M349.12,349.12c1.439,2.88,1.439,4.16,3.84,6.56c1.6,1.76,4.48,3.04,4.8,5.6
		c-4.96-0.32-10.56-8.32-11.04-13.28c-5.279-1.28-20.96-8.96-27.359-11.68c-7.841-3.2-20.8-6.72-31.68-6.72h-5.6
		c-9.92,0-22.4,6.24-28.32,10.56c-7.52,5.6-12.96,13.12-12.96,26.08V368c-11.52,2.72-29.28,21.12-29.28,34.72v6.08
		c0,15.521,19.36,25.12,29.6,31.84c6.24,4.16,11.68,8.32,17.6,12.801c5.44,4.159,11.68,10.399,16.8,13.76
		c-5.28-22.561-56-31.681-56-62.72c0-11.36,12.16-23.36,21.28-25.601c-0.32,1.44-0.64,1.44-0.64,3.2v1.28
		c0,11.2,19.52,10.24,28.8,7.52c12.64-3.68,20.16-5.6,33.92-2.88c13.44,2.72,20.8,3.84,31.68,9.12c9.28,4.64,5.12,3.04,10.561,9.6
		c2.72,3.2,2.399,2.721,7.2,3.2c2.08,0.32,4.479,2.561,6.08,3.68h4.319c-3.359-6.399-12.319-7.199-14.08-14.56
		c1.92-3.84,4.16-4.32,9.761-4.32c2.08,0,2.399,0.48,4.319,0.64c-0.64-1.44-1.6-4.32,1.28-4.32h4.8c11.36,0,22.4,6.24,31.681,0
		c0-7.52,1.119-5.6-2.24-12.32c-1.28-2.08-5.28-6.72-6.88-8.479c-4-3.84-14.24-10.24-16.641-13.76c0-7.04-0.96-8.48-6.72-9.76
		l-1.28,2.4l1.28,6.72l-2.4,0.8v2.24h-1.92c-0.479-5.92-2.88-14.56-9.12-14.56h-0.479C349.6,344.32,350.24,346.72,349.12,349.12z"/>
</g>
</svg>
