<?xml version="1.0" encoding="utf-8"?>
<!-- Generator: Adobe Illustrator 16.0.0, SVG Export Plug-In . SVG Version: 6.00 Build 0)  -->
<!DOCTYPE svg PUBLIC "-//W3C//DTD SVG 1.1//EN" "http://www.w3.org/Graphics/SVG/1.1/DTD/svg11.dtd">
<svg version="1.1" id="Version_1.0" xmlns="http://www.w3.org/2000/svg" xmlns:xlink="http://www.w3.org/1999/xlink" x="0px"
	 y="0px" width="612px" height="792px" viewBox="0 0 612 792" enable-background="new 0 0 612 792" xml:space="preserve">
<g id="octagon" display="none">
	<g id="outFrame" display="inline">
		<line fill="none" stroke="#0000FF" stroke-width="2" x1="220" y1="309.5" x2="306" y2="273"/>
		<line fill="none" stroke="#0000FF" stroke-width="2" x1="306" y1="273" x2="390.5" y2="309.5"/>
		<line fill="none" stroke="#0000FF" stroke-width="2" x1="390.5" y1="309.5" x2="427" y2="396"/>
		<line fill="none" stroke="#0000FF" stroke-width="2" x1="427" y1="396" x2="390.5" y2="482.5"/>
		<line fill="none" stroke="#0000FF" stroke-width="2" x1="390.5" y1="482.5" x2="306" y2="516"/>
		<line fill="none" stroke="#0000FF" stroke-width="2" x1="306" y1="516" x2="220" y2="482.5"/>
		<line fill="none" stroke="#0000FF" stroke-width="2" x1="220" y1="482.5" x2="183" y2="396"/>
		<line fill="none" stroke="#0000FF" stroke-width="2" x1="183" y1="396" x2="220" y2="309.5"/>
	</g>
	
		<line id="mod2_1_" display="inline" fill="none" stroke="#0000FF" stroke-width="2" x1="203.966" y1="445.015" x2="406.199" y2="445.295"/>
	
		<line id="mod1_1_" display="inline" fill="none" stroke="#0000FF" stroke-width="2" x1="203.966" y1="346.985" x2="406.199" y2="346.705"/>
</g>
<g id="mod1">
	<path stroke="#000000" stroke-width="4" stroke-miterlimit="10" d="M339.765,295.867c1.183,0.15,1.171,1.5,2.36,1.65
		c-8.76,10.58-22.25,16.45-34.48,23.57c7.32,3.94,14.541,7.96,21.963,11.79c1.697-2.32,3.5-4.53,5.197-6.84
		c1.063,0.2,1.303,1.22,2.36,1.41c-1.31,2.7-3.57,4.45-4.96,7.08c3.4,1.55,6.6,3.31,9.68,5.18c-0.55,0.71-0.93,1.58-1.42,2.36
		c-3.49-1.7-6.779-3.6-10.148-5.42c-1.552,2.3-3.352,4.35-4.96,6.6c-1.149-0.27-1.979-0.85-2.36-1.89
		c1.671-1.95,3.181-4.06,4.721-6.13c-7.857-4.09-15.471-8.43-23.37-12.49c-6.42,3.81-13.42,7.03-19.6,11.08
		c1.12,2.26,2.68,4.08,3.78,6.36c-0.58,0.76-1.66,1.02-2.36,1.65c-1.51-2.18-2.49-4.9-4.49-6.6c-3.24,1.72-6.27,3.64-9.68,5.19
		c-0.52-0.82-1.12-1.56-1.42-2.59c3.38-1.66,6.77-3.3,9.68-5.43c-1.16-2.22-2.71-4.05-3.77-6.36c0.77-0.56,1.43-1.24,2.59-1.41
		c1.28,2.26,2.34,4.73,4.25,6.36c5.91-3.45,12.32-6.4,17.95-10.14c-11.32-6.46-24.58-10.97-31.4-21.92c1.13-0.2,1.69-0.98,2.83-1.18
		c3.83,7.02,12.2,10.77,18.65,14.38c-1.06-1.97-1.88-3.79-2.12-6.13c-1.77-17.2,18.412-22.69,27.623-12.96
		c3.639,3.84,5.76,10.67,2.84,17.91C327.494,307.037,334.045,301.867,339.765,295.867z M318.275,304.347
		c0.229-18.07-27.413-16.82-26.21,0.71c0.43,6.27,5.11,10.88,11.1,11.79c4.79,0.72,8.771-0.98,11.329-3.54
		C315.475,312.327,318.234,307.697,318.275,304.347z"/>
</g>
</svg>
