<?xml version="1.0" encoding="utf-8"?>
<!-- Generator: Adobe Illustrator 16.0.0, SVG Export Plug-In . SVG Version: 6.00 Build 0)  -->
<!DOCTYPE svg PUBLIC "-//W3C//DTD SVG 1.1//EN" "http://www.w3.org/Graphics/SVG/1.1/DTD/svg11.dtd">
<svg version="1.1" id="Version_1.0" xmlns="http://www.w3.org/2000/svg" xmlns:xlink="http://www.w3.org/1999/xlink" x="0px" y="0px"
	 width="612px" height="792px" viewBox="0 0 612 792" enable-background="new 0 0 612 792" xml:space="preserve">
<g id="octagon" display="none">
	
		<line id="mod2_1_" display="inline" fill="none" stroke="#0000FF" stroke-width="2" x1="203.966" y1="445.015" x2="406.199" y2="445.295"/>
	
		<line id="mod1_1_" display="inline" fill="none" stroke="#0000FF" stroke-width="2" x1="203.966" y1="346.985" x2="406.199" y2="346.705"/>
	<g id="outFrame" display="inline">
		<line fill="none" stroke="#0000FF" stroke-width="2" x1="220" y1="309.5" x2="306" y2="273"/>
		<line fill="none" stroke="#0000FF" stroke-width="2" x1="306" y1="273" x2="390.5" y2="309.5"/>
		<line fill="none" stroke="#0000FF" stroke-width="2" x1="390.5" y1="309.5" x2="427" y2="396"/>
		<line fill="none" stroke="#0000FF" stroke-width="2" x1="427" y1="396" x2="390.5" y2="482.5"/>
		<line fill="none" stroke="#0000FF" stroke-width="2" x1="390.5" y1="482.5" x2="306" y2="516"/>
		<line fill="none" stroke="#0000FF" stroke-width="2" x1="306" y1="516" x2="220" y2="482.5"/>
		<line fill="none" stroke="#0000FF" stroke-width="2" x1="220" y1="482.5" x2="183" y2="396"/>
		<line fill="none" stroke="#0000FF" stroke-width="2" x1="183" y1="396" x2="220" y2="309.5"/>
	</g>
</g>
<g id="main">
	<g id="Satellite">
		<rect x="220.813" y="377.35" width="62.496" height="37.299"/>
		<rect x="290.578" y="377.349" width="28.683" height="37.3"/>
		<rect x="326.53" y="377.349" width="62.497" height="37.3"/>
		<line fill="none" stroke="#000000" stroke-width="5" x1="282.543" y1="396" x2="328.05" y2="396"/>
	</g>
	<g id="Mini">
		<polyline fill="#FFFFFF" stroke="#000000" stroke-width="5" points="284.728,440.999 306.005,419.731 327.273,441.008 		"/>
		<polyline fill="#FFFFFF" stroke="#000000" stroke-width="5" points="326.192,350.759 304.915,372.026 283.646,350.75 		"/>
		<polyline fill="#FFFFFF" stroke="#000000" stroke-width="5" points="195.55,374.727 216.818,396.004 195.542,417.273 		"/>
		<polyline fill="#FFFFFF" stroke="#000000" stroke-width="5" points="414.296,417.273 393.027,395.996 414.305,374.727 		"/>
	</g>
</g>
</svg>
