<?xml version="1.0" encoding="utf-8"?>
<!-- Generator: Adobe Illustrator 16.0.0, SVG Export Plug-In . SVG Version: 6.00 Build 0)  -->
<!DOCTYPE svg PUBLIC "-//W3C//DTD SVG 1.1//EN" "http://www.w3.org/Graphics/SVG/1.1/DTD/svg11.dtd">
<svg version="1.1" id="Version_1.0" xmlns="http://www.w3.org/2000/svg" xmlns:xlink="http://www.w3.org/1999/xlink" x="0px"
	 y="0px" width="612px" height="792px" viewBox="0 0 612 792" enable-background="new 0 0 612 792" xml:space="preserve">
<g id="octagon" display="none">
	
		<line id="mod2_1_" display="inline" fill="none" stroke="#0000FF" stroke-width="2" x1="203.966" y1="445.015" x2="406.199" y2="445.295"/>
	
		<line id="mod1_1_" display="inline" fill="none" stroke="#0000FF" stroke-width="2" x1="203.966" y1="346.985" x2="406.199" y2="346.705"/>
	<g id="outFrame" display="inline">
		<line fill="none" stroke="#0000FF" stroke-width="2" x1="220" y1="309.5" x2="306" y2="273"/>
		<line fill="none" stroke="#0000FF" stroke-width="2" x1="306" y1="273" x2="390.5" y2="309.5"/>
		<line fill="none" stroke="#0000FF" stroke-width="2" x1="390.5" y1="309.5" x2="427" y2="396"/>
		<line fill="none" stroke="#0000FF" stroke-width="2" x1="427" y1="396" x2="390.5" y2="482.5"/>
		<line fill="none" stroke="#0000FF" stroke-width="2" x1="390.5" y1="482.5" x2="306" y2="516"/>
		<line fill="none" stroke="#0000FF" stroke-width="2" x1="306" y1="516" x2="220" y2="482.5"/>
		<line fill="none" stroke="#0000FF" stroke-width="2" x1="220" y1="482.5" x2="183" y2="396"/>
		<line fill="none" stroke="#0000FF" stroke-width="2" x1="183" y1="396" x2="220" y2="309.5"/>
	</g>
</g>
<g id="main">
	<path fill="none" stroke="#000000" stroke-width="5" d="M296.712,373.506"/>
	<g id="Astro">
		<polyline fill="#FFFFFF" stroke="#000000" stroke-width="5" points="311.171,417.834 310.081,441.143 300.228,441.143 
			299.016,417.833 		"/>
		<polyline fill="#FFFFFF" stroke="#000000" stroke-width="5" points="296.712,373.506 295.534,350.856 314.305,350.856 
			313.215,374.154 		"/>
	</g>
	<g id="Satellite">
		<rect x="198.274" y="372.353" fill="#FFFFFF" stroke="#000000" stroke-width="5" width="79.243" height="47.295"/>
		<rect x="286.734" y="372.352" fill="#FFFFFF" stroke="#000000" stroke-width="5" width="36.37" height="47.296"/>
		<rect x="332.321" y="372.352" fill="#FFFFFF" stroke="#000000" stroke-width="5" width="79.245" height="47.296"/>
		<line fill="none" stroke="#000000" stroke-width="5" x1="323.104" y1="396" x2="334.248" y2="396"/>
		<line fill="none" stroke="#000000" stroke-width="5" x1="276.546" y1="396" x2="287.5" y2="396"/>
	</g>
</g>
</svg>
