<?xml version="1.0" encoding="utf-8"?>
<!-- Generator: Adobe Illustrator 16.0.0, SVG Export Plug-In . SVG Version: 6.00 Build 0)  -->
<!DOCTYPE svg PUBLIC "-//W3C//DTD SVG 1.1//EN" "http://www.w3.org/Graphics/SVG/1.1/DTD/svg11.dtd">
<svg version="1.1" id="Version_1.0" xmlns="http://www.w3.org/2000/svg" xmlns:xlink="http://www.w3.org/1999/xlink" x="0px"
	 y="0px" width="612px" height="792px" viewBox="0 0 612 792" enable-background="new 0 0 612 792" xml:space="preserve">
<g id="octagon" display="none">
	
		<line id="mod2_1_" display="inline" fill="none" stroke="#0000FF" stroke-width="2" x1="203.966" y1="445.015" x2="406.199" y2="445.295"/>
	
		<line id="mod1_1_" display="inline" fill="none" stroke="#0000FF" stroke-width="2" x1="203.966" y1="346.985" x2="406.199" y2="346.705"/>
	<g id="outFrame" display="inline">
		<line fill="none" stroke="#0000FF" stroke-width="2" x1="220" y1="309.5" x2="306" y2="273"/>
		<line fill="none" stroke="#0000FF" stroke-width="2" x1="306" y1="273" x2="390.5" y2="309.5"/>
		<line fill="none" stroke="#0000FF" stroke-width="2" x1="390.5" y1="309.5" x2="427" y2="396"/>
		<line fill="none" stroke="#0000FF" stroke-width="2" x1="427" y1="396" x2="390.5" y2="482.5"/>
		<line fill="none" stroke="#0000FF" stroke-width="2" x1="390.5" y1="482.5" x2="306" y2="516"/>
		<line fill="none" stroke="#0000FF" stroke-width="2" x1="306" y1="516" x2="220" y2="482.5"/>
		<line fill="none" stroke="#0000FF" stroke-width="2" x1="220" y1="482.5" x2="183" y2="396"/>
		<line fill="none" stroke="#0000FF" stroke-width="2" x1="183" y1="396" x2="220" y2="309.5"/>
	</g>
</g>
<g id="main">
	<g id="Satellite">
		<rect x="207.019" y="397.292" fill="#FFFFFF" stroke="#000000" stroke-width="5" width="72.745" height="43.418"/>
		<rect x="288.226" y="397.292" fill="#FFFFFF" stroke="#000000" stroke-width="5" width="33.387" height="43.418"/>
		<rect x="330.074" y="397.292" fill="#FFFFFF" stroke="#000000" stroke-width="5" width="72.746" height="43.418"/>
		<line fill="none" stroke="#000000" stroke-width="5" x1="320.37" y1="419" x2="331.843" y2="419"/>
		<line fill="none" stroke="#000000" stroke-width="5" x1="278.872" y1="419" x2="288.699" y2="419"/>
	</g>
	<g id="tehered">
		<circle fill="#FFFFFF" stroke="#000000" stroke-width="5" cx="366.447" cy="367.796" r="17.019"/>
		<line fill="none" stroke="#000000" stroke-width="5" x1="309.5" y1="396.864" x2="349.429" y2="376.167"/>
	</g>
</g>
</svg>
