<?xml version="1.0" encoding="utf-8"?>
<!-- Generator: Adobe Illustrator 16.0.0, SVG Export Plug-In . SVG Version: 6.00 Build 0)  -->
<!DOCTYPE svg PUBLIC "-//W3C//DTD SVG 1.1//EN" "http://www.w3.org/Graphics/SVG/1.1/DTD/svg11.dtd">
<svg version="1.1" id="Version_1.0" xmlns="http://www.w3.org/2000/svg" xmlns:xlink="http://www.w3.org/1999/xlink" x="0px" y="0px"
	 width="612px" height="792px" viewBox="0 0 612 792" enable-background="new 0 0 612 792" xml:space="preserve">
<g id="octagon" display="none">
	<g id="outFrame" display="inline">
		<line fill="none" stroke="#0000FF" stroke-width="2" x1="220" y1="479.5" x2="183.5" y2="393.5"/>
		<line fill="none" stroke="#0000FF" stroke-width="2" x1="183.5" y1="393.5" x2="220" y2="309"/>
		<line fill="none" stroke="#0000FF" stroke-width="2" x1="220" y1="309" x2="306.5" y2="272.5"/>
		<line fill="none" stroke="#0000FF" stroke-width="2" x1="306.5" y1="272.5" x2="393" y2="309"/>
		<line fill="none" stroke="#0000FF" stroke-width="2" x1="393" y1="309" x2="426.5" y2="393.5"/>
		<line fill="none" stroke="#0000FF" stroke-width="2" x1="426.5" y1="393.5" x2="393" y2="479.5"/>
		<line fill="none" stroke="#0000FF" stroke-width="2" x1="393" y1="479.5" x2="306.5" y2="516.5"/>
		<line fill="none" stroke="#0000FF" stroke-width="2" x1="306.5" y1="516.5" x2="220" y2="479.5"/>
	</g>
	
		<line id="mod2_1_" display="inline" fill="none" stroke="#0000FF" stroke-width="2" x1="355.515" y1="495.534" x2="355.795" y2="293.301"/>
	
		<line id="mod1_1_" display="inline" fill="none" stroke="#0000FF" stroke-width="2" x1="257.485" y1="495.534" x2="257.205" y2="293.301"/>
</g>
<g id="main">
	<polygon fill="#E6E65C" stroke="#000000" stroke-width="10" points="324.043,437.925 337.383,450.81 337.383,487.167 
		306.826,457.561 277.201,487.167 277.201,450.503 290.229,437.925 289.919,313.205 306.671,284.167 324.043,313.205 	"/>
</g>
</svg>
