<?xml version="1.0" encoding="utf-8"?>
<!-- Generator: Adobe Illustrator 16.0.0, SVG Export Plug-In . SVG Version: 6.00 Build 0)  -->
<!DOCTYPE svg PUBLIC "-//W3C//DTD SVG 1.1//EN" "http://www.w3.org/Graphics/SVG/1.1/DTD/svg11.dtd">
<svg version="1.1" id="Version_1.0" xmlns="http://www.w3.org/2000/svg" xmlns:xlink="http://www.w3.org/1999/xlink" x="0px"
	 y="0px" width="400px" height="400px" viewBox="0 0 400 400" enable-background="new 0 0 400 400" xml:space="preserve">
<g id="main" transform="translate(-60 -30) scale(1 1)">
	<ellipse fill="#FFFFFF" stroke="#00A651" stroke-width="5" cx="264.063" cy="245.5" rx="162.003" ry="104.5"/>
	<g>
		<rect x="251.063" y="333" fill="#FFFFFF" stroke="#FFFFFF" width="30" height="26"/>
		<text transform="matrix(1 0 0 1 257.063 354)" fill="#00A651" font-family="'ArialMT'" font-size="24">M</text>
	</g>
	<g>
		<rect x="88.063" y="225" fill="#FFFFFF" stroke="#FFFFFF" width="30" height="26"/>
		<text transform="matrix(1 0 0 1 94.063 246)" fill="#00A651" font-family="'ArialMT'" font-size="24">M</text>
	</g>
	<g>
		<rect x="411.063" y="225" fill="#FFFFFF" stroke="#FFFFFF" width="30" height="26"/>
		<text transform="matrix(1 0 0 1 417.0625 246)" fill="#00A651" font-family="'ArialMT'" font-size="24">M</text>
	</g>
	<g>
		<rect x="251.063" y="127" fill="#FFFFFF" stroke="#FFFFFF" width="30" height="26"/>
		<text transform="matrix(1 0 0 1 257.063 148)" fill="#00A651" font-family="'ArialMT'" font-size="24">M</text>
	</g>
	<g>
		
			<rect x="110.056" y="282.999" transform="matrix(-0.8663 -0.4995 0.4995 -0.8663 86.1521 620.0538)" fill="#FFFFFF" stroke="#FFFFFF" width="31.998" height="30.998"/>
		
			<text transform="matrix(0.8133 0.5818 -0.5818 0.8133 112.4858 300.3916)" fill="#00A651" font-family="'ArialMT'" font-size="24">X</text>
	</g>
	<g>
		
			<rect x="206.079" y="329.996" transform="matrix(-0.994 -0.1092 0.1092 -0.994 405.0974 713.1746)" fill="#FFFFFF" stroke="#FFFFFF" width="31.997" height="30.997"/>
		
			<text transform="matrix(0.9983 0.0576 -0.0576 0.9983 213.1104 352.8242)" fill="#00A651" font-family="'ArialMT'" font-size="23.994">X</text>
	</g>
	<g>
		
			<rect x="157.08" y="312.994" transform="matrix(-0.9295 -0.3689 0.3689 -0.9295 212.7742 697.6757)" fill="#FFFFFF" stroke="#FFFFFF" width="32.007" height="31.006"/>
		
			<text transform="matrix(0.9295 0.3689 -0.3689 0.9295 162.1226 333.3789)" fill="#00A651" font-family="'ArialMT'" font-size="24">X</text>
	</g>
	<g>
		
			<rect x="105.065" y="177.997" transform="matrix(-0.9295 -0.3689 0.3689 -0.9295 162.2166 418.0128)" fill="#FFFFFF" stroke="#FFFFFF" width="32.006" height="31.006"/>
		
			<text transform="matrix(0.5507 -0.8347 0.8347 0.5507 124.7559 206.3833)" fill="#00A651" font-family="'ArialMT'" font-size="24">X</text>
	</g>
	<g>
		
			<rect x="201.071" y="129.988" transform="matrix(-0.9295 -0.3689 0.3689 -0.9295 365.1687 360.7991)" fill="#FFFFFF" stroke="#FFFFFF" width="32.007" height="31.006"/>
		<text transform="matrix(0.977 -0.2131 0.2131 0.977 206.5986 157.1572)" fill="#00A651" font-family="'ArialMT'" font-size="24">X</text>
	</g>
	<g>
		
			<rect x="295.061" y="127.996" transform="matrix(-0.9295 -0.3689 0.3689 -0.9295 547.2562 391.6258)" fill="#FFFFFF" stroke="#FFFFFF" width="32.006" height="31.006"/>
		
			<text transform="matrix(0.9815 0.1915 -0.1915 0.9815 301.1797 151.4297)" fill="#00A651" font-family="'ArialMT'" font-size="24">X</text>
	</g>
	<g>
		
			<rect x="387.071" y="177.986" transform="matrix(-0.9295 -0.3689 0.3689 -0.9295 706.3453 522.0217)" fill="#FFFFFF" stroke="#FFFFFF" width="32.007" height="31.006"/>
		
			<text transform="matrix(0.6936 0.7204 -0.7204 0.6936 389.4434 193.1025)" fill="#00A651" font-family="'ArialMT'" font-size="24">X</text>
	</g>
	<g>
		
			<rect x="400.067" y="257.991" transform="matrix(-0.9295 -0.3689 0.3689 -0.9295 701.9089 681.1842)" fill="#FFFFFF" stroke="#FFFFFF" width="32.006" height="31.007"/>
		
			<text transform="matrix(0.5218 -0.853 0.853 0.5218 420.1777 287.3154)" fill="#00A651" font-family="'ArialMT'" font-size="23.9916">X</text>
	</g>
	<g>
		
			<rect x="361.062" y="298.996" transform="matrix(-0.9295 -0.3689 0.3689 -0.9295 611.5294 745.9111)" fill="#FFFFFF" stroke="#FFFFFF" width="32.009" height="31.006"/>
		
			<text transform="matrix(0.7759 -0.6308 0.6308 0.7759 379.9551 328.3672)" fill="#00A651" font-family="'ArialMT'" font-size="23.9952">X</text>
	</g>
	<g>
		
			<rect x="305.056" y="328.999" transform="matrix(-0.9295 -0.3689 0.3689 -0.9295 492.3941 783.14)" fill="#FFFFFF" stroke="#FFFFFF" width="32.006" height="31.003"/>
		
			<text transform="matrix(0.9363 -0.3513 0.3513 0.9363 316.1309 351.0986)" fill="#00A651" font-family="'ArialMT'" font-size="24.0026">X</text>
	</g>
	<g id="varN_2_" transform="translate(19 108)">
		<rect x="137.063" y="38" fill="#FFFFFF" width="24" height="26"/>
		<text id="varNe" transform="matrix(1 0 0 1 139.063 60)" fill="#00A651" font-family="'ArialMT'" font-size="24">X</text>
	</g>
	<g id="varN_3_" transform="translate(105 -104)">
		<rect x="245.063" y="253" fill="#FFFFFF" width="24.003" height="26"/>
		<text id="varNe_1_" transform="matrix(1 0 0 1 247.0625 275)" fill="#00A651" font-family="'ArialMT'" font-size="24">X</text>
	</g>
</g>
<g id="template" display="none">
	<g id="varN_1_" transform="translate(105 -104)" display="inline">
		<rect x="185.063" y="223" fill="#FFFFFF" stroke="#000000" stroke-width="2" width="24.003" height="26"/>
		<text transform="matrix(1 0 0 1 187.0625 245)" font-family="'ArialMT'" font-size="24">N</text>
	</g>
	<g id="varN" transform="translate(19 108)" display="inline">
		<rect x="77.063" y="8" fill="#FFFFFF" stroke="#000000" stroke-width="2" width="24" height="26"/>
		<text transform="matrix(1 0 0 1 79.063 30)" font-family="'ArialMT'" font-size="24">N</text>
	</g>
	<g id="mod1" transform="translate(19 108)" display="inline">
		<rect x="109.029" y="77" fill="#FFFFFF" stroke="#000000" stroke-width="2" width="148.471" height="45"/>
		<text transform="matrix(1 0 0 1 132.1084 106.5)" font-family="'ArialMT'" font-size="24">Modifier 1</text>
	</g>
</g>
<g id="example">
	<g id="varAe">
		<path fill="#00A651" d="M279.135,186.932c-14.801,0-26.799,10.968-26.799,24.5c0,13.531,11.998,24.5,26.799,24.5
			c14.805,0,26.803-10.969,26.803-24.5C305.938,197.9,293.938,186.932,279.135,186.932L279.135,186.932z"/>
		<path fill="#00A651" d="M128.231,186.932c-14.803,0-26.8,10.968-26.8,24.5c0,13.531,11.998,24.5,26.8,24.5
			c14.802,0,26.802-10.969,26.802-24.5C155.033,197.9,143.034,186.932,128.231,186.932L128.231,186.932z"/>
		<path fill="#00A651" d="M202.686,186.932c-14.806,0-26.803,10.968-26.803,24.5c0,13.531,11.998,24.5,26.803,24.5
			c14.801,0,26.799-10.969,26.799-24.5C229.482,197.9,217.484,186.932,202.686,186.932L202.686,186.932z"/>
	</g>
</g>
</svg>
