<?xml version="1.0" encoding="utf-8"?>
<!-- Generator: Adobe Illustrator 14.0.0, SVG Export Plug-In . SVG Version: 6.00 Build 43363)  -->
<!DOCTYPE svg PUBLIC "-//W3C//DTD SVG 1.1//EN" "http://www.w3.org/Graphics/SVG/1.1/DTD/svg11.dtd">
<svg version="1.1" id="Version_1.0" xmlns="http://www.w3.org/2000/svg" xmlns:xlink="http://www.w3.org/1999/xlink" x="0px" y="0px"
	 width="612px" height="792px" viewBox="0 0 612 792" enable-background="new 0 0 612 792" xml:space="preserve">
<g id="octagon" display="none">
	<g id="outFrame" display="inline">
		<line fill="none" stroke="#0000FF" stroke-width="2" x1="220" y1="309.5" x2="306" y2="273"/>
		<line fill="none" stroke="#0000FF" stroke-width="2" x1="306" y1="273" x2="390.5" y2="309.5"/>
		<line fill="none" stroke="#0000FF" stroke-width="2" x1="390.5" y1="309.5" x2="427" y2="396"/>
		<line fill="none" stroke="#0000FF" stroke-width="2" x1="427" y1="396" x2="390.5" y2="482.5"/>
		<line fill="none" stroke="#0000FF" stroke-width="2" x1="390.5" y1="482.5" x2="306" y2="516"/>
		<line fill="none" stroke="#0000FF" stroke-width="2" x1="306" y1="516" x2="220" y2="482.5"/>
		<polyline fill="none" stroke="#0000FF" stroke-width="2" points="220,482.5 183,396 220,309.5 		"/>
	</g>
	
		<line id="bottom" display="inline" fill="none" stroke="#0000FF" stroke-width="2" x1="203.966" y1="445.015" x2="406.199" y2="445.295"/>
	
		<line id="top" display="inline" fill="none" stroke="#0000FF" stroke-width="2" x1="203.966" y1="346.985" x2="406.199" y2="346.705"/>
</g>
<g id="main">
	<circle stroke="#000000" stroke-width="9.0495" cx="306.148" cy="385.65" r="35.221"/>
	<circle fill="none" stroke="#FFFFFF" stroke-width="6" cx="305.907" cy="385.869" r="13.376"/>
	<rect x="254.439" y="373.131" stroke="#000000" stroke-width="9.0495" width="16.193" height="25.039"/>
	<rect x="341.368" y="372.49" stroke="#000000" stroke-width="9.0495" width="16.193" height="25.039"/>
	<polygon stroke="#000000" stroke-width="9.0495" points="349.488,441.572 330.933,420.394 288.847,421.109 265.575,441.572 	"/>
</g>
</svg>
