<?xml version="1.0" encoding="utf-8"?>
<!-- Generator: Adobe Illustrator 14.0.0, SVG Export Plug-In . SVG Version: 6.00 Build 43363)  -->
<!DOCTYPE svg PUBLIC "-//W3C//DTD SVG 1.1//EN" "http://www.w3.org/Graphics/SVG/1.1/DTD/svg11.dtd">
<svg version="1.1" id="Version_1.0" xmlns="http://www.w3.org/2000/svg" xmlns:xlink="http://www.w3.org/1999/xlink" x="0px" y="0px"
	 width="612px" height="792px" viewBox="0 0 612 792" enable-background="new 0 0 612 792" xml:space="preserve">
<g id="octagon" display="none">
	<g id="outFrame" display="inline">
		<line fill="none" stroke="#0000FF" stroke-width="2" x1="220" y1="309.5" x2="306" y2="273"/>
		<line fill="none" stroke="#0000FF" stroke-width="2" x1="306" y1="273" x2="390.5" y2="309.5"/>
		<line fill="none" stroke="#0000FF" stroke-width="2" x1="390.5" y1="309.5" x2="427" y2="396"/>
		<line fill="none" stroke="#0000FF" stroke-width="2" x1="427" y1="396" x2="390.5" y2="482.5"/>
		<line fill="none" stroke="#0000FF" stroke-width="2" x1="390.5" y1="482.5" x2="306" y2="516"/>
		<line fill="none" stroke="#0000FF" stroke-width="2" x1="306" y1="516" x2="220" y2="482.5"/>
		<line fill="none" stroke="#0000FF" stroke-width="2" x1="220" y1="482.5" x2="183" y2="396"/>
		<line fill="none" stroke="#0000FF" stroke-width="2" x1="183" y1="396" x2="220" y2="309.5"/>
	</g>
	<line id="bottom" fill="none" stroke="#0000FF" stroke-width="2" x1="203.966" y1="445.015" x2="406.199" y2="445.295"/>
	<line id="top" fill="none" stroke="#0000FF" stroke-width="2" x1="203.966" y1="346.985" x2="406.199" y2="346.705"/>
</g>
<g id="main">
	<g>
		<line fill="none" stroke="#000000" stroke-width="10" x1="305" y1="452" x2="305" y2="487"/>
		<line fill="none" stroke="#000000" stroke-width="10" x1="240" y1="484" x2="370" y2="484"/>
	</g>
	<polygon stroke="#000000" stroke-width="10" points="285,322 285,287 325,287 325,322 	"/>
	<polygon stroke="#000000" stroke-width="10" points="247.769,354.107 223.028,329.35 251.322,301.075 276.063,325.833 	"/>
	<polygon stroke="#000000" stroke-width="10" points="333.28,325.788 357.977,300.987 386.32,329.212 361.623,354.013 	"/>
	<circle stroke="#000000" stroke-width="10" cx="305" cy="382" r="70"/>
	<g>
		<line fill="none" stroke="#FFFFFF" stroke-width="9.8293" x1="229.981" y1="307.445" x2="390.5" y2="479.5"/>
		<line fill="none" stroke="#FFFFFF" stroke-width="9.8293" x1="221.318" y1="479.5" x2="381.311" y2="308.131"/>
	</g>
</g>
</svg>
