<?xml version="1.0" encoding="utf-8"?>
<!-- Generator: Adobe Illustrator 14.0.0, SVG Export Plug-In . SVG Version: 6.00 Build 43363)  -->
<!DOCTYPE svg PUBLIC "-//W3C//DTD SVG 1.1//EN" "http://www.w3.org/Graphics/SVG/1.1/DTD/svg11.dtd">
<svg version="1.1" id="Version_1.0" xmlns="http://www.w3.org/2000/svg" xmlns:xlink="http://www.w3.org/1999/xlink" x="0px" y="0px"
	 width="612px" height="792px" viewBox="0 0 612 792" enable-background="new 0 0 612 792" xml:space="preserve">
<g id="octagon" display="none">
	<g id="outFrame" display="inline">
		<line fill="none" stroke="#0000FF" stroke-width="2" x1="220" y1="309.5" x2="306" y2="273"/>
		<line fill="none" stroke="#0000FF" stroke-width="2" x1="306" y1="273" x2="390.5" y2="309.5"/>
		<line fill="none" stroke="#0000FF" stroke-width="2" x1="390.5" y1="309.5" x2="427" y2="396"/>
		<line fill="none" stroke="#0000FF" stroke-width="2" x1="427" y1="396" x2="390.5" y2="482.5"/>
		<line fill="none" stroke="#0000FF" stroke-width="2" x1="390.5" y1="482.5" x2="306" y2="516"/>
		<line fill="none" stroke="#0000FF" stroke-width="2" x1="306" y1="516" x2="220" y2="482.5"/>
		<line fill="none" stroke="#0000FF" stroke-width="2" x1="220" y1="482.5" x2="183" y2="396"/>
		<line fill="none" stroke="#0000FF" stroke-width="2" x1="183" y1="396" x2="220" y2="309.5"/>
	</g>
	<line id="bottom" fill="none" stroke="#0000FF" stroke-width="2" x1="203.966" y1="445.015" x2="406.199" y2="445.295"/>
	<line id="top" fill="none" stroke="#0000FF" stroke-width="2" x1="203.966" y1="346.985" x2="406.199" y2="346.705"/>
</g>
<g id="main">
	<line fill="none" stroke="#000000" stroke-width="10" x1="306" y1="386" x2="306" y2="486"/>
	<line fill="none" stroke="#000000" stroke-width="10" x1="251" y1="489" x2="361" y2="489"/>
	<polygon stroke="#000000" stroke-width="10" points="286,326 286,291 326,291 326,326 	"/>
	<polygon stroke="#000000" stroke-width="10" points="248.769,358.107 224.028,333.35 252.322,305.075 277.063,329.833 	"/>
	<polygon stroke="#000000" stroke-width="10" points="334.28,329.788 358.977,304.987 387.32,333.212 362.623,358.013 	"/>
	<path stroke="#000000" stroke-width="10" d="M236,386c0-40,30-70,70-70s70,30,70,70H236z"/>
	<polygon stroke="#000000" stroke-width="10" points="376,456 341,431 376,406 	"/>
	<polygon stroke="#000000" stroke-width="10" points="326,456 291,431 326,406 	"/>
	<polygon stroke="#000000" stroke-width="10" points="276,456 241,431 276,406 	"/>
</g>
</svg>
