<?xml version="1.0" encoding="utf-8"?>
<!-- Generator: Adobe Illustrator 14.0.0, SVG Export Plug-In . SVG Version: 6.00 Build 43363)  -->
<!DOCTYPE svg PUBLIC "-//W3C//DTD SVG 1.1//EN" "http://www.w3.org/Graphics/SVG/1.1/DTD/svg11.dtd">
<svg version="1.1" id="Version_1.0" xmlns="http://www.w3.org/2000/svg" xmlns:xlink="http://www.w3.org/1999/xlink" x="0px" y="0px"
	 width="612px" height="792px" viewBox="0 0 612 792" enable-background="new 0 0 612 792" xml:space="preserve">
<g id="octagon" display="none">
	<g id="outFrame" display="inline">
		<line fill="none" stroke="#0000FF" stroke-width="2" x1="220" y1="309.5" x2="306" y2="273"/>
		<line fill="none" stroke="#0000FF" stroke-width="2" x1="306" y1="273" x2="390.5" y2="309.5"/>
		<line fill="none" stroke="#0000FF" stroke-width="2" x1="390.5" y1="309.5" x2="427" y2="396"/>
		<line fill="none" stroke="#0000FF" stroke-width="2" x1="427" y1="396" x2="390.5" y2="482.5"/>
		<line fill="none" stroke="#0000FF" stroke-width="2" x1="390.5" y1="482.5" x2="306" y2="516"/>
		<line fill="none" stroke="#0000FF" stroke-width="2" x1="306" y1="516" x2="220" y2="482.5"/>
		<line fill="none" stroke="#0000FF" stroke-width="2" x1="220" y1="482.5" x2="183" y2="396"/>
		<line fill="none" stroke="#0000FF" stroke-width="2" x1="183" y1="396" x2="220" y2="309.5"/>
	</g>
	<line id="bottom" fill="none" stroke="#0000FF" stroke-width="2" x1="203.966" y1="445.015" x2="406.199" y2="445.295"/>
	<line id="top" fill="none" stroke="#0000FF" stroke-width="2" x1="203.966" y1="346.985" x2="406.199" y2="346.705"/>
</g>
<g id="main">
	<polygon stroke="#000000" stroke-width="10" points="284.819,332.864 284.819,295.185 327.882,295.185 327.882,332.864 	"/>
	<polygon stroke="#000000" stroke-width="10" points="244.739,367.429 218.104,340.776 248.564,310.338 275.199,336.99 	"/>
	<polygon stroke="#000000" stroke-width="10" points="336.796,336.942 363.384,310.243 393.896,340.629 367.309,367.327 	"/>
	<path stroke="#000000" stroke-width="10" d="M230.992,397.457c0-43.062,32.298-75.358,75.358-75.358
		c43.063,0,75.359,32.297,75.359,75.358H230.992z"/>
	<polygon stroke="#000000" stroke-width="10" points="381.71,472.815 344.03,445.902 381.71,418.989 	"/>
	<polygon stroke="#000000" stroke-width="10" points="327.882,472.815 290.202,445.902 327.882,418.989 	"/>
	<polygon stroke="#000000" stroke-width="10" points="274.055,472.815 236.375,445.902 274.055,418.989 	"/>
</g>
</svg>
