<?xml version="1.0" encoding="utf-8"?>
<!-- Generator: Adobe Illustrator 14.0.0, SVG Export Plug-In . SVG Version: 6.00 Build 43363)  -->
<!DOCTYPE svg PUBLIC "-//W3C//DTD SVG 1.1//EN" "http://www.w3.org/Graphics/SVG/1.1/DTD/svg11.dtd">
<svg version="1.1" id="Version_1.0" xmlns="http://www.w3.org/2000/svg" xmlns:xlink="http://www.w3.org/1999/xlink" x="0px" y="0px"
	 width="612px" height="792px" viewBox="0 0 612 792" enable-background="new 0 0 612 792" xml:space="preserve">
<g id="octagon" display="none">
	<g id="outFrame" display="inline">
		<line fill="none" stroke="#0000FF" stroke-width="2" x1="220" y1="309.5" x2="306" y2="273"/>
		<line fill="none" stroke="#0000FF" stroke-width="2" x1="306" y1="273" x2="390.5" y2="309.5"/>
		<line fill="none" stroke="#0000FF" stroke-width="2" x1="390.5" y1="309.5" x2="427" y2="396"/>
		<line fill="none" stroke="#0000FF" stroke-width="2" x1="427" y1="396" x2="390.5" y2="482.5"/>
		<line fill="none" stroke="#0000FF" stroke-width="2" x1="390.5" y1="482.5" x2="306" y2="516"/>
		<line fill="none" stroke="#0000FF" stroke-width="2" x1="306" y1="516" x2="220" y2="482.5"/>
		<line fill="none" stroke="#0000FF" stroke-width="2" x1="220" y1="482.5" x2="183" y2="396"/>
		<line fill="none" stroke="#0000FF" stroke-width="2" x1="183" y1="396" x2="220" y2="309.5"/>
	</g>
	<line id="bottom" fill="none" stroke="#0000FF" stroke-width="2" x1="203.966" y1="445.015" x2="406.199" y2="445.295"/>
	<line id="top" fill="none" stroke="#0000FF" stroke-width="2" x1="203.966" y1="346.985" x2="406.199" y2="346.705"/>
</g>
<g id="main">
	<polygon stroke="#000000" stroke-width="10" points="286.891,326.809 286.891,293 325.529,293 325.529,326.809 	"/>
	<polygon stroke="#000000" stroke-width="10" points="250.927,357.823 227.028,333.908 254.359,306.596 278.258,330.511 	"/>
	<polygon stroke="#000000" stroke-width="10" points="333.528,330.468 357.384,306.511 384.764,333.776 360.906,357.732 	"/>
	<path stroke="#000000" stroke-width="10" d="M238.593,384.767c0-38.639,28.979-67.618,67.618-67.618
		c38.639,0,67.618,28.979,67.618,67.618H238.593L238.593,384.767z"/>
	<polygon stroke="#000000" stroke-width="10" points="373.828,452.385 340.02,428.235 373.828,404.086 	"/>
	<polygon stroke="#000000" stroke-width="10" points="325.529,452.385 291.721,428.235 325.529,404.086 	"/>
	<polygon stroke="#000000" stroke-width="10" points="277.231,452.385 243.422,428.235 277.231,404.086 	"/>
	<rect x="233.763" y="453.351" stroke="#000000" stroke-width="10" width="144.896" height="24.149"/>
</g>
</svg>
