<?xml version="1.0" encoding="utf-8"?>
<!-- Generator: Adobe Illustrator 16.0.0, SVG Export Plug-In . SVG Version: 6.00 Build 0)  -->
<!DOCTYPE svg PUBLIC "-//W3C//DTD SVG 1.1//EN" "http://www.w3.org/Graphics/SVG/1.1/DTD/svg11.dtd">
<svg version="1.1" id="Version_1.0" xmlns="http://www.w3.org/2000/svg" xmlns:xlink="http://www.w3.org/1999/xlink" x="0px"
	 y="0px" width="612px" height="792px" viewBox="0 0 612 792" enable-background="new 0 0 612 792" xml:space="preserve">
<g id="octagon" display="none">
	<g id="outFrame" display="inline">
		<line fill="none" stroke="#0000FF" stroke-width="2" x1="220" y1="309.5" x2="306" y2="273"/>
		<line fill="none" stroke="#0000FF" stroke-width="2" x1="306" y1="273" x2="390.5" y2="309.5"/>
		<line fill="none" stroke="#0000FF" stroke-width="2" x1="390.5" y1="309.5" x2="427" y2="396"/>
		<line fill="none" stroke="#0000FF" stroke-width="2" x1="427" y1="396" x2="390.5" y2="482.5"/>
		<line fill="none" stroke="#0000FF" stroke-width="2" x1="390.5" y1="482.5" x2="306" y2="516"/>
		<line fill="none" stroke="#0000FF" stroke-width="2" x1="306" y1="516" x2="220" y2="482.5"/>
		<line fill="none" stroke="#0000FF" stroke-width="2" x1="220" y1="482.5" x2="183" y2="396"/>
		<line fill="none" stroke="#0000FF" stroke-width="2" x1="183" y1="396" x2="220" y2="309.5"/>
	</g>
	
		<line id="mod2_1_" display="inline" fill="none" stroke="#0000FF" stroke-width="2" x1="203.966" y1="445.015" x2="406.199" y2="445.295"/>
	
		<line id="mod1_1_" display="inline" fill="none" stroke="#0000FF" stroke-width="2" x1="203.966" y1="346.985" x2="406.199" y2="346.705"/>
</g>
<g id="main">
	<path fill="none" stroke="#000000" stroke-width="5" d="M172.941,388.398c0,12.438-8.634,22.519-19.283,22.519"/>
	<path fill="none" stroke="#000000" stroke-width="5" d="M172.941,389.268c0-12.436,8.633-22.518,19.283-22.518
		c10.649,0,19.283,10.082,19.283,22.518"/>
	<path fill="none" stroke="#000000" stroke-width="5" d="M250.304,388.398c0,12.438-8.633,22.519-19.283,22.519
		c-10.649,0-19.284-10.081-19.284-22.519"/>
	<path fill="none" stroke="#000000" stroke-width="5" d="M250.304,389.268c0-12.436,8.633-22.518,19.284-22.518
		c10.649,0,19.282,10.082,19.282,22.518"/>
	<path fill="none" stroke="#000000" stroke-width="5" d="M327.436,388.398c0,12.438-8.634,22.519-19.28,22.519
		c-10.651,0-19.284-10.081-19.284-22.519"/>
	<path fill="none" stroke="#000000" stroke-width="5" d="M327.436,389.268c0-12.436,8.635-22.518,19.285-22.518
		s19.282,10.082,19.282,22.518"/>
	<path fill="none" stroke="#000000" stroke-width="5" d="M404.566,388.398c0,12.438-8.635,22.519-19.285,22.519
		c-10.649,0-19.283-10.081-19.283-22.519"/>
	<path fill="none" stroke="#000000" stroke-width="5" d="M404.566,389.268c0-12.436,8.634-22.518,19.28-22.518
		c10.651,0,19.286,10.082,19.286,22.518"/>
	<path fill="none" stroke="#000000" stroke-width="5" d="M462.415,410.917c-10.648,0-19.281-10.081-19.281-22.519"/>
	<path fill="none" stroke="#000000" stroke-width="5" d="M246,349.705c-60,0-60,92.545,0,92.545h120c60,0,60-92.545,0-92.545H246
		L246,349.705z"/>
</g>
</svg>
