<?xml version="1.0" encoding="utf-8"?>
<!-- Generator: Adobe Illustrator 16.0.0, SVG Export Plug-In . SVG Version: 6.00 Build 0)  -->
<!DOCTYPE svg PUBLIC "-//W3C//DTD SVG 1.1//EN" "http://www.w3.org/Graphics/SVG/1.1/DTD/svg11.dtd">
<svg version="1.1" id="Version_1.0" xmlns="http://www.w3.org/2000/svg" xmlns:xlink="http://www.w3.org/1999/xlink" x="0px" y="0px"
	 width="612px" height="792px" viewBox="0 0 612 792" enable-background="new 0 0 612 792" xml:space="preserve">
<g id="octagon" display="none">
	<g id="outFrame" display="inline">
		<line fill="none" stroke="#0000FF" stroke-width="2" x1="220" y1="309.5" x2="306" y2="273"/>
		<line fill="none" stroke="#0000FF" stroke-width="2" x1="306" y1="273" x2="390.5" y2="309.5"/>
		<line fill="none" stroke="#0000FF" stroke-width="2" x1="390.5" y1="309.5" x2="427" y2="396"/>
		<line fill="none" stroke="#0000FF" stroke-width="2" x1="427" y1="396" x2="390.5" y2="482.5"/>
		<line fill="none" stroke="#0000FF" stroke-width="2" x1="390.5" y1="482.5" x2="306" y2="516"/>
		<line fill="none" stroke="#0000FF" stroke-width="2" x1="306" y1="516" x2="220" y2="482.5"/>
		<line fill="none" stroke="#0000FF" stroke-width="2" x1="220" y1="482.5" x2="183" y2="396"/>
		<line fill="none" stroke="#0000FF" stroke-width="2" x1="183" y1="396" x2="220" y2="309.5"/>
	</g>
	
		<line id="bottom" display="inline" fill="none" stroke="#0000FF" stroke-width="2" x1="203.966" y1="445.015" x2="406.199" y2="445.295"/>
	
		<line id="top" display="inline" fill="none" stroke="#0000FF" stroke-width="2" x1="203.966" y1="346.985" x2="406.199" y2="346.705"/>
</g>
<g id="main">
	<path d="M344.675,444.267c-2.22,0-3.491-0.074-3.805-0.235c-4.121-0.786-7.134-3.006-9.036-6.658
		c-1.585-3.168-2.219-6.417-1.902-9.746c-5.71-3.96-13.953-11.334-24.723-22.111c-9.832,9.354-18.157,16.881-24.971,22.593
		c1.424,10.777-3.646,16.161-15.218,16.161c-8.567,0-13.481-3.646-14.746-10.936c21.556-11.572,37.566-23.537,48.029-35.908
		c-8.723-12.048-13.075-23.538-13.075-34.477c0-1.109,0.317-5.469,0.948-13.081c1.265,0,2.295,0.638,3.098,1.902
		c3.005,13.006,8.236,25.054,15.693,36.146c7.604-10.142,13.544-23.541,17.827-40.182c1.741,5.393,2.619,10.146,2.619,14.26
		c0,13.157-4.521,24.815-13.554,34.954c9.823,12.525,25.832,24.66,48.027,36.388C358.305,440.624,353.234,444.267,344.675,444.267z"
		/>
	<path fill="#FFFFFF" d="M273.102,429.769l-0.717-1.9l-13.554,7.604c1.585,1.909,3.805,2.856,6.658,2.856
		c0.792,0,2.342-0.709,4.637-2.141c2.295-1.428,3.451-2.773,3.451-4.047C273.58,431.832,273.419,431.04,273.102,429.769z"/>
	<path fill="#FFFFFF" d="M337.541,428.104c-0.631,1.109-0.947,1.98-0.947,2.611c0,1.436,0.908,3.061,2.729,4.879
		c1.817,1.825,3.604,2.733,5.354,2.733c2.852,0,5.069-0.947,6.657-2.856L337.541,428.104z"/>
	<text id="mod2" transform="matrix(1 0 0 1 245.0005 342.5557)" font-family="sans-serif" font-size="60">SOF</text>
</g>
</svg>
