<?xml version="1.0" encoding="utf-8"?>
<!-- Generator: Adobe Illustrator 16.0.0, SVG Export Plug-In . SVG Version: 6.00 Build 0)  -->
<!DOCTYPE svg PUBLIC "-//W3C//DTD SVG 1.1//EN" "http://www.w3.org/Graphics/SVG/1.1/DTD/svg11.dtd">
<svg version="1.1" id="Version_1.0" xmlns="http://www.w3.org/2000/svg" xmlns:xlink="http://www.w3.org/1999/xlink" x="0px"
	 y="0px" width="612px" height="792px" viewBox="0 0 612 792" enable-background="new 0 0 612 792" xml:space="preserve">
<g id="octagon" display="none">
	<g id="outFrame" display="inline">
		<line fill="none" stroke="#0000FF" stroke-width="2" x1="220" y1="309.5" x2="306" y2="273"/>
		<line fill="none" stroke="#0000FF" stroke-width="2" x1="306" y1="273" x2="390.5" y2="309.5"/>
		<line fill="none" stroke="#0000FF" stroke-width="2" x1="390.5" y1="309.5" x2="427" y2="396"/>
		<line fill="none" stroke="#0000FF" stroke-width="2" x1="427" y1="396" x2="390.5" y2="482.5"/>
		<line fill="none" stroke="#0000FF" stroke-width="2" x1="390.5" y1="482.5" x2="306" y2="516"/>
		<line fill="none" stroke="#0000FF" stroke-width="2" x1="306" y1="516" x2="220" y2="482.5"/>
		<line fill="none" stroke="#0000FF" stroke-width="2" x1="220" y1="482.5" x2="183" y2="396"/>
		<line fill="none" stroke="#0000FF" stroke-width="2" x1="183" y1="396" x2="220" y2="309.5"/>
	</g>
	
		<line id="mod2_1_" display="inline" fill="none" stroke="#0000FF" stroke-width="2" x1="203.966" y1="445.015" x2="406.199" y2="445.295"/>
	
		<line id="mod1_1_" display="inline" fill="none" stroke="#0000FF" stroke-width="2" x1="203.966" y1="346.985" x2="406.199" y2="346.705"/>
</g>
<g id="main">
	<path fill="none" stroke="#000000" stroke-width="5" d="M172.252,482.216c74.788-43.743,190.698-43.888,265.756-0.432"/>
	<path id="_x3C_path_x3E_" fill="none" stroke="#000000" stroke-width="5" d="M287.814,448.387v-80.824
		c0-6.695,5.428-12.124,12.123-12.124h12.124c6.695,0,12.124,5.428,12.124,12.124v79.813"/>
</g>
</svg>
