<?xml version="1.0" encoding="utf-8"?>
<!-- Generator: Adobe Illustrator 14.0.0, SVG Export Plug-In . SVG Version: 6.00 Build 43363)  -->
<!DOCTYPE svg PUBLIC "-//W3C//DTD SVG 1.1//EN" "http://www.w3.org/Graphics/SVG/1.1/DTD/svg11.dtd">
<svg version="1.1" id="Version_1.0" xmlns="http://www.w3.org/2000/svg" xmlns:xlink="http://www.w3.org/1999/xlink" x="0px" y="0px"
	 width="612px" height="792px" viewBox="0 0 612 792" enable-background="new 0 0 612 792" xml:space="preserve">
<g id="octagon" display="none">
	<g id="outFrame" display="inline">
		<line fill="none" stroke="#0000FF" stroke-width="2" x1="220" y1="309.5" x2="306" y2="273"/>
		<line fill="none" stroke="#0000FF" stroke-width="2" x1="306" y1="273" x2="390.5" y2="309.5"/>
		<line fill="none" stroke="#0000FF" stroke-width="2" x1="390.5" y1="309.5" x2="427" y2="396"/>
		<line fill="none" stroke="#0000FF" stroke-width="2" x1="427" y1="396" x2="390.5" y2="482.5"/>
		<line fill="none" stroke="#0000FF" stroke-width="2" x1="390.5" y1="482.5" x2="306" y2="516"/>
		<line fill="none" stroke="#0000FF" stroke-width="2" x1="306" y1="516" x2="220" y2="482.5"/>
		<line fill="none" stroke="#0000FF" stroke-width="2" x1="220" y1="482.5" x2="183" y2="396"/>
		<line fill="none" stroke="#0000FF" stroke-width="2" x1="183" y1="396" x2="220" y2="309.5"/>
	</g>
	<line id="bottom" fill="none" stroke="#0000FF" stroke-width="2" x1="203.966" y1="445.015" x2="406.199" y2="445.295"/>
	<line id="top" fill="none" stroke="#0000FF" stroke-width="2" x1="203.966" y1="346.985" x2="406.199" y2="346.705"/>
</g>
<g id="main">
	<g transform="scale(100) translate(0.68 0.69)">
		<path id="_64249792" d="M2.741,2.505v0.038h0.292V2.527c0-0.095-0.056-0.146-0.151-0.146C2.806,2.381,2.741,2.429,2.741,2.505z"/>
		<path id="_65485904" d="M2.514,2.618h0.232L2.745,2.657l0.013,0.086C2.786,2.761,2.78,2.786,2.83,2.811
			c0.033,0.016,0.081,0.014,0.113-0.001c0.058-0.028,0.098-0.108,0.079-0.191H3.26V2.586H2.514V2.618z"/>
		<path id="_65378144" d="M2.088,2.851v0.005c0,0.036,0.103,0.158,0.127,0.191c0.032,0.043,0.099,0.16,0.159,0.16
			c0.035,0,0.206-0.132,0.243-0.157l0.001,0.346l0.355-0.53c-0.089,0-0.297-0.01-0.365,0.007C2.557,2.887,2.422,3.02,2.385,3.023
			C2.38,3.006,2.308,2.914,2.292,2.89c-0.02-0.03-0.071-0.114-0.112-0.114H2.158C2.12,2.775,2.088,2.811,2.088,2.851L2.088,2.851z"
			/>
		<polygon id="_65379000" fill="#FFFFFF" points="1.467,3.234 1.591,3.315 1.59,3.127 1.467,3.045 		"/>
		<path id="_65378808" d="M1.969,3.396l0.13,0.086l-0.001,0.19L1.969,3.585V3.396z M1.721,3.218l0.124,0.086l0,0.19L1.721,3.407
			V3.218z M1.467,3.045L1.59,3.127l0.001,0.188L1.467,3.234V3.045z M1.326,3.158c0,0.021,0.368,0.264,0.414,0.294
			c0.073,0.049,0.138,0.097,0.211,0.146C1.988,3.624,2.02,3.646,2.056,3.67C2.09,3.693,2.142,3.714,2.142,3.763v0.329h0.292V3.796
			c0-0.029,0.043-0.07,0.043-0.076c0-0.029-0.028-0.004-0.039-0.047C2.428,3.635,2.431,3.64,2.409,3.61
			C2.384,3.576,2.343,3.547,2.288,3.547c-0.078,0-0.056-0.007-0.116-0.046C2.135,3.476,2.101,3.453,2.067,3.428
			C2.003,3.379,1.927,3.328,1.86,3.284C1.8,3.244,1.474,3.004,1.44,2.996C1.43,3.016,1.326,3.158,1.326,3.158z"/>
		<polygon id="_65377104" fill="#FFFFFF" points="1.721,3.407 1.844,3.494 1.845,3.304 1.721,3.218 		"/>
		<polygon id="_65450664" fill="#FFFFFF" points="1.969,3.585 2.098,3.672 2.099,3.482 1.969,3.396 		"/>
		<path id="_65717896" d="M2.714,3.396h0.302v0.113h-0.4v0.583l0.209,0L2.86,3.688l0.06,0l0.032,0.405h0.205V2.926
			c0-0.02-0.06-0.059-0.081-0.059C3.055,2.867,2.743,3.342,2.714,3.396z"/>
		<line id="_40116400" fill="none" x1="2.973" y1="2.867" x2="3.076" y2="2.867"/>
		<line id="_40133808" fill="none" x1="2.618" y1="3.397" x2="2.617" y2="3.509"/>
		<path id="_39914448" fill="#FFFFFF" d="M2.618,3.397L2.617,3.509h0.4V3.396l-0.302,0c0.028-0.054,0.34-0.529,0.362-0.529l-0.103,0
			L2.618,3.397z"/>
		<line id="_41336896" fill="none" x1="2.741" y1="2.543" x2="2.741" y2="2.586"/>
		<line id="_41336344" fill="none" x1="3.033" y1="2.543" x2="3.033" y2="2.586"/>
		<polygon id="_41325752" fill="#FFFFFF" points="3.033,2.586 3.033,2.543 2.741,2.543 2.741,2.586 		"/>
	</g>
</g>
</svg>
