<?xml version="1.0" encoding="utf-8"?>
<!-- Generator: Adobe Illustrator 14.0.0, SVG Export Plug-In . SVG Version: 6.00 Build 43363)  -->
<!DOCTYPE svg PUBLIC "-//W3C//DTD SVG 1.1//EN" "http://www.w3.org/Graphics/SVG/1.1/DTD/svg11.dtd">
<svg version="1.1" id="Version_1.0" xmlns="http://www.w3.org/2000/svg" xmlns:xlink="http://www.w3.org/1999/xlink" x="0px" y="0px"
	 width="612px" height="792px" viewBox="0 0 612 792" enable-background="new 0 0 612 792" xml:space="preserve">
<g id="octagon" display="none">
	<g id="outFrame" display="inline">
		<line fill="none" stroke="#0000FF" stroke-width="2" x1="220" y1="309.5" x2="306" y2="273"/>
		<line fill="none" stroke="#0000FF" stroke-width="2" x1="306" y1="273" x2="390.5" y2="309.5"/>
		<line fill="none" stroke="#0000FF" stroke-width="2" x1="390.5" y1="309.5" x2="427" y2="396"/>
		<line fill="none" stroke="#0000FF" stroke-width="2" x1="427" y1="396" x2="390.5" y2="482.5"/>
		<line fill="none" stroke="#0000FF" stroke-width="2" x1="390.5" y1="482.5" x2="306" y2="516"/>
		<line fill="none" stroke="#0000FF" stroke-width="2" x1="306" y1="516" x2="220" y2="482.5"/>
		<line fill="none" stroke="#0000FF" stroke-width="2" x1="220" y1="482.5" x2="183" y2="396"/>
		<line fill="none" stroke="#0000FF" stroke-width="2" x1="183" y1="396" x2="220" y2="309.5"/>
	</g>
	<line id="bottom" fill="none" stroke="#0000FF" stroke-width="2" x1="203.966" y1="445.015" x2="406.199" y2="445.295"/>
	<line id="top" fill="none" stroke="#0000FF" stroke-width="2" x1="203.966" y1="346.985" x2="406.199" y2="346.705"/>
</g>
<g id="main">
	<g transform="scale(100) translate(0.75 0.7)">
		<path id="_65156240" d="M2.311,3.59L2.76,3.934C2.744,3.956,2.61,4.011,2.568,4.028c-0.062,0.025-0.16,0.041-0.245,0.041H2.302
			c-0.095,0-0.182-0.016-0.25-0.042C2.009,4.01,1.882,3.958,1.863,3.932L2.311,3.59z M3.085,2.997
			c0.019,0.076,0.044,0.125,0.044,0.224v0.074c0,0.127-0.048,0.248-0.09,0.334C3.012,3.682,2.9,3.848,2.847,3.862L2.664,3.318
			L3.085,2.997z M1.531,2.993l0.421,0.324L1.768,3.86C1.705,3.817,1.619,3.693,1.58,3.615c-0.03-0.06-0.097-0.255-0.088-0.352
			L1.531,2.993z M3.054,2.919H2.535c-0.019,0-0.084-0.205-0.095-0.234C2.425,2.643,2.363,2.477,2.36,2.442
			c0.161,0,0.34,0.084,0.434,0.155C2.878,2.66,3.028,2.806,3.054,2.919L3.054,2.919z M1.571,2.919
			c0.009-0.04,0.085-0.148,0.11-0.181c0.044-0.055,0.097-0.095,0.151-0.141c0.072-0.061,0.291-0.155,0.422-0.155L2.088,2.918
			L1.571,2.919z M2.371,4.211c0.243,0,0.526-0.162,0.637-0.295C3.094,3.812,3.132,3.77,3.195,3.638
			c0.04-0.083,0.085-0.263,0.08-0.384C3.263,2.965,3.16,2.74,3.008,2.589C2.873,2.456,2.633,2.294,2.371,2.294H2.249
			c-0.256,0-0.503,0.168-0.634,0.298C1.477,2.728,1.348,2.984,1.348,3.258c0,0.3,0.127,0.502,0.272,0.661
			C1.74,4.05,2.007,4.211,2.254,4.211H2.371z"/>
		<path id="_39205440" d="M1.768,3.86l0.184-0.543L1.531,2.993l-0.039,0.27C1.483,3.359,1.549,3.554,1.58,3.615
			C1.619,3.693,1.705,3.817,1.768,3.86z"/>
		<path id="_39556528" d="M2.311,3.59L1.863,3.932C1.882,3.958,2.009,4.01,2.052,4.027c0.068,0.025,0.155,0.042,0.25,0.042h0.021
			c0.085,0,0.184-0.016,0.245-0.041C2.61,4.011,2.744,3.956,2.76,3.934L2.311,3.59z"/>
		<path id="_40116376" d="M2.664,3.318l0.184,0.543C2.9,3.848,3.012,3.682,3.038,3.629c0.042-0.085,0.09-0.207,0.09-0.334V3.221
			c0-0.099-0.025-0.148-0.044-0.224L2.664,3.318z"/>
		<path id="_40115480" d="M2.535,2.919h0.519C3.028,2.806,2.878,2.66,2.794,2.597C2.7,2.526,2.521,2.442,2.36,2.442
			c0.003,0.035,0.064,0.201,0.08,0.243C2.451,2.714,2.516,2.919,2.535,2.919L2.535,2.919z"/>
		<path id="_40117360" fill="#FFFFFF" d="M2.088,2.918l0.167-0.476c-0.132,0-0.35,0.094-0.422,0.155
			C1.778,2.643,1.725,2.682,1.681,2.738C1.655,2.77,1.58,2.879,1.571,2.919L2.088,2.918z"/>
		<path id="_39919152" fill="#FFFFFF" d="M2.44,2.685c0.011,0.029,0.076,0.234,0.095,0.234h0.519
			C3.028,2.806,2.878,2.66,2.794,2.597C2.7,2.526,2.521,2.442,2.36,2.442C2.363,2.477,2.425,2.643,2.44,2.685L2.44,2.685z"/>
		<path id="_39166144" fill="#FFFFFF" d="M3.085,2.997L2.664,3.318l0.184,0.543C2.9,3.848,3.012,3.682,3.038,3.629
			c0.042-0.085,0.09-0.207,0.09-0.334V3.221C3.128,3.122,3.103,3.073,3.085,2.997z"/>
		<path id="_39538560" fill="#FFFFFF" d="M2.76,3.934L2.311,3.59L1.863,3.932C1.882,3.958,2.009,4.01,2.052,4.027
			c0.068,0.025,0.155,0.042,0.25,0.042h0.021c0.085,0,0.184-0.016,0.245-0.041C2.61,4.011,2.744,3.956,2.76,3.934z"/>
		<path id="_40871864" fill="#FFFFFF" d="M1.768,3.86l0.184-0.543L1.531,2.993l-0.039,0.27C1.483,3.359,1.549,3.554,1.58,3.615
			C1.619,3.693,1.705,3.817,1.768,3.86z"/>
	</g>
</g>
</svg>
