<?xml version="1.0" encoding="utf-8"?>
<!-- Generator: Adobe Illustrator 16.0.0, SVG Export Plug-In . SVG Version: 6.00 Build 0)  -->
<!DOCTYPE svg PUBLIC "-//W3C//DTD SVG 1.1//EN" "http://www.w3.org/Graphics/SVG/1.1/DTD/svg11.dtd">
<svg version="1.1" id="Version_1.0" xmlns="http://www.w3.org/2000/svg" xmlns:xlink="http://www.w3.org/1999/xlink" x="0px"
	 y="0px" width="612px" height="792px" viewBox="0 0 612 792" enable-background="new 0 0 612 792" xml:space="preserve">
<g id="octagon" display="none">
	<g id="outFrame" display="inline">
		<line fill="none" stroke="#0000FF" stroke-width="2" x1="220" y1="309.5" x2="306" y2="273"/>
		<line fill="none" stroke="#0000FF" stroke-width="2" x1="306" y1="273" x2="390.5" y2="309.5"/>
		<line fill="none" stroke="#0000FF" stroke-width="2" x1="390.5" y1="309.5" x2="427" y2="396"/>
		<line fill="none" stroke="#0000FF" stroke-width="2" x1="427" y1="396" x2="390.5" y2="482.5"/>
		<line fill="none" stroke="#0000FF" stroke-width="2" x1="390.5" y1="482.5" x2="306" y2="516"/>
		<line fill="none" stroke="#0000FF" stroke-width="2" x1="306" y1="516" x2="220" y2="482.5"/>
		<line fill="none" stroke="#0000FF" stroke-width="2" x1="220" y1="482.5" x2="183" y2="396"/>
		<line fill="none" stroke="#0000FF" stroke-width="2" x1="183" y1="396" x2="220" y2="309.5"/>
	</g>
	
		<line id="bottom" display="inline" fill="none" stroke="#0000FF" stroke-width="2" x1="203.966" y1="445.015" x2="406.199" y2="445.295"/>
	
		<line id="top" display="inline" fill="none" stroke="#0000FF" stroke-width="2" x1="203.966" y1="346.985" x2="406.199" y2="346.705"/>
</g>
<g id="main">
	<g id="group_2_">
		<ellipse fill="none" stroke="#000000" stroke-width="5" cx="306" cy="371.843" rx="22.853" ry="21.563"/>
		<line fill="none" stroke="#000000" stroke-width="5" x1="306" y1="393.407" x2="306" y2="445.438"/>
		<line fill="none" stroke="#000000" stroke-width="5" x1="281.625" y1="403.422" x2="330.375" y2="403.422"/>
	</g>
	<g id="group_1_">
		<ellipse fill="none" stroke="#000000" stroke-width="5" cx="248.22" cy="370.407" rx="22.853" ry="21.563"/>
		<line fill="none" stroke="#000000" stroke-width="5" x1="248.22" y1="391.971" x2="248.22" y2="444"/>
		<line fill="none" stroke="#000000" stroke-width="5" x1="223.845" y1="401.986" x2="272.595" y2="401.986"/>
	</g>
	<g id="group">
		<ellipse fill="none" stroke="#000000" stroke-width="5" cx="363.78" cy="371.125" rx="22.853" ry="21.563"/>
		<line fill="none" stroke="#000000" stroke-width="5" x1="363.78" y1="392.689" x2="363.78" y2="444.719"/>
		<line fill="none" stroke="#000000" stroke-width="5" x1="339.405" y1="402.703" x2="388.155" y2="402.703"/>
	</g>
	<line fill="none" stroke="#000000" stroke-width="5" x1="203.966" y1="346.985" x2="406.199" y2="445.295"/>
</g>
</svg>
