<?xml version="1.0" encoding="utf-8"?>
<!-- Generator: Adobe Illustrator 16.0.0, SVG Export Plug-In . SVG Version: 6.00 Build 0)  -->
<!DOCTYPE svg PUBLIC "-//W3C//DTD SVG 1.1//EN" "http://www.w3.org/Graphics/SVG/1.1/DTD/svg11.dtd">
<svg version="1.1" id="Version_1.0" xmlns="http://www.w3.org/2000/svg" xmlns:xlink="http://www.w3.org/1999/xlink" x="0px"
	 y="0px" width="612px" height="792px" viewBox="0 0 612 792" enable-background="new 0 0 612 792" xml:space="preserve">
<g id="octagon" display="none">
	<g id="outFrame" display="inline">
		<line fill="none" stroke="#0000FF" stroke-width="2" x1="220" y1="309.5" x2="306" y2="273"/>
		<line fill="none" stroke="#0000FF" stroke-width="2" x1="306" y1="273" x2="390.5" y2="309.5"/>
		<line fill="none" stroke="#0000FF" stroke-width="2" x1="390.5" y1="309.5" x2="427" y2="396"/>
		<line fill="none" stroke="#0000FF" stroke-width="2" x1="427" y1="396" x2="390.5" y2="482.5"/>
		<line fill="none" stroke="#0000FF" stroke-width="2" x1="390.5" y1="482.5" x2="306" y2="516"/>
		<line fill="none" stroke="#0000FF" stroke-width="2" x1="306" y1="516" x2="220" y2="482.5"/>
		<line fill="none" stroke="#0000FF" stroke-width="2" x1="220" y1="482.5" x2="183" y2="396"/>
		<line fill="none" stroke="#0000FF" stroke-width="2" x1="183" y1="396" x2="220" y2="309.5"/>
	</g>
	
		<line id="bottom" display="inline" fill="none" stroke="#0000FF" stroke-width="2" x1="203.966" y1="445.015" x2="406.199" y2="445.295"/>
	
		<line id="top" display="inline" fill="none" stroke="#0000FF" stroke-width="2" x1="203.966" y1="346.985" x2="406.199" y2="346.705"/>
</g>
<g id="main">
	<g>
		<ellipse cx="305.249" cy="413.552" rx="25.711" ry="25.711"/>
		<line fill="none" stroke="#000000" stroke-width="5" x1="305.249" y1="372.605" x2="305.249" y2="454.5"/>
		<line fill="none" stroke="#000000" stroke-width="5" x1="282.395" y1="379.271" x2="328.104" y2="447.834"/>
		<line fill="none" stroke="#000000" stroke-width="5" x1="282.395" y1="447.834" x2="328.104" y2="379.271"/>
	</g>
	<line fill="none" stroke="#000000" stroke-width="10" x1="271.359" y1="361.884" x2="339.141" y2="361.884"/>
	<g>
		<line fill="none" stroke="#000000" stroke-width="5" x1="221" y1="321" x2="221" y2="468.438"/>
		<line fill="none" stroke="#000000" stroke-width="5" x1="389.5" y1="321" x2="389.5" y2="468.438"/>
		<line fill="none" stroke="#000000" stroke-width="5" x1="221" y1="466.172" x2="389.5" y2="466.172"/>
		<path fill="none" stroke="#000000" stroke-width="5" d="M221,323.212c73.717,27.38,94.782,27.38,168.5,0"/>
	</g>
</g>
</svg>
