<?xml version="1.0" encoding="utf-8"?>
<!-- Generator: Adobe Illustrator 16.0.0, SVG Export Plug-In . SVG Version: 6.00 Build 0)  -->
<!DOCTYPE svg PUBLIC "-//W3C//DTD SVG 1.1//EN" "http://www.w3.org/Graphics/SVG/1.1/DTD/svg11.dtd">
<svg version="1.1" id="Version_1.0" xmlns="http://www.w3.org/2000/svg" xmlns:xlink="http://www.w3.org/1999/xlink" x="0px"
	 y="0px" width="612px" height="792px" viewBox="0 0 612 792" enable-background="new 0 0 612 792" xml:space="preserve">
<g id="octagon" display="none">
	
		<line id="mod2_1_" display="inline" fill="none" stroke="#0000FF" stroke-width="2" x1="203.966" y1="445.015" x2="406.199" y2="445.295"/>
	
		<line id="mod1_1_" display="inline" fill="none" stroke="#0000FF" stroke-width="2" x1="203.966" y1="346.985" x2="406.199" y2="346.705"/>
	<g id="outFrame" display="inline">
		<line fill="none" stroke="#0000FF" stroke-width="2" x1="220" y1="309.5" x2="306" y2="273"/>
		<line fill="none" stroke="#0000FF" stroke-width="2" x1="306" y1="273" x2="390.5" y2="309.5"/>
		<line fill="none" stroke="#0000FF" stroke-width="2" x1="390.5" y1="309.5" x2="427" y2="396"/>
		<line fill="none" stroke="#0000FF" stroke-width="2" x1="427" y1="396" x2="390.5" y2="482.5"/>
		<line fill="none" stroke="#0000FF" stroke-width="2" x1="390.5" y1="482.5" x2="306" y2="516"/>
		<line fill="none" stroke="#0000FF" stroke-width="2" x1="306" y1="516" x2="220" y2="482.5"/>
		<line fill="none" stroke="#0000FF" stroke-width="2" x1="220" y1="482.5" x2="183" y2="396"/>
		<line fill="none" stroke="#0000FF" stroke-width="2" x1="183" y1="396" x2="220" y2="309.5"/>
	</g>
</g>
<g id="main">
	<g transform="translate(10 29) scale(0.9 0.8)">
		<line fill="none" stroke="#000000" stroke-width="5" x1="236.667" y1="376.25" x2="236.667" y2="516.25"/>
		<line fill="none" stroke="#000000" stroke-width="5" x1="396.667" y1="376.25" x2="396.667" y2="516.25"/>
		<line fill="none" stroke="#000000" stroke-width="5" x1="236.667" y1="513.75" x2="396.667" y2="513.75"/>
		<path fill="none" stroke="#000000" stroke-width="5" d="M236.667,379c70,26,90,26,159.998,0"/>
	</g>
	<g>
		<ellipse fill="none" stroke="#000000" stroke-width="5" cx="235" cy="458" rx="13" ry="13"/>
		<ellipse fill="none" stroke="#000000" stroke-width="5" cx="265" cy="458" rx="13" ry="13"/>
		<ellipse fill="none" stroke="#000000" stroke-width="5" cx="356" cy="458" rx="13" ry="13"/>
		<line fill="none" stroke="#000000" stroke-width="5" x1="365" y1="383" x2="400" y2="383"/>
		<line fill="none" stroke="#000000" stroke-width="5" x1="400" y1="358" x2="400" y2="408"/>
	</g>
	<g>
		<line fill="none" stroke="#000000" stroke-width="5" x1="314" y1="347" x2="314" y2="440"/>
		<line fill="none" stroke="#000000" stroke-width="5" x1="284" y1="347" x2="284" y2="440"/>
	</g>
</g>
</svg>
