<?xml version="1.0" encoding="utf-8"?>
<!-- Generator: Adobe Illustrator 16.0.0, SVG Export Plug-In . SVG Version: 6.00 Build 0)  -->
<!DOCTYPE svg PUBLIC "-//W3C//DTD SVG 1.1//EN" "http://www.w3.org/Graphics/SVG/1.1/DTD/svg11.dtd">
<svg version="1.1" id="Version_1.0" xmlns="http://www.w3.org/2000/svg" xmlns:xlink="http://www.w3.org/1999/xlink" x="0px"
	 y="0px" width="612px" height="792px" viewBox="0 0 612 792" enable-background="new 0 0 612 792" xml:space="preserve">
<g id="octagon" display="none">
	<g id="outFrame" display="inline">
		<line fill="none" stroke="#0000FF" stroke-width="2" x1="220" y1="309.5" x2="306" y2="273"/>
		<line fill="none" stroke="#0000FF" stroke-width="2" x1="306" y1="273" x2="390.5" y2="309.5"/>
		<line fill="none" stroke="#0000FF" stroke-width="2" x1="390.5" y1="309.5" x2="427" y2="396"/>
		<line fill="none" stroke="#0000FF" stroke-width="2" x1="427" y1="396" x2="390.5" y2="482.5"/>
		<line fill="none" stroke="#0000FF" stroke-width="2" x1="390.5" y1="482.5" x2="306" y2="516"/>
		<line fill="none" stroke="#0000FF" stroke-width="2" x1="306" y1="516" x2="220" y2="482.5"/>
		<line fill="none" stroke="#0000FF" stroke-width="2" x1="220" y1="482.5" x2="183" y2="396"/>
		<line fill="none" stroke="#0000FF" stroke-width="2" x1="183" y1="396" x2="220" y2="309.5"/>
	</g>
	
		<line id="bottom" display="inline" fill="none" stroke="#0000FF" stroke-width="2" x1="203.966" y1="445.015" x2="406.199" y2="445.295"/>
	
		<line id="top" display="inline" fill="none" stroke="#0000FF" stroke-width="2" x1="203.966" y1="346.985" x2="406.199" y2="346.705"/>
</g>
<g id="main" transform="translate(0 29) scale(1 0.8)">
	<line fill="none" stroke="#000000" stroke-width="5" x1="224.364" y1="373.114" x2="224.364" y2="525.557"/>
	<line fill="none" stroke="#000000" stroke-width="5" x1="385.623" y1="373.114" x2="385.623" y2="525.557"/>
	<line fill="none" stroke="#000000" stroke-width="5" x1="224.364" y1="522.612" x2="385.623" y2="522.612"/>
	<path fill="none" stroke="#000000" stroke-width="5" d="M224.364,374.969c70.552,28.311,90.708,28.311,161.259,0"/>
	<g transform="translate(40 -30) scale(0.8 0.7)">
		<ellipse fill="none" stroke="#000000" stroke-width="5" cx="239.29" cy="819.699" rx="14.373" ry="17.965"/>
		<ellipse fill="none" stroke="#000000" stroke-width="5" cx="279.091" cy="819.699" rx="14.373" ry="17.965"/>
		<ellipse fill="none" stroke="#000000" stroke-width="5" cx="424.126" cy="818.078" rx="14.373" ry="17.966"/>
		<ellipse fill="none" stroke="#000000" stroke-width="5" cx="384.32" cy="818.078" rx="14.375" ry="17.966"/>
	</g>
</g>
</svg>
