<?xml version="1.0" encoding="utf-8"?>
<!-- Generator: Adobe Illustrator 16.0.0, SVG Export Plug-In . SVG Version: 6.00 Build 0)  -->
<!DOCTYPE svg PUBLIC "-//W3C//DTD SVG 1.1//EN" "http://www.w3.org/Graphics/SVG/1.1/DTD/svg11.dtd">
<svg version="1.1" id="Version_1.0" xmlns="http://www.w3.org/2000/svg" xmlns:xlink="http://www.w3.org/1999/xlink" x="0px"
	 y="0px" width="612px" height="792px" viewBox="0 0 612 792" enable-background="new 0 0 612 792" xml:space="preserve">
<g id="octagon" display="none">
	<g id="outFrame" display="inline">
		<line fill="none" stroke="#0000FF" stroke-width="2" x1="220" y1="309.5" x2="306" y2="273"/>
		<line fill="none" stroke="#0000FF" stroke-width="2" x1="306" y1="273" x2="390.5" y2="309.5"/>
		<line fill="none" stroke="#0000FF" stroke-width="2" x1="390.5" y1="309.5" x2="427" y2="396"/>
		<line fill="none" stroke="#0000FF" stroke-width="2" x1="427" y1="396" x2="390.5" y2="482.5"/>
		<line fill="none" stroke="#0000FF" stroke-width="2" x1="390.5" y1="482.5" x2="306" y2="516"/>
		<line fill="none" stroke="#0000FF" stroke-width="2" x1="306" y1="516" x2="220" y2="482.5"/>
		<line fill="none" stroke="#0000FF" stroke-width="2" x1="220" y1="482.5" x2="183" y2="396"/>
		<line fill="none" stroke="#0000FF" stroke-width="2" x1="183" y1="396" x2="220" y2="309.5"/>
	</g>
	
		<line id="mod2_1_" display="inline" fill="none" stroke="#0000FF" stroke-width="2" x1="203.966" y1="445.015" x2="406.199" y2="445.295"/>
	
		<line id="mod1_1_" display="inline" fill="none" stroke="#0000FF" stroke-width="2" x1="203.966" y1="346.985" x2="406.199" y2="346.705"/>
</g>
<g id="main">
	<polygon fill="#FFFFFF" stroke="#000000" stroke-width="5" points="226,433.5 226,333.5 276,333.5 276,383.5 376,383.5 376,433.5 	
		"/>
	<ellipse fill="#FFFFFF" stroke="#000000" stroke-width="5" cx="351" cy="438.5" rx="20" ry="20"/>
	<ellipse fill="#FFFFFF" stroke="#000000" stroke-width="5" cx="251" cy="438.5" rx="20" ry="20"/>
	<rect x="236" y="343.5" fill="none" stroke="#000000" stroke-width="5" width="30" height="43"/>
	<line fill="none" stroke="#000000" stroke-width="5" x1="376" y1="403.5" x2="401" y2="403.5"/>
	<line fill="none" stroke="#000000" stroke-width="5" x1="401" y1="428.5" x2="401" y2="378.5"/>
	<line fill="none" stroke="#000000" stroke-width="5" x1="306" y1="383.5" x2="306" y2="433.5"/>
</g>
</svg>
