<?xml version="1.0" encoding="utf-8"?>
<!-- Generator: Adobe Illustrator 16.0.0, SVG Export Plug-In . SVG Version: 6.00 Build 0)  -->
<!DOCTYPE svg PUBLIC "-//W3C//DTD SVG 1.1//EN" "http://www.w3.org/Graphics/SVG/1.1/DTD/svg11.dtd">
<svg version="1.1" id="Version_1.0" xmlns="http://www.w3.org/2000/svg" xmlns:xlink="http://www.w3.org/1999/xlink" x="0px"
	 y="0px" width="612px" height="792px" viewBox="0 0 612 792" enable-background="new 0 0 612 792" xml:space="preserve">
<g id="octagon" display="none">
	<g id="outFrame" display="inline">
		<line fill="none" stroke="#0000FF" stroke-width="2" x1="220" y1="306.5" x2="306" y2="270"/>
		<line fill="none" stroke="#0000FF" stroke-width="2" x1="306" y1="270" x2="390.5" y2="306.5"/>
		<line fill="none" stroke="#0000FF" stroke-width="2" x1="390.5" y1="306.5" x2="427" y2="393"/>
		<line fill="none" stroke="#0000FF" stroke-width="2" x1="427" y1="393" x2="390.5" y2="479.5"/>
		<line fill="none" stroke="#0000FF" stroke-width="2" x1="390.5" y1="479.5" x2="306" y2="513"/>
		<line fill="none" stroke="#0000FF" stroke-width="2" x1="306" y1="513" x2="220" y2="479.5"/>
		<line fill="none" stroke="#0000FF" stroke-width="2" x1="220" y1="479.5" x2="183" y2="393"/>
		<line fill="none" stroke="#0000FF" stroke-width="2" x1="183" y1="393" x2="220" y2="306.5"/>
	</g>
	
		<line id="bottom" display="inline" fill="none" stroke="#0000FF" stroke-width="2" x1="203.966" y1="442.015" x2="406.199" y2="442.295"/>
	
		<line id="top" display="inline" fill="none" stroke="#0000FF" stroke-width="2" x1="203.966" y1="343.985" x2="406.199" y2="343.705"/>
</g>
<g id="main">
	<path stroke="#000000" stroke-width="2.7526" d="M318.845,396.324L318.845,396.324c0,5.084-2.772,9.529-6.884,11.914l17.889,30.984
		c14.803-8.579,24.779-24.595,24.779-42.898l0,0H318.845L318.845,396.324z"/>
	<path stroke="#000000" stroke-width="2.7526" d="M291.319,396.324L291.319,396.324h-35.784l0,0
		c0,18.305,9.978,34.319,24.779,42.898l17.89-30.984C294.093,405.854,291.319,401.408,291.319,396.324z"/>
	<path stroke="#000000" stroke-width="2.7526" d="M305.082,382.561c2.505,0,4.853,0.676,6.877,1.851l17.891-30.987
		c-7.289-4.226-15.751-6.647-24.768-6.647c-9.016,0-17.477,2.422-24.768,6.647l17.89,30.987
		C300.229,383.237,302.577,382.561,305.082,382.561z"/>
	<path stroke="#000000" stroke-width="5" d="M305.082,404.582c-4.553,0-8.258-3.705-8.258-8.258c0-4.553,3.705-8.258,8.258-8.258
		c4.553,0,8.258,3.705,8.258,8.258C313.34,400.877,309.635,404.582,305.082,404.582L305.082,404.582z"/>
</g>
</svg>
