<?xml version="1.0" encoding="utf-8"?>
<!-- Generator: Adobe Illustrator 16.0.0, SVG Export Plug-In . SVG Version: 6.00 Build 0)  -->
<!DOCTYPE svg PUBLIC "-//W3C//DTD SVG 1.1//EN" "http://www.w3.org/Graphics/SVG/1.1/DTD/svg11.dtd">
<svg version="1.1" id="Version_1.0" xmlns="http://www.w3.org/2000/svg" xmlns:xlink="http://www.w3.org/1999/xlink" x="0px" y="0px"
	 width="612px" height="792px" viewBox="0 0 612 792" enable-background="new 0 0 612 792" xml:space="preserve">
<g id="octagon" display="none">
	
		<line id="mod2_1_" display="inline" fill="none" stroke="#0000FF" stroke-width="2" x1="203.966" y1="445.015" x2="406.199" y2="445.295"/>
	
		<line id="mod1_1_" display="inline" fill="none" stroke="#0000FF" stroke-width="2" x1="203.966" y1="346.985" x2="406.199" y2="346.705"/>
	<g id="outFrame" display="inline">
		<line fill="none" stroke="#0000FF" stroke-width="2" x1="220" y1="309.5" x2="306" y2="273"/>
		<line fill="none" stroke="#0000FF" stroke-width="2" x1="306" y1="273" x2="390.5" y2="309.5"/>
		<line fill="none" stroke="#0000FF" stroke-width="2" x1="390.5" y1="309.5" x2="427" y2="396"/>
		<line fill="none" stroke="#0000FF" stroke-width="2" x1="427" y1="396" x2="390.5" y2="482.5"/>
		<line fill="none" stroke="#0000FF" stroke-width="2" x1="390.5" y1="482.5" x2="306" y2="516"/>
		<line fill="none" stroke="#0000FF" stroke-width="2" x1="306" y1="516" x2="220" y2="482.5"/>
		<line fill="none" stroke="#0000FF" stroke-width="2" x1="220" y1="482.5" x2="183" y2="396"/>
		<line fill="none" stroke="#0000FF" stroke-width="2" x1="183" y1="396" x2="220" y2="309.5"/>
	</g>
</g>
<g id="main">
	<path d="M399.223,400.18c-1.925,1.938-3.851,2.893-5.761,2.893l-30.244-6.115c-2.398,1.21-5.995,2.775-10.801,4.695
		c-7.438,1.442-18.595,4.09-33.475,7.938l63.358,25.635c-1.926,1.928-6.238,3.853-12.96,5.771l-82.44-24.25
		c-9.355,2.17-18.72,4.444-28.075,6.835c-18.01,4.324-29.405,6.484-34.2,6.484c-9.125,0.006-13.685-1.547-13.685-4.672
		c0-2.158,1.68-5.1,5.04-8.817s6.24-5.82,8.645-6.3c11.27-2.882,28.075-6.848,50.4-11.887c2.16-6.721,5.635-17.161,10.44-31.321
		c3.595-1.435,6.6-2.395,9.005-2.88c0,9.61,0.715,19.445,2.16,29.52c12.477-2.65,28.91-6.51,49.312-11.575
		c1.188-0.479,2.158-2.05,2.88-4.705c0.955-4.1,1.436-6.27,1.436-6.515c1.444-0.235,3.359-0.84,5.76-1.815
		c1.682-3.615,4.2-8.32,7.562-14.11c0.235,0,4.2-1.33,11.885-3.985l-7.204,36.885L399.223,400.18z"/>
</g>
</svg>
