<?xml version="1.0" encoding="utf-8"?>
<!-- Generator: Adobe Illustrator 16.0.0, SVG Export Plug-In . SVG Version: 6.00 Build 0)  -->
<!DOCTYPE svg PUBLIC "-//W3C//DTD SVG 1.1//EN" "http://www.w3.org/Graphics/SVG/1.1/DTD/svg11.dtd">
<svg version="1.1" id="Version_1.0" xmlns="http://www.w3.org/2000/svg" xmlns:xlink="http://www.w3.org/1999/xlink" x="0px" y="0px"
	 width="612px" height="792px" viewBox="0 0 612 792" enable-background="new 0 0 612 792" xml:space="preserve">
<g id="octagon" display="none">
	<g id="outFrame" display="inline">
		<line fill="none" stroke="#0000FF" stroke-width="2" x1="220" y1="309.5" x2="306" y2="273"/>
		<line fill="none" stroke="#0000FF" stroke-width="2" x1="306" y1="273" x2="390.5" y2="309.5"/>
		<line fill="none" stroke="#0000FF" stroke-width="2" x1="390.5" y1="309.5" x2="427" y2="396"/>
		<line fill="none" stroke="#0000FF" stroke-width="2" x1="427" y1="396" x2="390.5" y2="482.5"/>
		<line fill="none" stroke="#0000FF" stroke-width="2" x1="390.5" y1="482.5" x2="306" y2="516"/>
		<line fill="none" stroke="#0000FF" stroke-width="2" x1="306" y1="516" x2="220" y2="482.5"/>
		<line fill="none" stroke="#0000FF" stroke-width="2" x1="220" y1="482.5" x2="183" y2="396"/>
		<line fill="none" stroke="#0000FF" stroke-width="2" x1="183" y1="396" x2="220" y2="309.5"/>
	</g>
	
		<line id="bottom" display="inline" fill="none" stroke="#0000FF" stroke-width="2" x1="203.966" y1="445.015" x2="406.199" y2="445.295"/>
	
		<line id="top" display="inline" fill="none" stroke="#0000FF" stroke-width="2" x1="203.966" y1="346.985" x2="406.199" y2="346.705"/>
</g>
<g id="main">
	<path id="_x3C_path_x3E_" d="M376.689,440.338l4.741-1.627l0.709,15.801h-5.45V440.338L376.689,440.338z M337.436,418.532
		c6.688,3.534,7.05,6.025,10.722,12.726c2.598,4.738,6.184,10.269,6.184,17.26c0.412,0.615,1.279,2.179,2.178,2.179
		c3.132,0,6.537-11.625,9.271-13.627v1.09h1.09v16.354h-29.441v-35.98H337.436z M285.645,416.896c0-3.304,11.707-2.729,15.812-2.727
		c6.169,0.005,12.688-1.636,16.899-1.636c2.965,0,6.896,2.047,9.813,2.727v39.25h-42.523L285.645,416.896L285.645,416.896z
		 M246.94,437.068c3.103,1.123,6.646,14.719,9.268,14.719c4.618,0,4.827-13.24,7.647-17.979c2.939-4.932,5.533-12.684,11.98-14.188
		v34.891H246.94V437.068z M232.359,439.254c1.323,0.336,4.222,1.006,4.222,2.719v12.537l-5.007-0.004L232.359,439.254z
		 M365.242,423.984c-0.752-5.021,3.971-11.994,9.266-11.994c5.127,0,8.726,6.591,8.726,11.994v0.545
		c0,7.438-3.08,7.356-5.451,10.905l-7.092,0.136l-5.074-6.547L365.242,423.984z M247.485,424.529c0,10.192-10.69,15.514-16.15,7.428
		c-4.431-6.559-1.699-19.967,6.884-19.967c5.207,0,9.266,5.768,9.266,10.901V424.529L247.485,424.529z M246.94,333.486h28.895
		v79.592c0,1.845-5.401,2.883-7.521,5.02c-1.706,1.72-3.711,4.754-5.126,6.867c-2.466,3.683-6.854,11.461-6.979,17.008l-5.533-9.225
		c0.764-1.465,1.716-5.486,1.716-7.676v-3.271c0-6.224-5.451-9.811-5.451-13.086L246.94,333.486L246.94,333.486z M337.438,333.486
		h29.439v75.231c0,0.963-5.391,6.206-6.346,10.555c-1.543,7.029,0.194,8.082,1.438,13.435l-4.076,7.248
		c-1.243-4.281-5.823-11.767-8.135-15.207c-3.16-4.711-5.295-9.994-12.319-10.576v-80.684L337.438,333.486L337.438,333.486z
		 M285.647,402.176l6.412,7.204l-6.412,1.521V402.176z M328.396,395.23l-0.229,14.58l-7.895-1.461L328.396,395.23z M303.639,408.174
		c-10.235,0-18.265-13.726-17.837-24.456c0.43-10.825,7.643-24.065,18.38-24.065h2.179c9.494,0,17.99,12.59,17.99,22.351v3.816
		c0,9.066-8.035,22.353-16.354,22.353L303.639,408.174L303.639,408.174z M285.647,333.486h42.523v39.798
		c-2.6-2.991-3.072-7.164-7.768-11.859c-3.12-3.121-7.523-6.131-13.494-6.131h-1.091c-4.775,0-9.65,1.322-12.403,3.407
		c-1.479,1.123-2.865,2.108-4.198,3.434c-1.464,1.456-1.97,2.992-3.57,4.063L285.647,333.486L285.647,333.486z M219.681,333.486
		h16.9v74.143c-7.03,1.639-12.538,8.232-12.538,16.9c0,6,3.039,7.938,3.289,11.432c0.314,4.355-0.563,9.109-0.563,14.193v4.358
		h-7.088v12.539h170.635v-12.539l-3.322,0.004l-1.037-20.721c6.23-9.305,0.561-23.877-9.268-26.168v-74.143h13.629v-12.538H219.681
		V333.486z"/>
</g>
</svg>
