<?xml version="1.0" encoding="utf-8"?>
<!-- Generator: Adobe Illustrator 16.0.0, SVG Export Plug-In . SVG Version: 6.00 Build 0)  -->
<!DOCTYPE svg PUBLIC "-//W3C//DTD SVG 1.1//EN" "http://www.w3.org/Graphics/SVG/1.1/DTD/svg11.dtd">
<svg version="1.1" id="Version_1.0" xmlns="http://www.w3.org/2000/svg" xmlns:xlink="http://www.w3.org/1999/xlink" x="0px"
	 y="0px" width="612px" height="792px" viewBox="0 0 612 792" enable-background="new 0 0 612 792" xml:space="preserve">
<g id="octagon" display="none">
	<g id="outFrame" display="inline">
		<line fill="none" stroke="#0000FF" stroke-width="2" x1="220" y1="309.5" x2="306" y2="273"/>
		<line fill="none" stroke="#0000FF" stroke-width="2" x1="306" y1="273" x2="390.5" y2="309.5"/>
		<line fill="none" stroke="#0000FF" stroke-width="2" x1="390.5" y1="309.5" x2="427" y2="396"/>
		<line fill="none" stroke="#0000FF" stroke-width="2" x1="427" y1="396" x2="390.5" y2="482.5"/>
		<line fill="none" stroke="#0000FF" stroke-width="2" x1="390.5" y1="482.5" x2="306" y2="516"/>
		<line fill="none" stroke="#0000FF" stroke-width="2" x1="306" y1="516" x2="220" y2="482.5"/>
		<line fill="none" stroke="#0000FF" stroke-width="2" x1="220" y1="482.5" x2="183" y2="396"/>
		<line fill="none" stroke="#0000FF" stroke-width="2" x1="183" y1="396" x2="220" y2="309.5"/>
	</g>
	
		<line id="bottom" display="inline" fill="none" stroke="#0000FF" stroke-width="2" x1="203.966" y1="445.015" x2="406.199" y2="445.295"/>
	
		<line id="top" display="inline" fill="none" stroke="#0000FF" stroke-width="2" x1="203.966" y1="346.985" x2="406.199" y2="346.705"/>
</g>
<g id="main">
	<path id="_65156240" d="M306.1,429l44.9,34.4c-1.6,2.199-15,7.699-19.2,9.399c-6.2,2.5-16,4.101-24.5,4.101h-2.1
		c-9.5,0-18.2-1.601-25-4.2c-4.3-1.7-17-6.9-18.9-9.5L306.1,429z M383.5,369.7c1.9,7.6,4.4,12.5,4.4,22.4v7.4
		c0,12.7-4.801,24.8-9,33.4c-2.7,5.3-13.9,21.899-19.2,23.3l-18.3-54.4L383.5,369.7z M228.1,369.3l42.1,32.4L251.8,456
		c-6.3-4.3-14.9-16.7-18.8-24.5c-3-6-9.7-25.5-8.8-35.2L228.1,369.3z M380.4,361.9h-51.9c-1.9,0-8.4-20.5-9.5-23.4
		c-1.5-4.2-7.7-20.8-8-24.3c16.1,0,34,8.4,43.4,15.5C362.8,336,377.8,350.6,380.4,361.9L380.4,361.9z M232.1,361.9
		c0.9-4,8.5-14.8,11-18.1c4.4-5.5,9.7-9.5,15.1-14.1c7.2-6.1,29.1-15.5,42.2-15.5l-16.6,47.6L232.1,361.9z M312.1,491.1
		c24.301,0,52.601-16.199,63.7-29.5c8.601-10.399,12.4-14.6,18.7-27.8c4-8.3,8.5-26.3,8-38.4c-1.2-28.9-11.5-51.4-26.7-66.5
		c-13.5-13.3-37.5-29.5-63.7-29.5h-12.2c-25.6,0-50.3,16.8-63.4,29.8c-13.8,13.6-26.7,39.2-26.7,66.6c0,30,12.7,50.2,27.2,66.101
		c12,13.1,38.7,29.199,63.4,29.199H312.1z"/>
</g>
</svg>
