<?xml version="1.0" encoding="utf-8"?>
<!-- Generator: Adobe Illustrator 16.0.0, SVG Export Plug-In . SVG Version: 6.00 Build 0)  -->
<!DOCTYPE svg PUBLIC "-//W3C//DTD SVG 1.1//EN" "http://www.w3.org/Graphics/SVG/1.1/DTD/svg11.dtd">
<svg version="1.1" id="Version_1.0" xmlns="http://www.w3.org/2000/svg" xmlns:xlink="http://www.w3.org/1999/xlink" x="0px" y="0px"
	 width="612px" height="792px" viewBox="0 0 612 792" enable-background="new 0 0 612 792" xml:space="preserve">
<g id="octagon" display="none">
	<g id="outFrame" display="inline">
		<line fill="none" stroke="#0000FF" stroke-width="2" x1="220" y1="309.5" x2="306" y2="273"/>
		<line fill="none" stroke="#0000FF" stroke-width="2" x1="306" y1="273" x2="390.5" y2="309.5"/>
		<line fill="none" stroke="#0000FF" stroke-width="2" x1="390.5" y1="309.5" x2="427" y2="396"/>
		<line fill="none" stroke="#0000FF" stroke-width="2" x1="427" y1="396" x2="390.5" y2="482.5"/>
		<line fill="none" stroke="#0000FF" stroke-width="2" x1="390.5" y1="482.5" x2="306" y2="516"/>
		<line fill="none" stroke="#0000FF" stroke-width="2" x1="306" y1="516" x2="220" y2="482.5"/>
		<line fill="none" stroke="#0000FF" stroke-width="2" x1="220" y1="482.5" x2="183" y2="396"/>
		<line fill="none" stroke="#0000FF" stroke-width="2" x1="183" y1="396" x2="220" y2="309.5"/>
	</g>
	
		<line id="mod2_1_" display="inline" fill="none" stroke="#0000FF" stroke-width="2" x1="203.966" y1="445.015" x2="406.199" y2="445.295"/>
	
		<line id="mod1_1_" display="inline" fill="none" stroke="#0000FF" stroke-width="2" x1="203.966" y1="346.985" x2="406.199" y2="346.705"/>
</g>
<g id="main">
	<g transform="scale(115) translate(0.469565 0.469565)">
		<polygon id="_228463400" points="1.345,2.871 1.67,2.871 1.67,2.739 1.345,2.739 		"/>
		<polygon id="_234869064" points="2.693,2.871 3.024,2.871 3.024,2.739 2.693,2.739 		"/>
		<path id="_99379872" d="M2.107,2.504l0.176-0.001c0.02,0,0.052,0.124,0.052,0.151l0.032,0.093C2.368,2.755,2.411,2.89,2.411,2.899
			v0.014L1.989,2.912L2.107,2.504z M1.675,2.503l0.242,0.001L1.84,2.748c0,0.038-0.042,0.124-0.042,0.151v0.014H1.345v0.156
			L1.748,3.07L1.722,3.135L1.72,3.153L1.664,3.334L1.585,3.583c0.025,0,0.202,0.003,0.21-0.002C1.8,3.578,1.839,3.433,1.846,3.414
			c0.01-0.027,0.098-0.327,0.098-0.331V3.069l0.51,0.001l0.145,0.513l0.214,0.001L2.782,3.48L2.767,3.423l-0.052-0.17L2.696,3.192
			L2.66,3.069h0.344V2.913H2.609L2.547,2.72L2.544,2.702L2.523,2.637L2.486,2.503h0.231V2.347H1.675V2.503L1.675,2.503L1.675,2.503z
			"/>
	</g>
</g>
</svg>
