<?xml version="1.0" encoding="utf-8"?>
<!-- Generator: Adobe Illustrator 16.0.0, SVG Export Plug-In . SVG Version: 6.00 Build 0)  -->
<!DOCTYPE svg PUBLIC "-//W3C//DTD SVG 1.1//EN" "http://www.w3.org/Graphics/SVG/1.1/DTD/svg11.dtd">
<svg version="1.1" id="Version_1.0" xmlns="http://www.w3.org/2000/svg" xmlns:xlink="http://www.w3.org/1999/xlink" x="0px" y="0px"
	 width="612px" height="792px" viewBox="0 0 612 792" enable-background="new 0 0 612 792" xml:space="preserve">
<g id="octagon" display="none">
	<g id="outFrame" display="inline">
		<line fill="none" stroke="#0000FF" stroke-width="2" x1="220" y1="309.5" x2="306" y2="273"/>
		<line fill="none" stroke="#0000FF" stroke-width="2" x1="306" y1="273" x2="390.5" y2="309.5"/>
		<line fill="none" stroke="#0000FF" stroke-width="2" x1="390.5" y1="309.5" x2="427" y2="396"/>
		<line fill="none" stroke="#0000FF" stroke-width="2" x1="427" y1="396" x2="390.5" y2="482.5"/>
		<line fill="none" stroke="#0000FF" stroke-width="2" x1="390.5" y1="482.5" x2="306" y2="516"/>
		<line fill="none" stroke="#0000FF" stroke-width="2" x1="306" y1="516" x2="220" y2="482.5"/>
		<line fill="none" stroke="#0000FF" stroke-width="2" x1="220" y1="482.5" x2="183" y2="396"/>
		<line fill="none" stroke="#0000FF" stroke-width="2" x1="183" y1="396" x2="220" y2="309.5"/>
	</g>
	
		<line id="mod2_1_" display="inline" fill="none" stroke="#0000FF" stroke-width="2" x1="203.966" y1="445.015" x2="406.199" y2="445.295"/>
	
		<line id="mod1_1_" display="inline" fill="none" stroke="#0000FF" stroke-width="2" x1="203.966" y1="346.985" x2="406.199" y2="346.705"/>
</g>
<g id="main">
	<g transform="scale(150)">
		<path id="_65451144" d="M1.629,2.843v-0.04c0-0.037,0.043-0.123,0.052-0.157C1.693,2.601,1.733,2.547,1.76,2.512
			c0.059-0.076,0.142-0.149,0.275-0.149h0.073c0.057,0,0.147,0.072,0.174,0.108C2.304,2.5,2.319,2.523,2.338,2.554
			C2.346,2.566,2.383,2.64,2.383,2.652v0.011H2.39v0.011c0,0.007,0.015,0.025,0.014,0.052l0.008,0.011
			c0,0.034,0.018,0.113,0.022,0.15C2.44,2.94,2.456,2.98,2.423,3.029c0,0.04-0.086,0.145-0.103,0.146L2.167,3.15
			c-0.03-0.005-0.113,0.033-0.154,0.033c-0.034,0-0.093-0.029-0.125-0.029c-0.027,0-0.054,0.022-0.092,0.022h-0.01
			c-0.032,0-0.099-0.102-0.117-0.128C1.639,3.005,1.629,2.914,1.629,2.843z M2.14,2.326L2.039,2.308
			C2.026,2.306,1.952,2.326,1.943,2.33L1.838,2.138l0.029,0.008V2.097l0.149,0.056l0.005-0.059l0.054,0.041L2.17,2.091v0.043
			L2.295,2.11L2.14,2.326L2.14,2.326z M2.336,2.085L2.185,2.112V2.066C2.17,2.074,2.09,2.114,2.075,2.114
			c-0.001,0-0.056-0.043-0.066-0.048L1.998,2.132l-0.146-0.06v0.049L1.801,2.105l0.135,0.252L1.932,2.359
			C1.855,2.377,1.761,2.472,1.721,2.532C1.708,2.551,1.7,2.576,1.687,2.593c-0.023,0.03-0.015,0.041-0.029,0.066
			C1.648,2.678,1.61,2.779,1.61,2.802v0.062c0,0.017,0.012,0.096,0.016,0.112C1.633,2.999,1.632,3.009,1.639,3.03
			c0.005,0.015,0.015,0.026,0.023,0.039c0.022,0.034,0.08,0.125,0.127,0.125c0.042,0,0.071-0.022,0.095-0.022
			c0.038,0,0.087,0.029,0.121,0.029h0.011c0.034,0,0.095-0.024,0.134-0.031c0.03-0.005,0.098,0.017,0.141,0.017H2.32
			c0.028,0,0.08-0.07,0.096-0.091C2.434,3.073,2.438,3.06,2.445,3.029c0.002-0.007,0.018-0.072,0.018-0.073
			c0-0.05-0.015-0.068-0.018-0.099C2.441,2.817,2.439,2.79,2.434,2.755C2.43,2.726,2.387,2.611,2.374,2.584
			c-0.04-0.082-0.128-0.22-0.233-0.229L2.336,2.085z"/>
		<path id="_66403824" fill="#FFFFFF" d="M2.295,2.11L2.171,2.135V2.092L2.075,2.135l-0.054-0.04L2.016,2.154L1.867,2.098v0.049
			L1.838,2.138L1.943,2.33c0.009-0.004,0.084-0.024,0.096-0.022L2.14,2.326L2.295,2.11L2.295,2.11z"/>
		<path id="_65363480" fill="#FFFFFF" d="M2.05,2.747C2.11,2.761,2.2,2.79,2.2,2.861V2.89c0,0.079-0.069,0.135-0.15,0.135v0.066
			H2.017V3.026c-0.034,0-0.07-0.012-0.091-0.026C1.893,2.978,1.897,2.959,1.878,2.93L1.874,2.872h0.055
			c0,0.058,0.03,0.101,0.088,0.103V2.799C1.995,2.797,1.948,2.777,1.932,2.766c-0.017-0.01-0.05-0.05-0.05-0.07V2.652
			c0-0.059,0.07-0.116,0.135-0.117v-0.04H2.05v0.04c0.073,0.017,0.135,0.039,0.135,0.128H2.127V2.648
			c0-0.031-0.041-0.059-0.077-0.059V2.747L2.05,2.747z M1.629,2.843c0,0.071,0.01,0.163,0.04,0.205
			c0.018,0.026,0.085,0.128,0.117,0.128h0.011c0.038,0,0.065-0.022,0.092-0.022c0.031,0,0.091,0.029,0.125,0.029
			c0.041,0,0.124-0.038,0.154-0.033L2.32,3.175c0.017,0,0.103-0.106,0.103-0.146C2.456,2.98,2.44,2.94,2.434,2.886
			C2.43,2.849,2.412,2.771,2.412,2.736l-0.008-0.01C2.405,2.699,2.39,2.681,2.39,2.674V2.663H2.383V2.652
			c0-0.012-0.037-0.086-0.045-0.098C2.319,2.523,2.303,2.501,2.282,2.471C2.255,2.435,2.166,2.363,2.108,2.363H2.035
			c-0.133,0-0.216,0.074-0.275,0.149C1.733,2.547,1.693,2.601,1.681,2.646c-0.009,0.033-0.052,0.12-0.052,0.157V2.843z"/>
		<path id="_20229752" fill="#FFFFFF" d="M1.94,2.663v0.015c0,0.036,0.046,0.055,0.077,0.062V2.59H2.006
			C1.968,2.59,1.94,2.624,1.94,2.663z"/>
		<path id="_65371184" fill="#FFFFFF" d="M2.05,2.974c0.053,0,0.088-0.029,0.088-0.081v-0.01c0-0.041-0.048-0.072-0.088-0.073V2.974
			z"/>
		<path id="_63700480" d="M2.05,2.81c0.04,0,0.088,0.031,0.088,0.073v0.011c0,0.052-0.035,0.081-0.088,0.081V2.81z M1.94,2.663
			c0-0.039,0.028-0.073,0.066-0.073h0.011v0.15C1.986,2.733,1.94,2.714,1.94,2.678V2.663z M2.05,2.59
			c0.036,0,0.077,0.027,0.077,0.059v0.015h0.059c0-0.089-0.062-0.111-0.135-0.128v-0.04H2.017v0.04
			c-0.065,0-0.136,0.058-0.136,0.116v0.044c0,0.021,0.034,0.06,0.05,0.07s0.063,0.03,0.085,0.032v0.176
			C1.959,2.973,1.929,2.93,1.929,2.872H1.874L1.878,2.93c0.019,0.029,0.015,0.047,0.048,0.069c0.021,0.014,0.057,0.026,0.091,0.026
			v0.066H2.05V3.026c0.081,0,0.15-0.057,0.15-0.135v-0.03c0-0.07-0.09-0.1-0.15-0.114V2.59z"/>
	</g>
</g>
</svg>
