<?xml version="1.0" encoding="utf-8"?>
<!-- Generator: Adobe Illustrator 16.0.0, SVG Export Plug-In . SVG Version: 6.00 Build 0)  -->
<!DOCTYPE svg PUBLIC "-//W3C//DTD SVG 1.1//EN" "http://www.w3.org/Graphics/SVG/1.1/DTD/svg11.dtd">
<svg version="1.1" id="Version_1.0" xmlns="http://www.w3.org/2000/svg" xmlns:xlink="http://www.w3.org/1999/xlink" x="0px"
	 y="0px" width="612px" height="792px" viewBox="0 0 612 792" enable-background="new 0 0 612 792" xml:space="preserve">
<g id="octagon" display="none">
	<g id="outFrame" display="inline">
		<line fill="none" stroke="#0000FF" stroke-width="2" x1="220" y1="309.5" x2="306" y2="273"/>
		<line fill="none" stroke="#0000FF" stroke-width="2" x1="306" y1="273" x2="390.5" y2="309.5"/>
		<line fill="none" stroke="#0000FF" stroke-width="2" x1="390.5" y1="309.5" x2="427" y2="396"/>
		<line fill="none" stroke="#0000FF" stroke-width="2" x1="427" y1="396" x2="390.5" y2="482.5"/>
		<line fill="none" stroke="#0000FF" stroke-width="2" x1="390.5" y1="482.5" x2="306" y2="516"/>
		<line fill="none" stroke="#0000FF" stroke-width="2" x1="306" y1="516" x2="220" y2="482.5"/>
		<line fill="none" stroke="#0000FF" stroke-width="2" x1="220" y1="482.5" x2="183" y2="396"/>
		<line fill="none" stroke="#0000FF" stroke-width="2" x1="183" y1="396" x2="220" y2="309.5"/>
	</g>
	
		<line id="mod2_1_" display="inline" fill="none" stroke="#0000FF" stroke-width="2" x1="203.966" y1="445.015" x2="406.199" y2="445.295"/>
	
		<line id="mod1_1_" display="inline" fill="none" stroke="#0000FF" stroke-width="2" x1="203.966" y1="346.985" x2="406.199" y2="346.705"/>
</g>
<g id="main">
	<g transform="scale(1.2) translate(47.5 30)">
		<g transform="scale(100)">
			<path id="_42034336" d="M1.657,2.81c0-0.068,0.017-0.339,0.058-0.339c0.047,0,0.061,0.304,0.061,0.378
				c0,0.074-0.014,0.375-0.061,0.375c-0.043,0-0.058-0.268-0.058-0.336V2.81z M2.046,2.813c0-0.06-0.008-0.129-0.016-0.181
				c-0.005-0.03-0.009-0.055-0.016-0.084C2.008,2.52,1.996,2.497,1.991,2.474h0.523c0.033,0,0.061,0.282,0.061,0.345v0.067
				c0,0.063-0.027,0.339-0.061,0.339H1.991C1.996,3.202,2.006,3.178,2.013,3.15C2.02,3.125,2.025,3.097,2.03,3.069
				C2.038,3.017,2.046,2.95,2.046,2.891V2.813z M1.852,2.841c0-0.071-0.006-0.133-0.011-0.197c-0.002-0.031-0.009-0.062-0.013-0.09
				C1.822,2.522,1.81,2.498,1.804,2.474h0.131c0.022,0,0.043,0.139,0.048,0.171C1.995,2.712,1.99,2.779,1.999,2.847
				C2.003,2.886,1.99,3.013,1.985,3.052c-0.004,0.03-0.01,0.062-0.017,0.091C1.96,3.173,1.945,3.204,1.941,3.225H1.804
				c0.006-0.024,0.018-0.048,0.024-0.08c0.006-0.029,0.01-0.057,0.013-0.087c0.006-0.062,0.011-0.124,0.011-0.192V2.841z
				 M2.625,2.849c0-0.112-0.021-0.306-0.058-0.375h0.178C2.799,2.588,2.83,2.683,2.83,2.852C2.83,2.925,2.823,3,2.809,3.058
				C2.8,3.094,2.793,3.114,2.782,3.146C2.774,3.171,2.751,3.209,2.747,3.225H2.566C2.603,3.155,2.625,2.96,2.625,2.849z
				 M1.785,2.846c0-0.068-0.002-0.143-0.009-0.206C1.773,2.61,1.767,2.578,1.761,2.548c-0.007-0.034-0.02-0.055-0.026-0.079h0.039
				c0.053,0,0.067,0.273,0.067,0.348v0.072c0,0.083-0.014,0.309-0.056,0.336H1.738C1.777,3.15,1.785,2.966,1.785,2.846z
				 M1.732,2.457c-0.042,0-0.043,0.031-0.054,0.063C1.669,2.547,1.664,2.586,1.66,2.618c-0.009,0.063-0.013,0.15-0.014,0.22
				c0,0.106,0.011,0.365,0.064,0.401l0.172-0.003L2.03,3.237l0.423-0.001c0.015,0,0.06,0.027,0.067,0.036
				C2.504,3.293,2.45,3.286,2.422,3.286H2.416c-0.018,0-0.036,0.01-0.036,0.028v0.003c0,0.067,0.25,0.129,0.25,0.203
				c0,0.045-0.099,0.054-0.147,0.047C2.43,3.558,2.371,3.519,2.333,3.519c-0.11,0-0.197,0.115-0.317,0.1
				C1.924,3.608,1.901,3.455,1.76,3.455H1.732c-0.062,0-0.116,0.036-0.175,0.036c-0.029,0-0.019-0.047-0.046-0.068
				C1.487,3.405,1.463,3.401,1.428,3.395C1.379,3.387,1.262,3.389,1.262,3.339V3.333c0-0.044,0.275-0.019,0.275-0.067
				c0-0.046-0.166-0.103-0.175-0.136c0.007-0.003,0.012-0.006,0.022-0.006h0.061L1.576,3.13l0.069-0.008l0.02,0.003V3.113H1.64
				c-0.023,0-0.051,0.012-0.073,0.008c-0.024-0.003-0.053-0.002-0.08-0.002c-0.028,0-0.136-0.018-0.136,0.014
				c0,0.038,0.125,0.07,0.156,0.128C1.49,3.292,1.385,3.29,1.338,3.298c-0.031,0.005-0.062,0.005-0.08,0.023
				C1.237,3.342,1.262,3.368,1.281,3.378C1.316,3.397,1.406,3.399,1.452,3.41C1.48,3.417,1.506,3.424,1.516,3.449
				c0.009,0.022,0.012,0.054,0.046,0.054h0.003c0.044,0,0.106-0.036,0.164-0.036h0.022c0.129,0,0.141,0.154,0.256,0.161
				c0.073,0.005,0.11-0.017,0.163-0.04C2.203,3.574,2.284,3.53,2.322,3.53h0.006c0.038,0,0.069,0.022,0.101,0.032
				c0.034,0.011,0.069,0.021,0.113,0.021h0.011c0.026,0,0.047-0.004,0.066-0.011c0.026-0.009,0.024-0.02,0.023-0.05
				C2.64,3.483,2.596,3.454,2.57,3.438C2.54,3.42,2.5,3.4,2.468,3.384c-0.017-0.009-0.032-0.019-0.047-0.03
				C2.393,3.334,2.4,3.341,2.386,3.311C2.411,3.273,2.53,3.315,2.53,3.272c0-0.013-0.047-0.029-0.056-0.036L2.61,3.237l0.12-0.001
				v0.006h0.044c0.024,0,0.071-0.142,0.079-0.174C2.871,2.998,2.88,2.926,2.88,2.841c0-0.112-0.033-0.255-0.07-0.33
				C2.799,2.489,2.792,2.461,2.761,2.46c-0.033-0.001-0.067,0-0.1,0c-0.069,0-0.129,0-0.195,0H2.018H1.771L1.732,2.457L1.732,2.457z
				"/>
			<path id="_90010712" fill="#FFFFFF" stroke="#000000" stroke-width="3" stroke-miterlimit="10" d="M1.665,3.125l-0.02-0.003
				L1.576,3.131l-0.13-0.006H1.385c-0.01,0-0.016,0.002-0.022,0.006c0.009,0.033,0.175,0.09,0.175,0.136
				c0,0.048-0.275,0.022-0.275,0.067V3.34c0,0.051,0.117,0.048,0.166,0.057c0.035,0.006,0.059,0.01,0.083,0.028
				c0.027,0.021,0.017,0.068,0.046,0.068c0.059,0,0.113-0.036,0.175-0.036H1.76c0.141,0,0.164,0.152,0.256,0.164
				c0.119,0.015,0.207-0.1,0.317-0.1c0.038,0,0.097,0.039,0.151,0.047C2.531,3.573,2.63,3.564,2.63,3.519
				c0-0.074-0.25-0.136-0.25-0.203V3.314c0-0.018,0.018-0.028,0.036-0.028h0.006c0.029,0,0.082,0.007,0.097-0.014
				C2.512,3.263,2.467,3.236,2.452,3.236L2.03,3.237L1.882,3.235L1.71,3.239C1.689,3.224,1.674,3.175,1.665,3.113V3.125L1.665,3.125
				z"/>
		</g>
		<rect x="171.833" y="246.167" fill="#FFFFFF" stroke="#000000" stroke-width="3" width="105" height="78"/>
		<ellipse fill="#FFFFFF" stroke="#000000" stroke-width="3" cx="171.833" cy="285.167" rx="10" ry="39"/>
		<ellipse fill="#FFFFFF" stroke="#000000" stroke-width="3" cx="276.833" cy="284.667" rx="10" ry="39"/>
		<rect x="261.833" y="247.561" fill="#FFFFFF" width="15.2" height="74.611"/>
	</g>
	<g transform="scale(85) translate(0.72 0.73) translate(-0.66 -0.54) translate(1.36471 0.658824)">
		<path id="_65846384" fill="#FFFFFF" d="M2.118,3.49v0.107h0.089V3.4C2.196,3.408,2.118,3.479,2.118,3.49z"/>
		<polygon id="_65247944" fill="#FFFFFF" points="2.318,3.292 2.315,3.597 2.422,3.597 2.421,3.189 		"/>
		<path id="_64268320" fill="#FFFFFF" d="M2.547,3.597h0.107V3.298c0-0.011-0.094-0.098-0.107-0.107V3.597z"/>
		<path id="_64249792" fill="#FFFFFF" d="M2.761,3.597H2.85V3.499c0-0.017-0.001-0.002,0.004-0.013L2.761,3.4V3.597z"/>
		<polygon id="_94571432" fill="#FFFFFF" points="2.483,4.076 2.967,3.61 2.002,3.61 		"/>
		<path id="_94539784" d="M2.002,3.61h0.965L2.483,4.076L2.002,3.61z M2.547,3.19C2.56,3.199,2.654,3.287,2.654,3.298v0.299H2.547
			V3.19z M2.421,3.189l0.001,0.407H2.315l0.003-0.305L2.421,3.189L2.421,3.189z M2.118,3.49c0-0.011,0.078-0.081,0.089-0.089v0.197
			H2.118V3.49z M2.761,3.4l0.093,0.086C2.849,3.497,2.851,3.481,2.851,3.499v0.098h-0.09V3.4L2.761,3.4z M2.998,3.605l-0.513-0.5
			L1.974,3.604l0.511,0.498L2.998,3.605z"/>
	</g>
</g>
</svg>
