<?xml version="1.0" encoding="utf-8"?>
<!-- Generator: Adobe Illustrator 16.0.0, SVG Export Plug-In . SVG Version: 6.00 Build 0)  -->
<!DOCTYPE svg PUBLIC "-//W3C//DTD SVG 1.1//EN" "http://www.w3.org/Graphics/SVG/1.1/DTD/svg11.dtd">
<svg version="1.1" id="Version_1.0" xmlns="http://www.w3.org/2000/svg" xmlns:xlink="http://www.w3.org/1999/xlink" x="0px" y="0px"
	 width="612px" height="792px" viewBox="0 0 612 792" enable-background="new 0 0 612 792" xml:space="preserve">
<g id="octagon" display="none">
	<g id="outFrame" display="inline">
		<line fill="none" stroke="#0000FF" stroke-width="2" x1="220" y1="309.5" x2="306" y2="273"/>
		<line fill="none" stroke="#0000FF" stroke-width="2" x1="306" y1="273" x2="390.5" y2="309.5"/>
		<line fill="none" stroke="#0000FF" stroke-width="2" x1="390.5" y1="309.5" x2="427" y2="396"/>
		<line fill="none" stroke="#0000FF" stroke-width="2" x1="427" y1="396" x2="390.5" y2="482.5"/>
		<line fill="none" stroke="#0000FF" stroke-width="2" x1="390.5" y1="482.5" x2="306" y2="516"/>
		<line fill="none" stroke="#0000FF" stroke-width="2" x1="306" y1="516" x2="220" y2="482.5"/>
		<line fill="none" stroke="#0000FF" stroke-width="2" x1="220" y1="482.5" x2="183" y2="396"/>
		<line fill="none" stroke="#0000FF" stroke-width="2" x1="183" y1="396" x2="220" y2="309.5"/>
	</g>
	
		<line id="mod2_1_" display="inline" fill="none" stroke="#0000FF" stroke-width="2" x1="203.966" y1="445.015" x2="406.199" y2="445.295"/>
	
		<line id="mod1_1_" display="inline" fill="none" stroke="#0000FF" stroke-width="2" x1="203.966" y1="346.985" x2="406.199" y2="346.705"/>
</g>
<g id="main">
	<g transform="scale(100) translate(0.74 0.73)">
		<polygon id="_95654976" points="1.396,2.637 1.396,2.972 1.884,2.972 1.884,3.002 1.951,3.002 1.951,2.608 1.884,2.608 
			1.884,2.637 		"/>
		<path id="_43185824" d="M2.699,2.932C2.751,2.96,2.822,3.104,2.822,3.189c0,0.054-0.018,0.093-0.071,0.093H2.744
			c-0.033,0-0.047-0.04-0.06-0.06L2.681,3.159C2.69,3.165,2.702,3.173,2.718,3.173c0.031,0,0.048-0.024,0.048-0.056v-0.03
			C2.766,3.059,2.713,2.962,2.699,2.932z M2.059,2.75v0.003c0.202,0,0.404,0.03,0.515,0.122c0.071,0.059,0.077,0.112,0.077,0.239
			c0,0.102,0.013,0.208,0.112,0.208h0.019c0.043,0,0.071-0.065,0.071-0.108V3.192c0-0.128-0.083-0.267-0.148-0.332
			c-0.04-0.039-0.089-0.075-0.152-0.091C2.499,2.756,2.402,2.742,2.338,2.742L2.294,2.74L2.059,2.75z"/>
		<g transform="scale(1.1) translate(-0.156364 -0.116364)">
			<path id="_43399624" d="M2.603,2.753C2.617,2.784,2.67,2.881,2.67,2.91v0.03c0,0.032-0.017,0.056-0.048,0.056
				c-0.016,0-0.028-0.009-0.037-0.015l0.004,0.063c0.013,0.019,0.027,0.06,0.06,0.06h0.007c0.052,0,0.071-0.039,0.071-0.093
				C2.726,2.925,2.655,2.781,2.603,2.753z"/>
		</g>
		<path id="_96525016" d="M1.396,3.512v0.335h1.839V3.52L3.158,3.533L3.131,3.531c-0.056,0-0.091-0.017-0.123-0.041
			C2.993,3.479,2.981,3.462,2.97,3.446C2.961,3.43,2.964,3.393,2.945,3.393H2.934c-0.02,0-0.018,0.039-0.03,0.056
			C2.893,3.465,2.882,3.48,2.865,3.492C2.833,3.516,2.791,3.531,2.737,3.531H2.714c-0.079,0-0.171-0.053-0.171-0.127
			c-0.008-0.005-0.01-0.011-0.019-0.011H2.517c-0.018,0-0.02,0.037-0.028,0.053C2.48,3.462,2.464,3.48,2.451,3.491
			c-0.03,0.024-0.067,0.04-0.12,0.04H2.309c-0.088,0-0.182-0.053-0.182-0.134c-0.009-0.002-0.009-0.004-0.02-0.004H2.1
			c-0.014,0-0.015,0.037-0.027,0.055C2.06,3.469,2.055,3.476,2.035,3.491c-0.032,0.024-0.068,0.04-0.121,0.04H1.888
			c-0.088,0-0.168-0.054-0.175-0.134C1.705,3.395,1.704,3.393,1.694,3.393H1.691c-0.017,0-0.019,0.038-0.03,0.056
			C1.651,3.465,1.638,3.48,1.622,3.492C1.588,3.518,1.555,3.531,1.497,3.531H1.471C1.442,3.531,1.415,3.522,1.396,3.512L1.396,3.512
			z"/>
	</g>
	
		<ellipse transform="matrix(-0.9821 0.1886 -0.1886 -0.9821 761.3433 686.5066)" stroke="#000000" cx="348.008" cy="379.477" rx="5" ry="14.501"/>
</g>
</svg>
