<?xml version="1.0" encoding="utf-8"?>
<!-- Generator: Adobe Illustrator 16.0.0, SVG Export Plug-In . SVG Version: 6.00 Build 0)  -->
<!DOCTYPE svg PUBLIC "-//W3C//DTD SVG 1.1//EN" "http://www.w3.org/Graphics/SVG/1.1/DTD/svg11.dtd">
<svg version="1.1" id="Version_1.0" xmlns="http://www.w3.org/2000/svg" xmlns:xlink="http://www.w3.org/1999/xlink" x="0px" y="0px"
	 width="612px" height="792px" viewBox="0 0 612 792" enable-background="new 0 0 612 792" xml:space="preserve">
<g id="octagon" display="none">
	<g id="outFrame" display="inline">
		<line fill="none" stroke="#0000FF" stroke-width="2" x1="220" y1="309.5" x2="306" y2="273"/>
		<line fill="none" stroke="#0000FF" stroke-width="2" x1="306" y1="273" x2="390.5" y2="309.5"/>
		<line fill="none" stroke="#0000FF" stroke-width="2" x1="390.5" y1="309.5" x2="427" y2="396"/>
		<line fill="none" stroke="#0000FF" stroke-width="2" x1="427" y1="396" x2="390.5" y2="482.5"/>
		<line fill="none" stroke="#0000FF" stroke-width="2" x1="390.5" y1="482.5" x2="306" y2="516"/>
		<line fill="none" stroke="#0000FF" stroke-width="2" x1="306" y1="516" x2="220" y2="482.5"/>
		<line fill="none" stroke="#0000FF" stroke-width="2" x1="220" y1="482.5" x2="183" y2="396"/>
		<line fill="none" stroke="#0000FF" stroke-width="2" x1="183" y1="396" x2="220" y2="309.5"/>
	</g>
	
		<line id="mod2_1_" display="inline" fill="none" stroke="#0000FF" stroke-width="2" x1="203.966" y1="445.015" x2="406.199" y2="445.295"/>
	
		<line id="mod1_1_" display="inline" fill="none" stroke="#0000FF" stroke-width="2" x1="203.966" y1="346.985" x2="406.199" y2="346.705"/>
</g>
<g id="main">
	<g transform="scale(100) translate(0.76 0.66)">
		<path id="_96021888" fill="#FFFFFF" d="M2.37,2.722v0.016h0.238c0,0,0.114-0.102,0.119-0.108C2.696,2.584,2.638,2.538,2.559,2.538
			H2.543C2.466,2.538,2.37,2.652,2.37,2.722z"/>
		<path id="_63611392" fill="#FFFFFF" d="M2.37,2.906c0.027,0.006,0.091,0.043,0.121,0.058C2.547,2.991,2.534,3.038,2.57,3.062
			c0-0.049,0-0.097,0-0.146c0-0.062,0.018-0.084,0.022-0.124H2.37V2.906z"/>
		<path id="_65261088" fill="#FFFFFF" d="M2.667,2.906h0.378c0-0.114-0.076-0.205-0.189-0.205h-0.01
			C2.74,2.7,2.667,2.797,2.667,2.906z"/>
		<path id="_94931304" fill="#FFFFFF" d="M2.662,3.23c0,0.003,0.133,0.229,0.146,0.249H2.743v0.47h0.303V2.954H2.662V3.23z"/>
		<path id="_96394904" d="M1.727,3.938H1.532V3.403c0-0.025,0.169-0.332,0.184-0.341c0.025-0.015,0.348-0.178,0.352-0.178
			c0.013,0,0.331,0.158,0.359,0.176C2.438,3.067,2.62,3.388,2.62,3.402v0.535H2.43V3.5H1.727V3.938z M2.662,2.954h0.384v0.995H2.743
			v-0.47h0.065C2.795,3.459,2.662,3.233,2.662,3.23V2.954z M2.667,2.906C2.667,2.797,2.74,2.7,2.846,2.7h0.011
			c0.113,0,0.189,0.092,0.189,0.205H2.667V2.906z M2.37,2.792h0.222C2.588,2.833,2.57,2.854,2.57,2.916c0,0.049,0,0.097,0,0.146
			C2.534,3.038,2.547,2.991,2.491,2.963C2.461,2.949,2.397,2.912,2.37,2.906V2.792z M2.37,2.722c0-0.07,0.095-0.184,0.173-0.184
			h0.016c0.078,0,0.137,0.046,0.168,0.092C2.722,2.636,2.608,2.738,2.608,2.738H2.37V2.722z M2.073,2.76
			c-0.08,0.042-0.164,0.079-0.247,0.12C1.783,2.902,1.744,2.918,1.702,2.94c-0.07,0.035-0.057,0.017-0.1,0.078
			C1.579,3.05,1.556,3.099,1.535,3.135C1.512,3.175,1.488,3.21,1.466,3.25c-0.039,0.072-0.09,0.162-0.134,0.228h0.07V4.04H1.84
			V3.608h0.476V4.04h0.832V2.927c0-0.187-0.106-0.324-0.292-0.324H2.813C2.793,2.53,2.666,2.441,2.564,2.441h-0.01
			c-0.159,0-0.276,0.147-0.276,0.303v0.114L2.073,2.76L2.073,2.76z"/>
		<path id="_94860488" fill="#FFFFFF" d="M1.727,3.5H2.43v0.438h0.189V3.403c0-0.014-0.181-0.335-0.193-0.342
			C2.398,3.042,2.081,2.884,2.067,2.884c-0.003,0-0.326,0.163-0.352,0.178C1.701,3.071,1.532,3.378,1.532,3.403v0.535h0.195V3.5z"/>
	</g>
</g>
</svg>
