<?xml version="1.0" encoding="utf-8"?>
<!-- Generator: Adobe Illustrator 16.0.0, SVG Export Plug-In . SVG Version: 6.00 Build 0)  -->
<!DOCTYPE svg PUBLIC "-//W3C//DTD SVG 1.1//EN" "http://www.w3.org/Graphics/SVG/1.1/DTD/svg11.dtd">
<svg version="1.1" id="Version_1.0" xmlns="http://www.w3.org/2000/svg" xmlns:xlink="http://www.w3.org/1999/xlink" x="0px" y="0px"
	 width="612px" height="792px" viewBox="0 0 612 792" enable-background="new 0 0 612 792" xml:space="preserve">
<g id="octagon" display="none">
	<g id="outFrame" display="inline">
		<line fill="none" stroke="#0000FF" stroke-width="2" x1="220" y1="309.5" x2="306" y2="273"/>
		<line fill="none" stroke="#0000FF" stroke-width="2" x1="306" y1="273" x2="390.5" y2="309.5"/>
		<line fill="none" stroke="#0000FF" stroke-width="2" x1="390.5" y1="309.5" x2="427" y2="396"/>
		<line fill="none" stroke="#0000FF" stroke-width="2" x1="427" y1="396" x2="390.5" y2="482.5"/>
		<line fill="none" stroke="#0000FF" stroke-width="2" x1="390.5" y1="482.5" x2="306" y2="516"/>
		<line fill="none" stroke="#0000FF" stroke-width="2" x1="306" y1="516" x2="220" y2="482.5"/>
		<line fill="none" stroke="#0000FF" stroke-width="2" x1="220" y1="482.5" x2="183" y2="396"/>
		<line fill="none" stroke="#0000FF" stroke-width="2" x1="183" y1="396" x2="220" y2="309.5"/>
	</g>
	
		<line id="mod2_1_" display="inline" fill="none" stroke="#0000FF" stroke-width="2" x1="203.966" y1="445.015" x2="406.199" y2="445.295"/>
	
		<line id="mod1_1_" display="inline" fill="none" stroke="#0000FF" stroke-width="2" x1="203.966" y1="346.985" x2="406.199" y2="346.705"/>
</g>
<g id="main">
	<g transform="scale(100) translate(0.69 0.7)">
		<path id="_65845560" fill="#FFFFFF" d="M1.473,2.867c0.05,0.012,0.163,0.074,0.221,0.096C1.766,2.991,1.839,3.03,1.914,3.06
			c0.051,0.02,0.432,0.194,0.445,0.194c0.023,0,0.397-0.17,0.451-0.193c0.077-0.033,0.148-0.066,0.225-0.097
			C3.094,2.94,3.208,2.878,3.26,2.867V2.786H1.473V2.867L1.473,2.867z"/>
		<path id="_65375856" d="M1.473,2.917l0.891,0.387L3.26,2.917v0.795H1.473V2.917L1.473,2.917z M3.035,2.964
			C2.958,2.995,2.887,3.028,2.81,3.061C2.756,3.084,2.382,3.254,2.359,3.254c-0.013,0-0.394-0.174-0.445-0.194
			c-0.075-0.03-0.148-0.069-0.22-0.097C1.636,2.94,1.523,2.878,1.473,2.867V2.786H3.26v0.081C3.208,2.878,3.094,2.94,3.035,2.964z
			 M1.433,3.757H3.3V2.746H1.433V3.757z"/>
		<polygon id="_97984040" fill="#FFFFFF" points="1.473,3.712 3.26,3.712 3.26,2.917 2.364,3.304 1.473,2.917 		"/>
	</g>
</g>
</svg>
