<?xml version="1.0" encoding="utf-8"?>
<!-- Generator: Adobe Illustrator 16.0.0, SVG Export Plug-In . SVG Version: 6.00 Build 0)  -->
<!DOCTYPE svg PUBLIC "-//W3C//DTD SVG 1.1//EN" "http://www.w3.org/Graphics/SVG/1.1/DTD/svg11.dtd">
<svg version="1.1" id="Version_1.0" xmlns="http://www.w3.org/2000/svg" xmlns:xlink="http://www.w3.org/1999/xlink" x="0px" y="0px"
	 width="612px" height="792px" viewBox="0 0 612 792" enable-background="new 0 0 612 792" xml:space="preserve">
<g id="octagon" display="none">
	<g id="outFrame" display="inline">
		<line fill="none" stroke="#0000FF" stroke-width="2" x1="220" y1="309.5" x2="306" y2="273"/>
		<line fill="none" stroke="#0000FF" stroke-width="2" x1="306" y1="273" x2="390.5" y2="309.5"/>
		<line fill="none" stroke="#0000FF" stroke-width="2" x1="390.5" y1="309.5" x2="427" y2="396"/>
		<line fill="none" stroke="#0000FF" stroke-width="2" x1="427" y1="396" x2="390.5" y2="482.5"/>
		<line fill="none" stroke="#0000FF" stroke-width="2" x1="390.5" y1="482.5" x2="306" y2="516"/>
		<line fill="none" stroke="#0000FF" stroke-width="2" x1="306" y1="516" x2="220" y2="482.5"/>
		<line fill="none" stroke="#0000FF" stroke-width="2" x1="220" y1="482.5" x2="183" y2="396"/>
		<line fill="none" stroke="#0000FF" stroke-width="2" x1="183" y1="396" x2="220" y2="309.5"/>
	</g>
	
		<line id="mod2_1_" display="inline" fill="none" stroke="#0000FF" stroke-width="2" x1="203.966" y1="445.015" x2="406.199" y2="445.295"/>
	
		<line id="mod1_1_" display="inline" fill="none" stroke="#0000FF" stroke-width="2" x1="203.966" y1="346.985" x2="406.199" y2="346.705"/>
</g>
<g id="main">
	<g transform="scale(120) translate(0.5 0.491667)">
		<path id="_65485904" fill="#FFFFFF" d="M1.842,2.979l0.195-0.001l0.197-0.261h-0.14C2.079,2.717,1.86,2.951,1.842,2.979z"/>
		<path id="_65378808" fill="#FFFFFF" d="M2.058,2.983L2.244,3.19C2.257,3.181,2.451,2.9,2.451,2.898
			c0-0.007-0.169-0.164-0.187-0.177L2.058,2.983z"/>
		<path id="_65377104" fill="#FFFFFF" d="M1.548,3.193l0.088,0.002c0.029-0.044,0.082-0.107,0.117-0.15
			c0.034-0.04,0.107-0.109,0.129-0.142L1.824,2.9L1.548,3.193z"/>
		<path id="_65450664" fill="#FFFFFF" d="M1.661,3.195h0.558C2.214,3.177,2.042,2.999,2.028,2.999H1.837
			C1.819,2.999,1.676,3.172,1.661,3.195z"/>
		<polygon id="_65717896" fill="#FFFFFF" points="2.268,3.194 2.353,3.197 2.572,2.903 2.472,2.904 		"/>
		<path id="_95045944" d="M2.144,3.215h0.201c0.009,0,0.188,0.191,0.201,0.211H1.978C1.983,3.406,2.133,3.215,2.144,3.215z
			 M1.535,3.215h0.206c0.012,0,0.171,0.188,0.186,0.211H1.359C1.365,3.405,1.522,3.215,1.535,3.215L1.535,3.215z M1.775,3.216h0.32
			L1.952,3.422L1.775,3.216z M1.661,3.195c0.015-0.023,0.158-0.196,0.176-0.196h0.191c0.014,0,0.186,0.178,0.191,0.196H1.661z
			 M2.572,3.421L2.375,3.205l0.216-0.297l0.203,0.177L2.572,3.421L2.572,3.421z M2.472,2.904l0.1-0.001L2.353,3.197L2.268,3.194
			L2.472,2.904z M1.824,2.9l0.058,0.003C1.86,2.936,1.787,3.005,1.753,3.045c-0.036,0.043-0.088,0.106-0.117,0.15L1.548,3.193
			L1.824,2.9z M2.263,2.721C2.282,2.734,2.45,2.891,2.45,2.898c0,0.002-0.194,0.283-0.206,0.292L2.058,2.983L2.263,2.721z
			 M1.842,2.979C1.86,2.951,2.079,2.717,2.094,2.717h0.141L2.037,2.978L1.842,2.979z M1.902,2.883H1.807
			C1.781,2.921,1.717,2.985,1.682,3.02C1.639,3.064,1.6,3.112,1.557,3.156C1.529,3.184,1.324,3.422,1.319,3.441
			C1.33,3.444,1.33,3.446,1.344,3.446l1.235-0.001l0.242-0.364L2.815,3.083l-0.218-0.2H2.476c-0.032-0.021-0.2-0.186-0.216-0.186
			H2.089C2.07,2.697,1.931,2.864,1.902,2.883L1.902,2.883z"/>
		<polygon id="_95405912" fill="#FFFFFF" points="1.952,3.422 2.095,3.216 1.775,3.216 		"/>
		<polygon id="_95049136" fill="#FFFFFF" points="2.794,3.085 2.592,2.908 2.375,3.205 2.572,3.421 		"/>
		<path id="_97584424" fill="#FFFFFF" d="M1.535,3.215c-0.013,0-0.17,0.19-0.176,0.211h0.568C1.912,3.403,1.754,3.215,1.741,3.215
			H1.535L1.535,3.215z"/>
		<path id="_65835248" fill="#FFFFFF" d="M2.144,3.215c-0.011,0-0.161,0.191-0.166,0.211h0.568c-0.013-0.02-0.192-0.211-0.201-0.211
			H2.144z"/>
	</g>
	<text transform="matrix(1 0 0 1 237.2461 359.0001)" font-family="sans-serif" font-size="52">STOR</text>
</g>
</svg>
