<?xml version="1.0" encoding="utf-8"?>
<!-- Generator: Adobe Illustrator 16.0.0, SVG Export Plug-In . SVG Version: 6.00 Build 0)  -->
<!DOCTYPE svg PUBLIC "-//W3C//DTD SVG 1.1//EN" "http://www.w3.org/Graphics/SVG/1.1/DTD/svg11.dtd">
<svg version="1.1" id="Version_1.0" xmlns="http://www.w3.org/2000/svg" xmlns:xlink="http://www.w3.org/1999/xlink" x="0px" y="0px"
	 width="612px" height="792px" viewBox="0 0 612 792" enable-background="new 0 0 612 792" xml:space="preserve">
<g id="octagon" display="none">
	<g id="outFrame" display="inline">
		<line fill="none" stroke="#0000FF" stroke-width="2" x1="220" y1="309.5" x2="306" y2="273"/>
		<line fill="none" stroke="#0000FF" stroke-width="2" x1="306" y1="273" x2="390.5" y2="309.5"/>
		<line fill="none" stroke="#0000FF" stroke-width="2" x1="390.5" y1="309.5" x2="427" y2="396"/>
		<line fill="none" stroke="#0000FF" stroke-width="2" x1="427" y1="396" x2="390.5" y2="482.5"/>
		<line fill="none" stroke="#0000FF" stroke-width="2" x1="390.5" y1="482.5" x2="306" y2="516"/>
		<line fill="none" stroke="#0000FF" stroke-width="2" x1="306" y1="516" x2="220" y2="482.5"/>
		<line fill="none" stroke="#0000FF" stroke-width="2" x1="220" y1="482.5" x2="183" y2="396"/>
		<line fill="none" stroke="#0000FF" stroke-width="2" x1="183" y1="396" x2="220" y2="309.5"/>
	</g>
	
		<line id="mod2_1_" display="inline" fill="none" stroke="#0000FF" stroke-width="2" x1="203.966" y1="445.015" x2="406.199" y2="445.295"/>
	
		<line id="mod1_1_" display="inline" fill="none" stroke="#0000FF" stroke-width="2" x1="203.966" y1="346.985" x2="406.199" y2="346.705"/>
</g>
<g id="main">
	<g transform="scale(100) translate(0.76 0.81)">
		<path id="_66396568" fill="#FFFFFF" d="M2.274,2.901v0.005c0,0.029,0.046,0.059,0.068,0.06L2.397,2.84
			C2.386,2.834,2.376,2.83,2.359,2.83H2.354C2.301,2.83,2.274,2.847,2.274,2.901z"/>
		<polygon id="_97071888" points="2.841,3.062 2.977,3.113 3.005,3.063 2.861,3.005 		"/>
		<path id="_96394904" fill="#FFFFFF" d="M2.297,3.203c0.018,0.004,0.023,0.01,0.043,0.01h0.005c0.024,0,0.066-0.017,0.066-0.038
			V3.114c0-0.018-0.039-0.043-0.053-0.052L2.297,3.203z"/>
		<polygon id="_95241712" points="2.778,3.193 2.909,3.243 2.939,3.195 2.799,3.138 		"/>
		<path id="_94186552" d="M2.358,3.061C2.372,3.07,2.411,3.096,2.411,3.114v0.061c0,0.021-0.042,0.038-0.066,0.038H2.34
			c-0.02,0-0.026-0.006-0.043-0.01L2.358,3.061z M2.274,2.901c0-0.054,0.027-0.071,0.08-0.071h0.005
			c0.017,0,0.026,0.004,0.038,0.009L2.343,2.966C2.32,2.965,2.274,2.935,2.274,2.906V2.901z M2.415,2.797
			c-0.007-0.003-0.03-0.013-0.041-0.013H2.326c-0.017,0-0.062,0.014-0.073,0.022C2.245,2.811,2.218,2.859,2.218,2.868V2.91
			c0,0.053,0.094,0.105,0.094,0.123c0,0.009-0.055,0.115-0.061,0.142C2.235,3.167,2.189,3.129,2.189,3.109V3.095
			c0-0.021,0.014-0.034,0.019-0.052c-0.023-0.005-0.05-0.028-0.06-0.03C2.139,3.01,2.123,3.056,2.123,3.071V3.08
			c0,0.068,0.104,0.135,0.104,0.142c0,0.015-0.01,0.036-0.013,0.05l0.042,0.02L2.27,3.25c0.034,0.001,0.05,0.019,0.09,0.019h0.014
			c0.035,0,0.066-0.013,0.08-0.033C2.462,3.225,2.492,3.177,2.492,3.16V3.151c0-0.064-0.069-0.12-0.109-0.147l0.062-0.141h0.009
			c0.011,0.03,0.038,0.016,0.038,0.089l0.071,0.029V2.939c0-0.051-0.051-0.103-0.096-0.114l0.021-0.052L2.435,2.76L2.415,2.797z"/>
		<polygon id="_94860488" points="2.718,3.307 2.853,3.362 2.852,3.358 2.883,3.312 2.74,3.257 		"/>
		<path id="_65712592" fill="#FFFFFF" d="M2.435,2.76l0.052,0.013L2.466,2.825c0.045,0.011,0.096,0.063,0.096,0.114v0.042
			L2.491,2.953c0-0.074-0.027-0.06-0.038-0.089H2.444L2.382,3.005c0.041,0.027,0.109,0.082,0.109,0.147v0.009
			c0,0.016-0.029,0.064-0.038,0.076C2.438,3.257,2.407,3.27,2.373,3.27H2.359c-0.04,0-0.056-0.018-0.09-0.019L2.255,3.293
			l-0.042-0.02c0.003-0.014,0.013-0.035,0.013-0.05c0-0.007-0.104-0.073-0.104-0.142v-0.01c0-0.015,0.015-0.061,0.025-0.059
			c0.01,0.003,0.036,0.025,0.06,0.03C2.203,3.06,2.189,3.074,2.189,3.095v0.014c0,0.02,0.046,0.058,0.061,0.066
			c0.006-0.026,0.061-0.133,0.061-0.142c0-0.017-0.094-0.07-0.094-0.123V2.868c0-0.009,0.028-0.057,0.036-0.063
			c0.01-0.008,0.056-0.022,0.073-0.022h0.047c0.011,0,0.034,0.01,0.041,0.013L2.435,2.76z M1.89,3.146l0.666,0.322l0.275-0.603
			L2.18,2.627L1.89,3.146z"/>
		<path id="_94673800" d="M2.18,2.627l0.652,0.237L2.557,3.467L1.89,3.146L2.18,2.627z M1.868,3.156l0.694,0.335l0.292-0.642
			C2.83,2.847,2.56,2.745,2.518,2.728C2.488,2.716,2.185,2.604,2.18,2.604c-0.022,0-0.136,0.237-0.159,0.271
			C2,2.907,1.874,3.132,1.868,3.156z"/>
		<path id="_65976264" d="M2.661,3.435L2.797,3.49L2.795,3.484l0.032-0.045C2.8,3.433,2.703,3.383,2.69,3.383
			C2.68,3.383,2.662,3.422,2.661,3.435z"/>
		<polygon id="_64663240" fill="#FFFFFF" points="1.822,3.564 1.973,3.667 2.122,3.521 2.015,3.449 		"/>
		<path id="_94957312" d="M2.015,3.449l0.107,0.072L1.973,3.667L1.822,3.564L2.015,3.449z M1.788,3.562l0.185,0.123L2.151,3.52
			C2.138,3.51,2.019,3.43,2.015,3.43C1.989,3.43,1.826,3.552,1.788,3.562z"/>
		<path id="_66295920" fill="#FFFFFF" d="M1.788,3.562C1.826,3.552,1.989,3.43,2.015,3.43c0.005,0,0.123,0.08,0.137,0.09
			L1.973,3.685L1.788,3.562z M1.609,3.548c0.005,0.019,0.315,0.22,0.354,0.241c0.02-0.014,0.107-0.129,0.138-0.16
			c0.027-0.027,0.144-0.128,0.155-0.143C2.217,3.478,2.044,3.383,2.033,3.383C2.004,3.383,1.736,3.545,1.609,3.548z"/>
		<path id="_95082912" d="M1.609,3.548c0.127-0.003,0.395-0.165,0.425-0.165c0.01,0,0.184,0.095,0.222,0.104
			C2.246,3.502,2.129,3.602,2.101,3.63C2.07,3.66,1.983,3.775,1.963,3.789C1.924,3.768,1.614,3.567,1.609,3.548z M1.231,3.393
			l0.297-0.062l0.278,0.141L1.565,3.548L1.97,3.815L1.969,3.81l0.159-0.187L2.8,3.941L3.308,2.77L2.053,2.34
			C2.039,2.395,1.922,2.568,1.89,2.635c-0.02,0.044-0.057,0.11-0.082,0.149c-0.03,0.044-0.054,0.102-0.082,0.149
			C1.697,2.982,1.673,3.029,1.644,3.078C1.615,3.125,1.591,3.184,1.561,3.227C1.5,3.318,1.555,3.294,1.423,3.32
			c-0.065,0.013-0.13,0.024-0.192,0.039 M2.781,3.896L2.151,3.6L2.27,3.5l0.182,0.087l0.03-0.059L1.885,3.236v0.006L1.859,3.298
			L2.01,3.37L1.854,3.454L1.558,3.309L1.553,3.31L2.07,2.384l0.005,0.003L3.26,2.79h0.006L2.781,3.896z"/>
		<path id="_65323192" fill="#FFFFFF" d="M2.661,3.435C2.662,3.422,2.68,3.383,2.69,3.383c0.013,0,0.111,0.051,0.137,0.057
			L2.795,3.484L2.797,3.49L2.661,3.435z M2.74,3.257l0.143,0.055L2.852,3.358l0.001,0.005L2.718,3.307L2.74,3.257z M2.799,3.138
			l0.14,0.057l-0.03,0.048l-0.131-0.05L2.799,3.138z M2.861,3.005l0.145,0.058l-0.028,0.05L2.841,3.062L2.861,3.005z M1.868,3.156
			C1.874,3.132,2,2.907,2.021,2.875C2.043,2.841,2.157,2.604,2.18,2.604c0.006,0,0.308,0.112,0.338,0.124
			C2.56,2.745,2.83,2.847,2.855,2.849L2.563,3.491L1.868,3.156z M3.266,2.79H3.26L2.076,2.387L2.071,2.384L1.553,3.31l0.005-0.001
			l0.295,0.146L2.01,3.37L1.859,3.298l0.026-0.055V3.237l0.597,0.292l-0.03,0.059L2.27,3.5L2.151,3.6l0.63,0.296L3.266,2.79
			L3.266,2.79z"/>
	</g>
</g>
</svg>
