<?xml version="1.0" encoding="utf-8"?>
<!-- Generator: Adobe Illustrator 16.0.0, SVG Export Plug-In . SVG Version: 6.00 Build 0)  -->
<!DOCTYPE svg PUBLIC "-//W3C//DTD SVG 1.1//EN" "http://www.w3.org/Graphics/SVG/1.1/DTD/svg11.dtd">
<svg version="1.1" id="Version_1.0" xmlns="http://www.w3.org/2000/svg" xmlns:xlink="http://www.w3.org/1999/xlink" x="0px" y="0px"
	 width="612px" height="792px" viewBox="0 0 612 792" enable-background="new 0 0 612 792" xml:space="preserve">
<g id="octagon" display="none">
	<g id="outFrame" display="inline">
		<line fill="none" stroke="#0000FF" stroke-width="2" x1="220" y1="309.5" x2="306" y2="273"/>
		<line fill="none" stroke="#0000FF" stroke-width="2" x1="306" y1="273" x2="390.5" y2="309.5"/>
		<line fill="none" stroke="#0000FF" stroke-width="2" x1="390.5" y1="309.5" x2="427" y2="396"/>
		<line fill="none" stroke="#0000FF" stroke-width="2" x1="427" y1="396" x2="390.5" y2="482.5"/>
		<line fill="none" stroke="#0000FF" stroke-width="2" x1="390.5" y1="482.5" x2="306" y2="516"/>
		<line fill="none" stroke="#0000FF" stroke-width="2" x1="306" y1="516" x2="220" y2="482.5"/>
		<line fill="none" stroke="#0000FF" stroke-width="2" x1="220" y1="482.5" x2="183" y2="396"/>
		<line fill="none" stroke="#0000FF" stroke-width="2" x1="183" y1="396" x2="220" y2="309.5"/>
	</g>
	
		<line id="mod2_1_" display="inline" fill="none" stroke="#0000FF" stroke-width="2" x1="203.966" y1="445.015" x2="406.199" y2="445.295"/>
	
		<line id="mod1_1_" display="inline" fill="none" stroke="#0000FF" stroke-width="2" x1="203.966" y1="346.985" x2="406.199" y2="346.705"/>
</g>
<g id="main">
	<g transform="scale(100) translate(0.65 0.64)">
		<path id="_98251192" fill="#1F1A17" d="M2.292,3.342L2.243,3.271L2.185,3.272L2.292,3.342z M1.555,3.786
			c0-0.013,0.021-0.023,0.035-0.023h0.788c0.021,0,0.033,0.015,0.035,0.035C2.398,3.801,2.388,3.806,2.37,3.806H1.601
			c-0.016,0-0.046,0-0.046-0.015V3.786z M1.789,3.532l0.377,0.001L2.37,3.537c0.012,0.022,0.049,0.076,0.046,0.107L2.411,3.709
			C2.399,3.713,2.399,3.717,2.385,3.717H1.578c-0.014,0-0.013-0.005-0.027-0.008C1.549,3.691,1.543,3.685,1.543,3.663V3.648
			c0-0.027,0.038-0.087,0.05-0.111L1.789,3.532z M1.643,3.483C1.645,3.455,1.73,3.306,1.751,3.306h0.461
			c0.025,0,0.099,0.145,0.108,0.177H1.643z M2.185,3.272l0.058-0.001l0.049,0.071L2.185,3.272z M3.292,3.967V2.66
			C3.268,2.666,3.035,2.81,2.994,2.834c-0.033,0.02-0.29,0.163-0.29,0.179c0,0,0.032,0.053,0.035,0.058l0.123-0.07v0.481L2.853,3.49
			C2.781,3.441,2.018,2.941,2.012,2.941c-0.003,0-0.097,0.14-0.1,0.154l0.27,0.175L1.724,3.271C1.701,3.306,1.677,3.33,1.655,3.367
			c-0.005,0.008-0.05,0.111-0.05,0.115v0.019H1.574C1.572,3.523,1.509,3.617,1.509,3.636v0.019c0,0.037,0.01,0.072,0.035,0.085
			C1.538,3.748,1.52,3.767,1.52,3.779v0.023c0,0.028,0.038,0.038,0.065,0.038v0.058l0.004,0.05c0.013,0.005,0.008,0.012,0.03,0.015
			c0.016,0.002,0.024,0.004,0.042,0.004h0.027L1.73,3.963l0.007-0.008l0.005-0.049l0.001-0.062H2.22v0.077
			c0,0.021,0.008,0.029,0.015,0.042L2.27,3.968l0.031-0.001c0.042,0,0.077-0.003,0.077-0.046V3.844
			c0.021-0.005,0.065-0.012,0.065-0.035V3.767c0-0.013-0.012-0.017-0.023-0.019c0.003-0.013,0.03-0.027,0.03-0.062v-0.05
			c0-0.037-0.053-0.103-0.062-0.135h-0.03V3.49c0-0.028-0.054-0.119-0.062-0.146l0.475,0.312C2.761,3.695,2.72,3.755,2.72,3.786
			v0.181H3.292L3.292,3.967z"/>
		<path id="_99217032" fill="#FFFFFF" d="M1.643,3.483H2.32C2.311,3.451,2.237,3.306,2.212,3.306H1.751
			C1.73,3.306,1.645,3.455,1.643,3.483z"/>
		<path id="_230953256" d="M2.297,3.679H2.293c-0.027,0-0.046-0.017-0.046-0.042V3.625c0-0.025,0.014-0.046,0.038-0.046h0.012
			c0.024,0,0.038,0.027,0.038,0.05C2.335,3.656,2.323,3.679,2.297,3.679z M2.22,3.617v0.027c0,0.026,0.039,0.062,0.073,0.062
			c0.036,0,0.065-0.033,0.065-0.069v-0.02c0-0.029-0.032-0.065-0.062-0.065H2.293C2.258,3.552,2.22,3.586,2.22,3.617z"/>
		<path id="_42189704" fill="#FFFFFF" d="M1.628,3.621v0.023c0,0.015,0.024,0.035,0.042,0.035h0.004
			c0.016,0,0.038-0.019,0.038-0.031V3.617c0-0.019-0.019-0.038-0.038-0.038H1.662C1.648,3.579,1.628,3.604,1.628,3.621z"/>
		<path id="_43365128" fill="#FFFFFF" d="M2.297,3.679c0.027,0,0.038-0.023,0.038-0.05c0-0.023-0.014-0.05-0.038-0.05H2.285
			c-0.024,0-0.038,0.021-0.038,0.046v0.012c0,0.025,0.019,0.042,0.046,0.042H2.297L2.297,3.679z"/>
		<path id="_230929656" d="M1.628,3.621c0-0.017,0.02-0.042,0.035-0.042h0.012c0.019,0,0.038,0.019,0.038,0.038v0.031
			c0,0.012-0.023,0.031-0.038,0.031H1.67c-0.019,0-0.042-0.019-0.042-0.035V3.621L1.628,3.621z M1.601,3.633V3.64
			c0,0.031,0.038,0.065,0.073,0.065c0.033,0,0.069-0.038,0.069-0.062V3.617c0-0.029-0.036-0.065-0.069-0.065
			C1.632,3.552,1.601,3.592,1.601,3.633z"/>
		<path id="_42155152" fill="#FFFFFF" d="M2.22,3.617c0-0.031,0.038-0.065,0.073-0.065h0.004c0.03,0,0.062,0.036,0.062,0.065v0.019
			c0,0.036-0.029,0.069-0.065,0.069c-0.034,0-0.073-0.036-0.073-0.062V3.617H2.22z M1.601,3.633c0-0.04,0.031-0.081,0.073-0.081
			c0.033,0,0.069,0.037,0.069,0.065v0.027c0,0.023-0.036,0.062-0.069,0.062c-0.035,0-0.073-0.034-0.073-0.065V3.633z M1.593,3.537
			c-0.012,0.024-0.05,0.084-0.05,0.111v0.015c0,0.022,0.006,0.027,0.008,0.046c0.013,0.003,0.013,0.008,0.027,0.008h0.807
			c0.014,0,0.013-0.005,0.026-0.008l0.005-0.065C2.418,3.613,2.382,3.559,2.37,3.537L2.166,3.533L1.789,3.532L1.593,3.537z"/>
		<path id="_238692352" fill="#FFFFFF" d="M1.555,3.786V3.79c0,0.015,0.03,0.015,0.046,0.015H2.37c0.018,0,0.028-0.004,0.042-0.008
			C2.41,3.778,2.398,3.763,2.377,3.763H1.589C1.576,3.763,1.555,3.773,1.555,3.786z"/>
		<rect id="_40876200" x="2.952" y="3.125" fill="#FFFFFF" stroke="#1F1A17" stroke-width="0.003" width="0.271" height="0.403"/>
		<ellipse id="_100514776" fill="#FFFFFF" stroke="#1F1A17" stroke-width="0.003" cx="2.017" cy="3.059" rx="0.045" ry="0.04"/>
		<ellipse id="_42175408" fill="#FFFFFF" stroke="#1F1A17" stroke-width="0.003" cx="2.162" cy="3.152" rx="0.045" ry="0.04"/>
		<ellipse id="_41153192" fill="#FFFFFF" stroke="#1F1A17" stroke-width="0.003" cx="2.578" cy="3.426" rx="0.045" ry="0.04"/>
		<ellipse id="_100723592" fill="#FFFFFF" stroke="#1F1A17" stroke-width="0.003" cx="2.298" cy="3.241" rx="0.045" ry="0.04"/>
		<ellipse id="_100505816" fill="#FFFFFF" stroke="#1F1A17" stroke-width="0.003" cx="2.436" cy="3.333" rx="0.045" ry="0.04"/>
		<ellipse id="_42439480" fill="#FFFFFF" stroke="#1F1A17" stroke-width="0.003" cx="2.717" cy="3.512" rx="0.045" ry="0.04"/>
	</g>
</g>
</svg>
