<?xml version="1.0" encoding="utf-8"?>
<!-- Generator: Adobe Illustrator 16.0.0, SVG Export Plug-In . SVG Version: 6.00 Build 0)  -->
<!DOCTYPE svg PUBLIC "-//W3C//DTD SVG 1.1//EN" "http://www.w3.org/Graphics/SVG/1.1/DTD/svg11.dtd">
<svg version="1.1" id="Version_1.0" xmlns="http://www.w3.org/2000/svg" xmlns:xlink="http://www.w3.org/1999/xlink" x="0px" y="0px"
	 width="612px" height="792px" viewBox="0 0 612 792" enable-background="new 0 0 612 792" xml:space="preserve">
<g id="octagon" display="none">
	<g id="outFrame" display="inline">
		<line fill="none" stroke="#0000FF" stroke-width="2" x1="220" y1="309.5" x2="306" y2="273"/>
		<line fill="none" stroke="#0000FF" stroke-width="2" x1="306" y1="273" x2="390.5" y2="309.5"/>
		<line fill="none" stroke="#0000FF" stroke-width="2" x1="390.5" y1="309.5" x2="427" y2="396"/>
		<line fill="none" stroke="#0000FF" stroke-width="2" x1="427" y1="396" x2="390.5" y2="482.5"/>
		<line fill="none" stroke="#0000FF" stroke-width="2" x1="390.5" y1="482.5" x2="306" y2="516"/>
		<line fill="none" stroke="#0000FF" stroke-width="2" x1="306" y1="516" x2="220" y2="482.5"/>
		<line fill="none" stroke="#0000FF" stroke-width="2" x1="220" y1="482.5" x2="183" y2="396"/>
		<line fill="none" stroke="#0000FF" stroke-width="2" x1="183" y1="396" x2="220" y2="309.5"/>
	</g>
	
		<line id="mod2_1_" display="inline" fill="none" stroke="#0000FF" stroke-width="2" x1="203.966" y1="445.015" x2="406.199" y2="445.295"/>
	
		<line id="mod1_1_" display="inline" fill="none" stroke="#0000FF" stroke-width="2" x1="203.966" y1="346.985" x2="406.199" y2="346.705"/>
</g>
<g id="main">
	<g transform="scale(115) translate(0.521739 0.252174)">
		<path id="_98139752" d="M1.821,2.503v0.038c0,0.013,0.021,0.045,0.03,0.054C1.864,2.607,1.89,2.621,1.913,2.621h0.021
			c0.044,0,0.092-0.047,0.092-0.088v-0.03c0-0.035-0.054-0.084-0.097-0.084H1.913C1.874,2.419,1.821,2.467,1.821,2.503z"/>
		<path id="_100133920" d="M2.438,2.843v0.034c0,0.033,0.051,0.084,0.092,0.084h0.017c0.046,0,0.092-0.05,0.092-0.097V2.848
			c0-0.048-0.048-0.092-0.097-0.092H2.539C2.488,2.755,2.438,2.799,2.438,2.843z"/>
		<path id="_100133944" d="M1.779,3.053c0-0.048,0.071-0.105,0.097-0.143c0.03,0.021,0.031,0.04,0.074,0.061
			c0.03,0.015,0.056,0.03,0.088,0.042c0.053,0.02,0.048-0.003,0.093,0.042c0.02,0.02,0.04,0.054,0.077,0.054
			c0.008,0,0.017-0.017,0.017-0.029V3.057c0-0.061-0.071-0.079-0.116-0.098C2.06,2.94,1.994,2.924,1.977,2.876
			c-0.018-0.051-0.048-0.1-0.064-0.15c-0.015-0.046-0.041-0.11-0.1-0.11H1.804c-0.066,0-0.16,0.164-0.176,0.227
			C1.616,2.894,1.594,2.946,1.583,3C1.572,3.06,1.57,3.113,1.559,3.173c-0.007,0.04,0.002,0.05-0.013,0.088
			C1.537,3.287,1.528,3.31,1.519,3.334C1.5,3.383,1.482,3.434,1.465,3.482C1.448,3.527,1.359,3.739,1.359,3.775
			c0,0.056,0.135,0.028,0.168,0.025C1.526,3.759,1.478,3.766,1.46,3.742c0.045-0.067,0.082-0.137,0.125-0.207
			c0.022-0.036,0.1-0.2,0.118-0.213C1.717,3.331,1.769,3.39,1.786,3.407c0.042,0.042,0.043,0.04,0.06,0.104
			C1.87,3.603,1.888,3.678,1.888,3.796l0.038,0.005L2.018,3.8c0.028,0,0.039-0.004,0.05-0.021C2.054,3.757,2,3.741,1.968,3.733
			V3.708c0-0.009-0.003-0.009-0.008-0.017V3.427C1.927,3.378,1.896,3.32,1.861,3.273C1.836,3.239,1.779,3.16,1.779,3.108V3.053
			L1.779,3.053z"/>
		<path id="_43666704" d="M2.304,3.515V3.511c0-0.338,0.487-0.319,0.487-0.013v0.029c0,0.118-0.116,0.227-0.235,0.227H2.543
			C2.414,3.754,2.304,3.644,2.304,3.515z M2.27,3.032h0.101V3.25c0,0-0.07,0.072-0.083,0.094C2.278,3.362,2.24,3.447,2.24,3.469
			v0.05c0,0.148,0.143,0.298,0.29,0.298h0.021c0.125,0,0.234-0.109,0.239-0.109h0.155V3.666h-0.07
			c0.005-0.01,0.017-0.029,0.017-0.042V3.385c0-0.042-0.021-0.071-0.046-0.088H2.774L2.756,3.281
			c0.023-0.006,0.043-0.02,0.043-0.047V3.225c0-0.01-0.021-0.038-0.034-0.038H2.656V3.07c0-0.058-0.033-0.092-0.092-0.092H2.518
			c-0.128,0-0.101,0.127-0.101,0.252L2.405,3.239V3.003C2.397,2.998,2.397,2.995,2.388,2.995H2.27V3.032z"/>
	</g>
</g>
</svg>
