<?xml version="1.0" encoding="utf-8"?>
<!-- Generator: Adobe Illustrator 16.0.0, SVG Export Plug-In . SVG Version: 6.00 Build 0)  -->
<!DOCTYPE svg PUBLIC "-//W3C//DTD SVG 1.1//EN" "http://www.w3.org/Graphics/SVG/1.1/DTD/svg11.dtd">
<svg version="1.1" id="Version_1.0" xmlns="http://www.w3.org/2000/svg" xmlns:xlink="http://www.w3.org/1999/xlink" x="0px" y="0px"
	 width="612px" height="792px" viewBox="0 0 612 792" enable-background="new 0 0 612 792" xml:space="preserve">
<g id="octagon" display="none">
	<g id="outFrame" display="inline">
		<line fill="none" stroke="#0000FF" stroke-width="2" x1="220" y1="309.5" x2="306" y2="273"/>
		<line fill="none" stroke="#0000FF" stroke-width="2" x1="306" y1="273" x2="390.5" y2="309.5"/>
		<line fill="none" stroke="#0000FF" stroke-width="2" x1="390.5" y1="309.5" x2="427" y2="396"/>
		<line fill="none" stroke="#0000FF" stroke-width="2" x1="427" y1="396" x2="390.5" y2="482.5"/>
		<line fill="none" stroke="#0000FF" stroke-width="2" x1="390.5" y1="482.5" x2="306" y2="516"/>
		<line fill="none" stroke="#0000FF" stroke-width="2" x1="306" y1="516" x2="220" y2="482.5"/>
		<line fill="none" stroke="#0000FF" stroke-width="2" x1="220" y1="482.5" x2="183" y2="396"/>
		<line fill="none" stroke="#0000FF" stroke-width="2" x1="183" y1="396" x2="220" y2="309.5"/>
	</g>
	
		<line id="mod2_1_" display="inline" fill="none" stroke="#0000FF" stroke-width="2" x1="203.966" y1="445.015" x2="406.199" y2="445.295"/>
	
		<line id="mod1_1_" display="inline" fill="none" stroke="#0000FF" stroke-width="2" x1="203.966" y1="346.985" x2="406.199" y2="346.705"/>
</g>
<g id="main">
	<text transform="matrix(1 0 0 1 257 333)" font-family="sans-serif" font-size="52">REL</text>
	<path fill="#FFFFFF" stroke="#000000" stroke-width="4" d="M266.81,425.467c-4.079,1.021-30.313-2.496-31.81,0
		c-3.522,5.87,12.62,9.851,12,16.666c-0.62,6.821-26.769,5-27.333,8.667c-1.73,11.244,54.028,18.209,60,20
		c11.033,3.311,14.489,13.345,26.666,16.667c13.019,3.551,30.872-12.56,46-11.334c3.214,0.262,23.762,7.096,27.334,4
		c13.535-11.729-22.724-20.949-27.334-27.333c-6.435-8.909,35.087-10.044-4.285-18.189"/>
	
		<g transform="matrix(6.12303e-017 1 -1 6.12303e-017 273.25 -56.75) translate(121.333 -50) translate(1 0) translate(1 0) translate(0 -1) translate(1 0) translate(-1 0) translate(1 0) translate(1 0)">
		
			<rect x="292.499" y="-35.5" transform="matrix(2.578893e-006 1 -1 2.578893e-006 348.4982 -314.4991)" fill="#FFFFFF" stroke="#000000" stroke-width="3" width="78" height="105"/>
		
			<ellipse transform="matrix(2.578893e-006 1 -1 2.578893e-006 295.9988 -261.9995)" fill="#FFFFFF" stroke="#000000" stroke-width="3" cx="279" cy="17" rx="39" ry="10"/>
		
			<ellipse transform="matrix(2.578893e-006 1 -1 2.578893e-006 400.498 -367.4991)" fill="#FFFFFF" stroke="#000000" stroke-width="3" cx="383.999" cy="16.5" rx="39" ry="10"/>
		
			<rect x="339.293" y="9.1" transform="matrix(2.578893e-006 1 -1 2.578893e-006 393.2983 -359.899)" fill="#FFFFFF" width="74.611" height="15.2"/>
	</g>
	
		<g transform="scale(85) translate(0.72 0.73) translate(-0.66 -0.54) translate(1.36471 0.658824) translate(0.0117647 0) translate(0.0117647 0) translate(0.0117647 0) translate(0.0117647 0) translate(0 0.0117647) translate(0 0.0117647) translate(0 0.0117647) translate(0 0.0117647) translate(0 0.0117647) translate(0 0.0117647) translate(0.0117647 0) translate(0 0.0117647) translate(0 0.0117647) translate(0 0.0117647) translate(0 0.0117647) translate(0 -0.0117647) translate(-2.28235 -1.50588) translate(1.82745 1.59216) translate(0.761902 0.857813) scale(0.838549 0.838549) translate(-0.761902 -0.857813) translate(0.0140298 0) translate(0.0140298 0) translate(0.0140298 0) translate(0.0140298 0) translate(0.0140298 0) translate(0.0140298 0) translate(0.0140298 0) translate(0.0140298 0) translate(0 0.0140298) translate(0 0.0140298) translate(0 0.0140298) translate(0 0.0140298) translate(0 0.0140298) translate(0 0.0140298) translate(0 0.0140298) translate(0.0140298 0) translate(0 0.0140298) translate(0 -0.0140298) translate(0 0.0140298) translate(0 0.0140298) translate(0 0.0140298) translate(0 0.0140298) translate(0 0.0140298) translate(0 0.0140298)">
		<path id="_65846384" fill="#FFFFFF" d="M2.436,3.95v0.107h0.089V3.861C2.513,3.869,2.436,3.939,2.436,3.95z"/>
		<polygon id="_65247944" fill="#FFFFFF" points="2.635,3.752 2.632,4.057 2.74,4.057 2.739,3.65 		"/>
		<path id="_64268320" fill="#FFFFFF" d="M2.865,4.057h0.107V3.758c0-0.011-0.094-0.098-0.107-0.107V4.057z"/>
		<path id="_64249792" fill="#FFFFFF" d="M3.079,4.057h0.089V3.959c0-0.017-0.001-0.002,0.004-0.013L3.079,3.861V4.057z"/>
		<polygon id="_94571432" fill="#FFFFFF" points="2.801,4.537 3.284,4.071 2.319,4.071 		"/>
		<path id="_94539784" d="M2.319,4.071h0.965L2.801,4.537L2.319,4.071z M2.865,3.651C2.878,3.66,2.972,3.747,2.972,3.758v0.299
			H2.865V3.651z M2.739,3.65L2.74,4.057H2.632l0.003-0.305L2.739,3.65L2.739,3.65z M2.436,3.95c0-0.011,0.078-0.081,0.089-0.089
			v0.197H2.436V3.95z M3.079,3.861l0.093,0.086C3.167,3.958,3.168,3.942,3.168,3.959v0.098H3.079V3.861z M3.315,4.066l-0.512-0.5
			L2.291,4.065l0.511,0.498L3.315,4.066z"/>
	</g>
	<path fill="none" stroke="#000000" d="M359.707,437.609l-4.572-1.429"/>
</g>
</svg>
