<?xml version="1.0" encoding="utf-8"?>
<!-- Generator: Adobe Illustrator 16.0.0, SVG Export Plug-In . SVG Version: 6.00 Build 0)  -->
<!DOCTYPE svg PUBLIC "-//W3C//DTD SVG 1.1//EN" "http://www.w3.org/Graphics/SVG/1.1/DTD/svg11.dtd">
<svg version="1.1" id="Version_1.0" xmlns="http://www.w3.org/2000/svg" xmlns:xlink="http://www.w3.org/1999/xlink" x="0px" y="0px"
	 width="612px" height="792px" viewBox="0 0 612 792" enable-background="new 0 0 612 792" xml:space="preserve">
<g id="octagon" display="none">
	<g id="outFrame" display="inline">
		<line fill="none" stroke="#0000FF" stroke-width="2" x1="220" y1="309.5" x2="306" y2="273"/>
		<line fill="none" stroke="#0000FF" stroke-width="2" x1="306" y1="273" x2="390.5" y2="309.5"/>
		<line fill="none" stroke="#0000FF" stroke-width="2" x1="390.5" y1="309.5" x2="427" y2="396"/>
		<line fill="none" stroke="#0000FF" stroke-width="2" x1="427" y1="396" x2="390.5" y2="482.5"/>
		<line fill="none" stroke="#0000FF" stroke-width="2" x1="390.5" y1="482.5" x2="306" y2="516"/>
		<line fill="none" stroke="#0000FF" stroke-width="2" x1="306" y1="516" x2="220" y2="482.5"/>
		<line fill="none" stroke="#0000FF" stroke-width="2" x1="220" y1="482.5" x2="183" y2="396"/>
		<line fill="none" stroke="#0000FF" stroke-width="2" x1="183" y1="396" x2="220" y2="309.5"/>
	</g>
	
		<line id="mod2_1_" display="inline" fill="none" stroke="#0000FF" stroke-width="2" x1="203.966" y1="445.015" x2="406.199" y2="445.295"/>
	
		<line id="mod1_1_" display="inline" fill="none" stroke="#0000FF" stroke-width="2" x1="203.966" y1="346.985" x2="406.199" y2="346.705"/>
</g>
<g id="main">
	<g transform="scale(100) translate(0.75 0.75)">
		<path id="_65376456" d="M2.484,3.117V2.933c0.053,0.001,0.102,0.036,0.102,0.09v0.004C2.586,3.08,2.539,3.117,2.484,3.117z
			 M2.366,2.776c0-0.051,0.025-0.086,0.074-0.086h0.012v0.165C2.408,2.853,2.366,2.822,2.366,2.776z M2.453,2.635H2.429
			C2.364,2.635,2.3,2.707,2.3,2.776V2.8c0,0.028,0.033,0.07,0.053,0.084c0.028,0.019,0.062,0.029,0.1,0.038v0.196
			C2.389,3.102,2.351,3.076,2.351,2.999h-0.06l0.005,0.063C2.319,3.096,2.31,3.115,2.35,3.141c0.027,0.018,0.06,0.031,0.103,0.031
			v0.071h0.031V3.172c0.076,0,0.161-0.057,0.161-0.125V2.984c0-0.072-0.1-0.107-0.161-0.121V2.69c0.049,0,0.085,0.034,0.086,0.082
			h0.067c0-0.081-0.07-0.137-0.153-0.137V2.588H2.453V2.635z"/>
		<path id="_66403824" d="M2.413,3.603l-0.245-0.52L2.02,3.443L1.888,3.281l-0.333,0.31l0.022,0.025V3.62l0.31-0.283l0.138,0.176
			h0.008C2.034,3.487,2.09,3.374,2.102,3.338C2.11,3.312,2.129,3.277,2.139,3.254c0.008-0.019,0.023-0.077,0.038-0.081L2.412,3.68
			l0.002,0.004L2.848,3l0.004,0.003l0.201,0.389L3.087,3.38L2.852,2.929C2.849,2.941,2.659,3.232,2.635,3.268
			C2.609,3.308,2.43,3.598,2.413,3.603z"/>
		<polygon id="_63700480" points="1.465,3.818 3.15,3.818 3.15,3.783 1.481,3.783 1.489,3.783 1.489,2.607 1.465,2.607 		"/>
	</g>
</g>
</svg>
