<?xml version="1.0" encoding="utf-8"?>
<!-- Generator: Adobe Illustrator 16.0.0, SVG Export Plug-In . SVG Version: 6.00 Build 0)  -->
<!DOCTYPE svg PUBLIC "-//W3C//DTD SVG 1.1//EN" "http://www.w3.org/Graphics/SVG/1.1/DTD/svg11.dtd">
<svg version="1.1" id="Version_1.0" xmlns="http://www.w3.org/2000/svg" xmlns:xlink="http://www.w3.org/1999/xlink" x="0px" y="0px"
	 width="612px" height="792px" viewBox="0 0 612 792" enable-background="new 0 0 612 792" xml:space="preserve">
<g id="octagon" display="none">
	<g id="outFrame" display="inline">
		<line fill="none" stroke="#0000FF" stroke-width="2" x1="220" y1="309.5" x2="306" y2="273"/>
		<line fill="none" stroke="#0000FF" stroke-width="2" x1="306" y1="273" x2="390.5" y2="309.5"/>
		<line fill="none" stroke="#0000FF" stroke-width="2" x1="390.5" y1="309.5" x2="427" y2="396"/>
		<line fill="none" stroke="#0000FF" stroke-width="2" x1="427" y1="396" x2="390.5" y2="482.5"/>
		<line fill="none" stroke="#0000FF" stroke-width="2" x1="390.5" y1="482.5" x2="306" y2="516"/>
		<line fill="none" stroke="#0000FF" stroke-width="2" x1="306" y1="516" x2="220" y2="482.5"/>
		<line fill="none" stroke="#0000FF" stroke-width="2" x1="220" y1="482.5" x2="183" y2="396"/>
		<line fill="none" stroke="#0000FF" stroke-width="2" x1="183" y1="396" x2="220" y2="309.5"/>
	</g>
	
		<line id="mod2_1_" display="inline" fill="none" stroke="#0000FF" stroke-width="2" x1="203.966" y1="445.015" x2="406.199" y2="445.295"/>
	
		<line id="mod1_1_" display="inline" fill="none" stroke="#0000FF" stroke-width="2" x1="203.966" y1="346.985" x2="406.199" y2="346.705"/>
</g>
<g id="main">
	<g transform="scale(120) translate(1.02222 0.988889) translate(-0.458333 -0.666667)">
		<path id="_65378808" fill="none" d="M1.937,2.779C1.97,2.782,2.041,2.814,2.075,2.825c0.032,0.01,0.118-0.019,0.162-0.019V2.645
			h-0.3V2.779z"/>
		<path id="_63583088" d="M1.937,2.645h0.3v0.161c-0.044,0-0.129,0.029-0.162,0.019C2.041,2.814,1.97,2.782,1.937,2.779V2.645z
			 M1.405,2.645h0.46V2.81c0,0.017,0.083,0.039,0.101,0.046c0.01,0.004,0.108,0.039,0.109,0.041l0.199-0.024l0.021,0.075
			l0.029,0.103c0.007,0.011,0.027,0.066,0.027,0.085V3.14c0,0.031-0.018,0.053-0.018,0.098h0.376L2.686,3.156L2.67,3.107
			L2.586,2.828c-0.007-0.01-0.013-0.019-0.013-0.036c0-0.035,0.108-0.115,0.129-0.147L2.626,2.413H1.405V2.645L1.405,2.645z"/>
	</g>
	<path fill="#FFFFFF" stroke="#000000" stroke-width="4" d="M319.778,407.339l-20.889-16.445l-78.222-0.888l0.889,64.889L302,454.45
		l18.222-21.778L319.778,407.339z"/>
	<line fill="none" stroke="#000000" stroke-width="2" x1="307" y1="424" x2="327" y2="372"/>
	<text transform="matrix(1 0 0 1 251 442)" font-family="sans-serif" font-size="55">$</text>
</g>
</svg>
