<?xml version="1.0" encoding="utf-8"?>
<!-- Generator: Adobe Illustrator 16.0.0, SVG Export Plug-In . SVG Version: 6.00 Build 0)  -->
<!DOCTYPE svg PUBLIC "-//W3C//DTD SVG 1.1//EN" "http://www.w3.org/Graphics/SVG/1.1/DTD/svg11.dtd">
<svg version="1.1" id="Version_1.0" xmlns="http://www.w3.org/2000/svg" xmlns:xlink="http://www.w3.org/1999/xlink" x="0px" y="0px"
	 width="612px" height="792px" viewBox="0 0 612 792" enable-background="new 0 0 612 792" xml:space="preserve">
<g id="octagon" display="none">
	<g id="outFrame" display="inline">
		<line fill="none" stroke="#0000FF" stroke-width="2" x1="220" y1="309.5" x2="306" y2="273"/>
		<line fill="none" stroke="#0000FF" stroke-width="2" x1="306" y1="273" x2="390.5" y2="309.5"/>
		<line fill="none" stroke="#0000FF" stroke-width="2" x1="390.5" y1="309.5" x2="427" y2="396"/>
		<line fill="none" stroke="#0000FF" stroke-width="2" x1="427" y1="396" x2="390.5" y2="482.5"/>
		<line fill="none" stroke="#0000FF" stroke-width="2" x1="390.5" y1="482.5" x2="306" y2="516"/>
		<line fill="none" stroke="#0000FF" stroke-width="2" x1="306" y1="516" x2="220" y2="482.5"/>
		<line fill="none" stroke="#0000FF" stroke-width="2" x1="220" y1="482.5" x2="183" y2="396"/>
		<line fill="none" stroke="#0000FF" stroke-width="2" x1="183" y1="396" x2="220" y2="309.5"/>
	</g>
	
		<line id="mod2_1_" display="inline" fill="none" stroke="#0000FF" stroke-width="2" x1="203.966" y1="445.015" x2="406.199" y2="445.295"/>
	
		<line id="mod1_1_" display="inline" fill="none" stroke="#0000FF" stroke-width="2" x1="203.966" y1="346.985" x2="406.199" y2="346.705"/>
</g>
<g id="main">
	<g transform="scale(100) translate(0.85 0.74)">
		<path id="_150321544" d="M1.566,2.498v0.016c0,0.107,0.092,0.198,0.203,0.198h0.005c0.092,0,0.192-0.091,0.192-0.176V2.481
			c0-0.079-0.097-0.17-0.187-0.17H1.748C1.662,2.311,1.566,2.41,1.566,2.498z"/>
		<path id="_146307440" d="M2.698,3.695c0-0.157,0.057-0.204,0.097-0.315c0.024-0.066,0.04-0.082,0.046-0.163
			C2.845,3.157,2.863,3.1,2.863,3.036V2.97c0-0.064-0.056-0.222-0.083-0.263c-0.033-0.05-0.121-0.135-0.168-0.172
			c-0.056-0.044-0.134-0.116-0.206-0.14C2.367,2.383,2.161,2.334,2.121,2.338L1.978,2.352v0.02c0,0.019,0.05,0.067,0.06,0.082
			c0,0.083,0.021,0.171-0.033,0.209C1.95,2.703,1.936,2.749,1.911,2.82C1.902,2.844,1.889,2.897,1.886,2.921
			c-0.004,0.026-0.005,0.1-0.011,0.115C1.848,3.097,1.809,3.141,1.781,3.195L1.654,3.207C1.601,3.286,1.539,3.31,1.539,3.448v0.659
			c0.016,0.004,0.009,0.005,0.022,0.005c0.012,0,0.007-0.002,0.022-0.005V3.42c0-0.018,0.02-0.075,0.027-0.088
			c0.009,0.006,0.02,0.016,0.033,0.016c0.007,0,0.027-0.008,0.033-0.011L1.741,3.36l0.021-0.014l0.014,0.062
			C1.785,3.416,1.785,3.42,1.797,3.42h0.011c0.013,0,0.016-0.004,0.016-0.016V3.393c0-0.024-0.029-0.075-0.038-0.093
			c0.03-0.062,0.158-0.066,0.205-0.146C2.014,3.115,2.036,3.08,2.055,3.041c0.011-0.022,0.058-0.103,0.06-0.11h0.11
			c0.058,0,0.053,0.063,0.065,0.105C2.305,3.085,2.34,3.087,2.34,3.15c0,0.07-0.072,0.174-0.1,0.224
			C2.232,3.392,2.143,3.593,2.143,3.596v0.049c0,0.075,0.066,0.228,0.066,0.28V3.98c-0.029,0.007-0.17,0.061-0.17,0.088
			c0,0.007,0.011,0.016,0.022,0.016h0.17c0.058,0,0.112-0.026,0.165-0.027V3.981c0-0.014-0.027-0.054-0.027-0.093
			C2.347,3.855,2.325,3.739,2.325,3.684c0-0.079,0.03-0.136,0.062-0.186c0.063-0.1,0.01-0.058,0.114-0.127l0.045,0.043
			c-0.025,0.045-0.057,0.092-0.057,0.16v0.148H2.5v0.016c0,0.023,0.125,0.224,0.143,0.258c-0.038,0.057-0.168,0.041-0.17,0.126H2.66
			c0.03,0,0.083-0.025,0.113-0.035C2.812,4.074,2.846,4.06,2.846,4.012c0-0.017-0.073-0.116-0.089-0.142
			C2.749,3.859,2.698,3.721,2.698,3.706V3.695z"/>
	</g>
</g>
</svg>
