<?xml version="1.0" encoding="utf-8"?>
<!-- Generator: Adobe Illustrator 16.0.0, SVG Export Plug-In . SVG Version: 6.00 Build 0)  -->
<!DOCTYPE svg PUBLIC "-//W3C//DTD SVG 1.1//EN" "http://www.w3.org/Graphics/SVG/1.1/DTD/svg11.dtd">
<svg version="1.1" id="Version_1.0" xmlns="http://www.w3.org/2000/svg" xmlns:xlink="http://www.w3.org/1999/xlink" x="0px" y="0px"
	 width="612px" height="792px" viewBox="0 0 612 792" enable-background="new 0 0 612 792" xml:space="preserve">
<g id="octagon" display="none">
	<g id="outFrame" display="inline">
		<line fill="none" stroke="#0000FF" stroke-width="2" x1="220" y1="309.5" x2="306" y2="273"/>
		<line fill="none" stroke="#0000FF" stroke-width="2" x1="306" y1="273" x2="390.5" y2="309.5"/>
		<line fill="none" stroke="#0000FF" stroke-width="2" x1="390.5" y1="309.5" x2="427" y2="396"/>
		<line fill="none" stroke="#0000FF" stroke-width="2" x1="427" y1="396" x2="390.5" y2="482.5"/>
		<line fill="none" stroke="#0000FF" stroke-width="2" x1="390.5" y1="482.5" x2="306" y2="516"/>
		<line fill="none" stroke="#0000FF" stroke-width="2" x1="306" y1="516" x2="220" y2="482.5"/>
		<line fill="none" stroke="#0000FF" stroke-width="2" x1="220" y1="482.5" x2="183" y2="396"/>
		<line fill="none" stroke="#0000FF" stroke-width="2" x1="183" y1="396" x2="220" y2="309.5"/>
	</g>
	
		<line id="mod2_1_" display="inline" fill="none" stroke="#0000FF" stroke-width="2" x1="203.966" y1="445.015" x2="406.199" y2="445.295"/>
	
		<line id="mod1_1_" display="inline" fill="none" stroke="#0000FF" stroke-width="2" x1="203.966" y1="346.985" x2="406.199" y2="346.705"/>
</g>
<g id="main">
	<g transform="scale(100) translate(0.73 0.65)">
		<path id="_97310896" d="M2.23,3.428h0.175c0.014,0,0.111-0.15,0.125-0.171H2.104C2.119,3.279,2.213,3.428,2.23,3.428z"/>
		<path id="_102375856" d="M2.001,3.316L2.104,3.49c0.007-0.002,0.021-0.005,0.021-0.013c0-0.014-0.093-0.14-0.1-0.172L2.001,3.316z
			"/>
		<path id="_233402632" d="M2.509,3.474c0,0.014,0.008,0.016,0.018,0.015l0.106-0.172l-0.016-0.01
			C2.611,3.312,2.509,3.472,2.509,3.474z"/>
		<polygon id="_43097984" points="2.196,3.52 2.438,3.52 2.438,3.494 2.196,3.494 		"/>
		<polygon id="_228322304" points="2.575,3.586 2.599,3.594 2.759,3.332 2.739,3.324 		"/>
		<polygon id="_102470720" points="1.875,3.332 2.042,3.595 2.059,3.586 1.892,3.323 		"/>
		<polygon id="_102470608" points="2.113,3.624 2.525,3.624 2.525,3.599 2.113,3.599 		"/>
		<path id="_102470552" d="M1.75,3.353c0,0.008,0.093,0.147,0.104,0.167c0.009,0.016,0.105,0.167,0.108,0.167
			c0.011,0,0.012-0.006,0.017-0.013L1.767,3.34C1.762,3.343,1.75,3.346,1.75,3.353z"/>
		<polygon id="_229399824" points="2.654,3.673 2.674,3.689 2.888,3.35 2.867,3.34 		"/>
		<path id="_43097864" fill="#FFFFFF" d="M1.442,3.724L1.45,3.665C1.441,3.665,1.442,3.711,1.442,3.724z"/>
		<polygon id="_238795024" points="2.025,3.728 2.613,3.728 2.613,3.703 2.025,3.703 		"/>
		<path id="_95239824" d="M1.508,3.765c0.008,0,0.008-0.057,0.008-0.071L1.508,3.765z"/>
		<path id="_236038376" fill="#FFFFFF" d="M1.934,3.807h0.767v0.029H1.934V3.807z M2.025,3.703h0.588v0.025H2.025V3.703z
			 M2.113,3.599h0.413v0.025H2.113V3.599z M2.196,3.494h0.242V3.52H2.196V3.494z M2.755,3.782l-0.027-0.01l0.265-0.415
			C3,3.359,3.013,3.361,3.013,3.369c0,0.008-0.114,0.179-0.128,0.205C2.861,3.618,2.763,3.749,2.755,3.782z M1.62,3.366l0.025-0.011
			l0.259,0.418l-0.02,0.009L1.62,3.366z M1.963,3.686c-0.004,0-0.099-0.151-0.108-0.167C1.843,3.5,1.75,3.361,1.75,3.353
			c0-0.007,0.011-0.01,0.017-0.012L1.98,3.673C1.975,3.68,1.974,3.686,1.963,3.686z M2.867,3.34l0.02,0.01L2.673,3.69l-0.02-0.016
			L2.867,3.34z M2.739,3.324l0.02,0.007l-0.16,0.262L2.575,3.586L2.739,3.324z M1.892,3.323L2.06,3.585l-0.018,0.01L1.875,3.332
			L1.892,3.323z M2.509,3.474c0-0.002,0.102-0.162,0.108-0.167l0.016,0.01L2.527,3.489C2.517,3.489,2.509,3.487,2.509,3.474z
			 M2.025,3.306c0.008,0.032,0.1,0.157,0.1,0.172c0,0.008-0.014,0.011-0.021,0.013L2.001,3.316L2.025,3.306z M2.23,3.428
			c-0.016,0-0.111-0.149-0.125-0.171H2.53C2.516,3.278,2.419,3.428,2.405,3.428H2.23z M1.517,3.695c0,0.013-0.001,0.071-0.008,0.071
			L1.504,3.89h1.63l0.002-0.054L3.105,3.565V3.54H3.097V3.524c0-0.045-0.071-0.266-0.09-0.302c-0.011-0.02-0.018-0.046-0.028-0.068
			C2.967,3.129,2.954,3.113,2.942,3.09c-0.023-0.045-0.05-0.078-0.08-0.116C2.756,2.839,2.571,2.719,2.33,2.719H2.305
			c-0.27,0-0.462,0.146-0.57,0.309C1.672,3.122,1.633,3.212,1.593,3.329C1.566,3.409,1.519,3.596,1.517,3.695L1.517,3.695z"/>
		<path id="_100039048" d="M2.755,3.782c0.009-0.033,0.106-0.165,0.13-0.208c0.014-0.026,0.128-0.197,0.128-0.205
			c0-0.008-0.014-0.011-0.021-0.013L2.727,3.772L2.755,3.782z"/>
		<polygon id="_236038544" points="1.884,3.782 1.904,3.773 1.645,3.355 1.62,3.366 		"/>
		<polygon id="_97615280" points="1.934,3.836 2.701,3.836 2.701,3.807 1.934,3.807 		"/>
		<path id="_237429648" d="M1.508,3.765l0.008-0.071c0.002-0.098,0.049-0.285,0.076-0.365c0.04-0.117,0.079-0.207,0.141-0.301
			c0.109-0.163,0.3-0.309,0.57-0.309H2.33c0.241,0,0.426,0.12,0.533,0.255c0.03,0.038,0.057,0.071,0.08,0.116
			c0.012,0.022,0.024,0.039,0.036,0.064c0.01,0.022,0.017,0.048,0.028,0.068c0.019,0.036,0.09,0.257,0.09,0.302V3.54h0.008v0.025
			l0.031,0.271L3.134,3.89h-1.63L1.508,3.765L1.508,3.765z M1.45,3.665L1.442,3.724L1.433,3.865v0.096h1.772V3.936
			c0-0.051,0.002-0.159-0.006-0.203c-0.011-0.06-0.013-0.129-0.026-0.187C3.162,3.495,3.1,3.229,3.076,3.219
			c0-0.039-0.087-0.189-0.108-0.221C2.924,2.933,2.874,2.873,2.812,2.824C2.689,2.727,2.55,2.648,2.33,2.648H2.305
			c-0.294,0-0.49,0.148-0.614,0.319C1.655,3.015,1.632,3.062,1.604,3.115C1.575,3.172,1.562,3.221,1.538,3.282
			C1.507,3.358,1.452,3.566,1.45,3.665L1.45,3.665z"/>
	</g>
</g>
</svg>
