<?xml version="1.0" encoding="utf-8"?>
<!-- Generator: Adobe Illustrator 16.0.0, SVG Export Plug-In . SVG Version: 6.00 Build 0)  -->
<!DOCTYPE svg PUBLIC "-//W3C//DTD SVG 1.1//EN" "http://www.w3.org/Graphics/SVG/1.1/DTD/svg11.dtd">
<svg version="1.1" id="Version_1.0" xmlns="http://www.w3.org/2000/svg" xmlns:xlink="http://www.w3.org/1999/xlink" x="0px" y="0px"
	 width="612px" height="792px" viewBox="0 0 612 792" enable-background="new 0 0 612 792" xml:space="preserve">
<g id="octagon" display="none">
	<g id="outFrame" display="inline">
		<line fill="none" stroke="#0000FF" stroke-width="2" x1="220" y1="309.5" x2="306" y2="273"/>
		<line fill="none" stroke="#0000FF" stroke-width="2" x1="306" y1="273" x2="390.5" y2="309.5"/>
		<line fill="none" stroke="#0000FF" stroke-width="2" x1="390.5" y1="309.5" x2="427" y2="396"/>
		<line fill="none" stroke="#0000FF" stroke-width="2" x1="427" y1="396" x2="390.5" y2="482.5"/>
		<line fill="none" stroke="#0000FF" stroke-width="2" x1="390.5" y1="482.5" x2="306" y2="516"/>
		<line fill="none" stroke="#0000FF" stroke-width="2" x1="306" y1="516" x2="220" y2="482.5"/>
		<line fill="none" stroke="#0000FF" stroke-width="2" x1="220" y1="482.5" x2="183" y2="396"/>
		<line fill="none" stroke="#0000FF" stroke-width="2" x1="183" y1="396" x2="220" y2="309.5"/>
	</g>
	
		<line id="mod2_1_" display="inline" fill="none" stroke="#0000FF" stroke-width="2" x1="203.966" y1="445.015" x2="406.199" y2="445.295"/>
	
		<line id="mod1_1_" display="inline" fill="none" stroke="#0000FF" stroke-width="2" x1="203.966" y1="346.985" x2="406.199" y2="346.705"/>
</g>
<g id="main">
	<g transform="scale(95) translate(0.852632 0.884211)">
		<path id="_64577904" fill="#FFFFFF" d="M1.535,2.846l1.667,0.001C3.192,2.838,3.02,2.758,2.99,2.743
			C2.92,2.708,2.852,2.671,2.781,2.636C2.71,2.601,2.644,2.565,2.572,2.529C2.536,2.511,2.383,2.437,2.365,2.422L1.535,2.846
			L1.535,2.846z"/>
		<polygon id="_65451144" fill="#FFFFFF" points="1.459,3.01 3.27,3.01 3.27,2.89 1.459,2.89 		"/>
		<path id="_94581568" fill="#FFFFFF" d="M2.388,3.671V3.46c0.045,0.01,0.105,0.027,0.105,0.081V3.58
			C2.494,3.618,2.434,3.671,2.388,3.671z M2.24,3.302V3.249c0-0.034,0.062-0.064,0.096-0.072v0.196
			C2.297,3.371,2.24,3.343,2.24,3.302z M2.336,3.125h-0.02c-0.079,0-0.163,0.06-0.163,0.139v0.048c0,0.067,0.122,0.133,0.182,0.134
			v0.225c-0.062,0-0.115-0.067-0.115-0.128L2.139,3.556V3.58c0,0.035,0.042,0.091,0.064,0.109c0.026,0.022,0.088,0.043,0.133,0.044
			V3.8h0.053V3.733c0.102,0,0.192-0.072,0.192-0.177V3.527c0-0.078-0.112-0.132-0.192-0.139V3.182
			c0.021,0.002,0.05,0.017,0.06,0.031c0.009,0.012,0.03,0.061,0.036,0.062l0.076-0.011c0-0.078-0.082-0.139-0.158-0.139H2.388V3.087
			H2.336V3.125z"/>
		<path id="_65379072" d="M2.24,3.302c0,0.041,0.058,0.069,0.096,0.072V3.178C2.301,3.186,2.24,3.216,2.24,3.249V3.302z"/>
		<path id="_94401360" d="M2.388,3.671c0.045,0,0.105-0.053,0.105-0.091V3.542c0-0.054-0.06-0.071-0.105-0.081V3.671z"/>
		<path id="_65375856" d="M1.459,3.872H3.27v0.115H1.459V3.872z M2.987,3.048h0.139v0.786H2.987V3.048z M2.709,3.048h0.134v0.786
			H2.709V3.048z M1.885,3.048h0.139v0.786H1.885V3.048z M1.607,3.048h0.134v0.786H1.607V3.048z M2.336,3.087h0.053v0.038h0.014
			c0.076,0,0.158,0.061,0.158,0.139L2.484,3.275c-0.005-0.001-0.026-0.05-0.036-0.062c-0.011-0.014-0.039-0.029-0.06-0.031v0.206
			C2.468,3.395,2.58,3.449,2.58,3.527v0.029c0,0.105-0.089,0.177-0.192,0.177V3.8H2.336V3.733C2.291,3.732,2.229,3.711,2.203,3.689
			C2.181,3.671,2.139,3.615,2.139,3.58V3.556l0.082-0.013c0,0.061,0.053,0.128,0.115,0.128V3.446
			c-0.06-0.001-0.182-0.067-0.182-0.134V3.264c0-0.079,0.084-0.139,0.163-0.139h0.019V3.087z M1.459,2.89H3.27v0.12H1.459V2.89z
			 M2.365,2.422c0.018,0.015,0.171,0.089,0.207,0.107C2.644,2.565,2.71,2.601,2.781,2.636C2.852,2.671,2.92,2.708,2.99,2.743
			c0.03,0.015,0.202,0.094,0.212,0.104H1.535L2.365,2.422L2.365,2.422z M1.421,2.871v0.158c0,0.011,0.008,0.019,0.019,0.019h0.129
			v0.786H1.421V4.03h1.888V3.834H3.164V3.048h0.129c0.011,0,0.014-0.003,0.014-0.014V2.857c-0.053-0.019-0.175-0.09-0.235-0.12
			c-0.079-0.039-0.155-0.08-0.235-0.12c-0.044-0.022-0.468-0.24-0.47-0.24c-0.01,0-0.428,0.216-0.477,0.241
			C1.839,2.645,1.421,2.846,1.421,2.871L1.421,2.871L1.421,2.871z"/>
		<polygon id="_66403960" fill="#FFFFFF" points="1.607,3.834 1.742,3.834 1.742,3.048 1.607,3.048 		"/>
		<polygon id="_65373216" fill="#FFFFFF" points="1.885,3.834 2.024,3.834 2.024,3.048 1.885,3.048 		"/>
		<polygon id="_65450568" fill="#FFFFFF" points="2.709,3.834 2.843,3.834 2.843,3.048 2.709,3.048 		"/>
		<polygon id="_65369168" fill="#FFFFFF" points="2.987,3.834 3.126,3.834 3.126,3.048 2.987,3.048 		"/>
		<polygon id="_94571432" fill="#FFFFFF" points="1.459,3.987 3.27,3.987 3.27,3.872 1.459,3.872 		"/>
	</g>
</g>
</svg>
