<?xml version="1.0" encoding="utf-8"?>
<!-- Generator: Adobe Illustrator 16.0.0, SVG Export Plug-In . SVG Version: 6.00 Build 0)  -->
<!DOCTYPE svg PUBLIC "-//W3C//DTD SVG 1.1//EN" "http://www.w3.org/Graphics/SVG/1.1/DTD/svg11.dtd">
<svg version="1.1" id="Version_1.0" xmlns="http://www.w3.org/2000/svg" xmlns:xlink="http://www.w3.org/1999/xlink" x="0px" y="0px"
	 width="612px" height="792px" viewBox="0 0 612 792" enable-background="new 0 0 612 792" xml:space="preserve">
<g id="octagon" display="none">
	<g id="outFrame" display="inline">
		<line fill="none" stroke="#0000FF" stroke-width="2" x1="220" y1="309.5" x2="306" y2="273"/>
		<line fill="none" stroke="#0000FF" stroke-width="2" x1="306" y1="273" x2="390.5" y2="309.5"/>
		<line fill="none" stroke="#0000FF" stroke-width="2" x1="390.5" y1="309.5" x2="427" y2="396"/>
		<line fill="none" stroke="#0000FF" stroke-width="2" x1="427" y1="396" x2="390.5" y2="482.5"/>
		<line fill="none" stroke="#0000FF" stroke-width="2" x1="390.5" y1="482.5" x2="306" y2="516"/>
		<line fill="none" stroke="#0000FF" stroke-width="2" x1="306" y1="516" x2="220" y2="482.5"/>
		<line fill="none" stroke="#0000FF" stroke-width="2" x1="220" y1="482.5" x2="183" y2="396"/>
		<line fill="none" stroke="#0000FF" stroke-width="2" x1="183" y1="396" x2="220" y2="309.5"/>
	</g>
	
		<line id="mod2_1_" display="inline" fill="none" stroke="#0000FF" stroke-width="2" x1="203.966" y1="445.015" x2="406.199" y2="445.295"/>
	
		<line id="mod1_1_" display="inline" fill="none" stroke="#0000FF" stroke-width="2" x1="203.966" y1="346.985" x2="406.199" y2="346.705"/>
</g>
<g id="main">
	<g transform="scale(120) translate(0.4 0.383333)">
		<path id="_88979200" fill="#FFFFFF" d="M2.646,3.148L2.542,3.476L1.756,3.475L1.574,2.928c0-0.048-0.061-0.172-0.061-0.194V2.72
			c0.02-0.005,0.275-0.198,0.316-0.227c0.029-0.021,0.315-0.231,0.316-0.231c0.014,0,0.575,0.417,0.639,0.462L2.646,3.148z
			 M1.423,2.701c0,0,0.126,0.389,0.138,0.419c0.02,0.05,0.133,0.39,0.136,0.426h0.897C2.607,3.488,2.642,3.4,2.663,3.337
			c0.024-0.073,0.044-0.142,0.07-0.214c0.013-0.035,0.14-0.421,0.14-0.422c0-0.01-0.324-0.24-0.36-0.268
			C2.477,2.406,2.157,2.172,2.145,2.172c-0.002,0-0.329,0.238-0.362,0.262C1.747,2.461,1.423,2.691,1.423,2.701z"/>
		<path id="_145458120" fill="#FFFFFF" d="M1.734,2.791l0.018,0.077l0.006-0.002c0,0.034,0.051,0.171,0.064,0.214
			c0.011,0.037,0.023,0.07,0.035,0.106c0.005,0.016,0.027,0.1,0.042,0.1h0.496c0.02,0,0.068-0.179,0.078-0.21
			c0.013-0.039,0.068-0.187,0.068-0.22c0.011-0.014,0.02-0.032,0.02-0.056c0-0.017-0.177-0.135-0.202-0.152
			c-0.021-0.014-0.207-0.15-0.209-0.15c-0.011,0-0.184,0.13-0.208,0.146C1.914,2.664,1.751,2.786,1.734,2.791z"/>
		<path id="_41045776" d="M1.734,2.791c0.017-0.004,0.179-0.127,0.208-0.146C1.966,2.628,2.139,2.498,2.15,2.498
			c0.001,0,0.187,0.136,0.209,0.15C2.384,2.665,2.561,2.783,2.561,2.8c0,0.024-0.009,0.042-0.019,0.057
			c0,0.033-0.055,0.181-0.068,0.22c-0.01,0.03-0.059,0.21-0.078,0.21H1.9c-0.015,0-0.037-0.084-0.042-0.1
			C1.846,3.151,1.833,3.118,1.822,3.081C1.809,3.037,1.758,2.9,1.758,2.866L1.752,2.868L1.734,2.791z M1.668,2.777l0.184,0.562
			L2.44,3.338l0.182-0.566c-0.067-0.036-0.453-0.34-0.477-0.34C2.138,2.432,1.716,2.745,1.668,2.777z"/>
		<path id="_87773328" fill="#FFFFFF" d="M1.668,2.777c0.048-0.032,0.47-0.345,0.477-0.345c0.024,0,0.41,0.304,0.477,0.34
			L2.441,3.338L1.852,3.339L1.668,2.777z M1.594,2.75l0.018,0.071l0.071,0.202c0,0.032,0.047,0.158,0.06,0.195
			C1.751,3.245,1.796,3.4,1.815,3.4l0.678-0.001l0.115-0.363c0.009-0.013,0.094-0.263,0.094-0.279c0-0.02-0.498-0.358-0.555-0.409
			L1.594,2.75z"/>
		<path id="_38029144" d="M2.148,2.349C2.205,2.4,2.703,2.738,2.703,2.758c0,0.016-0.086,0.265-0.094,0.279L2.493,3.399L1.815,3.4
			c-0.018,0-0.063-0.155-0.073-0.182c-0.013-0.038-0.06-0.163-0.06-0.195l-0.07-0.202L1.594,2.75L2.148,2.349z M2.784,2.724
			C2.72,2.68,2.159,2.262,2.145,2.262c-0.002,0-0.287,0.211-0.316,0.231C1.788,2.522,1.532,2.715,1.513,2.72v0.014
			c0,0.021,0.061,0.146,0.061,0.194l0.182,0.547l0.786,0.001l0.104-0.327L2.784,2.724z"/>
		<path id="_83657320" d="M1.423,2.701c0-0.01,0.324-0.24,0.361-0.267c0.032-0.024,0.36-0.262,0.362-0.262
			c0.012,0,0.331,0.234,0.367,0.261c0.036,0.027,0.36,0.258,0.36,0.268c0,0.001-0.127,0.387-0.14,0.422
			c-0.026,0.071-0.046,0.141-0.07,0.214C2.642,3.4,2.607,3.488,2.594,3.546H1.697C1.694,3.51,1.581,3.17,1.561,3.12
			C1.549,3.09,1.423,2.701,1.423,2.701z M1.597,3.503L1.639,3.63L2.66,3.631l0.176-0.549l0.138-0.428L2.146,2.057L1.32,2.658
			L1.597,3.503L1.597,3.503z"/>
	</g>
</g>
</svg>
