<?xml version="1.0" encoding="utf-8"?>
<!-- Generator: Adobe Illustrator 16.0.0, SVG Export Plug-In . SVG Version: 6.00 Build 0)  -->
<!DOCTYPE svg PUBLIC "-//W3C//DTD SVG 1.1//EN" "http://www.w3.org/Graphics/SVG/1.1/DTD/svg11.dtd">
<svg version="1.1" id="Version_1.0" xmlns="http://www.w3.org/2000/svg" xmlns:xlink="http://www.w3.org/1999/xlink" x="0px" y="0px"
	 width="612px" height="792px" viewBox="0 0 612 792" enable-background="new 0 0 612 792" xml:space="preserve">
<g id="octagon" display="none">
	<g id="outFrame" display="inline">
		<line fill="none" stroke="#0000FF" stroke-width="2" x1="220" y1="309.5" x2="306" y2="273"/>
		<line fill="none" stroke="#0000FF" stroke-width="2" x1="306" y1="273" x2="390.5" y2="309.5"/>
		<line fill="none" stroke="#0000FF" stroke-width="2" x1="390.5" y1="309.5" x2="427" y2="396"/>
		<line fill="none" stroke="#0000FF" stroke-width="2" x1="427" y1="396" x2="390.5" y2="482.5"/>
		<line fill="none" stroke="#0000FF" stroke-width="2" x1="390.5" y1="482.5" x2="306" y2="516"/>
		<line fill="none" stroke="#0000FF" stroke-width="2" x1="306" y1="516" x2="220" y2="482.5"/>
		<line fill="none" stroke="#0000FF" stroke-width="2" x1="220" y1="482.5" x2="183" y2="396"/>
		<line fill="none" stroke="#0000FF" stroke-width="2" x1="183" y1="396" x2="220" y2="309.5"/>
	</g>
	
		<line id="mod2_1_" display="inline" fill="none" stroke="#0000FF" stroke-width="2" x1="203.966" y1="445.015" x2="406.199" y2="445.295"/>
	
		<line id="mod1_1_" display="inline" fill="none" stroke="#0000FF" stroke-width="2" x1="203.966" y1="346.985" x2="406.199" y2="346.705"/>
</g>
<g id="main">
	<g>
		<path id="_87876656" d="M316.683,332.387h11.154v33.463h24.699v-33.463h11.155v33.463h16.729v92.421H230.236V365.85h86.446
			L316.683,332.387L316.683,332.387z M227.448,461.459h155.763v-98.796h-15.935V329.2H349.35v33.463h-17.927V329.2h-17.927v33.463
			h-86.048V461.459z"/>
	</g>
	<g>
		<g transform="scale(100) translate(0.74 0.62)">
			<path id="_87876096" fill="#FFFFFF" d="M2.18,3.124l0.008,0.028h0.243c0.009,0,0.016-0.007,0.016-0.016
				c0-0.019-0.009-0.028-0.028-0.028H2.208C2.192,3.108,2.186,3.114,2.18,3.124z"/>
			<path id="_86697160" d="M2.419,3.889H2.192c-0.046,0-0.106-0.014-0.135-0.033c-0.02-0.013-0.088-0.077-0.092-0.079V3.746
				c0-0.064,0.083-0.183,0.114-0.229c0.012-0.019,0.133-0.212,0.133-0.213V3.18h0.203v0.135c0,0.026,0.247,0.333,0.247,0.378v0.06
				C2.662,3.828,2.498,3.889,2.419,3.889z M2.419,3.108c0.019,0,0.028,0.009,0.028,0.028c0,0.009-0.007,0.016-0.016,0.016H2.188
				L2.18,3.124c0.006-0.01,0.012-0.016,0.028-0.016H2.419z M2.427,3.909c0.086,0,0.255-0.067,0.255-0.143V3.682
				c0-0.027-0.247-0.358-0.247-0.37V3.184c0-0.018,0.032-0.014,0.032-0.036V3.132c0-0.008-0.02-0.044-0.032-0.044H2.192
				c-0.012,0-0.032,0.023-0.032,0.04c0,0.041,0.028,0.037,0.028,0.056v0.108c0,0.017-0.108,0.188-0.125,0.217
				C2.034,3.558,1.945,3.673,1.945,3.734V3.77c0,0.029,0.076,0.085,0.099,0.1C2.075,3.891,2.149,3.909,2.2,3.909H2.427z"/>
			<path id="_83626832" d="M2.056,3.678v0.048c0,0.087,0.151,0.108,0.247,0.108h0.08c0.062,0,0.199-0.054,0.199-0.104V3.71
				c0-0.079-0.165-0.234-0.183-0.311H2.212C2.197,3.461,2.056,3.648,2.056,3.678z"/>
			<path id="_87876432" fill="#FFFFFF" d="M2.056,3.678c0-0.03,0.141-0.217,0.155-0.279h0.187C2.417,3.476,2.582,3.631,2.582,3.71
				v0.02c0,0.049-0.137,0.104-0.199,0.104h-0.08c-0.096,0-0.247-0.02-0.247-0.108V3.678z M2.419,3.889
				c0.08,0,0.243-0.061,0.243-0.135v-0.06c0-0.046-0.247-0.352-0.247-0.378V3.18H2.212v0.123c0,0.001-0.121,0.195-0.133,0.214
				C2.048,3.563,1.965,3.682,1.965,3.746v0.032C1.969,3.78,2.038,3.844,2.057,3.857C2.085,3.876,2.146,3.89,2.192,3.89L2.419,3.889
				L2.419,3.889z"/>
		</g>
		<path fill="none" stroke="#000000" stroke-width="5" d="M294.668,379.353c0,0-0.546,6.512,0,10.197"/>
		<path fill="none" stroke="#000000" stroke-width="5" d="M294.501,388.012c-0.011,16.274-25.5,30.402-25.5,49.425"/>
		<path fill="none" stroke="#000000" stroke-width="5" d="M316.335,378.937c0,0-0.25,7-0.334,10.416"/>
		<path fill="none" stroke="#000000" stroke-width="5" d="M316.001,388.103c3.76,22.179,25.667,29.273,24.667,49.5"/>
		<path fill="none" stroke="#000000" stroke-width="4" d="M294.234,371.906c-6.469-0.214-4.446,7.365,1.332,6.556"/>
		<path fill="none" stroke="#000000" stroke-width="4" d="M314.678,378.573c7.326-1.691,7.253-6.445-0.222-6.667"/>
		<path fill="none" stroke="#000000" stroke-width="4" d="M292.456,371.906c0,0,17.778,0.056,23.666,0"/>
		<path fill="none" stroke="#000000" stroke-width="4" d="M293.346,378.351c0,0,16.832,0,22.443,0"/>
		<path fill="none" stroke="#000000" stroke-width="5" d="M291.122,452.128c0,0,20.334,0,27.112,0"/>
		<path fill="none" stroke="#000000" stroke-width="5" d="M314.9,452.352c12.775-1.476,25.056-0.422,25.556-16"/>
		<path fill="none" stroke="#000000" stroke-width="5" d="M292.658,452.191c-9.774,0.813-23.715-4.918-23.715-16.144"/>
		<path fill="none" stroke="#000000" d="M290.979,374.758l0.5,2.083"/>
	</g>
</g>
</svg>
