<?xml version="1.0" encoding="utf-8"?>
<!-- Generator: Adobe Illustrator 16.0.0, SVG Export Plug-In . SVG Version: 6.00 Build 0)  -->
<!DOCTYPE svg PUBLIC "-//W3C//DTD SVG 1.1//EN" "http://www.w3.org/Graphics/SVG/1.1/DTD/svg11.dtd">
<svg version="1.1" id="Version_1.0" xmlns="http://www.w3.org/2000/svg" xmlns:xlink="http://www.w3.org/1999/xlink" x="0px"
	 y="0px" width="612px" height="792px" viewBox="0 0 612 792" enable-background="new 0 0 612 792" xml:space="preserve">
<g id="octagon" display="none">
	<g id="outFrame" display="inline">
		<line fill="none" stroke="#0000FF" stroke-width="2" x1="220" y1="309.5" x2="306" y2="273"/>
		<line fill="none" stroke="#0000FF" stroke-width="2" x1="306" y1="273" x2="390.5" y2="309.5"/>
		<line fill="none" stroke="#0000FF" stroke-width="2" x1="390.5" y1="309.5" x2="427" y2="396"/>
		<line fill="none" stroke="#0000FF" stroke-width="2" x1="427" y1="396" x2="390.5" y2="482.5"/>
		<line fill="none" stroke="#0000FF" stroke-width="2" x1="390.5" y1="482.5" x2="306" y2="516"/>
		<line fill="none" stroke="#0000FF" stroke-width="2" x1="306" y1="516" x2="220" y2="482.5"/>
		<line fill="none" stroke="#0000FF" stroke-width="2" x1="220" y1="482.5" x2="183" y2="396"/>
		<line fill="none" stroke="#0000FF" stroke-width="2" x1="183" y1="396" x2="220" y2="309.5"/>
	</g>
	
		<line id="mod2_1_" display="inline" fill="none" stroke="#0000FF" stroke-width="2" x1="203.966" y1="445.015" x2="406.199" y2="445.295"/>
	
		<line id="mod1_1_" display="inline" fill="none" stroke="#0000FF" stroke-width="2" x1="203.966" y1="346.985" x2="406.199" y2="346.705"/>
</g>
<g id="main">
	<g transform="scale(100) translate(0.746667 0.726667)">
		<path id="_42832520" fill="#FFFFFF" d="M1.433,2.958v0.037c0.075,0,0.077-0.025,0.117-0.051c0.031,0.023,0.042,0.051,0.103,0.051
			h0.014c0.073,0,0.073-0.025,0.112-0.051C1.814,2.967,1.82,2.995,1.887,2.995h0.014c0.067,0,0.073-0.028,0.108-0.051
			c0.041,0.027,0.04,0.051,0.117,0.051V2.958c-0.05,0-0.094-0.036-0.094-0.084H1.985v0.019c0,0.029-0.047,0.065-0.084,0.065H1.896
			c-0.051,0-0.092-0.035-0.094-0.084H1.756C1.755,2.916,1.713,2.958,1.667,2.958H1.658c-0.049,0-0.08-0.038-0.084-0.084H1.527
			C1.523,2.919,1.484,2.958,1.433,2.958L1.433,2.958z"/>
		<path id="_43470376" d="M2.575,2.887c0,0.034-0.045,0.07-0.089,0.07v0.037c0.045,0,0.099-0.023,0.108-0.056
			c0.041,0.027,0.043,0.056,0.122,0.056h0.009c0.066,0,0.073-0.033,0.108-0.056c0.007,0.033,0.06,0.057,0.102,0.057h0.019
			c0.068,0,0.076-0.032,0.112-0.056c0.009,0.033,0.067,0.056,0.112,0.056V2.958c-0.043,0-0.094-0.039-0.094-0.07V2.873H3.042
			c-0.003,0.045-0.04,0.085-0.089,0.085H2.939c-0.039,0-0.084-0.035-0.084-0.07V2.873H2.808c0,0.043-0.043,0.085-0.088,0.085H2.71
			c-0.047,0-0.088-0.038-0.089-0.084H2.575V2.887z"/>
		<path id="_97615680" fill="#FFFFFF" d="M1.433,3.257v0.037c0.058,0,0.089-0.022,0.112-0.056C1.581,3.262,1.59,3.294,1.658,3.294
			h0.014c0.077,0,0.087-0.049,0.112-0.056C1.793,3.27,1.845,3.294,1.887,3.294h0.014c0.042,0,0.094-0.024,0.103-0.056
			c0.027,0.007,0.031,0.056,0.122,0.056V3.257c-0.05,0-0.094-0.036-0.094-0.084H1.985v0.019c0,0.029-0.047,0.065-0.084,0.065H1.896
			c-0.051,0-0.092-0.035-0.094-0.084H1.756C1.755,3.214,1.713,3.257,1.667,3.257H1.658c-0.049,0-0.08-0.038-0.084-0.084H1.527
			C1.523,3.219,1.484,3.257,1.433,3.257L1.433,3.257z"/>
		<path id="_99122624" d="M2.575,3.187c0,0.034-0.045,0.07-0.089,0.07v0.037c0.086,0,0.088-0.048,0.117-0.056
			C2.612,3.271,2.67,3.294,2.715,3.294H2.72c0.072,0,0.075-0.032,0.108-0.056C2.859,3.261,2.87,3.294,2.936,3.294h0.019
			c0.065,0,0.076-0.033,0.108-0.056C3.099,3.264,3.1,3.294,3.178,3.294V3.257c-0.043,0-0.094-0.039-0.094-0.07V3.173H3.042
			c-0.003,0.045-0.04,0.084-0.089,0.084H2.939c-0.035,0-0.084-0.036-0.084-0.061V3.173H2.808c0,0.043-0.043,0.084-0.088,0.084H2.71
			c-0.047,0-0.088-0.038-0.089-0.084H2.575V3.187z"/>
		<path id="_101638640" d="M2.43,2.761h0.8v0.926h-0.8V2.761z M1.433,3.594V3.556c0.049,0,0.093-0.039,0.094-0.084h0.047
			c0.001,0.045,0.038,0.084,0.084,0.084h0.009c0.046,0,0.088-0.039,0.089-0.084h0.047c0.001,0.05,0.042,0.084,0.094,0.084h0.005
			c0.054,0,0.079-0.04,0.089-0.084h0.042c0.001,0.049,0.042,0.084,0.094,0.084v0.037c-0.05,0-0.103-0.025-0.112-0.061
			C1.981,3.555,1.972,3.594,1.901,3.594H1.887c-0.072,0-0.077-0.037-0.112-0.061C1.766,3.566,1.716,3.594,1.672,3.594H1.658
			c-0.059,0-0.084-0.031-0.112-0.061C1.536,3.568,1.481,3.594,1.433,3.594L1.433,3.594z M2.219,3.06h0.168v0.332H2.219V3.06z
			 M1.433,3.257c0.051,0,0.09-0.038,0.094-0.084h0.047c0.004,0.046,0.035,0.084,0.084,0.084h0.009c0.046,0,0.088-0.043,0.089-0.084
			h0.047c0.001,0.049,0.043,0.084,0.094,0.084h0.005c0.037,0,0.084-0.037,0.084-0.065V3.173h0.047c0,0.048,0.044,0.084,0.094,0.084
			v0.037c-0.09,0-0.095-0.049-0.122-0.056C1.995,3.27,1.943,3.294,1.901,3.294H1.887c-0.042,0-0.094-0.024-0.103-0.056
			C1.759,3.245,1.749,3.294,1.672,3.294H1.658c-0.068,0-0.076-0.032-0.112-0.056C1.522,3.273,1.491,3.294,1.433,3.294V3.257
			L1.433,3.257z M1.433,2.958c0.051,0,0.09-0.038,0.094-0.084h0.047C1.577,2.92,1.609,2.958,1.658,2.958h0.009
			c0.046,0,0.088-0.042,0.089-0.084h0.047c0.001,0.049,0.043,0.084,0.094,0.084h0.005c0.037,0,0.084-0.037,0.084-0.065v-0.02h0.047
			c0,0.048,0.044,0.084,0.094,0.084v0.037c-0.077,0-0.076-0.024-0.117-0.051C1.974,2.967,1.968,2.995,1.901,2.995H1.887
			c-0.067,0-0.073-0.028-0.108-0.051C1.74,2.97,1.74,2.995,1.667,2.995H1.653c-0.061,0-0.072-0.029-0.103-0.051
			C1.51,2.97,1.508,2.995,1.433,2.995V2.958L1.433,2.958z M2.219,3.491h0.168v0.253h0.889V2.71L2.388,2.704v0.258H2.219V2.71
			L1.335,2.704v1.04h0.884V3.491z"/>
		<path id="_42932440" fill="#FFFFFF" d="M2.486,3.594V3.556c0.054,0,0.085-0.035,0.089-0.084h0.033c0.024,0,0.02,0.084,0.103,0.084
			H2.72c0.055,0,0.059-0.035,0.083-0.052l0.006-0.033h0.042c0.004,0.05,0.039,0.084,0.094,0.084h0.009
			c0.046,0,0.088-0.04,0.089-0.084H3.08c0.01,0.045,0.043,0.084,0.098,0.084v0.037c-0.047,0-0.103-0.026-0.112-0.061
			C3.029,3.557,3.022,3.594,2.953,3.594H2.944c-0.049,0-0.103-0.025-0.112-0.061H2.823C2.814,3.566,2.765,3.594,2.72,3.594H2.71
			c-0.073,0-0.078-0.035-0.117-0.061C2.584,3.568,2.533,3.594,2.486,3.594z M2.575,3.173h0.047c0,0.046,0.041,0.084,0.088,0.084
			h0.01c0.045,0,0.088-0.041,0.089-0.084h0.047v0.023c0,0.024,0.049,0.061,0.084,0.061h0.014c0.048,0,0.085-0.039,0.089-0.084h0.042
			v0.014c0,0.031,0.051,0.07,0.094,0.07v0.037c-0.078,0-0.079-0.031-0.117-0.056C3.03,3.261,3.019,3.294,2.953,3.294H2.935
			c-0.065,0-0.076-0.033-0.108-0.056C2.794,3.262,2.791,3.294,2.72,3.294H2.715c-0.045,0-0.104-0.024-0.112-0.056
			c-0.029,0.008-0.03,0.056-0.117,0.056V3.257c0.044,0,0.089-0.036,0.089-0.07V3.173L2.575,3.173z M2.575,2.873h0.047
			c0,0.047,0.041,0.085,0.088,0.085h0.01c0.045,0,0.088-0.041,0.089-0.084h0.047v0.014c0,0.035,0.045,0.07,0.084,0.07h0.014
			c0.048,0,0.085-0.039,0.089-0.084h0.042v0.014c0,0.031,0.051,0.07,0.094,0.07v0.037c-0.045,0-0.104-0.024-0.112-0.056
			C3.03,2.963,3.022,2.995,2.953,2.995H2.935c-0.042,0-0.094-0.024-0.103-0.056C2.797,2.962,2.79,2.995,2.724,2.995H2.715
			c-0.078,0-0.081-0.029-0.122-0.056C2.584,2.972,2.531,2.995,2.486,2.995V2.958c0.044,0,0.089-0.036,0.089-0.07V2.873z M2.43,3.687
			h0.8V2.761h-0.8V3.687z"/>
		<path id="_43758872" fill="#FFFFFF" d="M1.433,3.594c0.047,0,0.103-0.026,0.112-0.061c0.028,0.03,0.054,0.061,0.112,0.061h0.014
			c0.044,0,0.094-0.028,0.103-0.061C1.81,3.557,1.815,3.594,1.887,3.594h0.014c0.071,0,0.08-0.039,0.112-0.061
			c0.009,0.036,0.062,0.061,0.112,0.061V3.556c-0.052,0-0.092-0.035-0.094-0.084H1.99C1.98,3.516,1.955,3.556,1.901,3.556H1.896
			c-0.052,0-0.092-0.034-0.094-0.084H1.756C1.755,3.517,1.713,3.556,1.667,3.556H1.658c-0.046,0-0.083-0.039-0.084-0.084H1.527
			C1.526,3.518,1.483,3.556,1.433,3.556V3.594L1.433,3.594z"/>
		<path id="_230091784" d="M2.486,3.594c0.047,0,0.098-0.026,0.108-0.061C2.632,3.559,2.637,3.594,2.71,3.594h0.01
			c0.046,0,0.094-0.027,0.103-0.061h0.009c0.01,0.036,0.063,0.061,0.112,0.061h0.009c0.068,0,0.076-0.037,0.112-0.061
			C3.074,3.568,3.13,3.594,3.177,3.594V3.556c-0.055,0-0.088-0.039-0.098-0.084H3.042C3.041,3.516,2.999,3.556,2.953,3.556H2.944
			c-0.054,0-0.089-0.035-0.094-0.084H2.808L2.803,3.505C2.778,3.522,2.775,3.556,2.72,3.556H2.71c-0.082,0-0.079-0.084-0.103-0.084
			H2.575C2.57,3.522,2.54,3.556,2.486,3.556V3.594z"/>
	</g>
</g>
</svg>
