<?xml version="1.0" encoding="utf-8"?>
<!-- Generator: Adobe Illustrator 16.0.0, SVG Export Plug-In . SVG Version: 6.00 Build 0)  -->
<!DOCTYPE svg PUBLIC "-//W3C//DTD SVG 1.1//EN" "http://www.w3.org/Graphics/SVG/1.1/DTD/svg11.dtd">
<svg version="1.1" id="Version_1.0" xmlns="http://www.w3.org/2000/svg" xmlns:xlink="http://www.w3.org/1999/xlink" x="0px" y="0px"
	 width="612px" height="792px" viewBox="0 0 612 792" enable-background="new 0 0 612 792" xml:space="preserve">
<g id="octagon" display="none">
	<g id="outFrame" display="inline">
		<line fill="none" stroke="#0000FF" stroke-width="2" x1="220" y1="309.5" x2="306" y2="273"/>
		<line fill="none" stroke="#0000FF" stroke-width="2" x1="306" y1="273" x2="390.5" y2="309.5"/>
		<line fill="none" stroke="#0000FF" stroke-width="2" x1="390.5" y1="309.5" x2="427" y2="396"/>
		<line fill="none" stroke="#0000FF" stroke-width="2" x1="427" y1="396" x2="390.5" y2="482.5"/>
		<line fill="none" stroke="#0000FF" stroke-width="2" x1="390.5" y1="482.5" x2="306" y2="516"/>
		<line fill="none" stroke="#0000FF" stroke-width="2" x1="306" y1="516" x2="220" y2="482.5"/>
		<line fill="none" stroke="#0000FF" stroke-width="2" x1="220" y1="482.5" x2="183" y2="396"/>
		<line fill="none" stroke="#0000FF" stroke-width="2" x1="183" y1="396" x2="220" y2="309.5"/>
	</g>
	
		<line id="mod2_1_" display="inline" fill="none" stroke="#0000FF" stroke-width="2" x1="203.966" y1="445.015" x2="406.199" y2="445.295"/>
	
		<line id="mod1_1_" display="inline" fill="none" stroke="#0000FF" stroke-width="2" x1="203.966" y1="346.985" x2="406.199" y2="346.705"/>
</g>
<g id="main">
	<g transform="scale(100) translate(0.75 0.65)">
		<path id="_94682064" fill="#489CBF" d="M2.858,3.493c0-0.02,0-0.048-0.01-0.057L2.858,3.493z"/>
		<path id="_96915728" fill="#489CBF" d="M3.26,3.601c0.01-0.009,0.01-0.037,0.01-0.057L3.26,3.601z"/>
		<path id="_65972368" fill="#FFFFFF" d="M2.848,3.436c0.01,0.009,0.01,0.037,0.01,0.057l0.026,0.206v0.015h0.324l0.042-0.33H2.842
			L2.848,3.436z"/>
		<path id="_64897752" d="M2.894,2.879C2.812,2.86,2.78,2.888,2.724,2.926H2.688C2.68,2.937,2.673,2.957,2.657,2.957H2.631
			c-0.055,0-0.098-0.046-0.144-0.046H2.471c-0.022,0-0.052,0.021-0.098,0.021c-0.128,0-0.098,0.006-0.2,0.037
			c-0.049,0.015-0.156,0.02-0.222,0.02H1.822c-0.07,0-0.124-0.016-0.18-0.016c-0.065,0-0.117,0.005-0.186,0.005
			c-0.012,0-0.013-0.002-0.021-0.005C1.376,3.004,1.357,3.079,1.358,3.168c0,0.089-0.015,0.158-0.015,0.253v0.005
			c0,0.014,0.002,0.014,0.005,0.026l0.025-0.008l0.001-0.013h0.01L1.39,3.127h0.004c0,0.05,0.003,0.113,0.015,0.15
			C1.42,3.307,1.451,3.371,1.451,3.4v0.005L1.41,3.736h0.092c0-0.035-0.01-0.028-0.01-0.052V3.632c0-0.035,0.026-0.106,0.057-0.108
			c0.009,0.038,0.082,0.093,0.082,0.17V3.71c0,0.014-0.002,0.014-0.005,0.026C1.637,3.733,1.638,3.73,1.652,3.73
			c0.029,0,0.088,0.017,0.088-0.01c0-0.007-0.048-0.079-0.056-0.088C1.674,3.62,1.652,3.541,1.652,3.524V3.519
			c0-0.005,0.031-0.058,0.031-0.119C1.784,3.454,1.771,3.467,1.93,3.467c0.054,0,0.105,0.012,0.15,0.011
			c0.026-0.001,0.082-0.034,0.108-0.047c0,0.03,0.009,0.059,0.005,0.082l-0.03,0.201C2.187,3.721,2.203,3.73,2.234,3.73H2.25H2.244
			l0.018-0.283c0.015,0.011,0.069,0.177,0.065,0.211L2.32,3.715C2.339,3.724,2.357,3.73,2.384,3.73H2.41L2.381,3.544l-0.003-0.02
			c0-0.023,0.041-0.018,0.062-0.031C2.454,3.485,2.474,3.464,2.485,3.45c0.027-0.037,0.049-0.067,0.076-0.104
			c0.098-0.135,0.088-0.061,0.256-0.1V3.23h0.041c0.025,0,0.046-0.021,0.046-0.046v-0.01c0-0.06-0.062-0.063-0.062-0.139L2.76,2.951
			L2.894,2.879z"/>
		<path id="_65323192" d="M2.858,3.493l-0.01-0.057L2.842,3.385H3.25l-0.042,0.33H2.884V3.699L2.858,3.493z M3.26,3.601l0.01-0.057
			L3.293,3.39L3.291,3.349h-0.49l0.034,0.268l0.008,0.015L2.855,3.74L2.853,3.756h0.392V3.715L3.26,3.601z"/>
	</g>
</g>
</svg>
