<?xml version="1.0" encoding="utf-8"?>
<!-- Generator: Adobe Illustrator 16.0.0, SVG Export Plug-In . SVG Version: 6.00 Build 0)  -->
<!DOCTYPE svg PUBLIC "-//W3C//DTD SVG 1.1//EN" "http://www.w3.org/Graphics/SVG/1.1/DTD/svg11.dtd">
<svg version="1.1" id="Version_1.0" xmlns="http://www.w3.org/2000/svg" xmlns:xlink="http://www.w3.org/1999/xlink" x="0px"
	 y="0px" width="612px" height="792px" viewBox="0 0 612 792" enable-background="new 0 0 612 792" xml:space="preserve">
<g id="octagon" display="none">
	<g id="outFrame" display="inline">
		<line fill="none" stroke="#0000FF" stroke-width="2" x1="220" y1="309.5" x2="306" y2="273"/>
		<line fill="none" stroke="#0000FF" stroke-width="2" x1="306" y1="273" x2="390.5" y2="309.5"/>
		<line fill="none" stroke="#0000FF" stroke-width="2" x1="390.5" y1="309.5" x2="427" y2="396"/>
		<line fill="none" stroke="#0000FF" stroke-width="2" x1="427" y1="396" x2="390.5" y2="482.5"/>
		<line fill="none" stroke="#0000FF" stroke-width="2" x1="390.5" y1="482.5" x2="306" y2="516"/>
		<line fill="none" stroke="#0000FF" stroke-width="2" x1="306" y1="516" x2="220" y2="482.5"/>
		<line fill="none" stroke="#0000FF" stroke-width="2" x1="220" y1="482.5" x2="183" y2="396"/>
		<line fill="none" stroke="#0000FF" stroke-width="2" x1="183" y1="396" x2="220" y2="309.5"/>
	</g>
	
		<line id="mod2_1_" display="inline" fill="none" stroke="#0000FF" stroke-width="2" x1="203.966" y1="445.015" x2="406.199" y2="445.295"/>
	
		<line id="mod1_1_" display="inline" fill="none" stroke="#0000FF" stroke-width="2" x1="203.966" y1="346.985" x2="406.199" y2="346.705"/>
</g>
<g id="main">
	<path d="M304.4,314.3c0.5,0,88.8,49.5,92.7,52.9H385v96.6H225.3v-96.5h-12.2c3.9-3.4,17.3-10.2,22.7-13.3
		c7.7-4.5,15.1-8.6,22.7-13.2C262.5,338.3,304.2,314.3,304.4,314.3z M196.1,372.1l24.8-0.5v96.1h168.5v-96l24.8,0.4
		c-1.2-1.6-109.1-62.6-109.8-62.6c-0.1,0-48.7,28.4-54.2,31.2c-8.7,4.6-18.6,10.4-27.2,15.6C216.3,360.4,201,367.9,196.1,372.1
		L196.1,372.1z"/>
	<path d="M241.51,385.7l62.37,27.09l62.72-27.09v55.649H241.51V385.7L241.51,385.7z M350.85,388.99
		c-5.39,2.17-10.359,4.48-15.75,6.79c-3.779,1.61-29.959,13.51-31.57,13.51c-0.91,0-27.58-12.18-31.15-13.58
		c-5.25-2.1-10.36-4.83-15.4-6.79c-4.06-1.61-11.97-5.95-15.47-6.79v-5.6H366.6v5.67C362.96,382.97,354.98,387.31,350.85,388.99z
		 M238.71,444.5H369.4v-70.77H238.71V444.5z"/>
</g>
</svg>
