<?xml version="1.0" encoding="utf-8"?>
<!-- Generator: Adobe Illustrator 16.0.0, SVG Export Plug-In . SVG Version: 6.00 Build 0)  -->
<!DOCTYPE svg PUBLIC "-//W3C//DTD SVG 1.1//EN" "http://www.w3.org/Graphics/SVG/1.1/DTD/svg11.dtd">
<svg version="1.1" id="Version_1.0" xmlns="http://www.w3.org/2000/svg" xmlns:xlink="http://www.w3.org/1999/xlink" x="0px" y="0px"
	 width="612px" height="792px" viewBox="0 0 612 792" enable-background="new 0 0 612 792" xml:space="preserve">
<g id="octagon" display="none">
	<g id="outFrame" display="inline">
		<line fill="none" stroke="#0000FF" stroke-width="2" x1="220" y1="309.5" x2="306" y2="273"/>
		<line fill="none" stroke="#0000FF" stroke-width="2" x1="306" y1="273" x2="390.5" y2="309.5"/>
		<line fill="none" stroke="#0000FF" stroke-width="2" x1="390.5" y1="309.5" x2="427" y2="396"/>
		<line fill="none" stroke="#0000FF" stroke-width="2" x1="427" y1="396" x2="390.5" y2="482.5"/>
		<line fill="none" stroke="#0000FF" stroke-width="2" x1="390.5" y1="482.5" x2="306" y2="516"/>
		<line fill="none" stroke="#0000FF" stroke-width="2" x1="306" y1="516" x2="220" y2="482.5"/>
		<line fill="none" stroke="#0000FF" stroke-width="2" x1="220" y1="482.5" x2="183" y2="396"/>
		<line fill="none" stroke="#0000FF" stroke-width="2" x1="183" y1="396" x2="220" y2="309.5"/>
	</g>
	
		<line id="mod2_1_" display="inline" fill="none" stroke="#0000FF" stroke-width="2" x1="203.966" y1="445.015" x2="406.199" y2="445.295"/>
	
		<line id="mod1_1_" display="inline" fill="none" stroke="#0000FF" stroke-width="2" x1="203.966" y1="346.985" x2="406.199" y2="346.705"/>
</g>
<g id="main">
	<g transform="scale(100) translate(0.79 0.73)">
		<path id="_95705736" d="M1.615,2.571c0,0.049,0.07,0.11,0.126,0.11h0.005c0.105,0,0.108-0.085,0.131-0.094V2.513
			c0-0.045-0.071-0.1-0.131-0.1c-0.058,0-0.131,0.054-0.131,0.1V2.571z"/>
		<path id="_102731816" d="M2.532,2.544c0,0.067,0.059,0.136,0.126,0.136h0.005c0.04,0,0.069-0.016,0.09-0.035
			c0.012-0.01,0.046-0.061,0.046-0.075V2.529c0-0.06-0.069-0.115-0.136-0.115C2.589,2.413,2.532,2.473,2.532,2.544z"/>
		<path id="_95491320" d="M1.505,2.943h0.058v1.09h0.152v-0.64h0.068v0.639H1.93v-1.09h0.058v0.409h0.115V2.88L2.096,2.822h-0.01
			c0-0.058-0.042-0.11-0.1-0.11H1.505c-0.074,0-0.11,0.086-0.11,0.162v0.477h0.11V2.943z"/>
		<polygon id="_230322080" fill="#FFFFFF" points="2.852,2.974 2.857,2.964 2.855,2.954 2.84,2.938 		"/>
		<polygon id="_43277104" fill="#FFFFFF" points="2.474,2.964 2.48,2.974 2.489,2.937 2.474,2.953 		"/>
		<path id="_42218880" d="M2.474,2.964v-0.01l0.015-0.016L2.48,2.974L2.384,3.31L2.38,3.33L2.369,3.345L2.37,3.367L2.32,3.534
			l0.181,0.001v0.492h0.131V3.534H2.7v0.492h0.131V3.534h0.178L2.976,3.402l-0.004-0.02l-0.12-0.409L2.84,2.938l0.015,0.017
			l0.002,0.009C2.909,3.024,2.993,3.32,3.072,3.32h0.01c0.031,0,0.052-0.028,0.052-0.058V3.246c0-0.012-0.119-0.25-0.133-0.291
			C2.984,2.904,2.958,2.851,2.935,2.806C2.909,2.754,2.904,2.712,2.82,2.712H2.511c-0.085,0-0.089,0.045-0.117,0.097
			C2.372,2.851,2.347,2.91,2.331,2.956c-0.014,0.04-0.129,0.277-0.129,0.29v0.016c0,0.033,0.015,0.058,0.047,0.058H2.27
			C2.329,3.32,2.429,3.015,2.474,2.964z"/>
	</g>
</g>
</svg>
