<?xml version="1.0" encoding="utf-8"?>
<!-- Generator: Adobe Illustrator 16.0.0, SVG Export Plug-In . SVG Version: 6.00 Build 0)  -->
<!DOCTYPE svg PUBLIC "-//W3C//DTD SVG 1.1//EN" "http://www.w3.org/Graphics/SVG/1.1/DTD/svg11.dtd">
<svg version="1.1" id="Version_1.0" xmlns="http://www.w3.org/2000/svg" xmlns:xlink="http://www.w3.org/1999/xlink" x="0px"
	 y="0px" width="612px" height="792px" viewBox="0 0 612 792" enable-background="new 0 0 612 792" xml:space="preserve">
<g id="octagon" display="none">
	<g id="outFrame" display="inline">
		<line fill="none" stroke="#0000FF" stroke-width="2" x1="220" y1="309.5" x2="306" y2="273"/>
		<line fill="none" stroke="#0000FF" stroke-width="2" x1="306" y1="273" x2="390.5" y2="309.5"/>
		<line fill="none" stroke="#0000FF" stroke-width="2" x1="390.5" y1="309.5" x2="427" y2="396"/>
		<line fill="none" stroke="#0000FF" stroke-width="2" x1="427" y1="396" x2="390.5" y2="482.5"/>
		<line fill="none" stroke="#0000FF" stroke-width="2" x1="390.5" y1="482.5" x2="306" y2="516"/>
		<line fill="none" stroke="#0000FF" stroke-width="2" x1="306" y1="516" x2="220" y2="482.5"/>
		<line fill="none" stroke="#0000FF" stroke-width="2" x1="220" y1="482.5" x2="183" y2="396"/>
		<line fill="none" stroke="#0000FF" stroke-width="2" x1="183" y1="396" x2="220" y2="309.5"/>
	</g>
	
		<line id="mod2_1_" display="inline" fill="none" stroke="#0000FF" stroke-width="2" x1="203.966" y1="445.015" x2="406.199" y2="445.295"/>
	
		<line id="mod1_1_" display="inline" fill="none" stroke="#0000FF" stroke-width="2" x1="203.966" y1="346.985" x2="406.199" y2="346.705"/>
</g>
<g id="main">
	<g>
		<ellipse fill="#FFFFFF" stroke="#000000" stroke-width="5" cx="305" cy="371" rx="28" ry="58"/>
		<line fill="none" stroke="#000000" stroke-width="5" x1="250" y1="316" x2="280" y2="346"/>
		<line fill="none" stroke="#000000" stroke-width="5" x1="330" y1="396" x2="360" y2="426"/>
		<line fill="none" stroke="#000000" stroke-width="5" x1="280" y1="396" x2="250" y2="426"/>
		<line fill="none" stroke="#000000" stroke-width="5" x1="360" y1="316" x2="330" y2="346"/>
		<line fill="none" stroke="#000000" stroke-width="5" x1="305" y1="428" x2="305" y2="479"/>
		<line fill="none" stroke="#000000" stroke-width="5" x1="290" y1="479" x2="320" y2="479"/>
	</g>
	<ellipse fill="none" stroke="#000000" stroke-width="5" cx="305" cy="396" rx="104" ry="104"/>
</g>
</svg>
