<?xml version="1.0" encoding="utf-8"?>
<!-- Generator: Adobe Illustrator 16.0.0, SVG Export Plug-In . SVG Version: 6.00 Build 0)  -->
<!DOCTYPE svg PUBLIC "-//W3C//DTD SVG 1.1//EN" "http://www.w3.org/Graphics/SVG/1.1/DTD/svg11.dtd">
<svg version="1.1" id="Version_1.0" xmlns="http://www.w3.org/2000/svg" xmlns:xlink="http://www.w3.org/1999/xlink" x="0px" y="0px"
	 width="612px" height="792px" viewBox="0 0 612 792" enable-background="new 0 0 612 792" xml:space="preserve">
<g id="octagon" display="none">
	<g id="outFrame" display="inline">
		<line fill="none" stroke="#0000FF" stroke-width="2" x1="220" y1="309.5" x2="306" y2="273"/>
		<line fill="none" stroke="#0000FF" stroke-width="2" x1="306" y1="273" x2="390.5" y2="309.5"/>
		<line fill="none" stroke="#0000FF" stroke-width="2" x1="390.5" y1="309.5" x2="427" y2="396"/>
		<line fill="none" stroke="#0000FF" stroke-width="2" x1="427" y1="396" x2="390.5" y2="482.5"/>
		<line fill="none" stroke="#0000FF" stroke-width="2" x1="390.5" y1="482.5" x2="306" y2="516"/>
		<line fill="none" stroke="#0000FF" stroke-width="2" x1="306" y1="516" x2="220" y2="482.5"/>
		<line fill="none" stroke="#0000FF" stroke-width="2" x1="220" y1="482.5" x2="183" y2="396"/>
		<line fill="none" stroke="#0000FF" stroke-width="2" x1="183" y1="396" x2="220" y2="309.5"/>
	</g>
	
		<line id="mod2_1_" display="inline" fill="none" stroke="#0000FF" stroke-width="2" x1="203.966" y1="445.015" x2="406.199" y2="445.295"/>
	
		<line id="mod1_1_" display="inline" fill="none" stroke="#0000FF" stroke-width="2" x1="203.966" y1="346.985" x2="406.199" y2="346.705"/>
</g>
<g id="main">
	<g transform="scale(100) translate(0.74 0.49)">
		<path id="_234374400" fill="#FFFFFF" d="M2.125,3.02l0.088,0.197l0.114-0.016h0.025c0.032,0,0.064,0.007,0.091,0.014
			c0.043,0.011,0.04-0.002,0.054-0.038C2.508,3.149,2.554,3.044,2.554,3.02C2.485,3.004,2.453,2.973,2.352,2.973H2.318
			C2.227,2.973,2.188,3.005,2.125,3.02z"/>
		<path id="_43225312" fill="#FFFFFF" d="M1.762,3.294l0.19,0.114C1.984,3.359,2.118,3.25,2.183,3.235L2.087,3.037
			C2.01,3.054,1.802,3.234,1.762,3.294z"/>
		<path id="_95705736" fill="#FFFFFF" d="M2.512,3.245c0.053,0.013,0.191,0.14,0.204,0.185l0.158-0.153
			C2.836,3.219,2.662,3.057,2.591,3.04L2.512,3.245z"/>
		<path id="_102731816" d="M2.171,3.879c0-0.087,0.064-0.181,0.147-0.181c0.079,0,0.139,0.099,0.139,0.177v0.021H2.171V3.879z
			 M2.851,3.761l0.226-0.105c0.004,0.042,0.019,0.08,0.026,0.13c0.007,0.045,0.016,0.083,0.016,0.14v0.013h-0.25L2.851,3.761z
			 M1.764,3.883l0.003,0.055H1.51c0.001-0.04,0.007-0.096,0.014-0.134C1.527,3.787,1.53,3.76,1.536,3.744
			c0.002-0.006,0.017-0.056,0.018-0.061l0.231,0.078L1.764,3.883z M2.74,3.462l0.156-0.156C2.911,3.33,2.927,3.35,2.944,3.375
			C2.963,3.403,2.973,3.424,2.99,3.452c0.016,0.026,0.07,0.14,0.069,0.172L2.841,3.728C2.839,3.665,2.767,3.503,2.74,3.462z
			 M1.792,3.723L1.564,3.647C1.567,3.618,1.623,3.5,1.639,3.473c0.03-0.052,0.074-0.105,0.099-0.151l0.189,0.11
			C1.923,3.445,1.863,3.54,1.851,3.567C1.832,3.61,1.81,3.689,1.792,3.723z M2.591,3.04c0.071,0.017,0.245,0.178,0.283,0.236
			L2.716,3.43C2.703,3.385,2.565,3.258,2.512,3.245L2.591,3.04z M1.762,3.294c0.04-0.06,0.248-0.239,0.324-0.257l0.096,0.198
			C2.118,3.25,1.984,3.359,1.952,3.407L1.762,3.294z M2.125,3.02c0.064-0.015,0.102-0.046,0.194-0.046h0.034
			c0.101,0,0.133,0.03,0.202,0.046C2.554,3.044,2.508,3.149,2.497,3.177c-0.014,0.035-0.01,0.049-0.054,0.038
			C2.416,3.208,2.384,3.201,2.352,3.201H2.327L2.213,3.217L2.125,3.02z M1.472,3.955H1.32c-0.01,0-0.013,0.003-0.013,0.013v0.004
			c0,0.01,0.003,0.013,0.013,0.013h1.976c0.008,0,0.017-0.008,0.017-0.013c0-0.01-0.007-0.017-0.017-0.017H3.153V3.917
			c0-0.253-0.122-0.51-0.237-0.648C2.804,3.136,2.601,2.935,2.365,2.935H2.314c-0.242,0-0.469,0.211-0.589,0.342
			C1.6,3.416,1.472,3.691,1.472,3.955L1.472,3.955z"/>
		<path id="_95491320" fill="#FFFFFF" d="M1.792,3.723C1.81,3.689,1.832,3.61,1.851,3.567C1.863,3.54,1.923,3.445,1.927,3.433
			l-0.189-0.11c-0.025,0.045-0.069,0.099-0.099,0.15C1.623,3.5,1.567,3.618,1.564,3.647L1.792,3.723z"/>
		<path id="_230322080" fill="#FFFFFF" d="M2.74,3.462c0.027,0.041,0.1,0.203,0.101,0.265l0.218-0.104
			C3.06,3.592,3.006,3.478,2.99,3.452C2.973,3.424,2.963,3.403,2.944,3.375C2.927,3.35,2.911,3.33,2.896,3.306L2.74,3.462z"/>
		<path id="_43277104" fill="#FFFFFF" d="M2.869,3.938h0.25V3.926c0-0.057-0.009-0.095-0.016-0.14
			c-0.007-0.05-0.023-0.088-0.026-0.13L2.851,3.761L2.869,3.938z"/>
		<path id="_42218880" fill="#FFFFFF" d="M2.171,3.896h0.286V3.875c0-0.078-0.061-0.177-0.139-0.177
			c-0.083,0-0.147,0.094-0.147,0.181V3.896z"/>
		<path id="_41709736" fill="#FFFFFF" d="M1.784,3.761L1.552,3.683C1.551,3.688,1.537,3.739,1.535,3.744
			C1.529,3.76,1.526,3.787,1.523,3.804C1.517,3.842,1.51,3.898,1.51,3.938h0.257L1.764,3.883L1.784,3.761z"/>
	</g>
</g>
</svg>
