<?xml version="1.0" encoding="utf-8"?>
<!-- Generator: Adobe Illustrator 16.0.0, SVG Export Plug-In . SVG Version: 6.00 Build 0)  -->
<!DOCTYPE svg PUBLIC "-//W3C//DTD SVG 1.1//EN" "http://www.w3.org/Graphics/SVG/1.1/DTD/svg11.dtd">
<svg version="1.1" id="Version_1.0" xmlns="http://www.w3.org/2000/svg" xmlns:xlink="http://www.w3.org/1999/xlink" x="0px" y="0px"
	 width="612px" height="792px" viewBox="0 0 612 792" enable-background="new 0 0 612 792" xml:space="preserve">
<g id="octagon" display="none">
	<g id="outFrame" display="inline">
		<line fill="none" stroke="#0000FF" stroke-width="2" x1="220" y1="309.5" x2="306" y2="273"/>
		<line fill="none" stroke="#0000FF" stroke-width="2" x1="306" y1="273" x2="390.5" y2="309.5"/>
		<line fill="none" stroke="#0000FF" stroke-width="2" x1="390.5" y1="309.5" x2="427" y2="396"/>
		<line fill="none" stroke="#0000FF" stroke-width="2" x1="427" y1="396" x2="390.5" y2="482.5"/>
		<line fill="none" stroke="#0000FF" stroke-width="2" x1="390.5" y1="482.5" x2="306" y2="516"/>
		<line fill="none" stroke="#0000FF" stroke-width="2" x1="306" y1="516" x2="220" y2="482.5"/>
		<line fill="none" stroke="#0000FF" stroke-width="2" x1="220" y1="482.5" x2="183" y2="396"/>
		<line fill="none" stroke="#0000FF" stroke-width="2" x1="183" y1="396" x2="220" y2="309.5"/>
	</g>
	
		<line id="mod2_1_" display="inline" fill="none" stroke="#0000FF" stroke-width="2" x1="203.966" y1="445.015" x2="406.199" y2="445.295"/>
	
		<line id="mod1_1_" display="inline" fill="none" stroke="#0000FF" stroke-width="2" x1="203.966" y1="346.985" x2="406.199" y2="346.705"/>
</g>
<g id="main">
	<g transform="scale(100) translate(0.71 0.8)">
		<path id="_85660424" d="M1.42,3.051H1.364L1.349,3.103h0.064v0.055h-0.05L1.349,3.209h0.064c0.011,0.048,0.014,0.097,0.026,0.145
			C1.451,3.4,1.472,3.437,1.492,3.475c0.032,0.062,0.121,0.13,0.215,0.13h0.035c0.064,0,0.134-0.03,0.167-0.062
			C1.935,3.517,2,3.45,2.008,3.412l-0.016-0.01C1.978,3.411,1.933,3.475,1.91,3.496C1.886,3.517,1.826,3.547,1.783,3.547H1.738
			c-0.128,0-0.196-0.199-0.196-0.338H1.88c0.012,0,0.02-0.04,0.023-0.051h-0.36V3.103h0.37c0.014,0,0.018-0.041,0.023-0.051H1.545
			c0.003-0.005,0.017-0.095,0.021-0.111C1.574,2.907,1.59,2.869,1.603,2.842c0.025-0.05,0.08-0.116,0.154-0.116h0.039
			c0.102,0,0.171,0.102,0.171,0.206h0.026V2.746c0-0.022-0.152-0.061-0.193-0.061H1.748c-0.097,0-0.185,0.064-0.228,0.12
			C1.482,2.854,1.422,2.969,1.42,3.051L1.42,3.051z"/>
		<path id="_87409168" d="M2.784,3.505c0-0.026,0.024-0.045,0.051-0.045h0.016c0.023,0,0.03,0.012,0.048,0.016
			c-0.01,0.041-0.026,0.09-0.077,0.09H2.819c-0.018,0-0.035-0.021-0.035-0.039V3.505z M2.996,2.868c0-0.068,0.038-0.145,0.103-0.145
			h0.023c0.11,0,0.046,0.145,0.116,0.145H3.25c0.022,0,0.045-0.027,0.045-0.051v-0.01c0-0.059-0.078-0.122-0.142-0.122H3.125
			c-0.147,0-0.235,0.13-0.235,0.28v0.061H2.768V3.09h0.125L2.9,3.151H2.768v0.064h0.135L2.91,3.341L2.909,3.425L2.874,3.421H2.842
			c-0.05,0-0.097,0.044-0.097,0.093c0,0.05,0.025,0.09,0.074,0.09h0.013c0.045,0,0.101-0.067,0.109-0.103
			c0.01,0.003,0.073,0.052,0.089,0.062c0.027,0.018,0.068,0.041,0.111,0.041h0.035c0.086,0,0.167-0.124,0.167-0.216
			c-0.013,0-0.006-0.002-0.019-0.002c-0.008,0-0.024,0.103-0.125,0.103H3.167c-0.039,0-0.169-0.038-0.196-0.051
			C2.985,3.379,3.01,3.322,3.01,3.248V3.215h0.17V3.151H3.009V3.125L3.005,3.09h0.174V3.026H3.003L2.995,2.89L2.996,2.868
			L2.996,2.868z"/>
		<path id="_87516072" d="M2.382,3.212c0.013,0.003,0.084,0.06,0.096,0.072C2.51,3.315,2.526,3.336,2.534,3.392
			c0.011,0.082-0.07,0.169-0.152,0.171V3.212z M2.34,3.035C2.292,3.01,2.216,2.943,2.211,2.878C2.205,2.791,2.254,2.73,2.34,2.73
			V3.035z M2.382,2.726C2.4,2.735,2.437,2.734,2.463,2.748C2.484,2.76,2.506,2.772,2.52,2.791c0.043,0.059,0.034,0.07,0.052,0.148
			h0.026v-0.19c0-0.023-0.171-0.061-0.216-0.061V2.62H2.34v0.068c-0.116,0-0.232,0.091-0.232,0.209v0.019
			c0,0.068,0.047,0.131,0.086,0.161C2.221,3.098,2.312,3.173,2.34,3.18v0.383c-0.058,0-0.12-0.028-0.149-0.057
			C2.175,3.49,2.16,3.465,2.151,3.443C2.146,3.43,2.141,3.367,2.128,3.367H2.105v0.19C2.122,3.558,2.184,3.583,2.211,3.59
			c0.031,0.008,0.08,0.015,0.12,0.015h0.01v0.08h0.042v-0.08c0.134,0,0.257-0.105,0.257-0.241c0-0.086-0.05-0.142-0.099-0.181
			C2.487,3.141,2.438,3.102,2.382,3.064V2.726L2.382,2.726z"/>
	</g>
</g>
</svg>
