<?xml version="1.0" encoding="utf-8"?>
<!-- Generator: Adobe Illustrator 16.0.0, SVG Export Plug-In . SVG Version: 6.00 Build 0)  -->
<!DOCTYPE svg PUBLIC "-//W3C//DTD SVG 1.1//EN" "http://www.w3.org/Graphics/SVG/1.1/DTD/svg11.dtd">
<svg version="1.1" id="Version_1.0" xmlns="http://www.w3.org/2000/svg" xmlns:xlink="http://www.w3.org/1999/xlink" x="0px" y="0px"
	 width="612px" height="792px" viewBox="0 0 612 792" enable-background="new 0 0 612 792" xml:space="preserve">
<g id="octagon" display="none">
	<g id="outFrame" display="inline">
		<line fill="none" stroke="#0000FF" stroke-width="2" x1="220" y1="309.5" x2="306" y2="273"/>
		<line fill="none" stroke="#0000FF" stroke-width="2" x1="306" y1="273" x2="390.5" y2="309.5"/>
		<line fill="none" stroke="#0000FF" stroke-width="2" x1="390.5" y1="309.5" x2="427" y2="396"/>
		<line fill="none" stroke="#0000FF" stroke-width="2" x1="427" y1="396" x2="390.5" y2="482.5"/>
		<line fill="none" stroke="#0000FF" stroke-width="2" x1="390.5" y1="482.5" x2="306" y2="516"/>
		<line fill="none" stroke="#0000FF" stroke-width="2" x1="306" y1="516" x2="220" y2="482.5"/>
		<line fill="none" stroke="#0000FF" stroke-width="2" x1="220" y1="482.5" x2="183" y2="396"/>
		<line fill="none" stroke="#0000FF" stroke-width="2" x1="183" y1="396" x2="220" y2="309.5"/>
	</g>
	
		<line id="mod2_1_" display="inline" fill="none" stroke="#0000FF" stroke-width="2" x1="203.966" y1="445.015" x2="406.199" y2="445.295"/>
	
		<line id="mod1_1_" display="inline" fill="none" stroke="#0000FF" stroke-width="2" x1="203.966" y1="346.985" x2="406.199" y2="346.705"/>
</g>
<g id="main">
	<g transform="scale(100) translate(0.73 0.71)">
		<path id="_65851048" d="M2.314,2.433c0.005,0,0.888,0.495,0.927,0.529H3.12v0.966H1.523V2.963H1.401
			C1.44,2.929,1.574,2.861,1.628,2.83c0.077-0.045,0.151-0.086,0.227-0.132C1.895,2.673,2.312,2.433,2.314,2.433z M1.231,3.011
			l0.248-0.005v0.961h1.685v-0.96l0.248,0.004C3.4,2.995,2.321,2.385,2.314,2.385c-0.001,0-0.487,0.284-0.542,0.312
			C1.685,2.743,1.586,2.801,1.5,2.853C1.433,2.894,1.28,2.969,1.231,3.011L1.231,3.011z"/>
		<path id="_65384112" fill="#FFFFFF" d="M1.62,3.084h1.394v0.709H1.62V3.084z M2.314,2.433c-0.003,0-0.419,0.239-0.459,0.264
			C1.779,2.744,1.705,2.785,1.628,2.83C1.574,2.861,1.44,2.929,1.401,2.963h0.121v0.966H3.12V2.963h0.121
			C3.202,2.928,2.319,2.433,2.314,2.433z"/>
		<rect x="1.58" y="3.05" fill="#FFFFFF" stroke="#FFFFFF" width="1.48" height="0.8"/>
	</g>
	<g transform="scale(70) translate(0.69 0.7) translate(0.857143 1.1)">
		<path id="_65845560" fill="#FFFFFF" d="M1.903,3.659c0.05,0.012,0.163,0.074,0.221,0.096c0.072,0.028,0.145,0.067,0.22,0.097
			c0.051,0.021,0.432,0.194,0.445,0.194c0.023,0,0.397-0.17,0.451-0.193C3.317,3.82,3.388,3.787,3.465,3.756
			C3.524,3.733,3.638,3.671,3.69,3.659v-0.08H1.903V3.659L1.903,3.659z"/>
		<path id="_65375856" d="M1.903,3.71l0.891,0.387L3.69,3.71v0.795H1.903V3.71L1.903,3.71z M3.465,3.757
			C3.388,3.788,3.317,3.821,3.24,3.854C3.186,3.877,2.812,4.047,2.789,4.047c-0.013,0-0.394-0.174-0.445-0.194
			c-0.075-0.03-0.148-0.069-0.22-0.097C2.066,3.733,1.953,3.671,1.903,3.659v-0.08H3.69V3.66C3.638,3.671,3.524,3.733,3.465,3.757z
			 M1.863,4.55H3.73V3.539H1.863V4.55z"/>
		<polygon id="_97984040" fill="#FFFFFF" points="1.903,4.505 3.69,4.505 3.69,3.71 2.794,4.097 1.903,3.71 		"/>
	</g>
</g>
</svg>
