<?xml version="1.0" encoding="utf-8"?>
<!-- Generator: Adobe Illustrator 16.0.0, SVG Export Plug-In . SVG Version: 6.00 Build 0)  -->
<!DOCTYPE svg PUBLIC "-//W3C//DTD SVG 1.1//EN" "http://www.w3.org/Graphics/SVG/1.1/DTD/svg11.dtd">
<svg version="1.1" id="Version_1.0" xmlns="http://www.w3.org/2000/svg" xmlns:xlink="http://www.w3.org/1999/xlink" x="0px" y="0px"
	 width="400px" height="400px" viewBox="0 0 400 400" enable-background="new 0 0 400 400" xml:space="preserve">
<g id="main">
	<line fill="none" stroke="#C61021" stroke-width="4.8571" x1="22.243" y1="187.786" x2="90.243" y2="187.786"/>
	<line fill="none" stroke="#0000FF" stroke-width="4.8571" x1="119.386" y1="187.786" x2="187.386" y2="187.786"/>
	<line fill="none" stroke="#C61021" stroke-width="4.8571" x1="216.527" y1="187.786" x2="284.527" y2="187.786"/>
	<line fill="none" stroke="#0000FF" stroke-width="4.8571" x1="313.672" y1="187.786" x2="381.672" y2="187.786"/>
	<polyline fill="#0000FF" stroke="#0000FF" stroke-width="4.8571" points="129.1,187.786 153.386,231.5 177.672,187.786 	"/>
	<path fill="#C61021" stroke="#C61021" stroke-width="4.8571" d="M226.243,187.786c0-13.412,10.873-24.286,24.284-24.286
		c13.412,0,24.285,10.874,24.285,24.286"/>
	<polyline fill="#0000FF" stroke="#0000FF" stroke-width="4.8571" points="323.386,187.786 347.672,231.5 371.957,187.786 	"/>
	<path fill="#C61021" stroke="#C61021" stroke-width="4.8571" d="M31.957,187.786c0-13.412,10.873-24.286,24.286-24.286
		c13.413,0,24.286,10.874,24.286,24.286"/>
	<line fill="none" stroke="#0000FF" stroke-width="4.8571" x1="104.814" y1="187.786" x2="114.528" y2="187.786"/>
	<line fill="none" stroke="#C61021" stroke-width="4.8571" x1="95.1" y1="187.786" x2="104.814" y2="187.786"/>
	<line fill="none" stroke="#C61021" stroke-width="4.8571" x1="201.957" y1="187.786" x2="211.672" y2="187.786"/>
	<line fill="none" stroke="#0000FF" stroke-width="4.8571" x1="192.243" y1="187.786" x2="201.957" y2="187.786"/>
	<line fill="none" stroke="#0000FF" stroke-width="4.8571" x1="299.102" y1="187.786" x2="308.813" y2="187.786"/>
	<line fill="none" stroke="#C61021" stroke-width="4.8571" x1="289.386" y1="187.786" x2="299.102" y2="187.786"/>
	<line fill="none" stroke="#C61021" stroke-width="4.8571" x1="7.672" y1="187.786" x2="17.386" y2="187.786"/>
	<line fill="none" stroke="#0000FF" stroke-width="4.8571" x1="386.528" y1="187.786" x2="396.243" y2="187.786"/>
	<line fill="none" stroke="#C61021" stroke-width="4.8571" x1="98.014" y1="178.072" x2="111.614" y2="197.5"/>
	<line fill="none" stroke="#0000FF" stroke-width="4.8571" x1="195.157" y1="178.072" x2="208.758" y2="197.5"/>
	<line fill="none" stroke="#C61021" stroke-width="4.8571" x1="292.301" y1="178.072" x2="305.898" y2="197.5"/>
	<line fill="none" stroke="#0000FF" stroke-width="4.8571" x1="0.872" y1="178.072" x2="14.471" y2="197.5"/>
	<line fill="none" stroke="#0000FF" stroke-width="4.8571" x1="389.442" y1="178.072" x2="403.043" y2="197.5"/>
</g>
</svg>
