<?xml version="1.0" encoding="utf-8"?>
<!-- Generator: Adobe Illustrator 16.0.0, SVG Export Plug-In . SVG Version: 6.00 Build 0)  -->
<!DOCTYPE svg PUBLIC "-//W3C//DTD SVG 1.1//EN" "http://www.w3.org/Graphics/SVG/1.1/DTD/svg11.dtd">
<svg version="1.1" id="Version_1.0" xmlns="http://www.w3.org/2000/svg" xmlns:xlink="http://www.w3.org/1999/xlink" x="0px" y="0px"
	 width="400px" height="400px" viewBox="0 0 400 400" enable-background="new 0 0 400 400" xml:space="preserve">
<g id="main">
	<path fill="none" stroke="#0000FF" stroke-width="10" d="M169,78c0.391-42.525,71.4-43.973,76,3c46-21.25,83.708,38.375,56,59
		c44.639,0.889,50.583,66.723,15,80c41.611,35.027-12.332,84.826-38,69c4.167,41.473-55.712,60.131-74,29
		c-21.361,31.193-83.2,19.166-73-21c-49.611,12.027-69.73-29.365-42-55c-48.278-10.473-47.002-54.21-10-65
		c-32-35.333,5.1-72.378,32-56C102.25,78.25,140.7,56.317,169,78z"/>
</g>
</svg>
