<?xml version="1.0" encoding="utf-8"?>
<!-- Generator: Adobe Illustrator 16.0.3, SVG Export Plug-In . SVG Version: 6.00 Build 0)  -->
<!DOCTYPE svg PUBLIC "-//W3C//DTD SVG 1.1//EN" "http://www.w3.org/Graphics/SVG/1.1/DTD/svg11.dtd">
<svg version="1.1" id="Layer_2" xmlns="http://www.w3.org/2000/svg" xmlns:xlink="http://www.w3.org/1999/xlink" x="0px" y="0px"
	 width="612px" height="792px" viewBox="0 0 612 792" enable-background="new 0 0 612 792" xml:space="preserve">
<g>
	<text transform="matrix(1 0 0 1 278 519)" font-family="'ArialMT'" font-size="72">M</text>
	<circle cx="306.5" cy="395.5" r="55"/>
	<path d="M306.5,340.5v0.5c15.052,0,28.673,6.1,38.537,15.963C354.9,366.827,361,380.449,361,395.5
		c0,15.052-6.1,28.673-15.963,38.537C335.173,443.9,321.552,450,306.5,450c-15.051,0-28.673-6.1-38.537-15.963
		C258.1,424.173,252,410.552,252,395.5c0-15.051,6.1-28.673,15.963-38.537C277.827,347.1,291.449,341,306.5,341V340.5V340
		c-30.652,0-55.5,24.848-55.5,55.5c0,30.652,24.848,55.5,55.5,55.5c30.652,0,55.5-24.848,55.5-55.5c0-30.652-24.848-55.5-55.5-55.5
		V340.5z"/>
	<polyline points="178.5,217.5 178.5,567.5 186.5,567.5 186.5,217.5 	"/>
	<polyline points="424.5,220.5 424.5,570.5 432.5,570.5 432.5,220.5 	"/>
</g>
</svg>
