<?xml version="1.0" encoding="utf-8"?>
<!-- Generator: Adobe Illustrator 16.0.3, SVG Export Plug-In . SVG Version: 6.00 Build 0)  -->
<!DOCTYPE svg PUBLIC "-//W3C//DTD SVG 1.1//EN" "http://www.w3.org/Graphics/SVG/1.1/DTD/svg11.dtd">
<svg version="1.1" xmlns="http://www.w3.org/2000/svg" xmlns:xlink="http://www.w3.org/1999/xlink" x="0px" y="0px" width="612px"
	 height="792px" viewBox="0 0 612 792" enable-background="new 0 0 612 792" xml:space="preserve">
<g id="Version_1.0" display="none">
	<g id="octagon" display="inline">
		<g id="outFrame">
			<line fill="none" stroke="#0000FF" stroke-width="2" x1="220" y1="309.5" x2="306" y2="273"/>
			<line fill="none" stroke="#0000FF" stroke-width="2" x1="306" y1="273" x2="390.5" y2="309.5"/>
			<line fill="none" stroke="#0000FF" stroke-width="2" x1="390.5" y1="309.5" x2="427" y2="396"/>
			<line fill="none" stroke="#0000FF" stroke-width="2" x1="427" y1="396" x2="390.5" y2="482.5"/>
			<line fill="none" stroke="#0000FF" stroke-width="2" x1="390.5" y1="482.5" x2="306" y2="516"/>
			<line fill="none" stroke="#0000FF" stroke-width="2" x1="306" y1="516" x2="220" y2="482.5"/>
			<line fill="none" stroke="#0000FF" stroke-width="2" x1="220" y1="482.5" x2="183" y2="396"/>
			<line fill="none" stroke="#0000FF" stroke-width="2" x1="183" y1="396" x2="220" y2="309.5"/>
		</g>
		<line id="mod2_1_" fill="none" stroke="#0000FF" stroke-width="2" x1="203.966" y1="445.015" x2="406.199" y2="445.295"/>
		<line id="mod1_1_" fill="none" stroke="#0000FF" stroke-width="2" x1="203.966" y1="346.985" x2="406.199" y2="346.705"/>
	</g>
</g>
<g id="Layer_2">
	<g>
		<line fill="none" stroke="#000000" stroke-width="10" x1="306" y1="445.5" x2="306" y2="351.25"/>
	</g>
	<g id="Layer_2_2_" display="none">
		<text transform="matrix(1 0 0 1 258 502)" display="inline" font-family="sans-serif" font-size="72">NC</text>
	</g>
	<rect x="258" y="368.5" fill="none" stroke="#000000" stroke-width="10" stroke-miterlimit="10" width="96" height="58"/>
	<path fill="none" stroke="#000000" stroke-width="10" stroke-miterlimit="10" d="M368.116,448.489
		c-14.619,18.073-37.013,29.636-62.116,29.636c-44.045,0-79.75-35.593-79.75-79.5c0-43.906,35.705-79.5,79.75-79.5
		c25.904,0,48.924,12.311,63.491,31.385"/>
</g>
</svg>
