<?xml version="1.0" encoding="utf-8"?>
<!-- Generator: Adobe Illustrator 16.0.0, SVG Export Plug-In . SVG Version: 6.00 Build 0)  -->
<!DOCTYPE svg PUBLIC "-//W3C//DTD SVG 1.1//EN" "http://www.w3.org/Graphics/SVG/1.1/DTD/svg11.dtd">
<svg version="1.1" id="Version_1.0" xmlns="http://www.w3.org/2000/svg" xmlns:xlink="http://www.w3.org/1999/xlink" x="0px"
	 y="0px" width="612px" height="792px" viewBox="0 0 612 792" enable-background="new 0 0 612 792" xml:space="preserve">
<g id="mod1">
	<path fill="none" stroke="#000000" stroke-width="5" stroke-linecap="round" stroke-linejoin="round" stroke-miterlimit="10" d="
		M367.723,396.426c-0.003-4.803-3.898-8.695-8.701-8.695c-4.807,0-8.703,3.896-8.703,8.702s-3.896,8.702-8.701,8.702
		c-4.807,0-8.703-3.896-8.703-8.702c0-0.002,0-0.005,0-0.007l0,0c-0.003-4.803-3.898-8.695-8.703-8.695
		c-4.806,0-8.701,3.896-8.701,8.702s-3.896,8.702-8.702,8.702c-4.807,0-8.702-3.896-8.702-8.702c0-0.002,0-0.005,0-0.007
		c-0.004-4.803-3.899-8.695-8.703-8.695c-4.806,0-8.702,3.896-8.702,8.702s-3.896,8.702-8.702,8.702
		c-4.806,0-8.702-3.896-8.702-8.702c0-0.002,0-0.005,0-0.007c-0.004-4.803-3.899-8.695-8.703-8.695
		c-4.806,0-8.702,3.896-8.702,8.702"/>
</g>
</svg>
