<?xml version="1.0" encoding="utf-8"?>
<!-- Generator: Adobe Illustrator 16.0.0, SVG Export Plug-In . SVG Version: 6.00 Build 0)  -->
<!DOCTYPE svg PUBLIC "-//W3C//DTD SVG 1.1//EN" "http://www.w3.org/Graphics/SVG/1.1/DTD/svg11.dtd">
<svg version="1.1" id="Version_1.0" xmlns="http://www.w3.org/2000/svg" xmlns:xlink="http://www.w3.org/1999/xlink" x="0px"
	 y="0px" width="400px" height="400px" viewBox="0 0 400 400" enable-background="new 0 0 400 400" xml:space="preserve">
<g id="mod1">
	<path fill="#00A651" d="M278.135,164.932c-14.801,0-26.799,10.968-26.799,24.5c0,13.531,11.998,24.5,26.799,24.5
		c14.805,0,26.803-10.969,26.803-24.5C304.938,175.9,292.938,164.932,278.135,164.932L278.135,164.932z"/>
	<g>
		<path fill="none" stroke="#00A450" stroke-width="5" stroke-dasharray="9" d="M176.061,198.023
			c0-15.596,12.741-28.239,28.457-28.239c15.715,0,28.456,12.643,28.456,28.239"/>
		<line fill="none" stroke="#00A450" stroke-width="5" stroke-dasharray="9" x1="175.523" y1="198.395" x2="233.398" y2="198.41"/>
	</g>
	<path fill="#00A651" d="M127.231,164.932c-14.803,0-26.8,10.968-26.8,24.5c0,13.531,11.998,24.5,26.8,24.5
		c14.802,0,26.802-10.969,26.802-24.5C154.033,175.9,142.034,164.932,127.231,164.932L127.231,164.932z"/>
</g>
</svg>
