<?xml version="1.0" encoding="utf-8"?>
<!-- Generator: Adobe Illustrator 16.0.0, SVG Export Plug-In . SVG Version: 6.00 Build 0)  -->
<!DOCTYPE svg PUBLIC "-//W3C//DTD SVG 1.1//EN" "http://www.w3.org/Graphics/SVG/1.1/DTD/svg11.dtd">
<svg version="1.1" id="Version_1.0" xmlns="http://www.w3.org/2000/svg" xmlns:xlink="http://www.w3.org/1999/xlink" x="0px"
	 y="0px" width="400px" height="400px" viewBox="0 0 400 400" enable-background="new 0 0 400 400" xml:space="preserve">
<g id="mod1">
	<g>
		<polyline fill="none" stroke="#00A84F" stroke-width="5" stroke-miterlimit="10" points="289.003,209.549 302.836,224.833 
			316.669,209.299 		"/>
		<polyline fill="none" stroke="#00A84F" stroke-width="5" stroke-miterlimit="10" points="240.598,209.549 254.432,224.833 
			268.264,209.299 		"/>
		<path fill="#00A651" d="M279.135,164.932c-14.801,0-26.799,10.968-26.799,24.5c0,13.531,11.998,24.5,26.799,24.5
			c14.805,0,26.804-10.969,26.804-24.5C305.938,175.9,293.938,164.932,279.135,164.932L279.135,164.932z"/>
	</g>
	<path fill="#00A651" d="M201.686,164.932c-14.806,0-26.803,10.968-26.803,24.5c0,13.531,11.998,24.5,26.803,24.5
		c14.801,0,26.799-10.969,26.799-24.5C228.482,175.9,216.484,164.932,201.686,164.932L201.686,164.932z"/>
	<g>
		<line fill="none" stroke="#00A651" stroke-width="5" stroke-miterlimit="8" x1="112.167" y1="174.5" x2="97.5" y2="156.5"/>
		<line fill="none" stroke="#00A651" stroke-width="5" stroke-miterlimit="8" x1="143.583" y1="173.3" x2="159.612" y2="156.5"/>
		<path fill="#00A651" d="M127.231,164.932c-14.803,0-26.8,10.968-26.8,24.5c0,13.531,11.998,24.5,26.8,24.5
			c14.802,0,26.802-10.969,26.802-24.5C154.033,175.9,142.034,164.932,127.231,164.932L127.231,164.932z"/>
	</g>
</g>
</svg>
