<?xml version="1.0" encoding="utf-8"?>
<!-- Generator: Adobe Illustrator 16.0.0, SVG Export Plug-In . SVG Version: 6.00 Build 0)  -->
<!DOCTYPE svg PUBLIC "-//W3C//DTD SVG 1.1//EN" "http://www.w3.org/Graphics/SVG/1.1/DTD/svg11.dtd">
<svg version="1.1" id="Version_1.0" xmlns="http://www.w3.org/2000/svg" xmlns:xlink="http://www.w3.org/1999/xlink" x="0px"
	 y="0px" width="400px" height="400px" viewBox="0 0 400 400" enable-background="new 0 0 400 400" xml:space="preserve">
<g id="mod1">
	<g>
		<path fill="none" stroke="#00A450" stroke-width="5" stroke-dasharray="9" d="M251.348,198.023
			c0-15.596,12.74-28.239,28.455-28.239c15.717,0,28.457,12.643,28.457,28.239"/>
		<line fill="none" stroke="#00A450" stroke-width="5" stroke-dasharray="9" x1="250.809" y1="198.395" x2="308.686" y2="198.41"/>
	</g>
	<g>
		<polyline fill="none" stroke="#00A84F" stroke-width="5" stroke-miterlimit="10" points="163.598,209.549 177.431,224.833 
			191.264,209.299 		"/>
		<polyline fill="none" stroke="#00A84F" stroke-width="5" stroke-miterlimit="10" points="212.003,209.549 225.836,224.833 
			239.669,209.299 		"/>
		<path fill="#00A651" d="M201.686,164.932c-14.806,0-26.803,10.968-26.803,24.5c0,13.531,11.998,24.5,26.803,24.5
			c14.801,0,26.799-10.969,26.799-24.5C228.482,175.9,216.484,164.932,201.686,164.932L201.686,164.932z"/>
	</g>
	<g>
		<line fill="none" stroke="#00A651" stroke-width="5" stroke-miterlimit="8" x1="103.167" y1="174.5" x2="88.5" y2="156.5"/>
		<line fill="none" stroke="#00A651" stroke-width="5" stroke-miterlimit="8" x1="134.583" y1="173.3" x2="150.612" y2="156.5"/>
		<path fill="#00A651" d="M118.231,164.932c-14.803,0-26.8,10.968-26.8,24.5c0,13.531,11.998,24.5,26.8,24.5
			c14.802,0,26.802-10.969,26.802-24.5C145.033,175.9,133.034,164.932,118.231,164.932L118.231,164.932z"/>
		<g>
			<g>
				
					<line fill="none" stroke="#00A651" stroke-width="5" stroke-miterlimit="8" stroke-dasharray="10,10" x1="119.833" y1="189.432" x2="155.324" y2="189.432"/>
				<g>
					<polygon fill="#00A651" points="153.865,194.418 162.5,189.432 153.865,184.445 					"/>
				</g>
			</g>
		</g>
	</g>
</g>
</svg>
