<?xml version="1.0" encoding="utf-8"?>
<!-- Generator: Adobe Illustrator 16.0.0, SVG Export Plug-In . SVG Version: 6.00 Build 0)  -->
<!DOCTYPE svg PUBLIC "-//W3C//DTD SVG 1.1//EN" "http://www.w3.org/Graphics/SVG/1.1/DTD/svg11.dtd">
<svg version="1.1" id="Version_1.0" xmlns="http://www.w3.org/2000/svg" xmlns:xlink="http://www.w3.org/1999/xlink" x="0px"
	 y="0px" width="612px" height="792px" viewBox="0 0 612 792" enable-background="new 0 0 612 792" xml:space="preserve">
<g id="frame">
	<path fill="#FFA1FF" stroke="#000000" stroke-width="5" stroke-miterlimit="10" stroke-dasharray="5,5" d="M392.227,311.404
		c46.947,0,85.006,37.841,85.006,84.52s-38.059,84.521-85.006,84.521l-1.479,0.479c0,46.947-37.841,85.005-84.521,85.005
		c-46.678,0-84.52-38.058-84.52-85.005l-1.48-0.479c-46.947,0-85.005-37.842-85.005-84.521s38.058-84.52,85.005-84.52l1.48-2.48
		c0-46.947,37.841-85.005,84.52-85.005c46.68,0,84.521,38.058,84.521,85.005"/>
	<text transform="matrix(1 0 0 1 227.4141 493.1133)" font-family="sans-serif" font-size="288">?</text>
</g>
</svg>
