<?xml version="1.0" encoding="utf-8"?>
<!-- Generator: Adobe Illustrator 16.0.0, SVG Export Plug-In . SVG Version: 6.00 Build 0)  -->
<!DOCTYPE svg PUBLIC "-//W3C//DTD SVG 1.1//EN" "http://www.w3.org/Graphics/SVG/1.1/DTD/svg11.dtd">
<svg version="1.1" id="Version_1.0" xmlns="http://www.w3.org/2000/svg" xmlns:xlink="http://www.w3.org/1999/xlink" x="0px"
	 y="0px" width="612px" height="792px" viewBox="0 0 612 792" enable-background="new 0 0 612 792" xml:space="preserve">
<g id="frame_1_">
	<g>
		<polyline fill="#FF8080" points="306,568 479,395 306,222 133,395 306,568 		"/>
		<g>
			<line fill="none" stroke="#000000" stroke-width="5" stroke-miterlimit="10" x1="306" y1="568" x2="314.839" y2="559.161"/>
			
				<line fill="none" stroke="#000000" stroke-width="5" stroke-miterlimit="10" stroke-dasharray="25.5417,15.325" x1="325.675" y1="548.325" x2="464.743" y2="409.257"/>
			<polyline fill="none" stroke="#000000" stroke-width="5" stroke-miterlimit="10" points="470.161,403.839 479,395 
				470.161,386.161 			"/>
			
				<line fill="none" stroke="#000000" stroke-width="5" stroke-miterlimit="10" stroke-dasharray="25.5417,15.325" x1="459.325" y1="375.325" x2="320.257" y2="236.257"/>
			<polyline fill="none" stroke="#000000" stroke-width="5" stroke-miterlimit="10" points="314.839,230.839 306,222 
				297.161,230.839 			"/>
			
				<line fill="none" stroke="#000000" stroke-width="5" stroke-miterlimit="10" stroke-dasharray="25.5417,15.325" x1="286.325" y1="241.675" x2="147.257" y2="380.743"/>
			<polyline fill="none" stroke="#000000" stroke-width="5" stroke-miterlimit="10" points="141.839,386.161 133,395 
				141.839,403.839 			"/>
			
				<line fill="none" stroke="#000000" stroke-width="5" stroke-miterlimit="10" stroke-dasharray="25.5417,15.325" x1="152.675" y1="414.675" x2="291.743" y2="553.743"/>
			<line fill="none" stroke="#000000" stroke-width="5" stroke-miterlimit="10" x1="297.161" y1="559.161" x2="306" y2="568"/>
		</g>
	</g>
	<text transform="matrix(1 0 0 1 227.5 502.5)" font-family="sans-serif" font-size="288">?</text>
</g>
</svg>
