<?xml version="1.0" encoding="utf-8"?>
<!-- Generator: Adobe Illustrator 16.0.0, SVG Export Plug-In . SVG Version: 6.00 Build 0)  -->
<!DOCTYPE svg PUBLIC "-//W3C//DTD SVG 1.1//EN" "http://www.w3.org/Graphics/SVG/1.1/DTD/svg11.dtd">
<svg version="1.1" id="Version_1.0" xmlns="http://www.w3.org/2000/svg" xmlns:xlink="http://www.w3.org/1999/xlink" x="0px"
	 y="0px" width="612px" height="792px" viewBox="0 0 612 792" enable-background="new 0 0 612 792" xml:space="preserve">
<g id="main">
	<line fill="none" stroke="#010101" stroke-width="9.5864" x1="139.229" y1="375" x2="468.229" y2="375"/>
	<text transform="matrix(1 0 0 1 116.2285 343)" fill="#010101" font-family="'ArialMT'" font-size="24">EWL</text>
	<text transform="matrix(1 0 0 1 448.2285 343)" fill="#010101" font-family="'ArialMT'" font-size="24">EWL</text>
</g>
<g id="Example" display="none">
	<text transform="matrix(1 0 0 1 210.2285 360.2227)" display="inline" font-family="'ArialMT'" font-size="24">326EN BN (USA)</text>
	<text transform="matrix(1 0 0 1 210.2285 410.6973)" display="inline" font-family="'ArialMT'" font-size="24">127EN BN (USA)</text>
</g>
<g id="template">
	<text transform="matrix(1 0 0 1 438.2285 462)" fill="#010101" font-family="'ArialMT'" font-size="24">PT 2</text>
	<text transform="matrix(1 0 0 1 113.2285 462)" fill="#010101" font-family="'ArialMT'" font-size="24">PT 1</text>
	<path fill="#010101" stroke="#010101" stroke-width="0.4335" stroke-linejoin="bevel" stroke-miterlimit="10" d="M466.359,436.701
		l0.052-21.317c0.029-1.003,0.839-1.79,1.816-1.79c1.002,0,1.813,0.813,1.813,1.82l-0.084,21.291c0,1-0.809,1.816-1.813,1.816
		C467.146,438.52,466.359,437.705,466.359,436.701L466.359,436.701z M457.393,418.96l10.938-36.087l10.732,36.166L457.393,418.96z"
		/>
	<path fill="#010101" stroke="#010101" stroke-width="0.4335" stroke-linejoin="bevel" stroke-miterlimit="10" d="M138.359,436.701
		l0.052-21.317c0.029-1.003,0.839-1.79,1.817-1.79c1.001,0,1.813,0.813,1.813,1.82l-0.084,21.291c0,1-0.809,1.816-1.813,1.816
		C139.146,438.52,138.359,437.705,138.359,436.701L138.359,436.701z M129.393,418.96l10.94-36.087l10.732,36.166L129.393,418.96z"/>
</g>
</svg>
