<?xml version="1.0" encoding="utf-8"?>
<!-- Generator: Adobe Illustrator 16.0.0, SVG Export Plug-In . SVG Version: 6.00 Build 0)  -->
<!DOCTYPE svg PUBLIC "-//W3C//DTD SVG 1.1//EN" "http://www.w3.org/Graphics/SVG/1.1/DTD/svg11.dtd">
<svg version="1.1" id="Version_1.0" xmlns="http://www.w3.org/2000/svg" xmlns:xlink="http://www.w3.org/1999/xlink" x="0px"
	 y="0px" width="612px" height="792px" viewBox="0 0 612 792" enable-background="new 0 0 612 792" xml:space="preserve">
<g id="main">
	<line fill="none" stroke="#010101" stroke-width="9.5864" x1="139.229" y1="375" x2="468.229" y2="375"/>
	<text transform="matrix(1 0 0 1 125.2285 343)" fill="#010101" font-family="sans-serif" font-size="24">LL</text>
	<text transform="matrix(1 0 0 1 449.2285 343)" fill="#010101" font-family="sans-serif" font-size="24">LL</text>
</g>
<g id="Example" display="none">
	
		<line display="inline" fill="none" stroke="#8C8C8C" stroke-width="5" stroke-miterlimit="10" x1="465.938" y1="345.5" x2="470.229" y2="405"/>
	<text transform="matrix(1 0 0 1 25.2285 385.2227)" display="inline" fill="#8C8C8C" font-family="sans-serif" font-size="24">PL CRAB</text>
	<text transform="matrix(1 0 0 1 479.2285 385.2227)" display="inline" fill="#8C8C8C" font-family="sans-serif" font-size="24">PL CRAB</text>
	
		<line display="inline" fill="none" stroke="#8C8C8C" stroke-width="5" stroke-miterlimit="10" x1="137.083" y1="345.5" x2="141.375" y2="405"/>
</g>
<g id="template" display="none">
	<text transform="matrix(1 0 0 1 438.2285 462)" display="inline" fill="#010101" font-family="sans-serif" font-size="24">PT 2</text>
	<text transform="matrix(1 0 0 1 113.2285 462)" display="inline" fill="#010101" font-family="sans-serif" font-size="24">PT 1</text>
	<path display="inline" fill="#010101" stroke="#010101" stroke-width="0.4335" stroke-linejoin="bevel" stroke-miterlimit="10" d="
		M466.359,436.701l0.052-21.317c0.029-1.003,0.839-1.79,1.817-1.79c1.001,0,1.813,0.813,1.813,1.82l-0.084,21.291
		c0,1-0.809,1.816-1.813,1.816C467.146,438.52,466.359,437.705,466.359,436.701L466.359,436.701z M457.393,418.96l10.938-36.087
		l10.732,36.166L457.393,418.96z"/>
	<path display="inline" fill="#010101" stroke="#010101" stroke-width="0.4335" stroke-linejoin="bevel" stroke-miterlimit="10" d="
		M138.359,436.701l0.052-21.317c0.029-1.003,0.839-1.79,1.817-1.79c1.001,0,1.813,0.813,1.813,1.82l-0.084,21.291
		c0,1-0.809,1.816-1.813,1.816C139.146,438.52,138.359,437.705,138.359,436.701L138.359,436.701z M129.393,418.96l10.94-36.087
		l10.732,36.166L129.393,418.96z"/>
</g>
</svg>
