<?xml version="1.0" encoding="utf-8"?>
<!-- Generator: Adobe Illustrator 16.0.0, SVG Export Plug-In . SVG Version: 6.00 Build 0)  -->
<!DOCTYPE svg PUBLIC "-//W3C//DTD SVG 1.1//EN" "http://www.w3.org/Graphics/SVG/1.1/DTD/svg11.dtd">
<svg version="1.1" id="Version_1.0" xmlns="http://www.w3.org/2000/svg" xmlns:xlink="http://www.w3.org/1999/xlink" x="0px"
	 y="0px" width="400px" height="400px" viewBox="0 0 400 400" enable-background="new 0 0 400 400" xml:space="preserve">
<g id="main">
	<g id="boundaries">
		<path fill="none" stroke="#000000" stroke-width="2.1894" stroke-linejoin="round" stroke-miterlimit="10" d="M53.716,113.142
			c33.878,2.469,71.33-0.56,104.105-0.823c61.963,0.543,123.943,2.469,185.905,2.469"/>
		<path fill="none" stroke="#000000" stroke-width="2.1894" stroke-linejoin="round" stroke-miterlimit="10" d="M52.844,283.758
			c36.085,0.264,72.169,0.264,108.254,0.823c24.886,0.278,24.846,0.28,74.375,1.68c15.146,1.679,26.981,2.238,42.967,1.679
			c7.983-2.799,16.527-4.461,24.793-5.858c13.776,1.12,27.542,2.503,41.317,2.503"/>
		<path fill="none" stroke="#000000" stroke-width="2.1977" stroke-linejoin="round" stroke-miterlimit="10" d="M136.297,195.55
			c37.87,3.359,76.605,3.351,114.906,3.351"/>
	</g>
	<g id="template" display="none">
		<path display="inline" fill="none" stroke="#808080" stroke-width="2.1894" stroke-linejoin="round" stroke-miterlimit="10" d="
			M343.711,112.319c-1.663,43.147-3.886,86.59,1.662,129.474c-0.563,15.111-0.839,28.857-0.839,43.706"/>
		<path display="inline" fill="none" stroke="#808080" stroke-width="2.1977" stroke-linejoin="round" stroke-miterlimit="10" d="
			M52.086,112.311c1.959,5.777,0.28,11.556-0.839,17.326c0.28,8.808-2.799,37.139,2.519,52.819
			c-0.56,15.951-1.679,31.903-2.519,47.862c1.12,38.506,0.839,20.354,0.839,54.457"/>
		<path display="inline" fill="none" stroke="#808080" stroke-width="2.1977" stroke-linejoin="round" stroke-miterlimit="10" d="
			M136.446,112.311c1.934,5.777,0.272,11.556-0.831,17.326c0.271,8.808-2.774,37.139,2.494,52.819
			c-0.56,15.951-1.663,31.903-2.494,47.862c1.103,38.506,0.831,20.354,0.831,54.457"/>
		<g display="inline">
			<polygon fill="#FFFFFF" points="86.733,235.669 86.733,255.473 176.737,255.473 176.737,235.669 			"/>
			<text transform="matrix(1 0 0 1 92.9639 249.3564)" fill="#808080" font-family="sans-serif" font-size="10.9308">MND(S)  X  6IN</text>
		</g>
		<g display="inline">
			<polygon fill="#FFFFFF" points="281.325,179.894 281.325,199.698 392,199.698 392,179.894 			"/>
			<text transform="matrix(1 0 0 1 287.5557 193.5811)" fill="#808080" font-family="sans-serif" font-size="10.9308">MND(S) X X  ARRC</text>
		</g>
		<g display="inline">
			<polygon fill="#FFFFFF" points="79.282,136.839 79.282,156.7 183.321,156.7 183.321,136.839 			"/>
			<text transform="matrix(1 0 0 1 88.7334 150.9531)" fill="#808080" font-family="sans-serif" font-size="10.9308">MND(S)  X  5MB</text>
		</g>
		<g display="inline">
			<polygon fill="#FFFFFF" points="8.61,189.796 8.61,209.6 115.646,209.6 115.646,189.796 			"/>
			<text transform="matrix(1 0 0 1 11.8408 203.4834)" fill="#808080" font-family="sans-serif" font-size="10.9308">ARRC  X X  MND(S)</text>
		</g>
	</g>
	<g id="variables" display="none">
		<g display="inline">
			<polygon fill="#FFFFFF" points="203.734,262.387 203.734,307.163 262.34,307.163 262.34,262.387 			"/>
			<text transform="matrix(1 0 0 1 213.0039 275.4297)" font-family="sans-serif" font-size="10.9308">MND(N) </text>
			<text transform="matrix(1 0 0 1 224.2285 288.5469)" font-family="sans-serif" font-size="10.9308">X X </text>
			<text transform="matrix(1 0 0 1 205.4063 301.6641)" font-family="sans-serif" font-size="10.9308">1AD (DEU)</text>
		</g>
		<g display="inline">
			<polygon fill="#FFFFFF" points="157.115,176.896 157.115,222.5 221.9,222.5 221.9,176.896 			"/>
			<text transform="matrix(1 0 0 1 162.4243 188.1318)" font-family="sans-serif" font-size="10.9308">5MB (CAN) </text>
			<text transform="matrix(1 0 0 1 187.3174 201.249)" font-family="sans-serif" font-size="10.9308">X </text>
			<text transform="matrix(1 0 0 1 166.0674 214.3662)" font-family="sans-serif" font-size="10.9308">6IN (NLD)</text>
		</g>
		<g display="inline">
			<polygon fill="#FFFFFF" points="221.9,92.4 221.9,137.176 280.506,137.176 280.506,92.4 			"/>
			<text transform="matrix(1 0 0 1 231.1699 105.4424)" font-family="sans-serif" font-size="10.9308">MND(N) </text>
			<text transform="matrix(1 0 0 1 242.3945 118.5596)" font-family="sans-serif" font-size="10.9308">X X </text>
			<text transform="matrix(1 0 0 1 231.4707 131.6768)" font-family="sans-serif" font-size="10.9308">MND(S)</text>
		</g>
	</g>
</g>
</svg>
