<?xml version="1.0" encoding="utf-8"?>
<!-- Generator: Adobe Illustrator 16.0.0, SVG Export Plug-In . SVG Version: 6.00 Build 0)  -->
<!DOCTYPE svg PUBLIC "-//W3C//DTD SVG 1.1//EN" "http://www.w3.org/Graphics/SVG/1.1/DTD/svg11.dtd">
<svg version="1.1" id="Version_1.0" xmlns="http://www.w3.org/2000/svg" xmlns:xlink="http://www.w3.org/1999/xlink" x="0px"
	 y="0px" width="400px" height="400px" viewBox="0 0 400 400" enable-background="new 0 0 400 400" xml:space="preserve">
<g id="main">
	<path fill="none" stroke="#000000" stroke-width="5" stroke-linejoin="round" stroke-miterlimit="10" d="M389.916,290.055H22.169
		V100.101l334.411,0.997c2.16,2.081,2.99,3.528,5.534,5.267c3.254,2.444,9.073,2.444,10.144,6.284
		c1.455,5.211-3.617,10.444-3.617,16.021c0,3.493,2.547,6.624,3.617,9.757c14.143,9.052,12.407,9.96,15.658,26.325L389.916,290.055z
		"/>
	<text id="static" transform="matrix(1 0 0 1 131.3706 208)" font-family="sans-serif" font-size="48">AO</text>
</g>
<g id="template" transform="translate(150 118)" display="none">
	
		<rect x="66.277" y="47.752" display="inline" fill="none" stroke="#000000" stroke-width="2.6622" stroke-linecap="round" stroke-miterlimit="8" width="44.223" height="49.748"/>
	<text transform="matrix(1 0 0 1 73.5918 91)" display="inline" font-family="sans-serif" font-size="48">T</text>
</g>
<g id="example" display="none">
	<text id="varTe" transform="matrix(1 0 0 1 56.5371 209)" display="inline" font-family="sans-serif" font-size="48">AO BUFFALO</text>
</g>
</svg>
