<?xml version="1.0" encoding="utf-8"?>
<!-- Generator: Adobe Illustrator 16.0.0, SVG Export Plug-In . SVG Version: 6.00 Build 0)  -->
<!DOCTYPE svg PUBLIC "-//W3C//DTD SVG 1.1//EN" "http://www.w3.org/Graphics/SVG/1.1/DTD/svg11.dtd">
<svg version="1.1" id="Version_1.0" xmlns="http://www.w3.org/2000/svg" xmlns:xlink="http://www.w3.org/1999/xlink" x="0px"
	 y="0px" width="612px" height="792px" viewBox="0 0 612 792" enable-background="new 0 0 612 792" xml:space="preserve">
<g id="main">
	
		<rect x="241.014" y="137.828" fill="none" stroke="#000000" stroke-width="4" stroke-linecap="round" stroke-miterlimit="8" width="128.229" height="170.972"/>
	<text id="static" transform="matrix(1 0 0 1 263.9883 188.6924)" font-family="sans-serif" font-size="34">CKP</text>
	<polygon fill="none" stroke="#000000" stroke-width="4" stroke-linecap="round" stroke-miterlimit="8" points="305.128,395.479 
		241.014,309.994 369.242,309.994 	"/>
</g>
<g id="template" display="none">
	<g id="H" display="inline">
		<text id="varH" transform="matrix(1 0 0 1 294.6021 115.7295)" font-family="sans-serif" font-size="24">H</text>
		
			<rect x="277.138" y="83.504" fill="none" stroke="#000000" stroke-width="4" stroke-linecap="round" stroke-miterlimit="8" width="56.634" height="53.197"/>
	</g>
	<g id="T" display="inline">
		
			<rect x="369.392" y="137.345" fill="none" stroke="#000000" stroke-width="4" stroke-linecap="round" stroke-miterlimit="8" width="56.636" height="53.179"/>
		<text id="varT" transform="matrix(1 0 0 1 387.582 169.4531)" font-family="sans-serif" font-size="24">T</text>
	</g>
	<g id="W" display="inline">
		<text transform="matrix(1 0 0 1 228.7437 167.5811)" font-family="sans-serif" font-size="24">-</text>
		<polygon fill="none" stroke="#000000" stroke-width="4" stroke-linecap="round" stroke-miterlimit="8" points="190.582,136.345 
			190.582,178.839 222.476,178.367 223.476,137.521 		"/>
		<text id="varW" transform="matrix(1 0 0 1 195.0308 167.5811)" font-family="sans-serif" font-size="24">W</text>
	</g>
	<g id="T1" display="inline">
		
			<rect x="276.209" y="228.716" fill="none" stroke="#000000" stroke-width="4" stroke-linecap="round" stroke-miterlimit="8" width="53.832" height="53.197"/>
		<text id="varT1" transform="matrix(1 0 0 1 285.4258 266.0762)" font-family="sans-serif" font-size="34">T1</text>
	</g>
	<g id="W1" display="inline">
		
			<rect x="190.582" y="178.607" fill="none" stroke="#000000" stroke-width="4" stroke-linecap="round" stroke-miterlimit="8" width="49.993" height="42.513"/>
		<text id="varW1" transform="matrix(1 0 0 1 196.6831 210.0469)" font-family="sans-serif" font-size="24">W1</text>
	</g>
	<g id="N" display="inline">
		
			<rect x="369.392" y="255.313" fill="none" stroke="#000000" stroke-width="4" stroke-miterlimit="8" width="56.636" height="53.18"/>
		<text id="varN" transform="matrix(1 0 0 1 387.582 287.5557)" font-family="sans-serif" font-size="24">N</text>
	</g>
	<g id="points" display="inline">
		<path stroke="#000000" stroke-width="4" stroke-linejoin="bevel" stroke-miterlimit="10" d="M369.242,396.424h-35.62
			c-0.658,0-1.191-0.517-1.191-1.176c0-0.658,0.533-1.192,1.191-1.192h35.62c0.66,0,1.192,0.534,1.192,1.192
			C370.435,395.907,369.902,396.424,369.242,396.424L369.242,396.424z M335.993,402.372l-23.741-7.124l23.741-7.124V402.372z"/>
		<g>
			<text transform="matrix(1 0 0 1 375.7627 419.1211)" font-family="sans-serif" font-size="23.6512">POINT</text>
			<text transform="matrix(1 0 0 1 375.7627 391.4795)" font-family="sans-serif" font-size="23.6512">ANCHOR</text>
		</g>
	</g>
</g>
<g id="example" display="none">
	<text id="varT1e" transform="matrix(1 0 0 1 275.8721 266.0762)" display="inline" font-family="sans-serif" font-size="34">UN</text>
	<text id="varW1e" transform="matrix(1 0 0 1 125.6147 185.0469)" display="inline" font-family="sans-serif" font-size="14">120700ZMAY08 </text>
	<text id="varNe" transform="matrix(1 0 0 1 387.582 287.5557)" display="inline" font-family="sans-serif" font-size="23.6512"> </text>
	<text id="varWe" transform="matrix(1 0 0 1 124.063 167.5811)" display="inline" font-family="sans-serif" font-size="14">080700ZMAY08 - </text>
	<text id="varHe" transform="matrix(1 0 0 1 242.8179 115.7295)" display="inline" font-family="sans-serif" font-size="23.6512">WEAPONS</text>
	<text id="varTe" transform="matrix(1 0 0 1 387.582 169.4531)" display="inline" font-family="sans-serif" font-size="23.6512">3</text>
</g>
</svg>
