<?xml version="1.0" encoding="utf-8"?>
<!-- Generator: Adobe Illustrator 16.0.0, SVG Export Plug-In . SVG Version: 6.00 Build 0)  -->
<!DOCTYPE svg PUBLIC "-//W3C//DTD SVG 1.1//EN" "http://www.w3.org/Graphics/SVG/1.1/DTD/svg11.dtd">
<svg version="1.1" id="Version_1.0" xmlns="http://www.w3.org/2000/svg" xmlns:xlink="http://www.w3.org/1999/xlink" x="0px"
	 y="0px" width="612px" height="792px" viewBox="0 0 612 792" enable-background="new 0 0 612 792" xml:space="preserve">
<g id="main">
	
		<rect x="241.502" y="138.455" fill="none" stroke="#000000" stroke-width="4" stroke-linecap="round" stroke-miterlimit="8" width="128.229" height="170.972"/>
	<text id="static" transform="matrix(1 0 0 1 278.1831 189.3193)" font-family="sans-serif" font-size="34">SP</text>
	<polygon fill="none" stroke="#000000" stroke-width="4" stroke-linecap="round" stroke-miterlimit="8" points="305.616,396.106 
		241.502,310.621 369.73,310.621 	"/>
</g>
<g id="template" display="none">
	<g id="H" display="inline">
		<text id="varH" transform="matrix(1 0 0 1 295.0903 116.3564)" font-family="sans-serif" font-size="24">H</text>
		
			<rect x="277.626" y="84.131" fill="none" stroke="#000000" stroke-width="4" stroke-linecap="round" stroke-miterlimit="8" width="56.634" height="53.197"/>
	</g>
	<g id="T" display="inline">
		
			<rect x="369.88" y="137.972" fill="none" stroke="#000000" stroke-width="4" stroke-linecap="round" stroke-miterlimit="8" width="56.636" height="53.179"/>
		<text id="varT" transform="matrix(1 0 0 1 388.0703 170.0801)" font-family="sans-serif" font-size="24">T</text>
	</g>
	<g id="W" display="inline">
		<text transform="matrix(1 0 0 1 229.2319 168.208)" font-family="sans-serif" font-size="24">-</text>
		<polygon fill="none" stroke="#000000" stroke-width="4" stroke-linecap="round" stroke-miterlimit="8" points="191.07,136.972 
			191.07,179.466 222.964,178.994 223.964,138.148 		"/>
		<text id="varW" transform="matrix(1 0 0 1 195.519 168.208)" font-family="sans-serif" font-size="24">W</text>
	</g>
	<g id="T1" display="inline">
		
			<rect x="276.697" y="229.343" fill="none" stroke="#000000" stroke-width="4" stroke-linecap="round" stroke-miterlimit="8" width="53.832" height="53.197"/>
		<text id="varT1" transform="matrix(1 0 0 1 285.9141 266.7031)" font-family="sans-serif" font-size="34">T1</text>
	</g>
	<g id="W1" display="inline">
		
			<rect x="191.07" y="179.234" fill="none" stroke="#000000" stroke-width="4" stroke-linecap="round" stroke-miterlimit="8" width="49.993" height="42.513"/>
		<text id="varW1" transform="matrix(1 0 0 1 197.1714 210.6738)" font-family="sans-serif" font-size="24">W1</text>
	</g>
	<g id="N" display="inline">
		
			<rect x="369.88" y="255.94" fill="none" stroke="#000000" stroke-width="4" stroke-miterlimit="8" width="56.636" height="53.18"/>
		<text id="varN" transform="matrix(1 0 0 1 388.0703 288.1826)" font-family="sans-serif" font-size="24">N</text>
	</g>
	<g id="points" display="inline">
		<path stroke="#000000" stroke-width="4" stroke-linejoin="bevel" stroke-miterlimit="10" d="M369.73,397.051h-35.62
			c-0.658,0-1.191-0.517-1.191-1.176c0-0.658,0.533-1.192,1.191-1.192h35.62c0.66,0,1.192,0.534,1.192,1.192
			C370.923,396.534,370.391,397.051,369.73,397.051L369.73,397.051z M336.481,402.999l-23.741-7.124l23.741-7.124V402.999z"/>
		<g>
			<text transform="matrix(1 0 0 1 376.251 419.748)" font-family="sans-serif" font-size="23.6512">POINT</text>
			<text transform="matrix(1 0 0 1 376.251 392.1064)" font-family="sans-serif" font-size="23.6512">ANCHOR</text>
		</g>
	</g>
</g>
<g id="example" display="none">
	<text id="varT1e" transform="matrix(1 0 0 1 267.5132 266.7031)" display="inline" font-family="sans-serif" font-size="34">2BN</text>
	<text id="varW1e" transform="matrix(1 0 0 1 127.2202 185.6738)" display="inline" font-family="sans-serif" font-size="14">120300ZOCT08 </text>
	<text id="varNe" transform="matrix(1 0 0 1 388.0703 288.1826)" display="inline" font-family="sans-serif" font-size="23.6512"> </text>
	<text id="varWe" transform="matrix(1 0 0 1 127.6685 168.208)" display="inline" font-family="sans-serif" font-size="14">080400ZOCT08 - </text>
	<text id="varHe" transform="matrix(1 0 0 1 300.2339 116.3564)" display="inline" font-family="sans-serif" font-size="23.6512">3</text>
	<text id="varTe" transform="matrix(1 0 0 1 388.0703 170.0801)" display="inline" font-family="sans-serif" font-size="23.6512">5</text>
</g>
</svg>
