<?xml version="1.0" encoding="utf-8"?>
<!-- Generator: Adobe Illustrator 16.0.0, SVG Export Plug-In . SVG Version: 6.00 Build 0)  -->
<!DOCTYPE svg PUBLIC "-//W3C//DTD SVG 1.1//EN" "http://www.w3.org/Graphics/SVG/1.1/DTD/svg11.dtd">
<svg version="1.1" id="Version_1.0" xmlns="http://www.w3.org/2000/svg" xmlns:xlink="http://www.w3.org/1999/xlink" x="0px"
	 y="0px" width="400px" height="400px" viewBox="0 0 400 400" enable-background="new 0 0 400 400" xml:space="preserve">
<g id="main">
	<g>
		<g>
			<polyline fill="none" stroke="#000000" stroke-width="5" points="192.521,34.492 195.667,25 199.125,34.383 			"/>
			
				<line fill="none" stroke="#000000" stroke-width="5" stroke-dasharray="17.0109,17.0109" x1="205.006" y1="50.345" x2="237.353" y2="138.136"/>
			<polyline fill="none" stroke="#000000" stroke-width="5" points="240.293,146.117 243.75,155.5 253.187,158.809 			"/>
			
				<line fill="none" stroke="#000000" stroke-width="5" stroke-dasharray="22.8983,22.8983" x1="274.795" y1="166.385" x2="350.425" y2="192.903"/>
			<polyline fill="none" stroke="#000000" stroke-width="5" points="361.229,196.691 370.666,200 361.237,203.331 			"/>
			
				<line fill="none" stroke="#000000" stroke-width="5" stroke-dasharray="22.8677,22.8677" x1="339.676" y1="210.948" x2="264.21" y2="237.61"/>
			<polyline fill="none" stroke="#000000" stroke-width="5" points="253.429,241.419 244,244.75 240.521,254.125 			"/>
			
				<line fill="none" stroke="#000000" stroke-width="5" stroke-dasharray="16.9898,16.9898" x1="234.61" y1="270.054" x2="202.102" y2="357.66"/>
			<polyline fill="none" stroke="#000000" stroke-width="5" points="199.146,365.625 195.667,375 192.499,365.515 			"/>
			
				<line fill="none" stroke="#000000" stroke-width="5" stroke-dasharray="23.4117,23.4117" x1="185.083" y1="343.309" x2="159.126" y2="265.588"/>
			<polyline fill="none" stroke="#000000" stroke-width="5" points="155.418,254.485 152.25,245 142.788,241.764 			"/>
			
				<line fill="none" stroke="#000000" stroke-width="5" stroke-dasharray="17.0093,17.0093" x1="126.694" y1="236.26" x2="38.176" y2="205.988"/>
			<polyline fill="none" stroke="#000000" stroke-width="5" points="30.129,203.236 20.667,200 30.136,196.786 			"/>
			
				<line fill="none" stroke="#000000" stroke-width="5" stroke-dasharray="17.0316,17.0316" x1="46.264" y1="191.311" x2="134.967" y2="161.202"/>
			<polyline fill="none" stroke="#000000" stroke-width="5" points="143.031,158.464 152.5,155.25 155.646,145.758 			"/>
			
				<line fill="none" stroke="#000000" stroke-width="5" stroke-dasharray="23.4434,23.4434" x1="163.021" y1="123.505" x2="188.833" y2="45.619"/>
		</g>
	</g>
	<text transform="matrix(1 0 0 1 161.5005 217.834)" font-family="'MyriadPro-Regular'" font-size="60">TH</text>
</g>
<g id="template" display="none">
	<g id="varT" display="inline">
		<rect x="266.914" y="84.5" fill="none" stroke="#000000" stroke-width="5" width="49.586" height="46"/>
		<text transform="matrix(1 0 0 1 280.5801 119.5)" font-family="'ArialMT'" font-size="35.9982">T</text>
	</g>
	<g id="points" display="inline">
		<g>
			<line x1="200" y1="198.584" x2="284" y2="281.5"/>
			<g>
				<line fill="none" stroke="#000000" stroke-width="2" x1="210.215" y1="208.667" x2="284" y2="281.5"/>
				<g>
					<polygon points="205.285,217.813 200,198.584 219.297,203.619 					"/>
				</g>
			</g>
		</g>
		<g id="CENTER_x25_20POINT" transform="matrix(1.75 0 0 1.75 -59.25 -399.75)">
			<text transform="matrix(0.5714 0 0 0.5714 195.5235 387.2858)" font-family="'ArialMT'" font-size="20.9967">CENTER</text>
			<text transform="matrix(0.5714 0 0 0.5714 199.5229 397.2858)" font-family="'ArialMT'" font-size="20.9967">POINT</text>
		</g>
	</g>
</g>
<g id="example" display="none">
	<text id="varTe" transform="matrix(1 0 0 1 263.166 121.5001)" display="inline" font-family="'ArialMT'" font-size="35.9982">12467</text>
</g>
</svg>
