<?xml version="1.0" encoding="utf-8"?>
<!-- Generator: Adobe Illustrator 16.0.0, SVG Export Plug-In . SVG Version: 6.00 Build 0)  -->
<!DOCTYPE svg PUBLIC "-//W3C//DTD SVG 1.1//EN" "http://www.w3.org/Graphics/SVG/1.1/DTD/svg11.dtd">
<svg version="1.1" id="Version_1.0" xmlns="http://www.w3.org/2000/svg" xmlns:xlink="http://www.w3.org/1999/xlink" x="0px"
	 y="0px" width="612px" height="792px" viewBox="0 0 612 792" enable-background="new 0 0 612 792" xml:space="preserve">
<g id="main" transform="translate(0 -90)">
	<g>
		<line fill="none" stroke="#000000" stroke-width="5" x1="179.786" y1="410.5" x2="179.786" y2="355.5"/>
		<line fill="none" stroke="#000000" stroke-width="5" x1="431.214" y1="410.5" x2="431.214" y2="355.5"/>
		<line fill="none" stroke="#000000" stroke-width="5" x1="380.93" y1="410.5" x2="380.93" y2="355.5"/>
		<line fill="none" stroke="#000000" stroke-width="5" x1="230.071" y1="410.5" x2="230.071" y2="355.5"/>
		<line fill="none" stroke="#000000" stroke-width="5" x1="280.357" y1="410.5" x2="280.357" y2="355.5"/>
		<line fill="none" stroke="#000000" stroke-width="5" x1="330.643" y1="410.5" x2="330.643" y2="355.5"/>
	</g>
	<line fill="none" stroke="#000000" stroke-width="10" x1="124.5" y1="410.5" x2="486.5" y2="410.5"/>
	<line fill="none" stroke="#000000" stroke-width="10" x1="129.5" y1="410.5" x2="129.5" y2="492.5"/>
	<line fill="none" stroke="#000000" stroke-width="10" x1="481.5" y1="410.5" x2="481.5" y2="492.5"/>
</g>
<g id="template" transform="translate(0 15)" display="none">
	<text transform="matrix(1 0 0 1 251.2051 477.793)" display="inline" font-family="sans-serif" font-size="24">CENTER</text>
	<text transform="matrix(1 0 0 1 262.2051 502.793)" display="inline" font-family="sans-serif" font-size="24">POINT</text>
	<g transform="translate(0 50)" display="inline">
		<line fill="none" stroke="#000000" stroke-width="5" x1="303.5" y1="277.475" x2="303.5" y2="403.5"/>
		<polygon stroke="#000000" points="303.05,262.099 310.447,276.905 296.452,277.28 		"/>
	</g>
</g>
</svg>
