<?xml version="1.0" encoding="utf-8"?>
<!-- Generator: Adobe Illustrator 16.0.0, SVG Export Plug-In . SVG Version: 6.00 Build 0)  -->
<!DOCTYPE svg PUBLIC "-//W3C//DTD SVG 1.1//EN" "http://www.w3.org/Graphics/SVG/1.1/DTD/svg11.dtd">
<svg version="1.1" id="Version_1.0" xmlns="http://www.w3.org/2000/svg" xmlns:xlink="http://www.w3.org/1999/xlink" x="0px"
	 y="0px" width="612px" height="792px" viewBox="0 0 612 792" enable-background="new 0 0 612 792" xml:space="preserve">
<g id="main">
	<line fill="none" stroke="#000000" stroke-width="5" x1="306.688" y1="396.521" x2="231.084" y2="421.332"/>
	
		<rect x="242.575" y="138.871" fill="none" stroke="#000000" stroke-width="4" stroke-linecap="round" stroke-miterlimit="8" width="128.229" height="170.972"/>
	<text id="static" transform="matrix(1 0 0 1 265.5488 189.7349)" font-family="sans-serif" font-size="34">SOS</text>
	<polygon fill="none" stroke="#000000" stroke-width="4" stroke-linecap="round" stroke-miterlimit="8" points="306.688,396.521 
		242.575,311.037 370.803,311.037 	"/>
</g>
<g id="template" display="none">
	<g id="H" display="inline">
		<text id="varH" transform="matrix(1 0 0 1 296.1626 116.772)" font-family="sans-serif" font-size="24">H</text>
		
			<rect x="278.699" y="84.546" fill="none" stroke="#000000" stroke-width="4" stroke-linecap="round" stroke-miterlimit="8" width="56.634" height="53.197"/>
	</g>
	<g id="T" display="inline">
		
			<rect x="370.952" y="138.388" fill="none" stroke="#000000" stroke-width="4" stroke-linecap="round" stroke-miterlimit="8" width="56.636" height="53.179"/>
		<text id="varT" transform="matrix(1 0 0 1 389.1426 170.4956)" font-family="sans-serif" font-size="24">T</text>
	</g>
	<g id="W" display="inline">
		<text transform="matrix(1 0 0 1 230.3042 168.6235)" font-family="sans-serif" font-size="24">-</text>
		<polygon fill="none" stroke="#000000" stroke-width="4" stroke-linecap="round" stroke-miterlimit="8" points="192.143,137.388 
			192.143,179.881 224.037,179.41 225.037,138.563 		"/>
		<text id="varW" transform="matrix(1 0 0 1 196.5913 168.6235)" font-family="sans-serif" font-size="24">W</text>
	</g>
	<g id="T1" display="inline">
		
			<rect x="277.77" y="229.758" fill="none" stroke="#000000" stroke-width="4" stroke-linecap="round" stroke-miterlimit="8" width="53.832" height="53.197"/>
		<text id="varT1" transform="matrix(1 0 0 1 286.9863 267.1187)" font-family="sans-serif" font-size="34">T1</text>
	</g>
	<g id="W1" display="inline">
		
			<rect x="192.143" y="179.649" fill="none" stroke="#000000" stroke-width="4" stroke-linecap="round" stroke-miterlimit="8" width="49.993" height="42.513"/>
		<text id="varW1" transform="matrix(1 0 0 1 198.2437 211.0894)" font-family="sans-serif" font-size="24">W1</text>
	</g>
	<g id="N" display="inline">
		
			<rect x="370.952" y="256.356" fill="none" stroke="#000000" stroke-width="4" stroke-miterlimit="8" width="56.636" height="53.18"/>
		<text id="varN" transform="matrix(1 0 0 1 389.1426 288.5981)" font-family="sans-serif" font-size="24">N</text>
	</g>
	<g id="points" display="inline">
		<path stroke="#000000" stroke-width="4" stroke-linejoin="bevel" stroke-miterlimit="10" d="M370.803,397.467h-35.62
			c-0.658,0-1.191-0.518-1.191-1.176s0.533-1.193,1.191-1.193h35.62c0.66,0,1.192,0.535,1.192,1.193
			S371.463,397.467,370.803,397.467L370.803,397.467z M337.554,403.414l-23.741-7.123l23.741-7.125V403.414z"/>
		<g>
			<text transform="matrix(1 0 0 1 377.3232 420.1641)" font-family="sans-serif" font-size="23.6512">POINT</text>
			<text transform="matrix(1 0 0 1 377.3232 392.522)" font-family="sans-serif" font-size="23.6512">ANCHOR</text>
		</g>
	</g>
</g>
<g id="example" display="none">
	<text id="varT1e" transform="matrix(1 0 0 1 247.3994 267.1187)" display="inline" font-family="sans-serif" font-size="34">21 AVN</text>
	<text id="varW1e" transform="matrix(1 0 0 1 125.1753 186.0894)" display="inline" font-family="sans-serif" font-size="14">152014ZNOV07 </text>
	<text id="varNe" transform="matrix(1 0 0 1 389.1426 288.5981)" display="inline" font-family="sans-serif" font-size="23.6512"> </text>
	<text id="varWe" transform="matrix(1 0 0 1 125.6235 168.6235)" display="inline" font-family="sans-serif" font-size="14">141413ZNOV07 - </text>
	<text id="varTe" transform="matrix(1 0 0 1 389.1426 170.4956)" display="inline" font-family="sans-serif" font-size="23.6512">7TACP</text>
</g>
</svg>
