<?xml version="1.0" encoding="utf-8"?>
<!-- Generator: Adobe Illustrator 16.0.0, SVG Export Plug-In . SVG Version: 6.00 Build 0)  -->
<!DOCTYPE svg PUBLIC "-//W3C//DTD SVG 1.1//EN" "http://www.w3.org/Graphics/SVG/1.1/DTD/svg11.dtd">
<svg version="1.1" id="Version_1.0" xmlns="http://www.w3.org/2000/svg" xmlns:xlink="http://www.w3.org/1999/xlink" x="0px"
	 y="0px" width="612px" height="792px" viewBox="0 0 612 792" enable-background="new 0 0 612 792" xml:space="preserve">
<g id="main">
	
		<rect x="241.057" y="139.331" fill="none" stroke="#000000" stroke-width="4" stroke-linecap="round" stroke-miterlimit="8" width="128.229" height="170.972"/>
	<text id="static" transform="matrix(1 0 0 1 278.4155 190.1953)" font-family="sans-serif" font-size="34">LU</text>
	<polygon fill="none" stroke="#000000" stroke-width="4" stroke-linecap="round" stroke-miterlimit="8" points="305.171,396.982 
		241.057,311.497 369.285,311.497 	"/>
</g>
<g id="template" display="none">
	<g id="H" display="inline">
		<text id="varH" transform="matrix(1 0 0 1 294.645 117.2324)" font-family="sans-serif" font-size="24">H</text>
		
			<rect x="277.181" y="85.007" fill="none" stroke="#000000" stroke-width="4" stroke-linecap="round" stroke-miterlimit="8" width="56.634" height="53.197"/>
	</g>
	<g id="T" display="inline">
		
			<rect x="369.435" y="138.848" fill="none" stroke="#000000" stroke-width="4" stroke-linecap="round" stroke-miterlimit="8" width="56.636" height="53.179"/>
		<text id="varT" transform="matrix(1 0 0 1 387.625 170.9561)" font-family="sans-serif" font-size="24">T</text>
	</g>
	<g id="W" display="inline">
		<text transform="matrix(1 0 0 1 228.7866 169.084)" font-family="sans-serif" font-size="24">-</text>
		<polygon fill="none" stroke="#000000" stroke-width="4" stroke-linecap="round" stroke-miterlimit="8" points="190.625,137.848 
			190.625,180.342 222.519,179.87 223.519,139.024 		"/>
		<text id="varW" transform="matrix(1 0 0 1 195.0737 169.084)" font-family="sans-serif" font-size="24">W</text>
	</g>
	<g id="T1" display="inline">
		
			<rect x="276.252" y="230.219" fill="none" stroke="#000000" stroke-width="4" stroke-linecap="round" stroke-miterlimit="8" width="53.832" height="53.197"/>
		<text id="varT1" transform="matrix(1 0 0 1 285.4688 267.5791)" font-family="sans-serif" font-size="34">T1</text>
	</g>
	<g id="W1" display="inline">
		
			<rect x="190.625" y="180.11" fill="none" stroke="#000000" stroke-width="4" stroke-linecap="round" stroke-miterlimit="8" width="49.993" height="42.513"/>
		<text id="varW1" transform="matrix(1 0 0 1 196.7261 211.5498)" font-family="sans-serif" font-size="24">W1</text>
	</g>
	<g id="N" display="inline">
		
			<rect x="369.435" y="256.816" fill="none" stroke="#000000" stroke-width="4" stroke-miterlimit="8" width="56.636" height="53.18"/>
		<text id="varN" transform="matrix(1 0 0 1 387.625 289.0586)" font-family="sans-serif" font-size="24">N</text>
	</g>
	<g id="points" display="inline">
		<path stroke="#000000" stroke-width="4" stroke-linejoin="bevel" stroke-miterlimit="10" d="M369.285,397.927h-35.62
			c-0.658,0-1.191-0.517-1.191-1.176c0-0.658,0.533-1.192,1.191-1.192h35.62c0.66,0,1.192,0.534,1.192,1.192
			C370.478,397.41,369.945,397.927,369.285,397.927L369.285,397.927z M336.036,403.875l-23.741-7.124l23.741-7.124V403.875z"/>
		<g>
			<text transform="matrix(1 0 0 1 375.8057 420.624)" font-family="sans-serif" font-size="23.6512">POINT</text>
			<text transform="matrix(1 0 0 1 375.8057 392.9824)" font-family="sans-serif" font-size="23.6512">ANCHOR</text>
		</g>
	</g>
</g>
<g id="example" display="none">
	<text id="varT1e" transform="matrix(1 0 0 1 267.0679 267.5791)" display="inline" font-family="sans-serif" font-size="34">3BN</text>
	<text id="varW1e" transform="matrix(1 0 0 1 126.7749 186.5498)" display="inline" font-family="sans-serif" font-size="14">100300ZFEB08 </text>
	<text id="varNe" transform="matrix(1 0 0 1 387.625 289.0586)" display="inline" font-family="sans-serif" font-size="23.6512"> </text>
	<text id="varWe" transform="matrix(1 0 0 1 127.2231 169.084)" display="inline" font-family="sans-serif" font-size="14">060900ZFEB08 - </text>
	<text id="varHe" transform="matrix(1 0 0 1 269.5776 117.2324)" display="inline" font-family="sans-serif" font-size="23.6512">NIGHT</text>
	<text id="varTe" transform="matrix(1 0 0 1 387.625 170.9561)" display="inline" font-family="sans-serif" font-size="23.6512">1</text>
</g>
</svg>
