<?xml version="1.0" encoding="utf-8"?>
<!-- Generator: Adobe Illustrator 16.0.0, SVG Export Plug-In . SVG Version: 6.00 Build 0)  -->
<!DOCTYPE svg PUBLIC "-//W3C//DTD SVG 1.1//EN" "http://www.w3.org/Graphics/SVG/1.1/DTD/svg11.dtd">
<svg version="1.1" id="Version_1.0" xmlns="http://www.w3.org/2000/svg" xmlns:xlink="http://www.w3.org/1999/xlink" x="0px"
	 y="0px" width="612px" height="792px" viewBox="0 0 612 792" enable-background="new 0 0 612 792" xml:space="preserve">
<g id="main">
	
		<line fill="none" stroke="#000000" stroke-width="6.0593" stroke-linejoin="round" stroke-miterlimit="10" x1="196.81" y1="286.567" x2="414.672" y2="504.428"/>
	
		<line fill="none" stroke="#000000" stroke-width="6.0593" stroke-linejoin="round" stroke-miterlimit="10" x1="196.81" y1="504.428" x2="414.672" y2="286.567"/>
	<path stroke="#000000" stroke-width="3" stroke-miterlimit="10" d="M305.741,359.188c-20.039,0-36.31,16.248-36.31,36.312
		s16.271,36.313,36.31,36.313c20.062,0,36.312-16.249,36.312-36.313S325.803,359.188,305.741,359.188"/>
</g>
<g id="template" display="none">
	<g display="inline">
		<text transform="matrix(1 0 0 1 260.2891 214.6533)" font-family="sans-serif" font-size="30.1374">POINT</text>
		<text transform="matrix(1 0 0 1 244.6641 179.7832)" font-family="sans-serif" font-size="30.1374">CENTER</text>
	</g>
	
		<line display="inline" fill="none" stroke="#000000" stroke-width="7" stroke-linejoin="round" stroke-miterlimit="10" x1="305.512" y1="357.397" x2="305.512" y2="226"/>
	<path display="inline" fill="#FFFFFF" stroke="#FFFFFF" stroke-width="0.3116" stroke-linejoin="bevel" stroke-miterlimit="10" d="
		M308.529,357.397v20.051h-6.058v-20.051H308.529L308.529,357.397z M314.589,375.211l-9.077,22.289l-9.078-22.289H314.589
		L314.589,375.211z"/>
</g>
</svg>
