<?xml version="1.0" encoding="utf-8"?>
<!-- Generator: Adobe Illustrator 16.0.0, SVG Export Plug-In . SVG Version: 6.00 Build 0)  -->
<!DOCTYPE svg PUBLIC "-//W3C//DTD SVG 1.1//EN" "http://www.w3.org/Graphics/SVG/1.1/DTD/svg11.dtd">
<svg version="1.1" id="Version_1.0" xmlns="http://www.w3.org/2000/svg" xmlns:xlink="http://www.w3.org/1999/xlink" x="0px"
	 y="0px" width="612px" height="792px" viewBox="0 0 612 792" enable-background="new 0 0 612 792" xml:space="preserve">
<g id="main">
	
		<rect x="241.377" y="138.571" fill="none" stroke="#000000" stroke-width="4" stroke-linecap="round" stroke-miterlimit="8" width="128.229" height="170.972"/>
	<text id="static" transform="matrix(1 0 0 1 278.7358 189.4355)" font-family="sans-serif" font-size="34">PP</text>
	<polygon fill="none" stroke="#000000" stroke-width="4" stroke-linecap="round" stroke-miterlimit="8" points="305.491,396.223 
		241.377,310.737 369.605,310.737 	"/>
</g>
<g id="template" display="none">
	<g id="H" display="inline">
		<text id="varH" transform="matrix(1 0 0 1 294.9653 116.4727)" font-family="sans-serif" font-size="24">H</text>
		
			<rect x="277.501" y="84.247" fill="none" stroke="#000000" stroke-width="4" stroke-linecap="round" stroke-miterlimit="8" width="56.634" height="53.197"/>
	</g>
	<g id="T" display="inline">
		
			<rect x="369.755" y="138.088" fill="none" stroke="#000000" stroke-width="4" stroke-linecap="round" stroke-miterlimit="8" width="56.636" height="53.179"/>
		<text id="varT" transform="matrix(1 0 0 1 387.9453 170.1963)" font-family="sans-serif" font-size="24">T</text>
	</g>
	<g id="W" display="inline">
		<text transform="matrix(1 0 0 1 229.1069 168.3242)" font-family="sans-serif" font-size="24">-</text>
		<polygon fill="none" stroke="#000000" stroke-width="4" stroke-linecap="round" stroke-miterlimit="8" points="190.945,137.088 
			190.945,179.582 222.839,179.11 223.839,138.264 		"/>
		<text id="varW" transform="matrix(1 0 0 1 195.394 168.3242)" font-family="sans-serif" font-size="24">W</text>
	</g>
	<g id="T1" display="inline">
		
			<rect x="276.572" y="229.459" fill="none" stroke="#000000" stroke-width="4" stroke-linecap="round" stroke-miterlimit="8" width="53.832" height="53.197"/>
		<text id="varT1" transform="matrix(1 0 0 1 285.7891 266.8193)" font-family="sans-serif" font-size="34">T1</text>
	</g>
	<g id="W1" display="inline">
		
			<rect x="190.945" y="179.35" fill="none" stroke="#000000" stroke-width="4" stroke-linecap="round" stroke-miterlimit="8" width="49.993" height="42.513"/>
		<text id="varW1" transform="matrix(1 0 0 1 197.0464 210.79)" font-family="sans-serif" font-size="24">W1</text>
	</g>
	<g id="N" display="inline">
		
			<rect x="369.755" y="256.057" fill="none" stroke="#000000" stroke-width="4" stroke-miterlimit="8" width="56.636" height="53.18"/>
		<text id="varN" transform="matrix(1 0 0 1 387.9453 288.2988)" font-family="sans-serif" font-size="24">N</text>
	</g>
	<g id="points" display="inline">
		<path stroke="#000000" stroke-width="4" stroke-linejoin="bevel" stroke-miterlimit="10" d="M369.605,397.167h-35.62
			c-0.658,0-1.191-0.517-1.191-1.176c0-0.658,0.533-1.192,1.191-1.192h35.62c0.66,0,1.192,0.534,1.192,1.192
			C370.798,396.65,370.266,397.167,369.605,397.167L369.605,397.167z M336.356,403.115l-23.741-7.124l23.741-7.124V403.115z"/>
		<g>
			<text transform="matrix(1 0 0 1 376.126 419.8643)" font-family="sans-serif" font-size="23.6512">POINT</text>
			<text transform="matrix(1 0 0 1 376.126 392.2227)" font-family="sans-serif" font-size="23.6512">ANCHOR</text>
		</g>
	</g>
</g>
<g id="example" display="none">
	<text id="varT1e" transform="matrix(1 0 0 1 256.0493 266.8193)" display="inline" font-family="sans-serif" font-size="34">3BDE</text>
	<text id="varW1e" transform="matrix(1 0 0 1 127.0952 185.79)" display="inline" font-family="sans-serif" font-size="14">120900ZMAY08 </text>
	<text id="varNe" transform="matrix(1 0 0 1 387.9453 288.2988)" display="inline" font-family="sans-serif" font-size="23.6512"> </text>
	<text id="varWe" transform="matrix(1 0 0 1 127.5435 168.3242)" display="inline" font-family="sans-serif" font-size="14">120700ZMAY08 - </text>
	<text id="varHe" transform="matrix(1 0 0 1 273.1719 116.4727)" display="inline" font-family="sans-serif" font-size="23.6512">GOLD</text>
	<text id="varTe" transform="matrix(1 0 0 1 387.9453 170.1963)" display="inline" font-family="sans-serif" font-size="23.6512">2</text>
</g>
</svg>
