<?xml version="1.0" encoding="utf-8"?>
<!-- Generator: Adobe Illustrator 16.0.0, SVG Export Plug-In . SVG Version: 6.00 Build 0)  -->
<!DOCTYPE svg PUBLIC "-//W3C//DTD SVG 1.1//EN" "http://www.w3.org/Graphics/SVG/1.1/DTD/svg11.dtd">
<svg version="1.1" id="Version_1.0" xmlns="http://www.w3.org/2000/svg" xmlns:xlink="http://www.w3.org/1999/xlink" x="0px"
	 y="0px" width="400px" height="400px" viewBox="0 0 400 400" enable-background="new 0 0 400 400" xml:space="preserve">
<g id="main">
	<line fill="none" stroke="#000000" stroke-width="9.5864" x1="40.082" y1="191.5" x2="369.082" y2="191.5"/>
	<text transform="matrix(1 0 0 1 35.082 177.7227)" font-family="sans-serif" font-size="24">RL</text>
	<text transform="matrix(1 0 0 1 349.082 176.5)" font-family="sans-serif" font-size="24">RL</text>
</g>
<g id="points" display="none">
	<text transform="matrix(1 0 0 1 339.082 278.5)" display="inline" font-family="sans-serif" font-size="24">PT 2</text>
	<text transform="matrix(1 0 0 1 14.082 278.5)" display="inline" font-family="sans-serif" font-size="24">PT 1</text>
	<path display="inline" stroke="#000000" stroke-width="0.4335" stroke-linejoin="bevel" stroke-miterlimit="10" d="
		M367.213,253.201l0.052-21.317c0.029-1.003,0.839-1.79,1.817-1.79c1.001,0,1.813,0.813,1.813,1.82l-0.084,21.291
		c0,1-0.809,1.816-1.813,1.816C367.999,255.02,367.213,254.205,367.213,253.201L367.213,253.201z M358.246,235.46l10.938-36.087
		l10.732,36.166L358.246,235.46z"/>
	<path display="inline" stroke="#000000" stroke-width="0.4335" stroke-linejoin="bevel" stroke-miterlimit="10" d="M39.213,253.201
		l0.052-21.317c0.029-1.003,0.839-1.79,1.817-1.79c1.001,0,1.813,0.813,1.813,1.82l-0.084,21.291c0,1-0.809,1.816-1.813,1.816
		C39.999,255.02,39.213,254.205,39.213,253.201L39.213,253.201z M30.246,235.46l10.94-36.087l10.732,36.166L30.246,235.46z"/>
</g>
<g id="example" display="none">
	
		<line display="inline" fill="none" stroke="#808080" stroke-width="5" stroke-linejoin="round" stroke-miterlimit="8" x1="118.765" y1="320.229" x2="118.765" y2="84.173"/>
	
		<line display="inline" fill="none" stroke="#808080" stroke-width="5" stroke-linejoin="round" stroke-miterlimit="8" x1="281.363" y1="320.229" x2="281.363" y2="84.173"/>
	<text transform="matrix(1.0017 0 0 1 128.2622 258.3125)" display="inline" font-family="sans-serif" font-size="17.1867">RL</text>
	<text transform="matrix(1.0017 0 0 1 251.2227 266.4727)" display="inline" font-family="sans-serif" font-size="17.1867">RL</text>
	<g display="inline">
		<polygon fill-rule="evenodd" clip-rule="evenodd" fill="#FFFFFF" points="268.167,207.5 294.658,207.5 294.658,224.834 
			268.167,224.834 268.167,207.5 		"/>
		<text transform="matrix(1.0017 0 0 1 270.0703 223.1094)" fill="#808080" font-family="sans-serif" font-size="17.1867">XX</text>
	</g>
	<g display="inline">
		<polygon fill-rule="evenodd" clip-rule="evenodd" fill="#FFFFFF" points="109.833,212.5 128.262,212.5 128.262,233.697 
			109.833,233.697 109.833,212.5 		"/>
		<text transform="matrix(1.0017 0 0 1 112.6812 228.8311)" fill="#808080" font-family="sans-serif" font-size="17.1867">X</text>
	</g>
	<text transform="matrix(1.0017 0 0 1 33.1587 112.623)" display="inline"><tspan x="0" y="0" fill="#7F7F7F" font-family="sans-serif" font-size="17.1867">P</tspan><tspan x="11.464" y="0" fill="#7F7F7F" font-family="sans-serif" font-size="17.1867">L</tspan><tspan x="22.099" y="0" fill="#7F7F7F" font-family="sans-serif" font-size="17.1867"> </tspan><tspan x="26.995" y="0" fill="#7F7F7F" font-family="sans-serif" font-size="17.1867">W</tspan><tspan x="44.179" y="0" fill="#7F7F7F" font-family="sans-serif" font-size="17.1867">I</tspan><tspan x="48.283" y="0" fill="#7F7F7F" font-family="sans-serif" font-size="17.1867">N</tspan><tspan x="59.75" y="0" fill="#7F7F7F" font-family="sans-serif" font-size="17.1867">D</tspan></text>
	<text transform="matrix(1.0017 0 0 1 294.6582 112.623)" display="inline"><tspan x="0" y="0" fill="#7F7F7F" font-family="sans-serif" font-size="17.1867">P</tspan><tspan x="11.464" y="0" fill="#7F7F7F" font-family="sans-serif" font-size="17.1867">L</tspan><tspan x="22.099" y="0" fill="#7F7F7F" font-family="sans-serif" font-size="17.1867"> </tspan><tspan x="26.995" y="0" fill="#7F7F7F" font-family="sans-serif" font-size="17.1867">W</tspan><tspan x="44.178" y="0" fill="#7F7F7F" font-family="sans-serif" font-size="17.1867">I</tspan><tspan x="48.284" y="0" fill="#7F7F7F" font-family="sans-serif" font-size="17.1867">N</tspan><tspan x="59.75" y="0" fill="#7F7F7F" font-family="sans-serif" font-size="17.1867">D</tspan></text>
	
		<path display="inline" fill="none" stroke="#808080" stroke-width="3" stroke-linecap="round" stroke-linejoin="round" stroke-miterlimit="8" d="
		M305.979,165.393c-18.611-1.645-33.756-4.388-51.816,1.463c-7.298-2.377-14.962-2.194-22.261-4.57
		c-4.379,0.548-8.94,0.366-13.318,1.462c-1.643,0.365-2.737,2.376-4.379,3.108c-2.921,1.279-8.942,2.925-8.942,2.925
		c-2.918-0.548-6.203-0.184-8.756-1.464c-1.642-0.914-1.277-4.021-2.918-4.569c-7.116-2.561-15.145-2.012-22.26-4.388
		c-16.786,0.914-24.631,3.108-38.499-1.462c-4.196,0.366-20.8,1.645-26.639,2.925c-15.508,3.474-2.919,2.925-14.779,2.925"/>
	
		<path display="inline" fill="none" stroke="#808080" stroke-width="3" stroke-linecap="round" stroke-linejoin="round" stroke-miterlimit="8" d="
		M305.979,184.66c-18.611-1.645-33.756-4.388-51.816,1.462c-7.298-2.376-14.962-2.194-22.261-4.57
		c-4.379,0.549-8.94,0.366-13.318,1.463c-1.643,0.366-2.737,2.376-4.379,3.107c-2.921,1.28-8.942,2.926-8.942,2.926
		c-2.918-0.549-6.203-0.184-8.756-1.463c-1.642-0.916-1.277-4.022-2.918-4.57c-7.116-2.561-15.145-2.011-22.26-4.389
		c-16.786,0.915-24.631,3.108-38.499-1.462c-4.196,0.365-20.8,1.645-26.639,2.925c-15.508,3.474-2.919,2.926-14.779,2.926"/>
	<path display="inline" fill="none" stroke="#000000" stroke-width="5" stroke-linejoin="round" stroke-miterlimit="8" d="
		M120.845,107.71c56.905,3.54,105.405-2.21,158.324,0"/>
	<path display="inline" fill="none" stroke="#000000" stroke-width="5" stroke-linejoin="round" stroke-miterlimit="8" d="
		M120.845,270.851c32.103-0.731,69.13-4.388,102.145-1.462c26.993,8.959,1.095,6.033,56.18,6.033"/>
	<text transform="matrix(1.0017 0 0 1 128.2622 100.3486)" display="inline" font-family="sans-serif" font-size="17.1867">RL</text>
	<text transform="matrix(1.0017 0 0 1 251.2227 100.3486)" display="inline" font-family="sans-serif" font-size="17.1867">RL</text>
	<text transform="matrix(1.0017 0 0 1 40.5425 275.4814)" display="inline"><tspan x="0" y="0" fill="#7F7F7F" font-family="sans-serif" font-size="17.1867">P</tspan><tspan x="11.464" y="0" fill="#7F7F7F" font-family="sans-serif" font-size="17.1867">L</tspan><tspan x="22.099" y="0" fill="#7F7F7F" font-family="sans-serif" font-size="17.1867"> </tspan><tspan x="26.995" y="0" fill="#7F7F7F" font-family="sans-serif" font-size="17.1867">RA</tspan><tspan x="51.577" y="0" fill="#7F7F7F" font-family="sans-serif" font-size="17.1867">I</tspan><tspan x="56.473" y="0" fill="#7F7F7F" font-family="sans-serif" font-size="17.1867">N</tspan><tspan x="67.939" y="0" fill="#7F7F7F" font-family="sans-serif" font-size="17.1867"> </tspan></text>
	<text transform="matrix(1.0017 0 0 1 294.6582 275.4814)" display="inline"><tspan x="0" y="0" fill="#7F7F7F" font-family="sans-serif" font-size="17.1867">P</tspan><tspan x="11.464" y="0" fill="#7F7F7F" font-family="sans-serif" font-size="17.1867">L</tspan><tspan x="22.099" y="0" fill="#7F7F7F" font-family="sans-serif" font-size="17.1867"> </tspan><tspan x="26.995" y="0" fill="#7F7F7F" font-family="sans-serif" font-size="17.1867">RA</tspan><tspan x="51.577" y="0" fill="#7F7F7F" font-family="sans-serif" font-size="17.1867">I</tspan><tspan x="56.472" y="0" fill="#7F7F7F" font-family="sans-serif" font-size="17.1867">N</tspan><tspan x="67.939" y="0" fill="#7F7F7F" font-family="sans-serif" font-size="17.1867"> </tspan></text>
	<g display="inline">
		<polyline fill="none" stroke="#808080" stroke-width="5" stroke-linejoin="round" stroke-miterlimit="8" points="195.855,203.112 
			185.75,195.753 185.75,147.386 195.855,140.025 		"/>
		<polyline fill="none" stroke="#808080" stroke-width="5" stroke-linejoin="round" stroke-miterlimit="8" points="155.179,203.112 
			165.414,195.753 165.414,147.386 155.179,140.025 		"/>
	</g>
</g>
</svg>
