<?xml version="1.0" encoding="utf-8"?>
<!-- Generator: Adobe Illustrator 16.0.0, SVG Export Plug-In . SVG Version: 6.00 Build 0)  -->
<!DOCTYPE svg PUBLIC "-//W3C//DTD SVG 1.1//EN" "http://www.w3.org/Graphics/SVG/1.1/DTD/svg11.dtd">
<svg version="1.1" id="Version_1.0" xmlns="http://www.w3.org/2000/svg" xmlns:xlink="http://www.w3.org/1999/xlink" x="0px"
	 y="0px" width="400px" height="400px" viewBox="0 0 400 400" enable-background="new 0 0 400 400" xml:space="preserve">
<g id="main_1_">
	<line fill="none" stroke="#000000" stroke-width="5" x1="125.5" y1="183.445" x2="359.393" y2="182.592"/>
	<line fill="none" stroke="#000000" stroke-width="5" x1="321.938" y1="164.409" x2="322.664" y2="153.864"/>
	<line fill="none" stroke="#000000" stroke-width="5" x1="321.867" y1="206.113" x2="322.119" y2="216.773"/>
	<g>
		<line fill="none" stroke="#000000" stroke-width="5" x1="322.174" y1="215.864" x2="372.355" y2="182.409"/>
		<line fill="none" stroke="#000000" stroke-width="5" x1="321.867" y1="153.113" x2="373.629" y2="182.592"/>
		<line fill="none" stroke="#000000" stroke-width="5" x1="321.867" y1="164.113" x2="359.393" y2="182.592"/>
		<line fill="none" stroke="#000000" stroke-width="5" x1="321.867" y1="206.113" x2="358.867" y2="182.113"/>
	</g>
</g>
<g id="template" display="none">
	<g id="varA" display="inline">
		<rect x="14.5" y="148.945" fill="#FFFFFF" stroke="#000000" stroke-width="4.7801" width="85" height="69"/>
		<rect x="34.5" y="162.443" fill="#FFFFFF" stroke="#000000" stroke-width="5" width="43" height="43"/>
		<text transform="matrix(1 0 0 1 43 196.9434)" font-family="sans-serif" font-size="36">A</text>
	</g>
	<g id="varW1" display="inline">
		<rect x="247.5" y="213.498" fill="#FFFFFF" stroke="#000000" stroke-width="6.028" width="62.5" height="43"/>
		<text transform="matrix(1 0 0 1 256 247.998)" font-family="sans-serif" font-size="36">W1</text>
	</g>
	<g id="varW" display="inline">
		<text transform="matrix(1 0 0 1 224.5 247.998)" font-family="sans-serif" font-size="36">-</text>
		<rect x="173" y="213.498" fill="#FFFFFF" stroke="#000000" stroke-width="5" width="43" height="43"/>
		<text transform="matrix(1 0 0 1 177.5 247.998)" font-family="sans-serif" font-size="36">W</text>
	</g>
	<g id="varT" display="inline">
		<rect x="261.5" y="161.945" fill="#FFFFFF" stroke="#000000" stroke-width="5" width="43" height="43"/>
		<text transform="matrix(1 0 0 1 270 196.4453)" font-family="sans-serif" font-size="36">T</text>
	</g>
	<g id="points" display="inline">
		<g>
			<text transform="matrix(1 0 0 1 102.5 288.6279)" font-family="sans-serif" font-size="24">PT 2</text>
			<g>
				<g>
					<line fill="none" stroke="#000000" stroke-width="5" x1="125.5" y1="210.945" x2="125.5" y2="268.5"/>
					<path d="M121.657,202.09c-1.874,6.2-3.598,10.229-5.594,15.202h18.917c-0.846-1.78-3.723-9.002-5.594-15.202
						c-2.005-6.635-3.376-12.652-3.865-16.556C125.031,189.437,123.66,195.455,121.657,202.09z"/>
				</g>
			</g>
		</g>
		<g>
			<text transform="matrix(1 0 0 1 342.5 284.8506)" font-family="sans-serif" font-size="24">PT 1</text>
			<g>
				<g>
					<line fill="none" stroke="#000000" stroke-width="5" x1="369.5" y1="205.945" x2="369.5" y2="263.5"/>
					<path d="M365.656,197.09c-1.873,6.2-3.6,10.229-5.594,15.202h18.916c-0.848-1.78-3.724-9.002-5.596-15.202
						c-2.004-6.635-3.376-12.652-3.865-16.556C369.031,184.437,367.66,190.455,365.656,197.09z"/>
				</g>
			</g>
		</g>
	</g>
</g>
<g id="example" display="none">
	<g id="varAe" display="inline">
		<polygon fill="none" stroke="#000000" stroke-width="5" stroke-linecap="round" stroke-miterlimit="8" points="27.164,156.999 
			27.164,215.074 111.307,215.074 111.307,156.999 27.164,156.999 		"/>
		
			<line fill="none" stroke="#000000" stroke-width="3" stroke-linejoin="round" stroke-miterlimit="8" x1="53.441" y1="194.443" x2="81.199" y2="175.706"/>
		
			<line fill="none" stroke="#000000" stroke-width="3" stroke-linejoin="round" stroke-miterlimit="8" x1="53.441" y1="175.706" x2="81.199" y2="194.443"/>
		<path fill="none" stroke="#000000" stroke-width="3" stroke-linecap="round" stroke-linejoin="round" stroke-miterlimit="8" d="
			M67.252,171.094c-10.951,0-19.828,6.259-19.828,13.981c0,7.722,8.876,13.982,19.828,13.982c10.951,0,19.826-6.261,19.826-13.982
			C87.078,177.353,78.203,171.094,67.252,171.094L67.252,171.094z"/>
	</g>
	<g display="inline">
		<rect x="232.5" y="161.945" fill="#FFFFFF" width="82" height="43"/>
		<text id="varTe" transform="matrix(1 0 0 1 235 192.4453)" font-family="sans-serif" font-size="28">MAIN</text>
	</g>
	<text id="varW1e" transform="matrix(1 0 0 1 177.5 241.998)" display="inline" font-family="sans-serif" font-size="18">120300ZOCT08</text>
	<text id="varWe" transform="matrix(1 0 0 1 177.5 223.998)" display="inline" font-family="sans-serif" font-size="18">080400ZOCT08 -</text>
</g>
</svg>
