<?xml version="1.0" encoding="utf-8"?>
<!-- Generator: Adobe Illustrator 16.0.0, SVG Export Plug-In . SVG Version: 6.00 Build 0)  -->
<!DOCTYPE svg PUBLIC "-//W3C//DTD SVG 1.1//EN" "http://www.w3.org/Graphics/SVG/1.1/DTD/svg11.dtd">
<svg version="1.1" id="Version_1.0" xmlns="http://www.w3.org/2000/svg" xmlns:xlink="http://www.w3.org/1999/xlink" x="0px"
	 y="0px" width="400px" height="400px" viewBox="0 0 400 400" enable-background="new 0 0 400 400" xml:space="preserve">
<g id="main">
	<g>
		<g>
			<line fill="none" stroke="#000000" stroke-width="5" x1="116.5" y1="183.445" x2="357.777" y2="183.445"/>
			<g>
				<path d="M325.314,206.244c-0.705-1.104-0.378-2.574,0.729-3.279l30.649-19.52l-30.649-19.52
					c-1.106-0.705-1.434-2.175-0.729-3.28c0.705-1.104,2.183-1.424,3.279-0.728l33.795,21.523c0.685,0.436,1.1,1.192,1.1,2.004
					s-0.415,1.568-1.1,2.004l-33.795,21.524c-0.395,0.25-0.837,0.371-1.273,0.371C326.537,207.344,325.769,206.953,325.314,206.244z
					"/>
			</g>
		</g>
	</g>
	<polygon fill="#FFFFFF" stroke="#000000" stroke-width="5.7063" points="167.225,198.28 167.59,168.61 224.299,197.841 
		224.65,169.311 	"/>
</g>
<g id="template" display="none">
	<g id="varW1" display="inline">
		<rect x="247.5" y="213.498" fill="#FFFFFF" stroke="#000000" stroke-width="6.028" width="62.5" height="43"/>
		<text transform="matrix(1 0 0 1 256 247.998)" font-family="sans-serif" font-size="36">W1</text>
	</g>
	<g id="varW" display="inline">
		<text transform="matrix(1 0 0 1 224.5 247.998)" font-family="sans-serif" font-size="36">-</text>
		<rect x="173" y="213.498" fill="#FFFFFF" stroke="#000000" stroke-width="5" width="43" height="43"/>
		<text transform="matrix(1 0 0 1 177.5 247.998)" font-family="sans-serif" font-size="36">W</text>
	</g>
	<g id="varT" display="inline">
		<rect x="261.5" y="161.945" fill="#FFFFFF" stroke="#000000" stroke-width="5" width="43" height="43"/>
		<text transform="matrix(1 0 0 1 270 196.4453)" font-family="sans-serif" font-size="36">T</text>
	</g>
	<g id="points" display="inline">
		<g>
			<text transform="matrix(1 0 0 1 93.5 288.6279)" font-family="sans-serif" font-size="24">PT 2</text>
			<g>
				<g>
					<line fill="none" stroke="#000000" stroke-width="5" x1="116.5" y1="210.945" x2="116.5" y2="268.5"/>
					<path d="M112.657,202.09c-1.874,6.2-3.598,10.229-5.594,15.202h18.917c-0.846-1.78-3.723-9.002-5.594-15.202
						c-2.005-6.635-3.376-12.652-3.865-16.556C116.031,189.437,114.66,195.455,112.657,202.09z"/>
				</g>
			</g>
		</g>
		<g>
			<text transform="matrix(1 0 0 1 342.5 284.8506)" font-family="sans-serif" font-size="24">PT 1</text>
			<g>
				<g>
					<line fill="none" stroke="#000000" stroke-width="5" x1="369.5" y1="205.945" x2="369.5" y2="263.5"/>
					<path d="M365.656,197.09c-1.873,6.2-3.602,10.229-5.596,15.202h18.916c-0.848-1.78-3.724-9.002-5.596-15.202
						c-2.004-6.635-3.376-12.652-3.865-16.556C369.031,184.437,367.66,190.455,365.656,197.09z"/>
				</g>
			</g>
		</g>
	</g>
</g>
<g id="example" display="none">
	<g id="varAe" display="inline">
		<polygon fill="none" stroke="#000000" stroke-width="5" stroke-linecap="round" stroke-miterlimit="8" points="20.164,156.998 
			20.164,215.074 104.307,215.074 104.307,156.998 		"/>
		<polygon points="62.38,185.962 83.414,200.518 83.414,171.405 		"/>
		<polygon points="62.38,185.962 41.199,200.518 41.199,171.405 		"/>
	</g>
	<g display="inline">
		<rect x="242.5" y="161.945" fill="#FFFFFF" width="82" height="43"/>
		<text id="varTe" transform="matrix(1 0 0 1 245 192.4453)" font-family="sans-serif" font-size="28">AVON</text>
	</g>
	<text id="varW1e" transform="matrix(1 0 0 1 177.5 241.998)" display="inline" font-family="sans-serif" font-size="18">120300ZOCT08</text>
	<text id="varWe" transform="matrix(1 0 0 1 177.5 223.998)" display="inline" font-family="sans-serif" font-size="18">080400ZOCT08 -</text>
</g>
</svg>
