<?xml version="1.0" encoding="utf-8"?>
<!-- Generator: Adobe Illustrator 16.0.0, SVG Export Plug-In . SVG Version: 6.00 Build 0)  -->
<!DOCTYPE svg PUBLIC "-//W3C//DTD SVG 1.1//EN" "http://www.w3.org/Graphics/SVG/1.1/DTD/svg11.dtd">
<svg version="1.1" id="Version_1.0" xmlns="http://www.w3.org/2000/svg" xmlns:xlink="http://www.w3.org/1999/xlink" x="0px"
	 y="0px" width="400px" height="400px" viewBox="0 0 400 400" enable-background="new 0 0 400 400" xml:space="preserve">
<g id="main">
	
		<path fill="none" stroke="#000000" stroke-width="5" stroke-linecap="round" stroke-linejoin="round" stroke-miterlimit="10" stroke-dasharray="3,10" d="
		M242.201,335.283c16.477,0,29.831-12.563,29.831-28.034c0-15.498-13.354-28.036-29.831-28.036"/>
	
		<path fill="none" stroke="#000000" stroke-width="5" stroke-linecap="round" stroke-linejoin="round" stroke-miterlimit="10" stroke-dasharray="3,10" d="
		M242.201,278.831c16.477,0,29.831-12.562,29.831-28.035c0-15.497-13.354-28.035-29.831-28.035"/>
	
		<path fill="none" stroke="#000000" stroke-width="5" stroke-linecap="round" stroke-linejoin="round" stroke-miterlimit="10" stroke-dasharray="3,10" d="
		M242.201,222.212c16.477,0,29.831-12.562,29.831-28.035c0-15.498-13.354-28.036-29.831-28.036"/>
	
		<path fill="none" stroke="#000000" stroke-width="5" stroke-linecap="round" stroke-linejoin="round" stroke-miterlimit="10" stroke-dasharray="3,10" d="
		M242.201,164.442c16.477,0,29.831-12.562,29.831-28.035c0-15.498-13.354-28.036-29.831-28.036"/>
	
		<path fill="none" stroke="#000000" stroke-width="5" stroke-linecap="round" stroke-linejoin="round" stroke-miterlimit="10" stroke-dasharray="3,10" d="
		M242.201,108.372c16.477,0,29.831-12.562,29.831-28.035c0-15.498-13.354-28.036-29.831-28.036"/>
</g>
<g id="template" display="none">
	<g display="inline">
		<text transform="matrix(1 0 0 1 99.8281 60.752)" font-family="sans-serif" font-size="30.9473">PT 1</text>
		<g>
			<g>
				
					<line fill="none" stroke="#000000" stroke-width="5" stroke-linecap="round" stroke-linejoin="round" stroke-miterlimit="10" x1="165.5" y1="52.302" x2="213.5" y2="52.302"/>
				<path d="M222.355,48.458c-6.198-1.874-10.229-3.598-15.203-5.594v18.917c1.781-0.846,9.005-3.723,15.203-5.594
					c6.637-2.005,12.65-3.377,16.556-3.866C235.01,51.833,228.992,50.461,222.355,48.458z"/>
			</g>
		</g>
	</g>
	<g display="inline">
		<text transform="matrix(1 0 0 1 93.3281 343.5088)" font-family="sans-serif" font-size="30.9473">PT 2</text>
		<g>
			<g>
				
					<line fill="none" stroke="#000000" stroke-width="5" stroke-linecap="round" stroke-linejoin="round" stroke-miterlimit="10" x1="164" y1="335.059" x2="212" y2="335.059"/>
				<path d="M220.855,331.215c-6.198-1.873-10.229-3.598-15.203-5.594v18.917c1.781-0.847,9.005-3.724,15.203-5.595
					c6.637-2.004,12.65-3.377,16.556-3.864C233.51,334.59,227.492,333.219,220.855,331.215z"/>
			</g>
		</g>
	</g>
</g>
<g id="example" display="none">
	<g display="inline">
		<path fill="none" stroke="#808080" stroke-width="5" stroke-linejoin="round" stroke-miterlimit="8" d="M77.319,363.917
			c0.86,0,41.113-2.229,57.8-2.229"/>
		<path fill="none" stroke="#808080" stroke-width="5" stroke-linejoin="round" stroke-miterlimit="8" d="M186.778,357.078
			c10.833-4.104,33.702,1.564,45.395,2.346c10.145,5.862,8.597,5.081,21.667,7.036c4.125,0.586,12.38,2.344,12.38,2.344
			c7.909-0.391,15.819-0.586,23.729-1.172c7.738-0.586,14.96-7.231,22.698-9.38c18.743,1.172,35.937,3.516,54.68,3.516"/>
		
			<path fill="#FFFFFF" stroke="#808080" stroke-width="5" stroke-linecap="round" stroke-linejoin="round" stroke-miterlimit="8" d="
			M227.695,348.268c7.9-8.793,20.668-9.556,28.52-1.706c7.85,7.851,7.811,21.343-0.092,30.136
			c-7.901,8.794-20.669,9.559-28.521,1.706C219.753,370.554,219.794,357.062,227.695,348.268L227.695,348.268z"/>
		
			<line fill="none" stroke="#808080" stroke-width="5" stroke-linejoin="round" stroke-miterlimit="8" x1="256.599" y1="347.171" x2="228.126" y2="378.858"/>
		
			<line fill="none" stroke="#808080" stroke-width="5" stroke-linejoin="round" stroke-miterlimit="8" x1="227.695" y1="348.216" x2="256.123" y2="376.646"/>
		<text transform="matrix(1.0017 0 0 1 152.6641 367.8047)" fill="#808080" font-family="sans-serif" font-size="24">X</text>
	</g>
	<g display="inline">
		<path fill="none" stroke="#808080" stroke-width="5" stroke-linejoin="round" stroke-miterlimit="8" d="M112.319,27.949
			c15.764,0.896,34.484,4.036,50.248,4.036"/>
		<path fill="none" stroke="#808080" stroke-width="5" stroke-linejoin="round" stroke-miterlimit="8" d="M212.814,30.652
			c15.134-2.042,30.268-2.496,45.401-4.085c13.815,1.362,25.824,6.582,39.477,8.171c8.719,2.497,16.944,4.766,25.661,6.808
			c8.225-0.454,16.45-0.681,24.675-1.362c9.376-0.907,18.423-5.22,27.634-6.809c3.948-1.816,1.974-1.362,5.922-1.362"/>
		
			<path fill="#FFFFFF" stroke="#808080" stroke-width="5" stroke-linecap="round" stroke-linejoin="round" stroke-miterlimit="8" d="
			M231.579,12.671c7.921-8.814,20.703-9.596,28.554-1.745c7.852,7.852,7.795,21.36-0.125,30.174
			c-7.92,8.815-20.703,9.597-28.554,1.746C223.603,34.995,223.66,21.486,231.579,12.671L231.579,12.671z"/>
		
			<line fill="none" stroke="#808080" stroke-width="5" stroke-linejoin="round" stroke-miterlimit="8" x1="260.517" y1="11.534" x2="231.977" y2="43.3"/>
		
			<line fill="none" stroke="#808080" stroke-width="5" stroke-linejoin="round" stroke-miterlimit="8" x1="231.579" y1="12.565" x2="260.008" y2="40.995"/>
		<text transform="matrix(1.0017 0 0 1 182.6641 40.9946)" fill="#808080" font-family="sans-serif" font-size="24">X</text>
	</g>
</g>
</svg>
