<?xml version="1.0" encoding="utf-8"?>
<!-- Generator: Adobe Illustrator 16.0.0, SVG Export Plug-In . SVG Version: 6.00 Build 0)  -->
<!DOCTYPE svg PUBLIC "-//W3C//DTD SVG 1.1//EN" "http://www.w3.org/Graphics/SVG/1.1/DTD/svg11.dtd">
<svg version="1.1" id="Version_1.0" xmlns="http://www.w3.org/2000/svg" xmlns:xlink="http://www.w3.org/1999/xlink" x="0px"
	 y="0px" width="400px" height="400px" viewBox="0 0 400 400" enable-background="new 0 0 400 400" xml:space="preserve">
<g id="main">
	<path fill="none" stroke="#000000" stroke-width="6.2317" stroke-linejoin="round" stroke-miterlimit="10" d="M107.583,135.927
		c7.796-4.249-0.77,0,17.926,0c13.233,0,26.467-0.606,39.701-1.214c11.295-3.035,22.195-7.888,33.492-12.16
		c19.067,1.821,32.325,8.521,50.623,9.732c10.106,0.606,30.364,1.214,30.364,1.214"/>
	<text transform="matrix(1 0 0 1 315.7891 135.5996)" font-family="sans-serif" font-size="21">FEBA</text>
	<text transform="matrix(1 0 0 1 26.5957 133.7344)" font-family="sans-serif" font-size="21">FEBA</text>
</g>
<g id="template" display="none">
	<g display="inline">
		<line fill="none" stroke="#000000" stroke-width="4" x1="278.5" y1="193.639" x2="278.5" y2="156.5"/>
		<path d="M275.425,149.415c-1.498,4.96-2.878,8.184-4.475,12.163h15.133c-0.677-1.424-2.978-7.203-4.476-12.163
			c-1.604-5.309-2.701-10.122-3.092-13.244C278.125,139.292,277.027,144.106,275.425,149.415z"/>
		<text transform="matrix(1 0 0 1 247.3662 221.2295)" font-family="sans-serif" font-size="30.9949">PT 3</text>
	</g>
	<g display="inline">
		
			<line fill="none" stroke="#000000" stroke-width="4" stroke-linejoin="bevel" stroke-miterlimit="10" x1="200.5" y1="211.902" x2="200.5" y2="147.634"/>
		<path d="M197.425,140.549c-1.499,4.96-2.878,8.184-4.475,12.163h15.133c-0.677-1.424-2.978-7.203-4.476-12.163
			c-1.604-5.309-2.7-10.122-3.092-13.244C200.125,130.427,199.028,135.24,197.425,140.549z"/>
		<text transform="matrix(1 0 0 1 163.1074 240.7109)" font-family="sans-serif" font-size="30.9949">PT 2</text>
	</g>
	<g display="inline">
		<line fill="none" stroke="#000000" stroke-width="4" x1="110.21" y1="201.639" x2="110.21" y2="158.5"/>
		<path d="M107.135,151.415c-1.499,4.96-2.878,8.184-4.475,12.163h15.133c-0.677-1.424-2.978-7.203-4.475-12.163
			c-1.604-5.309-2.701-10.122-3.092-13.244C109.835,141.292,108.738,146.106,107.135,151.415z"/>
		<text transform="matrix(1 0 0 1 70.7158 226.2295)" font-family="sans-serif" font-size="30.9949">PT 1</text>
	</g>
</g>
<g id="example" display="none">
	<g display="inline">
		
			<line fill="none" stroke="#808080" stroke-width="5" stroke-linejoin="round" stroke-miterlimit="8" x1="101.239" y1="107.097" x2="101.239" y2="186.212"/>
		<polygon fill="#FFFFFF" stroke="#808080" stroke-width="1.9971" stroke-linecap="round" stroke-miterlimit="8" points="
			89.675,121.595 89.675,143.207 111.226,143.207 111.226,121.595 89.675,121.595 		"/>
		<text transform="matrix(1.0017 0 0 1 95.6553 138.8047)" fill="#808080" font-family="sans-serif" font-size="18">2</text>
	</g>
	<g display="inline">
		
			<line fill="none" stroke="#808080" stroke-width="5" stroke-linejoin="round" stroke-miterlimit="8" x1="291.883" y1="106.097" x2="291.883" y2="185.212"/>
		<polygon fill="#FFFFFF" stroke="#808080" stroke-width="1.9971" stroke-linecap="round" stroke-miterlimit="8" points="
			280.225,120.595 280.225,142.207 301.871,142.207 301.871,120.595 280.225,120.595 		"/>
		<text transform="matrix(1.0017 0 0 1 285.8789 137.8047)" fill="#808080" font-family="sans-serif" font-size="18">2</text>
	</g>
	<text transform="matrix(1.0017 0 0 1 6.751 160.0684)" display="inline"><tspan x="0" y="0" fill="#7F7F7F" font-family="sans-serif" font-size="21">P</tspan><tspan x="13.503" y="0" fill="#7F7F7F" font-family="sans-serif" font-size="21">L</tspan><tspan x="25.119" y="0" fill="#7F7F7F" font-family="sans-serif" font-size="21"> </tspan><tspan x="31.101" y="0" fill="#7F7F7F" font-family="sans-serif" font-size="21">K</tspan><tspan x="44.96" y="0" fill="#7F7F7F" font-family="sans-serif" font-size="21">I</tspan><tspan x="50.942" y="0" fill="#7F7F7F" font-family="sans-serif" font-size="21">N</tspan><tspan x="65.96" y="0" fill="#7F7F7F" font-family="sans-serif" font-size="21">G </tspan><tspan x="88.423" y="0" fill="#7F7F7F" font-family="sans-serif" font-size="21"> </tspan></text>
	<text transform="matrix(1.0017 0 0 1 306.8936 161.5781)" display="inline"><tspan x="0" y="0" fill="#7F7F7F" font-family="sans-serif" font-size="21">P</tspan><tspan x="13.502" y="0" fill="#7F7F7F" font-family="sans-serif" font-size="21">L</tspan><tspan x="25.119" y="0" fill="#7F7F7F" font-family="sans-serif" font-size="21"> </tspan><tspan x="31.1" y="0" fill="#7F7F7F" font-family="sans-serif" font-size="21">K</tspan><tspan x="44.96" y="0" fill="#7F7F7F" font-family="sans-serif" font-size="21">I</tspan><tspan x="50.941" y="0" fill="#7F7F7F" font-family="sans-serif" font-size="21">N</tspan><tspan x="65.96" y="0" fill="#7F7F7F" font-family="sans-serif" font-size="21">G </tspan><tspan x="88.423" y="0" fill="#7F7F7F" font-family="sans-serif" font-size="21"> </tspan></text>
</g>
</svg>
