<?xml version="1.0" encoding="utf-8"?>
<!-- Generator: Adobe Illustrator 16.0.0, SVG Export Plug-In . SVG Version: 6.00 Build 0)  -->
<!DOCTYPE svg PUBLIC "-//W3C//DTD SVG 1.1//EN" "http://www.w3.org/Graphics/SVG/1.1/DTD/svg11.dtd">
<svg version="1.1" id="Version_1.0" xmlns="http://www.w3.org/2000/svg" xmlns:xlink="http://www.w3.org/1999/xlink" x="0px"
	 y="0px" width="400px" height="400px" viewBox="0 0 400 400" enable-background="new 0 0 400 400" xml:space="preserve">
<g id="main">
	<path fill="none" stroke="#000000" stroke-width="5" stroke-linejoin="round" stroke-miterlimit="10" stroke-dasharray="10,10" d="
		M101.239,133.734c7.796-4.249,15.784,2.192,34.48,2.192c13.233,0,26.467-0.606,39.701-1.214
		c11.295-3.035,22.195-7.888,33.492-12.16c19.067,1.821,32.325,8.521,50.623,9.732c10.106,0.606,30.364,1.214,30.364,1.214"/>
	<text transform="matrix(1 0 0 1 315.7891 135.5996)" font-family="sans-serif" font-size="21">FEBA</text>
	<text transform="matrix(1 0 0 1 26.5957 133.7344)" font-family="sans-serif" font-size="21">FEBA</text>
</g>
<g id="template" display="none">
	<g display="inline">
		<line fill="none" stroke="#000000" stroke-width="4" x1="284.5" y1="193.639" x2="284.5" y2="156.5"/>
		<path d="M281.425,149.415c-1.498,4.96-2.878,8.184-4.475,12.163h15.133c-0.677-1.424-2.978-7.203-4.476-12.163
			c-1.604-5.309-2.701-10.122-3.092-13.244C284.125,139.292,283.027,144.106,281.425,149.415z"/>
		<text transform="matrix(1 0 0 1 253.3662 221.2295)" font-family="sans-serif" font-size="30.9949">PT 2</text>
	</g>
	<g display="inline">
		<line fill="none" stroke="#000000" stroke-width="4" x1="110.21" y1="201.639" x2="110.21" y2="158.5"/>
		<path d="M107.135,151.415c-1.499,4.96-2.878,8.184-4.475,12.163h15.133c-0.677-1.424-2.978-7.203-4.475-12.163
			c-1.604-5.309-2.701-10.122-3.092-13.244C109.835,141.292,108.738,146.106,107.135,151.415z"/>
		<text transform="matrix(1 0 0 1 70.7158 226.2295)" font-family="sans-serif" font-size="30.9949">PT 1</text>
	</g>
</g>
<g id="example" display="none">
	
		<line display="inline" fill="none" stroke="#808080" stroke-width="5" stroke-linejoin="round" stroke-miterlimit="8" x1="101.239" y1="107.097" x2="101.239" y2="186.212"/>
	
		<line display="inline" fill="none" stroke="#808080" stroke-width="5" stroke-linejoin="round" stroke-miterlimit="8" x1="291.883" y1="106.097" x2="291.883" y2="185.212"/>
	<text transform="matrix(1.0017 0 0 1 14.751 160.0684)" display="inline"><tspan x="0" y="0" fill="#7F7F7F" font-family="sans-serif" font-size="21">P</tspan><tspan x="13.503" y="0" fill="#7F7F7F" font-family="sans-serif" font-size="21">L</tspan><tspan x="25.119" y="0" fill="#7F7F7F" font-family="sans-serif" font-size="21"> I</tspan><tspan x="37.082" y="0" fill="#7F7F7F" font-family="sans-serif" font-size="21">N</tspan><tspan x="52.101" y="0" fill="#7F7F7F" font-family="sans-serif" font-size="21">K</tspan><tspan x="66.107" y="0" fill="#7F7F7F" font-family="sans-serif" font-size="21"> </tspan><tspan x="72.089" y="0" fill="#7F7F7F" font-family="sans-serif" font-size="21"> </tspan></text>
	<text transform="matrix(1.0017 0 0 1 311.8936 161.5781)" display="inline"><tspan x="0" y="0" fill="#7F7F7F" font-family="sans-serif" font-size="21">P</tspan><tspan x="13.502" y="0" fill="#7F7F7F" font-family="sans-serif" font-size="21">L</tspan><tspan x="25.119" y="0" fill="#7F7F7F" font-family="sans-serif" font-size="21"> I</tspan><tspan x="37.082" y="0" fill="#7F7F7F" font-family="sans-serif" font-size="21">N</tspan><tspan x="52.101" y="0" fill="#7F7F7F" font-family="sans-serif" font-size="21">K</tspan><tspan x="66.108" y="0" fill="#7F7F7F" font-family="sans-serif" font-size="21"> </tspan><tspan x="72.089" y="0" fill="#7F7F7F" font-family="sans-serif" font-size="21"> </tspan></text>
</g>
</svg>
