<?xml version="1.0" encoding="utf-8"?>
<!-- Generator: Adobe Illustrator 16.0.0, SVG Export Plug-In . SVG Version: 6.00 Build 0)  -->
<!DOCTYPE svg PUBLIC "-//W3C//DTD SVG 1.1//EN" "http://www.w3.org/Graphics/SVG/1.1/DTD/svg11.dtd">
<svg version="1.1" id="Version_1.0" xmlns="http://www.w3.org/2000/svg" xmlns:xlink="http://www.w3.org/1999/xlink" x="0px"
	 y="0px" width="400px" height="400px" viewBox="0 0 400 400" enable-background="new 0 0 400 400" xml:space="preserve">
<g id="main">
	<path fill="none" stroke="#000000" stroke-width="5" d="M173.37,63.452c61.987-5.952,102.278-14.082,119,16.334
		c14.039,25.536,16.294,215.187,5.833,229.833c-24.027,33.639-31.705,40.663-119,35.584"/>
	<text transform="matrix(1 0 0 1 179.5488 45.7598)" font-family="sans-serif" font-size="20.9978">BL</text>
	<text transform="matrix(1 0 0 1 179.5488 372.6504)" font-family="sans-serif" font-size="20.9978">BL</text>
</g>
<g id="template" display="none">
	<g display="inline">
		<text transform="matrix(1 0 0 1 57.749 289.7598)" font-family="sans-serif" font-size="20.9978">PT N</text>
		<line fill="none" stroke="#000000" stroke-width="2" x1="162.532" y1="329.602" x2="114.606" y2="288.01"/>
		<polygon stroke="#000000" stroke-width="2" points="178.597,342.006 151.668,333.395 165.036,317.199 		"/>
	</g>
	<g display="inline">
		<text transform="matrix(1 0 0 1 64.6484 117.5596)" font-family="sans-serif" font-size="20.9978">PT 1</text>
		<line fill="none" stroke="#000000" stroke-width="2" x1="153.878" y1="79.826" x2="115.329" y2="106.61"/>
		<polygon stroke="#000000" stroke-width="2" points="171.652,65.687 157.327,89.446 145.17,72.322 		"/>
	</g>
</g>
<g id="example" display="none">
	<text transform="matrix(1 0 0 1 179.5488 25.7598)" display="inline" fill="#808080" font-family="sans-serif" font-size="20.9978">PL CAT</text>
	
		<text transform="matrix(1 0 0 1 179.5488 392.6504)" display="inline" fill="#808080" font-family="sans-serif" font-size="20.9978">PL CAT</text>
	
		<path display="inline" fill="none" stroke="#808080" stroke-width="5" stroke-linecap="round" stroke-linejoin="round" stroke-miterlimit="8" d="
		M225.895,51.02c2.908,26.344,7.758,47.779-2.586,73.347c4.202,10.33,3.879,21.178,8.081,31.507
		c-0.971,6.199-0.647,12.655-2.587,18.854c-0.647,2.324-4.202,3.874-5.494,6.197c-2.264,4.133-5.173,12.655-5.173,12.655
		c0.97,4.132,0.322,8.78,2.586,12.397c1.615,2.324,7.112,1.806,8.081,4.132c4.526,10.07,3.556,21.437,7.758,31.506
		c-1.615,23.763-5.494,34.866,2.587,54.495c-0.647,5.938-2.91,29.439-5.171,37.707c-6.143,21.951-5.174,4.132-5.174,20.918"/>
	
		<path display="inline" fill="none" stroke="#808080" stroke-width="5" stroke-linecap="round" stroke-linejoin="round" stroke-miterlimit="8" d="
		M191.791,51.02c2.908,26.344,7.758,47.779-2.587,73.347c4.203,10.33,3.879,21.178,8.082,31.507
		c-0.97,6.199-0.647,12.655-2.586,18.854c-0.646,2.324-4.202,3.874-5.495,6.197c-2.263,4.133-5.173,12.655-5.173,12.655
		c0.97,4.132,0.324,8.78,2.587,12.397c1.616,2.324,7.112,1.806,8.081,4.132c4.526,10.07,3.557,21.437,7.758,31.506
		c-1.616,23.763-5.495,34.866,2.587,54.495c-0.646,5.938-2.909,29.439-5.171,37.707c-6.142,21.951-5.173,4.132-5.173,20.918"/>
	<polyline display="inline" fill="none" stroke="#808080" stroke-width="5" stroke-linejoin="round" stroke-miterlimit="8" points="
		189.842,225.516 196.545,234.835 240.35,234.717 247.053,225.396 	"/>
	<polyline display="inline" fill="none" stroke="#808080" stroke-width="5" stroke-linejoin="round" stroke-miterlimit="8" points="
		189.842,262.677 196.425,253.357 239.875,253.357 247.053,262.558 	"/>
	<line display="inline" fill="none" stroke="#808080" stroke-width="5" x1="173.37" y1="63.452" x2="56.648" y2="70.687"/>
	<line display="inline" fill="none" stroke="#808080" stroke-width="5" x1="179.203" y1="345.203" x2="56.648" y2="335.833"/>
</g>
</svg>
