<?xml version="1.0" encoding="utf-8"?>
<!-- Generator: Adobe Illustrator 16.0.0, SVG Export Plug-In . SVG Version: 6.00 Build 0)  -->
<!DOCTYPE svg PUBLIC "-//W3C//DTD SVG 1.1//EN" "http://www.w3.org/Graphics/SVG/1.1/DTD/svg11.dtd">
<svg version="1.1" id="Version_1.0" xmlns="http://www.w3.org/2000/svg" xmlns:xlink="http://www.w3.org/1999/xlink" x="0px"
	 y="0px" width="400px" height="400px" viewBox="0 0 400 400" enable-background="new 0 0 400 400" xml:space="preserve">
<g id="main">
	<g>
		<g>
			<line fill="none" stroke="#000000" stroke-width="5" x1="108.5" y1="182.96" x2="349.477" y2="182.96"/>
			<g>
				<path d="M315.305,206.959c-0.742-1.162-0.397-2.709,0.768-3.451l32.263-20.547l-32.263-20.547
					c-1.165-0.742-1.51-2.29-0.768-3.452s2.298-1.499,3.453-0.767l35.573,22.656c0.72,0.459,1.157,1.255,1.157,2.109
					s-0.438,1.65-1.157,2.109l-35.573,22.657c-0.416,0.264-0.882,0.391-1.341,0.391
					C316.592,208.117,315.783,207.707,315.305,206.959z"/>
			</g>
		</g>
	</g>
	<g>
		<g>
			<line fill="none" stroke="#000000" stroke-width="5" x1="325.5" y1="139.421" x2="331.073" y2="144.44"/>
			
				<line fill="none" stroke="#000000" stroke-width="5" stroke-dasharray="14.1572,7.5505" x1="336.684" y1="149.493" x2="366.14" y2="176.02"/>
			<polyline fill="none" stroke="#000000" stroke-width="5" points="368.945,178.546 374.519,183.565 368.877,188.507 			"/>
			
				<line fill="none" stroke="#000000" stroke-width="5" stroke-dasharray="13.9342,7.4316" x1="363.286" y1="193.403" x2="333.938" y2="219.11"/>
			<line fill="none" stroke="#000000" stroke-width="5" x1="331.142" y1="221.559" x2="325.5" y2="226.5"/>
		</g>
	</g>
</g>
<g id="template" display="none">
	<g id="varW1" display="inline">
		<rect x="239.5" y="213.498" fill="#FFFFFF" stroke="#000000" stroke-width="6.028" width="62.5" height="43"/>
		<text transform="matrix(1 0 0 1 248 247.998)" font-family="sans-serif" font-size="36">W1</text>
	</g>
	<g id="varW" display="inline">
		<text transform="matrix(1 0 0 1 216.5 247.998)" font-family="sans-serif" font-size="36">-</text>
		<rect x="165" y="213.498" fill="#FFFFFF" stroke="#000000" stroke-width="5" width="43" height="43"/>
		<text transform="matrix(1 0 0 1 169.5 247.998)" font-family="sans-serif" font-size="36">W</text>
	</g>
	<g id="varT" display="inline">
		<rect x="253.5" y="161.945" fill="#FFFFFF" stroke="#000000" stroke-width="5" width="43" height="43"/>
		<text transform="matrix(1 0 0 1 262 196.4453)" font-family="sans-serif" font-size="36">T</text>
	</g>
	<g id="points" display="inline">
		<g>
			<text transform="matrix(1 0 0 1 84.5 288.6279)" font-family="sans-serif" font-size="24">PT 2</text>
			<g>
				<g>
					<line fill="none" stroke="#000000" stroke-width="5" x1="107.5" y1="210.945" x2="107.5" y2="268.5"/>
					<path d="M103.657,202.09c-1.874,6.2-3.598,10.229-5.594,15.202h18.917c-0.846-1.78-3.723-9.002-5.594-15.202
						c-2.005-6.635-3.376-12.652-3.865-16.556C107.031,189.437,105.66,195.455,103.657,202.09z"/>
				</g>
			</g>
		</g>
		<g>
			<text transform="matrix(1 0 0 1 348.5 292.8506)" font-family="sans-serif" font-size="24">PT 1</text>
			<g>
				<g>
					<line fill="none" stroke="#000000" stroke-width="5" x1="375.5" y1="213.945" x2="375.5" y2="271.5"/>
					<path d="M371.656,205.09c-1.873,6.2-3.604,10.229-5.596,15.202h18.916c-0.85-1.78-3.726-9.002-5.598-15.202
						c-2.004-6.635-3.376-12.652-3.865-16.556C375.031,192.437,373.66,198.455,371.656,205.09z"/>
				</g>
			</g>
		</g>
	</g>
</g>
<g id="example" display="none">
	<g id="varAe" display="inline">
		<polygon fill="none" stroke="#000000" stroke-width="5" stroke-linecap="round" stroke-miterlimit="8" points="7.164,156.998 
			7.164,215.074 91.307,215.074 91.307,156.998 		"/>
		
			<line fill="none" stroke="#000000" stroke-width="5" stroke-linecap="round" stroke-miterlimit="8" x1="7.164" y1="156.998" x2="91.307" y2="215.074"/>
		
			<line fill="none" stroke="#000000" stroke-width="5" stroke-linecap="round" stroke-miterlimit="8" x1="7.164" y1="215.074" x2="91.307" y2="156.998"/>
	</g>
	<g display="inline">
		<rect x="226.994" y="161.945" fill="#FFFFFF" width="71.506" height="43"/>
		<text id="varTe" transform="matrix(1 0 0 1 232 192.4453)" font-family="sans-serif" font-size="28">HAN</text>
	</g>
	<text id="varW1e" transform="matrix(1 0 0 1 164.5 241.998)" display="inline" font-family="sans-serif" font-size="18">120300ZOCT08</text>
	<text id="varWe" transform="matrix(1 0 0 1 164.5 223.998)" display="inline" font-family="sans-serif" font-size="18">080400ZOCT08 -</text>
</g>
</svg>
