<?xml version="1.0" encoding="utf-8"?>
<!-- Generator: Adobe Illustrator 16.0.0, SVG Export Plug-In . SVG Version: 6.00 Build 0)  -->
<!DOCTYPE svg PUBLIC "-//W3C//DTD SVG 1.1//EN" "http://www.w3.org/Graphics/SVG/1.1/DTD/svg11.dtd">
<svg version="1.1" id="Version_1.0" xmlns="http://www.w3.org/2000/svg" xmlns:xlink="http://www.w3.org/1999/xlink" x="0px"
	 y="0px" width="400px" height="400px" viewBox="0 0 400 400" enable-background="new 0 0 400 400" xml:space="preserve">
<g id="main" transform="translate(-320 -250) scale(2 2)">
	<g>
		<g>
			<line fill="none" stroke="#000000" stroke-width="5" x1="229.846" y1="228.647" x2="335.84" y2="228.647"/>
			<g>
				<path d="M318.755,240.646c-0.371-0.581-0.199-1.355,0.383-1.726l16.132-10.273l-16.132-10.273
					c-0.582-0.371-0.754-1.145-0.383-1.726s1.148-0.75,1.726-0.383l17.787,11.328c0.36,0.229,0.579,0.627,0.579,1.055
					s-0.218,0.825-0.579,1.055L320.48,241.03c-0.207,0.132-0.44,0.195-0.67,0.195C319.398,241.225,318.994,241.02,318.755,240.646z"
					/>
			</g>
		</g>
	</g>
	<g>
		<path fill="none" stroke="#000000" stroke-width="5" d="M205.596,156.647c31.336,27.002,32.93,120.07,2,146.5"/>
		<line fill="none" stroke="#000000" stroke-width="5" x1="173.846" y1="171.647" x2="216.971" y2="171.619"/>
		<line fill="none" stroke="#000000" stroke-width="5" x1="182.846" y1="194.647" x2="224.846" y2="194.647"/>
		<line fill="none" stroke="#000000" stroke-width="5" x1="186.846" y1="216.647" x2="228.749" y2="216.598"/>
		<line fill="none" stroke="#000000" stroke-width="5" x1="186.846" y1="240.647" x2="229.846" y2="240.647"/>
		<line fill="none" stroke="#000000" stroke-width="5" x1="183.846" y1="265.147" x2="225.846" y2="265.147"/>
		<line fill="none" stroke="#000000" stroke-width="5" x1="175.846" y1="286.147" x2="219.846" y2="286.147"/>
	</g>
</g>
<g id="template" display="none">
	<g display="inline">
		<text transform="matrix(1 0 0 1 179.6914 65.2949)" font-family="sans-serif" font-size="24">PT 2</text>
		<line fill="none" stroke="#000000" stroke-width="5" x1="111.692" y1="57.294" x2="175.692" y2="57.294"/>
		<polygon stroke="#000000" stroke-width="5" points="95.764,57.222 121.764,43.222 121.764,71.222 		"/>
	</g>
	<g display="inline">
		<text transform="matrix(1 0 0 1 199.6914 371.2949)" font-family="sans-serif" font-size="24">PT 3</text>
		<line fill="none" stroke="#000000" stroke-width="5" x1="117.692" y1="361.294" x2="193.692" y2="361.294"/>
		<polygon stroke="#000000" stroke-width="5" points="101.764,361.223 127.764,347.223 127.764,375.223 		"/>
	</g>
	<g display="inline">
		<text transform="matrix(1 0 0 1 323.6914 295.2949)" font-family="sans-serif" font-size="24">PT 1</text>
		<line fill="none" stroke="#000000" stroke-width="5" x1="357.692" y1="227.294" x2="357.692" y2="271.294"/>
		<polygon stroke="#000000" stroke-width="5" points="357.192,223.088 368.692,247.294 345.692,247.294 		"/>
	</g>
</g>
</svg>
