<?xml version="1.0" encoding="utf-8"?>
<!-- Generator: Adobe Illustrator 16.0.0, SVG Export Plug-In . SVG Version: 6.00 Build 0)  -->
<!DOCTYPE svg PUBLIC "-//W3C//DTD SVG 1.1//EN" "http://www.w3.org/Graphics/SVG/1.1/DTD/svg11.dtd">
<svg version="1.1" id="Version_1.0" xmlns="http://www.w3.org/2000/svg" xmlns:xlink="http://www.w3.org/1999/xlink" x="0px"
	 y="0px" width="400px" height="400px" viewBox="0 0 400 400" enable-background="new 0 0 400 400" xml:space="preserve">
<g id="main">
	<g>
		<g>
			<polyline fill="none" stroke="#000000" stroke-width="5" stroke-miterlimit="8" points="84.869,123.423 195.813,252.5 
				310.074,123.389 			"/>
			<g>
				<path d="M86.996,146.147c0.751-0.107,1.273-0.806,1.165-1.557l-2.996-20.823l20.137,6.091c0.727,0.22,1.496-0.192,1.715-0.918
					c0.218-0.726-0.199-1.496-0.918-1.715l-22.204-6.715c-0.45-0.136-0.938-0.033-1.294,0.273c-0.356,0.307-0.532,0.774-0.465,1.239
					l3.303,22.96c0.039,0.268,0.153,0.508,0.317,0.699C86.052,146.026,86.513,146.216,86.996,146.147z"/>
			</g>
			<g>
				<path d="M307.618,146.081c-0.749-0.118-1.261-0.824-1.142-1.574l3.297-20.778l-20.223,5.799
					c-0.73,0.209-1.493-0.213-1.701-0.942c-0.208-0.729,0.22-1.493,0.942-1.701l22.298-6.394c0.452-0.129,0.939-0.02,1.291,0.292
					s0.521,0.782,0.447,1.246l-3.636,22.91c-0.042,0.267-0.16,0.505-0.327,0.694C308.564,145.973,308.101,146.156,307.618,146.081z"
					/>
			</g>
		</g>
	</g>
	<line fill="none" stroke="#000000" stroke-width="7" stroke-miterlimit="8" x1="102.5" y1="137.129" x2="187.5" y2="234.5"/>
</g>
<g id="template" display="none">
	<g display="inline">
		
			<rect x="180.72" y="258.523" fill="none" stroke="#939598" stroke-width="5" stroke-linecap="round" stroke-miterlimit="8" width="31.896" height="38.853"/>
	</g>
	<g id="points" display="inline">
		<g>
			<polygon stroke="#000000" stroke-width="0.3216" stroke-linejoin="bevel" stroke-miterlimit="10" points="332.565,146.82 
				316.77,123.727 342.675,134.319 			"/>
			
				<line fill="none" stroke="#000000" stroke-width="4" stroke-linecap="round" stroke-linejoin="round" stroke-miterlimit="10" x1="335.742" y1="174.516" x2="335.742" y2="137.654"/>
			<text transform="matrix(1 0 0 1 305.0654 197.1602)" font-family="sans-serif" font-size="26.691">PT 3</text>
		</g>
		<g>
			<polygon stroke="#000000" stroke-width="0.3216" stroke-linejoin="bevel" stroke-miterlimit="10" points="53.887,133.193 
				79.795,122.622 63.997,145.716 			"/>
			
				<line fill="none" stroke="#000000" stroke-width="4" stroke-linecap="round" stroke-linejoin="round" stroke-miterlimit="10" x1="60.801" y1="136.55" x2="60.801" y2="173.391"/>
			<text transform="matrix(1 0 0 1 30.3506 196.1582)" font-family="sans-serif" font-size="26.691">PT 2</text>
		</g>
		<g>
			
				<line fill="none" stroke="#000000" stroke-width="4" stroke-linejoin="bevel" stroke-miterlimit="10" x1="195.999" y1="202.206" x2="195.999" y2="227.5"/>
			<path d="M199.074,234.586c1.499-4.96,2.878-8.186,4.475-12.163h-15.133c0.677,1.425,2.978,7.203,4.475,12.163
				c1.604,5.309,2.701,10.122,3.092,13.243C196.374,244.708,197.471,239.895,199.074,234.586z"/>
			<text transform="matrix(1 0 0 1 167.0957 198.4766)" font-family="sans-serif" font-size="26.691">PT 1</text>
		</g>
	</g>
</g>
<g id="example" display="none">
	<g id="varAe" display="inline">
		
			<line fill="none" stroke="#939598" stroke-width="4" stroke-linejoin="round" stroke-miterlimit="8" x1="196.067" y1="299.959" x2="196.067" y2="261.939"/>
		<polyline fill="none" stroke="#939598" stroke-width="4" stroke-linecap="round" stroke-miterlimit="8" points="187.672,277.493 
			196.067,261.939 204.463,277.493 		"/>
		
			<line fill="none" stroke="#939598" stroke-width="4" stroke-linejoin="round" stroke-miterlimit="8" x1="186.832" y1="283.368" x2="205.133" y2="283.368"/>
	</g>
</g>
</svg>
