<?xml version="1.0" encoding="utf-8"?>
<!-- Generator: Adobe Illustrator 16.0.0, SVG Export Plug-In . SVG Version: 6.00 Build 0)  -->
<!DOCTYPE svg PUBLIC "-//W3C//DTD SVG 1.1//EN" "http://www.w3.org/Graphics/SVG/1.1/DTD/svg11.dtd">
<svg version="1.1" id="Version_1.0" xmlns="http://www.w3.org/2000/svg" xmlns:xlink="http://www.w3.org/1999/xlink" x="0px"
	 y="0px" width="400px" height="400px" viewBox="0 0 400 400" enable-background="new 0 0 400 400" xml:space="preserve">
<g id="main">
	<line fill="none" stroke="#000000" stroke-width="5" x1="108.5" y1="183.445" x2="355.488" y2="183.445"/>
	<path d="M321.316,207.443c-0.742-1.162-0.397-2.709,0.768-3.451l32.263-20.547l-32.263-20.547c-1.165-0.742-1.51-2.29-0.768-3.452
		c0.74-1.162,2.298-1.499,3.451-0.767l35.573,22.656c0.722,0.459,1.157,1.255,1.157,2.109s-0.438,1.65-1.157,2.109l-35.573,22.657
		c-0.415,0.265-0.882,0.392-1.341,0.392C322.604,208.602,321.795,208.191,321.316,207.443z"/>
	<g>
		
			<line fill="none" stroke="#000000" stroke-width="5" stroke-dasharray="12,6" x1="374.519" y1="183.565" x2="325.5" y2="139.421"/>
		<line fill="none" stroke="#000000" stroke-width="5" stroke-dasharray="12,6" x1="374.333" y1="183.722" x2="325.5" y2="226.5"/>
	</g>
</g>
<g id="template" display="none">
	<g id="varA" display="inline">
		<rect x="6.5" y="148.945" fill="#FFFFFF" stroke="#000000" stroke-width="4.7801" width="85" height="69"/>
		<rect x="26.5" y="162.443" fill="#FFFFFF" stroke="#000000" stroke-width="5" width="43" height="43"/>
		<text transform="matrix(1 0 0 1 35 196.9434)" font-family="sans-serif" font-size="36">A</text>
	</g>
	<g id="varW1" display="inline">
		<rect x="239.5" y="213.498" fill="#FFFFFF" stroke="#000000" stroke-width="6.028" width="62.5" height="43"/>
		<text transform="matrix(1 0 0 1 248 247.998)" font-family="sans-serif" font-size="36">W1</text>
	</g>
	<g id="varW" display="inline">
		<text transform="matrix(1 0 0 1 216.5 247.998)" font-family="sans-serif" font-size="36">-</text>
		<rect x="165" y="213.498" fill="#FFFFFF" stroke="#000000" stroke-width="5" width="43" height="43"/>
		<text transform="matrix(1 0 0 1 169.5 247.998)" font-family="sans-serif" font-size="36">W</text>
	</g>
	<g id="varT" display="inline">
		<rect x="253.5" y="161.945" fill="#FFFFFF" stroke="#000000" stroke-width="5" width="43" height="43"/>
		<text transform="matrix(1 0 0 1 262 196.4453)" font-family="sans-serif" font-size="36">T</text>
	</g>
	<g id="points" display="inline">
		<g>
			<text transform="matrix(1 0 0 1 84.5 288.6279)" font-family="sans-serif" font-size="24">PT 2</text>
			<g>
				<g>
					<line fill="none" stroke="#000000" stroke-width="5" x1="107.5" y1="210.945" x2="107.5" y2="268.5"/>
					<path d="M103.657,202.09c-1.874,6.2-3.598,10.229-5.594,15.202h18.917c-0.846-1.78-3.723-9.002-5.594-15.202
						c-2.005-6.635-3.376-12.652-3.865-16.556C107.031,189.437,105.66,195.455,103.657,202.09z"/>
				</g>
			</g>
		</g>
		<g>
			<text transform="matrix(1 0 0 1 348.5 292.8506)" font-family="sans-serif" font-size="24">PT 1</text>
			<g>
				<g>
					<line fill="none" stroke="#000000" stroke-width="5" x1="375.5" y1="213.945" x2="375.5" y2="271.5"/>
					<path d="M371.656,205.09c-1.873,6.2-3.602,10.229-5.594,15.202h18.916c-0.85-1.78-3.726-9.002-5.598-15.202
						c-2.004-6.635-3.376-12.652-3.865-16.556C375.031,192.437,373.66,198.455,371.656,205.09z"/>
				</g>
			</g>
		</g>
	</g>
</g>
<g id="example" display="none">
	<g id="varAe" display="inline">
		<polygon fill="none" stroke="#000000" stroke-width="5" stroke-linecap="round" stroke-miterlimit="8" points="7.164,156.998 
			7.164,215.074 91.307,215.074 91.307,156.998 		"/>
		
			<line fill="none" stroke="#000000" stroke-width="5" stroke-linecap="round" stroke-miterlimit="8" x1="7.164" y1="156.998" x2="91.307" y2="215.074"/>
		
			<line fill="none" stroke="#000000" stroke-width="5" stroke-linecap="round" stroke-miterlimit="8" x1="7.164" y1="215.074" x2="91.307" y2="156.998"/>
	</g>
	<g display="inline">
		<rect x="226.994" y="161.945" fill="#FFFFFF" width="71.506" height="43"/>
		<text id="varTe" transform="matrix(1 0 0 1 232 192.4453)" font-family="sans-serif" font-size="28">HAN</text>
	</g>
	<text id="varW1e" transform="matrix(1 0 0 1 164.5 241.998)" display="inline" font-family="sans-serif" font-size="18">120300ZOCT08</text>
	<text id="varWe" transform="matrix(1 0 0 1 164.5 223.998)" display="inline" font-family="sans-serif" font-size="18">080400ZOCT08 -</text>
</g>
</svg>
