<?xml version="1.0" encoding="utf-8"?>
<!-- Generator: Adobe Illustrator 16.0.0, SVG Export Plug-In . SVG Version: 6.00 Build 0)  -->
<!DOCTYPE svg PUBLIC "-//W3C//DTD SVG 1.1//EN" "http://www.w3.org/Graphics/SVG/1.1/DTD/svg11.dtd">
<svg version="1.1" id="Version_1.0" xmlns="http://www.w3.org/2000/svg" xmlns:xlink="http://www.w3.org/1999/xlink" x="0px"
	 y="0px" width="400px" height="400px" viewBox="0 0 400 400" enable-background="new 0 0 400 400" xml:space="preserve">
<g id="main">
	<g transform="translate(-120 -100) scale(1.25 1.25)">
		<path fill="none" stroke="#000000" stroke-width="2" d="M207.067,162.933c-130.376,3.942-119.71,162.385-0.889,164"/>
		<line fill="none" stroke="#000000" stroke-width="2" x1="205.334" y1="326.218" x2="205.408" y2="299.473"/>
		<line fill="none" stroke="#000000" stroke-width="2" x1="161.622" y1="316.378" x2="175.622" y2="293.378"/>
		<line fill="none" stroke="#000000" stroke-width="2" x1="123.289" y1="283.378" x2="149.289" y2="269.378"/>
		<line fill="none" stroke="#000000" stroke-width="2" x1="113.733" y1="252.711" x2="144.733" y2="249.711"/>
		<line fill="none" stroke="#000000" stroke-width="2" x1="116.628" y1="222.795" x2="144.628" y2="232.573"/>
		<line fill="none" stroke="#000000" stroke-width="2" x1="148.349" y1="179.316" x2="165.016" y2="205.537"/>
		<line fill="none" stroke="#000000" stroke-width="2" x1="177.4" y1="167.6" x2="186.138" y2="196.528"/>
		<line fill="none" stroke="#000000" stroke-width="2" x1="205.852" y1="163.1" x2="205.852" y2="192.242"/>
		<line fill="none" stroke="#000000" stroke-width="2" x1="182.572" y1="323.76" x2="193.178" y2="296.822"/>
		<line fill="none" stroke="#000000" stroke-width="2" x1="139.622" y1="302.378" x2="158.622" y2="284.378"/>
		<line fill="none" stroke="#000000" stroke-width="2" x1="129.072" y1="198.351" x2="152.628" y2="217.462"/>
		<line fill="none" stroke="#000000" stroke-width="2" x1="212.4" y1="243.6" x2="296.4" y2="243.6"/>
		<line fill="none" stroke="#000000" stroke-width="2" x1="213.428" y1="243.441" x2="234.4" y2="231.6"/>
		<line fill="none" stroke="#000000" stroke-width="2" x1="213.205" y1="243.885" x2="234.4" y2="256.6"/>
		<text transform="matrix(0.8 0 0 0.8 301.3992 248.5992)" font-family="sans-serif" font-size="15">ENY</text>
		<line fill="none" stroke="#000000" stroke-width="2" x1="336.4" y1="243.6" x2="404.4" y2="243.6"/>
	</g>
	<g transform="translate(-179 5) translate(-1 0) translate(-1 0) translate(-1 0) translate(1 0)">
		<rect x="185" y="182" fill="#FFFFFF" stroke="#FFFFFF" width="35" height="35"/>
		<text transform="matrix(1 0 0 1 190.3623 212)" font-family="sans-serif" font-size="35">C</text>
	</g>
</g>
<g id="template" display="none">
	<g display="inline">
		<line fill="none" stroke="#000000" stroke-width="2" x1="150.5" y1="109.5" x2="180.5" y2="125.75"/>
		<polygon stroke="#000000" stroke-width="2" points="145.094,106.045 162.438,105.19 154.375,120.721 		"/>
		<text transform="matrix(1 0 0 1 184.249 133.249)" font-family="sans-serif" font-size="15">PT. 1</text>
	</g>
	<g display="inline">
		<line fill="none" stroke="#000000" stroke-width="2" x1="385.5" y1="218.25" x2="385.5" y2="240.75"/>
		<line fill="none" stroke="#000000" stroke-width="2" x1="385.918" y1="239.721" x2="363" y2="258.25"/>
		<polygon stroke="#000000" stroke-width="2" points="385.5,209.5 393,224.5 378,224.5 		"/>
		<text transform="matrix(1 0 0 1 316.749 265.749)" font-family="sans-serif" font-size="15">PT. 3</text>
	</g>
	<g display="inline">
		<line fill="none" stroke="#000000" stroke-width="2" x1="146.75" y1="302.422" x2="176.75" y2="286.172"/>
		<polygon stroke="#000000" stroke-width="2" points="141.344,305.879 158.688,306.734 150.626,291.201 		"/>
		<text transform="matrix(1 0 0 1 177.999 288.249)" font-family="sans-serif" font-size="15">PT. 2</text>
	</g>
</g>
</svg>
