<?xml version="1.0" encoding="utf-8"?>
<!-- Generator: Adobe Illustrator 16.0.0, SVG Export Plug-In . SVG Version: 6.00 Build 0)  -->
<!DOCTYPE svg PUBLIC "-//W3C//DTD SVG 1.1//EN" "http://www.w3.org/Graphics/SVG/1.1/DTD/svg11.dtd">
<svg version="1.1" id="Version_1.0" xmlns="http://www.w3.org/2000/svg" xmlns:xlink="http://www.w3.org/1999/xlink" x="0px"
	 y="0px" width="400px" height="400px" viewBox="0 0 400 400" enable-background="new 0 0 400 400" xml:space="preserve">
<g id="main">
	
		<line fill="none" stroke="#000000" stroke-width="6.5785" stroke-linejoin="round" stroke-miterlimit="10" x1="215.175" y1="120.699" x2="215.175" y2="140.065"/>
	
		<line fill="none" stroke="#000000" stroke-width="6.5785" stroke-linejoin="round" stroke-miterlimit="10" x1="247.525" y1="120.699" x2="247.525" y2="140.065"/>
	
		<line fill="none" stroke="#000000" stroke-width="6.5785" stroke-linejoin="round" stroke-miterlimit="10" x1="183.787" y1="122.671" x2="183.787" y2="142.037"/>
	
		<line fill="none" stroke="#000000" stroke-width="6.5785" stroke-linejoin="round" stroke-miterlimit="10" x1="153.579" y1="128.583" x2="153.579" y2="147.949"/>
	
		<line fill="none" stroke="#000000" stroke-width="6.5785" stroke-linejoin="round" stroke-miterlimit="10" x1="153.579" y1="292.996" x2="153.579" y2="312.216"/>
	
		<line fill="none" stroke="#000000" stroke-width="6.5785" stroke-linejoin="round" stroke-miterlimit="10" x1="180.579" y1="295.996" x2="180.579" y2="315.216"/>
	
		<line fill="none" stroke="#000000" stroke-width="6.5785" stroke-linejoin="round" stroke-miterlimit="10" x1="278.077" y1="122.671" x2="278.077" y2="142.037"/>
	
		<line fill="none" stroke="#000000" stroke-width="6.5785" stroke-linejoin="round" stroke-miterlimit="10" x1="309.613" y1="130.21" x2="309.613" y2="149.6"/>
	
		<line fill="none" stroke="#000000" stroke-width="6.5785" stroke-linejoin="round" stroke-miterlimit="10" x1="120.711" y1="130.21" x2="120.711" y2="149.6"/>
	
		<line fill="none" stroke="#000000" stroke-width="6.5785" stroke-linejoin="round" stroke-miterlimit="10" x1="86.217" y1="133.363" x2="92.477" y2="151.719"/>
	
		<line fill="none" stroke="#000000" stroke-width="6.5785" stroke-linejoin="round" stroke-miterlimit="10" x1="347.064" y1="175.545" x2="366.281" y2="175.545"/>
	
		<line fill="none" stroke="#000000" stroke-width="6.5785" stroke-linejoin="round" stroke-miterlimit="10" x1="278.077" y1="297.111" x2="278.077" y2="316.648"/>
	
		<line fill="none" stroke="#000000" stroke-width="6.5785" stroke-linejoin="round" stroke-miterlimit="10" x1="122.781" y1="286.146" x2="118.667" y2="305.268"/>
	
		<line fill="none" stroke="#000000" stroke-width="6.5785" stroke-linejoin="round" stroke-miterlimit="10" x1="306.88" y1="293.391" x2="312.35" y2="311.82"/>
	
		<line fill="none" stroke="#000000" stroke-width="6.5785" stroke-linejoin="round" stroke-miterlimit="10" x1="248.018" y1="299.723" x2="248.018" y2="319.286"/>
	
		<line fill="none" stroke="#000000" stroke-width="6.5785" stroke-linejoin="round" stroke-miterlimit="10" x1="344.328" y1="142.924" x2="337.973" y2="161.229"/>
	
		<line fill="none" stroke="#000000" stroke-width="6.5785" stroke-linejoin="round" stroke-miterlimit="10" x1="93.413" y1="274.518" x2="85.281" y2="292.109"/>
	
		<line fill="none" stroke="#000000" stroke-width="6.5785" stroke-linejoin="round" stroke-miterlimit="10" x1="352.978" y1="205.282" x2="372.197" y2="205.282"/>
	
		<line fill="none" stroke="#000000" stroke-width="6.5785" stroke-linejoin="round" stroke-miterlimit="10" x1="350.34" y1="235.169" x2="369.561" y2="235.169"/>
	
		<line fill="none" stroke="#000000" stroke-width="6.5785" stroke-linejoin="round" stroke-miterlimit="10" x1="344.011" y1="261.707" x2="362.095" y2="269.121"/>
	
		<line fill="none" stroke="#000000" stroke-width="6.5785" stroke-linejoin="round" stroke-miterlimit="10" x1="47.264" y1="167.512" x2="65.396" y2="174.388"/>
	
		<line fill="none" stroke="#000000" stroke-width="6.5785" stroke-linejoin="round" stroke-miterlimit="10" x1="41.057" y1="200.675" x2="60.446" y2="200.675"/>
	
		<line fill="none" stroke="#000000" stroke-width="6.5785" stroke-linejoin="round" stroke-miterlimit="10" x1="46.648" y1="230.588" x2="66.013" y2="230.588"/>
	
		<line fill="none" stroke="#000000" stroke-width="6.5785" stroke-linejoin="round" stroke-miterlimit="10" x1="60.446" y1="260.795" x2="79.811" y2="260.795"/>
	
		<line fill="none" stroke="#000000" stroke-width="6.5785" stroke-linejoin="round" stroke-miterlimit="10" x1="329.744" y1="283.266" x2="344.848" y2="295.682"/>
	
		<path fill="none" stroke="#000000" stroke-width="6.5785" stroke-linecap="round" stroke-linejoin="round" stroke-miterlimit="10" d="
		M165.208,146.053c-37.574,3.965-85.914,1.996-96.658,23.9c-10.741,21.876-8.944,87.589,32.229,107.496
		c41.17,19.908,173.628,27.865,214.798,11.949c41.17-15.94,35.825-83.625,32.226-107.523c-3.568-23.873-23.259-29.859-53.686-35.822
		C263.663,140.065,202.805,142.061,165.208,146.053"/>
</g>
<g id="template" display="none">
	<g id="varT" display="inline">
		
			<rect x="187.048" y="185.386" fill="#FFFFFF" stroke="#000000" stroke-width="1.7378" stroke-linecap="round" stroke-miterlimit="8" width="52.452" height="48.202"/>
		<text transform="matrix(1 0 0 1 202.4883 223.8535)" font-family="sans-serif" font-size="36">T</text>
	</g>
	<g id="varB" display="inline">
		
			<rect x="190.5" y="276.266" fill="#FFFFFF" stroke="#000000" stroke-width="1.7378" stroke-linecap="round" stroke-miterlimit="8" width="49" height="42.234"/>
		<text transform="matrix(1 0 0 1 202.5508 309.8535)" font-family="sans-serif" font-size="36">B</text>
	</g>
</g>
<g id="example" display="none">
	
		<polygon display="inline" fill-rule="evenodd" clip-rule="evenodd" fill="#FF8080" stroke="#808080" stroke-width="3" stroke-miterlimit="10" points="
		202.869,32.91 155.617,72.507 202.869,112.104 250.123,72.507 202.869,32.91 	"/>
	<rect x="191.527" y="279.5" display="inline" fill="#FFFFFF" width="43.973" height="44"/>
	<text id="varBe" transform="matrix(1 0 0 1 209.5547 307.8535)" display="inline" font-family="sans-serif" font-size="36">I</text>
	<text id="varTe" transform="matrix(1 0 0 1 171.4985 223.8535)" display="inline" font-family="sans-serif" font-size="36">TWO</text>
</g>
</svg>
