<?xml version="1.0" encoding="utf-8"?>
<!-- Generator: Adobe Illustrator 16.0.0, SVG Export Plug-In . SVG Version: 6.00 Build 0)  -->
<!DOCTYPE svg PUBLIC "-//W3C//DTD SVG 1.1//EN" "http://www.w3.org/Graphics/SVG/1.1/DTD/svg11.dtd">
<svg version="1.1" id="Version_1.0" xmlns="http://www.w3.org/2000/svg" xmlns:xlink="http://www.w3.org/1999/xlink" x="0px"
	 y="0px" width="400px" height="400px" viewBox="0 0 400 400" enable-background="new 0 0 400 400" xml:space="preserve">
<g id="main">
	
		<path id="red" fill="none" stroke="#FF0000" stroke-width="7" stroke-linecap="round" stroke-linejoin="round" stroke-miterlimit="10" d="
		M156.972,115.492c-42.024,4.464-96.079,2.243-108.09,26.702c-12.01,24.46-9.997,97.839,36.03,120.08
		c46.028,22.236,194.148,31.146,240.177,13.353c46.027-17.794,40.034-93.396,36.03-120.099
		c-4.003-26.681-26.032-33.347-60.051-40.032C267.052,108.827,198.997,111.048,156.972,115.492"/>
	
		<path id="black" fill="none" stroke="#000000" stroke-width="7" stroke-linecap="round" stroke-linejoin="round" stroke-miterlimit="10" d="
		M156.972,115.492c-42.024,4.464-96.079,2.243-108.09,26.702c-12.01,24.46-9.997,97.839,36.03,120.08
		c46.028,22.236,194.148,31.146,240.177,13.353c46.027-17.794,40.034-93.396,36.03-120.099
		c-4.003-26.681-26.032-33.347-60.051-40.032C267.052,108.827,198.997,111.048,156.972,115.492"/>
</g>
<g id="template" display="none">
	<g id="varN_1_" display="inline">
		
			<rect x="331.101" y="173.08" fill="#FFFFFF" stroke="#000000" stroke-width="2.096" stroke-linecap="round" stroke-miterlimit="8" width="53.388" height="50.031"/>
		<text transform="matrix(1 0 0 1 345.4844 209.9023)" font-family="sans-serif" font-size="36">N</text>
	</g>
	<g id="varN" display="inline">
		
			<rect x="16.59" y="173.08" fill="#FFFFFF" stroke="#000000" stroke-width="2.096" stroke-linecap="round" stroke-miterlimit="8" width="53.384" height="50.031"/>
		<text transform="matrix(1 0 0 1 29.9814 210.9023)" font-family="sans-serif" font-size="36">N</text>
	</g>
</g>
<g id="example" display="none">
	<g display="inline">
		<rect x="331.101" y="173.08" fill="#FFFFFF" width="53.388" height="50.031"/>
		<text id="varNe" transform="matrix(1 0 0 1 322.4727 209.9023)" font-family="sans-serif" font-size="36">ENY</text>
	</g>
	<g display="inline">
		<rect x="16.59" y="173.08" fill="#FFFFFF" width="53.384" height="50.031"/>
		<text id="varNe_2_" transform="matrix(1 0 0 1 5.9697 210.9023)" font-family="sans-serif" font-size="36">ENY</text>
	</g>
</g>
</svg>
