<?xml version="1.0" encoding="utf-8"?>
<!-- Generator: Adobe Illustrator 16.0.0, SVG Export Plug-In . SVG Version: 6.00 Build 0)  -->
<!DOCTYPE svg PUBLIC "-//W3C//DTD SVG 1.1//EN" "http://www.w3.org/Graphics/SVG/1.1/DTD/svg11.dtd">
<svg version="1.1" id="Version_1.0" xmlns="http://www.w3.org/2000/svg" xmlns:xlink="http://www.w3.org/1999/xlink" x="0px"
	 y="0px" width="400px" height="400px" viewBox="0 0 400 400" enable-background="new 0 0 400 400" xml:space="preserve">
<g id="main">
	<g>
		<g>
			<path fill="none" stroke="#000000" stroke-width="5" stroke-linecap="round" stroke-linejoin="round" d="M156.972,115.492
				c-4.055,0.431-8.222,0.799-12.453,1.135"/>
			
				<path fill="none" stroke="#000000" stroke-width="5" stroke-linecap="round" stroke-linejoin="round" stroke-dasharray="24.8878,19.9103" d="
				M124.658,118.064c-33.709,2.409-66.713,5.673-75.776,24.13c-12.01,24.46-9.997,97.839,36.03,120.08
				c46.028,22.236,194.148,31.146,240.177,13.354c46.027-17.794,40.034-93.396,36.03-120.099
				c-4.003-26.681-26.032-33.347-60.051-40.032c-28.473-5.582-80.793-4.936-121.734-1.971"/>
			<path fill="none" stroke="#000000" stroke-width="5" stroke-linecap="round" stroke-linejoin="round" d="M169.414,114.308
				c-4.343,0.372-8.506,0.769-12.442,1.185"/>
		</g>
	</g>
	<text id="static" transform="matrix(1 0 0 1 134.0757 171.5234)" font-family="sans-serif" font-size="40">AA </text>
</g>
<g id="template" transform="translate(150 118)" display="none">
	
		<rect x="63.277" y="16.752" display="inline" fill="none" stroke="#000000" stroke-width="2.6622" stroke-linecap="round" stroke-miterlimit="8" width="44.223" height="43.748"/>
	<text transform="matrix(1 0 0 1 73.5918 53.5234)" display="inline" font-family="sans-serif" font-size="40">T</text>
</g>
<g id="example" display="none">
	<text id="varTe" transform="matrix(1 0 0 1 125.7427 181)" display="inline" font-family="sans-serif" font-size="40">AA BLUE</text>
	<g display="inline">
		<polygon fill="none" stroke="#808080" stroke-width="5" stroke-linecap="round" stroke-miterlimit="8" points="182.051,207.727 
			182.051,239.439 238.514,239.439 238.514,207.727 		"/>
		
			<line fill="none" stroke="#808080" stroke-width="5" stroke-linejoin="round" stroke-miterlimit="8" x1="182.051" y1="239.439" x2="238.514" y2="207.727"/>
		
			<line fill="none" stroke="#808080" stroke-width="5" stroke-linejoin="round" stroke-miterlimit="8" x1="238.398" y1="239.439" x2="181.937" y2="207.727"/>
		
			<line fill="none" stroke="#808080" stroke-width="5" stroke-linejoin="round" stroke-miterlimit="8" x1="205.395" y1="199.798" x2="205.512" y2="207.727"/>
		
			<line fill="none" stroke="#808080" stroke-width="5" stroke-linejoin="round" stroke-miterlimit="8" x1="214.939" y1="199.798" x2="215.055" y2="207.727"/>
	</g>
</g>
</svg>
