<?xml version="1.0" encoding="utf-8"?>
<!-- Generator: Adobe Illustrator 16.0.0, SVG Export Plug-In . SVG Version: 6.00 Build 0)  -->
<!DOCTYPE svg PUBLIC "-//W3C//DTD SVG 1.1//EN" "http://www.w3.org/Graphics/SVG/1.1/DTD/svg11.dtd">
<svg version="1.1" id="Version_1.0" xmlns="http://www.w3.org/2000/svg" xmlns:xlink="http://www.w3.org/1999/xlink" x="0px"
	 y="0px" width="400px" height="400px" viewBox="0 0 400 400" enable-background="new 0 0 400 400" xml:space="preserve">
<g id="main">
	<path fill="none" stroke="#000000" stroke-width="7" stroke-linecap="round" stroke-linejoin="round" stroke-miterlimit="10" d="
		M153.747,138.651c-42.024,4.464-96.079,2.243-108.09,26.702c-12.01,24.46-9.997,97.839,36.03,120.08
		c46.028,22.236,194.149,31.146,240.176,13.353s40.035-93.396,36.031-120.099c-4.004-26.681-26.033-33.347-60.051-40.032
		C263.826,131.986,195.772,134.207,153.747,138.651"/>
</g>
<g id="template" display="none">
	<g id="varT" display="inline">
		
			<rect x="181.048" y="182.386" fill="#FFFFFF" stroke="#000000" stroke-width="1.7378" stroke-linecap="round" stroke-miterlimit="8" width="65.005" height="54.273"/>
		<text transform="matrix(1 0 0 1 202.4883 223.8535)" font-family="sans-serif" font-size="36">T</text>
	</g>
	<g id="varB" display="inline">
		
			<rect x="182.121" y="275.386" fill="#FFFFFF" stroke="#000000" stroke-width="1.7378" stroke-linecap="round" stroke-miterlimit="8" width="65.006" height="54.273"/>
		<text transform="matrix(1 0 0 1 202.5508 316.8535)" font-family="sans-serif" font-size="36">B</text>
	</g>
</g>
<g id="example" display="none">
	
		<polygon display="inline" fill-rule="evenodd" clip-rule="evenodd" fill="#FF8080" stroke="#808080" stroke-width="3" stroke-miterlimit="10" points="
		202.869,32.91 155.617,72.507 202.869,112.104 250.123,72.507 202.869,32.91 	"/>
	<rect x="189.5" y="279.5" display="inline" fill="#FFFFFF" width="49" height="44"/>
	<text id="varBe" transform="matrix(1 0 0 1 204.5547 316.8535)" display="inline" font-family="sans-serif" font-size="36">II</text>
	<text id="varTe" transform="matrix(1 0 0 1 164.4673 223.8535)" display="inline" font-family="sans-serif" font-size="36">XRAY</text>
</g>
</svg>
