<?xml version="1.0" encoding="utf-8"?>
<!-- Generator: Adobe Illustrator 16.0.0, SVG Export Plug-In . SVG Version: 6.00 Build 0)  -->
<!DOCTYPE svg PUBLIC "-//W3C//DTD SVG 1.1//EN" "http://www.w3.org/Graphics/SVG/1.1/DTD/svg11.dtd">
<svg version="1.1" id="Version_1.0" xmlns="http://www.w3.org/2000/svg" xmlns:xlink="http://www.w3.org/1999/xlink" x="0px"
	 y="0px" width="400px" height="400px" viewBox="0 0 400 400" enable-background="new 0 0 400 400" xml:space="preserve">
<g id="main">
	<polygon stroke="#000000" points="241.189,278.354 251.995,296.874 231.23,293.984 	"/>
	<line fill="none" stroke="#000000" stroke-width="2" x1="237.721" y1="287.445" x2="154.728" y2="231.297"/>
	<line fill="none" stroke="#000000" stroke-width="2" x1="154.963" y1="271.007" x2="48" y2="194"/>
	<polygon stroke="#000000" points="245.411,105.526 255.771,90.359 235.716,91.248 	"/>
	<line fill="none" stroke="#000000" stroke-width="2" x1="241.27" y1="98.319" x2="154.602" y2="153.513"/>
	<line fill="none" stroke="#000000" stroke-width="2" x1="154.602" y1="115.388" x2="48" y2="194"/>
	<line fill="none" stroke="#000000" stroke-width="2" x1="154.61" y1="114.319" x2="154.61" y2="154.319"/>
	<line fill="none" stroke="#000000" stroke-width="2" x1="154.562" y1="270.798" x2="154.61" y2="230.318"/>
</g>
<g id="template" display="none">
	<g id="varA" transform="matrix(1.25 0 0 1.25 -53.75 48.75)" display="inline">
		<rect x="71.288" y="105.855" fill="#FFFFFF" stroke="#000000" stroke-width="2" width="22" height="21"/>
		<text transform="matrix(0.8 0 0 0.8 77.2875 120.8547)" font-family="sans-serif" font-size="15">A</text>
	</g>
	<g id="points" display="inline">
		<g>
			<g id="PT._x25_201_x25_20Center_x25_20Point" transform="matrix(1.25 0 0 1.25 -42.5 47.5)">
				<text transform="matrix(0.8 0 0 0.8 57.2875 191.0547)" font-family="sans-serif" font-size="15">PT. 1</text>
				<text transform="matrix(0.8 0 0 0.8 41.2875 202.0547)" font-family="sans-serif" font-size="15">(CENTER</text>
				<text transform="matrix(0.8 0 0 0.8 50.2875 214.0547)" font-family="sans-serif" font-size="15">POINT)</text>
			</g>
			<line fill="none" stroke="#000000" stroke-width="2" x1="49.122" y1="220.116" x2="49.11" y2="270.068"/>
			<polygon stroke="#000000" stroke-width="2" points="49.11,212.568 51.181,218.713 47.181,218.713 			"/>
		</g>
		<g>
			<text transform="matrix(1 0 0 1 347.1094 94.8184)" font-family="sans-serif" font-size="15">PT. 2</text>
			<line fill="none" stroke="#000000" stroke-width="2" x1="274.609" y1="89.819" x2="344.61" y2="89.819"/>
			<g transform="matrix(-2.29614e-016 -1.25 1.25 -2.29614e-016 157.453 123.797) translate(-52.8 2.4)">
				<polygon stroke="#000000" stroke-width="2" points="80.056,84.466 82.677,90.599 77.967,90.599 				"/>
			</g>
		</g>
		<g>
			<text transform="matrix(1 0 0 1 331.3593 304.0684)" font-family="sans-serif" font-size="15">PT. 3</text>
			<line fill="none" stroke="#000000" stroke-width="2" x1="270.109" y1="297.818" x2="330.11" y2="297.818"/>
			<g transform="matrix(-2.29614e-016 -1.25 1.25 -2.29614e-016 -37.5468 680.046) translate(52.8 0.8)">
				<polygon stroke="#000000" stroke-width="2" points="253.011,238.621 255.411,247.074 250.784,247.087 				"/>
			</g>
		</g>
	</g>
</g>
<g id="example" display="none">
	<g id="varAe" display="inline">
		<text transform="matrix(1 0 0 1 35.5 177.5)" stroke="#808080" font-family="sans-serif" font-size="12">I I</text>
		<rect x="16.5" y="181.069" fill="#FFFFFF" stroke="#808080" stroke-width="2" width="46.36" height="26.25"/>
		<line fill="none" stroke="#808080" stroke-width="2" x1="16.5" y1="207.318" x2="62.86" y2="181.069"/>
	</g>
	<line display="inline" fill="none" stroke="#808080" stroke-width="2" x1="16.5" y1="89.395" x2="380" y2="89.395"/>
	<line display="inline" fill="none" stroke="#808080" stroke-width="2" x1="16.5" y1="296.874" x2="380" y2="296.874"/>
	<g display="inline">
		<rect x="318" y="81.758" fill="#FFFFFF" width="28" height="14.484"/>
		<text transform="matrix(1 0 0 1 325.5 91.5)" stroke="#808080" font-family="sans-serif" font-size="12">x x</text>
	</g>
	<g display="inline">
		<rect x="318" y="288.758" fill="#FFFFFF" width="28" height="14.484"/>
		<text transform="matrix(1 0 0 1 325.5 298.5)" stroke="#808080" font-family="sans-serif" font-size="12">x x</text>
	</g>
</g>
</svg>
