<?xml version="1.0" encoding="utf-8"?>
<!-- Generator: Adobe Illustrator 16.0.0, SVG Export Plug-In . SVG Version: 6.00 Build 0)  -->
<!DOCTYPE svg PUBLIC "-//W3C//DTD SVG 1.1//EN" "http://www.w3.org/Graphics/SVG/1.1/DTD/svg11.dtd">
<svg version="1.1" id="Version_1.0" xmlns="http://www.w3.org/2000/svg" xmlns:xlink="http://www.w3.org/1999/xlink" x="0px"
	 y="0px" width="400px" height="400px" viewBox="0 0 400 400" enable-background="new 0 0 400 400" xml:space="preserve">
<g id="main">
	<text id="varTe_1_" transform="matrix(1 0 0 1 193.4727 223.8535)" font-family="sans-serif" font-size="36"> </text>
	<text transform="matrix(1 0 0 1 133.709 224.3467)" font-family="sans-serif" font-size="36">(P)</text>
	
		<path fill="none" stroke="#000000" stroke-width="7" stroke-linecap="round" stroke-linejoin="round" stroke-miterlimit="10" stroke-dasharray="25,20" d="
		M153.972,139.492c-42.024,4.464-96.079,2.243-108.09,26.702c-12.01,24.46-9.997,97.839,36.03,120.08
		c46.028,22.236,194.148,31.146,240.177,13.354c46.027-17.794,40.034-93.396,36.03-120.099
		c-4.003-26.681-26.032-33.347-60.051-40.032C264.052,132.827,195.997,135.048,153.972,139.492"/>
</g>
<g id="template" display="none">
	<g id="varT" display="inline">
		
			<rect x="189.048" y="184.386" fill="#FFFFFF" stroke="#000000" stroke-width="1.7378" stroke-linecap="round" stroke-miterlimit="8" width="50.452" height="48.114"/>
		<text transform="matrix(1 0 0 1 202.4883 223.8535)" font-family="sans-serif" font-size="36">T</text>
	</g>
	<g id="varB" display="inline">
		
			<rect x="181" y="282.5" fill="#FFFFFF" stroke="#000000" stroke-width="1.7378" stroke-linecap="round" stroke-miterlimit="8" width="47.127" height="47.159"/>
		<text transform="matrix(1 0 0 1 191.5508 316.8535)" font-family="sans-serif" font-size="36">B</text>
	</g>
</g>
<g id="example" display="none">
	<polygon display="inline" fill="#FF8080" stroke="#808080" stroke-width="3" stroke-miterlimit="10" points="202.869,32.91 
		155.617,72.507 202.869,112.104 250.123,72.507 	"/>
	<rect x="184.5" y="281.5" display="inline" fill="#FFFFFF" width="49" height="44"/>
	<text id="varBe" transform="matrix(1 0 0 1 198.5537 316.8535)" display="inline" font-family="sans-serif" font-size="36">I</text>
	<text id="varTe" transform="matrix(1 0 0 1 122.4727 223.8535)" display="inline" font-family="sans-serif" font-size="36">(P) MARS</text>
</g>
</svg>
