<?xml version="1.0" encoding="utf-8"?>
<!-- Generator: Adobe Illustrator 16.0.0, SVG Export Plug-In . SVG Version: 6.00 Build 0)  -->
<!DOCTYPE svg PUBLIC "-//W3C//DTD SVG 1.1//EN" "http://www.w3.org/Graphics/SVG/1.1/DTD/svg11.dtd">
<svg version="1.1" id="Version_1.0" xmlns="http://www.w3.org/2000/svg" xmlns:xlink="http://www.w3.org/1999/xlink" x="0px"
	 y="0px" width="400px" height="400px" viewBox="0 0 400 400" enable-background="new 0 0 400 400" xml:space="preserve">
<g id="main" transform="translate(-110 -160) scale(1.5 1.5)">
	<path fill="none" stroke="#000000" stroke-width="5" d="M136.84,142.272c22.017,0,156.237,10.899,167.535,20.942
		c23.488,20.878,13.448,134.327-12.216,153.574c-29.219,21.913-47.664-17.434-75.041-7.853
		c-26.019,9.108-27.049,34.031-63.698,35.775c-66.254,3.158-47.182-77.352-48.864-116.053c-0.883-20.307-4.845-54.097,5.236-72.424
		c5.598-10.178,16.714-13.639,27.049-14.107"/>
</g>
<g id="example" display="none">
	<g id="redone" display="inline">
		<g>
			<g>
				
					<ellipse transform="matrix(0.9971 -0.0757 0.0757 0.9971 -8.4173 13.599)" fill="none" stroke="#808080" stroke-width="5" stroke-dasharray="11.8533,5.9267" cx="175.137" cy="117.809" rx="14.5" ry="29.5"/>
			</g>
			
				<text transform="matrix(0.055 1.0002 -0.9985 0.0549 193.0068 108.6465)" fill="#808080" font-family="sans-serif" font-size="18">X</text>
			<text transform="matrix(0.055 1.0002 -0.9985 0.0549 167.2217 99.6465)" fill="#808080" font-family="sans-serif" font-size="18">ENY</text>
		</g>
		<g>
			<g>
				
					<ellipse transform="matrix(0.9971 -0.0757 0.0757 0.9971 -26.0278 16.2359)" fill="none" stroke="#808080" stroke-width="5" stroke-dasharray="11.8533,5.9267" cx="201.163" cy="351.465" rx="14.501" ry="29.501"/>
			</g>
			
				<text transform="matrix(0.055 1.0002 -0.9985 0.0549 219.0332 342.3028)" fill="#808080" font-family="sans-serif" font-size="18">X</text>
			<text transform="matrix(0.055 1.0002 -0.9985 0.0549 193.248 333.3028)" fill="#808080" font-family="sans-serif" font-size="18">ENY</text>
		</g>
		<g>
			<g>
				
					<ellipse transform="matrix(0.9971 -0.0757 0.0757 0.9971 -21.5987 15.5891)" fill="none" stroke="#808080" stroke-width="5" stroke-dasharray="11.8533,5.9267" cx="194.758" cy="292.593" rx="14.501" ry="29.5"/>
			</g>
			
				<text transform="matrix(0.055 1.0002 -0.9985 0.0549 212.6279 283.4307)" fill="#808080" font-family="sans-serif" font-size="18">X</text>
			
				<text transform="matrix(0.055 1.0002 -0.9985 0.0549 186.8428 274.4307)" fill="#808080" font-family="sans-serif" font-size="18">ENY</text>
		</g>
		<g>
			<g>
				
					<ellipse transform="matrix(0.9971 -0.0757 0.0757 0.9971 -17.0696 14.9097)" fill="none" stroke="#808080" stroke-width="5" stroke-dasharray="11.8533,5.9267" cx="188.15" cy="232.633" rx="14.501" ry="29.501"/>
			</g>
			
				<text transform="matrix(0.055 1.0002 -0.9985 0.0549 206.0205 223.4708)" fill="#808080" font-family="sans-serif" font-size="18">X</text>
			
				<text transform="matrix(0.055 1.0002 -0.9985 0.0549 180.2354 214.4708)" fill="#808080" font-family="sans-serif" font-size="18">ENY</text>
		</g>
		<g>
			<g>
				
					<ellipse transform="matrix(0.9971 -0.0757 0.0757 0.9971 -12.672 14.2608)" fill="none" stroke="#808080" stroke-width="5" stroke-dasharray="11.8533,5.9267" cx="181.744" cy="174.257" rx="14.501" ry="29.501"/>
			</g>
			
				<text transform="matrix(0.055 1.0002 -0.9985 0.0549 199.6143 165.0948)" fill="#808080" font-family="sans-serif" font-size="18">X</text>
			
				<text transform="matrix(0.055 1.0002 -0.9985 0.0549 173.8291 156.0948)" fill="#808080" font-family="sans-serif" font-size="18">ENY</text>
		</g>
		<g>
			<g>
				
					<ellipse transform="matrix(0.9971 -0.0757 0.0757 0.9971 -3.776 12.9368)" fill="none" stroke="#808080" stroke-width="5" stroke-dasharray="11.8533,5.9267" cx="168.731" cy="56.268" rx="14.501" ry="29.501"/>
			</g>
			<text transform="matrix(0.055 1.0002 -0.9985 0.0549 186.6006 47.1065)" fill="#808080" font-family="sans-serif" font-size="18">X</text>
			<text transform="matrix(0.055 1.0002 -0.9985 0.0549 160.8154 38.1065)" fill="#808080" font-family="sans-serif" font-size="18">ENY</text>
		</g>
	</g>
	<g display="inline">
		<text transform="matrix(1.0017 0 0 1 25.6836 45.296)" fill="#808080" font-family="sans-serif" font-size="20">XX</text>
		<text transform="matrix(1.0017 0 0 1 360.3281 45.296)" fill="#808080" font-family="sans-serif" font-size="20">XX</text>
		
			<line fill="none" stroke="#808080" stroke-width="5" stroke-linejoin="round" stroke-miterlimit="8" x1="58.722" y1="39.421" x2="353.491" y2="39.552"/>
	</g>
	<g display="inline">
		<text transform="matrix(1.0017 0 0 1 24.6846 372.3985)" fill="#808080" font-family="sans-serif" font-size="20">XX</text>
		<text transform="matrix(1.0017 0 0 1 359.3301 372.3985)" fill="#808080" font-family="sans-serif" font-size="20">XX</text>
		
			<line fill="none" stroke="#808080" stroke-width="5" stroke-linejoin="round" stroke-miterlimit="8" x1="57.723" y1="366.523" x2="352.492" y2="366.654"/>
	</g>
</g>
</svg>
