<?xml version="1.0" encoding="utf-8"?>
<!-- Generator: Adobe Illustrator 16.0.0, SVG Export Plug-In . SVG Version: 6.00 Build 0)  -->
<!DOCTYPE svg PUBLIC "-//W3C//DTD SVG 1.1//EN" "http://www.w3.org/Graphics/SVG/1.1/DTD/svg11.dtd">
<svg version="1.1" id="Version_1.0" xmlns="http://www.w3.org/2000/svg" xmlns:xlink="http://www.w3.org/1999/xlink" x="0px"
	 y="0px" width="400px" height="400px" viewBox="0 0 400 400" enable-background="new 0 0 400 400" xml:space="preserve">
<g id="main">
	<path fill="none" stroke="#000000" stroke-width="5" stroke-linecap="round" stroke-linejoin="round" stroke-miterlimit="10" d="
		M156.972,115.492c-42.024,4.464-96.079,2.243-108.09,26.702c-12.01,24.46-9.997,97.839,36.03,120.08
		c46.028,22.236,194.148,31.146,240.177,13.354c46.027-17.794,40.034-93.396,36.03-120.099
		c-4.003-26.681-26.032-33.347-60.051-40.032C267.052,108.827,198.997,111.048,156.972,115.492"/>
	<text id="static" transform="matrix(1 0 0 1 120.0757 178.5234)" font-family="sans-serif" font-size="40">ATK </text>
</g>
<g id="template" transform="translate(150 118)" display="none">
	
		<rect x="76.277" y="25.752" display="inline" fill="none" stroke="#000000" stroke-width="2.6622" stroke-linecap="round" stroke-miterlimit="8" width="44.223" height="43.748"/>
	<text transform="matrix(1 0 0 1 86.5918 62.5234)" display="inline" font-family="sans-serif" font-size="40">T</text>
	<g id="varA" display="inline">
		<g>
			
				<rect x="38.703" y="98.083" fill="none" stroke="#000000" stroke-width="1.0398" stroke-linecap="round" stroke-miterlimit="8" width="37.797" height="33.417"/>
			<text transform="matrix(1 0 0 1 46.7861 128.9678)" font-family="sans-serif" font-size="36">A</text>
		</g>
		
			<rect x="18.5" y="87.5" fill="none" stroke="#000000" stroke-width="1.9278" stroke-linecap="round" stroke-miterlimit="8" width="80" height="54.273"/>
	</g>
</g>
<g id="example" display="none">
	<text id="varTe" transform="matrix(1 0 0 1 77.0659 178.5234)" display="inline" font-family="sans-serif" font-size="40">ATK AMAZON</text>
	<g id="varAe" display="inline">
		<polygon fill="none" stroke="#000000" stroke-width="3" stroke-linecap="round" stroke-miterlimit="8" points="169.407,204.972 
			169.407,259.309 251.045,259.309 251.045,204.972 169.407,204.972 		"/>
		<path fill="none" stroke="#000000" stroke-width="3" stroke-linecap="round" stroke-linejoin="round" stroke-miterlimit="8" d="
			M210.226,218.556c-11.273,0-20.409,6.082-20.409,13.585c0,7.501,9.136,13.584,20.409,13.584c11.271,0,20.409-6.083,20.409-13.584
			C230.635,224.638,221.497,218.556,210.226,218.556L210.226,218.556z"/>
		
			<line fill="none" stroke="#000000" stroke-width="3" stroke-linejoin="round" stroke-miterlimit="8" x1="195.939" y1="241.196" x2="224.513" y2="223.085"/>
		
			<line fill="none" stroke="#000000" stroke-width="3" stroke-linejoin="round" stroke-miterlimit="8" x1="195.939" y1="223.085" x2="224.513" y2="241.196"/>
	</g>
</g>
</svg>
