<?xml version="1.0" encoding="utf-8"?>
<!-- Generator: Adobe Illustrator 16.0.0, SVG Export Plug-In . SVG Version: 6.00 Build 0)  -->
<!DOCTYPE svg PUBLIC "-//W3C//DTD SVG 1.1//EN" "http://www.w3.org/Graphics/SVG/1.1/DTD/svg11.dtd">
<svg version="1.1" id="Version_1.0" xmlns="http://www.w3.org/2000/svg" xmlns:xlink="http://www.w3.org/1999/xlink" x="0px"
	 y="0px" width="400px" height="400px" viewBox="0 0 400 400" enable-background="new 0 0 400 400" xml:space="preserve">
<g id="main">
	<path fill="none" stroke="#000000" stroke-width="5" d="M179,118h30l16.5-23l7.5,26l28,9l26-14.5l-3,25.5l21,18h27.5L317,181v24
		l15.5,22H305l-21,18l1,25.5L261,256l-28,9l-7.5,26L209,268h-30l-16.5,23l-7.5-26l-28-9l-26,14.5l3-25.5l-21-18H55.5L71,205v-24
		l-15.5-22H83l21-18l-3-25.5l26,14.5l28-9l7.5-26L179,118z"/>
	<ellipse fill="#FFFFFF" stroke="#000000" stroke-width="5" cx="194" cy="193" rx="125" ry="75"/>
</g>
<g id="example" display="none">
	<polygon display="inline" fill="none" stroke="#808080" stroke-width="5" stroke-linecap="round" stroke-miterlimit="8" points="
		213.333,176.354 213.333,215.074 279.32,215.074 279.32,176.354 	"/>
	
		<line display="inline" fill="none" stroke="#808080" stroke-width="5" stroke-linejoin="round" stroke-miterlimit="8" x1="213.333" y1="215.074" x2="277.977" y2="176.354"/>
	
		<line display="inline" fill="none" stroke="#808080" stroke-width="5" stroke-linejoin="round" stroke-miterlimit="8" x1="277.977" y1="215.074" x2="213.333" y2="176.354"/>
	
		<line display="inline" fill="none" stroke="#808080" stroke-width="5" stroke-linejoin="round" stroke-miterlimit="8" x1="245.652" y1="162.907" x2="245.652" y2="176.354"/>
	<polygon display="inline" fill="none" stroke="#808080" stroke-width="5" stroke-linecap="round" stroke-miterlimit="8" points="
		116.368,176.354 116.368,215.074 182.358,215.074 182.358,176.354 	"/>
	
		<line display="inline" fill="none" stroke="#808080" stroke-width="5" stroke-linejoin="round" stroke-miterlimit="8" x1="116.368" y1="215.074" x2="181.01" y2="176.354"/>
	
		<line display="inline" fill="none" stroke="#808080" stroke-width="5" stroke-linejoin="round" stroke-miterlimit="8" x1="181.01" y1="215.074" x2="116.368" y2="176.354"/>
	
		<line display="inline" fill="none" stroke="#808080" stroke-width="5" stroke-linejoin="round" stroke-miterlimit="8" x1="148.689" y1="162.907" x2="148.689" y2="176.354"/>
</g>
</svg>
