<?xml version="1.0" encoding="utf-8"?>
<!-- Generator: Adobe Illustrator 16.0.0, SVG Export Plug-In . SVG Version: 6.00 Build 0)  -->
<!DOCTYPE svg PUBLIC "-//W3C//DTD SVG 1.1//EN" "http://www.w3.org/Graphics/SVG/1.1/DTD/svg11.dtd">
<svg version="1.1" id="Version_1.0" xmlns="http://www.w3.org/2000/svg" xmlns:xlink="http://www.w3.org/1999/xlink" x="0px"
	 y="0px" width="400px" height="400px" viewBox="0 0 400 400" enable-background="new 0 0 400 400" xml:space="preserve">
<g id="main">
	<path fill="none" stroke="#000000" stroke-width="5" d="M179,118h30l16.5-23l7.5,26l28,9l26-14.5l-3,25.5l21,18h27.5L317,181v24
		l15.5,22H305l-21,18l1,25.5L261,256l-28,9l-7.5,26L209,268h-30l-16.5,23l-7.5-26l-28-9l-26,14.5l3-25.5l-21-18H55.5L71,205v-24
		l-15.5-22H83l21-18l-3-25.5l26,14.5l28-9l7.5-26L179,118z"/>
	<ellipse fill="#FFFFFF" stroke="#000000" stroke-width="5" cx="194" cy="193" rx="125" ry="75"/>
</g>
<g id="template" display="none">
	<g transform="scale(0.6 0.6) translate(337 134)" display="inline">
		<rect x="165" y="163.334" fill="#FFFFFF" stroke="#000000" stroke-width="5" width="50" height="50"/>
		<text transform="matrix(1.6667 0 0 1.6667 177.0007 201.3336)" font-family="sans-serif" font-size="21.6">N</text>
	</g>
	<g transform="scale(0.6 0.6) translate(-73 134)" display="inline">
		<rect x="165" y="163.334" fill="#FFFFFF" stroke="#000000" stroke-width="5" width="50" height="50"/>
		<text transform="matrix(1.6667 0 0 1.6667 177.0007 201.3336)" font-family="sans-serif" font-size="21.6">N</text>
	</g>
</g>
<g id="example" display="none">
	<g display="inline">
		<polygon fill="none" stroke="#808080" stroke-width="5" stroke-linecap="round" stroke-miterlimit="8" points="191.709,167.185 
			164.743,194.105 191.709,221.025 218.673,194.105 191.709,167.185 		"/>
		
			<line fill="none" stroke="#808080" stroke-width="5" stroke-linejoin="round" stroke-miterlimit="8" x1="178.227" y1="207.565" x2="205.191" y2="180.645"/>
		
			<line fill="none" stroke="#808080" stroke-width="5" stroke-linejoin="round" stroke-miterlimit="8" x1="205.191" y1="207.565" x2="178.227" y2="180.645"/>
		
			<line fill="none" stroke="#808080" stroke-width="5" stroke-linejoin="round" stroke-miterlimit="8" x1="191.709" y1="155.967" x2="191.709" y2="167.185"/>
	</g>
	<g display="inline">
		<g id="varN_3_" transform="scale(0.6 0.6) translate(337 134)">
			<rect x="150.5" y="163.334" fill="#FFFFFF" width="81.667" height="50"/>
			<text transform="matrix(1.6667 0 0 1.6667 154.989 201.3336)" font-family="sans-serif" font-size="21.6">ENY</text>
		</g>
		<g id="varN_2_" transform="scale(0.6 0.6) translate(-73 134)">
			<rect x="150.5" y="163.334" fill="#FFFFFF" width="76.667" height="50"/>
			<text transform="matrix(1.6667 0 0 1.6667 151.6564 201.3336)" font-family="sans-serif" font-size="21.6">ENY</text>
		</g>
	</g>
</g>
</svg>
