<?xml version="1.0" encoding="utf-8"?>
<!-- Generator: Adobe Illustrator 16.0.0, SVG Export Plug-In . SVG Version: 6.00 Build 0)  -->
<!DOCTYPE svg PUBLIC "-//W3C//DTD SVG 1.1//EN" "http://www.w3.org/Graphics/SVG/1.1/DTD/svg11.dtd">
<svg version="1.1" id="Version_1.0" xmlns="http://www.w3.org/2000/svg" xmlns:xlink="http://www.w3.org/1999/xlink" x="0px"
	 y="0px" width="400px" height="400px" viewBox="0 0 400 400" enable-background="new 0 0 400 400" xml:space="preserve">
<g id="main">
	<path fill="none" stroke="#000000" stroke-width="5.0439" stroke-linejoin="round" stroke-miterlimit="10" d="M292.006,111.958
		c-36.895,12.43-73.788,24.86-102.974,53.253c-29.168,28.393-60.055,97.628-72.069,117.145"/>
	<path fill="none" stroke="#000000" stroke-width="5.0439" stroke-linejoin="round" stroke-miterlimit="10" d="M291,154.375
		c-47.171-28.413-95.621-56.641-135.085-42.436c-39.444,14.205-85.783,106.545-102.936,127.855"/>
	<polyline fill="none" stroke="#000000" stroke-width="5.0439" stroke-linejoin="round" stroke-miterlimit="10" points="
		290.25,114.375 289.98,91.555 350.833,138.75 289.738,174.761 289.738,152.5 	"/>
</g>
<g id="template" display="none">
	<g display="inline">
		
			<rect x="75.025" y="237.641" fill="none" stroke="#000000" stroke-width="2.5125" stroke-linecap="round" stroke-miterlimit="8" width="31.983" height="21.045"/>
		
			<rect x="84.848" y="241.797" fill="none" stroke="#000000" stroke-width="1.8891" stroke-linecap="round" stroke-miterlimit="8" width="12.846" height="12.844"/>
		<text transform="matrix(1 0 0 1 87.1465 252.4541)" font-family="sans-serif" font-size="11.4857">A</text>
	</g>
	<g display="inline">
		<text transform="matrix(1 0 0 1 171.4668 141.6748)" font-family="serif" font-size="21.4601">-</text>
		
			<rect x="142.333" y="123.547" fill="none" stroke="#000000" stroke-width="1.5065" stroke-linecap="round" stroke-miterlimit="8" width="26.391" height="27.77"/>
		<text transform="matrix(1 0 0 1 144.5762 145.6943)" font-family="sans-serif" font-size="20.2511">W</text>
	</g>
	<g display="inline">
		
			<rect x="120.477" y="152.432" fill="none" stroke="#000000" stroke-width="1.6793" stroke-linecap="round" stroke-miterlimit="8" width="39.217" height="30.068"/>
		<text transform="matrix(1 0 0 1 125.0527 174.1318)" font-family="sans-serif" font-size="20.2511">W</text>
		<text transform="matrix(1 0 0 1 143.8027 174.1318)" font-family="sans-serif" font-size="20.2511">1</text>
		<text transform="matrix(1 0 0 1 155.2065 174.1318)" font-family="sans-serif" font-size="20.2511"> </text>
	</g>
	<g display="inline">
		
			<rect x="98.873" y="194.235" fill="none" stroke="#000000" stroke-width="1.8891" stroke-linecap="round" stroke-miterlimit="8" width="25.446" height="25.578"/>
		<text transform="matrix(1 0 0 1 106.7334 212.5869)" font-family="sans-serif" font-size="16.3218">T</text>
	</g>
	<g id="points" display="inline">
		<g>
			<g>
				
					<line fill="none" stroke="#000000" stroke-width="3" stroke-linejoin="bevel" stroke-miterlimit="10" x1="192.5" y1="228.458" x2="192.5" y2="146.313"/>
				<polygon points="198.956,150.771 192.421,126.379 185.884,150.771 				"/>
			</g>
			<text transform="matrix(1 0 0 1 172.3711 249.4033)" font-family="sans-serif" font-size="21.4601">PT</text>
			<text transform="matrix(1 0 0 1 199.5791 249.4033)" font-family="sans-serif" font-size="21.4601"> </text>
			<text transform="matrix(1 0 0 1 205.6055 249.4033)" font-family="sans-serif" font-size="21.4601">2</text>
			<text transform="matrix(1 0 0 1 217.6895 249.4033)" font-family="sans-serif" font-size="21.4601">  </text>
			<text transform="matrix(1 0 0 1 229.7441 249.4033)" font-family="sans-serif" font-size="21.4601"> </text>
			<text transform="matrix(1 0 0 1 235.4922 249.4033)" font-family="sans-serif" font-size="21.4601"> </text>
		</g>
		<g>
			<g>
				
					<line fill="none" stroke="#000000" stroke-width="3" stroke-linejoin="bevel" stroke-miterlimit="10" x1="128.5" y1="306" x2="128.5" y2="206.566"/>
				<polygon points="134.956,211.023 128.421,186.633 121.884,211.023 				"/>
			</g>
			<text transform="matrix(1 0 0 1 108.5957 327.6836)" font-family="sans-serif" font-size="21.4601">PT</text>
			<text transform="matrix(1 0 0 1 135.8037 327.6836)" font-family="sans-serif" font-size="21.4601"> </text>
			<text transform="matrix(1 0 0 1 141.8296 327.6836)" font-family="sans-serif" font-size="21.4601">3</text>
			<text transform="matrix(1 0 0 1 153.9155 327.6836)" font-family="sans-serif" font-size="21.4601"> </text>
			<text transform="matrix(1 0 0 1 159.9429 327.6836)" font-family="sans-serif" font-size="21.4601"> </text>
		</g>
		<g>
			<g>
				
					<line fill="none" stroke="#000000" stroke-width="3" stroke-linejoin="bevel" stroke-miterlimit="10" x1="353.5" y1="201.658" x2="353.5" y2="160.586"/>
				<polygon points="359.955,165.044 353.421,140.652 346.884,165.044 				"/>
			</g>
			<text transform="matrix(1 0 0 1 320.5117 220.3789)" font-family="sans-serif" font-size="21.4601">PT</text>
			<text transform="matrix(1 0 0 1 347.7197 220.3789)" font-family="sans-serif" font-size="21.4601"> </text>
			<text transform="matrix(1 0 0 1 353.7461 220.3789)" font-family="sans-serif" font-size="21.4601">1</text>
		</g>
		<g>
			<g>
				<polyline fill="none" stroke="#000000" stroke-width="3" stroke-linejoin="bevel" stroke-miterlimit="10" points="54.012,320.5 
					54.012,285.465 65.012,276.122 				"/>
				<polygon points="65.793,283.93 80.154,263.157 57.332,273.966 				"/>
			</g>
			<text transform="matrix(1 0 0 1 23.3496 344.0146)" font-family="sans-serif" font-size="21.4601">PT</text>
			<text transform="matrix(1 0 0 1 50.5576 344.0146)" font-family="sans-serif" font-size="21.4601"> </text>
			<text transform="matrix(1 0 0 1 56.5835 344.0146)" font-family="sans-serif" font-size="21.4601">N-1</text>
		</g>
		<g>
			<g>
				
					<line fill="none" stroke="#000000" stroke-width="3" stroke-linecap="round" stroke-linejoin="round" stroke-miterlimit="10" x1="236.175" y1="67" x2="266.157" y2="81.528"/>
				<polygon points="259.33,85.394 284.13,90.149 265.029,73.63 				"/>
			</g>
			<text transform="matrix(1 0 0 1 181.4434 74.1113)" font-family="sans-serif" font-size="21.4601">PT</text>
			<text transform="matrix(1 0 0 1 208.6514 74.1113)" font-family="sans-serif" font-size="21.4601"> </text>
			<text transform="matrix(1 0 0 1 214.6777 74.1113)" font-family="sans-serif" font-size="21.4601">N</text>
			<text transform="matrix(1 0 0 1 230.1113 74.1113)" font-family="sans-serif" font-size="21.4601"> </text>
			<text transform="matrix(1 0 0 1 236.1367 74.1113)" font-family="sans-serif" font-size="21.4601"> </text>
		</g>
	</g>
</g>
<g id="example" display="none">
	<text id="varWe" transform="matrix(1 0 0 1 120.5762 151.6943)" display="inline" font-family="sans-serif" font-size="10">080400ZOCT08 -</text>
	<text id="warW1e" transform="matrix(1 0 0 1 109.0527 165.7607)" display="inline" font-family="sans-serif" font-size="10">120300ZOCT08</text>
	<text id="varTe" transform="matrix(1 0 0 1 87.4526 209.5869)" display="inline" font-family="sans-serif" font-size="16.3218">SWORD</text>
	<g id="varAe" display="inline">
		<polygon fill="none" stroke="#000000" stroke-width="2" stroke-linecap="round" stroke-miterlimit="8" points="75.394,240.187 
			75.394,264.669 109.528,264.669 109.528,240.187 75.394,240.187 		"/>
		
			<line fill="none" stroke="#000000" stroke-width="2" stroke-linejoin="round" stroke-miterlimit="8" x1="75.394" y1="240.187" x2="109.528" y2="264.998"/>
		
			<line fill="none" stroke="#000000" stroke-width="2" stroke-linejoin="round" stroke-miterlimit="8" x1="75.394" y1="264.669" x2="109.528" y2="240.187"/>
		<path fill="none" stroke="#000000" stroke-width="2" stroke-linejoin="round" stroke-miterlimit="8" d="M85.114,262.132
			c4.958-3.603,3.306-4.632,5.667-0.772c1.417-0.513,2.596-2.83,4.251-2.313c0.708,0.256,0.235,1.541,0.708,2.313
			c0.235,0.515,0.945,0.515,1.417,0.772"/>
	</g>
</g>
<g id="example2" display="none">
	<text id="varWe_1_" transform="matrix(1 0 0 1 120.5762 151.6943)" display="inline" font-family="sans-serif" font-size="10">080400ZOCT08 -</text>
	<text id="warW1e_1_" transform="matrix(1 0 0 1 109.0527 165.7607)" display="inline" font-family="sans-serif" font-size="10">120300ZOCT08</text>
	<text id="varTe_1_" transform="matrix(1 0 0 1 93.3462 209.5869)" display="inline" font-family="sans-serif" font-size="16.3218">SNOW</text>
	<g id="varAe2" display="inline">
		<polygon fill="none" stroke="#000000" stroke-width="2" stroke-linecap="round" stroke-miterlimit="8" points="73.557,240.142 
			73.557,265.043 111.364,265.043 111.364,240.142 73.557,240.142 		"/>
		<polygon fill-rule="evenodd" clip-rule="evenodd" points="92.592,252.462 102.438,258.491 102.438,246.433 92.592,252.462 		"/>
		<polygon fill-rule="evenodd" clip-rule="evenodd" points="92.592,252.462 82.746,258.491 82.746,246.433 92.592,252.462 		"/>
	</g>
</g>
</svg>
