<?xml version="1.0" encoding="utf-8"?>
<!-- Generator: Adobe Illustrator 16.0.0, SVG Export Plug-In . SVG Version: 6.00 Build 0)  -->
<!DOCTYPE svg PUBLIC "-//W3C//DTD SVG 1.1//EN" "http://www.w3.org/Graphics/SVG/1.1/DTD/svg11.dtd">
<svg version="1.1" id="Version_1.0" xmlns="http://www.w3.org/2000/svg" xmlns:xlink="http://www.w3.org/1999/xlink" x="0px"
	 y="0px" width="612px" height="792px" viewBox="0 0 612 792" enable-background="new 0 0 612 792" xml:space="preserve">
<g id="main">
	
		<rect x="241.274" y="138.111" fill="none" stroke="#000000" stroke-width="4" stroke-linecap="round" stroke-miterlimit="8" width="128.229" height="170.972"/>
	<text id="static" transform="matrix(1 0 0 1 277.9551 188.9756)" font-family="'ArialMT'" font-size="34">PD</text>
	<polygon fill="none" stroke="#000000" stroke-width="4" stroke-linecap="round" stroke-miterlimit="8" points="305.388,395.763 
		241.274,310.277 369.502,310.277 	"/>
</g>
<g id="template" display="none">
	<g id="T" display="inline">
		
			<rect x="369.652" y="137.628" fill="none" stroke="#000000" stroke-width="4" stroke-linecap="round" stroke-miterlimit="8" width="56.635" height="53.179"/>
		<text id="varT" transform="matrix(1 0 0 1 387.8418 169.7363)" font-family="'ArialMT'" font-size="24">T</text>
	</g>
	<g id="points" display="inline">
		<path stroke="#000000" stroke-width="4" stroke-linejoin="bevel" stroke-miterlimit="10" d="M369.502,396.707h-35.619
			c-0.658,0-1.19-0.517-1.19-1.176c0-0.658,0.532-1.192,1.19-1.192h35.619c0.66,0,1.193,0.534,1.193,1.192
			C370.695,396.19,370.162,396.707,369.502,396.707L369.502,396.707z M336.254,402.655l-23.742-7.124l23.742-7.124V402.655z"/>
		<g>
			<text transform="matrix(1 0 0 1 376.0234 419.4043)" font-family="'ArialMT'" font-size="23.6512">POINT</text>
			<text transform="matrix(1 0 0 1 376.0234 391.7627)" font-family="'ArialMT'" font-size="23.6512">ANCHOR</text>
		</g>
	</g>
</g>
<g id="example" display="none">
	<g display="inline">
		<g>
			
				<line fill="none" stroke="#808080" stroke-width="5" stroke-linejoin="round" stroke-miterlimit="8" x1="443.016" y1="414.304" x2="443.016" y2="550.2"/>
			<polygon fill="#FFFFFF" points="420.369,471.921 466.219,471.921 466.219,492.276 420.369,492.276 			"/>
			<text transform="matrix(0.8689 0 0 1 424.6484 487.2432)" fill="#808080" font-family="'ArialMT'" font-size="14.2687">3  X  1</text>
		</g>
		<g>
			
				<line fill="none" stroke="#808080" stroke-width="5" stroke-linejoin="round" stroke-miterlimit="8" x1="284.019" y1="414.304" x2="284.019" y2="550.2"/>
			<polygon fill="#FFFFFF" points="256.125,471.921 304.518,471.921 304.518,490.177 256.125,490.177 			"/>
			<text transform="matrix(0.8689 0 0 1 262.9575 487.2432)" fill="#808080" font-family="'ArialMT'" font-size="14.2687">2  X  3</text>
		</g>
		<text transform="matrix(0.8689 0 0 1 225.1987 457.9209)" fill="#7F7F7F" font-family="'ArialMT'" font-size="14">PL WOOL</text>
		<text transform="matrix(0.8689 0 0 1 447.0293 457.9209)" fill="#7F7F7F" font-family="'ArialMT'" font-size="14">PL WOOL</text>
	</g>
	<g display="inline">
		<path fill="none" stroke="#808080" stroke-width="5" stroke-linejoin="round" stroke-miterlimit="8" d="M282.818,452.88
			c17.143,4.237,47.352,1.322,55.748-1.838c10.461,0.432,19.241-0.861,28.67,2.586c6.715-0.287,30.871,1.91,37.563,1.371
			c21.377-1.726,40.394-2.119,37.81-2.119"/>
		<text transform="matrix(1 0 0 1 288.0688 441.8369)" font-family="'ArialMT'" font-size="14">LD</text>
		<text transform="matrix(1 0 0 1 419.2715 441.8369)" font-family="'ArialMT'" font-size="14">LD</text>
	</g>
	
		<line display="inline" fill="none" stroke="#808080" stroke-width="5" stroke-miterlimit="8" x1="305.395" y1="395.755" x2="350.273" y2="451.042"/>
	<g display="inline">
		
			<rect x="260.515" y="215.399" fill="none" stroke="#000000" stroke-width="4" stroke-linecap="round" stroke-miterlimit="8" width="89.76" height="119.68"/>
		<text transform="matrix(1 0 0 1 286.1919 251.0059)" font-family="'ArialMT'" font-size="23.8">PD</text>
		<text id="varTe" transform="matrix(1 0 0 1 363.1133 237.5381)" font-family="'ArialMT'" font-size="16.5558">5</text>
		<polygon fill="none" stroke="#000000" stroke-width="4" stroke-linecap="round" stroke-miterlimit="8" points="305.395,395.755 
			260.515,335.916 350.273,335.916 		"/>
	</g>
</g>
</svg>
