<?xml version="1.0" encoding="utf-8"?>
<!-- Generator: Adobe Illustrator 16.0.0, SVG Export Plug-In . SVG Version: 6.00 Build 0)  -->
<!DOCTYPE svg PUBLIC "-//W3C//DTD SVG 1.1//EN" "http://www.w3.org/Graphics/SVG/1.1/DTD/svg11.dtd">
<svg version="1.1" id="Version_1.0" xmlns="http://www.w3.org/2000/svg" xmlns:xlink="http://www.w3.org/1999/xlink" x="0px"
	 y="0px" width="612px" height="792px" viewBox="0 0 612 792" enable-background="new 0 0 612 792" xml:space="preserve">
<g id="main">
	<polygon fill="none" stroke="#000000" stroke-width="5" points="167.747,478.535 307.747,236.035 447.746,478.535 	"/>
</g>
<g id="template" display="none">
	<g id="varA" display="inline">
		
			<rect x="278.144" y="364.618" fill="none" stroke="#000000" stroke-width="2.2354" stroke-linecap="round" stroke-miterlimit="8" width="57.069" height="53.492"/>
		<text transform="matrix(1 0 0 1 288.8018 408.8516)" font-family="sans-serif" font-size="48">A</text>
	</g>
	<g id="points" transform="translate(-135 -150)" display="inline">
		<text transform="matrix(1 0 0 1 573.8438 516.5264)" font-family="sans-serif" font-size="24">CENTER</text>
		<text transform="matrix(1 0 0 1 584.8438 541.5264)" font-family="sans-serif" font-size="24">POINT</text>
		<g>
			<g>
				<line fill="none" stroke="#000000" stroke-width="3" x1="456.747" y1="546.518" x2="615.213" y2="546.518"/>
				<path d="M451.434,548.823c3.721,1.124,6.137,2.159,9.121,3.356v-11.353c-1.068,0.508-5.4,2.231-9.121,3.354
					c-3.98,1.201-7.592,2.024-9.934,2.318C443.842,546.799,447.452,547.621,451.434,548.823z"/>
			</g>
		</g>
	</g>
</g>
</svg>
