<?xml version="1.0" encoding="utf-8"?>
<!-- Generator: Adobe Illustrator 16.0.0, SVG Export Plug-In . SVG Version: 6.00 Build 0)  -->
<!DOCTYPE svg PUBLIC "-//W3C//DTD SVG 1.1//EN" "http://www.w3.org/Graphics/SVG/1.1/DTD/svg11.dtd">
<svg version="1.1" id="Version_1.0" xmlns="http://www.w3.org/2000/svg" xmlns:xlink="http://www.w3.org/1999/xlink" x="0px"
	 y="0px" width="612px" height="792px" viewBox="0 0 612 792" enable-background="new 0 0 612 792" xml:space="preserve">
<g id="main">
	<polygon fill="none" stroke="#000000" stroke-width="5" points="163.436,478.705 303.436,236.205 443.436,478.705 	"/>
	<line fill="none" stroke="#000000" stroke-width="5" x1="373.766" y1="355.298" x2="164.765" y2="478.298"/>
	<g>
		<ellipse stroke="#000000" stroke-width="10" cx="257.165" cy="374.098" rx="12.24" ry="12.24"/>
		<ellipse stroke="#000000" stroke-width="10" cx="352.365" cy="374.098" rx="12.24" ry="12.24"/>
		<path fill="none" stroke="#000000" stroke-width="10" d="M263.965,363.896c40.8,23.802,47.6,37.4,64.6,98.602"/>
		<path fill="none" stroke="#000000" stroke-width="10" d="M345.564,363.896c-40.8,23.802-47.6,37.4-64.6,98.602"/>
	</g>
</g>
<g id="template" transform="translate(-135 -150)" display="none">
	<line display="inline" fill="none" stroke="#000000" stroke-width="3" x1="449.988" y1="546.471" x2="615.264" y2="549.014"/>
	<polygon display="inline" fill="#757575" stroke="#757575" stroke-width="3" points="442.881,546.5 452.648,549.895 
		452.813,543.05 	"/>
	<text transform="matrix(1 0 0 1 569.5332 516.6963)" display="inline" font-family="sans-serif" font-size="24">CENTER</text>
	<text transform="matrix(1 0 0 1 580.5332 541.6963)" display="inline" font-family="sans-serif" font-size="24">POINT</text>
</g>
</svg>
