<?xml version="1.0" encoding="utf-8"?>
<!-- Generator: Adobe Illustrator 16.0.0, SVG Export Plug-In . SVG Version: 6.00 Build 0)  -->
<!DOCTYPE svg PUBLIC "-//W3C//DTD SVG 1.1//EN" "http://www.w3.org/Graphics/SVG/1.1/DTD/svg11.dtd">
<svg version="1.1" id="Version_1.0" xmlns="http://www.w3.org/2000/svg" xmlns:xlink="http://www.w3.org/1999/xlink" x="0px"
	 y="0px" width="612px" height="792px" viewBox="0 0 612 792" enable-background="new 0 0 612 792" xml:space="preserve">
<g id="main">
	<g>
		<polygon fill="none" stroke="#000000" stroke-width="5" points="166.006,495.049 306.006,252.548 446.006,495.049 		"/>
	</g>
	<g>
		<g>
			<g id="lines">
				<line fill="none" stroke="#000000" stroke-width="5" x1="207.677" y1="495.049" x2="207.677" y2="535.049"/>
				<line fill="none" stroke="#000000" stroke-width="5" x1="247.677" y1="495.049" x2="247.677" y2="535.049"/>
				<line fill="none" stroke="#000000" stroke-width="5" x1="287.677" y1="495.049" x2="287.677" y2="535.049"/>
				<line fill="none" stroke="#000000" stroke-width="5" x1="327.677" y1="495.049" x2="327.677" y2="535.049"/>
				<line fill="none" stroke="#000000" stroke-width="5" x1="367.678" y1="495.049" x2="367.678" y2="535.049"/>
				<line fill="none" stroke="#000000" stroke-width="5" x1="407.678" y1="495.049" x2="407.678" y2="535.049"/>
			</g>
		</g>
		<g transform="rotate(60 200 300) translate(-70 -160.5)">
			<g id="lines_1_">
				<line fill="none" stroke="#000000" stroke-width="5" x1="300.432" y1="379.777" x2="265.792" y2="399.779"/>
				<line fill="none" stroke="#000000" stroke-width="5" x1="320.432" y1="414.417" x2="285.791" y2="434.418"/>
				<line fill="none" stroke="#000000" stroke-width="5" x1="340.431" y1="449.06" x2="305.791" y2="469.06"/>
				<line fill="none" stroke="#000000" stroke-width="5" x1="360.431" y1="483.701" x2="325.791" y2="503.702"/>
				<line fill="none" stroke="#000000" stroke-width="5" x1="380.432" y1="518.343" x2="345.792" y2="538.342"/>
				<line fill="none" stroke="#000000" stroke-width="5" x1="400.431" y1="552.982" x2="365.792" y2="572.982"/>
			</g>
		</g>
		<g transform="rotate(-60 200 300) translate(70 -160.5)">
			<g id="lines_2_">
				<line fill="none" stroke="#000000" stroke-width="5" x1="107.732" y1="729.689" x2="142.375" y2="749.688"/>
				<line fill="none" stroke="#000000" stroke-width="5" x1="127.732" y1="695.048" x2="162.375" y2="715.048"/>
				<line fill="none" stroke="#000000" stroke-width="5" x1="147.732" y1="660.407" x2="182.375" y2="680.407"/>
				<line fill="none" stroke="#000000" stroke-width="5" x1="167.732" y1="625.766" x2="202.375" y2="645.766"/>
				<line fill="none" stroke="#000000" stroke-width="5" x1="187.733" y1="591.124" x2="222.375" y2="611.123"/>
				<line fill="none" stroke="#000000" stroke-width="5" x1="207.733" y1="556.483" x2="242.375" y2="576.484"/>
			</g>
		</g>
	</g>
</g>
<g id="template" transform="translate(-135 -150)" display="none">
	<line display="inline" fill="none" stroke="#000000" stroke-width="3" x1="450.535" y1="546.221" x2="615.812" y2="548.565"/>
	<polygon display="inline" stroke="#000000" stroke-width="3" points="443.013,546.262 452.783,549.645 452.939,542.798 	"/>
	<text transform="matrix(1 0 0 1 574.1737 517.9976)" display="inline" font-family="sans-serif" font-size="24">CENTER</text>
	<text transform="matrix(1 0 0 1 585.1737 542.9976)" display="inline" font-family="sans-serif" font-size="24">POINT</text>
</g>
</svg>
