<?xml version="1.0" encoding="utf-8"?>
<!-- Generator: Adobe Illustrator 16.0.0, SVG Export Plug-In . SVG Version: 6.00 Build 0)  -->
<!DOCTYPE svg PUBLIC "-//W3C//DTD SVG 1.1//EN" "http://www.w3.org/Graphics/SVG/1.1/DTD/svg11.dtd">
<svg version="1.1" id="Version_1.0" xmlns="http://www.w3.org/2000/svg" xmlns:xlink="http://www.w3.org/1999/xlink" x="0px"
	 y="0px" width="612px" height="792px" viewBox="0 0 612 792" enable-background="new 0 0 612 792" xml:space="preserve">
<g id="main">
	<polygon fill="none" stroke="#000000" stroke-width="5" points="165.74,478.043 305.74,235.543 445.739,478.043 	"/>
	<path d="M354.134,395.793c-0.645-0.125-3.295,0.91-7.944,3.095c-2.976,1.29-6.399,3.29-10.271,6
		c-14.215,9.415-24.226,22.12-30.04,38.105c-0.265,0-0.645-0.32-1.165-0.966c-2.195-6.959-6.14-13.93-11.825-20.896
		c-5.945-7.475-12.79-13.67-20.54-18.563c-3.625-2.32-8.595-4.644-14.925-6.961c-0.105-0.26-0.105-0.455,0-0.584
		c1.675-0.771,3.94-1.74,6.785-2.9c7.36-2.45,15.21-8.061,23.545-16.83s13.79-17.016,16.375-24.755c0.39-1.03,0.965-2.065,1.745-3.1
		c2.45,7.61,7.104,15.541,13.955,23.794c7.235,8.896,14.66,15.215,22.285,18.949c1.68,0.778,4.396,2.006,8.145,3.676
		C351.414,393.988,352.704,394.633,354.134,395.793z"/>
</g>
<g id="template" transform="translate(-135 -150)" display="none">
	<line display="inline" fill="none" stroke="#000000" stroke-width="3" x1="454.74" y1="546.025" x2="613.206" y2="546.025"/>
	<path display="inline" d="M449.428,548.331c3.719,1.124,6.137,2.159,9.12,3.356v-11.353c-1.067,0.508-5.401,2.231-9.12,3.354
		c-3.981,1.201-7.593,2.024-9.935,2.318C441.835,546.307,445.445,547.129,449.428,548.331z"/>
	<line display="inline" fill="none" stroke="#FFFFFF" stroke-width="3" x1="453.74" y1="547.043" x2="486.206" y2="546.043"/>
	<path display="inline" fill="#FFFFFF" d="M448.5,549.512c3.752,1.01,6.2,1.969,9.221,3.073l-0.351-11.344
		c-1.052,0.54-5.33,2.396-9.013,3.635c-3.942,1.325-7.525,2.259-9.857,2.624C440.85,547.723,444.484,548.434,448.5,549.512z"/>
	<text transform="matrix(1 0 0 1 571.8369 516.0342)" display="inline" font-family="sans-serif" font-size="24">CENTER</text>
	<text transform="matrix(1 0 0 1 582.8369 541.0342)" display="inline" font-family="sans-serif" font-size="24">POINT</text>
</g>
</svg>
