<?xml version="1.0" encoding="utf-8"?>
<!-- Generator: Adobe Illustrator 16.0.0, SVG Export Plug-In . SVG Version: 6.00 Build 0)  -->
<!DOCTYPE svg PUBLIC "-//W3C//DTD SVG 1.1//EN" "http://www.w3.org/Graphics/SVG/1.1/DTD/svg11.dtd">
<svg version="1.1" id="Version_1.0" xmlns="http://www.w3.org/2000/svg" xmlns:xlink="http://www.w3.org/1999/xlink" x="0px"
	 y="0px" width="400px" height="400px" viewBox="0 0 400 400" enable-background="new 0 0 400 400" xml:space="preserve">
<g id="main" transform="translate(-290 -280) scale(2 2)">
	<text transform="matrix(0.5 0 0 0.5 174.3938 222.5581)" font-family="sans-serif" font-size="24">MIN ALT:</text>
	<text transform="matrix(0.5 0 0 0.5 174.5647 246.3232)" font-family="sans-serif" font-size="24">MAX ALT:</text>
	<text transform="matrix(0.5 0 0 0.5 173.5408 277.1113)" font-family="sans-serif" font-size="24">TIME FROM:</text>
	<text transform="matrix(0.5 0 0 0.5 174.9646 300.1699)" font-family="sans-serif" font-size="24">TIME TO:</text>
	<text transform="matrix(0.5 0 0 0.5 175.8821 182.1113)" font-family="sans-serif" font-size="24">HIMEZ</text>
	<polygon fill="none" stroke="#000000" stroke-width="5" points="167.882,314.312 167.482,159.511 295.927,161.661 335.927,244.223 
		309.427,314.312 	"/>
</g>
<g id="template" display="none">
	<g id="varX" transform="translate(148 97)" display="inline">
		<rect x="-82.236" y="-5.777" fill="#FFFFFF" stroke="#000000" stroke-width="2" width="52" height="46"/>
		<text transform="matrix(1 0 0 1 -66.2358 26.2227)" font-family="sans-serif" font-size="24">T</text>
	</g>
	<g id="varH" transform="translate(107 112)" display="inline">
		<rect x="80.764" y="17.223" fill="#FFFFFF" stroke="#000000" stroke-width="2" width="52" height="46"/>
		<text transform="matrix(1 0 0 1 96.7637 49.2227)" font-family="sans-serif" font-size="24">X</text>
	</g>
	<g id="VarX1" transform="translate(38 129) translate(1 0) translate(1 0)" display="inline">
		<rect x="153.764" y="54.223" fill="#FFFFFF" stroke="#000000" stroke-width="2" width="52" height="46"/>
		<text transform="matrix(1 0 0 1 161.7637 86.2227)" font-family="sans-serif" font-size="24">X1</text>
	</g>
	<g id="varW1" transform="translate(-85 160)" display="inline">
		<rect x="280.764" y="131.223" fill="#FFFFFF" stroke="#000000" stroke-width="2" width="52" height="46"/>
		<text transform="matrix(1 0 0 1 288.7637 165.2227)" font-family="sans-serif" font-size="24">W1</text>
	</g>
	<g id="varW" transform="translate(-16 155) translate(1 0) translate(1 0) translate(1 0)" display="inline">
		<rect x="238.764" y="82.223" fill="#FFFFFF" stroke="#000000" stroke-width="2" width="52" height="46"/>
		<text transform="matrix(1 0 0 1 252.7637 116.2227)" font-family="sans-serif" font-size="24">W</text>
	</g>
</g>
<g id="example" display="none">
	<text id="varXe" transform="matrix(1 0 0 1 167.7637 165.1162)" display="inline" font-family="sans-serif" font-size="21">6000FT AGL</text>
	<text id="varX1e" transform="matrix(1 0 0 1 165.7637 212.6465)" display="inline" font-family="sans-serif" font-size="21">150000FT AGL</text>
	<text id="varW1e" transform="matrix(1 0 0 1 165.7637 321.2227)" display="inline" font-family="sans-serif" font-size="21">071600ZAUG08</text>
	<text id="varWe" transform="matrix(1 0 0 1 197.7637 274.2227)" display="inline" font-family="sans-serif" font-size="21">070600ZAUG08</text>
	<text id="varTe" transform="matrix(1 0 0 1 61.7642 123.2227)" display="inline" font-family="sans-serif" font-size="21">AACC</text>
</g>
</svg>
