<?xml version="1.0" encoding="utf-8"?>
<!-- Generator: Adobe Illustrator 16.0.0, SVG Export Plug-In . SVG Version: 6.00 Build 0)  -->
<!DOCTYPE svg PUBLIC "-//W3C//DTD SVG 1.1//EN" "http://www.w3.org/Graphics/SVG/1.1/DTD/svg11.dtd">
<svg version="1.1" id="Version_1.0" xmlns="http://www.w3.org/2000/svg" xmlns:xlink="http://www.w3.org/1999/xlink" x="0px"
	 y="0px" width="612px" height="792px" viewBox="0 0 612 792" enable-background="new 0 0 612 792" xml:space="preserve">
<g id="main">
	<g>
		<line fill="none" stroke="#000000" stroke-width="10" x1="201.812" y1="221" x2="201.812" y2="571"/>
		<line fill="none" stroke="#000000" stroke-width="10" x1="401.813" y1="221" x2="401.813" y2="571"/>
	</g>
	<text transform="matrix(1 0 0 1 252.1611 446.7861)" font-family="sans-serif" font-size="120">W</text>
</g>
<g id="template" display="none">
	<g transform="translate(0 -140)" display="inline">
		<text transform="matrix(1 0 0 1 262.3115 392.793)" font-family="sans-serif" font-size="24">CENTER</text>
		<text transform="matrix(1 0 0 1 273.3115 417.793)" font-family="sans-serif" font-size="24">POINT</text>
	</g>
	<g display="inline">
		<g>
			<g>
				<line fill="none" stroke="#000000" stroke-width="4" x1="308.646" y1="285.892" x2="308.646" y2="340.892"/>
				<path d="M311.723,347.977c1.498-4.96,2.879-8.184,4.476-12.163h-15.134c0.677,1.424,2.979,7.203,4.476,12.163
					c1.604,5.309,2.701,10.122,3.092,13.244C309.021,358.099,310.119,353.286,311.723,347.977z"/>
			</g>
		</g>
	</g>
</g>
</svg>
