<?xml version="1.0" encoding="utf-8"?>
<!-- Generator: Adobe Illustrator 16.0.0, SVG Export Plug-In . SVG Version: 6.00 Build 0)  -->
<!DOCTYPE svg PUBLIC "-//W3C//DTD SVG 1.1//EN" "http://www.w3.org/Graphics/SVG/1.1/DTD/svg11.dtd">
<svg version="1.1" id="Version_1.0" xmlns="http://www.w3.org/2000/svg" xmlns:xlink="http://www.w3.org/1999/xlink" x="0px"
	 y="0px" width="612px" height="792px" viewBox="0 0 612 792" enable-background="new 0 0 612 792" xml:space="preserve">
<g id="main">
	<text transform="matrix(1 0 0 1 234.2949 381.7886)" font-family="sans-serif" font-size="72">ACP</text>
	<circle fill="none" stroke="#000000" stroke-width="5" cx="311" cy="396.168" r="125"/>
</g>
<g id="template" display="none">
	<g id="varT" transform="translate(0 50)" display="inline">
		<rect x="276.965" y="362.441" fill="#FFFFFF" stroke="#000000" stroke-width="5" width="64.535" height="62.57"/>
		<text transform="matrix(1 0 0 1 285.9746 420.4414)" font-family="sans-serif" font-size="72">T</text>
	</g>
	<g id="points" display="inline">
		<g transform="translate(140 120)">
			<text transform="matrix(1 0 0 1 258.2949 401.6934)" font-family="sans-serif" font-size="24">CENTER</text>
			<text transform="matrix(1 0 0 1 269.2949 426.6934)" font-family="sans-serif" font-size="24">POINT</text>
		</g>
		<g>
			<g>
				<g>
					<line fill="none" stroke="#000000" stroke-width="5" x1="459.364" y1="499.441" x2="326.363" y2="409.441"/>
					<path d="M316.875,407.659c4.085,5.024,6.456,8.714,9.457,13.151l10.602-15.666c-1.949-0.297-9.543-1.963-15.727-3.889
						c-6.619-2.061-12.372-4.293-15.877-6.077C308.288,397.774,312.502,402.282,316.875,407.659z"/>
				</g>
			</g>
		</g>
	</g>
</g>
<g id="example" transform="translate(0 50)" display="none">
	<text id="varTe" transform="matrix(1 0 0 1 288.9434 419.4414)" display="inline" font-family="sans-serif" font-size="72">7</text>
</g>
</svg>
