<?xml version="1.0" encoding="utf-8"?>
<!-- Generator: Adobe Illustrator 16.0.0, SVG Export Plug-In . SVG Version: 6.00 Build 0)  -->
<!DOCTYPE svg PUBLIC "-//W3C//DTD SVG 1.1//EN" "http://www.w3.org/Graphics/SVG/1.1/DTD/svg11.dtd">
<svg version="1.1" id="Version_1.0" xmlns="http://www.w3.org/2000/svg" xmlns:xlink="http://www.w3.org/1999/xlink" x="0px"
	 y="0px" width="612px" height="792px" viewBox="0 0 612 792" enable-background="new 0 0 612 792" xml:space="preserve">
<g id="main">
	<g>
		<line fill="none" stroke="#000000" stroke-width="10" x1="201.812" y1="230" x2="201.812" y2="580"/>
		<line fill="none" stroke="#000000" stroke-width="10" x1="401.813" y1="230" x2="401.813" y2="580"/>
	</g>
	<text transform="matrix(1 0 0 1 221.1611 381.7861)" font-family="sans-serif" font-size="72">ASW</text>
	<g>
		
			<g transform="translate(107 102) scale(5 5) translate(37.008 39) scale(0.832252 0.832252) translate(-37.008 -39) translate(-3.60468 6.96904)">
			<path d="M44.874,56.042c0.191,0.385,0.334,0.697,0.432,0.938v7.861l16.92,17.523v2.596l-16.92-11.017v14.111l3.959,4.033v1.944
				l-4.607-1.943l-0.936,1.943l-1.01-1.943l-4.535,1.943v-1.943l3.889-4.033V73.943L25.218,84.959v-2.596l16.848-17.522v-7.863
				l0.217-0.648c0.429-0.865,0.91-1.299,1.439-1.299C44.105,55.032,44.489,55.369,44.874,56.042z"/>
		</g>
	</g>
</g>
<g id="template" display="none">
	<g transform="translate(0 -140)" display="inline">
		<text transform="matrix(1 0 0 1 262.3115 372.793)" font-family="sans-serif" font-size="24">CENTER</text>
		<text transform="matrix(1 0 0 1 273.3115 397.793)" font-family="sans-serif" font-size="24">POINT</text>
	</g>
	<g display="inline">
		<g>
			<g>
				<line fill="none" stroke="#000000" stroke-width="4" x1="305.631" y1="262.5" x2="305.647" y2="298.892"/>
				<path d="M308.723,305.977c1.498-4.96,2.879-8.184,4.476-12.163h-15.134c0.677,1.424,2.979,7.203,4.476,12.163
					c1.604,5.309,2.701,10.122,3.092,13.244C306.022,316.099,307.119,311.286,308.723,305.977z"/>
			</g>
		</g>
	</g>
</g>
</svg>
