<?xml version="1.0" encoding="utf-8"?>
<!-- Generator: Adobe Illustrator 16.0.0, SVG Export Plug-In . SVG Version: 6.00 Build 0)  -->
<!DOCTYPE svg PUBLIC "-//W3C//DTD SVG 1.1//EN" "http://www.w3.org/Graphics/SVG/1.1/DTD/svg11.dtd">
<svg version="1.1" id="Version_1.0" xmlns="http://www.w3.org/2000/svg" xmlns:xlink="http://www.w3.org/1999/xlink" x="0px"
	 y="0px" width="612px" height="792px" viewBox="0 0 612 792" enable-background="new 0 0 612 792" xml:space="preserve">
<g id="main">
	<g>
		<line fill="none" stroke="#000000" stroke-width="10" x1="205.5" y1="221" x2="205.5" y2="571"/>
		<line fill="none" stroke="#000000" stroke-width="10" x1="405.5" y1="221" x2="405.5" y2="571"/>
	</g>
	<circle stroke="#000000" cx="305.5" cy="396.5" r="50"/>
</g>
<g id="template" display="none">
	
		<g transform="translate(0 -1) translate(0 -1) translate(0 -1) translate(0 -1) translate(0 -1) translate(0 -1) translate(0 -1) translate(0 -1) translate(0 -1) translate(0 -1) translate(0 -1) translate(0 -1) translate(0 -1) translate(0 -1) translate(0 -1) translate(0 -1) translate(0 -1) translate(0 -1) translate(0 -1) translate(0 -1) translate(0 -1) translate(0 -1) translate(0 -1) translate(0 -1) translate(0 -1) translate(0 -1) translate(0 -1) translate(0 -1) translate(0 -1) translate(0 -1) translate(0 -1) translate(0 -1) translate(0 -1) translate(0 -1) translate(0 -1) translate(0 -1) translate(0 -1) translate(0 -1) translate(0 -1) translate(0 -1) translate(0 -1) translate(0 -1) translate(0 -1) translate(0 -1) translate(0 -1) translate(0 -1) translate(0 -1) translate(0 -1) translate(0 -1) translate(0 -1) translate(0 -1) translate(0 -1) translate(0 -1) translate(0 -1) translate(0 -1) translate(0 -1) translate(0 -1) translate(0 -1) translate(0 -1) translate(0 -1) translate(0 -1) translate(0 -1) translate(0 -1) translate(0 -1) translate(0 -1) translate(0 -1) translate(0 -1) translate(0 -1) translate(0 -1) translate(0 -1) translate(0 -1) translate(0 -1) translate(0 -1) translate(0 -1) translate(0 -1) translate(0 -1) translate(0 -1) translate(0 -1) translate(0 -1) translate(0 -1) translate(0 -1) translate(0 -1) translate(0 -1) translate(0 -1) translate(0 -1) translate(0 -1) translate(0 -1) translate(0 -1) translate(0 -1) translate(0 -1) translate(0 -1) translate(0 -1) translate(0 -1) translate(0 -1) translate(0 -1) translate(0 -1) translate(0 -1) translate(0 -1) translate(0 -1) translate(0 -1) translate(0 -1) translate(0 -1) translate(0 -1) translate(0 -1) translate(0 -1) translate(0 -1) translate(0 -1) translate(0 -1) translate(0 -1) translate(0 -1) translate(0 -1) translate(0 -1) translate(0 -1) translate(0 -1) translate(0 -1) translate(0 -1) translate(0 -1) translate(0 -1) translate(0 -1) translate(0 -1) translate(0 -1) translate(0 -1) translate(0 -1) translate(0 -1) translate(0 -1)" display="inline">
		<text transform="matrix(1 0 0 1 254 396)" font-family="sans-serif" font-size="24">CENTER</text>
		<text transform="matrix(1 0 0 1 254 396)" fill="none" stroke="#000000" font-family="sans-serif" font-size="24">CENTER</text>
		<text transform="matrix(1 0 0 1 265 421)" font-family="sans-serif" font-size="24">POINT</text>
		<text transform="matrix(1 0 0 1 265 421)" fill="none" stroke="#000000" font-family="sans-serif" font-size="24">POINT</text>
	</g>
	
		<g transform="translate(0 1) translate(0 1) translate(0 1) translate(0 1) translate(200 143) scale(1 0.793103) translate(-200 -143) translate(200 143) scale(1 0.934783) translate(-200 -143)" display="inline">
		<line fill="none" stroke="#000000" stroke-width="3" x1="305" y1="354.256" x2="305" y2="409.256"/>
		<polygon stroke="#000000" points="305,412.256 298,397.256 312,397.256 		"/>
	</g>
</g>
</svg>
