<?xml version="1.0" encoding="utf-8"?>
<!-- Generator: Adobe Illustrator 16.0.0, SVG Export Plug-In . SVG Version: 6.00 Build 0)  -->
<!DOCTYPE svg PUBLIC "-//W3C//DTD SVG 1.1//EN" "http://www.w3.org/Graphics/SVG/1.1/DTD/svg11.dtd">
<svg version="1.1" id="Version_1.0" xmlns="http://www.w3.org/2000/svg" xmlns:xlink="http://www.w3.org/1999/xlink" x="0px"
	 y="0px" width="400px" height="400px" viewBox="0 0 400 400" enable-background="new 0 0 400 400" xml:space="preserve">
<g id="main">
	<line fill="none" stroke="#000000" stroke-width="5" x1="43" y1="183.445" x2="371.5" y2="183.445"/>
	<text transform="matrix(1 0 0 1 26 167.668)" font-family="sans-serif" font-size="36">IFF ON</text>
	<text transform="matrix(1 0 0 1 255 167.668)" font-family="sans-serif" font-size="36">IFF ON</text>
</g>
<g id="template" display="none">
	<g display="inline">
		<text transform="matrix(1 0 0 1 20.5 288.6279)" font-family="sans-serif" font-size="24">PT 1</text>
		<g>
			<g>
				<line fill="none" stroke="#000000" stroke-width="5" x1="43.5" y1="210.945" x2="43.5" y2="268.5"/>
				<path d="M39.657,202.09c-1.874,6.2-3.598,10.229-5.594,15.202H52.98c-0.846-1.78-3.723-9.002-5.594-15.202
					c-2.005-6.635-3.376-12.652-3.865-16.556C43.031,189.438,41.66,195.455,39.657,202.09z"/>
			</g>
		</g>
	</g>
	<g display="inline">
		<text transform="matrix(1 0 0 1 340.5 286.8506)" font-family="sans-serif" font-size="24">PT 2</text>
		<g>
			<g>
				<line fill="none" stroke="#000000" stroke-width="5" x1="370.5" y1="207.945" x2="370.5" y2="265.5"/>
				<path d="M366.656,199.09c-1.873,6.2-3.601,10.229-5.594,15.202h18.916c-0.848-1.78-3.725-9.002-5.596-15.202
					c-2.005-6.636-3.377-12.653-3.864-16.556C370.031,186.438,368.66,192.455,366.656,199.09z"/>
			</g>
		</g>
	</g>
</g>
</svg>
