<?xml version="1.0" encoding="utf-8"?>
<!-- Generator: Adobe Illustrator 16.0.0, SVG Export Plug-In . SVG Version: 6.00 Build 0)  -->
<!DOCTYPE svg PUBLIC "-//W3C//DTD SVG 1.1//EN" "http://www.w3.org/Graphics/SVG/1.1/DTD/svg11.dtd">
<svg version="1.1" id="Version_1.0" xmlns="http://www.w3.org/2000/svg" xmlns:xlink="http://www.w3.org/1999/xlink" x="0px"
	 y="0px" width="612px" height="792px" viewBox="0 0 612 792" enable-background="new 0 0 612 792" xml:space="preserve">
<g id="main">
	<circle fill="none" stroke="#000000" stroke-width="5" stroke-miterlimit="8" cx="310.291" cy="391.197" r="48.793"/>
</g>
<g id="example" display="none">
	<rect x="140.5" y="231.382" display="inline" fill="#474747" width="329.5" height="329.5"/>
	<g display="inline">
		<circle fill="#008600" stroke="#000000" stroke-width="5" stroke-miterlimit="8" cx="276.5" cy="340.316" r="10"/>
		<circle fill="#008600" stroke="#000000" stroke-width="5" stroke-miterlimit="8" cx="276.5" cy="365.066" r="10"/>
		<circle fill="#00FF00" stroke="#000000" stroke-width="5" stroke-miterlimit="8" cx="276.5" cy="389.816" r="10"/>
		<circle fill="#00FF00" stroke="#000000" stroke-width="5" stroke-miterlimit="8" cx="276.5" cy="414.566" r="10"/>
		<circle fill="#00FF00" stroke="#000000" stroke-width="5" stroke-miterlimit="8" cx="276.5" cy="439.316" r="10"/>
		<circle fill="#E9FF07" stroke="#000000" stroke-width="5" stroke-miterlimit="8" cx="298.5" cy="340.316" r="10"/>
		<circle fill="#E9FF07" stroke="#000000" stroke-width="5" stroke-miterlimit="8" cx="298.5" cy="365.066" r="10"/>
		<circle fill="#E9FF07" stroke="#000000" stroke-width="5" stroke-miterlimit="8" cx="298.5" cy="389.816" r="10"/>
		<circle fill="#E1A900" stroke="#000000" stroke-width="5" stroke-miterlimit="8" cx="298.5" cy="414.566" r="10"/>
		<circle fill="#E1A900" stroke="#000000" stroke-width="5" stroke-miterlimit="8" cx="298.5" cy="439.316" r="10"/>
		<circle fill="#839500" stroke="#000000" stroke-width="5" stroke-miterlimit="8" cx="321.5" cy="340.316" r="10"/>
		<circle fill="#E1BA00" stroke="#000000" stroke-width="5" stroke-miterlimit="8" cx="321.5" cy="365.066" r="10"/>
		<circle fill="#E1BA00" stroke="#000000" stroke-width="5" stroke-miterlimit="8" cx="321.5" cy="389.816" r="10"/>
		<circle fill="#8B7900" stroke="#000000" stroke-width="5" stroke-miterlimit="8" cx="321.5" cy="414.566" r="10"/>
		<circle fill="#FF9500" stroke="#000000" stroke-width="5" stroke-miterlimit="8" cx="321.5" cy="439.316" r="10"/>
		<circle fill="#839500" stroke="#000000" stroke-width="5" stroke-miterlimit="8" cx="343.5" cy="340.316" r="10"/>
		<circle fill="#839500" stroke="#000000" stroke-width="5" stroke-miterlimit="8" cx="343.5" cy="365.066" r="10"/>
		<circle fill="#839500" stroke="#000000" stroke-width="5" stroke-miterlimit="8" cx="343.5" cy="389.816" r="10"/>
		<circle fill="#004700" stroke="#000000" stroke-width="5" stroke-miterlimit="8" cx="343.5" cy="414.566" r="10"/>
		<circle fill="#004700" stroke="#000000" stroke-width="5" stroke-miterlimit="8" cx="343.5" cy="439.316" r="10"/>
	</g>
</g>
<g id="template" display="none">
	<g display="inline">
		<circle fill="none" stroke="#000000" stroke-width="5" stroke-miterlimit="8" cx="276.5" cy="340.316" r="10"/>
		<circle fill="none" stroke="#000000" stroke-width="5" stroke-miterlimit="8" cx="276.5" cy="365.066" r="10"/>
		<circle fill="none" stroke="#000000" stroke-width="5" stroke-miterlimit="8" cx="276.5" cy="389.816" r="10"/>
		<circle fill="none" stroke="#000000" stroke-width="5" stroke-miterlimit="8" cx="276.5" cy="414.566" r="10"/>
		<circle fill="none" stroke="#000000" stroke-width="5" stroke-miterlimit="8" cx="276.5" cy="439.316" r="10"/>
		<circle fill="none" stroke="#000000" stroke-width="5" stroke-miterlimit="8" cx="298.5" cy="340.316" r="10"/>
		<circle fill="none" stroke="#000000" stroke-width="5" stroke-miterlimit="8" cx="298.5" cy="365.066" r="10"/>
		<circle fill="none" stroke="#000000" stroke-width="5" stroke-miterlimit="8" cx="298.5" cy="389.816" r="10"/>
		<circle fill="none" stroke="#000000" stroke-width="5" stroke-miterlimit="8" cx="298.5" cy="414.566" r="10"/>
		<circle fill="none" stroke="#000000" stroke-width="5" stroke-miterlimit="8" cx="298.5" cy="439.316" r="10"/>
		<circle fill="none" stroke="#000000" stroke-width="5" stroke-miterlimit="8" cx="321.5" cy="340.316" r="10"/>
		<circle fill="none" stroke="#000000" stroke-width="5" stroke-miterlimit="8" cx="321.5" cy="365.066" r="10"/>
		<circle fill="none" stroke="#000000" stroke-width="5" stroke-miterlimit="8" cx="321.5" cy="389.816" r="10"/>
		<circle fill="none" stroke="#000000" stroke-width="5" stroke-miterlimit="8" cx="321.5" cy="414.566" r="10"/>
		<circle fill="none" stroke="#000000" stroke-width="5" stroke-miterlimit="8" cx="321.5" cy="439.316" r="10"/>
		<circle fill="none" stroke="#000000" stroke-width="5" stroke-miterlimit="8" cx="343.5" cy="340.316" r="10"/>
		<circle fill="none" stroke="#000000" stroke-width="5" stroke-miterlimit="8" cx="343.5" cy="365.066" r="10"/>
		<circle fill="none" stroke="#000000" stroke-width="5" stroke-miterlimit="8" cx="343.5" cy="389.816" r="10"/>
		<circle fill="none" stroke="#000000" stroke-width="5" stroke-miterlimit="8" cx="343.5" cy="414.566" r="10"/>
		<circle fill="none" stroke="#000000" stroke-width="5" stroke-miterlimit="8" cx="343.5" cy="439.316" r="10"/>
	</g>
	
		<rect x="257.5" y="323.5" display="inline" fill="none" stroke="#727272" stroke-width="5.1216" stroke-miterlimit="8" width="103" height="133"/>
	<text transform="matrix(1 0 0 1 291.5 478.5)" display="inline" fill="#FFFFFF" font-family="'ArialMT'" font-size="24">AOI</text>
</g>
</svg>
