<?xml version="1.0" encoding="utf-8"?>
<!-- Generator: Adobe Illustrator 16.0.0, SVG Export Plug-In . SVG Version: 6.00 Build 0)  -->
<!DOCTYPE svg PUBLIC "-//W3C//DTD SVG 1.1//EN" "http://www.w3.org/Graphics/SVG/1.1/DTD/svg11.dtd">
<svg version="1.1" id="Version_1.0" xmlns="http://www.w3.org/2000/svg" xmlns:xlink="http://www.w3.org/1999/xlink" x="0px"
	 y="0px" width="612px" height="792px" viewBox="0 0 612 792" enable-background="new 0 0 612 792" xml:space="preserve">
<rect id="template2" x="199.333" y="275.59" display="none" fill="#DDDDDD" width="278.5" height="274.833"/>
<g id="main">
	
		<rect x="333.834" y="298.165" transform="matrix(0.7071 0.7071 -0.7071 0.7071 376.811 -154.7164)" fill="#557788" stroke="#FFFFFF" stroke-width="5" stroke-miterlimit="8" width="82.666" height="158.667"/>
</g>
<g id="template" display="none">
	<g display="inline">
		<g>
			
				<line fill="none" stroke="#000000" stroke-width="2" stroke-miterlimit="8" x1="211.417" y1="436.834" x2="211.417" y2="439.834"/>
			
				<line fill="none" stroke="#000000" stroke-width="2" stroke-miterlimit="8" stroke-dasharray="6.3167,6.3167" x1="211.417" y1="446.15" x2="211.417" y2="531.426"/>
			<polyline fill="none" stroke="#000000" stroke-width="2" stroke-miterlimit="8" points="211.417,534.584 211.417,537.584 
				213.562,535.486 			"/>
			
				<line fill="none" stroke="#000000" stroke-width="2" stroke-miterlimit="8" stroke-dasharray="6.0041,6.0041" x1="217.855" y1="531.29" x2="430.375" y2="323.529"/>
			
				<line fill="none" stroke="#000000" stroke-width="2" stroke-miterlimit="8" x1="432.521" y1="321.43" x2="434.667" y2="319.333"/>
		</g>
	</g>
	<g display="inline">
		<circle cx="375.335" cy="377.667" r="5.5"/>
		<text transform="matrix(1 0 0 1 281.166 351.0337)" enable-background="new    "><tspan x="0" y="0" font-family="'ArialMT'" font-size="8">ANCHOR </tspan><tspan x="5.111" y="9.6" font-family="'ArialMT'" font-size="8">POINT</tspan></text>
		<g>
			<g>
				<line fill="none" stroke="#000000" stroke-miterlimit="8" x1="313" y1="354" x2="368.126" y2="374.951"/>
				<g>
					<polygon points="364.99,379.094 374.834,377.5 368.533,369.771 					"/>
				</g>
			</g>
		</g>
		<g>
			<g>
				<line fill="none" stroke="#FFFFFF" stroke-miterlimit="8" x1="335.417" y1="362.5" x2="368.127" y2="374.948"/>
				<g>
					<polygon fill="#FFFFFF" points="364.99,379.089 374.834,377.5 368.537,369.769 					"/>
				</g>
			</g>
		</g>
	</g>
	<g display="inline">
		<g>
			<g>
				<path fill="none" stroke="#000000" stroke-width="2" stroke-miterlimit="8" d="M265.457,475.889
					c-0.947-0.401-1.867-0.791-2.763-1.171"/>
				<path fill="none" stroke="#000000" stroke-width="2" stroke-miterlimit="8" stroke-dasharray="5.5299,5.5299" d="
					M257.596,472.569c-15.408-6.437-23.488-9.051-40.083-9.254"/>
				<path fill="none" stroke="#000000" stroke-width="2" stroke-miterlimit="8" d="M214.75,463.303c-0.971,0.003-1.97,0.014-3,0.03"
					/>
				<g>
					<polygon points="265.925,471.772 270.75,478.125 262.836,479.128 					"/>
				</g>
			</g>
		</g>
		<text transform="matrix(0.9678 0.2518 -0.2518 0.9678 224.5049 448.832)" enable-background="new    "><tspan x="0" y="0" font-family="'ArialMT'" font-size="8">ROTATION</tspan><tspan x="5.645" y="9.6" font-family="'ArialMT'" font-size="8">ANGLEº</tspan></text>
	</g>
	<g display="inline">
		
			<g id="varAM_1_" transform="matrix(6.12303e-017 1 -1 6.12303e-017 405 -5) translate(240 175) scale(0.742857 0.742857) translate(-240 -175) translate(-83.4615 -235.577) translate(240 175) scale(0.834615 0.834615) translate(-240 -175) translate(240 175) scale(0.806452 0.806452) translate(-240 -175) translate(0 2) translate(0 2) translate(0 2) translate(0 2) translate(0 2) translate(2 0) translate(2 0) translate(2 0) translate(2 0) translate(2 0) translate(2 0) translate(2 0) translate(2 0) translate(2 0) translate(2 0) translate(2 0) translate(2 0) translate(0 2)">
			
				<rect x="502.457" y="37.683" transform="matrix(0.7071 0.7071 -0.7071 0.7071 191.8595 -345.5295)" fill="none" stroke="#000000" width="21.13" height="42.297"/>
			<text transform="matrix(1.4142 -1.4142 1.4142 1.4142 505.1844 75.4999)" font-family="'ArialMT'" font-size="9">AM1</text>
		</g>
		<text transform="matrix(0.7071 0.7071 -0.7071 0.7071 425.8984 294.8491)" font-family="'ArialMT'" font-size="8">WIDTH</text>
		<g>
			<g>
				<line fill="none" stroke="#000000" stroke-miterlimit="8" x1="412.314" y1="287.65" x2="466.162" y2="341.499"/>
				<g>
					<polygon points="410.817,290.385 409.27,284.605 415.049,286.153 					"/>
				</g>
				<g>
					<polygon points="463.428,342.995 469.207,344.543 467.659,338.764 					"/>
				</g>
			</g>
		</g>
	</g>
	<g display="inline">
		
			<g id="varAM" transform="matrix(6.12303e-017 1 -1 6.12303e-017 405 -5) translate(240 175) scale(0.742857 0.742857) translate(-240 -175) translate(-83.4615 -235.577) translate(240 175) scale(0.834615 0.834615) translate(-240 -175) translate(240 175) scale(0.806452 0.806452) translate(-240 -175) translate(0 2) translate(0 2) translate(0 2) translate(0 2) translate(0 2) translate(2 0) translate(2 0) translate(2 0) translate(2 0) translate(2 0) translate(2 0) translate(2 0) translate(2 0) translate(2 0) translate(2 0) translate(2 0) translate(2 0) translate(0 2)">
			
				<rect x="675.75" y="103.5" transform="matrix(0.7072 -0.7071 0.7071 0.7072 116.228 520.372)" fill="none" stroke="#000000" width="21.129" height="32.748"/>
			<text transform="matrix(-1.4142 -1.4142 1.4142 -1.4142 699.6093 124.3398)" font-family="'ArialMT'" font-size="9">AM</text>
		</g>
		<text transform="matrix(0.7071 -0.7071 0.7071 0.7071 395.6113 442.9219)" font-family="'ArialMT'" font-size="8">LENGTH</text>
		<g>
			<g>
				<line fill="none" stroke="#000000" stroke-miterlimit="8" x1="356.044" y1="466.959" x2="463.975" y2="359.029"/>
				<g>
					<polygon points="358.778,468.456 352.999,470.004 354.547,464.225 					"/>
				</g>
				<g>
					<polygon points="465.472,361.764 467.02,355.984 461.24,357.532 					"/>
				</g>
			</g>
		</g>
	</g>
</g>
<g id="example" display="none">
	<circle display="inline" fill="none" stroke="#80E0FF" stroke-width="2" cx="211.188" cy="537.319" r="10.229"/>
	<line display="inline" fill="none" stroke="#80E0FF" stroke-width="2" x1="211.188" y1="547.549" x2="211.188" y2="527.09"/>
	<line display="inline" fill="none" stroke="#80E0FF" stroke-width="2" x1="200.958" y1="537.319" x2="221.418" y2="537.319"/>
</g>
</svg>
