<?xml version="1.0" encoding="utf-8"?>
<!-- Generator: Adobe Illustrator 16.0.0, SVG Export Plug-In . SVG Version: 6.00 Build 0)  -->
<!DOCTYPE svg PUBLIC "-//W3C//DTD SVG 1.1//EN" "http://www.w3.org/Graphics/SVG/1.1/DTD/svg11.dtd">
<svg version="1.1" id="Version_1.0" xmlns="http://www.w3.org/2000/svg" xmlns:xlink="http://www.w3.org/1999/xlink" x="0px"
	 y="0px" width="612px" height="792px" viewBox="0 0 612 792" enable-background="new 0 0 612 792" xml:space="preserve">
<g id="main">
	<g>
		<path opacity="0.25" fill="none" stroke="#338888" stroke-width="70" stroke-linejoin="round" stroke-miterlimit="10" d="
			M202.939,236.063c44.775-20.58,93.418-31.86,144.268-31.86c53.439,0,104.44,12.459,151.077,35.076"/>
		<path fill="none" stroke="#338888" stroke-width="3" stroke-linejoin="round" stroke-miterlimit="10" d="M483.683,271.5
			c0,0-56.285-30.03-132.114-31.414c-86.957-1.587-134.399,28.834-134.399,28.834l-29.002-65.365c0,0,64.168-34.158,162.814-34.727
			c87.195-0.503,163.317,38.753,163.317,38.753L483.683,271.5z"/>
	</g>
</g>
<g id="template" display="none">
	<g display="inline">
		<g>
			<g>
				
					<line fill="none" stroke="#000000" stroke-width="2" stroke-miterlimit="10" x1="357.837" y1="541.79" x2="449.167" y2="505.5"/>
				<g>
					<polygon points="362.313,547.523 348.5,545.5 357.157,534.549 					"/>
				</g>
			</g>
		</g>
		<text transform="matrix(1 0 0 1 435.3975 485.873)" enable-background="new    "><tspan x="0" y="0" fill="#231F20" font-family="'ArialMT'" font-size="12">ANCHOR</tspan><tspan x="7.667" y="14.4" fill="#231F20" font-family="'ArialMT'" font-size="12">POINT</tspan></text>
	</g>
	<g display="inline">
		<g>
			<g>
				<path fill="none" stroke="#000000" stroke-width="2" stroke-miterlimit="8" d="M423.133,372.456
					c-0.86-0.527-1.717-1.045-2.57-1.555"/>
				<path fill="none" stroke="#000000" stroke-width="2" stroke-miterlimit="8" stroke-dasharray="5.7782,5.7782" d="
					M415.568,367.994c-21.844-12.355-41.639-18.684-63.242-16.333"/>
				<path fill="none" stroke="#000000" stroke-width="2" stroke-miterlimit="8" d="M349.461,352.023
					c-0.982,0.141-1.97,0.3-2.961,0.477"/>
				<g>
					<polygon points="424.175,368.5 428,375.5 420.025,375.313 					"/>
				</g>
			</g>
		</g>
		<text transform="matrix(0.9678 0.2518 -0.2518 0.9678 349.0068 326.0303)" enable-background="new    "><tspan x="0" y="0" font-family="'ArialMT'" font-size="12">STOP RELATIVE</tspan><tspan x="20.007" y="14.4" font-family="'ArialMT'" font-size="12">BEARING</tspan></text>
	</g>
	<g display="inline">
		<g>
			<line fill="none" stroke="#000000" stroke-width="2" stroke-linejoin="round" x1="345.5" y1="168" x2="345.508" y2="171"/>
			
				<line fill="none" stroke="#000000" stroke-width="2" stroke-linejoin="round" stroke-dasharray="6.0738,6.0738" x1="345.524" y1="177.074" x2="346.484" y2="538.463"/>
			<polyline fill="none" stroke="#000000" stroke-width="2" stroke-linejoin="round" points="346.492,541.5 346.5,544.5 
				347.842,541.816 			"/>
			
				<line fill="none" stroke="#000000" stroke-width="2" stroke-linejoin="round" stroke-dasharray="6.0783,6.0783" x1="350.56" y1="536.38" x2="512.299" y2="212.901"/>
			<line fill="none" stroke="#000000" stroke-width="2" stroke-linejoin="round" x1="513.658" y1="210.183" x2="515" y2="207.5"/>
		</g>
	</g>
	
		<line display="inline" fill="none" stroke="#231F20" stroke-width="2" stroke-linejoin="bevel" stroke-miterlimit="10" stroke-dasharray="6" x1="346.5" y1="545.5" x2="153" y2="545.5"/>
	<g display="inline">
		<g>
			
				<line fill="none" stroke="#231F20" stroke-width="2" stroke-linejoin="bevel" x1="191.167" y1="249.547" x2="191.167" y2="252.547"/>
			
				<line fill="none" stroke="#231F20" stroke-width="2" stroke-linejoin="bevel" stroke-dasharray="5.9129,5.9129" x1="191.167" y1="258.459" x2="191.167" y2="527.497"/>
			
				<line fill="none" stroke="#231F20" stroke-width="2" stroke-linejoin="bevel" x1="191.167" y1="530.453" x2="191.167" y2="533.453"/>
			<g>
				<polygon fill="#231F20" points="184.186,251.589 191.167,239.5 198.147,251.589 				"/>
			</g>
			<g>
				<polygon fill="#231F20" points="184.186,531.41 191.167,543.5 198.147,531.41 				"/>
			</g>
		</g>
	</g>
	
		<line display="inline" fill="none" stroke="#231F20" stroke-width="2" stroke-linejoin="bevel" stroke-miterlimit="10" stroke-dasharray="6" x1="345.5" y1="239.5" x2="191.5" y2="239.5"/>
	<g display="inline">
		<g>
			
				<line fill="none" stroke="#231F20" stroke-width="2" stroke-linejoin="bevel" stroke-dasharray="6,6" x1="154.167" y1="178.215" x2="154.167" y2="532.787"/>
			<g>
				<polygon fill="#231F20" points="147.186,180.257 154.167,168.168 161.147,180.257 				"/>
			</g>
			<g>
				<polygon fill="#231F20" points="147.186,530.744 154.167,542.834 161.147,530.744 				"/>
			</g>
		</g>
	</g>
	
		<line display="inline" fill="none" stroke="#231F20" stroke-width="2" stroke-linejoin="bevel" stroke-miterlimit="10" stroke-dasharray="6" x1="345.5" y1="168" x2="153.5" y2="168"/>
	<text transform="matrix(1 0 0 1 110.729 300.873)" display="inline" enable-background="new    "><tspan x="0" y="0" fill="#231F20" font-family="'ArialMT'" font-size="12">STOP</tspan><tspan x="-5.001" y="14.4" fill="#231F20" font-family="'ArialMT'" font-size="12">RANGE</tspan></text>
	<text transform="matrix(1 0 0 1 198.7314 363.2061)" display="inline" enable-background="new    "><tspan x="0" y="0" fill="#231F20" font-family="'ArialMT'" font-size="12">START</tspan><tspan x="-1.67" y="14.4" fill="#231F20" font-family="'ArialMT'" font-size="12">RANGE</tspan></text>
	<text transform="matrix(1 0 0 1 290.3936 471.2061)" display="inline" enable-background="new    "><tspan x="0" y="0" fill="#231F20" font-family="'ArialMT'" font-size="12">SEARCH</tspan><tspan x="11.332" y="14.4" fill="#231F20" font-family="'ArialMT'" font-size="12">AXIS</tspan></text>
	<g id="varT" display="inline">
		
			<rect x="324.667" y="173.711" fill="#FFFFFF" stroke="#000000" stroke-linecap="round" stroke-miterlimit="8" width="42.167" height="38.384"/>
		<text transform="matrix(1 0 0 1 334.4697 206.9082)" font-family="'ArialMT'" font-size="36">T</text>
	</g>
</g>
<g id="example" display="none">
	<text transform="matrix(1 0 0 1 330.3008 206.499)" display="inline" font-family="'MyriadPro-Regular'" font-size="36">FF</text>
	<circle display="inline" fill="none" stroke="#80E0FF" stroke-width="2" cx="346.438" cy="545.569" r="10.229"/>
	<line display="inline" fill="none" stroke="#80E0FF" stroke-width="2" x1="346.438" y1="555.799" x2="346.438" y2="535.34"/>
	<line display="inline" fill="none" stroke="#80E0FF" stroke-width="2" x1="336.208" y1="545.569" x2="356.668" y2="545.569"/>
</g>
</svg>
