<?xml version="1.0" encoding="utf-8"?>
<!-- Generator: Adobe Illustrator 16.0.0, SVG Export Plug-In . SVG Version: 6.00 Build 0)  -->
<!DOCTYPE svg PUBLIC "-//W3C//DTD SVG 1.1//EN" "http://www.w3.org/Graphics/SVG/1.1/DTD/svg11.dtd">
<svg version="1.1" id="Version_1.0" xmlns="http://www.w3.org/2000/svg" xmlns:xlink="http://www.w3.org/1999/xlink" x="0px"
	 y="0px" width="400px" height="400px" viewBox="0 0 400 400" enable-background="new 0 0 400 400" xml:space="preserve">
<g id="main">
	<path fill="none" stroke="#000000" stroke-width="5" stroke-linecap="round" stroke-linejoin="round" stroke-miterlimit="10" d="
		M200.755,64.883c-71.694,0-129.822,54.722-129.822,122.253c0,67.511,58.127,122.232,129.822,122.232
		c71.692,0,129.803-54.724,129.803-122.232C330.558,119.604,272.447,64.883,200.755,64.883"/>
</g>
<g id="template" display="none">
	<g id="varW1" display="inline">
		
			<rect x="210.635" y="226.777" fill="none" stroke="#000000" stroke-width="1.9921" stroke-linecap="round" stroke-miterlimit="8" width="65.342" height="52.051"/>
		<text transform="matrix(1 0 0 1 222.3477 261.8906)" font-family="sans-serif" font-size="28.0481">W1</text>
	</g>
	<g id="varW" display="inline">
		<text transform="matrix(1 0 0 1 193.0273 261.5586)" font-family="sans-serif" font-size="28.0481">-</text>
		
			<rect x="131.629" y="226.777" fill="none" stroke="#000000" stroke-width="1.9921" stroke-linecap="round" stroke-miterlimit="8" width="53.906" height="52.051"/>
		<text transform="matrix(1 0 0 1 145.5508 261.8906)" font-family="sans-serif" font-size="28.0481">W</text>
	</g>
	<g id="varN" display="inline">
		
			<rect x="168.802" y="108.17" fill="none" stroke="#000000" stroke-width="1.9921" stroke-linecap="round" stroke-miterlimit="8" width="53.267" height="50.876"/>
		<text transform="matrix(1 0 0 1 182.1748 147.2031)" font-family="sans-serif" font-size="37.2912">N</text>
	</g>
	<g id="varAM" display="inline">
		
			<rect x="246.491" y="135.143" fill="none" stroke="#000000" stroke-width="1.9921" stroke-linecap="round" stroke-miterlimit="8" width="58.05" height="38.646"/>
		<text transform="matrix(1 0 0 1 257.417 162.7646)" font-family="sans-serif" font-size="23.9046">AM</text>
	</g>
	<g id="points" display="inline">
		<text transform="matrix(1 0 0 1 211.5166 201.2988)" font-family="sans-serif" font-size="17.2113">R</text>
		<text transform="matrix(1 0 0 1 224.2559 201.2988)" font-family="sans-serif" font-size="17.2113">A</text>
		<text transform="matrix(1 0 0 1 236.0654 201.2988)" font-family="sans-serif" font-size="17.2113">DIUS </text>
		<text transform="matrix(1 0 0 1 281.9678 201.2988)" font-family="sans-serif" font-size="17.2113">(</text>
		<text transform="matrix(1 0 0 1 288.0098 201.2988)" font-family="sans-serif" font-size="17.2113">m</text>
		<text transform="matrix(1 0 0 1 303.002 201.2988)" font-family="sans-serif" font-size="17.2113">)</text>
		<text transform="matrix(1 0 0 1 309.0449 201.2988)" font-family="sans-serif" font-size="17.2113">   </text>
		<path stroke="#000000" stroke-width="0.3187" stroke-linejoin="bevel" stroke-miterlimit="10" d="M203.064,333.152l-0.102-135.458
			c0-0.738,0.6-1.336,1.314-1.336c0.734,0,1.336,0.598,1.336,1.336l0.119,135.458c0,0.738-0.601,1.313-1.338,1.313
			C203.662,334.468,203.064,333.891,203.064,333.152L203.064,333.152z M196.332,200.342l7.93-26.553l8.008,26.553H196.332z"/>
		<path stroke="#000000" stroke-width="0.3187" stroke-linejoin="bevel" stroke-miterlimit="10" d="M205.335,175.243l111.955,0.119
			c0.736,0,1.332,0.598,1.315,1.334c0,0.737-0.579,1.314-1.315,1.314l-111.955-0.119c-0.735,0-1.333-0.579-1.333-1.315
			C204.002,175.841,204.6,175.243,205.335,175.243L205.335,175.243z M314.639,168.728l15.919,7.969l-15.938,7.968L314.639,168.728z"
			/>
		<text transform="matrix(1 0 0 1 87.2207 365.7891)" font-family="sans-serif" font-size="26.4544">C</text>
		<text transform="matrix(1 0 0 1 106.3247 365.7891)" font-family="sans-serif" font-size="26.4544">E</text>
		<text transform="matrix(1 0 0 1 123.8647 365.7891)" font-family="sans-serif" font-size="26.4544">N</text>
		<text transform="matrix(1 0 0 1 142.9688 365.7891)" font-family="sans-serif" font-size="26.4544">T</text>
		<text transform="matrix(1 0 0 1 159.5249 365.7891)" font-family="sans-serif" font-size="26.4544">E</text>
		<text transform="matrix(1 0 0 1 177.0635 365.7891)" font-family="sans-serif" font-size="26.4544">R </text>
		<text transform="matrix(1 0 0 1 203.5186 365.7891)" font-family="sans-serif" font-size="26.4544">P</text>
		<text transform="matrix(1 0 0 1 221.0576 365.7891)" font-family="sans-serif" font-size="26.4544">O</text>
		<text transform="matrix(1 0 0 1 241.7666 365.7891)" font-family="sans-serif" font-size="26.4544">I</text>
		<text transform="matrix(1 0 0 1 249.4082 365.7891)" font-family="sans-serif" font-size="26.4544">NT</text>
	</g>
</g>
<g id="example" display="none">
	<text id="VarWeW1E" transform="matrix(1 0 0 1 113.5508 235.8906)" display="inline" enable-background="new    "><tspan x="0" y="0" font-family="sans-serif" font-size="24">051030ZAPR08 – </tspan><tspan x="0" y="28.8" font-family="sans-serif" font-size="24">051600ZAPR08</tspan></text>
	<text id="varAMe" transform="matrix(1 0 0 1 257.417 162.7646)" display="inline" font-family="sans-serif" font-size="23.9046"> </text>
	<text id="varNe" transform="matrix(1 0 0 1 182.1748 147.2031)" display="inline" font-family="sans-serif" font-size="37.2912">N</text>
</g>
</svg>
