<?xml version="1.0" encoding="utf-8"?>
<!-- Generator: Adobe Illustrator 16.0.0, SVG Export Plug-In . SVG Version: 6.00 Build 0)  -->
<!DOCTYPE svg PUBLIC "-//W3C//DTD SVG 1.1//EN" "http://www.w3.org/Graphics/SVG/1.1/DTD/svg11.dtd">
<svg version="1.1" id="Version_1.0" xmlns="http://www.w3.org/2000/svg" xmlns:xlink="http://www.w3.org/1999/xlink" x="0px"
	 y="0px" width="400px" height="400px" viewBox="0 0 400 400" enable-background="new 0 0 400 400" xml:space="preserve">
<g id="main">
	
		<rect x="34.984" y="126.099" fill="none" stroke="#000000" stroke-width="5" stroke-linecap="round" stroke-miterlimit="8" width="259.454" height="145.54"/>
	<text transform="matrix(1 0 0 1 101.6646 211.6875)" font-family="sans-serif" font-size="36">DA -</text>
</g>
<g id="template" display="none">
	<g id="varT" display="inline">
		
			<rect x="178.15" y="176.803" fill="none" stroke="#000000" stroke-width="1.9208" stroke-linecap="round" stroke-miterlimit="8" width="42.946" height="44.438"/>
		<text transform="matrix(1 0 0 1 187.4263 211.75)" font-family="sans-serif" font-size="36">T</text>
	</g>
	<g id="varAM" display="inline">
		
			<rect x="323.267" y="117.62" fill="none" stroke="#000000" stroke-width="2.1197" stroke-linecap="round" stroke-miterlimit="8" width="49.75" height="34.042"/>
		<text transform="matrix(1 0 0 1 326.3721 144.8936)" font-family="sans-serif" font-size="28.1499">AM</text>
	</g>
	<g id="points" display="inline">
		<path stroke="#000000" stroke-width="0.3392" stroke-linejoin="bevel" stroke-miterlimit="10" d="M311.967,140.217v109.377
			c0,0.783-0.635,1.422-1.419,1.422c-0.764,0-1.397-0.639-1.397-1.422V140.217c0-0.764,0.636-1.399,1.397-1.399
			C311.332,138.817,311.967,139.453,311.967,140.217L311.967,140.217z M302.068,143.057l8.479-16.958l8.479,16.958H302.068z
			 M319.027,246.775l-8.479,16.957l-8.479-16.957H319.027z"/>
		<g>
			<text transform="matrix(1 0 0 1 324.8145 268.9863)" font-family="sans-serif" font-size="16.9578">(m)</text>
			<text transform="matrix(1 0 0 1 330.9082 249.0039)" font-family="sans-serif" font-size="16.9578">H</text>
			<text transform="matrix(1 0 0 1 331.9473 229.6816)" font-family="sans-serif" font-size="16.9578">T</text>
			<text transform="matrix(1 0 0 1 330.9082 210.0078)" font-family="sans-serif" font-size="16.9578">D</text>
			<text transform="matrix(1 0 0 1 334.3086 190.6465)" font-family="sans-serif" font-size="16.9578">I</text>
			<text transform="matrix(1 0 0 1 329.209 171.3242)" font-family="sans-serif" font-size="16.9578">W</text>
		</g>
		<path stroke="#000000" stroke-width="0.3392" stroke-linejoin="bevel" stroke-miterlimit="10" d="M56.668,218.287l-13.735-16.535
			c-0.51-0.613-0.425-1.506,0.19-1.993c0.593-0.51,1.483-0.424,1.993,0.19l13.714,16.533c0.508,0.595,0.424,1.484-0.191,1.994
			C58.046,218.965,57.155,218.879,56.668,218.287L56.668,218.287z M39.308,208.43l-4.324-18.463l17.36,7.63L39.308,208.43z"/>
		<text transform="matrix(1 0 0 1 231.1934 236.793)" font-family="sans-serif" font-size="16.9578">PT 2</text>
		<text transform="matrix(1 0 0 1 42.2954 232.375)" font-family="sans-serif" font-size="16.9578">PT 1</text>
		<path stroke="#000000" stroke-width="0.3392" stroke-linejoin="bevel" stroke-miterlimit="10" d="M256.854,216.252l25.418-18.973
			c0.637-0.466,1.526-0.339,1.994,0.298c0.465,0.614,0.336,1.505-0.3,1.972l-25.415,18.971c-0.637,0.465-1.506,0.338-1.97-0.297
			C256.114,217.607,256.24,216.718,256.854,216.252L256.854,216.252z M275.784,193.316l18.653-3.349l-8.521,16.938L275.784,193.316z
			"/>
	</g>
</g>
<g id="example" display="none">
	<text id="varTe" transform="matrix(1 0 0 1 118.4097 211.75)" display="inline" font-family="sans-serif" font-size="36">DA - 1</text>
</g>
<g id="example2" display="none">
	
		<rect x="34.984" y="126.099" display="inline" fill="none" stroke="#557788" stroke-width="5" stroke-linecap="round" stroke-miterlimit="8" width="259.454" height="145.54"/>
	<rect x="34.984" y="126.099" display="inline" opacity="0.25" fill="#557788" width="259.454" height="145.54"/>
	<text id="varTe_1_" transform="matrix(1 0 0 1 118.4097 211.75)" display="inline" font-family="sans-serif" font-size="36">DA - 1</text>
</g>
</svg>
