<?xml version="1.0" encoding="utf-8"?>
<!-- Generator: Adobe Illustrator 16.0.0, SVG Export Plug-In . SVG Version: 6.00 Build 0)  -->
<!DOCTYPE svg PUBLIC "-//W3C//DTD SVG 1.1//EN" "http://www.w3.org/Graphics/SVG/1.1/DTD/svg11.dtd">
<svg version="1.1" id="Version_1.0" xmlns="http://www.w3.org/2000/svg" xmlns:xlink="http://www.w3.org/1999/xlink" x="0px"
	 y="0px" width="612px" height="792px" viewBox="0 0 612 792" enable-background="new 0 0 612 792" xml:space="preserve">
<g id="main">
	<g>
		
			<line fill="none" stroke="#000000" stroke-width="5.6879" stroke-linejoin="round" stroke-miterlimit="10" x1="307.263" y1="291.127" x2="307.409" y2="489.097"/>
		
			<line fill="none" stroke="#000000" stroke-width="5.6879" stroke-linejoin="round" stroke-miterlimit="10" x1="228.589" y1="480.853" x2="390.643" y2="305.741"/>
		
			<line fill="none" stroke="#000000" stroke-width="5.6879" stroke-linejoin="round" stroke-miterlimit="10" x1="217.234" y1="305.741" x2="390.643" y2="480.853"/>
	</g>
	<g>
		
			<line fill="none" stroke="#000000" stroke-width="5.6879" stroke-linejoin="round" stroke-miterlimit="10" x1="257.286" y1="412.556" x2="276.585" y2="376.042"/>
		
			<line fill="none" stroke="#000000" stroke-width="5.6879" stroke-linejoin="round" stroke-miterlimit="10" x1="275.309" y1="376.042" x2="294.481" y2="412.556"/>
		
			<line fill="none" stroke="#000000" stroke-width="5.6879" stroke-linejoin="round" stroke-miterlimit="10" x1="292.776" y1="412.556" x2="312.098" y2="376.042"/>
		
			<line fill="none" stroke="#000000" stroke-width="5.6879" stroke-linejoin="round" stroke-miterlimit="10" x1="310.819" y1="376.042" x2="329.993" y2="412.556"/>
		
			<line fill="none" stroke="#000000" stroke-width="5.6879" stroke-linejoin="round" stroke-miterlimit="10" x1="328.99" y1="412.683" x2="348.313" y2="376.191"/>
		
			<line fill="none" stroke="#000000" stroke-width="5.6879" stroke-linejoin="round" stroke-miterlimit="10" x1="347.034" y1="376.191" x2="366.208" y2="412.683"/>
		
			<line fill="none" stroke="#000000" stroke-width="5.6879" stroke-linejoin="round" stroke-miterlimit="10" x1="365.206" y1="412.683" x2="384.528" y2="376.191"/>
		
			<line fill="none" stroke="#000000" stroke-width="5.6879" stroke-linejoin="round" stroke-miterlimit="10" x1="383.251" y1="376.191" x2="402.423" y2="412.683"/>
		
			<line fill="none" stroke="#000000" stroke-width="5.6879" stroke-linejoin="round" stroke-miterlimit="10" x1="221.773" y1="411.832" x2="241.094" y2="375.338"/>
		
			<line fill="none" stroke="#000000" stroke-width="5.6879" stroke-linejoin="round" stroke-miterlimit="10" x1="239.816" y1="375.338" x2="258.989" y2="411.832"/>
	</g>
	<text transform="matrix(1 0 0 1 212.0571 568.6738)" font-family="sans-serif" font-size="85.2126">MAD</text>
</g>
<g id="template" display="none">
	<text transform="matrix(1 0 0 1 166.7661 296.7324)" display="inline" font-family="sans-serif" font-size="28.2906">POINT</text>
	<text transform="matrix(1 0 0 1 166.7661 262.9795)" display="inline" font-family="sans-serif" font-size="28.2906">CENTER</text>
	<path display="inline" stroke="#000000" stroke-width="0.3409" stroke-linejoin="bevel" stroke-miterlimit="10" d="M298.378,381.41
		l-44.523-94.799c-0.319-0.704-0.021-1.555,0.682-1.896c0.724-0.319,1.555-0.021,1.896,0.681l44.521,94.799
		c0.342,0.725,0.022,1.556-0.68,1.897C299.572,382.433,298.719,382.113,298.378,381.41L298.378,381.41z M306.175,374.614
		l-0.469,19.045l-14.958-11.801L306.175,374.614z"/>
</g>
</svg>
