<?xml version="1.0" encoding="utf-8"?>
<!-- Generator: Adobe Illustrator 16.0.0, SVG Export Plug-In . SVG Version: 6.00 Build 0)  -->
<!DOCTYPE svg PUBLIC "-//W3C//DTD SVG 1.1//EN" "http://www.w3.org/Graphics/SVG/1.1/DTD/svg11.dtd">
<svg version="1.1" id="Version_1.0" xmlns="http://www.w3.org/2000/svg" xmlns:xlink="http://www.w3.org/1999/xlink" x="0px"
	 y="0px" width="612px" height="792px" viewBox="0 0 612 792" enable-background="new 0 0 612 792" xml:space="preserve">
<g id="main" transform="translate(277 242) translate(21.5705 15.375) scale(1 9.13008) translate(-21.5705 -15.375) translate(5.68434e-014 7.6875) scale(4.87103 1) translate(-5.68434e-014 -7.6875) translate(21.5705 9.45424e-017) scale(1 0.67943) translate(-21.5705 -9.45424e-017) translate(-0.615886 7.73788) translate(-1.02648 1.77326)">
	<path d="M16.654,48.911L-5.081,35.772l21.735-13.767V48.911z M18.018,22.004l40.321,13.768L18.017,48.911L18.018,22.004
		L18.018,22.004z M70.416,40.407l-12.075-4.621l12.075-5.042V40.407z"/>
</g>
<g id="template" transform="translate(186 53)" display="none">
	<line display="inline" fill="none" stroke="#000000" stroke-width="2" x1="58.255" y1="404.754" x2="58.255" y2="464.254"/>
	<line display="inline" fill="none" stroke="#000000" stroke-width="2" x1="56.943" y1="464.254" x2="93.255" y2="464.254"/>
	<polygon display="inline" stroke="#000000" stroke-width="2" points="58.255,389.004 70.504,410.004 46.005,410.004 	"/>
	<text transform="matrix(1 0 0 1 98.5049 453.7539)" display="inline" font-family="sans-serif" font-size="20.9989">ANCHOR</text>
	<text transform="matrix(1 0 0 1 112.5049 476.5039)" display="inline" font-family="sans-serif" font-size="20.9989">POINT</text>
</g>
</svg>
