<?xml version="1.0" encoding="utf-8"?>
<!-- Generator: Adobe Illustrator 16.0.0, SVG Export Plug-In . SVG Version: 6.00 Build 0)  -->
<!DOCTYPE svg PUBLIC "-//W3C//DTD SVG 1.1//EN" "http://www.w3.org/Graphics/SVG/1.1/DTD/svg11.dtd">
<svg version="1.1" id="Version_1.0" xmlns="http://www.w3.org/2000/svg" xmlns:xlink="http://www.w3.org/1999/xlink" x="0px"
	 y="0px" width="612px" height="792px" viewBox="0 0 612 792" enable-background="new 0 0 612 792" xml:space="preserve">
<g id="main">
	
		<polyline fill="none" stroke="#000000" stroke-width="5" stroke-linecap="round" stroke-linejoin="round" stroke-miterlimit="10" points="
		386.167,339 386.167,484.5 230.167,484.5 230.167,339 211.667,338.5 211.667,302 250.667,302 250.667,320 288.167,320 288.251,302 
		327.417,302 327.167,321.008 365.167,321 366.167,303.167 403.667,303.167 403.667,338.5 386.167,339 	"/>
	
		<rect x="292.167" y="423.5" fill="none" stroke="#000000" stroke-width="5" stroke-linecap="round" stroke-miterlimit="10" width="32" height="61"/>
</g>
<g id="template" transform="translate(150 118)" display="none">
	<g display="inline">
		
			<rect x="5.983" y="179" fill="none" stroke="#000000" stroke-width="2.6622" stroke-linecap="round" stroke-miterlimit="8" width="44.223" height="43.748"/>
		<text transform="matrix(1 0 0 1 15.8638 215.7715)" font-family="sans-serif" font-size="40">T</text>
	</g>
	<g display="inline">
		
			<line fill="none" stroke="#000000" stroke-width="5" stroke-linejoin="bevel" stroke-miterlimit="10" x1="142.144" y1="155.921" x2="151.783" y2="244.684"/>
		<polygon points="140.284,238.458 155.5,277.698 161.942,236.106 		"/>
	</g>
	<text transform="matrix(1 0 0 1 50.2056 152.8994)" display="inline" font-family="sans-serif" font-size="25.1329">CENTER POINT</text>
</g>
<g id="example" display="none">
	<text id="varTe" transform="matrix(1 0 0 1 107.938 333.7715)" display="inline" font-family="sans-serif" font-size="40">3FLT</text>
</g>
</svg>
