<?xml version="1.0" encoding="utf-8"?>
<!-- Generator: Adobe Illustrator 16.0.0, SVG Export Plug-In . SVG Version: 6.00 Build 0)  -->
<!DOCTYPE svg PUBLIC "-//W3C//DTD SVG 1.1//EN" "http://www.w3.org/Graphics/SVG/1.1/DTD/svg11.dtd">
<svg version="1.1" id="Version_1.0" xmlns="http://www.w3.org/2000/svg" xmlns:xlink="http://www.w3.org/1999/xlink" x="0px"
	 y="0px" width="612px" height="792px" viewBox="0 0 612 792" enable-background="new 0 0 612 792" xml:space="preserve">
<g id="main">
	<path d="M430.053,384.832c0,6.627-5.373,12-12,12h-226c-6.627,0-12-5.373-12-12v-42c0-6.627,5.373-12,12-12h226
		c6.627,0,12,5.373,12,12V384.832z"/>
	<line fill="none" stroke="#000000" stroke-width="10" x1="430.053" y1="363.832" x2="452.053" y2="363.832"/>
	<line fill="none" stroke="#000000" stroke-width="10" x1="454.053" y1="331.832" x2="454.053" y2="393.332"/>
</g>
<g id="template" display="none">
	<g id="VarH" display="inline">
		<text transform="matrix(1 0 0 1 293.0537 312.832)" font-family="sans-serif" font-size="36">H</text>
		<rect x="281.053" y="275.832" fill="none" stroke="#000000" stroke-width="5" width="49.553" height="49.553"/>
	</g>
	<g id="points" display="inline">
		<text transform="matrix(1 0 0 1 245.0527 508.832)" font-family="sans-serif" font-size="36">ANCHOR</text>
		<text transform="matrix(1 0 0 1 245.0527 552.0322)" font-family="sans-serif" font-size="36">POINT</text>
		<g>
			<g>
				<line fill="none" stroke="#000000" stroke-width="5" x1="305.053" y1="479.947" x2="305.053" y2="429.832"/>
				<polygon points="315.812,437.264 304.921,396.609 294.026,437.264 				"/>
			</g>
		</g>
	</g>
</g>
<g id="example" display="none">
	<text id="varHe" transform="matrix(1 0 0 1 266.0088 312.832)" display="inline" font-family="sans-serif" font-size="36">99:99</text>
</g>
</svg>
