<?xml version="1.0" encoding="utf-8"?>
<!-- Generator: Adobe Illustrator 16.0.0, SVG Export Plug-In . SVG Version: 6.00 Build 0)  -->
<!DOCTYPE svg PUBLIC "-//W3C//DTD SVG 1.1//EN" "http://www.w3.org/Graphics/SVG/1.1/DTD/svg11.dtd">
<svg version="1.1" id="Version_1.0" xmlns="http://www.w3.org/2000/svg" xmlns:xlink="http://www.w3.org/1999/xlink" x="0px"
	 y="0px" width="612px" height="792px" viewBox="0 0 612 792" enable-background="new 0 0 612 792" xml:space="preserve">
<g id="main">
	<polygon fill="none" stroke="#000000" stroke-width="5" points="359.726,377.468 381.393,398.468 359.726,418.468 363.393,438.802 
		342.06,429.802 338.393,456.468 321.06,426.802 306.994,468.135 292.06,436.468 280.726,453.135 269.06,421.468 246.393,431.135 
		254.727,415.135 231.393,394.135 256.393,375.135 253.06,343.837 272.726,357.801 278.393,333.135 296.06,362.135 303.727,323.943 
		316.393,354.135 335.06,331.801 339.06,360.25 359.726,344.521 	"/>
	<line fill="none" stroke="#000000" stroke-width="5" x1="231.393" y1="487.802" x2="381.393" y2="487.802"/>
</g>
<g id="template" display="none">
	<g id="varX" display="inline">
		
			<rect x="372.262" y="296.86" fill="none" stroke="#000000" stroke-width="2.1727" stroke-linecap="round" stroke-miterlimit="8" width="49.975" height="54.166"/>
		<text transform="matrix(1 0 0 1 386.2734 333.6582)" font-family="sans-serif" font-size="28.8541">X</text>
	</g>
	<g id="points" display="inline">
		<text transform="matrix(1 0 0 1 140.7632 301.3281)" font-family="serif" font-size="28.8541">CENTER</text>
		<text transform="matrix(1 0 0 1 140.7632 334.7109)" font-family="serif" font-size="28.8541">POINT</text>
		<path stroke="#000000" stroke-width="0.3476" stroke-linejoin="bevel" stroke-miterlimit="10" d="M223.931,339.901l71.157,46.282
			l-3.171,4.866l-71.137-46.281L223.931,339.901L223.931,339.901z M295.807,379.749l9.842,16.751l-19.316-2.173L295.807,379.749
			L295.807,379.749z"/>
	</g>
</g>
<g id="example" display="none">
	<text transform="matrix(1 0 0 1 370.2734 333.6582)" display="inline" font-family="sans-serif" font-size="28.8541">965FT AGL</text>
</g>
</svg>
