<?xml version="1.0" encoding="utf-8"?>
<!-- Generator: Adobe Illustrator 16.0.0, SVG Export Plug-In . SVG Version: 6.00 Build 0)  -->
<!DOCTYPE svg PUBLIC "-//W3C//DTD SVG 1.1//EN" "http://www.w3.org/Graphics/SVG/1.1/DTD/svg11.dtd">
<svg version="1.1" id="Version_1.0" xmlns="http://www.w3.org/2000/svg" xmlns:xlink="http://www.w3.org/1999/xlink" x="0px"
	 y="0px" width="612px" height="792px" viewBox="0 0 612 792" enable-background="new 0 0 612 792" xml:space="preserve">
<g id="main">
	
		<line fill="none" stroke="#000000" stroke-width="5.6879" stroke-linejoin="round" stroke-miterlimit="10" x1="305.616" y1="291.968" x2="305.763" y2="489.938"/>
	
		<line fill="none" stroke="#000000" stroke-width="5.6879" stroke-linejoin="round" stroke-miterlimit="10" x1="200.19" y1="395.953" x2="411.19" y2="395.953"/>
</g>
<g id="template" display="none">
	<text transform="matrix(1 0 0 1 167.1099 298.5732)" display="inline" font-family="sans-serif" font-size="28.2906">P</text>
	<text transform="matrix(1 0 0 1 185.8657 298.5732)" display="inline" font-family="sans-serif" font-size="28.2906">O</text>
	<text transform="matrix(1 0 0 1 208.0127 298.5732)" display="inline" font-family="sans-serif" font-size="28.2906">IN</text>
	<text transform="matrix(1 0 0 1 236.3037 298.5732)" display="inline" font-family="sans-serif" font-size="28.2906">T</text>
	<text transform="matrix(1 0 0 1 254.0088 298.5732)" display="inline" font-family="sans-serif" font-size="28.2906">  </text>
	<text transform="matrix(1 0 0 1 167.1099 264.8203)" display="inline" font-family="sans-serif" font-size="28.2906">C</text>
	<text transform="matrix(1 0 0 1 187.541 264.8203)" display="inline" font-family="sans-serif" font-size="28.2906">E</text>
	<text transform="matrix(1 0 0 1 206.2969 264.8203)" display="inline" font-family="sans-serif" font-size="28.2906">N</text>
	<text transform="matrix(1 0 0 1 226.728 264.8203)" display="inline" font-family="sans-serif" font-size="28.2906">T</text>
	<text transform="matrix(1 0 0 1 244.4331 264.8203)" display="inline" font-family="sans-serif" font-size="28.2906">E</text>
	<text transform="matrix(1 0 0 1 263.189 264.8203)" display="inline" font-family="sans-serif" font-size="28.2906">R </text>
	<path display="inline" stroke="#000000" stroke-width="0.3409" stroke-linejoin="bevel" stroke-miterlimit="10" d="
		M298.722,383.252l-44.522-94.799c-0.319-0.704-0.021-1.555,0.682-1.896c0.724-0.319,1.555-0.021,1.896,0.681l44.521,94.799
		c0.342,0.725,0.023,1.555-0.68,1.896C299.917,384.273,299.063,383.954,298.722,383.252L298.722,383.252z M306.519,376.455
		L306.05,395.5l-14.957-11.801L306.519,376.455z"/>
</g>
</svg>
