<?xml version="1.0" encoding="utf-8"?>
<!-- Generator: Adobe Illustrator 16.0.0, SVG Export Plug-In . SVG Version: 6.00 Build 0)  -->
<!DOCTYPE svg PUBLIC "-//W3C//DTD SVG 1.1//EN" "http://www.w3.org/Graphics/SVG/1.1/DTD/svg11.dtd">
<svg version="1.1" id="Version_1.0" xmlns="http://www.w3.org/2000/svg" xmlns:xlink="http://www.w3.org/1999/xlink" x="0px"
	 y="0px" width="612px" height="792px" viewBox="0 0 612 792" enable-background="new 0 0 612 792" xml:space="preserve">
<g id="main">
	
		<line fill="none" stroke="#000000" stroke-width="5.9166" stroke-linejoin="round" stroke-miterlimit="10" x1="304.602" y1="293.921" x2="304.757" y2="498.078"/>
	<path d="M304.757,375.625c-11.257,0-20.386,9.129-20.386,20.387c0,11.257,9.129,20.387,20.386,20.387s20.388-9.13,20.388-20.387
		C325.145,384.753,316.014,375.625,304.757,375.625"/>
</g>
<g id="template" display="none">
	<text transform="matrix(1 0 0 1 388.2344 398.8135)" display="inline" font-family="sans-serif" font-size="29.4278">P</text>
	<text transform="matrix(1 0 0 1 407.7461 398.8135)" display="inline" font-family="sans-serif" font-size="29.4278">O</text>
	<text transform="matrix(1 0 0 1 430.7832 398.8135)" display="inline" font-family="sans-serif" font-size="29.4278">IN</text>
	<text transform="matrix(1 0 0 1 460.2109 398.8135)" display="inline" font-family="sans-serif" font-size="29.4278">T</text>
	<text transform="matrix(1 0 0 1 478.627 398.8135)" display="inline" font-family="sans-serif" font-size="29.4278">  </text>
	<text transform="matrix(1 0 0 1 388.2344 363.7275)" display="inline" font-family="sans-serif" font-size="29.4278">C</text>
	<text transform="matrix(1 0 0 1 409.4863 363.7275)" display="inline" font-family="sans-serif" font-size="29.4278">E</text>
	<text transform="matrix(1 0 0 1 428.998 363.7275)" display="inline" font-family="sans-serif" font-size="29.4278">N</text>
	<text transform="matrix(1 0 0 1 450.248 363.7275)" display="inline" font-family="sans-serif" font-size="29.4278">T</text>
	<text transform="matrix(1 0 0 1 468.666 363.7275)" display="inline" font-family="sans-serif" font-size="29.4278">E</text>
	<text transform="matrix(1 0 0 1 488.1758 363.7275)" display="inline" font-family="sans-serif" font-size="29.4278">R </text>
	<path display="inline" fill="#FFFFFF" stroke="#FFFFFF" stroke-width="0.3546" stroke-linejoin="bevel" stroke-miterlimit="10" d="
		M328.023,393.86l-7.91,1.839l-1.352-5.762l7.934-1.839L328.023,393.86L328.023,393.86z M324.322,400.774l-19.277-4.631
		l15.268-12.631L324.322,400.774L324.322,400.774z"/>
	
		<line display="inline" fill="none" stroke="#000000" stroke-width="5" stroke-linejoin="bevel" stroke-miterlimit="10" x1="326.695" y1="391.1" x2="383.402" y2="373.566"/>
</g>
</svg>
