<?xml version="1.0" encoding="utf-8"?>
<!-- Generator: Adobe Illustrator 16.0.0, SVG Export Plug-In . SVG Version: 6.00 Build 0)  -->
<!DOCTYPE svg PUBLIC "-//W3C//DTD SVG 1.1//EN" "http://www.w3.org/Graphics/SVG/1.1/DTD/svg11.dtd">
<svg version="1.1" id="Version_1.0" xmlns="http://www.w3.org/2000/svg" xmlns:xlink="http://www.w3.org/1999/xlink" x="0px"
	 y="0px" width="612px" height="792px" viewBox="0 0 612 792" enable-background="new 0 0 612 792" xml:space="preserve">
<g id="main">
	<polygon points="305.674,394.595 283.208,504.115 328.14,504.115 	"/>
	<polygon points="305.674,394.595 328.14,287.884 283.208,287.884 	"/>
	<polygon points="305.674,394.595 198.961,372.129 198.961,417.061 	"/>
	<polygon points="305.674,394.595 415.195,417.061 415.195,372.129 	"/>
</g>
<g id="template" display="none">
	<text transform="matrix(1 0 0 1 406.3086 498.0098)" display="inline" font-family="sans-serif" font-size="24.5599">P</text>
	<text transform="matrix(1 0 0 1 422.6895 498.0098)" display="inline" font-family="sans-serif" font-size="24.5599">O</text>
	<text transform="matrix(1 0 0 1 441.6953 498.0098)" display="inline" font-family="sans-serif" font-size="24.5599">I</text>
	<text transform="matrix(1 0 0 1 448.5664 498.0098)" display="inline" font-family="sans-serif" font-size="24.5599">N</text>
	<text transform="matrix(1 0 0 1 466.2539 498.0098)" display="inline" font-family="sans-serif" font-size="24.5599">T</text>
	<text transform="matrix(1 0 0 1 406.3086 468.5234)" display="inline" font-family="sans-serif" font-size="24.5599">C</text>
	<text transform="matrix(1 0 0 1 423.9961 468.5234)" display="inline" font-family="sans-serif" font-size="24.5599">E</text>
	<text transform="matrix(1 0 0 1 440.377 468.5234)" display="inline" font-family="sans-serif" font-size="24.5599">N</text>
	<text transform="matrix(1 0 0 1 458.0645 468.5234)" display="inline" font-family="sans-serif" font-size="24.5599">T</text>
	<text transform="matrix(1 0 0 1 473.1152 468.5234)" display="inline" font-family="sans-serif" font-size="24.5599">E</text>
	<text transform="matrix(1 0 0 1 489.4961 468.5234)" display="inline" font-family="sans-serif" font-size="24.5599">R</text>
	<text transform="matrix(1 0 0 1 507.1836 468.5234)" display="inline" font-family="sans-serif" font-size="24.5599"> </text>
	<path display="inline" stroke="#000000" stroke-width="0.3275" stroke-linejoin="bevel" stroke-miterlimit="10" d="
		M404.621,473.654l-88.288-68.707l1.671-2.174l88.305,68.715L404.621,473.654L404.621,473.654z M314.289,411.996l-7.888-16.509
		l17.941,3.585L314.289,411.996L314.289,411.996z"/>
</g>
</svg>
