<?xml version="1.0" encoding="utf-8"?>
<!-- Generator: Adobe Illustrator 16.0.0, SVG Export Plug-In . SVG Version: 6.00 Build 0)  -->
<!DOCTYPE svg PUBLIC "-//W3C//DTD SVG 1.1//EN" "http://www.w3.org/Graphics/SVG/1.1/DTD/svg11.dtd">
<svg version="1.1" id="Version_1.0" xmlns="http://www.w3.org/2000/svg" xmlns:xlink="http://www.w3.org/1999/xlink" x="0px"
	 y="0px" width="612px" height="792px" viewBox="0 0 612 792" enable-background="new 0 0 612 792" xml:space="preserve">
<g id="main">
	
		<line fill="none" stroke="#000000" stroke-width="5.6879" stroke-linejoin="round" stroke-miterlimit="10" x1="305.692" y1="291.895" x2="305.839" y2="489.864"/>
	
		<line fill="none" stroke="#000000" stroke-width="5.6879" stroke-linejoin="round" stroke-miterlimit="10" x1="227.019" y1="481.62" x2="389.072" y2="306.509"/>
	
		<line fill="none" stroke="#000000" stroke-width="5.6879" stroke-linejoin="round" stroke-miterlimit="10" x1="215.664" y1="306.509" x2="389.072" y2="481.62"/>
	
		<ellipse fill="none" stroke="#000000" stroke-width="5.6879" stroke-linejoin="round" stroke-miterlimit="10" cx="307.286" cy="400.126" rx="101" ry="19.75"/>
</g>
<g id="template" display="none">
	<text transform="matrix(1 0 0 1 165.1958 297.5)" display="inline" font-family="sans-serif" font-size="28.2906">P</text>
	<text transform="matrix(1 0 0 1 183.9517 297.5)" display="inline" font-family="sans-serif" font-size="28.2906">O</text>
	<text transform="matrix(1 0 0 1 206.0986 297.5)" display="inline" font-family="sans-serif" font-size="28.2906">IN</text>
	<text transform="matrix(1 0 0 1 234.3896 297.5)" display="inline" font-family="sans-serif" font-size="28.2906">T</text>
	<text transform="matrix(1 0 0 1 252.0947 297.5)" display="inline" font-family="sans-serif" font-size="28.2906">  </text>
	<text transform="matrix(1 0 0 1 165.1958 263.7471)" display="inline" font-family="sans-serif" font-size="28.2906">C</text>
	<text transform="matrix(1 0 0 1 185.627 263.7471)" display="inline" font-family="sans-serif" font-size="28.2906">E</text>
	<text transform="matrix(1 0 0 1 204.3828 263.7471)" display="inline" font-family="sans-serif" font-size="28.2906">N</text>
	<text transform="matrix(1 0 0 1 224.814 263.7471)" display="inline" font-family="sans-serif" font-size="28.2906">T</text>
	<text transform="matrix(1 0 0 1 242.519 263.7471)" display="inline" font-family="sans-serif" font-size="28.2906">E</text>
	<text transform="matrix(1 0 0 1 261.2749 263.7471)" display="inline" font-family="sans-serif" font-size="28.2906">R </text>
	<path display="inline" stroke="#000000" stroke-width="0.3409" stroke-linejoin="bevel" stroke-miterlimit="10" d="
		M296.808,382.179l-44.522-94.799c-0.319-0.704-0.021-1.555,0.682-1.896c0.724-0.319,1.555-0.021,1.896,0.681l44.521,94.799
		c0.342,0.725,0.023,1.555-0.68,1.896C298.003,383.2,297.149,382.881,296.808,382.179L296.808,382.179z M304.604,375.382
		l-0.469,19.045l-14.957-11.801L304.604,375.382z"/>
</g>
</svg>
