<?xml version="1.0" encoding="utf-8"?>
<!-- Generator: Adobe Illustrator 16.0.0, SVG Export Plug-In . SVG Version: 6.00 Build 0)  -->
<!DOCTYPE svg PUBLIC "-//W3C//DTD SVG 1.1//EN" "http://www.w3.org/Graphics/SVG/1.1/DTD/svg11.dtd">
<svg version="1.1" id="Version_1.0" xmlns="http://www.w3.org/2000/svg" xmlns:xlink="http://www.w3.org/1999/xlink" x="0px"
	 y="0px" width="612px" height="792px" viewBox="0 0 612 792" enable-background="new 0 0 612 792" xml:space="preserve">
<g id="main">
	<polyline fill="none" stroke="#000000" stroke-width="5" points="234.717,278.878 160.688,342.5 435.654,342.5 361.627,406.125 	
		"/>
</g>
<g id="template" display="none">
	<g display="inline">
		<text transform="matrix(0.9973 0 0 1 427.3262 431.0664)" font-family="sans-serif" font-size="24">P</text>
		<text transform="matrix(0.9973 0 0 1 443.3623 431.0664)" font-family="sans-serif" font-size="24">T</text>
		<text transform="matrix(0.9973 0 0 1 457.9824 431.0664)" font-family="sans-serif" font-size="24"> </text>
		<text transform="matrix(0.9973 0 0 1 464.6807 431.0664)" font-family="sans-serif" font-size="24">2</text>
		
			<line fill="none" stroke="#000000" stroke-width="4" stroke-linecap="round" stroke-linejoin="round" stroke-miterlimit="10" x1="449.232" y1="369.009" x2="449.232" y2="408.777"/>
		<path stroke="#000000" stroke-width="3" stroke-linejoin="bevel" stroke-miterlimit="10" d="M448.412,369.277l-3.489-11.294
			c-0.133-0.478,0.132-0.98,0.581-1.114c0.477-0.132,0.952,0.106,1.11,0.584l3.464,11.32c0.158,0.452-0.105,0.955-0.582,1.087
			C449.047,370.017,448.545,369.753,448.412,369.277L448.412,369.277z M441.22,360.952l-0.132-18.452l10.261,15.35L441.22,360.952z"
			/>
	</g>
	<g display="inline">
		<text transform="matrix(0.9973 0 0 1 131.2153 433.3926)" font-family="sans-serif" font-size="24">P</text>
		<text transform="matrix(0.9973 0 0 1 147.252 433.3926)" font-family="sans-serif" font-size="24">T</text>
		<text transform="matrix(0.9973 0 0 1 161.8726 433.3926)" font-family="sans-serif" font-size="24"> </text>
		<text transform="matrix(0.9973 0 0 1 168.5703 433.3926)" font-family="sans-serif" font-size="24">1</text>
		
			<line fill="none" stroke="#000000" stroke-width="5" stroke-linecap="round" stroke-linejoin="round" stroke-miterlimit="10" x1="149.452" y1="370.009" x2="149.452" y2="409.777"/>
		<path stroke="#000000" stroke-width="3" stroke-linejoin="bevel" stroke-miterlimit="10" d="M148.632,369.772l3.463-11.32
			c0.159-0.478,0.634-0.716,1.11-0.584c0.449,0.134,0.714,0.637,0.582,1.114l-3.491,11.294c-0.132,0.478-0.633,0.74-1.082,0.582
			C148.738,370.727,148.474,370.224,148.632,369.772L148.632,369.772z M147.363,358.85l10.258-15.35l-0.159,18.452L147.363,358.85z"
			/>
	</g>
</g>
</svg>
