<?xml version="1.0" encoding="utf-8"?>
<!-- Generator: Adobe Illustrator 16.0.0, SVG Export Plug-In . SVG Version: 6.00 Build 0)  -->
<!DOCTYPE svg PUBLIC "-//W3C//DTD SVG 1.1//EN" "http://www.w3.org/Graphics/SVG/1.1/DTD/svg11.dtd">
<svg version="1.1" id="Version_1.0" xmlns="http://www.w3.org/2000/svg" xmlns:xlink="http://www.w3.org/1999/xlink" x="0px"
	 y="0px" width="612px" height="792px" viewBox="0 0 612 792" enable-background="new 0 0 612 792" xml:space="preserve">
<g id="main">
	<g>
		
			<line fill="none" stroke="#000000" stroke-width="5.6879" stroke-linejoin="round" stroke-miterlimit="10" x1="306.247" y1="291.968" x2="306.394" y2="489.938"/>
		
			<line fill="none" stroke="#000000" stroke-width="5.6879" stroke-linejoin="round" stroke-miterlimit="10" x1="227.574" y1="481.693" x2="389.627" y2="306.582"/>
		
			<line fill="none" stroke="#000000" stroke-width="5.6879" stroke-linejoin="round" stroke-miterlimit="10" x1="216.219" y1="306.582" x2="389.627" y2="481.693"/>
	</g>
	<g>
		
			<line fill="none" stroke="#000000" stroke-width="5.6879" stroke-linejoin="round" stroke-miterlimit="10" x1="256.27" y1="413.396" x2="275.57" y2="376.883"/>
		
			<line fill="none" stroke="#000000" stroke-width="5.6879" stroke-linejoin="round" stroke-miterlimit="10" x1="274.293" y1="376.883" x2="293.466" y2="413.396"/>
		
			<line fill="none" stroke="#000000" stroke-width="5.6879" stroke-linejoin="round" stroke-miterlimit="10" x1="291.761" y1="413.396" x2="311.082" y2="376.883"/>
		
			<line fill="none" stroke="#000000" stroke-width="5.6879" stroke-linejoin="round" stroke-miterlimit="10" x1="309.804" y1="376.883" x2="328.978" y2="413.396"/>
		
			<line fill="none" stroke="#000000" stroke-width="5.6879" stroke-linejoin="round" stroke-miterlimit="10" x1="327.975" y1="413.523" x2="347.298" y2="377.032"/>
		
			<line fill="none" stroke="#000000" stroke-width="5.6879" stroke-linejoin="round" stroke-miterlimit="10" x1="346.019" y1="377.032" x2="365.192" y2="413.523"/>
		
			<line fill="none" stroke="#000000" stroke-width="5.6879" stroke-linejoin="round" stroke-miterlimit="10" x1="364.19" y1="413.523" x2="383.513" y2="377.032"/>
		
			<line fill="none" stroke="#000000" stroke-width="5.6879" stroke-linejoin="round" stroke-miterlimit="10" x1="382.235" y1="377.032" x2="401.407" y2="413.523"/>
		
			<line fill="none" stroke="#000000" stroke-width="5.6879" stroke-linejoin="round" stroke-miterlimit="10" x1="220.758" y1="412.672" x2="240.079" y2="376.18"/>
		
			<line fill="none" stroke="#000000" stroke-width="5.6879" stroke-linejoin="round" stroke-miterlimit="10" x1="238.801" y1="376.18" x2="257.974" y2="412.672"/>
	</g>
</g>
<g id="template" display="none">
	<text transform="matrix(1 0 0 1 165.7505 297.5732)" display="inline" font-family="sans-serif" font-size="28.2906">POINT</text>
	<text transform="matrix(1 0 0 1 165.7505 263.8203)" display="inline" font-family="sans-serif" font-size="28.2906">CENTER</text>
	<path display="inline" stroke="#000000" stroke-width="0.3409" stroke-linejoin="bevel" stroke-miterlimit="10" d="
		M297.362,382.252l-44.522-94.799c-0.319-0.704-0.021-1.555,0.682-1.896c0.724-0.319,1.555-0.021,1.896,0.681l44.521,94.799
		c0.342,0.725,0.023,1.555-0.68,1.896C298.558,383.273,297.704,382.954,297.362,382.252L297.362,382.252z M305.159,375.455
		L304.69,394.5l-14.957-11.801L305.159,375.455z"/>
</g>
</svg>
