<?xml version="1.0" encoding="utf-8"?>
<!-- Generator: Adobe Illustrator 16.0.0, SVG Export Plug-In . SVG Version: 6.00 Build 0)  -->
<!DOCTYPE svg PUBLIC "-//W3C//DTD SVG 1.1//EN" "http://www.w3.org/Graphics/SVG/1.1/DTD/svg11.dtd">
<svg version="1.1" id="Version_1.0" xmlns="http://www.w3.org/2000/svg" xmlns:xlink="http://www.w3.org/1999/xlink" x="0px"
	 y="0px" width="612px" height="792px" viewBox="0 0 612 792" enable-background="new 0 0 612 792" xml:space="preserve">
<g id="main">
	
		<line fill="none" stroke="#000000" stroke-width="6.3495" stroke-linecap="square" stroke-miterlimit="10" x1="213.048" y1="485.045" x2="394.406" y2="307.257"/>
	
		<line fill="none" stroke="#000000" stroke-width="6.3495" stroke-linecap="square" stroke-miterlimit="10" x1="394.406" y1="485.045" x2="213.048" y2="307.257"/>
	
		<line fill="none" stroke="#000000" stroke-width="6.3495" stroke-linecap="square" stroke-miterlimit="10" x1="213.048" y1="485.045" x2="394.406" y2="307.257"/>
	
		<line fill="none" stroke="#000000" stroke-width="6.3495" stroke-linecap="square" stroke-miterlimit="10" x1="394.406" y1="485.045" x2="213.048" y2="307.257"/>
	<polygon points="308.5,396.151 260.773,440.598 353.044,440.598 	"/>
	<polygon points="308.5,396.151 260.773,351.705 353.044,351.705 	"/>
	<text transform="matrix(1.0022 0 0 1 203.5044 421.543)" font-family="sans-serif" font-size="69.8444">D</text>
	<text transform="matrix(1.0022 0 0 1 353.0869 421.543)" font-family="sans-serif" font-size="69.8444">P</text>
</g>
<g id="template" display="none">
	<text transform="matrix(1 0 0 1 430.3457 421.3301)" display="inline" font-family="sans-serif" font-size="24.5599">P</text>
	<text transform="matrix(1 0 0 1 446.7266 421.3301)" display="inline" font-family="sans-serif" font-size="24.5599">O</text>
	<text transform="matrix(1 0 0 1 465.7324 421.3301)" display="inline" font-family="sans-serif" font-size="24.5599">I</text>
	<text transform="matrix(1 0 0 1 472.6055 421.3301)" display="inline" font-family="sans-serif" font-size="24.5599">N</text>
	<text transform="matrix(1 0 0 1 490.293 421.3301)" display="inline" font-family="sans-serif" font-size="24.5599">T</text>
	<text transform="matrix(1 0 0 1 430.3457 391.8442)" display="inline" font-family="sans-serif" font-size="24.5599">C</text>
	<text transform="matrix(1 0 0 1 448.0332 391.8442)" display="inline" font-family="sans-serif" font-size="24.5599">E</text>
	<text transform="matrix(1 0 0 1 464.4141 391.8442)" display="inline" font-family="sans-serif" font-size="24.5599">N</text>
	<text transform="matrix(1 0 0 1 482.1016 391.8442)" display="inline" font-family="sans-serif" font-size="24.5599">T</text>
	<text transform="matrix(1 0 0 1 497.1523 391.8442)" display="inline" font-family="sans-serif" font-size="24.5599">E</text>
	<text transform="matrix(1 0 0 1 513.5332 391.8442)" display="inline" font-family="sans-serif" font-size="24.5599">R</text>
	<text transform="matrix(1 0 0 1 531.2207 391.8442)" display="inline" font-family="sans-serif" font-size="24.5599"> </text>
	<path display="inline" stroke="#000000" stroke-width="0.3275" stroke-linejoin="bevel" stroke-miterlimit="10" d="
		M430.236,397.371l-111.871,0.123l-0.02-2.743l111.891-0.125V397.371L430.236,397.371z M321.089,404.309l-16.374-8.167l16.352-8.207
		L321.089,404.309L321.089,404.309z"/>
</g>
</svg>
