<?xml version="1.0" encoding="utf-8"?>
<!-- Generator: Adobe Illustrator 16.0.0, SVG Export Plug-In . SVG Version: 6.00 Build 0)  -->
<!DOCTYPE svg PUBLIC "-//W3C//DTD SVG 1.1//EN" "http://www.w3.org/Graphics/SVG/1.1/DTD/svg11.dtd">
<svg version="1.1" id="Version_1.0" xmlns="http://www.w3.org/2000/svg" xmlns:xlink="http://www.w3.org/1999/xlink" x="0px"
	 y="0px" width="612px" height="792px" viewBox="0 0 612 792" enable-background="new 0 0 612 792" xml:space="preserve">
<g id="main">
	<polygon stroke="#000000" points="390.254,394.5 361.254,368.5 306,449.5 250.254,368.5 222.254,393.5 184.254,355.5 
		306.754,269.862 428.254,356.5 	"/>
	<line fill="none" stroke="#000000" stroke-width="5" x1="122.455" y1="354.5" x2="489.544" y2="353.5"/>
</g>
<g id="template" display="none">
	<text transform="matrix(1 0 0 1 247.6074 522.3008)" display="inline" font-family="sans-serif" font-size="27.7759">C</text>
	<text transform="matrix(1 0 0 1 267.6665 522.3008)" display="inline" font-family="sans-serif" font-size="27.7759">E</text>
	<text transform="matrix(1 0 0 1 286.0815 522.3008)" display="inline" font-family="sans-serif" font-size="27.7759">N</text>
	<text transform="matrix(1 0 0 1 306.1406 522.3008)" display="inline" font-family="sans-serif" font-size="27.7759">T</text>
	<text transform="matrix(1 0 0 1 323.5234 522.3008)" display="inline" font-family="sans-serif" font-size="27.7759">E</text>
	<text transform="matrix(1 0 0 1 341.9385 522.3008)" display="inline" font-family="sans-serif" font-size="27.7759">R</text>
	<text transform="matrix(1 0 0 1 247.6074 555.6318)" display="inline" font-family="sans-serif" font-size="27.7759">POINT </text>
	<g display="inline">
		<g>
			<line fill="none" stroke="#FFFFFF" stroke-width="5" x1="305" y1="448.5" x2="305" y2="380.5"/>
			<polygon fill="#FFFFFF" points="317.503,384.147 305.039,362.558 292.574,384.147 			"/>
		</g>
	</g>
	<line display="inline" fill="none" stroke="#000000" stroke-width="5" x1="305" y1="448.5" x2="305" y2="493.5"/>
</g>
</svg>
