<?xml version="1.0" encoding="utf-8"?>
<!-- Generator: Adobe Illustrator 16.0.0, SVG Export Plug-In . SVG Version: 6.00 Build 0)  -->
<!DOCTYPE svg PUBLIC "-//W3C//DTD SVG 1.1//EN" "http://www.w3.org/Graphics/SVG/1.1/DTD/svg11.dtd">
<svg version="1.1" id="Version_1.0" xmlns="http://www.w3.org/2000/svg" xmlns:xlink="http://www.w3.org/1999/xlink" x="0px"
	 y="0px" width="612px" height="792px" viewBox="0 0 612 792" enable-background="new 0 0 612 792" xml:space="preserve">
<g id="main">
	<path fill="none" stroke="#000000" stroke-width="5" stroke-linecap="round" stroke-linejoin="round" stroke-miterlimit="10" d="
		M304.748,274.017c-71.694,0-129.822,54.722-129.822,122.253c0,67.511,58.127,122.232,129.822,122.232
		c71.692,0,129.802-54.724,129.802-122.232C434.552,328.738,376.44,274.017,304.748,274.017"/>
	<path fill="none" stroke="#000000" stroke-width="5" stroke-linecap="round" stroke-linejoin="round" stroke-miterlimit="10" d="
		M306.574,297.426c-57.792,0-104.647,44.111-104.647,98.546c0,54.419,46.855,98.53,104.647,98.53
		c57.79,0,104.632-44.111,104.632-98.53C411.206,341.536,364.364,297.426,306.574,297.426"/>
	<circle cx="304.739" cy="396.259" r="44.076"/>
</g>
<g id="template" display="none">
	<text transform="matrix(1 0 0 1 442.2139 390.29)" display="inline" font-family="sans-serif" font-size="26.4544">CENTER </text>
	<text transform="matrix(1 0 0 1 442.2139 422.0352)" display="inline" font-family="sans-serif" font-size="26.4544">POINT</text>
	<path display="inline" stroke="#000000" stroke-width="0.3187" stroke-linejoin="bevel" stroke-miterlimit="10" d="M464.69,397.495
		l-135.46,0.101c-0.737,0-1.336-0.599-1.336-1.315c0-0.734,0.599-1.335,1.336-1.335l135.46-0.12c0.735,0,1.313,0.601,1.313,1.338
		C466.005,396.897,465.429,397.495,464.69,397.495L464.69,397.495z M331.881,404.228l-26.554-7.93l26.554-8.008V404.228z"/>
	<g display="inline">
		
			<line fill="none" stroke="#FFFFFF" stroke-width="5" stroke-linejoin="bevel" stroke-miterlimit="10" x1="337.334" y1="396.259" x2="348.815" y2="396.259"/>
		<polygon fill="#FFFFFF" points="343.764,385.5 303.112,396.391 343.764,407.286 		"/>
	</g>
</g>
</svg>
