<?xml version="1.0" encoding="utf-8"?>
<!-- Generator: Adobe Illustrator 16.0.0, SVG Export Plug-In . SVG Version: 6.00 Build 0)  -->
<!DOCTYPE svg PUBLIC "-//W3C//DTD SVG 1.1//EN" "http://www.w3.org/Graphics/SVG/1.1/DTD/svg11.dtd">
<svg version="1.1" id="Version_1.0" xmlns="http://www.w3.org/2000/svg" xmlns:xlink="http://www.w3.org/1999/xlink" x="0px"
	 y="0px" width="612px" height="792px" viewBox="0 0 612 792" enable-background="new 0 0 612 792" xml:space="preserve">
<g id="main">
	
		<line fill="none" stroke="#000000" stroke-width="7.2595" stroke-linejoin="round" stroke-miterlimit="10" x1="146.584" y1="396.634" x2="471.225" y2="396.825"/>
	
		<line fill="none" stroke="#000000" stroke-width="7.2595" stroke-linejoin="round" stroke-miterlimit="10" x1="146.584" y1="269.227" x2="146.775" y2="519.718"/>
	
		<line fill="none" stroke="#000000" stroke-width="7.2595" stroke-linejoin="round" stroke-miterlimit="10" x1="471.225" y1="270.472" x2="471.415" y2="520.996"/>
	<path d="M305.915,371.455c-13.813,0-25.014,11.201-25.014,25.017c0,13.813,11.202,25.014,25.014,25.014
		c13.839,0,25.016-11.201,25.016-25.014C330.931,382.656,319.754,371.455,305.915,371.455"/>
</g>
<g id="template" display="none">
	<text transform="matrix(1 0 0 1 181.2256 254.7559)" display="inline" font-family="sans-serif" font-size="36.1074">C</text>
	<text transform="matrix(1 0 0 1 207.3018 254.7559)" display="inline" font-family="sans-serif" font-size="36.1074">E</text>
	<text transform="matrix(1 0 0 1 231.2407 254.7559)" display="inline" font-family="sans-serif" font-size="36.1074">N</text>
	<text transform="matrix(1 0 0 1 257.3154 254.7559)" display="inline" font-family="sans-serif" font-size="36.1074">T</text>
	<text transform="matrix(1 0 0 1 279.9136 254.7559)" display="inline" font-family="sans-serif" font-size="36.1074">E</text>
	<text transform="matrix(1 0 0 1 303.8516 254.7559)" display="inline" font-family="sans-serif" font-size="36.1074">R </text>
	<text transform="matrix(1 0 0 1 339.959 254.7559)" display="inline" font-family="sans-serif" font-size="36.1074">P</text>
	<text transform="matrix(1 0 0 1 363.8984 254.7559)" display="inline" font-family="sans-serif" font-size="36.1074">O</text>
	<text transform="matrix(1 0 0 1 392.1641 254.7559)" display="inline" font-family="sans-serif" font-size="36.1074">I</text>
	<text transform="matrix(1 0 0 1 402.5938 254.7559)" display="inline" font-family="sans-serif" font-size="36.1074">N</text>
	<text transform="matrix(1 0 0 1 428.668 254.7559)" display="inline" font-family="sans-serif" font-size="36.1074">T</text>
	<text transform="matrix(1 0 0 1 451.2666 254.7559)" display="inline" font-family="sans-serif" font-size="36.1074">  </text>
	<path display="inline" stroke="#000000" stroke-width="0.435" stroke-linejoin="bevel" stroke-miterlimit="10" d="M270.532,266.631
		l22.213,81.129l-6.986,1.904l-22.214-81.104L270.532,266.631L270.532,266.631z M298.782,342.35l-4.731,23.847l-16.23-18.108
		L298.782,342.35L298.782,342.35z"/>
</g>
</svg>
