<?xml version="1.0" encoding="utf-8"?>
<!-- Generator: Adobe Illustrator 16.0.0, SVG Export Plug-In . SVG Version: 6.00 Build 0)  -->
<!DOCTYPE svg PUBLIC "-//W3C//DTD SVG 1.1//EN" "http://www.w3.org/Graphics/SVG/1.1/DTD/svg11.dtd">
<svg version="1.1" id="Version_1.0" xmlns="http://www.w3.org/2000/svg" xmlns:xlink="http://www.w3.org/1999/xlink" x="0px"
	 y="0px" width="612px" height="792px" viewBox="0 0 612 792" enable-background="new 0 0 612 792" xml:space="preserve">
<g id="main">
	
		<line fill="none" stroke="#000000" stroke-width="5" stroke-linejoin="bevel" stroke-miterlimit="10" x1="213.991" y1="483" x2="390.771" y2="308.233"/>
	
		<line fill="none" stroke="#000000" stroke-width="5" stroke-linejoin="bevel" stroke-miterlimit="10" x1="213.991" y1="308.233" x2="390.771" y2="483"/>
	
		<ellipse fill="none" stroke="#000000" stroke-width="5.1773" stroke-linejoin="bevel" stroke-miterlimit="10" cx="303.271" cy="395" rx="48.5" ry="104"/>
	
		<ellipse fill="none" stroke="#000000" stroke-width="5.1773" stroke-linejoin="bevel" stroke-miterlimit="10" cx="303.271" cy="395" rx="104" ry="48.5"/>
</g>
<g id="template" display="none">
	<text transform="matrix(1 0 0 1 91.0552 333.8428)" display="inline" font-family="sans-serif" font-size="29.8508">C</text>
	<text transform="matrix(1 0 0 1 112.6123 333.8428)" display="inline" font-family="sans-serif" font-size="29.8508">E</text>
	<text transform="matrix(1 0 0 1 132.4033 333.8428)" display="inline" font-family="sans-serif" font-size="29.8508">N</text>
	<text transform="matrix(1 0 0 1 153.96 333.8428)" display="inline" font-family="sans-serif" font-size="29.8508">T</text>
	<text transform="matrix(1 0 0 1 172.6421 333.8428)" display="inline" font-family="sans-serif" font-size="29.8508">E</text>
	<text transform="matrix(1 0 0 1 192.4331 333.8428)" display="inline" font-family="sans-serif" font-size="29.8508">R</text>
	<text transform="matrix(1 0 0 1 91.0552 369.6641)" display="inline" font-family="sans-serif" font-size="29.8508">POINT </text>
	<path display="inline" stroke="#000000" stroke-width="0.3963" stroke-linejoin="bevel" stroke-miterlimit="10" d="
		M192.387,344.225l98.741,42.842l-2.539,6.121l-98.741-42.838L192.387,344.225L192.387,344.225z M290.639,379.612l14.289,17.045
		l-21.899,1.349L290.639,379.612L290.639,379.612z"/>
</g>
</svg>
