<?xml version="1.0" encoding="utf-8"?>
<!-- Generator: Adobe Illustrator 16.0.0, SVG Export Plug-In . SVG Version: 6.00 Build 0)  -->
<!DOCTYPE svg PUBLIC "-//W3C//DTD SVG 1.1//EN" "http://www.w3.org/Graphics/SVG/1.1/DTD/svg11.dtd">
<svg version="1.1" id="Version_1.0" xmlns="http://www.w3.org/2000/svg" xmlns:xlink="http://www.w3.org/1999/xlink" x="0px"
	 y="0px" width="612px" height="792px" viewBox="0 0 612 792" enable-background="new 0 0 612 792" xml:space="preserve">
<polygon id="main" fill="none" stroke="#000000" stroke-width="5" points="427.73,265.805 500.014,395.5 124.143,395.5 
	189.197,294.626 249.712,388.461 304.85,236.984 367.281,389.11 "/>
<g id="template" display="none">
	<text transform="matrix(1.0032 0 0 1 253.5317 475.9629)" display="inline" font-family="sans-serif" font-size="24">CENTER</text>
	<text transform="matrix(1.0032 0 0 1 253.5317 504.7627)" display="inline" font-family="sans-serif" font-size="24">POINT</text>
	<path display="inline" stroke="#000000" stroke-width="0.2882" stroke-linejoin="bevel" stroke-miterlimit="10" d="M304.27,453.144
		v-36.027c0-0.648,0.544-1.19,1.229-1.19c0.651,0,1.192,0.542,1.192,1.19v36.025c0,0.685-0.542,1.223-1.192,1.223
		C304.814,454.365,304.27,453.826,304.27,453.144L304.27,453.144z M298.272,419.528L305.5,395.5l7.229,24.028H298.272
		L298.272,419.528z"/>
</g>
</svg>
