<?xml version="1.0" encoding="utf-8"?>
<!-- Generator: Adobe Illustrator 16.0.0, SVG Export Plug-In . SVG Version: 6.00 Build 0)  -->
<!DOCTYPE svg PUBLIC "-//W3C//DTD SVG 1.1//EN" "http://www.w3.org/Graphics/SVG/1.1/DTD/svg11.dtd">
<svg version="1.1" id="Version_1.0" xmlns="http://www.w3.org/2000/svg" xmlns:xlink="http://www.w3.org/1999/xlink" x="0px"
	 y="0px" width="612px" height="792px" viewBox="0 0 612 792" enable-background="new 0 0 612 792" xml:space="preserve">
<g>
	<path d="M393.248,394.678c0,24.75-8.389,45.528-25.17,62.358c-16.782,16.806-37.523,25.218-62.202,25.218
		c-24.444,0-45.126-8.473-62.028-25.404c-16.902-16.949-25.35-37.668-25.35-62.172c0-24.738,8.388-45.576,25.17-62.52
		c16.782-16.932,37.523-25.404,62.202-25.404c24.444,0,45.126,8.532,62.028,25.596C384.8,349.414,393.248,370.186,393.248,394.678z
		 M386.498,394.678c0-22.854-7.746-42.096-23.214-57.726c-15.479-15.63-34.62-23.448-57.408-23.448s-41.928,7.818-57.408,23.448
		c-15.468,15.63-23.214,34.878-23.214,57.726c0,22.62,7.807,41.742,23.389,57.378c15.611,15.63,34.686,23.448,57.233,23.448
		s41.628-7.818,57.222-23.448S386.498,417.298,386.498,394.678z M325.748,142.504v106.62l-24.096-30.234l0.365,87.516l7.23,0.354
		v-65.562l24.443,27.726v-126.42H325.748z"/>
	<text transform="matrix(1.1335 0 0 1 261.3047 408.791)" font-family="sans-serif" font-size="60">BR</text>
</g>
<g id="template" display="none">
	<g id="varH" display="inline">
		<rect x="356.193" y="268.004" fill="#FFFFFF" stroke="#000000" stroke-width="1.8941" width="50.807" height="50.798"/>
		<text transform="matrix(1.1335 0 0 1 363.5264 307.7871)" font-family="sans-serif" font-size="42">H</text>
	</g>
	<g id="points" display="inline">
		<g transform="translate(-90 -35)">
			<text transform="matrix(1 0 0 1 251.5 302.9082)" font-family="sans-serif" font-size="24">CENTER</text>
			<text transform="matrix(1 0 0 1 251.5 302.9082)" fill="none" stroke="#000000" font-family="sans-serif" font-size="24">CENTER</text>
			<text transform="matrix(1 0 0 1 262.5 327.9082)" font-family="sans-serif" font-size="24">POINT</text>
			<text transform="matrix(1 0 0 1 262.5 327.9082)" fill="none" stroke="#000000" font-family="sans-serif" font-size="24">POINT</text>
		</g>
		<g>
			<line fill="none" stroke="#000000" stroke-width="3" x1="212.5" y1="301.908" x2="302.5" y2="391.908"/>
			<polygon stroke="#000000" stroke-width="2" points="305.5,394.908 293.5,390.908 301.5,382.908 			"/>
		</g>
	</g>
</g>
<g id="example" display="none">
	<text id="varHe" transform="matrix(1.1335 0 0 1 363.5264 307.7871)" display="inline" font-family="sans-serif" font-size="42">HOT</text>
</g>
</svg>
