<?xml version="1.0" encoding="utf-8"?>
<!-- Generator: Adobe Illustrator 16.0.0, SVG Export Plug-In . SVG Version: 6.00 Build 0)  -->
<!DOCTYPE svg PUBLIC "-//W3C//DTD SVG 1.1//EN" "http://www.w3.org/Graphics/SVG/1.1/DTD/svg11.dtd">
<svg version="1.1" id="Version_1.0" xmlns="http://www.w3.org/2000/svg" xmlns:xlink="http://www.w3.org/1999/xlink" x="0px"
	 y="0px" width="612px" height="792px" viewBox="0 0 612 792" enable-background="new 0 0 612 792" xml:space="preserve">
<g id="main" transform="translate(-250 -150) scale(1.75 1.75)">
	<path d="M255.967,262.929l126.98,0.134l-3.402,2.812H259.508L255.967,262.929z M255.967,262.929l3.509,3.02l35.039,95.971
		l-3.026,0.01L255.967,262.929z M382.947,262.929l-3.402,2.974l-34.975,96.026h2.994L382.947,262.929z"/>
</g>
<g id="template" display="none">
	<g id="varH" display="inline">
		<rect x="276.5" y="364.876" fill="#FFFFFF" stroke="#000000" stroke-width="2.1866" width="59" height="56.124"/>
		<text transform="matrix(1.1335 0 0 1 288.0264 409.7051)" font-family="sans-serif" font-size="43.2247">H</text>
	</g>
	<g id="points" display="inline">
		<g id="CENTER_x25_20POINT" transform="matrix(1 0 0 1 56 -61)">
			<text transform="matrix(1 0 0 1 209.5669 573.8751)" font-family="sans-serif" font-size="20.9989">CENTER</text>
			<text transform="matrix(1 0 0 1 221.8169 594.8751)" font-family="sans-serif" font-size="20.9989">POINT</text>
		</g>
		<g transform="matrix(0.897674 -0.44066 0.44066 0.897674 133.455 170.916)">
			<g>
				<g>
					<line fill="none" stroke="#000000" stroke-width="5" x1="13.271" y1="363.887" x2="44.744" y2="299.774"/>
					<path d="M45.197,290.13c-4.414,4.739-7.736,7.597-11.721,11.182l16.982,8.336c0.024-1.973,0.628-9.726,1.678-16.113
						c1.126-6.842,2.545-12.848,3.823-16.564C53.802,280.259,49.921,285.057,45.197,290.13z"/>
				</g>
			</g>
		</g>
	</g>
</g>
<g id="example">
	<text id="varHe" transform="matrix(1.1335 0 0 1 288.0264 409.7051)" font-family="sans-serif" font-size="43.2247">Y</text>
</g>
</svg>
