<?xml version="1.0" encoding="utf-8"?>
<!-- Generator: Adobe Illustrator 16.0.0, SVG Export Plug-In . SVG Version: 6.00 Build 0)  -->
<!DOCTYPE svg PUBLIC "-//W3C//DTD SVG 1.1//EN" "http://www.w3.org/Graphics/SVG/1.1/DTD/svg11.dtd">
<svg version="1.1" id="Version_1.0" xmlns="http://www.w3.org/2000/svg" xmlns:xlink="http://www.w3.org/1999/xlink" x="0px"
	 y="0px" width="612px" height="792px" viewBox="0 0 612 792" enable-background="new 0 0 612 792" xml:space="preserve">
<g id="main">
	<polygon stroke="#000000" points="401.5,363.5 401.5,428.5 353.5,477.5 261.5,477.5 212.624,430.449 214.5,361.5 261.521,314.485 
		353.5,312.5 	"/>
	<line fill="none" stroke="#000000" stroke-width="5" x1="234.501" y1="341.501" x2="172.5" y2="293.5"/>
	<line fill="none" stroke="#000000" stroke-width="5" x1="306.91" y1="312.5" x2="306.91" y2="252.5"/>
	<line fill="none" stroke="#000000" stroke-width="5" x1="380.796" y1="341.501" x2="436.5" y2="293.5"/>
</g>
<g id="template" display="none">
	<text transform="matrix(1 0 0 1 246.1152 560.7666)" display="inline" font-family="sans-serif" font-size="28.2962">C</text>
	<text transform="matrix(1 0 0 1 266.5503 560.7666)" display="inline" font-family="sans-serif" font-size="28.2962">E</text>
	<text transform="matrix(1 0 0 1 285.3101 560.7666)" display="inline" font-family="sans-serif" font-size="28.2962">N</text>
	<text transform="matrix(1 0 0 1 305.7451 560.7666)" display="inline" font-family="sans-serif" font-size="28.2962">T</text>
	<text transform="matrix(1 0 0 1 323.4531 560.7666)" display="inline" font-family="sans-serif" font-size="28.2962">E</text>
	<text transform="matrix(1 0 0 1 342.2148 560.7666)" display="inline" font-family="sans-serif" font-size="28.2962">R</text>
	<text transform="matrix(1 0 0 1 246.1152 594.7217)" display="inline" font-family="sans-serif" font-size="28.2962">POINT </text>
	<line display="inline" fill="none" stroke="#000000" stroke-width="5" x1="306.91" y1="477.5" x2="306.91" y2="533.5"/>
	<g display="inline">
		<g>
			<line fill="none" stroke="#FFFFFF" stroke-width="5" x1="307.063" y1="477.5" x2="307.063" y2="411"/>
			<polygon fill="#FFFFFF" points="319.566,414.646 307.102,393.058 294.637,414.646 			"/>
		</g>
	</g>
</g>
</svg>
