<?xml version="1.0" encoding="utf-8"?>
<!-- Generator: Adobe Illustrator 16.0.0, SVG Export Plug-In . SVG Version: 6.00 Build 0)  -->
<!DOCTYPE svg PUBLIC "-//W3C//DTD SVG 1.1//EN" "http://www.w3.org/Graphics/SVG/1.1/DTD/svg11.dtd">
<svg version="1.1" id="Version_1.0" xmlns="http://www.w3.org/2000/svg" xmlns:xlink="http://www.w3.org/1999/xlink" x="0px"
	 y="0px" width="612px" height="792px" viewBox="0 0 612 792" enable-background="new 0 0 612 792" xml:space="preserve">
<g id="main">
	<polygon points="269.396,361.027 219.107,310.738 269.396,260.449 	"/>
	<polygon points="331.645,361.027 281.355,310.738 331.645,260.449 	"/>
	<polygon points="386.934,361.027 336.645,310.738 386.934,260.449 	"/>
	<rect x="219.107" y="373.238" stroke="#000000" stroke-width="5" width="167.826" height="23.357"/>
	<line fill="none" stroke="#000000" stroke-width="10" x1="303.021" y1="171.238" x2="303.021" y2="296.238"/>
	<line fill="none" stroke="#000000" stroke-width="10" x1="174.646" y1="171.238" x2="437.646" y2="171.238"/>
</g>
<g id="template" display="none">
	<text transform="matrix(1 0 0 1 351.5039 482.7334)" display="inline" font-family="sans-serif" font-size="28.2172">P</text>
	<text transform="matrix(1 0 0 1 370.3223 482.7334)" display="inline" font-family="sans-serif" font-size="28.2172">O</text>
	<text transform="matrix(1 0 0 1 392.1582 482.7334)" display="inline" font-family="sans-serif" font-size="28.2172">I</text>
	<text transform="matrix(1 0 0 1 400.0547 482.7334)" display="inline" font-family="sans-serif" font-size="28.2172">N</text>
	<text transform="matrix(1 0 0 1 420.377 482.7334)" display="inline" font-family="sans-serif" font-size="28.2172">T </text>
	<text transform="matrix(1 0 0 1 445.5645 482.7334)" display="inline" font-family="sans-serif" font-size="28.2172"> </text>
	<text transform="matrix(1 0 0 1 351.5039 450.4014)" display="inline" font-family="sans-serif" font-size="28.2172">A</text>
	<text transform="matrix(1 0 0 1 371.457 450.4014)" display="inline" font-family="sans-serif" font-size="28.2172">N</text>
	<text transform="matrix(1 0 0 1 392.1465 450.4014)" display="inline" font-family="sans-serif" font-size="28.2172">CH</text>
	<text transform="matrix(1 0 0 1 432.7871 450.4014)" display="inline" font-family="sans-serif" font-size="28.2172">O</text>
	<text transform="matrix(1 0 0 1 454.623 450.4014)" display="inline" font-family="sans-serif" font-size="28.2172">R</text>
	<path display="inline" stroke="#000000" stroke-width="0.3762" stroke-linejoin="bevel" stroke-miterlimit="10" d="M304.924,459.85
		v-47.663c0-0.869,0.706-1.576,1.576-1.576s1.552,0.707,1.552,1.576v47.663c0,0.867-0.682,1.553-1.552,1.553
		S304.924,460.717,304.924,459.85L304.924,459.85z M297.094,415.313L306.5,396.5l9.406,18.813H297.094z"/>
	
		<line display="inline" fill="none" stroke="#000000" stroke-width="2.3514" stroke-linecap="round" stroke-linejoin="round" stroke-miterlimit="10" x1="306.5" y1="459.85" x2="351.176" y2="459.85"/>
</g>
</svg>
