<?xml version="1.0" encoding="utf-8"?>
<!-- Generator: Adobe Illustrator 16.0.0, SVG Export Plug-In . SVG Version: 6.00 Build 0)  -->
<!DOCTYPE svg PUBLIC "-//W3C//DTD SVG 1.1//EN" "http://www.w3.org/Graphics/SVG/1.1/DTD/svg11.dtd">
<svg version="1.1" id="Version_1.0" xmlns="http://www.w3.org/2000/svg" xmlns:xlink="http://www.w3.org/1999/xlink" x="0px"
	 y="0px" width="612px" height="792px" viewBox="0 0 612 792" enable-background="new 0 0 612 792" xml:space="preserve">
<g id="main">
	
		<line fill="none" stroke="#000000" stroke-width="6.3495" stroke-linecap="square" stroke-miterlimit="10" x1="213.951" y1="485.045" x2="395.31" y2="307.257"/>
	
		<line fill="none" stroke="#000000" stroke-width="6.3495" stroke-linecap="square" stroke-miterlimit="10" x1="395.31" y1="485.045" x2="213.951" y2="307.257"/>
	
		<line fill="none" stroke="#000000" stroke-width="6.3495" stroke-linecap="square" stroke-miterlimit="10" x1="213.951" y1="485.045" x2="395.31" y2="307.257"/>
	
		<line fill="none" stroke="#000000" stroke-width="6.3495" stroke-linecap="square" stroke-miterlimit="10" x1="395.31" y1="485.045" x2="213.951" y2="307.257"/>
	<polygon points="306.402,396.151 258.676,440.598 350.947,440.598 	"/>
	<polygon points="305.402,396.151 257.676,351.705 349.947,351.705 	"/>
</g>
<g id="template" display="none">
	<text transform="matrix(1 0 0 1 431.249 421.3301)" display="inline" font-family="sans-serif" font-size="24.5599">P</text>
	<text transform="matrix(1 0 0 1 447.6299 421.3301)" display="inline" font-family="sans-serif" font-size="24.5599">O</text>
	<text transform="matrix(1 0 0 1 466.6357 421.3301)" display="inline" font-family="sans-serif" font-size="24.5599">I</text>
	<text transform="matrix(1 0 0 1 473.5088 421.3301)" display="inline" font-family="sans-serif" font-size="24.5599">N</text>
	<text transform="matrix(1 0 0 1 491.1953 421.3301)" display="inline" font-family="sans-serif" font-size="24.5599">T</text>
	<text transform="matrix(1 0 0 1 431.249 391.8442)" display="inline" font-family="sans-serif" font-size="24.5599">C</text>
	<text transform="matrix(1 0 0 1 448.9365 391.8442)" display="inline" font-family="sans-serif" font-size="24.5599">E</text>
	<text transform="matrix(1 0 0 1 465.3174 391.8442)" display="inline" font-family="sans-serif" font-size="24.5599">N</text>
	<text transform="matrix(1 0 0 1 483.0049 391.8442)" display="inline" font-family="sans-serif" font-size="24.5599">T</text>
	<text transform="matrix(1 0 0 1 498.0557 391.8442)" display="inline" font-family="sans-serif" font-size="24.5599">E</text>
	<text transform="matrix(1 0 0 1 514.4365 391.8442)" display="inline" font-family="sans-serif" font-size="24.5599">R</text>
	<text transform="matrix(1 0 0 1 532.124 391.8442)" display="inline" font-family="sans-serif" font-size="24.5599"> </text>
	<path display="inline" stroke="#000000" stroke-width="0.3275" stroke-linejoin="bevel" stroke-miterlimit="10" d="M431.14,397.371
		l-111.871,0.123l-0.021-2.743l111.892-0.125V397.371L431.14,397.371z M321.992,404.309l-16.375-8.167l16.352-8.207L321.992,404.309
		L321.992,404.309z"/>
</g>
</svg>
