<?xml version="1.0" encoding="utf-8"?>
<!-- Generator: Adobe Illustrator 16.0.0, SVG Export Plug-In . SVG Version: 6.00 Build 0)  -->
<!DOCTYPE svg PUBLIC "-//W3C//DTD SVG 1.1//EN" "http://www.w3.org/Graphics/SVG/1.1/DTD/svg11.dtd">
<svg version="1.1" id="Version_1.0" xmlns="http://www.w3.org/2000/svg" xmlns:xlink="http://www.w3.org/1999/xlink" x="0px"
	 y="0px" width="612px" height="792px" viewBox="0 0 612 792" enable-background="new 0 0 612 792" xml:space="preserve">
<g id="main">
	<path fill="none" stroke="#3388FF" stroke-width="5" stroke-linecap="round" stroke-linejoin="round" stroke-miterlimit="10" d="
		M303.133,273.757c-71.694,0-129.822,54.722-129.822,122.253c0,67.511,58.127,122.232,129.822,122.232
		c71.692,0,129.802-54.723,129.802-122.232C432.937,328.479,374.825,273.757,303.133,273.757"/>
	<circle fill="#3388FF" cx="303.124" cy="396" r="44.076"/>
</g>
<g id="template" display="none">
	<text transform="matrix(1 0 0 1 440.5986 390.0308)" display="inline" font-family="sans-serif" font-size="26.4544">CENTER </text>
	<text transform="matrix(1 0 0 1 440.5986 421.7754)" display="inline" font-family="sans-serif" font-size="26.4544">POINT</text>
	<path display="inline" stroke="#000000" stroke-width="0.3187" stroke-linejoin="bevel" stroke-miterlimit="10" d="
		M463.075,397.236l-135.46,0.1c-0.737,0-1.336-0.598-1.336-1.314c0-0.734,0.599-1.335,1.336-1.335l135.46-0.12
		c0.735,0,1.313,0.601,1.313,1.338C464.39,396.639,463.813,397.236,463.075,397.236L463.075,397.236z M330.266,403.969l-26.554-7.93
		l26.554-8.008V403.969z"/>
</g>
</svg>
