<?xml version="1.0" encoding="utf-8"?>
<!-- Generator: Adobe Illustrator 16.0.0, SVG Export Plug-In . SVG Version: 6.00 Build 0)  -->
<!DOCTYPE svg PUBLIC "-//W3C//DTD SVG 1.1//EN" "http://www.w3.org/Graphics/SVG/1.1/DTD/svg11.dtd">
<svg version="1.1" id="Version_1.0" xmlns="http://www.w3.org/2000/svg" xmlns:xlink="http://www.w3.org/1999/xlink" x="0px"
	 y="0px" width="612px" height="792px" viewBox="0 0 612 792" enable-background="new 0 0 612 792" xml:space="preserve">
<g id="main">
	<g>
		
			<line fill="none" stroke="#000000" stroke-width="5" stroke-linejoin="round" stroke-miterlimit="10" x1="365.922" y1="407.336" x2="426.817" y2="351.142"/>
		
			<line fill="none" stroke="#000000" stroke-width="5" stroke-linejoin="round" stroke-miterlimit="10" x1="244.198" y1="407.336" x2="305.024" y2="351.142"/>
		
			<line fill="none" stroke="#000000" stroke-width="5" stroke-linejoin="round" stroke-miterlimit="10" x1="122.406" y1="407.336" x2="183.302" y2="351.142"/>
		
			<line fill="none" stroke="#000000" stroke-width="5" stroke-linejoin="round" stroke-miterlimit="10" x1="244.198" y1="407.336" x2="183.302" y2="351.142"/>
		
			<line fill="none" stroke="#000000" stroke-width="5" stroke-linejoin="round" stroke-miterlimit="10" x1="487.644" y1="407.336" x2="426.817" y2="351.142"/>
		
			<line fill="none" stroke="#000000" stroke-width="5" stroke-linejoin="round" stroke-miterlimit="10" x1="365.922" y1="407.336" x2="305.024" y2="351.142"/>
	</g>
	
		<line fill="none" stroke="#000000" stroke-width="5" stroke-linejoin="round" stroke-miterlimit="10" x1="305.024" y1="351.142" x2="305.024" y2="330.154"/>
	<polygon stroke="#000000" stroke-width="5" stroke-linejoin="round" stroke-miterlimit="10" points="151.25,349.295 
		163.566,369.827 146.434,384.221 123.858,358.913 123.335,318.045 151.25,318.045 	"/>
	<polygon stroke="#000000" stroke-width="5" stroke-linejoin="round" stroke-miterlimit="10" points="481.27,318.045 
		478.896,361.699 457.022,380.546 441.946,365.119 453.352,354.372 453.352,318.045 	"/>
	<polygon stroke="#000000" stroke-width="5" stroke-linejoin="round" stroke-miterlimit="10" points="353.279,278.813 
		353.279,308.902 328.784,330.154 280.144,330.154 255.58,308.902 255.58,278.813 280.144,257.5 328.784,257.5 	"/>
</g>
<g id="template" display="none">
	<path display="inline" stroke="#000000" stroke-width="0.281" stroke-linejoin="bevel" stroke-miterlimit="10" d="M303.269,463.531
		v-35.122c0-0.632,0.562-1.124,1.193-1.124c0.632,0,1.195,0.492,1.195,1.124v35.122c0,0.701-0.563,1.193-1.195,1.193
		C303.831,464.725,303.269,464.232,303.269,463.531L303.269,463.531z M297.438,430.8l7.024-23.464l7.024,23.464H297.438z"/>
	<text transform="matrix(1 0 0 1 240.8628 492.8887)" display="inline" font-family="sans-serif" font-size="28.1767">C</text>
	<text transform="matrix(1 0 0 1 261.2109 492.8887)" display="inline" font-family="sans-serif" font-size="28.1767">E</text>
	<text transform="matrix(1 0 0 1 279.8916 492.8887)" display="inline" font-family="sans-serif" font-size="28.1767">N</text>
	<text transform="matrix(1 0 0 1 300.2397 492.8887)" display="inline" font-family="sans-serif" font-size="28.1767">T</text>
	<text transform="matrix(1 0 0 1 317.874 492.8887)" display="inline" font-family="sans-serif" font-size="28.1767">E</text>
	<text transform="matrix(1 0 0 1 336.5547 492.8887)" display="inline" font-family="sans-serif" font-size="28.1767">R</text>
	<text transform="matrix(1 0 0 1 240.8628 526.7012)" display="inline" font-family="sans-serif" font-size="28.1767">POINT </text>
</g>
</svg>
