<?xml version="1.0" encoding="utf-8"?>
<!-- Generator: Adobe Illustrator 16.0.0, SVG Export Plug-In . SVG Version: 6.00 Build 0)  -->
<!DOCTYPE svg PUBLIC "-//W3C//DTD SVG 1.1//EN" "http://www.w3.org/Graphics/SVG/1.1/DTD/svg11.dtd">
<svg version="1.1" id="Version_1.0" xmlns="http://www.w3.org/2000/svg" xmlns:xlink="http://www.w3.org/1999/xlink" x="0px"
	 y="0px" width="400px" height="400px" viewBox="0 0 400 400" enable-background="new 0 0 400 400" xml:space="preserve">
<g id="main">
	<path fill="none" stroke="#000000" stroke-width="5" stroke-linecap="round" stroke-linejoin="round" stroke-miterlimit="10" d="
		M199.234,128.013c39.609-2.048,103.727-23.454,124.826,4.961c21.12,28.415,43.372,137.924,1.856,165.54
		C284.4,326.15,114.888,324.316,74.973,298.75c-39.915-25.545-9.243-125.132,11.454-153.568
		C107.126,116.721,159.625,130.035,199.234,128.013"/>
</g>
<g id="template" display="none">
	<g id="varT" display="inline">
		
			<rect x="163.317" y="97.925" fill="#FFFFFF" stroke="#000000" stroke-width="2.3521" stroke-linecap="round" stroke-miterlimit="8" width="56.592" height="55.819"/>
		<text transform="matrix(1 0 0 1 182.8701 135.9688)" font-family="sans-serif" font-size="29.7303">T</text>
	</g>
	<g display="inline">
		
			<line fill="none" stroke="#000000" stroke-width="6.2801" stroke-linejoin="round" stroke-miterlimit="10" x1="233.078" y1="243.759" x2="233.078" y2="288.609"/>
		
			<line fill="none" stroke="#000000" stroke-width="6.2801" stroke-linejoin="round" stroke-miterlimit="10" x1="255.52" y1="266.174" x2="210.501" y2="266.174"/>
	</g>
	<g display="inline">
		
			<line fill="none" stroke="#000000" stroke-width="6.2801" stroke-linejoin="round" stroke-miterlimit="10" x1="218.025" y1="168.795" x2="218.025" y2="213.814"/>
		
			<line fill="none" stroke="#000000" stroke-width="6.2801" stroke-linejoin="round" stroke-miterlimit="10" x1="240.466" y1="191.378" x2="195.612" y2="191.378"/>
	</g>
	<g display="inline">
		
			<line fill="none" stroke="#000000" stroke-width="6.2801" stroke-linejoin="round" stroke-miterlimit="10" x1="111.102" y1="246.885" x2="111.102" y2="291.739"/>
		
			<line fill="none" stroke="#000000" stroke-width="6.2801" stroke-linejoin="round" stroke-miterlimit="10" x1="133.516" y1="269.324" x2="88.521" y2="269.324"/>
	</g>
	<g id="points" display="inline">
		<text transform="matrix(1 0 0 1 236.2813 234.1924)" font-family="sans-serif" font-size="16">T</text>
		<text transform="matrix(1 0 0 1 246.1816 234.1924)" font-family="sans-serif" font-size="16">A</text>
		<text transform="matrix(1 0 0 1 256.8545 234.1924)" font-family="sans-serif" font-size="16">R</text>
		<text transform="matrix(1 0 0 1 268.2969 234.1924)" font-family="sans-serif" font-size="16">G</text>
		<text transform="matrix(1 0 0 1 280.8545 234.1924)" font-family="sans-serif" font-size="16">E</text>
		<text transform="matrix(1 0 0 1 291.1426 234.1924)" font-family="sans-serif" font-size="16">T</text>
		<text transform="matrix(1 0 0 1 236.2813 253.3926)" font-family="sans-serif" font-size="16">DESIGNATOR</text>
		<text transform="matrix(1 0 0 1 221.7305 159.0566)" font-family="sans-serif" font-size="16">T</text>
		<text transform="matrix(1 0 0 1 231.6309 159.0566)" font-family="sans-serif" font-size="16">A</text>
		<text transform="matrix(1 0 0 1 242.3037 159.0566)" font-family="sans-serif" font-size="16">R</text>
		<text transform="matrix(1 0 0 1 253.7461 159.0566)" font-family="sans-serif" font-size="16">G</text>
		<text transform="matrix(1 0 0 1 266.3037 159.0566)" font-family="sans-serif" font-size="16">E</text>
		<text transform="matrix(1 0 0 1 276.5918 159.0566)" font-family="sans-serif" font-size="16">T</text>
		<text transform="matrix(1 0 0 1 221.7305 178.2568)" font-family="sans-serif" font-size="16">DESIGNATOR</text>
		<text transform="matrix(1 0 0 1 98.541 227.1924)" font-family="sans-serif" font-size="16">T</text>
		<text transform="matrix(1 0 0 1 108.4419 227.1924)" font-family="sans-serif" font-size="16">A</text>
		<text transform="matrix(1 0 0 1 119.1138 227.1924)" font-family="sans-serif" font-size="16">R</text>
		<text transform="matrix(1 0 0 1 130.5571 227.1924)" font-family="sans-serif" font-size="16">G</text>
		<text transform="matrix(1 0 0 1 143.1138 227.1924)" font-family="sans-serif" font-size="16">E</text>
		<text transform="matrix(1 0 0 1 153.4019 227.1924)" font-family="sans-serif" font-size="16">T</text>
		<text transform="matrix(1 0 0 1 98.541 246.3926)" font-family="sans-serif" font-size="16">DESIGNATOR</text>
	</g>
</g>
<g id="example1" display="none">
	<g display="inline">
		
			<line fill="none" stroke="#000000" stroke-width="6.2801" stroke-linejoin="round" stroke-miterlimit="10" x1="233.078" y1="243.759" x2="233.078" y2="288.609"/>
		
			<line fill="none" stroke="#000000" stroke-width="6.2801" stroke-linejoin="round" stroke-miterlimit="10" x1="255.52" y1="266.174" x2="210.501" y2="266.174"/>
	</g>
	<g display="inline">
		
			<line fill="none" stroke="#000000" stroke-width="6.2801" stroke-linejoin="round" stroke-miterlimit="10" x1="218.025" y1="168.795" x2="218.025" y2="213.814"/>
		
			<line fill="none" stroke="#000000" stroke-width="6.2801" stroke-linejoin="round" stroke-miterlimit="10" x1="240.466" y1="191.378" x2="195.612" y2="191.378"/>
	</g>
	<text transform="matrix(1 0 0 1 240.2813 257.3926)" display="inline" font-family="sans-serif" font-size="16">IF1002</text>
	<text transform="matrix(1 0 0 1 227.7305 183.2568)" display="inline" font-family="sans-serif" font-size="16">IF1001</text>
	<g display="inline">
		<text transform="matrix(1 0 0 1 152.9063 263.3438)" font-family="sans-serif" font-size="7.3454">KL0003 </text>
		<text transform="matrix(1 0 0 1 143.2266 228.8506)" font-family="sans-serif" font-size="7.3454">KL0002</text>
		<text transform="matrix(1 0 0 1 95.6719 265.9453)" font-family="sans-serif" font-size="7.3454">KL0001</text>
		
			<path fill="none" stroke="#000000" stroke-width="2.2954" stroke-linecap="round" stroke-linejoin="round" stroke-miterlimit="10" d="
			M131.898,205.6c18.184-0.938,47.62-10.768,57.306,2.277c9.696,13.045,19.912,63.318,0.851,75.997
			c-19.058,12.688-96.88,11.847-115.204,0.108c-18.324-11.729-4.243-57.447,5.259-70.502
			C89.613,200.416,113.714,206.527,131.898,205.6"/>
		<rect x="110.858" y="191.787" fill="#FFFFFF" width="31.369" height="25.625"/>
		<text id="varTe" transform="matrix(1 0 0 1 114.4941 209.251)" font-family="sans-serif" font-size="13.6488">C4F</text>
		<g>
			
				<line fill="none" stroke="#000000" stroke-width="2.8831" stroke-linejoin="round" stroke-miterlimit="10" x1="147.437" y1="258.736" x2="147.437" y2="279.327"/>
			
				<line fill="none" stroke="#000000" stroke-width="2.8831" stroke-linejoin="round" stroke-miterlimit="10" x1="157.738" y1="269.025" x2="137.071" y2="269.025"/>
		</g>
		<g>
			
				<line fill="none" stroke="#000000" stroke-width="2.8831" stroke-linejoin="round" stroke-miterlimit="10" x1="140.525" y1="224.32" x2="140.525" y2="244.99"/>
			
				<line fill="none" stroke="#000000" stroke-width="2.8831" stroke-linejoin="round" stroke-miterlimit="10" x1="150.827" y1="234.689" x2="130.236" y2="234.689"/>
		</g>
		<g>
			
				<line fill="none" stroke="#000000" stroke-width="2.8831" stroke-linejoin="round" stroke-miterlimit="10" x1="91.438" y1="260.172" x2="91.438" y2="280.764"/>
			
				<line fill="none" stroke="#000000" stroke-width="2.8831" stroke-linejoin="round" stroke-miterlimit="10" x1="101.729" y1="270.475" x2="81.072" y2="270.475"/>
		</g>
	</g>
	<g id="varT_2_" display="inline">
		<rect x="153.451" y="97.925" fill="#FFFFFF" width="73.049" height="45.575"/>
		<text transform="matrix(1 0 0 1 159.4849 135.9688)" font-family="sans-serif" font-size="29.7303">RED</text>
	</g>
</g>
<g id="example2" display="none">
	<g display="inline">
		
			<line fill="none" stroke="#000000" stroke-width="6.2801" stroke-linejoin="round" stroke-miterlimit="10" x1="233.078" y1="243.759" x2="233.078" y2="288.609"/>
		
			<line fill="none" stroke="#000000" stroke-width="6.2801" stroke-linejoin="round" stroke-miterlimit="10" x1="255.52" y1="266.174" x2="210.501" y2="266.174"/>
	</g>
	<g display="inline">
		
			<line fill="none" stroke="#000000" stroke-width="6.2801" stroke-linejoin="round" stroke-miterlimit="10" x1="218.025" y1="168.795" x2="218.025" y2="213.814"/>
		
			<line fill="none" stroke="#000000" stroke-width="6.2801" stroke-linejoin="round" stroke-miterlimit="10" x1="240.466" y1="191.378" x2="195.612" y2="191.378"/>
	</g>
	<g display="inline">
		
			<line fill="none" stroke="#000000" stroke-width="6.2801" stroke-linejoin="round" stroke-miterlimit="10" x1="123.5" y1="221.249" x2="123.5" y2="266.269"/>
		
			<line fill="none" stroke="#000000" stroke-width="6.2801" stroke-linejoin="round" stroke-miterlimit="10" x1="145.94" y1="243.832" x2="101.086" y2="243.832"/>
	</g>
	<text transform="matrix(1 0 0 1 133.2051 235.7109)" display="inline" font-family="sans-serif" font-size="16">KF2525</text>
	<text transform="matrix(1 0 0 1 240.2813 257.3926)" display="inline" font-family="sans-serif" font-size="16">KF2287</text>
	<text transform="matrix(1 0 0 1 227.7305 183.2568)" display="inline" font-family="sans-serif" font-size="16">KF2019</text>
	<g id="varT_1_" display="inline">
		<rect x="153.451" y="97.925" fill="#FFFFFF" width="73.049" height="45.575"/>
		<text transform="matrix(1 0 0 1 158.6572 135.9688)" font-family="sans-serif" font-size="29.7303">C7F </text>
	</g>
</g>
</svg>
