<?xml version="1.0" encoding="utf-8"?>
<!-- Generator: Adobe Illustrator 16.0.0, SVG Export Plug-In . SVG Version: 6.00 Build 0)  -->
<!DOCTYPE svg PUBLIC "-//W3C//DTD SVG 1.1//EN" "http://www.w3.org/Graphics/SVG/1.1/DTD/svg11.dtd">
<svg version="1.1" id="Version_1.0" xmlns="http://www.w3.org/2000/svg" xmlns:xlink="http://www.w3.org/1999/xlink" x="0px"
	 y="0px" width="400px" height="400px" viewBox="0 0 400 400" enable-background="new 0 0 400 400" xml:space="preserve">
<g id="main">
	
		<path fill="none" stroke="#000000" stroke-width="3.6281" stroke-linecap="round" stroke-linejoin="round" stroke-miterlimit="10" d="
		M209.691,53.165c-78.023,0-141.26,60.662-141.26,135.51c0,74.845,63.237,135.507,141.26,135.507
		c78.002,0,141.236-60.662,141.236-135.507C350.931,113.827,287.693,53.165,209.691,53.165"/>
	
		<path fill="none" stroke="#000000" stroke-width="3.6281" stroke-linecap="round" stroke-linejoin="round" stroke-miterlimit="10" d="
		M209.617,103.704c-48.924,0-88.579,38.041-88.579,84.971c0,46.909,39.655,84.949,88.579,84.949
		c48.943,0,88.598-38.04,88.598-84.949C298.215,141.745,258.561,103.704,209.617,103.704"/>
	
		<path fill="none" stroke="#000000" stroke-width="3.6281" stroke-linecap="round" stroke-linejoin="round" stroke-miterlimit="10" d="
		M209.691,157.4c-17.979,0-32.544,13.968-32.544,31.201c0,17.234,14.566,31.204,32.544,31.204c17.957,0,32.522-13.97,32.522-31.204
		C242.217,171.368,227.648,157.4,209.691,157.4"/>
	<text transform="matrix(1 0 0 1 173.9561 237.377)" font-family="sans-serif" font-size="14">MIN RG</text>
	<text transform="matrix(1 0 0 1 155.6826 342.7227)" font-family="sans-serif" font-size="14">MAX RG(2)</text>
	<text transform="matrix(1 0 0 1 154.8145 292.4971)" font-family="sans-serif" font-size="14">MAX RG(1)</text>
	<text transform="matrix(1 0 0 1 187.0313 258.5586)" font-family="sans-serif" font-size="14">ALT</text>
	<text transform="matrix(1 0 0 1 183.5547 311.96)" font-family="sans-serif" font-size="14">ALT</text>
	<text transform="matrix(1 0 0 1 189.9219 361.8643)" font-family="sans-serif" font-size="14">ALT</text>
</g>
<g id="template" display="none">
	<g id="varAM2" display="inline">
		
			<rect x="234.234" y="328.646" fill="none" stroke="#000000" stroke-width="2.4127" stroke-linecap="round" stroke-miterlimit="8" width="38.096" height="17.541"/>
		<text transform="matrix(1 0 0 1 238.1074 343.0059)" font-family="sans-serif" font-size="14">AM2</text>
	</g>
	<g id="varAM1" display="inline">
		
			<rect x="233.146" y="278.705" fill="none" stroke="#000000" stroke-width="2.4127" stroke-linecap="round" stroke-miterlimit="8" width="38.095" height="17.541"/>
		<text transform="matrix(1 0 0 1 237.2393 293.083)" font-family="sans-serif" font-size="14">AM1</text>
	</g>
	<g id="varAM" display="inline">
		
			<rect x="230.734" y="222.704" fill="none" stroke="#000000" stroke-width="2.4127" stroke-linecap="round" stroke-miterlimit="8" width="29.621" height="18.141"/>
		<text transform="matrix(1 0 0 1 234.3281 237.0557)" font-family="sans-serif" font-size="14">AM</text>
	</g>
	<g id="varX2" display="inline">
		
			<rect x="226.486" y="347.639" fill="none" stroke="#000000" stroke-width="2.4127" stroke-linecap="round" stroke-miterlimit="8" width="23.711" height="17.18"/>
		<text transform="matrix(1 0 0 1 229.7002 361.8643)" font-family="sans-serif" font-size="14">X2</text>
	</g>
	<g id="varX1" display="inline">
		
			<rect x="222.025" y="297.698" fill="none" stroke="#000000" stroke-width="2.4127" stroke-linecap="round" stroke-miterlimit="8" width="20.188" height="17.159"/>
		<text transform="matrix(1 0 0 1 223.3125 311.96)" font-family="sans-serif" font-size="14">X1</text>
	</g>
	<g id="varX" display="inline">
		
			<rect x="225.652" y="244.238" fill="none" stroke="#000000" stroke-width="2.4127" stroke-linecap="round" stroke-miterlimit="8" width="20.189" height="17.18"/>
		<text transform="matrix(1 0 0 1 231.1543 258.5586)" font-family="sans-serif" font-size="14">X</text>
	</g>
	<g id="points" display="inline">
		<path stroke="#000000" stroke-width="0.2902" stroke-linejoin="bevel" stroke-miterlimit="10" d="M76.594,102.344l121.686,79.365
			c0.562,0.38,0.725,1.124,0.363,1.686c-0.382,0.563-1.127,0.71-1.688,0.346L75.271,104.357c-0.563-0.363-0.708-1.107-0.345-1.669
			C75.288,102.126,76.032,101.98,76.594,102.344L76.594,102.344z M199.568,175.323l8.181,14.006l-16.108-1.852L199.568,175.323z"/>
		<text transform="matrix(1 0 0 1 39.585 80.0654)" font-family="sans-serif" font-size="14">A</text>
		<text transform="matrix(1 0 0 1 49.3872 80.0654)" font-family="sans-serif" font-size="14">NCH</text>
		<text transform="matrix(1 0 0 1 79.6338 80.0654)" font-family="sans-serif" font-size="14">O</text>
		<text transform="matrix(1 0 0 1 90.5518 80.0654)" font-family="sans-serif" font-size="14">R</text>
		<text transform="matrix(1 0 0 1 39.585 96.8652)" font-family="sans-serif" font-size="14">POINT </text>
	</g>
</g>
<g id="example" display="none">
	<text id="varXe" transform="matrix(1 0 0 1 217.1543 258.5586)" display="inline" font-family="sans-serif" font-size="14">GL</text>
	<text id="varX1e" transform="matrix(1 0 0 1 214.3125 311.96)" display="inline" font-family="sans-serif" font-size="14">GL</text>
	<text id="varX2e" transform="matrix(1 0 0 1 220.7002 361.8643)" display="inline" font-family="sans-serif" font-size="14">GL</text>
	<text id="varAMe" transform="matrix(1 0 0 1 231.3281 237.0557)" display="inline" font-family="sans-serif" font-size="14">1200</text>
	<text id="varAM1e" transform="matrix(1 0 0 1 235.2393 292.083)" display="inline" font-family="sans-serif" font-size="14">28,500</text>
	<text id="varAM2e" transform="matrix(1 0 0 1 233.1074 343.0059)" display="inline" font-family="sans-serif" font-size="14">34,400</text>
	<g display="inline">
		<polygon fill-rule="evenodd" clip-rule="evenodd" fill="#84E3FF" points="184.039,173.84 234.857,173.84 234.857,204.431 
			184.039,204.431 184.039,173.84 		"/>
		<polygon fill="none" stroke="#000000" stroke-width="0.4993" stroke-linecap="round" stroke-miterlimit="8" points="
			184.039,173.84 184.039,204.431 234.857,204.431 234.857,173.84 184.039,173.84 		"/>
		
			<path fill="none" stroke="#000000" stroke-width="0.4993" stroke-linecap="round" stroke-linejoin="round" stroke-miterlimit="8" d="
			M197.719,180.927c-1.64,0-2.969,1.327-2.969,2.964v11.855c0,1.635,1.329,2.963,2.969,2.963h24.455c1.639,0,2.97-1.328,2.97-2.963
			v-11.855c0-1.637-1.331-2.964-2.97-2.964H197.719z"/>
		<path fill-rule="evenodd" clip-rule="evenodd" d="M210.258,187.643c-1.479,0-2.679,1.197-2.679,2.673s1.199,2.673,2.679,2.673
			c1.479,0,2.678-1.197,2.678-2.673S211.736,187.643,210.258,187.643L210.258,187.643z"/>
	</g>
</g>
</svg>
