<?xml version="1.0" encoding="utf-8"?>
<!-- Generator: Adobe Illustrator 16.0.0, SVG Export Plug-In . SVG Version: 6.00 Build 0)  -->
<!DOCTYPE svg PUBLIC "-//W3C//DTD SVG 1.1//EN" "http://www.w3.org/Graphics/SVG/1.1/DTD/svg11.dtd">
<svg version="1.1" id="Version_1.0" xmlns="http://www.w3.org/2000/svg" xmlns:xlink="http://www.w3.org/1999/xlink" x="0px"
	 y="0px" width="400px" height="400px" viewBox="0 0 400 400" enable-background="new 0 0 400 400" xml:space="preserve">
<g id="main">
	
		<rect x="19.126" y="85.696" fill="none" stroke="#000000" stroke-width="3.8817" stroke-linecap="round" stroke-miterlimit="8" width="328.646" height="238.085"/>
	<text transform="matrix(1 0 0 1 149.6216 169.3984)" font-family="sans-serif" font-size="24">RFA</text>
</g>
<g id="template" display="none">
	
		<g id="varAM" transform="matrix(6.12303e-017 1 -1 6.12303e-017 405 -5) translate(240 175) scale(0.742857 0.742857) translate(-240 -175) translate(-83.4615 -235.577) translate(240 175) scale(0.834615 0.834615) translate(-240 -175) translate(240 175) scale(0.806452 0.806452) translate(-240 -175) translate(0 2) translate(0 2) translate(0 2) translate(0 2) translate(0 2) translate(2 0) translate(2 0) translate(2 0) translate(2 0) translate(2 0) translate(2 0) translate(2 0) translate(2 0) translate(2 0) translate(2 0) translate(2 0) translate(2 0) translate(0 2)" display="inline">
		
			<rect x="154.805" y="186.691" transform="matrix(2.578893e-006 1 -1 2.578893e-006 401.4955 41.8863)" fill="#FFFFFF" stroke="#000000" stroke-width="3" width="50" height="70"/>
		<text transform="matrix(2 0 0 2 152.8104 234.6914)" font-family="sans-serif" font-size="18">AM</text>
	</g>
	<g id="varW1" display="inline">
		
			<rect x="170.361" y="246.313" fill="none" stroke="#000000" stroke-width="2.8164" stroke-linecap="round" stroke-miterlimit="8" width="44.891" height="30.906"/>
		<text transform="matrix(1 0 0 1 177.4507 267.5381)" font-family="sans-serif" font-size="20.8061">W</text>
		<text transform="matrix(1 0 0 1 197.3178 267.5381)" font-family="sans-serif" font-size="20.8061">1</text>
		<text transform="matrix(1 0 0 1 208.5136 267.5381)" font-family="sans-serif" font-size="20.8061"> </text>
	</g>
	<g id="varW" display="inline">
		<text transform="matrix(1 0 0 1 158.3828 266.4668)" font-family="serif" font-size="22.0482">-</text>
		
			<rect x="120.947" y="247.313" fill="none" stroke="#000000" stroke-width="3" stroke-linecap="round" stroke-miterlimit="8" width="34.683" height="29.188"/>
		<text transform="matrix(1 0 0 1 127.956 268.791)" font-family="sans-serif" font-size="20.8061">W</text>
	</g>
	<g id="varT" display="inline">
		
			<rect x="149.453" y="190.356" fill="none" stroke="#000000" stroke-width="3" stroke-linecap="round" stroke-miterlimit="8" width="33.77" height="36.217"/>
		<text transform="matrix(1 0 0 1 160.6504 215.3203)" font-family="sans-serif" font-size="19.5639">T</text>
	</g>
	<g id="points" display="inline">
		<g>
			<path stroke="#000000" stroke-width="0.3105" stroke-linejoin="bevel" stroke-miterlimit="10" d="M40.864,201.507l-12.149-9.063
				c-0.563-0.427-0.68-1.243-0.252-1.825c0.427-0.563,1.242-0.68,1.806-0.252l12.149,9.063c0.583,0.427,0.699,1.242,0.271,1.825
				C42.261,201.816,41.446,201.934,40.864,201.507L40.864,201.507z M26.929,199.158l-7.803-15.507l17.08,3.086L26.929,199.158z"/>
			<text transform="matrix(1 0 0 1 28.9355 215.6563)" font-family="sans-serif" font-size="13.0426">P</text>
			<text transform="matrix(1 0 0 1 37.3213 215.6563)" font-family="sans-serif" font-size="13.0426">T</text>
			<text transform="matrix(1 0 0 1 45.7065 215.6563)" font-family="sans-serif" font-size="13.0426"> </text>
			<text transform="matrix(1 0 0 1 49.4204 215.6563)" font-family="sans-serif" font-size="13.0426">1</text>
		</g>
		<g>
			<path stroke="#000000" stroke-width="0.3105" stroke-linejoin="bevel" stroke-miterlimit="10" d="M320.059,210.9l13.121-4.483
				c0.679-0.231,1.414,0.116,1.646,0.796c0.233,0.682-0.134,1.418-0.813,1.65l-13.12,4.48c-0.657,0.232-1.396-0.137-1.63-0.814
				C319.029,211.87,319.378,211.133,320.059,210.9L320.059,210.9z M328.638,201.119l17.194,2.328l-12.168,12.363L328.638,201.119z"
				/>
			<text transform="matrix(1 0 0 1 293.4326 224.3936)" font-family="sans-serif" font-size="13.0426">P</text>
			<text transform="matrix(1 0 0 1 301.8193 224.3936)" font-family="sans-serif" font-size="13.0426">T</text>
			<text transform="matrix(1 0 0 1 310.2031 224.3936)" font-family="sans-serif" font-size="13.0426"> 2 </text>
		</g>
		<g>
			<path stroke="#000000" stroke-width="0.3105" stroke-linejoin="bevel" stroke-miterlimit="10" d="M359.691,102.135v202.491
				c0,0.718-0.584,1.299-1.304,1.299c-0.719,0-1.302-0.581-1.302-1.299V102.135c0-0.719,0.583-1.301,1.302-1.301
				C359.107,100.834,359.691,101.416,359.691,102.135L359.691,102.135z M350.627,104.716l7.764-15.527l7.767,15.527H350.627z
				 M366.154,302.042l-7.767,15.526l-7.764-15.526H366.154z"/>
			<text transform="matrix(6.123234e-017 1 -1 6.123234e-017 368.8379 180.1611)" font-family="sans-serif" font-size="18">WIDTH (m)</text>
		</g>
	</g>
</g>
<g id="example" display="none">
	<text transform="matrix(1 0 0 1 88.8349 252.9844)" display="inline" font-family="sans-serif" font-size="24">051030ZAPR08 -</text>
	<text transform="matrix(1 0 0 1 88.8349 283.1719)" display="inline" font-family="sans-serif" font-size="24">051600ZAPR08</text>
	<text id="varTe" transform="matrix(1 0 0 1 117.1767 207.4541)" display="inline" font-family="sans-serif" font-size="24">X CORPS</text>
</g>
</svg>
