<?xml version="1.0" encoding="utf-8"?>
<!-- Generator: Adobe Illustrator 16.0.0, SVG Export Plug-In . SVG Version: 6.00 Build 0)  -->
<!DOCTYPE svg PUBLIC "-//W3C//DTD SVG 1.1//EN" "http://www.w3.org/Graphics/SVG/1.1/DTD/svg11.dtd">
<svg version="1.1" id="Version_1.0" xmlns="http://www.w3.org/2000/svg" xmlns:xlink="http://www.w3.org/1999/xlink" x="0px"
	 y="0px" width="400px" height="400px" viewBox="0 0 400 400" enable-background="new 0 0 400 400" xml:space="preserve">
<g id="main">
	
		<rect x="77.474" y="78.555" transform="matrix(0.7071 -0.7071 0.7071 0.7071 -82.7685 198.3062)" fill="none" stroke="#000000" stroke-width="5" width="241.039" height="241.017"/>
	<line fill="none" stroke="#000000" stroke-width="5" x1="197.985" y1="136.5" x2="197.985" y2="259.5"/>
	<line fill="none" stroke="#000000" stroke-width="5" x1="136.5" y1="198" x2="261.5" y2="198"/>
</g>
<g id="template" display="none">
	<g id="points" display="inline">
		<g>
			<line fill="none" stroke="#000000" stroke-width="5" x1="112.314" y1="114.314" x2="138" y2="140"/>
			<text transform="matrix(1 0 0 1 125.5 156.5352)" font-family="sans-serif" font-size="18">PT 1</text>
		</g>
		<g>
			<line fill="none" stroke="#000000" stroke-width="5" x1="261.5" y1="259.5" x2="280.5" y2="278.5"/>
			<text transform="matrix(1 0 0 1 228.5 253.5352)" font-family="sans-serif" font-size="18">PT 2</text>
		</g>
		<g>
			<g>
				<g>
					<line fill="none" stroke="#000000" stroke-width="5" x1="235.5" y1="361.5" x2="359.5" y2="237.5"/>
					<polygon points="365.763,248.921 372.215,224.841 348.135,231.293 					"/>
					<polygon points="229.236,350.079 222.785,374.159 246.865,367.707 					"/>
				</g>
			</g>
			<text transform="matrix(1 0 0 1 279.1836 344.167)" font-family="sans-serif" font-size="18">WIDTH (M)</text>
		</g>
	</g>
	<g id="varT" display="inline">
		
			<rect x="210.22" y="146.797" fill="none" stroke="#000000" stroke-width="1.7867" stroke-linecap="round" stroke-miterlimit="8" width="44.561" height="41.703"/>
		<text transform="matrix(1 0 0 1 224.1416 177.0977)" font-family="sans-serif" font-size="23.7276">T</text>
	</g>
</g>
<g id="example" display="none">
	<text transform="matrix(1 0 0 1 211.1416 177.0977)" display="inline" font-family="sans-serif" font-size="23.7276">NSFS002</text>
</g>
</svg>
