<?xml version="1.0" encoding="utf-8"?>
<!-- Generator: Adobe Illustrator 16.0.0, SVG Export Plug-In . SVG Version: 6.00 Build 0)  -->
<!DOCTYPE svg PUBLIC "-//W3C//DTD SVG 1.1//EN" "http://www.w3.org/Graphics/SVG/1.1/DTD/svg11.dtd">
<svg version="1.1" id="Version_1.0" xmlns="http://www.w3.org/2000/svg" xmlns:xlink="http://www.w3.org/1999/xlink" x="0px"
	 y="0px" width="400px" height="400px" viewBox="0 0 400 400" enable-background="new 0 0 400 400" xml:space="preserve">
<g id="main">
	<path fill="none" stroke="#000000" stroke-width="5" stroke-linecap="round" stroke-linejoin="round" stroke-miterlimit="10" d="
		M199.234,128.013c39.609-2.048,103.727-23.454,124.826,4.961c21.12,28.415,43.372,137.924,1.856,165.54
		C284.4,326.15,114.888,324.316,74.973,298.75c-39.915-25.545-9.243-125.132,11.454-153.568
		C107.126,116.721,159.625,130.035,199.234,128.013"/>
</g>
<g id="template" display="none">
	<g id="target_2_" display="inline">
		
			<rect x="85.731" y="166.347" fill="none" stroke="#000000" stroke-width="2" stroke-linejoin="round" stroke-miterlimit="10" width="116" height="42.528"/>
		<text transform="matrix(1 0 0 1 87.7314 182.2793)" font-family="sans-serif" font-size="16">TARGET</text>
		<text transform="matrix(1 0 0 1 87.7314 201.4785)" font-family="sans-serif" font-size="16">DESIGNATOR</text>
	</g>
	<g id="target_1_" display="inline">
		
			<rect x="215.5" y="173.944" fill="none" stroke="#000000" stroke-width="2" stroke-linejoin="round" stroke-miterlimit="10" width="116" height="42.529"/>
		<text transform="matrix(1 0 0 1 219.9092 189.6748)" font-family="sans-serif" font-size="16">TARGET</text>
		<text transform="matrix(1 0 0 1 219.9092 208.875)" font-family="sans-serif" font-size="16">DESIGNATOR</text>
	</g>
	<g id="target" display="inline">
		
			<rect x="119.676" y="241.434" fill="none" stroke="#000000" stroke-width="2" stroke-linejoin="round" stroke-miterlimit="10" width="116" height="42.527"/>
		<text transform="matrix(1 0 0 1 124.7813 257.3643)" font-family="sans-serif" font-size="16">TARGET</text>
		<text transform="matrix(1 0 0 1 124.7813 276.5645)" font-family="sans-serif" font-size="16">DESIGNATOR</text>
	</g>
	<g id="varT" display="inline">
		
			<rect x="163.317" y="97.925" fill="#FFFFFF" stroke="#000000" stroke-width="2.3521" stroke-linecap="round" stroke-miterlimit="8" width="56.592" height="55.819"/>
		<text transform="matrix(1 0 0 1 182.8701 135.9688)" font-family="sans-serif" font-size="29.7303">T</text>
	</g>
</g>
<g id="example" display="none">
	<text transform="matrix(1 0 0 1 100.7314 203.4785)" display="inline" font-family="sans-serif" font-size="16">FC6705</text>
	<text transform="matrix(1 0 0 1 235.9092 208.875)" display="inline" font-family="sans-serif" font-size="16">FC6706</text>
	<text transform="matrix(1 0 0 1 165.3169 276.5645)" display="inline" font-family="sans-serif" font-size="16">FC6704</text>
	<g id="varT_1_" display="inline">
		<rect x="163.317" y="104.5" fill="#FFFFFF" width="63.183" height="41"/>
		<text transform="matrix(1 0 0 1 167.8701 135.9688)" font-family="sans-serif" font-size="29.7303">V2P</text>
	</g>
</g>
</svg>
