<?xml version="1.0" encoding="utf-8"?>
<!-- Generator: Adobe Illustrator 16.0.0, SVG Export Plug-In . SVG Version: 6.00 Build 0)  -->
<!DOCTYPE svg PUBLIC "-//W3C//DTD SVG 1.1//EN" "http://www.w3.org/Graphics/SVG/1.1/DTD/svg11.dtd">
<svg version="1.1" id="Version_1.0" xmlns="http://www.w3.org/2000/svg" xmlns:xlink="http://www.w3.org/1999/xlink" x="0px"
	 y="0px" width="400px" height="400px" viewBox="0 0 400 400" enable-background="new 0 0 400 400" xml:space="preserve">
<g id="main">
	
		<rect x="40.519" y="92.818" fill="none" stroke="#000000" stroke-width="3.6048" stroke-linecap="round" stroke-miterlimit="8" width="300.254" height="224.75"/>
	<g>
		<rect x="309.051" y="150.974" fill="#FFFFFF" width="49.31" height="29.188"/>
		<text transform="matrix(1 0 0 1 313.0605 172.4521)" font-family="sans-serif" font-size="20.8061">PAA</text>
	</g>
	<g>
		<rect x="165.992" y="302.975" fill="#FFFFFF" width="49.307" height="29.188"/>
		<text transform="matrix(1 0 0 1 170.001 324.4531)" font-family="sans-serif" font-size="20.8061">PAA</text>
	</g>
	<g>
		<rect x="15.865" y="150.974" fill="#FFFFFF" width="49.307" height="29.188"/>
		<text transform="matrix(1 0 0 1 19.874 172.4521)" font-family="sans-serif" font-size="20.8061">PAA</text>
	</g>
	<g>
		<rect x="165.992" y="78.224" fill="#FFFFFF" width="49.307" height="29.188"/>
		<text transform="matrix(1 0 0 1 170.001 99.7021)" font-family="sans-serif" font-size="20.8061">PAA</text>
	</g>
</g>
<g id="template" display="none">
	
		<g id="varAM" transform="matrix(6.12303e-017 1 -1 6.12303e-017 405 -5) translate(240 175) scale(0.742857 0.742857) translate(-240 -175) translate(-83.4615 -235.577) translate(240 175) scale(0.834615 0.834615) translate(-240 -175) translate(240 175) scale(0.806452 0.806452) translate(-240 -175) translate(0 2) translate(0 2) translate(0 2) translate(0 2) translate(0 2) translate(2 0) translate(2 0) translate(2 0) translate(2 0) translate(2 0) translate(2 0) translate(2 0) translate(2 0) translate(2 0) translate(2 0) translate(2 0) translate(2 0) translate(0 2)" display="inline">
		
			<rect x="154.805" y="174.691" transform="matrix(2.578893e-006 1 -1 2.578893e-006 389.4955 29.8863)" fill="#FFFFFF" stroke="#000000" stroke-width="3" width="50" height="70"/>
		<text transform="matrix(2 0 0 2 152.8104 222.6914)" font-family="sans-serif" font-size="18">AM</text>
	</g>
	<g id="points" display="inline">
		<g>
			<path stroke="#000000" stroke-width="0.3105" stroke-linejoin="bevel" stroke-miterlimit="10" d="M62.256,201.854l-12.149-9.063
				c-0.563-0.427-0.68-1.243-0.252-1.825c0.427-0.563,1.242-0.68,1.806-0.252l12.149,9.063c0.583,0.427,0.699,1.243,0.271,1.825
				C63.654,202.163,62.838,202.28,62.256,201.854L62.256,201.854z M48.322,199.505l-7.803-15.507l17.08,3.086L48.322,199.505z"/>
			<text transform="matrix(1 0 0 1 50.3281 216.0029)" font-family="sans-serif" font-size="13.0426">P</text>
			<text transform="matrix(1 0 0 1 58.7138 216.0029)" font-family="sans-serif" font-size="13.0426">T</text>
			<text transform="matrix(1 0 0 1 67.0991 216.0029)" font-family="sans-serif" font-size="13.0426"> </text>
			<text transform="matrix(1 0 0 1 70.813 216.0029)" font-family="sans-serif" font-size="13.0426">1</text>
		</g>
		<g>
			<path stroke="#000000" stroke-width="0.3105" stroke-linejoin="bevel" stroke-miterlimit="10" d="M313.059,210.9l13.121-4.483
				c0.679-0.231,1.414,0.116,1.646,0.796c0.233,0.682-0.134,1.418-0.813,1.65l-13.12,4.48c-0.657,0.232-1.396-0.137-1.63-0.814
				C312.029,211.87,312.378,211.133,313.059,210.9L313.059,210.9z M321.638,201.119l17.194,2.328l-12.168,12.363L321.638,201.119z"
				/>
			<text transform="matrix(1 0 0 1 286.4326 224.3936)" font-family="sans-serif" font-size="13.0426">P</text>
			<text transform="matrix(1 0 0 1 294.8193 224.3936)" font-family="sans-serif" font-size="13.0426">T</text>
			<text transform="matrix(1 0 0 1 303.2031 224.3936)" font-family="sans-serif" font-size="13.0426"> 2 </text>
		</g>
		<g>
			<path stroke="#000000" stroke-width="0.3105" stroke-linejoin="bevel" stroke-miterlimit="10" d="M365.691,102.135v202.491
				c0,0.718-0.584,1.299-1.304,1.299c-0.719,0-1.302-0.581-1.302-1.299V102.135c0-0.719,0.583-1.301,1.302-1.301
				C365.107,100.834,365.691,101.416,365.691,102.135L365.691,102.135z M356.627,104.716l7.764-15.527l7.767,15.527H356.627z
				 M372.154,302.042l-7.767,15.526l-7.764-15.526H372.154z"/>
			<text transform="matrix(6.123234e-017 1 -1 6.123234e-017 374.8379 180.1611)" font-family="sans-serif" font-size="18">WIDTH (m)</text>
		</g>
	</g>
</g>
</svg>
