<?xml version="1.0" encoding="utf-8"?>
<!-- Generator: Adobe Illustrator 16.0.0, SVG Export Plug-In . SVG Version: 6.00 Build 0)  -->
<!DOCTYPE svg PUBLIC "-//W3C//DTD SVG 1.1//EN" "http://www.w3.org/Graphics/SVG/1.1/DTD/svg11.dtd">
<svg version="1.1" id="Version_1.0" xmlns="http://www.w3.org/2000/svg" xmlns:xlink="http://www.w3.org/1999/xlink" x="0px"
	 y="0px" width="400px" height="400px" viewBox="0 0 400 400" enable-background="new 0 0 400 400" xml:space="preserve">
<g id="main">
	<path fill="none" stroke="#000000" stroke-width="5" stroke-linecap="round" stroke-linejoin="round" stroke-miterlimit="10" d="
		M205.543,46.847c-86.479,0-156.582,67.732-156.582,151.288c0,83.576,70.103,151.309,156.582,151.309
		c86.48,0,156.581-67.731,156.581-151.309C362.124,114.579,292.023,46.847,205.543,46.847"/>
	<text transform="matrix(1 0 0 1 177.9263 111.0313)" font-family="sans-serif" font-size="24">FSA</text>
</g>
<g id="template" display="none">
	<g id="varAM" display="inline">
		
			<rect x="257.629" y="218.605" transform="matrix(0.6486 -0.7611 0.7611 0.6486 -88.7413 292.96)" fill="none" stroke="#000000" stroke-width="3" stroke-linecap="round" stroke-miterlimit="8" width="30.578" height="47.972"/>
		<text transform="matrix(0.7612 0.6486 -0.6486 0.7612 258.9395 238.2725)" font-family="sans-serif" font-size="19.2665">AM</text>
	</g>
	<g id="varW1" display="inline">
		
			<rect x="7.498" y="112.809" fill="none" stroke="#000000" stroke-width="2.5418" stroke-linecap="round" stroke-miterlimit="8" width="44.205" height="34.515"/>
		<text transform="matrix(1 0 0 1 14.5532 137.9102)" font-family="sans-serif" font-size="18">W</text>
		<text transform="matrix(1 0 0 1 31.7412 137.9102)" font-family="sans-serif" font-size="18">1</text>
		<text transform="matrix(1 0 0 1 41.4272 137.9102)" font-family="sans-serif" font-size="18"> </text>
	</g>
	<g id="varW" display="inline">
		<text transform="matrix(1 0 0 1 45.4346 95.6123)" font-family="serif" font-size="21.7108">-</text>
		
			<rect x="8.498" y="70.719" fill="none" stroke="#000000" stroke-width="2.5418" stroke-linecap="round" stroke-miterlimit="8" width="34.152" height="34.535"/>
		<text transform="matrix(1 0 0 1 15.4731 95.9512)" font-family="sans-serif" font-size="18">W</text>
	</g>
	<g id="varT" display="inline">
		
			<rect x="183.238" y="118.225" fill="none" stroke="#000000" stroke-width="2.5418" stroke-linecap="round" stroke-miterlimit="8" width="33.254" height="35.682"/>
		<text transform="matrix(1 0 0 1 194.3374 142.6943)" font-family="sans-serif" font-size="18">T</text>
	</g>
	<g id="points" display="inline">
		<path stroke="#000000" stroke-width="0.3058" stroke-linejoin="bevel" stroke-miterlimit="10" d="M204.339,210.367l103.031,87.436
			c0.536,0.459,0.611,1.26,0.151,1.797c-0.46,0.535-1.263,0.592-1.797,0.151l-103.05-87.455c-0.536-0.458-0.594-1.262-0.135-1.797
			C202.98,209.964,203.805,209.906,204.339,210.367L204.339,210.367z M309.547,291.303l6.71,15.711l-16.588-4.052L309.547,291.303z"
			/>
		<g>
			<path stroke="#000000" stroke-width="0.3058" stroke-linejoin="bevel" stroke-miterlimit="10" d="M384.543,210.311
				l-168.299-1.074c-0.706,0-1.279-0.57-1.279-1.276c0.02-0.706,0.592-1.262,1.299-1.262l168.297,1.069
				c0.706,0,1.28,0.574,1.264,1.28C385.822,209.755,385.249,210.311,384.543,210.311L384.543,210.311z M218.748,215.641l-15.25-7.76
				l15.346-7.53L218.748,215.641z"/>
			<text transform="matrix(1 0 0 1 367.4688 202.9717)" font-family="sans-serif" font-size="12.843">P</text>
			<text transform="matrix(1 0 0 1 375.7266 202.9717)" font-family="sans-serif" font-size="12.843">T</text>
			<text transform="matrix(1 0 0 1 383.9824 202.9717)" font-family="sans-serif" font-size="12.843"> </text>
			<text transform="matrix(1 0 0 1 387.6406 202.9717)" font-family="sans-serif" font-size="12.843">1</text>
		</g>
		<g>
			
				<rect x="226.791" y="221.818" transform="matrix(0.65 -0.76 0.76 0.65 -119.5544 276.8849)" fill="none" stroke="#000000" stroke-width="2.2146" stroke-linecap="round" stroke-miterlimit="8" width="28.009" height="92.814"/>
			<text transform="matrix(0.76 0.65 -0.65 0.76 210.6504 248.3184)" font-family="sans-serif" font-size="14.0014">RADIUS (M)</text>
		</g>
	</g>
</g>
<g id="example" display="none">
	<text id="varTe" transform="matrix(1 0 0 1 206.3379 176.3574)" display="inline" font-family="sans-serif" font-size="24">GREEN</text>
	<text id="varWeW1e" transform="matrix(1 0 0 1 4.4731 103.9512)" display="inline" enable-background="new    "><tspan x="0" y="0" font-family="sans-serif" font-size="18">010700ZJAN08 - </tspan><tspan x="0" y="21.6" font-family="sans-serif" font-size="18">010745ZJAN08    </tspan></text>
	
		<path display="inline" fill="none" stroke="#000000" stroke-width="5" stroke-linecap="round" stroke-linejoin="round" stroke-miterlimit="10" d="
		M257.215,55.847c-73.957,0-133.909,57.925-133.909,129.382c0,71.474,59.953,129.4,133.909,129.4
		c73.959,0,133.909-57.925,133.909-129.4C391.124,113.772,331.174,55.847,257.215,55.847"/>
	<text transform="matrix(1 0 0 1 228.9258 143.6943)" display="inline" font-family="sans-serif" font-size="24">FSA</text>
</g>
</svg>
