<?xml version="1.0" encoding="utf-8"?>
<!-- Generator: Adobe Illustrator 16.0.0, SVG Export Plug-In . SVG Version: 6.00 Build 0)  -->
<!DOCTYPE svg PUBLIC "-//W3C//DTD SVG 1.1//EN" "http://www.w3.org/Graphics/SVG/1.1/DTD/svg11.dtd">
<svg version="1.1" id="Version_1.0" xmlns="http://www.w3.org/2000/svg" xmlns:xlink="http://www.w3.org/1999/xlink" x="0px"
	 y="0px" width="400px" height="400px" viewBox="0 0 400 400" enable-background="new 0 0 400 400" xml:space="preserve">
<g id="main">
	
		<path fill="none" stroke="#000000" stroke-width="4.9263" stroke-linecap="round" stroke-linejoin="round" stroke-miterlimit="10" d="
		M138.047,62.514c-38.923,6.124-60.916,93.731-71.078,122.264c-10.162,28.514-3.393,28.514,10.162,48.894
		c13.537,20.381,38.904,59.094,71.059,73.352c32.155,14.262,96.464,38.713,121.852,12.229
		c25.385-26.483,52.458-128.368,30.448-171.158C278.496,105.303,176.97,56.409,138.047,62.514"/>
	<g>
		<rect x="283.473" y="193.869" fill="#FFFFFF" width="49.311" height="29.188"/>
		<text transform="matrix(1 0 0 1 287.4814 215.3467)" font-family="'ArialMT'" font-size="20.8061">PAA</text>
	</g>
	<g>
		<rect x="39.307" y="182.551" fill="#FFFFFF" width="49.307" height="29.188"/>
		<text transform="matrix(1 0 0 1 43.3164 204.0293)" font-family="'ArialMT'" font-size="20.8061">PAA</text>
	</g>
	<g>
		<rect x="178.571" y="64.189" fill="#FFFFFF" width="49.307" height="29.188"/>
		<text transform="matrix(1 0 0 1 182.5801 85.668)" font-family="'ArialMT'" font-size="20.8061">PAA</text>
	</g>
	<g>
		<rect x="172.408" y="308.189" fill="#FFFFFF" width="49.307" height="29.188"/>
		<text transform="matrix(1 0 0 1 176.417 329.668)" font-family="'ArialMT'" font-size="20.8061">PAA</text>
	</g>
</g>
<g id="template" display="none">
	<g id="varW1" display="inline">
		
			<rect x="192.285" y="210.488" fill="none" stroke="#000000" stroke-width="1.7867" stroke-linecap="round" stroke-miterlimit="8" width="69.322" height="46.687"/>
		<text transform="matrix(1 0 0 1 208.1689 241.8301)" font-family="'ArialMT'" font-size="25.157">W1</text>
	</g>
	<g id="varW" display="inline">
		<text transform="matrix(1 0 0 1 176.4365 241.8301)" font-family="'ArialMT'" font-size="25.157">-</text>
		
			<rect x="121.406" y="210.488" fill="none" stroke="#000000" stroke-width="1.7867" stroke-linecap="round" stroke-miterlimit="8" width="48.366" height="46.687"/>
		<text transform="matrix(1 0 0 1 133.835 242.9648)" font-family="'ArialMT'" font-size="25.157">W</text>
	</g>
	<g id="varT" display="inline">
		
			<rect x="162.406" y="149.134" fill="none" stroke="#000000" stroke-width="1.7867" stroke-linecap="round" stroke-miterlimit="8" width="44.561" height="41.703"/>
		<text transform="matrix(1 0 0 1 178.5752 179.4346)" font-family="'ArialMT'" font-size="23.7276">T</text>
	</g>
</g>
<g id="example" display="none">
	<text transform="matrix(1 0 0 1 99.835 224.9648)" display="inline" font-family="'ArialMT'" font-size="24">051030ZAPR08 – </text>
	<text transform="matrix(1 0 0 1 99.835 253.7646)" display="inline" font-family="'ArialMT'" font-size="24">051600ZAPR08</text>
	<text id="varTe" transform="matrix(1 0 0 1 140.1768 179.4346)" display="inline" font-family="'ArialMT'" font-size="36">3BCT</text>
</g>
</svg>
