<?xml version="1.0" encoding="utf-8"?>
<!-- Generator: Adobe Illustrator 16.0.0, SVG Export Plug-In . SVG Version: 6.00 Build 0)  -->
<!DOCTYPE svg PUBLIC "-//W3C//DTD SVG 1.1//EN" "http://www.w3.org/Graphics/SVG/1.1/DTD/svg11.dtd">
<svg version="1.1" id="Version_1.0" xmlns="http://www.w3.org/2000/svg" xmlns:xlink="http://www.w3.org/1999/xlink" x="0px"
	 y="0px" width="400px" height="400px" viewBox="0 0 400 400" enable-background="new 0 0 400 400" xml:space="preserve">
<g id="main">
	<path fill="none" stroke="#000000" stroke-width="5" stroke-linecap="round" stroke-linejoin="round" stroke-miterlimit="10" d="
		M183.543,46.847c-86.479,0-156.582,67.732-156.582,151.288c0,83.576,70.103,151.309,156.582,151.309
		c86.48,0,156.581-67.731,156.581-151.309C340.124,114.579,270.023,46.847,183.543,46.847"/>
	<text transform="matrix(1 0 0 1 155.9263 111.0313)" font-family="sans-serif" font-size="24">RFA</text>
</g>
<g id="template" display="none">
	<g id="varAM" display="inline">
		
			<rect x="235.603" y="218.621" transform="matrix(0.6486 -0.7611 0.7611 0.6486 -96.492 276.2242)" fill="none" stroke="#000000" stroke-width="3" stroke-linecap="round" stroke-miterlimit="8" width="30.581" height="47.975"/>
		<text transform="matrix(0.7612 0.6486 -0.6486 0.7612 236.9395 238.2734)" font-family="sans-serif" font-size="19.2665">AM</text>
	</g>
	<g id="varW1" display="inline">
		
			<rect x="181.498" y="164.553" fill="none" stroke="#000000" stroke-width="2.5418" stroke-linecap="round" stroke-miterlimit="8" width="44.205" height="34.515"/>
		<text transform="matrix(1 0 0 1 188.5532 189.6543)" font-family="sans-serif" font-size="18">W</text>
		<text transform="matrix(1 0 0 1 205.7402 189.6543)" font-family="sans-serif" font-size="18">1</text>
		<text transform="matrix(1 0 0 1 215.4277 189.6543)" font-family="sans-serif" font-size="18"> </text>
	</g>
	<g id="varW" display="inline">
		<text transform="matrix(1 0 0 1 168.25 188.5029)" font-family="serif" font-size="21.7108">-</text>
		
			<rect x="131.313" y="163.609" fill="none" stroke="#000000" stroke-width="2.5418" stroke-linecap="round" stroke-miterlimit="8" width="34.152" height="34.535"/>
		<text transform="matrix(1 0 0 1 138.2886 188.8418)" font-family="sans-serif" font-size="18">W</text>
	</g>
	<g id="varT" display="inline">
		
			<rect x="157.238" y="118.225" fill="none" stroke="#000000" stroke-width="2.5418" stroke-linecap="round" stroke-miterlimit="8" width="33.254" height="35.682"/>
		<text transform="matrix(1 0 0 1 168.3374 142.6943)" font-family="sans-serif" font-size="18">T</text>
	</g>
	<g id="points" display="inline">
		<path stroke="#000000" stroke-width="0.3058" stroke-linejoin="bevel" stroke-miterlimit="10" d="M182.339,210.367l103.031,87.436
			c0.536,0.459,0.61,1.26,0.151,1.797c-0.459,0.535-1.263,0.592-1.797,0.151l-103.05-87.455c-0.537-0.458-0.594-1.262-0.135-1.797
			C180.981,209.964,181.804,209.906,182.339,210.367L182.339,210.367z M287.547,291.303l6.71,15.711l-16.588-4.052L287.547,291.303z
			"/>
		<g>
			<path stroke="#000000" stroke-width="0.3058" stroke-linejoin="bevel" stroke-miterlimit="10" d="M362.543,210.311
				l-168.298-1.074c-0.707,0-1.28-0.57-1.28-1.276c0.019-0.706,0.593-1.262,1.299-1.262l168.295,1.069
				c0.706,0,1.28,0.574,1.264,1.28C363.822,209.755,363.249,210.311,362.543,210.311L362.543,210.311z M196.748,215.641l-15.25-7.76
				l15.346-7.53L196.748,215.641z"/>
			<text transform="matrix(1 0 0 1 345.4688 202.9717)" font-family="sans-serif" font-size="12.843">P</text>
			<text transform="matrix(1 0 0 1 353.7266 202.9717)" font-family="sans-serif" font-size="12.843">T</text>
			<text transform="matrix(1 0 0 1 361.9824 202.9717)" font-family="sans-serif" font-size="12.843"> </text>
			<text transform="matrix(1 0 0 1 365.6406 202.9717)" font-family="sans-serif" font-size="12.843">1</text>
		</g>
		<g>
			
				<rect x="204.791" y="221.821" transform="matrix(0.65 -0.76 0.76 0.65 -127.2576 260.1669)" fill="none" stroke="#000000" stroke-width="2.2146" stroke-linecap="round" stroke-miterlimit="8" width="28.008" height="92.814"/>
			<text transform="matrix(0.76 0.65 -0.65 0.76 188.6509 248.3184)" font-family="sans-serif" font-size="14.0014">RADIUS (M)</text>
		</g>
	</g>
</g>
<g id="example" display="none">
	<text transform="matrix(1 0 0 1 97.835 188.106)" display="inline" font-family="sans-serif" font-size="24">051030ZAPR08 -</text>
	<text transform="matrix(1 0 0 1 97.835 218.293)" display="inline" font-family="sans-serif" font-size="24">051600ZAPR08</text>
	<text id="varTe" transform="matrix(1 0 0 1 126.1768 142.5757)" display="inline" font-family="sans-serif" font-size="24">X CORPS</text>
</g>
</svg>
