<?xml version="1.0" encoding="utf-8"?>
<!-- Generator: Adobe Illustrator 16.0.0, SVG Export Plug-In . SVG Version: 6.00 Build 0)  -->
<!DOCTYPE svg PUBLIC "-//W3C//DTD SVG 1.1//EN" "http://www.w3.org/Graphics/SVG/1.1/DTD/svg11.dtd">
<svg version="1.1" id="Version_1.0" xmlns="http://www.w3.org/2000/svg" xmlns:xlink="http://www.w3.org/1999/xlink" x="0px"
	 y="0px" width="400px" height="400px" viewBox="0 0 400 400" enable-background="new 0 0 400 400" xml:space="preserve">
<g id="main">
	<path fill="none" stroke="#000000" stroke-width="5" stroke-linecap="round" stroke-linejoin="round" stroke-miterlimit="10" d="
		M228.359,117.468c-36.691,0.892-60.847-10.18-78.3,10.881c-14.547,34.28-8.052,14.643-2.241,88.196
		c0.228,3.932,3.59,7.329,4.482,11.07c0.664,3.039-0.456,6.971,2.241,9.117c3.342,2.678,13.863,3.74,13.863,3.74
		c59.063-0.531,118.125,0,177.169-1.785c7.611-0.17,20.813-7.502,20.813-7.502c17.893-21.594,23.492-66.242-4.688-80.692
		c-1.575-1.785-2.241-4.102-4.481-5.545c-1.784-1.235-4.688-0.893-6.933-1.786c-17.909-7.14,3.569-1.063-13.883-5.527
		c-10.274-5.526-20.566-6.969-32.209-9.287C278.914,123.184,254.529,117.468,228.359,117.468"/>
	<text transform="matrix(1 0 0 1 237.1367 170.2539)" font-family="sans-serif" font-size="24.0048">DA</text>
</g>
<g id="template" display="none">
	<g id="varW1" display="inline">
		
			<rect x="79.585" y="127.42" fill="none" stroke="#000000" stroke-width="1.8991" stroke-linecap="round" stroke-miterlimit="8" width="43.926" height="34.298"/>
		<text transform="matrix(1 0 0 1 86.0708 152.2988)" font-family="sans-serif" font-size="20.3585">W1</text>
	</g>
	<g id="varW" display="inline">
		<text transform="matrix(1 0 0 1 70.562 152.2588)" font-family="serif" font-size="21.5739">-</text>
		
			<rect x="34.139" y="127.666" fill="none" stroke="#000000" stroke-width="1.8991" stroke-linecap="round" stroke-miterlimit="8" width="33.918" height="34.317"/>
		<text transform="matrix(1 0 0 1 40.7886 152.6152)" font-family="sans-serif" font-size="20.3585">W</text>
	</g>
	<g id="varT" display="inline">
		
			<rect x="233.5" y="179.372" fill="none" stroke="#000000" stroke-width="1.8991" stroke-linecap="round" stroke-miterlimit="8" width="40.428" height="39.973"/>
		<text transform="matrix(1 0 0 1 247.0469 208.9424)" font-family="sans-serif" font-size="24.0048">T</text>
	</g>
</g>
<g id="example" display="none">
	<text id="varWeW1e_1_" transform="matrix(1 0 0 1 4 138.6152)" display="inline" enable-background="new    "><tspan x="0" y="0" font-family="sans-serif" font-size="18">060300ZNOV07 -</tspan><tspan x="0" y="21.6" font-family="sans-serif" font-size="18">090500ZNOV07   </tspan></text>
	<text id="varTe" transform="matrix(1 0 0 1 216.7158 201.9707)" display="inline" font-family="sans-serif" font-size="24.0048">1/7 FA</text>
</g>
</svg>
