<?xml version="1.0" encoding="utf-8"?>
<!-- Generator: Adobe Illustrator 16.0.0, SVG Export Plug-In . SVG Version: 6.00 Build 0)  -->
<!DOCTYPE svg PUBLIC "-//W3C//DTD SVG 1.1//EN" "http://www.w3.org/Graphics/SVG/1.1/DTD/svg11.dtd">
<svg version="1.1" id="Version_1.0" xmlns="http://www.w3.org/2000/svg" xmlns:xlink="http://www.w3.org/1999/xlink" x="0px"
	 y="0px" width="400px" height="400px" viewBox="0 0 400 400" enable-background="new 0 0 400 400" xml:space="preserve">
<g id="main">
	
		<rect x="52.519" y="92.818" fill="none" stroke="#000000" stroke-width="3.6048" stroke-linecap="round" stroke-miterlimit="8" width="300.254" height="224.75"/>
	<text transform="matrix(1 0 0 1 139.6235 173.3984)" font-family="sans-serif" font-size="24">ATI ZONE</text>
</g>
<g id="template" display="none">
	<g id="varW1" display="inline">
		
			<rect x="5.408" y="126.952" fill="none" stroke="#000000" stroke-width="2.6951" stroke-linecap="round" stroke-miterlimit="8" width="41.107" height="30.906"/>
		<text transform="matrix(1 0 0 1 12.4971 148.1777)" font-family="sans-serif" font-size="20.8061">W1</text>
		<text transform="matrix(1 0 0 1 43.5601 148.1777)" font-family="sans-serif" font-size="20.8061"> </text>
	</g>
	<g id="varW" display="inline">
		<text transform="matrix(1 0 0 1 42.8438 112.3438)" font-family="serif" font-size="22.0482">-</text>
		
			<rect x="5.408" y="93.189" fill="none" stroke="#000000" stroke-width="3" stroke-linecap="round" stroke-miterlimit="8" width="34.683" height="29.188"/>
		<text transform="matrix(1 0 0 1 12.417 114.668)" font-family="sans-serif" font-size="20.8061">W</text>
	</g>
	<g id="varT" display="inline">
		
			<rect x="176.453" y="185.356" fill="none" stroke="#000000" stroke-width="3" stroke-linecap="round" stroke-miterlimit="8" width="33.77" height="36.217"/>
		<text transform="matrix(1 0 0 1 187.6504 210.3203)" font-family="sans-serif" font-size="19.5639">T</text>
	</g>
	
		<g id="varAM" transform="matrix(6.12303e-017 1 -1 6.12303e-017 405 -5) translate(240 175) scale(0.742857 0.742857) translate(-240 -175) translate(-83.4615 -235.577) translate(240 175) scale(0.834615 0.834615) translate(-240 -175) translate(240 175) scale(0.806452 0.806452) translate(-240 -175) translate(0 2) translate(0 2) translate(0 2) translate(0 2) translate(0 2) translate(2 0) translate(2 0) translate(2 0) translate(2 0) translate(2 0) translate(2 0) translate(2 0) translate(2 0) translate(2 0) translate(2 0) translate(2 0) translate(2 0) translate(0 2)" display="inline">
		
			<rect x="154.805" y="176.691" transform="matrix(2.578893e-006 1 -1 2.578893e-006 391.4955 31.8863)" fill="#FFFFFF" stroke="#000000" stroke-width="3" width="50" height="70"/>
		<text transform="matrix(2 0 0 2 152.8104 224.6914)" font-family="sans-serif" font-size="18">AM</text>
	</g>
	<g id="points" display="inline">
		<g>
			<path stroke="#000000" stroke-width="0.3105" stroke-linejoin="bevel" stroke-miterlimit="10" d="M74.256,201.854l-12.149-9.063
				c-0.563-0.427-0.68-1.243-0.252-1.825c0.427-0.563,1.242-0.68,1.806-0.252l12.149,9.063c0.583,0.427,0.699,1.243,0.271,1.825
				C75.654,202.163,74.838,202.28,74.256,201.854L74.256,201.854z M60.322,199.505l-7.803-15.507l17.08,3.086L60.322,199.505z"/>
			<text transform="matrix(1 0 0 1 62.3281 216.0029)" font-family="sans-serif" font-size="13.0426">P</text>
			<text transform="matrix(1 0 0 1 70.7138 216.0029)" font-family="sans-serif" font-size="13.0426">T</text>
			<text transform="matrix(1 0 0 1 79.0991 216.0029)" font-family="sans-serif" font-size="13.0426"> </text>
			<text transform="matrix(1 0 0 1 82.813 216.0029)" font-family="sans-serif" font-size="13.0426">1</text>
		</g>
		<g>
			<path stroke="#000000" stroke-width="0.3105" stroke-linejoin="bevel" stroke-miterlimit="10" d="M325.059,210.9l13.121-4.483
				c0.679-0.231,1.414,0.116,1.646,0.796c0.233,0.682-0.134,1.418-0.813,1.65l-13.12,4.48c-0.657,0.232-1.396-0.137-1.63-0.814
				C324.029,211.87,324.378,211.133,325.059,210.9L325.059,210.9z M333.638,201.119l17.194,2.328l-12.168,12.363L333.638,201.119z"
				/>
			<text transform="matrix(1 0 0 1 298.4326 224.3936)" font-family="sans-serif" font-size="13.0426">P</text>
			<text transform="matrix(1 0 0 1 306.8193 224.3936)" font-family="sans-serif" font-size="13.0426">T</text>
			<text transform="matrix(1 0 0 1 315.2031 224.3936)" font-family="sans-serif" font-size="13.0426"> 2 </text>
		</g>
		<g>
			<path stroke="#000000" stroke-width="0.3105" stroke-linejoin="bevel" stroke-miterlimit="10" d="M364.691,102.135v202.491
				c0,0.718-0.584,1.299-1.304,1.299c-0.719,0-1.302-0.581-1.302-1.299V102.135c0-0.719,0.583-1.301,1.302-1.301
				C364.107,100.834,364.691,101.416,364.691,102.135L364.691,102.135z M355.627,104.716l7.764-15.527l7.767,15.527H355.627z
				 M371.154,302.042l-7.767,15.526l-7.764-15.526H371.154z"/>
			<text transform="matrix(6.123234e-017 1 -1 6.123234e-017 373.8379 180.1611)" font-family="sans-serif" font-size="18">WIDTH (m)</text>
		</g>
	</g>
</g>
<g id="example" display="none">
	<g id="varT_1_" display="inline">
		<text id="varTe" transform="matrix(1 0 0 1 214.2949 210.3203)" font-family="sans-serif" font-size="24">3BDE 4ID</text>
	</g>
	<text id="varWeW1e" transform="matrix(1 0 0 1 3.417 114.668)" display="inline" enable-background="new    "><tspan x="0" y="0" font-family="sans-serif" font-size="18">020300ZDEC08 - </tspan><tspan x="0" y="21.6" font-family="sans-serif" font-size="18">090500ZDEC08 </tspan></text>
	
		<text id="varAMe" transform="matrix(6.123028e-017 1 -1 6.123028e-017 393.1543 141.4053)" display="inline" font-family="sans-serif" font-size="18"> </text>
	<g display="inline">
		
			<rect x="146.5" y="92.818" fill="none" stroke="#000000" stroke-width="3.6048" stroke-linecap="round" stroke-miterlimit="8" width="243.273" height="183.682"/>
		<text transform="matrix(1 0 0 1 215.623 173.3984)" font-family="sans-serif" font-size="24">ATI ZONE</text>
	</g>
</g>
</svg>
