<?xml version="1.0" encoding="utf-8"?>
<!-- Generator: Adobe Illustrator 16.0.0, SVG Export Plug-In . SVG Version: 6.00 Build 0)  -->
<!DOCTYPE svg PUBLIC "-//W3C//DTD SVG 1.1//EN" "http://www.w3.org/Graphics/SVG/1.1/DTD/svg11.dtd">
<svg version="1.1" id="Version_1.0" xmlns="http://www.w3.org/2000/svg" xmlns:xlink="http://www.w3.org/1999/xlink" x="0px"
	 y="0px" width="400px" height="400px" viewBox="0 0 400 400" enable-background="new 0 0 400 400" xml:space="preserve">
<g id="main">
	<path fill="none" stroke="#000000" stroke-width="5" stroke-linecap="round" stroke-linejoin="round" stroke-miterlimit="10" d="
		M199.234,128.013c39.609-2.048,103.727-23.454,124.826,4.961c21.12,28.415,43.372,137.924,1.856,165.54
		C284.4,326.15,114.888,324.316,74.973,298.75c-39.915-25.545-9.243-125.132,11.454-153.568
		C107.126,116.721,159.625,130.035,199.234,128.013"/>
</g>
<g id="template" display="none">
	<g id="varT" display="inline">
		
			<rect x="163.317" y="97.925" fill="#FFFFFF" stroke="#000000" stroke-width="2.3521" stroke-linecap="round" stroke-miterlimit="8" width="56.592" height="55.819"/>
		<text transform="matrix(1 0 0 1 182.8701 135.9688)" font-family="sans-serif" font-size="29.7303">T</text>
	</g>
</g>
<g id="example" display="none">
	<g display="inline">
		
			<line fill="none" stroke="#000000" stroke-width="6.2801" stroke-linejoin="round" stroke-miterlimit="10" x1="233.078" y1="243.759" x2="233.078" y2="288.609"/>
		
			<line fill="none" stroke="#000000" stroke-width="6.2801" stroke-linejoin="round" stroke-miterlimit="10" x1="255.52" y1="266.174" x2="210.501" y2="266.174"/>
	</g>
	<g display="inline">
		
			<line fill="none" stroke="#000000" stroke-width="6.2801" stroke-linejoin="round" stroke-miterlimit="10" x1="218.025" y1="168.795" x2="218.025" y2="213.814"/>
		
			<line fill="none" stroke="#000000" stroke-width="6.2801" stroke-linejoin="round" stroke-miterlimit="10" x1="240.466" y1="191.378" x2="195.612" y2="191.378"/>
	</g>
	<g display="inline">
		
			<line fill="none" stroke="#000000" stroke-width="6.2801" stroke-linejoin="round" stroke-miterlimit="10" x1="123.5" y1="221.249" x2="123.5" y2="266.269"/>
		
			<line fill="none" stroke="#000000" stroke-width="6.2801" stroke-linejoin="round" stroke-miterlimit="10" x1="145.94" y1="243.832" x2="101.086" y2="243.832"/>
	</g>
	<text transform="matrix(1 0 0 1 133.2051 235.7109)" display="inline" font-family="sans-serif" font-size="16">AF2525</text>
	<text transform="matrix(1 0 0 1 240.2813 257.3926)" display="inline" font-family="sans-serif" font-size="16">AF2287</text>
	<text transform="matrix(1 0 0 1 227.7305 183.2568)" display="inline" font-family="sans-serif" font-size="16">AF2019</text>
	<g id="varT_1_" display="inline">
		<rect x="145.94" y="97.925" fill="#FFFFFF" width="80.56" height="45.575"/>
		<text transform="matrix(1 0 0 1 152.8799 135.9688)" font-family="sans-serif" font-size="29.7303">OWL </text>
	</g>
</g>
</svg>
