<?xml version="1.0" encoding="utf-8"?>
<!-- Generator: Adobe Illustrator 16.0.0, SVG Export Plug-In . SVG Version: 6.00 Build 0)  -->
<!DOCTYPE svg PUBLIC "-//W3C//DTD SVG 1.1//EN" "http://www.w3.org/Graphics/SVG/1.1/DTD/svg11.dtd">
<svg version="1.1" id="Version_1.0" xmlns="http://www.w3.org/2000/svg" xmlns:xlink="http://www.w3.org/1999/xlink" x="0px"
	 y="0px" width="400px" height="400px" viewBox="0 0 400 400" enable-background="new 0 0 400 400" xml:space="preserve">
<g id="main">
	<path fill="none" stroke="#000000" stroke-width="5" stroke-linecap="round" stroke-linejoin="round" stroke-miterlimit="10" d="
		M182.289,130.731c45.249-5.17,115.95-27.164,144.236-7.769c28.281,19.397,69.298,99.572,25.451,124.138
		c-43.846,24.566-238.984,38.793-288.493,23.28c-49.481-15.513-28.285-93.094-8.468-116.374
		C74.809,130.731,137.02,135.9,182.289,130.731"/>
	<text transform="matrix(1 0 0 1 136.4883 178.3994)" font-family="sans-serif" font-size="32">FSA</text>
</g>
<g id="template" display="none">
	<g id="varW1" display="inline">
		
			<rect x="201.831" y="203.739" fill="none" stroke="#000000" stroke-width="2.3396" stroke-linecap="round" stroke-miterlimit="8" width="54.112" height="42.276"/>
		<text transform="matrix(1 0 0 1 209.7598 234.1025)" font-family="sans-serif" font-size="30">W1</text>
	</g>
	<g id="varW" display="inline">
		<text transform="matrix(1 0 0 1 190.9941 234.4453)" font-family="serif" font-size="26.5775">-</text>
		
			<rect x="145.822" y="204.044" fill="none" stroke="#000000" stroke-width="2.3396" stroke-linecap="round" stroke-miterlimit="8" width="41.807" height="42.274"/>
		<text transform="matrix(1 0 0 1 153.9751 234.4688)" font-family="sans-serif" font-size="30">W</text>
	</g>
	<g id="varT" display="inline">
		
			<rect x="210.596" y="144.019" fill="none" stroke="#000000" stroke-width="1.6662" stroke-linecap="round" stroke-miterlimit="8" width="49.021" height="43.551"/>
		<text transform="matrix(1 0 0 1 225.1445 178.2422)" font-family="sans-serif" font-size="32">T</text>
	</g>
</g>
<g id="example" display="none">
	<text id="VarWeW1e" transform="matrix(1 0 0 1 123.9751 218.4688)" display="inline" enable-background="new    "><tspan x="0" y="0" font-family="sans-serif" font-size="25.0802">010700ZJAN08 - </tspan><tspan x="0" y="30.097" font-family="sans-serif" font-size="25.0802">010745ZJAN08    </tspan></text>
	<g id="varT_1_" display="inline">
		<text transform="matrix(1 0 0 1 209.1445 178.2422)" font-family="sans-serif" font-size="32">ZULU</text>
	</g>
</g>
</svg>
