<?xml version="1.0" encoding="utf-8"?>
<!-- Generator: Adobe Illustrator 16.0.0, SVG Export Plug-In . SVG Version: 6.00 Build 0)  -->
<!DOCTYPE svg PUBLIC "-//W3C//DTD SVG 1.1//EN" "http://www.w3.org/Graphics/SVG/1.1/DTD/svg11.dtd">
<svg version="1.1" id="Version_1.0" xmlns="http://www.w3.org/2000/svg" xmlns:xlink="http://www.w3.org/1999/xlink" x="0px"
	 y="0px" width="400px" height="400px" viewBox="0 0 400 400" enable-background="new 0 0 400 400" xml:space="preserve">
<g id="main">
	
		<path fill="none" stroke="#000000" stroke-width="5.6406" stroke-linecap="round" stroke-linejoin="round" stroke-miterlimit="10" d="
		M118.017,118.546c-45.569,5.408-57.547,16.246-71.934,32.491c-14.386,16.246-28.795,43.308-14.386,64.982
		c14.386,21.652,62.342,55.941,100.707,64.963c38.365,9.021,91.135,1.815,129.5-10.816s91.114-39.716,100.708-64.98
		c9.593-25.27-2.389-72.209-43.159-86.639C278.68,104.095,163.585,113.138,118.017,118.546"/>
</g>
<g id="template" display="none">
	
		<rect x="144.043" y="169.459" display="inline" fill="none" stroke="#000000" stroke-width="2.8097" stroke-linecap="round" stroke-miterlimit="8" width="88.73" height="59.154"/>
	<text transform="matrix(1 0 0 1 165.7349 211.4805)" display="inline" font-family="sans-serif" font-size="33.8015">AP</text>
</g>
<g id="example" display="none">
	<text id="varAPe" transform="matrix(1 0 0 1 129.2051 211.4805)" display="inline" font-family="sans-serif" font-size="33.8015">PC9008</text>
</g>
</svg>
