<?xml version="1.0" encoding="utf-8"?>
<!-- Generator: Adobe Illustrator 16.0.0, SVG Export Plug-In . SVG Version: 6.00 Build 0)  -->
<!DOCTYPE svg PUBLIC "-//W3C//DTD SVG 1.1//EN" "http://www.w3.org/Graphics/SVG/1.1/DTD/svg11.dtd">
<svg version="1.1" id="Version_1.0" xmlns="http://www.w3.org/2000/svg" xmlns:xlink="http://www.w3.org/1999/xlink" x="0px"
	 y="0px" width="612px" height="792px" viewBox="0 0 612 792" enable-background="new 0 0 612 792" xml:space="preserve">
<g id="main">
	
		<line fill="none" stroke="#000000" stroke-width="5" stroke-linejoin="round" stroke-miterlimit="10" x1="391.788" y1="319.344" x2="218.185" y2="473.658"/>
	
		<line fill="none" stroke="#000000" stroke-width="5" stroke-linejoin="round" stroke-miterlimit="10" x1="218.185" y1="319.344" x2="391.788" y2="473.658"/>
	<text transform="matrix(1 0 0 1 376.2529 410.0332)" font-family="sans-serif" font-size="36">FSS</text>
</g>
<g id="template" display="none">
	<g id="varT" display="inline">
		
			<rect x="451.943" y="372.308" fill="none" stroke="#000000" stroke-width="2.0064" stroke-linecap="round" stroke-miterlimit="8" width="51.601" height="51.023"/>
		<text transform="matrix(1 0 0 1 465.5459 410.0332)" font-family="sans-serif" font-size="36">T</text>
	</g>
	<g id="points" display="inline">
		<path stroke="#000000" stroke-width="0.2862" stroke-linejoin="bevel" stroke-miterlimit="10" d="M302.528,518.15V417.969h4.776
			V518.15H302.528L302.528,518.15z M297.752,420.346l7.156-23.846l7.156,23.846H297.752L297.752,420.346z"/>
		<text transform="matrix(1 0 0 1 251.0542 543.7051)" font-family="sans-serif" font-size="28">C</text>
		<text transform="matrix(1 0 0 1 271.2192 543.7051)" font-family="sans-serif" font-size="28">E</text>
		<text transform="matrix(1 0 0 1 289.894 543.7051)" font-family="sans-serif" font-size="28">N</text>
		<text transform="matrix(1 0 0 1 310.0586 543.7051)" font-family="sans-serif" font-size="28">T</text>
		<text transform="matrix(1 0 0 1 327.2188 543.7051)" font-family="sans-serif" font-size="28">E</text>
		<text transform="matrix(1 0 0 1 345.8945 543.7051)" font-family="sans-serif" font-size="28">R</text>
		<text transform="matrix(1 0 0 1 251.0542 577.3047)" font-family="sans-serif" font-size="28">POINT </text>
	</g>
</g>
<g id="example" display="none">
	<text id="varTe" transform="matrix(1 0 0 1 459.5459 410.0332)" display="inline" font-family="sans-serif" font-size="36">5</text>
</g>
</svg>
