<?xml version="1.0" encoding="utf-8"?>
<!-- Generator: Adobe Illustrator 16.0.0, SVG Export Plug-In . SVG Version: 6.00 Build 0)  -->
<!DOCTYPE svg PUBLIC "-//W3C//DTD SVG 1.1//EN" "http://www.w3.org/Graphics/SVG/1.1/DTD/svg11.dtd">
<svg version="1.1" id="Version_1.0" xmlns="http://www.w3.org/2000/svg" xmlns:xlink="http://www.w3.org/1999/xlink" x="0px"
	 y="0px" width="400px" height="400px" viewBox="0 0 400 400" enable-background="new 0 0 400 400" xml:space="preserve">
<g id="main">
	
		<rect x="110.65" y="183.833" fill="none" stroke="#000000" stroke-width="5" stroke-linejoin="bevel" stroke-miterlimit="10" width="188.306" height="109.021"/>
</g>
<g id="template" display="none">
	<g id="varAM1" display="inline">
		
			<rect x="153.451" y="115.048" fill="none" stroke="#000000" stroke-width="2.0189" stroke-linecap="round" stroke-miterlimit="8" width="58.025" height="43.608"/>
		<text transform="matrix(1 0 0 1 160.4717 143.0664)" font-family="sans-serif" font-size="18">AM 1</text>
	</g>
	<g id="varAM" display="inline">
		
			<rect x="328.511" y="169.124" fill="none" stroke="#000000" stroke-width="1.3877" stroke-linecap="round" stroke-miterlimit="8" width="28.955" height="41.289"/>
		<text transform="matrix(-1.346898e-010 1 -1 -1.346898e-010 335.5625 176.1436)" font-family="sans-serif" font-size="18">AM</text>
	</g>
	<g id="varAN" display="inline">
		
			<rect x="36.233" y="169.963" fill="none" stroke="#000000" stroke-width="2.0189" stroke-linecap="round" stroke-miterlimit="8" width="44.537" height="43.609"/>
		<text transform="matrix(1 0 0 1 43.2275 197.9766)" font-family="sans-serif" font-size="18">AN</text>
	</g>
	<g id="varAP" display="inline">
		
			<rect x="177.961" y="207.253" fill="none" stroke="#000000" stroke-width="2.6852" stroke-linecap="round" stroke-miterlimit="8" width="62.184" height="45.629"/>
		<text transform="matrix(1 0 0 1 190.8389 239.9951)" font-family="sans-serif" font-size="25">AP</text>
	</g>
	<g id="points" display="inline">
		<g>
			<path stroke="#000000" stroke-width="0.323" stroke-linejoin="bevel" stroke-miterlimit="10" d="M203.4,327.439v-59.883
				c0-0.746,0.604-1.354,1.33-1.354c0.75,0,1.354,0.606,1.354,1.354v59.883c0,0.746-0.604,1.351-1.354,1.351
				C204.006,328.79,203.4,328.186,203.4,327.439L203.4,327.439z M196.657,270.241l8.073-26.91l8.076,26.91H196.657z"/>
			<text transform="matrix(1 0 0 1 187.6016 350.4473)" font-family="sans-serif" font-size="18.7356">P</text>
			<text transform="matrix(1 0 0 1 200.1914 350.4473)" font-family="sans-serif" font-size="18.7356">T</text>
			<text transform="matrix(1 0 0 1 211.5039 350.4473)" font-family="sans-serif" font-size="18.7356"> </text>
			<text transform="matrix(1 0 0 1 216.6914 350.4473)" font-family="sans-serif" font-size="18.7356">1</text>
			<text transform="matrix(1 0 0 1 227.0371 350.4473)" font-family="sans-serif" font-size="18.7356"> </text>
			<text transform="matrix(1 0 0 1 232.5225 350.4473)" font-family="sans-serif" font-size="18.7356">  </text>
			<text transform="matrix(1 0 0 1 242.8965 350.4473)" font-family="sans-serif" font-size="18.7356"> </text>
		</g>
		<g>
			<text transform="matrix(1 0 0 1 25.1426 232.2129)" font-family="sans-serif" font-size="13.5672">A</text>
			<text transform="matrix(1 0 0 1 34.5195 232.2129)" font-family="sans-serif" font-size="13.5672">T</text>
			<text transform="matrix(1 0 0 1 42.9155 232.2129)" font-family="sans-serif" font-size="13.5672">T</text>
			<text transform="matrix(1 0 0 1 51.6377 232.2129)" font-family="sans-serif" font-size="13.5672">I</text>
			<text transform="matrix(1 0 0 1 55.2036 232.2129)" font-family="sans-serif" font-size="13.5672">T</text>
			<text transform="matrix(1 0 0 1 63.5996 232.2129)" font-family="sans-serif" font-size="13.5672">UD</text>
			<text transform="matrix(1 0 0 1 83.0044 232.2129)" font-family="sans-serif" font-size="13.5672">E</text>
			<path stroke="#000000" stroke-width="0.323" stroke-linejoin="bevel" stroke-miterlimit="10" d="M21.414,241.977h55.057v2.688
				H21.414V241.977L21.414,241.977z M73.785,235.255l26.913,8.076l-26.913,8.075V235.255L73.785,235.255z"/>
		</g>
		<g>
			<path stroke="#000000" stroke-width="0.323" stroke-linejoin="bevel" stroke-miterlimit="10" d="M134.877,162.695h139.852v2.705
				H134.877V162.695L134.877,162.695z M137.582,172.124l-26.932-8.076l26.932-8.077V172.124L137.582,172.124z M272.044,155.971
				l26.912,8.077l-26.912,8.076V155.971L272.044,155.971z"/>
			<text transform="matrix(1 0 0 1 218.3057 150.8271)" font-family="sans-serif" font-size="13.5672">L</text>
			<text transform="matrix(1 0 0 1 226.7012 150.8271)" font-family="sans-serif" font-size="13.5672">E</text>
			<text transform="matrix(1 0 0 1 235.75 150.8271)" font-family="sans-serif" font-size="13.5672">N</text>
			<text transform="matrix(1 0 0 1 245.4531 150.8271)" font-family="sans-serif" font-size="13.5672">G</text>
			<text transform="matrix(1 0 0 1 255.8027 150.8271)" font-family="sans-serif" font-size="13.5672">T</text>
			<text transform="matrix(1 0 0 1 264.1992 150.8271)" font-family="sans-serif" font-size="13.5672">H (M)</text>
		</g>
		<g>
			<path stroke="#000000" stroke-width="0.323" stroke-linejoin="bevel" stroke-miterlimit="10" d="M320.094,208.061v60.567h-2.706
				v-60.567H320.094L320.094,208.061z M310.663,210.746l8.077-26.914l8.075,26.914H310.663L310.663,210.746z M326.815,265.943
				l-8.075,26.91l-8.077-26.91H326.815L326.815,265.943z"/>
			<text transform="matrix(-1.346898e-010 1 -1 -1.346898e-010 334.4492 213.5723)" font-family="sans-serif" font-size="18">WIDTH (M) </text>
		</g>
	</g>
</g>
<g id="example" display="none">
	<text id="varAPe" transform="matrix(1 0 0 1 153.2852 239.9951)" display="inline" font-family="sans-serif" font-size="25.5192">DM0065</text>
	
		<text id="varAMe" transform="matrix(-1.346898e-010 1 -1 -1.346898e-010 335.5625 176.1436)" display="inline" font-family="sans-serif" font-size="18.7356"> </text>
	<text id="varANe" transform="matrix(1 0 0 1 56.625 197.9766)" display="inline" font-family="sans-serif" font-size="18.7356"> </text>
	<text id="varAM1e" transform="matrix(1 0 0 1 178.8691 143.0664)" display="inline" font-family="sans-serif" font-size="18.7356"> </text>
</g>
</svg>
