<?xml version="1.0" encoding="utf-8"?>
<!-- Generator: Adobe Illustrator 16.0.0, SVG Export Plug-In . SVG Version: 6.00 Build 0)  -->
<!DOCTYPE svg PUBLIC "-//W3C//DTD SVG 1.1//EN" "http://www.w3.org/Graphics/SVG/1.1/DTD/svg11.dtd">
<svg version="1.1" id="Version_1.0" xmlns="http://www.w3.org/2000/svg" xmlns:xlink="http://www.w3.org/1999/xlink" x="0px"
	 y="0px" width="400px" height="400px" viewBox="0 0 400 400" enable-background="new 0 0 400 400" xml:space="preserve">
<g id="main">
	<path fill="none" stroke="#000000" stroke-width="5" stroke-linecap="round" stroke-linejoin="round" stroke-miterlimit="10" d="
		M199.234,128.013c39.609-2.048,103.727-23.454,124.826,4.961c21.12,28.415,43.372,137.924,1.856,165.54
		C284.4,326.15,114.888,324.316,74.973,298.75c-39.915-25.545-9.243-125.132,11.454-153.568
		C107.126,116.721,159.625,130.035,199.234,128.013"/>
</g>
<g id="template" display="none">
	<g id="target_2_" display="inline">
		<g>
			
				<line fill="none" stroke="#000000" stroke-width="5" stroke-linejoin="round" stroke-miterlimit="10" x1="191.95" y1="185.674" x2="191.95" y2="230.525"/>
			
				<line fill="none" stroke="#000000" stroke-width="5" stroke-linejoin="round" stroke-miterlimit="10" x1="191.95" y1="208.41" x2="87.731" y2="208.41"/>
			
				<line fill="none" stroke="#000000" stroke-width="5" stroke-linejoin="round" stroke-miterlimit="10" x1="87.731" y1="185.674" x2="87.731" y2="230.525"/>
		</g>
		<text transform="matrix(1 0 0 1 87.7314 165.2793)" font-family="sans-serif" font-size="16">TARGET</text>
		<text transform="matrix(1 0 0 1 87.7314 184.4785)" font-family="sans-serif" font-size="16">DESIGNATOR</text>
	</g>
	<g id="target_1_" display="inline">
		<g>
			
				<line fill="none" stroke="#000000" stroke-width="5" stroke-linejoin="round" stroke-miterlimit="10" x1="324.128" y1="210.07" x2="324.128" y2="254.922"/>
			
				<line fill="none" stroke="#000000" stroke-width="5" stroke-linejoin="round" stroke-miterlimit="10" x1="324.128" y1="232.807" x2="219.909" y2="232.807"/>
			
				<line fill="none" stroke="#000000" stroke-width="5" stroke-linejoin="round" stroke-miterlimit="10" x1="219.909" y1="210.07" x2="219.909" y2="254.922"/>
		</g>
		<text transform="matrix(1 0 0 1 219.9092 189.6748)" font-family="sans-serif" font-size="16">TARGET</text>
		<text transform="matrix(1 0 0 1 219.9092 208.875)" font-family="sans-serif" font-size="16">DESIGNATOR</text>
	</g>
	<g id="target" display="inline">
		<g>
			
				<line fill="none" stroke="#000000" stroke-width="5" stroke-linejoin="round" stroke-miterlimit="10" x1="203" y1="257.76" x2="203" y2="302.611"/>
			
				<line fill="none" stroke="#000000" stroke-width="5" stroke-linejoin="round" stroke-miterlimit="10" x1="203" y1="280.496" x2="98.781" y2="280.496"/>
			
				<line fill="none" stroke="#000000" stroke-width="5" stroke-linejoin="round" stroke-miterlimit="10" x1="98.781" y1="257.76" x2="98.781" y2="302.611"/>
		</g>
		<text transform="matrix(1 0 0 1 98.7813 237.3643)" font-family="sans-serif" font-size="16">TARGET</text>
		<text transform="matrix(1 0 0 1 98.7813 256.5645)" font-family="sans-serif" font-size="16">DESIGNATOR</text>
	</g>
	<g id="varT" display="inline">
		
			<rect x="163.317" y="97.925" fill="#FFFFFF" stroke="#000000" stroke-width="2.3521" stroke-linecap="round" stroke-miterlimit="8" width="56.592" height="55.819"/>
		<text transform="matrix(1 0 0 1 182.8701 135.9688)" font-family="sans-serif" font-size="29.7303">T</text>
	</g>
</g>
<g id="example" display="none">
	<g id="target_5_" display="inline">
		<g>
			
				<line fill="none" stroke="#000000" stroke-width="5" stroke-linejoin="round" stroke-miterlimit="10" x1="191.95" y1="185.674" x2="191.95" y2="230.525"/>
			
				<line fill="none" stroke="#000000" stroke-width="5" stroke-linejoin="round" stroke-miterlimit="10" x1="191.95" y1="208.41" x2="87.731" y2="208.41"/>
			
				<line fill="none" stroke="#000000" stroke-width="5" stroke-linejoin="round" stroke-miterlimit="10" x1="87.731" y1="185.674" x2="87.731" y2="230.525"/>
		</g>
		<text transform="matrix(1 0 0 1 108.5986 198.4785)" font-family="sans-serif" font-size="16">UA0127 </text>
	</g>
	<g id="target_4_" display="inline">
		<g>
			
				<line fill="none" stroke="#000000" stroke-width="5" stroke-linejoin="round" stroke-miterlimit="10" x1="324.128" y1="210.07" x2="324.128" y2="254.922"/>
			
				<line fill="none" stroke="#000000" stroke-width="5" stroke-linejoin="round" stroke-miterlimit="10" x1="324.128" y1="232.807" x2="219.909" y2="232.807"/>
			
				<line fill="none" stroke="#000000" stroke-width="5" stroke-linejoin="round" stroke-miterlimit="10" x1="219.909" y1="210.07" x2="219.909" y2="254.922"/>
		</g>
		<text transform="matrix(1 0 0 1 243.999 222.875)" font-family="sans-serif" font-size="16">UA0227</text>
	</g>
	<g id="target_3_" display="inline">
		<g>
			
				<line fill="none" stroke="#000000" stroke-width="5" stroke-linejoin="round" stroke-miterlimit="10" x1="203" y1="257.76" x2="203" y2="302.611"/>
			
				<line fill="none" stroke="#000000" stroke-width="5" stroke-linejoin="round" stroke-miterlimit="10" x1="203" y1="280.496" x2="98.781" y2="280.496"/>
			
				<line fill="none" stroke="#000000" stroke-width="5" stroke-linejoin="round" stroke-miterlimit="10" x1="98.781" y1="257.76" x2="98.781" y2="302.611"/>
		</g>
		<text transform="matrix(1 0 0 1 122.8711 270.5645)" font-family="sans-serif" font-size="16">UA0177</text>
	</g>
	<g id="varT_1_" display="inline">
		<rect x="151.781" y="103.5" fill="#FFFFFF" width="76.719" height="41"/>
		<text transform="matrix(1 0 0 1 154.1895 135.9688)" font-family="sans-serif" font-size="29.7303">M9W</text>
	</g>
</g>
</svg>
