<?xml version="1.0" encoding="utf-8"?>
<!-- Generator: Adobe Illustrator 16.0.0, SVG Export Plug-In . SVG Version: 6.00 Build 0)  -->
<!DOCTYPE svg PUBLIC "-//W3C//DTD SVG 1.1//EN" "http://www.w3.org/Graphics/SVG/1.1/DTD/svg11.dtd">
<svg version="1.1" id="Version_1.0" xmlns="http://www.w3.org/2000/svg" xmlns:xlink="http://www.w3.org/1999/xlink" x="0px"
	 y="0px" width="612px" height="792px" viewBox="0 0 612 792" enable-background="new 0 0 612 792" xml:space="preserve">
<g id="main">
	
		<rect x="242.502" y="137.828" fill="none" stroke="#000000" stroke-width="4" stroke-linecap="round" stroke-miterlimit="8" width="128.229" height="170.972"/>
	<text id="static" transform="matrix(1 0 0 1 279.1831 188.6924)" font-family="sans-serif" font-size="34">HP</text>
	<polygon fill="none" stroke="#000000" stroke-width="4" stroke-linecap="round" stroke-miterlimit="8" points="306.616,395.479 
		242.502,309.994 370.73,309.994 	"/>
</g>
<g id="template" display="none">
	<g id="H" display="inline">
		<text id="varH" transform="matrix(1 0 0 1 296.0903 115.7295)" font-family="sans-serif" font-size="24">H</text>
		
			<rect x="278.626" y="83.504" fill="none" stroke="#000000" stroke-width="4" stroke-linecap="round" stroke-miterlimit="8" width="56.634" height="53.197"/>
	</g>
	<g id="T" display="inline">
		
			<rect x="370.88" y="137.345" fill="none" stroke="#000000" stroke-width="4" stroke-linecap="round" stroke-miterlimit="8" width="56.636" height="53.179"/>
		<text id="varT" transform="matrix(1 0 0 1 389.0703 169.4531)" font-family="sans-serif" font-size="24">T</text>
	</g>
	<g id="W" display="inline">
		<text transform="matrix(1 0 0 1 230.2319 167.5811)" font-family="sans-serif" font-size="24">-</text>
		<polygon fill="none" stroke="#000000" stroke-width="4" stroke-linecap="round" stroke-miterlimit="8" points="192.07,136.345 
			192.07,178.839 223.964,178.367 224.964,137.521 		"/>
		<text id="varW" transform="matrix(1 0 0 1 196.519 167.5811)" font-family="sans-serif" font-size="24">W</text>
	</g>
	<g id="W1" display="inline">
		
			<rect x="192.07" y="178.607" fill="none" stroke="#000000" stroke-width="4" stroke-linecap="round" stroke-miterlimit="8" width="49.993" height="42.513"/>
		<text id="varW1" transform="matrix(1 0 0 1 198.1714 210.0469)" font-family="sans-serif" font-size="24">W1</text>
	</g>
	<g id="points" display="inline">
		<path stroke="#000000" stroke-width="2" stroke-linejoin="bevel" stroke-miterlimit="10" d="M370.73,396.424h-35.62
			c-0.658,0-1.191-0.517-1.191-1.176c0-0.658,0.533-1.192,1.191-1.192h35.62c0.66,0,1.192,0.534,1.192,1.192
			C371.923,395.907,371.391,396.424,370.73,396.424L370.73,396.424z M337.481,402.372l-23.741-7.124l23.741-7.124V402.372z"/>
		<g>
			<text transform="matrix(1 0 0 1 377.251 419.1211)" font-family="sans-serif" font-size="23.6512">POINT</text>
			<text transform="matrix(1 0 0 1 377.251 391.4795)" font-family="sans-serif" font-size="23.6512">ANCHOR</text>
		</g>
	</g>
</g>
<g id="example" display="none">
	<text id="varW1e" transform="matrix(1 0 0 1 128.2202 185.0469)" display="inline" font-family="sans-serif" font-size="14">110500ZMAR08 </text>
	<text id="varWe" transform="matrix(1 0 0 1 128.6685 167.5811)" display="inline" font-family="sans-serif" font-size="14">070700ZMAR08 - </text>
	<text id="varHe" transform="matrix(1 0 0 1 301.2339 115.7295)" display="inline" font-family="sans-serif" font-size="23.6512">2</text>
	<text id="varTe" transform="matrix(1 0 0 1 389.0703 169.4531)" display="inline" font-family="sans-serif" font-size="23.6512">3</text>
</g>
</svg>
