<?xml version="1.0" encoding="utf-8"?>
<!-- Generator: Adobe Illustrator 16.0.0, SVG Export Plug-In . SVG Version: 6.00 Build 0)  -->
<!DOCTYPE svg PUBLIC "-//W3C//DTD SVG 1.1//EN" "http://www.w3.org/Graphics/SVG/1.1/DTD/svg11.dtd">
<svg version="1.1" id="Version_1.0" xmlns="http://www.w3.org/2000/svg" xmlns:xlink="http://www.w3.org/1999/xlink" x="0px"
	 y="0px" width="400px" height="400px" viewBox="0 0 400 400" enable-background="new 0 0 400 400" xml:space="preserve">
<g id="main">
	
		<line fill="none" stroke="#000000" stroke-width="5" stroke-linejoin="round" stroke-miterlimit="10" x1="68.23" y1="172.406" x2="335.75" y2="172.406"/>
	<text transform="matrix(1 0 0 1 289.7383 165.8848)" font-family="sans-serif" font-size="18">FSCL</text>
	<text transform="matrix(1 0 0 1 140.2402 163.8916)" font-family="sans-serif" font-size="18">FSCL</text>
</g>
<g id="template" display="none">
	<g id="varW1_1_" display="inline">
		
			<rect x="139.018" y="181.073" fill="none" stroke="#000000" stroke-width="2.0987" stroke-linecap="round" stroke-miterlimit="8" width="48.565" height="37.923"/>
		<text transform="matrix(1 0 0 1 146.4229 208.2607)" font-family="sans-serif" font-size="22.4979">W</text>
		<text transform="matrix(1 0 0 1 167.9048 208.2607)" font-family="sans-serif" font-size="22.4979">1</text>
		<text transform="matrix(1 0 0 1 180.3501 208.2607)" font-family="sans-serif" font-size="22.4979"> </text>
	</g>
	<g id="varW_1_" display="inline">
		<text transform="matrix(1 0 0 1 129.2627 208.5869)" font-family="serif" font-size="23.841">-</text>
		
			<rect x="88.797" y="181.366" fill="none" stroke="#000000" stroke-width="2.0987" stroke-linecap="round" stroke-miterlimit="8" width="37.502" height="37.903"/>
		<text transform="matrix(1 0 0 1 96.0557 208.6318)" font-family="sans-serif" font-size="22.4979">W</text>
	</g>
	<g id="varT_1_" display="inline">
		
			<rect x="231.68" y="123.493" fill="none" stroke="#000000" stroke-width="2.0987" stroke-linecap="round" stroke-miterlimit="8" width="40.715" height="40.295"/>
		<text transform="matrix(1 0 0 1 245.7598 151.2021)" font-family="sans-serif" font-size="21.1547">T</text>
	</g>
	<g id="varW1" display="inline">
		
			<rect x="284.396" y="181.64" fill="none" stroke="#000000" stroke-width="2.0987" stroke-linecap="round" stroke-miterlimit="8" width="48.537" height="37.922"/>
		<text transform="matrix(1 0 0 1 291.4736 208.916)" font-family="sans-serif" font-size="22.4979">W</text>
		<text transform="matrix(1 0 0 1 312.9551 208.916)" font-family="sans-serif" font-size="22.4979">1</text>
		<text transform="matrix(1 0 0 1 325.4004 208.916)" font-family="sans-serif" font-size="22.4979"> </text>
	</g>
	<g id="varW" display="inline">
		<text transform="matrix(1 0 0 1 274.6621 209.2441)" font-family="serif" font-size="23.841">-</text>
		
			<rect x="234.172" y="181.913" fill="none" stroke="#000000" stroke-width="2.0987" stroke-linecap="round" stroke-miterlimit="8" width="37.482" height="37.923"/>
		<text transform="matrix(1 0 0 1 241.4326 209.2871)" font-family="sans-serif" font-size="22.4979">W</text>
	</g>
	<g id="varT" display="inline">
		
			<rect x="70.18" y="124.408" fill="none" stroke="#000000" stroke-width="2.0987" stroke-linecap="round" stroke-miterlimit="8" width="40.713" height="40.295"/>
		<text transform="matrix(1 0 0 1 84.2373 152.1855)" font-family="sans-serif" font-size="21.1547">T</text>
	</g>
	<g id="points" display="inline">
		<g>
			<text transform="matrix(1 0 0 1 328.0908 266.0391)" font-family="sans-serif" font-size="21.1547">P</text>
			<text transform="matrix(1 0 0 1 342.2012 266.0391)" font-family="sans-serif" font-size="21.1547">T</text>
			<text transform="matrix(1 0 0 1 354.9746 266.0391)" font-family="sans-serif" font-size="21.1547"> </text>
			<text transform="matrix(1 0 0 1 361 266.0391)" font-family="sans-serif" font-size="21.1547">2</text>
			<text transform="matrix(1 0 0 1 372.4268 266.0391)" font-family="sans-serif" font-size="21.1547"> </text>
			
				<line fill="none" stroke="#000000" stroke-width="2.0987" stroke-linecap="round" stroke-linejoin="round" stroke-miterlimit="10" x1="347.5" y1="204.158" x2="347.5" y2="244.6"/>
			<path stroke="#000000" stroke-width="0.3358" stroke-linejoin="bevel" stroke-miterlimit="10" d="M346.158,204.578l-0.882-2.918
				c-0.23-0.733,0.188-1.531,0.924-1.74c0.732-0.231,1.511,0.188,1.743,0.922l0.899,2.918c0.211,0.734-0.188,1.512-0.943,1.743
				C347.164,205.732,346.389,205.314,346.158,204.578L346.158,204.578z M339.4,206.382l-0.169-29.213l16.225,24.304L339.4,206.382z"
				/>
		</g>
		<g>
			<text transform="matrix(1 0 0 1 35.2803 266.0391)" font-family="sans-serif" font-size="21.1547">P</text>
			<text transform="matrix(1 0 0 1 49.3901 266.0391)" font-family="sans-serif" font-size="21.1547">T</text>
			<text transform="matrix(1 0 0 1 62.1641 266.0391)" font-family="sans-serif" font-size="21.1547"> </text>
			<text transform="matrix(1 0 0 1 68.1904 266.0391)" font-family="sans-serif" font-size="21.1547">1</text>
			<text transform="matrix(1 0 0 1 79.6162 266.0391)" font-family="sans-serif" font-size="21.1547"> </text>
			<text transform="matrix(1 0 0 1 85.6421 266.0391)" font-family="sans-serif" font-size="21.1547">  </text>
			<text transform="matrix(1 0 0 1 97.1011 266.0391)" font-family="sans-serif" font-size="21.1547"> </text>
			
				<line fill="none" stroke="#000000" stroke-width="2.0987" stroke-linecap="round" stroke-linejoin="round" stroke-miterlimit="10" x1="54.106" y1="201.641" x2="54.106" y2="242.229"/>
			<path stroke="#000000" stroke-width="0.3358" stroke-linejoin="bevel" stroke-miterlimit="10" d="M52.763,201.241l0.924-2.959
				c0.23-0.734,1.006-1.154,1.742-0.922c0.755,0.231,1.153,1.007,0.922,1.741l-0.922,2.959c-0.211,0.733-1.009,1.152-1.742,0.924
				C52.952,202.752,52.532,201.977,52.763,201.241L52.763,201.241z M46.173,198.871l16.327-24.22l-0.293,29.213L46.173,198.871z"/>
		</g>
	</g>
</g>
<g id="example" display="none">
	<text transform="matrix(1.0017 0 0 1 6.6064 175.9248)" display="inline"><tspan x="0" y="0" fill="#808080" font-family="sans-serif" font-size="14.3475">P</tspan><tspan x="9.225" y="0" fill="#808080" font-family="sans-serif" font-size="14.3475">L</tspan><tspan x="17.43" y="0" fill="#808080" font-family="sans-serif" font-size="14.3475"> </tspan><tspan x="21.516" y="0" fill="#808080" font-family="sans-serif" font-size="14.3475">F</tspan><tspan x="30.74" y="0" fill="#808080" font-family="sans-serif" font-size="14.3475">O</tspan><tspan x="42" y="0" fill="#808080" font-family="sans-serif" font-size="14.3475">X</tspan></text>
	<text transform="matrix(1.0017 0 0 1 343.2109 175.9248)" display="inline"><tspan x="0" y="0" fill="#808080" font-family="sans-serif" font-size="14.3475">P</tspan><tspan x="9.225" y="0" fill="#808080" font-family="sans-serif" font-size="14.3475">L</tspan><tspan x="17.43" y="0" fill="#808080" font-family="sans-serif" font-size="14.3475"> </tspan><tspan x="21.517" y="0" fill="#808080" font-family="sans-serif" font-size="14.3475">F</tspan><tspan x="30.74" y="0" fill="#808080" font-family="sans-serif" font-size="14.3475">O</tspan><tspan x="42.001" y="0" fill="#808080" font-family="sans-serif" font-size="14.3475">X</tspan></text>
	<path display="inline" fill="none" stroke="#808080" stroke-width="5" stroke-linejoin="round" stroke-miterlimit="8" d="
		M335.206,103.127c5.498,11.733,3.518,39.894,3.958,48.811c-0.657,40.519-2.64,80.726-2.64,121.089"/>
	<path display="inline" fill="none" stroke="#808080" stroke-width="5" stroke-linejoin="round" stroke-miterlimit="8" d="
		M64.262,106.017c4.168,55.403-2.634,110.183-2.634,165.275"/>
	<text transform="matrix(1.0017 0 0 1 218.4805 164.7021)" display="inline"><tspan x="0" y="0" font-family="sans-serif" font-size="18" letter-spacing="0.998">M</tspan><tspan x="16.705" y="0" font-family="sans-serif" font-size="18">ND</tspan><tspan x="42.451" y="0" font-family="sans-serif" font-size="18">(</tspan><tspan x="48.876" y="0" font-family="sans-serif" font-size="18">S</tspan><tspan x="60.451" y="0" font-family="sans-serif" font-size="18">)</tspan></text>
	<text transform="matrix(1.0017 0 0 1 69.3916 162.7021)" display="inline"><tspan x="0" y="0" font-family="sans-serif" font-size="18" letter-spacing="0.998">M</tspan><tspan x="16.704" y="0" font-family="sans-serif" font-size="18">ND</tspan><tspan x="42.45" y="0" font-family="sans-serif" font-size="18">(</tspan><tspan x="48.876" y="0" font-family="sans-serif" font-size="18">S</tspan><tspan x="60.45" y="0" font-family="sans-serif" font-size="18">)</tspan></text>
	<g display="inline">
		<text transform="matrix(1.0017 0 0 1 212.3184 201.2852)"><tspan x="0" y="0" font-family="sans-serif" font-size="16">110800</tspan><tspan x="51.758" y="0" font-family="sans-serif" font-size="16" letter-spacing="-0.998">Z</tspan><tspan x="60.381" y="0" font-family="sans-serif" font-size="16">M</tspan><tspan x="73.917" y="0" font-family="sans-serif" font-size="16">A</tspan><tspan x="84.125" y="0" font-family="sans-serif" font-size="16">Y</tspan><tspan x="93.98" y="0" font-family="sans-serif" font-size="16">9</tspan><tspan x="102.606" y="0" font-family="sans-serif" font-size="16">8 -</tspan></text>
		<text transform="matrix(1.0017 0 0 1 218.4688 218.6924)"><tspan x="0" y="0" font-family="sans-serif" font-size="16">041200</tspan><tspan x="51.758" y="0" font-family="sans-serif" font-size="16">M</tspan><tspan x="65.295" y="0" font-family="sans-serif" font-size="16">A</tspan><tspan x="75.502" y="0" font-family="sans-serif" font-size="16">Y</tspan><tspan x="85.359" y="0" font-family="sans-serif" font-size="16">0</tspan><tspan x="93.986" y="0" font-family="sans-serif" font-size="16">8</tspan></text>
	</g>
	<g display="inline">
		<text transform="matrix(1.0017 0 0 1 68.4365 202.2695)"><tspan x="0" y="0" font-family="sans-serif" font-size="16">110800</tspan><tspan x="51.759" y="0" font-family="sans-serif" font-size="16" letter-spacing="-0.998">Z</tspan><tspan x="60.38" y="0" font-family="sans-serif" font-size="16">M</tspan><tspan x="73.916" y="0" font-family="sans-serif" font-size="16">A</tspan><tspan x="84.124" y="0" font-family="sans-serif" font-size="16">Y</tspan><tspan x="93.98" y="0" font-family="sans-serif" font-size="16">9</tspan><tspan x="102.607" y="0" font-family="sans-serif" font-size="16">8 -</tspan></text>
		<text transform="matrix(1.0017 0 0 1 74.585 219.6758)"><tspan x="0" y="0" font-family="sans-serif" font-size="16">041200</tspan><tspan x="51.759" y="0" font-family="sans-serif" font-size="16">M</tspan><tspan x="65.295" y="0" font-family="sans-serif" font-size="16">A</tspan><tspan x="75.502" y="0" font-family="sans-serif" font-size="16">Y</tspan><tspan x="85.359" y="0" font-family="sans-serif" font-size="16">0</tspan><tspan x="93.985" y="0" font-family="sans-serif" font-size="16">8</tspan></text>
	</g>
</g>
</svg>
