<?xml version="1.0" encoding="utf-8"?>
<!-- Generator: Adobe Illustrator 16.0.0, SVG Export Plug-In . SVG Version: 6.00 Build 0)  -->
<!DOCTYPE svg PUBLIC "-//W3C//DTD SVG 1.1//EN" "http://www.w3.org/Graphics/SVG/1.1/DTD/svg11.dtd">
<svg version="1.1" id="Version_1.0" xmlns="http://www.w3.org/2000/svg" xmlns:xlink="http://www.w3.org/1999/xlink" x="0px"
	 y="0px" width="400px" height="400px" viewBox="0 0 400 400" enable-background="new 0 0 400 400" xml:space="preserve">
<g id="main">
	
		<line fill="none" stroke="#000000" stroke-width="5" stroke-linejoin="round" stroke-miterlimit="10" stroke-dasharray="12" x1="88.943" y1="172.406" x2="317.667" y2="172.406"/>
	<text transform="matrix(1 0 0 1 142.4224 161.166)" font-family="sans-serif" font-size="18">CFL</text>
</g>
<g id="template" display="none">
	<g id="varW1" display="inline">
		
			<rect x="193.817" y="182.542" fill="none" stroke="#000000" stroke-width="2.0987" stroke-linecap="round" stroke-miterlimit="8" width="48.565" height="37.923"/>
		<text transform="matrix(1 0 0 1 201.2227 209.7295)" font-family="sans-serif" font-size="22.4979">W</text>
		<text transform="matrix(1 0 0 1 222.7031 209.7295)" font-family="sans-serif" font-size="22.4979">1</text>
		<text transform="matrix(1 0 0 1 235.1504 209.7295)" font-family="sans-serif" font-size="22.4979"> </text>
	</g>
	<g id="varW" display="inline">
		<text transform="matrix(1 0 0 1 184.0625 210.0557)" font-family="serif" font-size="23.841">-</text>
		
			<rect x="143.597" y="182.835" fill="none" stroke="#000000" stroke-width="2.0987" stroke-linecap="round" stroke-miterlimit="8" width="37.502" height="37.903"/>
		<text transform="matrix(1 0 0 1 150.8555 210.1006)" font-family="sans-serif" font-size="22.4979">W</text>
	</g>
	<g id="varT" display="inline">
		
			<rect x="200.475" y="126.493" fill="none" stroke="#000000" stroke-width="2.0987" stroke-linecap="round" stroke-miterlimit="8" width="40.712" height="40.295"/>
		<text transform="matrix(1 0 0 1 214.5313 154.2705)" font-family="sans-serif" font-size="21.1547">T</text>
	</g>
	<g id="points" display="inline">
		<g>
			<text transform="matrix(1 0 0 1 319.0908 266.0391)" font-family="sans-serif" font-size="21.1547">P</text>
			<text transform="matrix(1 0 0 1 333.2012 266.0391)" font-family="sans-serif" font-size="21.1547">T</text>
			<text transform="matrix(1 0 0 1 345.9746 266.0391)" font-family="sans-serif" font-size="21.1547"> </text>
			<text transform="matrix(1 0 0 1 352 266.0391)" font-family="sans-serif" font-size="21.1547">2</text>
			<text transform="matrix(1 0 0 1 363.4268 266.0391)" font-family="sans-serif" font-size="21.1547"> </text>
			
				<line fill="none" stroke="#000000" stroke-width="2.0987" stroke-linecap="round" stroke-linejoin="round" stroke-miterlimit="10" x1="338.5" y1="204.158" x2="338.5" y2="244.6"/>
			<path stroke="#000000" stroke-width="0.3358" stroke-linejoin="bevel" stroke-miterlimit="10" d="M337.158,204.578l-0.882-2.918
				c-0.23-0.733,0.188-1.531,0.924-1.74c0.732-0.231,1.511,0.188,1.743,0.922l0.899,2.918c0.211,0.734-0.188,1.512-0.943,1.743
				C338.164,205.732,337.389,205.314,337.158,204.578L337.158,204.578z M330.4,206.382l-0.169-29.213l16.225,24.304L330.4,206.382z"
				/>
		</g>
		<g>
			<text transform="matrix(1 0 0 1 26.2803 266.0391)" font-family="sans-serif" font-size="21.1547">P</text>
			<text transform="matrix(1 0 0 1 40.3901 266.0391)" font-family="sans-serif" font-size="21.1547">T</text>
			<text transform="matrix(1 0 0 1 53.1641 266.0391)" font-family="sans-serif" font-size="21.1547"> </text>
			<text transform="matrix(1 0 0 1 59.1904 266.0391)" font-family="sans-serif" font-size="21.1547">1</text>
			<text transform="matrix(1 0 0 1 70.6162 266.0391)" font-family="sans-serif" font-size="21.1547"> </text>
			<text transform="matrix(1 0 0 1 76.6421 266.0391)" font-family="sans-serif" font-size="21.1547">  </text>
			<text transform="matrix(1 0 0 1 88.1011 266.0391)" font-family="sans-serif" font-size="21.1547"> </text>
			
				<line fill="none" stroke="#000000" stroke-width="2.0987" stroke-linecap="round" stroke-linejoin="round" stroke-miterlimit="10" x1="45.106" y1="201.641" x2="45.106" y2="242.229"/>
			<path stroke="#000000" stroke-width="0.3358" stroke-linejoin="bevel" stroke-miterlimit="10" d="M43.763,201.241l0.924-2.959
				c0.23-0.734,1.006-1.154,1.742-0.922c0.755,0.231,1.153,1.007,0.922,1.741l-0.922,2.959c-0.211,0.733-1.009,1.152-1.742,0.924
				C43.952,202.752,43.532,201.977,43.763,201.241L43.763,201.241z M37.173,198.871l16.327-24.22l-0.293,29.213L37.173,198.871z"/>
		</g>
	</g>
</g>
<g id="example" display="none">
	
		<text transform="matrix(1.0017 0 0 1 309.2734 326.6582)" display="inline" fill="#808080" font-family="sans-serif" font-size="20.5637">X</text>
	
		<text transform="matrix(1.0017 0 0 1 78.1338 326.6582)" display="inline" fill="#808080" font-family="sans-serif" font-size="20.5637">X </text>
	<text transform="matrix(1.0017 0 0 1 320.6055 242.1367)" display="inline"><tspan x="0" y="0" fill="#808080" font-family="sans-serif" font-size="14.8516">P</tspan><tspan x="10.277" y="0" fill="#808080" font-family="sans-serif" font-size="14.8516">L</tspan><tspan x="19.408" y="0" fill="#808080" font-family="sans-serif" font-size="14.8516"> BRAVO </tspan></text>
	<path display="inline" fill="none" stroke="#808080" stroke-width="5" stroke-linejoin="round" stroke-miterlimit="8" d="
		M313.021,124.042c6.454,12.178,4.128,41.408,4.646,50.665c-0.774,42.058-3.096,83.789-3.096,125.685"/>
	<path display="inline" fill="none" stroke="#808080" stroke-width="5" stroke-linejoin="round" stroke-miterlimit="8" d="
		M86.814,127.103c5.042,57.496-3.185,114.346-3.185,171.519"/>
	<text transform="matrix(1.0017 0 0 1 4 242.1367)" display="inline"><tspan x="0" y="0" fill="#808080" font-family="sans-serif" font-size="14.8516">P</tspan><tspan x="10.277" y="0" fill="#808080" font-family="sans-serif" font-size="14.8516">L</tspan><tspan x="19.408" y="0" fill="#808080" font-family="sans-serif" font-size="14.8516"> BRAVO </tspan></text>
	<path display="inline" fill="none" stroke="#808080" stroke-width="5" stroke-linejoin="round" stroke-miterlimit="8" d="
		M86.308,238.386c16.724,0.466,33.447,0.466,50.171,1.399c10.975,0.463,32.926,2.79,32.926,2.79
		c48.865-1.396,96.945-2.79,145.811-2.79"/>
	<g display="inline">
		<text transform="matrix(1.0017 0 0 1 133.9658 198.4058)"><tspan x="0" y="0" font-family="sans-serif" font-size="18">1108</tspan><tspan x="39.323" y="0" font-family="sans-serif" font-size="18" letter-spacing="0.998">0</tspan><tspan x="50.774" y="0" font-family="sans-serif" font-size="18">0</tspan><tspan x="60.604" y="0" font-family="sans-serif" font-size="18">ZF</tspan><tspan x="83.495" y="0" font-family="sans-serif" font-size="18">E</tspan><tspan x="94.96" y="0" font-family="sans-serif" font-size="18">B</tspan><tspan x="107.057" y="0" font-family="sans-serif" font-size="18" letter-spacing="0.998">0</tspan><tspan x="118.507" y="0" font-family="sans-serif" font-size="18">0 -</tspan></text>
		<text transform="matrix(1.0017 0 0 1 133.9658 216.6758)"><tspan x="0" y="0" font-family="sans-serif" font-size="18">0412</tspan><tspan x="39.323" y="0" font-family="sans-serif" font-size="18" letter-spacing="0.998">00</tspan><tspan x="62.224" y="0" font-family="sans-serif" font-size="18">Z</tspan><tspan x="73.22" y="0" font-family="sans-serif" font-size="18">F</tspan><tspan x="84.665" y="0" font-family="sans-serif" font-size="18">E</tspan><tspan x="96.13" y="0" font-family="sans-serif" font-size="18" letter-spacing="-0.998">B</tspan><tspan x="106.606" y="0" font-family="sans-serif" font-size="18" letter-spacing="0.998">0</tspan><tspan x="118.057" y="0" font-family="sans-serif" font-size="18">0</tspan></text>
	</g>
	<text transform="matrix(1.0017 0 0 1 191.4502 161.1655)" display="inline"><tspan x="0" y="0" font-family="sans-serif" font-size="18">52</tspan><tspan x="20.022" y="0" font-family="sans-serif" font-size="18">I</tspan><tspan x="25.545" y="0" font-family="sans-serif" font-size="18">D</tspan><tspan x="38.021" y="0" font-family="sans-serif" font-size="18"> </tspan><tspan x="43.544" y="0" font-family="sans-serif" font-size="18">(</tspan><tspan x="49.089" y="0" font-family="sans-serif" font-size="18">M</tspan><tspan x="64.317" y="0" font-family="sans-serif" font-size="18">)</tspan></text>
</g>
</svg>
