<?xml version="1.0" encoding="utf-8"?>
<!-- Generator: Adobe Illustrator 16.0.0, SVG Export Plug-In . SVG Version: 6.00 Build 0)  -->
<!DOCTYPE svg PUBLIC "-//W3C//DTD SVG 1.1//EN" "http://www.w3.org/Graphics/SVG/1.1/DTD/svg11.dtd">
<svg version="1.1" id="Version_1.0" xmlns="http://www.w3.org/2000/svg" xmlns:xlink="http://www.w3.org/1999/xlink" x="0px"
	 y="0px" width="400px" height="400px" viewBox="0 0 400 400" enable-background="new 0 0 400 400" xml:space="preserve">
<g id="main">
	
		<line fill="none" stroke="#000000" stroke-width="5" stroke-linejoin="round" stroke-miterlimit="10" x1="59.23" y1="172.406" x2="326.75" y2="172.406"/>
	<g>
		<rect x="167.478" y="157.021" fill="#FFFFFF" width="49.025" height="32.771"/>
		<text transform="matrix(1 0 0 1 170.478 179.1699)" font-family="sans-serif" font-size="21">MFP</text>
	</g>
</g>
<g id="template" display="none">
	<g id="varW1" display="inline">
		
			<rect x="113.783" y="185.586" fill="none" stroke="#000000" stroke-width="2.0987" stroke-linecap="round" stroke-miterlimit="8" width="48.565" height="37.923"/>
		<text transform="matrix(1 0 0 1 121.1885 212.7744)" font-family="sans-serif" font-size="22.4979">W</text>
		<text transform="matrix(1 0 0 1 142.6704 212.7744)" font-family="sans-serif" font-size="22.4979">1</text>
		<text transform="matrix(1 0 0 1 155.1157 212.7744)" font-family="sans-serif" font-size="22.4979"> </text>
	</g>
	<g id="varW" display="inline">
		<text transform="matrix(1 0 0 1 104.0283 213.1006)" font-family="serif" font-size="23.841">-</text>
		
			<rect x="63.563" y="185.88" fill="none" stroke="#000000" stroke-width="2.0987" stroke-linecap="round" stroke-miterlimit="8" width="37.502" height="37.903"/>
		<text transform="matrix(1 0 0 1 70.8213 213.1455)" font-family="sans-serif" font-size="22.4979">W</text>
	</g>
	<g id="points" display="inline">
		<g>
			
				<line fill="none" stroke="#000000" stroke-width="2.0987" stroke-linecap="round" stroke-linejoin="round" stroke-miterlimit="10" x1="338.5" y1="204.158" x2="338.5" y2="244.6"/>
			<path stroke="#000000" stroke-width="0.3358" stroke-linejoin="bevel" stroke-miterlimit="10" d="M337.158,204.578l-0.882-2.918
				c-0.23-0.733,0.188-1.531,0.924-1.74c0.732-0.231,1.511,0.188,1.743,0.922l0.899,2.918c0.211,0.734-0.188,1.512-0.943,1.743
				C338.164,205.732,337.389,205.314,337.158,204.578L337.158,204.578z M330.4,206.382l-0.169-29.213l16.225,24.304L330.4,206.382z"
				/>
			<text transform="matrix(1 0 0 1 319.0908 266.0391)" font-family="sans-serif" font-size="21.1547">PT 2</text>
		</g>
		<g>
			
				<line fill="none" stroke="#000000" stroke-width="2.0987" stroke-linecap="round" stroke-linejoin="round" stroke-miterlimit="10" x1="45.106" y1="201.641" x2="45.106" y2="242.229"/>
			<path stroke="#000000" stroke-width="0.3358" stroke-linejoin="bevel" stroke-miterlimit="10" d="M43.763,201.241l0.924-2.959
				c0.23-0.734,1.006-1.154,1.742-0.922c0.755,0.231,1.153,1.007,0.922,1.741l-0.922,2.959c-0.211,0.733-1.009,1.152-1.742,0.924
				C43.952,202.752,43.532,201.977,43.763,201.241L43.763,201.241z M37.173,198.871l16.327-24.22l-0.293,29.213L37.173,198.871z"/>
			<text transform="matrix(1 0 0 1 26.2803 266.0391)" font-family="sans-serif" font-size="21.1547">PT 1</text>
		</g>
	</g>
</g>
<g id="example" display="none">
	<text id="varWeW1e" transform="matrix(1 0 0 1 28.8213 213.1455)" display="inline" enable-background="new    "><tspan x="0" y="0" font-family="sans-serif" font-size="21">110800ZMAY98 -</tspan><tspan x="0" y="25.2" font-family="sans-serif" font-size="21">041200ZMAY08</tspan></text>
</g>
</svg>
