<?xml version="1.0" encoding="utf-8"?>
<!-- Generator: Adobe Illustrator 16.0.0, SVG Export Plug-In . SVG Version: 6.00 Build 0)  -->
<!DOCTYPE svg PUBLIC "-//W3C//DTD SVG 1.1//EN" "http://www.w3.org/Graphics/SVG/1.1/DTD/svg11.dtd">
<svg version="1.1" id="Version_1.0" xmlns="http://www.w3.org/2000/svg" xmlns:xlink="http://www.w3.org/1999/xlink" x="0px"
	 y="0px" width="400px" height="400px" viewBox="0 0 400 400" enable-background="new 0 0 400 400" xml:space="preserve">
<g id="main">
	
		<line fill="none" stroke="#000000" stroke-width="5" stroke-linejoin="round" stroke-miterlimit="10" x1="69.858" y1="172.406" x2="333.75" y2="172.406"/>
	
		<text transform="matrix(1 0 0 1 240.7383 160.8701)" display="none" enable-background="new    " font-family="sans-serif" font-size="18">BCL</text>
	
		<text transform="matrix(1 0 0 1 75.1802 160.8701)" display="none" enable-background="new    " font-family="sans-serif" font-size="18">BCL</text>
</g>
<g id="template" display="none">
	<g id="varW1_1_" display="inline">
		
			<rect x="130.018" y="181.073" fill="none" stroke="#000000" stroke-width="2.0987" stroke-linecap="round" stroke-miterlimit="8" width="48.565" height="37.923"/>
		<text transform="matrix(1 0 0 1 137.4229 208.2607)" font-family="sans-serif" font-size="22.4979">W</text>
		<text transform="matrix(1 0 0 1 158.9048 208.2607)" font-family="sans-serif" font-size="22.4979">1</text>
		<text transform="matrix(1 0 0 1 171.3501 208.2607)" font-family="sans-serif" font-size="22.4979"> </text>
	</g>
	<g id="varW_1_" display="inline">
		<text transform="matrix(1 0 0 1 120.2627 208.5869)" font-family="serif" font-size="23.841">-</text>
		
			<rect x="79.797" y="181.366" fill="none" stroke="#000000" stroke-width="2.0987" stroke-linecap="round" stroke-miterlimit="8" width="37.502" height="37.903"/>
		<text transform="matrix(1 0 0 1 87.0557 208.6318)" font-family="sans-serif" font-size="22.4979">W</text>
	</g>
	<g id="varT_1_" display="inline">
		
			<rect x="290.396" y="126.493" fill="none" stroke="#000000" stroke-width="2.0987" stroke-linecap="round" stroke-miterlimit="8" width="40.716" height="40.295"/>
		<text transform="matrix(1 0 0 1 304.4766 154.2021)" font-family="sans-serif" font-size="21.1547">T</text>
	</g>
	<g id="varW1" display="inline">
		
			<rect x="275.396" y="181.64" fill="none" stroke="#000000" stroke-width="2.0987" stroke-linecap="round" stroke-miterlimit="8" width="48.535" height="37.922"/>
		<text transform="matrix(1 0 0 1 282.4736 208.916)" font-family="sans-serif" font-size="22.4979">W</text>
		<text transform="matrix(1 0 0 1 303.9551 208.916)" font-family="sans-serif" font-size="22.4979">1</text>
		<text transform="matrix(1 0 0 1 316.4004 208.916)" font-family="sans-serif" font-size="22.4979"> </text>
	</g>
	<g id="varW" display="inline">
		<text transform="matrix(1 0 0 1 265.6621 209.2441)" font-family="serif" font-size="23.841">-</text>
		
			<rect x="225.172" y="181.913" fill="none" stroke="#000000" stroke-width="2.0987" stroke-linecap="round" stroke-miterlimit="8" width="37.482" height="37.923"/>
		<text transform="matrix(1 0 0 1 232.4326 209.2871)" font-family="sans-serif" font-size="22.4979">W</text>
	</g>
	<g id="varT" display="inline">
		
			<rect x="123.232" y="126.493" fill="none" stroke="#000000" stroke-width="2.0987" stroke-linecap="round" stroke-miterlimit="8" width="40.713" height="40.295"/>
		<text transform="matrix(1 0 0 1 137.2896 154.2705)" font-family="sans-serif" font-size="21.1547">T</text>
	</g>
	<g id="points" display="inline">
		<g>
			<text transform="matrix(1 0 0 1 319.0908 266.0391)" font-family="sans-serif" font-size="21.1547">P</text>
			<text transform="matrix(1 0 0 1 333.2012 266.0391)" font-family="sans-serif" font-size="21.1547">T</text>
			<text transform="matrix(1 0 0 1 345.9746 266.0391)" font-family="sans-serif" font-size="21.1547"> </text>
			<text transform="matrix(1 0 0 1 352 266.0391)" font-family="sans-serif" font-size="21.1547">2</text>
			<text transform="matrix(1 0 0 1 363.4268 266.0391)" font-family="sans-serif" font-size="21.1547"> </text>
			
				<line fill="none" stroke="#000000" stroke-width="2.0987" stroke-linecap="round" stroke-linejoin="round" stroke-miterlimit="10" x1="338.5" y1="204.158" x2="338.5" y2="244.6"/>
			<path stroke="#000000" stroke-width="0.3358" stroke-linejoin="bevel" stroke-miterlimit="10" d="M337.158,204.578l-0.882-2.918
				c-0.23-0.733,0.188-1.531,0.924-1.74c0.73-0.231,1.511,0.188,1.743,0.922l0.897,2.918c0.211,0.734-0.188,1.512-0.941,1.743
				C338.164,205.732,337.389,205.314,337.158,204.578L337.158,204.578z M330.4,206.382l-0.169-29.213l16.225,24.304L330.4,206.382z"
				/>
		</g>
		<g>
			<text transform="matrix(1 0 0 1 26.2803 266.0391)" font-family="sans-serif" font-size="21.1547">P</text>
			<text transform="matrix(1 0 0 1 40.3901 266.0391)" font-family="sans-serif" font-size="21.1547">T</text>
			<text transform="matrix(1 0 0 1 53.1641 266.0391)" font-family="sans-serif" font-size="21.1547"> </text>
			<text transform="matrix(1 0 0 1 59.1904 266.0391)" font-family="sans-serif" font-size="21.1547">1</text>
			<text transform="matrix(1 0 0 1 70.6162 266.0391)" font-family="sans-serif" font-size="21.1547"> </text>
			<text transform="matrix(1 0 0 1 76.6421 266.0391)" font-family="sans-serif" font-size="21.1547">  </text>
			<text transform="matrix(1 0 0 1 88.1011 266.0391)" font-family="sans-serif" font-size="21.1547"> </text>
			
				<line fill="none" stroke="#000000" stroke-width="2.0987" stroke-linecap="round" stroke-linejoin="round" stroke-miterlimit="10" x1="45.106" y1="201.641" x2="45.106" y2="242.229"/>
			<path stroke="#000000" stroke-width="0.3358" stroke-linejoin="bevel" stroke-miterlimit="10" d="M43.763,201.241l0.924-2.959
				c0.23-0.734,1.006-1.154,1.742-0.922c0.755,0.231,1.153,1.007,0.922,1.741l-0.922,2.959c-0.211,0.731-1.009,1.15-1.742,0.924
				C43.952,202.752,43.532,201.977,43.763,201.241L43.763,201.241z M37.173,198.871l16.327-24.22l-0.293,29.213L37.173,198.871z"/>
		</g>
	</g>
</g>
<g id="example" display="none">
	<path display="inline" fill="none" stroke="#808080" stroke-width="5" stroke-linejoin="round" stroke-miterlimit="8" d="
		M329.959,94.662c6.212,13.257,3.974,45.074,4.473,55.147c-0.742,45.779-2.98,91.207-2.98,136.81"/>
	<path display="inline" fill="none" stroke="#808080" stroke-width="5" stroke-linejoin="round" stroke-miterlimit="8" d="
		M68.332,97.926c4.709,62.543-2.976,124.381-2.976,186.57"/>
	<text transform="matrix(1.0017 0 0 1 44.3765 307.3584)" display="inline" fill="#808080" font-family="sans-serif" font-size="21">XXX </text>
	
		<text transform="matrix(1.0017 0 0 1 307.0566 307.3584)" display="inline" fill="#808080" font-family="sans-serif" font-size="21">XXX </text>
	<text transform="matrix(1.0017 0 0 1 4.3433 177.416)" display="inline" fill="#808080" font-family="sans-serif" font-size="16">PL RED</text>
	<text transform="matrix(1.0017 0 0 1 337.1953 177.416)" display="inline" fill="#808080" font-family="sans-serif" font-size="16">PL RED</text>
	<g id="varWeW1e" display="inline">
		<text transform="matrix(1.0017 0 0 1 70.2153 193.1865)" font-family="sans-serif" font-size="16">110800ZMAY98- </text>
		<text transform="matrix(1.0017 0 0 1 70.2153 212.8789)" font-family="sans-serif" font-size="16">041200ZMAY08</text>
	</g>
	<g id="varWeW1e_1_" display="inline">
		<text transform="matrix(1.0017 0 0 1 204.8438 193.6611)" font-family="sans-serif" font-size="16">110800ZMAY98-</text>
		<text transform="matrix(1.0017 0 0 1 204.8438 212.2275)" font-family="sans-serif" font-size="16">041200ZMAY08</text>
	</g>
	<text id="varTe" transform="matrix(1.0017 0 0 1 295.293 160.8701)" display="inline" font-family="sans-serif" font-size="18">RFL </text>
	<text id="varTe_1_" transform="matrix(1.0017 0 0 1 75.3647 160.8701)" display="inline" font-family="sans-serif" font-size="18">RFL  </text>
	<g display="inline">
		<polygon fill="none" stroke="#808080" stroke-width="5" stroke-linecap="round" stroke-miterlimit="8" points="162.461,73.214 
			162.461,118.569 234.637,118.569 234.637,73.214 		"/>
		<text transform="matrix(1.0017 0 0 1 190.1079 66.0508)" fill="#808080" font-family="sans-serif" font-size="21">X</text>
		<text transform="matrix(1.0017 0 0 1 135.3921 120.6846)" fill="#808080" font-family="sans-serif" font-size="21">3</text>
		<text transform="matrix(1.0017 0 0 1 249.6943 120.6846)" fill="#808080" font-family="sans-serif" font-size="21">1</text>
		<path fill="none" stroke="#808080" stroke-width="5" stroke-linecap="round" stroke-linejoin="round" stroke-miterlimit="8" d="
			M198.635,83.653c-14.014,0-25.372,5.442-25.372,12.151c0,6.712,11.358,12.152,25.372,12.152s25.373-5.44,25.373-12.152
			C224.008,89.096,212.648,83.653,198.635,83.653L198.635,83.653z"/>
	</g>
	<g display="inline">
		<g>
			<polygon fill="none" stroke="#808080" stroke-width="5" stroke-linecap="round" stroke-miterlimit="8" points="169.737,306.105 
				169.737,338.486 221.139,338.486 221.139,306.105 			"/>
			
				<line fill="none" stroke="#808080" stroke-width="5" stroke-linejoin="round" stroke-miterlimit="8" x1="169.737" y1="306.105" x2="221.139" y2="338.852"/>
			
				<line fill="none" stroke="#808080" stroke-width="5" stroke-linejoin="round" stroke-miterlimit="8" x1="169.737" y1="338.486" x2="221.139" y2="306.105"/>
		</g>
		<g>
			
				<line fill="none" stroke="#808080" stroke-width="5" stroke-linejoin="round" stroke-miterlimit="8" x1="149.645" y1="260.23" x2="169.839" y2="260.23"/>
			
				<line fill="none" stroke="#808080" stroke-width="5" stroke-linejoin="round" stroke-miterlimit="8" x1="240.209" y1="260.23" x2="220.018" y2="260.23"/>
			
				<line fill="none" stroke="#808080" stroke-width="5" stroke-linejoin="round" stroke-miterlimit="8" x1="149.645" y1="260.475" x2="199.945" y2="240.561"/>
			
				<line fill="none" stroke="#808080" stroke-width="5" stroke-linejoin="round" stroke-miterlimit="8" x1="240.209" y1="260.475" x2="199.945" y2="240.561"/>
			<path fill="none" stroke="#808080" stroke-width="5" stroke-linejoin="round" stroke-miterlimit="8" d="M220.244,260.475
				c-0.85,6.396-1.697,12.789,0,20.02c1.693,7.229,8.479,19.463,10.176,23.355"/>
			<path fill="none" stroke="#808080" stroke-width="5" stroke-linejoin="round" stroke-miterlimit="8" d="M170.101,260.475
				c0.849,4.728,1.697,9.453,0,16.684c-1.695,7.229-8.479,22.244-10.175,26.691"/>
		</g>
		<text transform="matrix(1.0017 0 0 1 227.4189 332.0684)" fill="#808080" font-family="sans-serif" font-size="21">23</text>
		<text transform="matrix(1.0017 0 0 1 251.4492 332.0684)" fill="#808080" font-family="sans-serif" font-size="21">       </text>
		<text transform="matrix(1.0017 0 0 1 293.3887 332.0684)" fill="#808080" font-family="sans-serif" font-size="21"> </text>
		<text transform="matrix(1.0017 0 0 1 149.2803 332.0684)" fill="#808080" font-family="sans-serif" font-size="21">2</text>
		<text transform="matrix(1.0017 0 0 1 188.3584 293.9473)" fill="#808080" font-family="sans-serif" font-size="21">X</text>
	</g>
</g>
</svg>
