<?xml version="1.0" encoding="utf-8"?>
<!-- Generator: Adobe Illustrator 16.0.0, SVG Export Plug-In . SVG Version: 6.00 Build 0)  -->
<!DOCTYPE svg PUBLIC "-//W3C//DTD SVG 1.1//EN" "http://www.w3.org/Graphics/SVG/1.1/DTD/svg11.dtd">
<svg version="1.1" id="Version_1.0" xmlns="http://www.w3.org/2000/svg" xmlns:xlink="http://www.w3.org/1999/xlink" x="0px"
	 y="0px" width="400px" height="400px" viewBox="0 0 400 400" enable-background="new 0 0 400 400" xml:space="preserve">
<g id="main_1_">
	
		<path id="zone2" fill="none" stroke="#000000" stroke-width="5.3925" stroke-linecap="round" stroke-linejoin="round" stroke-miterlimit="10" d="
		M208.146,96.092c-20.781-6.726-44.775,0.263-66.083,2.969c-20.782,5.11-36.958,17.249-56.913,23.973
		c-13.754,20.763-5.131,15.896-21.044,21.025c-5.938,5.918-11.876,11.855-17.793,17.773c-2.162,2.161-6.221,6.2-6.221,6.2
		c2.442,14.825,5.675,27.489,9.189,41.767c0.262,2.161,4.583,43.119,5.917,47.967c4.585,15.354,27.528,13.476,38.858,14.826
		c38.555,4.301,18.601,0.809,45.037,6.198c21.854,32.86,85.494,12.666,110.861,11.858c18.884-2.162,41.261-2.162,56.914-14.828
		c5.106-4.038,6.745-11.592,12.139-15.086c5.394-3.229,12.136-4.039,18.06-5.938c2.969-1.071,8.9-2.969,8.9-2.969
		c7.292-7.819,10.264-16.704,18.077-23.978c1.07-2.971,2.969-5.918,2.969-9.168c0-19.938,2.688-40.679-2.969-59.805
		c-2.161-7.008-11.068-10.239-18.077-11.855c-29.93-7.291-15.912-4.584-42.064-8.907c-16.725-11.572-18.34-35.828-41.812-39.06
		c-10.784-1.616-21.853-1.878-32.92-2.969C208.955,89.367,214.086,84.5,208.146,96.092"/>
	
		<path id="zone1" fill="none" stroke="#000000" stroke-width="5.3925" stroke-linecap="round" stroke-linejoin="round" stroke-miterlimit="10" d="
		M206.65,130.12c-13.508-4.372-29.104,0.171-42.955,1.93c-13.508,3.321-24.022,11.212-36.993,15.583
		c-8.94,13.496-3.335,10.333-13.679,13.666c-3.86,3.847-7.719,7.706-11.565,11.553c-1.405,1.405-4.044,4.03-4.044,4.03
		c1.588,9.636,3.689,17.868,5.973,27.148c0.17,1.404,2.979,28.027,3.846,31.178c2.981,9.98,17.894,8.76,25.258,9.638
		c25.061,2.796,12.091,0.525,29.274,4.028c14.205,21.359,55.57,8.233,72.06,7.709c12.274-1.406,26.819-1.406,36.994-9.639
		c3.319-2.625,4.384-7.535,7.89-9.807c3.506-2.099,7.889-2.625,11.739-3.859c1.93-0.696,5.785-1.93,5.785-1.93
		c4.739-5.082,6.671-10.857,11.75-15.586c0.696-1.93,1.93-3.846,1.93-5.959c0-12.959,1.747-26.441-1.93-38.873
		c-1.404-4.555-7.194-6.655-11.75-7.706c-19.454-4.739-10.343-2.979-27.342-5.789c-10.871-7.522-11.921-23.289-27.178-25.389
		c-7.009-1.05-14.204-1.221-21.397-1.93C207.176,125.749,210.511,122.585,206.65,130.12"/>
	<g>
		<polygon fill="#FFFFFF" points="299.589,177.295 299.589,209.334 321.067,209.334 321.067,177.295 		"/>
		<text transform="matrix(1 0 0 1 304.5479 201.0898)" font-family="sans-serif" font-size="21.0914">1</text>
	</g>
	<g>
		<polygon fill="#FFFFFF" points="356.973,177.295 356.973,209.334 378.33,209.334 378.33,177.295 		"/>
		<text transform="matrix(1 0 0 1 361.8203 201.0898)" font-family="sans-serif" font-size="21.0914">2</text>
	</g>
</g>
</svg>
