<?xml version="1.0" encoding="utf-8"?>
<!-- Generator: Adobe Illustrator 16.0.0, SVG Export Plug-In . SVG Version: 6.00 Build 0)  -->
<!DOCTYPE svg PUBLIC "-//W3C//DTD SVG 1.1//EN" "http://www.w3.org/Graphics/SVG/1.1/DTD/svg11.dtd">
<svg version="1.1" id="Version_1.0" xmlns="http://www.w3.org/2000/svg" xmlns:xlink="http://www.w3.org/1999/xlink" x="0px"
	 y="0px" width="400px" height="400px" viewBox="0 0 400 400" enable-background="new 0 0 400 400" xml:space="preserve">
<g id="main">
	
		<rect x="56.219" y="119.088" fill="none" stroke="#000000" stroke-width="5" stroke-linecap="round" stroke-miterlimit="8" width="289.521" height="139.076"/>
</g>
<g id="template" display="none">
	<g id="varW_1_" display="inline">
		
			<rect x="169.5" y="268.529" fill="none" stroke="#000000" stroke-width="2.585" stroke-linecap="round" stroke-miterlimit="8" width="59" height="52.971"/>
		<text transform="matrix(1 0 0 1 181.7949 312.9238)" font-family="sans-serif" font-size="42">W</text>
	</g>
	<g id="varA_1_" display="inline">
		
			<rect x="169.5" y="158.5" fill="none" stroke="#000000" stroke-width="2.585" stroke-linecap="round" stroke-miterlimit="8" width="59" height="58"/>
		<text transform="matrix(1 0 0 1 185.7563 203.5039)" font-family="sans-serif" font-size="42">A</text>
	</g>
	<g id="varH_1_" display="inline">
		
			<rect x="169.5" y="52.5" fill="none" stroke="#000000" stroke-width="2.585" stroke-linecap="round" stroke-miterlimit="8" width="59" height="57.221"/>
		<text transform="matrix(1 0 0 1 185.5977 98.0547)" font-family="sans-serif" font-size="42">H</text>
	</g>
	<g id="varN_1_" display="inline">
		
			<rect x="315.5" y="158.5" fill="#FFFFFF" stroke="#000000" stroke-width="2.585" stroke-linecap="round" stroke-miterlimit="8" width="59" height="58"/>
		<text transform="matrix(1 0 0 1 330.7041 202.8076)" font-family="sans-serif" font-size="41.3602">N</text>
	</g>
	<g id="varN" display="inline">
		
			<rect x="26.5" y="158.5" fill="#FFFFFF" stroke="#000000" stroke-width="2.585" stroke-linecap="round" stroke-miterlimit="8" width="59" height="58"/>
		<text transform="matrix(1 0 0 1 41.1826 203.4746)" font-family="sans-serif" font-size="41.3602">N</text>
	</g>
</g>
<g id="example" display="none">
	
		<rect x="56.219" y="118.088" display="inline" fill="none" stroke="#00FF00" stroke-width="5" stroke-linecap="round" stroke-miterlimit="8" width="289.521" height="139.076"/>
	<g id="varN_3_" display="inline">
		<rect x="315.5" y="158.5" fill="#FFFFFF" width="59" height="58"/>
		<text id="varNe_1_" transform="matrix(1 0 0 1 308.7041 202.8076)" fill="#00FF00" font-family="sans-serif" font-size="42">ENY</text>
	</g>
	<g id="varN_2_" display="inline">
		<rect x="26.5" y="158.5" fill="#FFFFFF" width="59" height="58"/>
		<text id="varNe" transform="matrix(1 0 0 1 15.1826 203.4746)" fill="#00FF00" font-family="sans-serif" font-size="42">ENY</text>
	</g>
	<text id="varWe" transform="matrix(1 0 0 1 195.7813 312.9238)" display="inline" font-family="sans-serif" font-size="42"> </text>
	<text id="varHe" transform="matrix(1 0 0 1 194.9287 98.0547)" display="inline" font-family="sans-serif" font-size="42"> </text>
	<g id="varAe" display="inline">
		<path fill-rule="evenodd" clip-rule="evenodd" fill="#00FF00" d="M278.135,164.932c-14.801,0-26.799,10.968-26.799,24.5
			c0,13.531,11.998,24.499,26.799,24.499c14.804,0,26.802-10.968,26.802-24.499C304.937,175.9,292.938,164.932,278.135,164.932
			L278.135,164.932z"/>
		<path fill-rule="evenodd" clip-rule="evenodd" fill="#00FF00" d="M127.231,164.932c-14.803,0-26.8,10.968-26.8,24.5
			c0,13.531,11.998,24.499,26.8,24.499s26.802-10.968,26.802-24.499C154.033,175.9,142.034,164.932,127.231,164.932L127.231,164.932
			z"/>
		<path fill-rule="evenodd" clip-rule="evenodd" fill="#00FF00" d="M201.685,164.932c-14.805,0-26.802,10.968-26.802,24.5
			c0,13.531,11.998,24.499,26.802,24.499c14.801,0,26.799-10.968,26.799-24.499C228.483,175.9,216.485,164.932,201.685,164.932
			L201.685,164.932z"/>
	</g>
</g>
</svg>
