<?xml version="1.0" encoding="utf-8"?>
<!-- Generator: Adobe Illustrator 16.0.0, SVG Export Plug-In . SVG Version: 6.00 Build 0)  -->
<!DOCTYPE svg PUBLIC "-//W3C//DTD SVG 1.1//EN" "http://www.w3.org/Graphics/SVG/1.1/DTD/svg11.dtd">
<svg version="1.1" id="Version_1.0" xmlns="http://www.w3.org/2000/svg" xmlns:xlink="http://www.w3.org/1999/xlink" x="0px"
	 y="0px" width="400px" height="400px" viewBox="0 0 400 400" enable-background="new 0 0 400 400" xml:space="preserve">
<g id="main" transform="translate(-55 -50)">
	<path fill="none" stroke="#000000" stroke-width="5" d="M262.377,195.323c81.186,0,146-95.725,145,53c-1,148.724-70.814,66-152,66
		c-81.186,0-148,96.725-142-66C119.377,85.598,181.192,195.323,262.377,195.323z"/>
</g>
<g id="template" display="none">
	<g id="varH" transform="translate(172 93)" display="inline">
		<rect x="23.377" y="24.5" fill="#FFFFFF" stroke="#000000" stroke-width="2" width="24" height="25.823"/>
		<text transform="matrix(1 0 0 1 29.377 45.3232)" font-family="sans-serif" font-size="21">H</text>
	</g>
	<g id="varW" transform="translate(33 217)" display="inline">
		<rect x="160.377" y="51.322" fill="#FFFFFF" stroke="#000000" stroke-width="2" width="24" height="24.178"/>
		<text transform="matrix(1 0 0 1 163.3774 69.3223)" font-family="sans-serif" font-size="21">W</text>
	</g>
	<g id="varA" display="inline">
		<rect x="189.5" y="188.323" fill="none" stroke="#000000" stroke-width="2" width="25.877" height="27"/>
		<text transform="matrix(1 0 0 1 196.3774 208.3223)" font-family="sans-serif" font-size="21">A</text>
	</g>
	<g id="varN_1_" transform="translate(222 170)" display="inline">
		<rect x="115.377" y="9.5" fill="#FFFFFF" stroke="#000000" stroke-width="2" width="24" height="24.823"/>
		<text transform="matrix(1 0 0 1 121.377 29.3232)" font-family="sans-serif" font-size="21">N</text>
	</g>
	<g id="varN" transform="translate(51 96)" display="inline">
		<rect x="-3.623" y="83.897" fill="#FFFFFF" stroke="#000000" stroke-width="2" width="24" height="27.426"/>
		<text transform="matrix(1 0 0 1 1.3774 106.3223)" font-family="sans-serif" font-size="21">N</text>
	</g>
</g>
<g id="example" display="none">
	<text id="varWe" transform="matrix(1 0 0 1 196.3774 280.3223)" display="inline" font-family="sans-serif" font-size="21"> </text>
	<text id="varHe" transform="matrix(1 0 0 1 201.377 138.3232)" display="inline" font-family="sans-serif" font-size="21"> </text>
	<text id="varNe_1_" transform="matrix(1 0 0 1 343.377 199.3232)" display="inline" font-family="sans-serif" font-size="21"> </text>
	<text id="varNe" transform="matrix(1 0 0 1 52.3774 202.3223)" display="inline" font-family="sans-serif" font-size="21"> </text>
	<g id="varAe" display="inline">
		<circle fill="none" stroke="#808080" stroke-width="5" cx="109.082" cy="201.383" r="22"/>
		<circle fill="none" stroke="#808080" stroke-width="5" cx="203.5" cy="201.383" r="22"/>
		<circle fill="none" stroke="#808080" stroke-width="5" cx="296.902" cy="201.383" r="22"/>
	</g>
</g>
</svg>
