<?xml version="1.0" encoding="utf-8"?>
<!-- Generator: Adobe Illustrator 16.0.0, SVG Export Plug-In . SVG Version: 6.00 Build 0)  -->
<!DOCTYPE svg PUBLIC "-//W3C//DTD SVG 1.1//EN" "http://www.w3.org/Graphics/SVG/1.1/DTD/svg11.dtd">
<svg version="1.1" id="Version_1.0" xmlns="http://www.w3.org/2000/svg" xmlns:xlink="http://www.w3.org/1999/xlink" x="0px"
	 y="0px" width="400px" height="400px" viewBox="0 0 400 400" enable-background="new 0 0 400 400" xml:space="preserve">
<g id="main">
	
		<line fill="none" stroke="#000000" stroke-width="5" stroke-linejoin="round" stroke-miterlimit="10" x1="278.279" y1="111.167" x2="139.792" y2="292.096"/>
	
		<line fill="none" stroke="#000000" stroke-width="5" stroke-linejoin="round" stroke-miterlimit="10" x1="320.777" y1="107.192" x2="182.287" y2="292.096"/>
	
		<line fill="none" stroke="#000000" stroke-width="5" stroke-linejoin="round" stroke-miterlimit="10" x1="182.287" y1="111.167" x2="320.777" y2="293.865"/>
	
		<line fill="none" stroke="#000000" stroke-width="5" stroke-linejoin="round" stroke-miterlimit="10" x1="141.123" y1="107.192" x2="278.279" y2="293.865"/>
</g>
<g id="template" display="none">
	<g display="inline">
		<text transform="matrix(1 0 0 1 80.1323 207.333)" font-family="sans-serif" font-size="24">P</text>
		<text transform="matrix(1 0 0 1 96.2124 207.333)" font-family="sans-serif" font-size="24">T</text>
		<text transform="matrix(1 0 0 1 110.8721 207.333)" font-family="sans-serif" font-size="24"> </text>
		<text transform="matrix(1 0 0 1 117.5884 207.333)" font-family="sans-serif" font-size="24">3</text>
		<text transform="matrix(1 0 0 1 131.0073 207.333)" font-family="sans-serif" font-size="24">  </text>
		<text transform="matrix(1 0 0 1 144.4404 207.333)" font-family="sans-serif" font-size="24"> </text>
		<text transform="matrix(1 0 0 1 150.9404 207.333)" font-family="sans-serif" font-size="24"> </text>
		<path stroke="#000000" stroke-width="0.2833" stroke-linejoin="bevel" stroke-miterlimit="10" d="M134.999,199.395l40.371-0.371
			c0.654-0.019,1.188,0.513,1.188,1.168c0.019,0.638-0.515,1.187-1.169,1.187l-40.373,0.391c-0.655,0-1.186-0.515-1.186-1.168
			C133.813,199.943,134.343,199.412,134.999,199.395L134.999,199.395z M172.944,193.145l23.674,6.852l-23.53,7.313L172.944,193.145z
			"/>
	</g>
	<g display="inline">
		<text transform="matrix(1 0 0 1 184.8237 98.1572)" font-family="sans-serif" font-size="24">P</text>
		<text transform="matrix(1 0 0 1 200.9043 98.1572)" font-family="sans-serif" font-size="24">T</text>
		<text transform="matrix(1 0 0 1 215.5635 98.1572)" font-family="sans-serif" font-size="24"> </text>
		<text transform="matrix(1 0 0 1 222.2793 98.1572)" font-family="sans-serif" font-size="24">1</text>
		<text transform="matrix(1 0 0 1 235.6992 98.1572)" font-family="sans-serif" font-size="24"> </text>
		<text transform="matrix(1 0 0 1 242.4141 98.1572)" font-family="sans-serif" font-size="24"> </text>
		
			<line fill="none" stroke="#000000" stroke-width="1.7707" stroke-linecap="round" stroke-linejoin="round" stroke-miterlimit="10" x1="260.197" y1="92.608" x2="241.677" y2="92.608"/>
		<path stroke="#000000" stroke-width="0.2833" stroke-linejoin="bevel" stroke-miterlimit="10" d="M260.678,91.475l15.086,4.64
			c0.637,0.176,0.973,0.85,0.797,1.469c-0.194,0.62-0.851,0.974-1.487,0.779l-15.087-4.622c-0.637-0.195-0.973-0.867-0.795-1.487
			C259.384,91.635,260.039,91.28,260.678,91.475L260.678,91.475z M275.249,89.776l20.487,13.687l-24.649-0.142L275.249,89.776z"/>
	</g>
	<g display="inline">
		<text transform="matrix(1 0 0 1 49.6187 314.4795)" font-family="sans-serif" font-size="24">P</text>
		<text transform="matrix(1 0 0 1 65.6987 314.4795)" font-family="sans-serif" font-size="24">T</text>
		<text transform="matrix(1 0 0 1 80.3589 314.4795)" font-family="sans-serif" font-size="24"> </text>
		<text transform="matrix(1 0 0 1 87.0747 314.4795)" font-family="sans-serif" font-size="24">2</text>
		<text transform="matrix(1 0 0 1 100.4937 314.4795)" font-family="sans-serif" font-size="24">  </text>
		<text transform="matrix(1 0 0 1 113.9268 314.4795)" font-family="sans-serif" font-size="24"> </text>
		<text transform="matrix(1 0 0 1 120.4268 314.4795)" font-family="sans-serif" font-size="24"> </text>
		
			<line fill="none" stroke="#000000" stroke-width="1.7707" stroke-linecap="round" stroke-linejoin="round" stroke-miterlimit="10" x1="125.292" y1="305.739" x2="106.647" y2="305.739"/>
		<path stroke="#000000" stroke-width="0.2833" stroke-linejoin="bevel" stroke-miterlimit="10" d="M124.956,304.604l15.104-4.619
			c0.62-0.195,1.275,0.158,1.47,0.775c0.195,0.62-0.159,1.275-0.779,1.473l-15.104,4.64c-0.62,0.178-1.275-0.159-1.47-0.798
			C123.981,305.455,124.335,304.801,124.956,304.604L124.956,304.604z M136.058,295.023l24.648-0.158l-20.487,13.705
			L136.058,295.023z"/>
	</g>
</g>
<g id="example" display="none">
	<path display="inline" fill="none" stroke="#808080" stroke-width="5" stroke-linejoin="round" stroke-miterlimit="8" d="
		M16.166,185.742c12.694,1.267,25.389,2.534,45.699,0c20.312-2.535,50.778-15.208,76.167-15.208
		c25.388,0,55.854,10.139,76.165,15.208c20.312,5.069,17.773,15.207,45.699,15.207c27.928,0,101.557-12.673,121.865-15.207"/>
	<path display="inline" fill="none" stroke="#808080" stroke-width="5" stroke-linejoin="round" stroke-miterlimit="8" d="
		M16.166,216.157c12.694,1.267,25.389,2.536,45.699,0c20.312-2.532,50.778-15.208,76.167-15.208
		c25.388,0,55.854,10.14,76.165,15.208c20.312,5.07,17.773,15.209,45.699,15.209c27.928,0,101.557-12.673,121.865-15.209"/>
	<g display="inline">
		
			<line fill="none" stroke="#00FF00" stroke-width="5" stroke-linejoin="round" stroke-miterlimit="10" x1="278.279" y1="111.167" x2="139.792" y2="292.096"/>
		
			<line fill="none" stroke="#00FF00" stroke-width="5" stroke-linejoin="round" stroke-miterlimit="10" x1="320.777" y1="107.192" x2="182.287" y2="292.096"/>
		
			<line fill="none" stroke="#00FF00" stroke-width="5" stroke-linejoin="round" stroke-miterlimit="10" x1="182.287" y1="111.167" x2="320.777" y2="293.865"/>
		
			<line fill="none" stroke="#00FF00" stroke-width="5" stroke-linejoin="round" stroke-miterlimit="10" x1="141.123" y1="107.192" x2="278.279" y2="293.865"/>
	</g>
</g>
</svg>
