<?xml version="1.0" encoding="utf-8"?>
<!-- Generator: Adobe Illustrator 16.0.0, SVG Export Plug-In . SVG Version: 6.00 Build 0)  -->
<!DOCTYPE svg PUBLIC "-//W3C//DTD SVG 1.1//EN" "http://www.w3.org/Graphics/SVG/1.1/DTD/svg11.dtd">
<svg version="1.1" id="Version_1.0" xmlns="http://www.w3.org/2000/svg" xmlns:xlink="http://www.w3.org/1999/xlink" x="0px"
	 y="0px" width="400px" height="400px" viewBox="0 0 400 400" enable-background="new 0 0 400 400" xml:space="preserve">
<g id="main">
	
		<path fill="none" stroke="#000000" stroke-width="5.4331" stroke-linecap="round" stroke-linejoin="round" stroke-miterlimit="10" d="
		M195.951,118.865c34.328-1.161,89.678-17.114,108.297,5.248c18.617,22.344,39.128,107.79,3.438,128.829
		c-35.688,21.041-182.689,17.744-217.566-2.604c-34.897-20.328-9.421-97.45,8.222-119.366
		C115.979,109.056,161.644,120.004,195.951,118.865"/>
	<g>
		<polygon fill="#FFFFFF" points="183.762,249.361 183.762,281.92 216.32,281.92 216.32,249.361 		"/>
		<text transform="matrix(1 0 0 1 188.6768 279.1348)" font-family="'ArialMT'" font-size="32.5581">M</text>
	</g>
	<g>
		<polygon fill="#FFFFFF" points="183.762,102.849 183.762,135.407 216.32,135.407 216.32,102.849 		"/>
		<text transform="matrix(1 0 0 1 188.6768 132.623)" font-family="'ArialMT'" font-size="32.5581">M</text>
	</g>
	<g>
		<polygon fill="#FFFFFF" points="307.218,159.825 307.218,192.385 339.775,192.385 339.775,159.825 		"/>
		<text transform="matrix(1 0 0 1 312.0625 189.6211)" font-family="'ArialMT'" font-size="32.5581">M</text>
	</g>
	<g>
		<polygon fill="#FFFFFF" points="57.032,176.105 57.032,208.664 89.59,208.664 89.59,176.105 		"/>
		<text transform="matrix(1 0 0 1 61.8779 205.8789)" font-family="'ArialMT'" font-size="32.5581">M</text>
	</g>
</g>
<g id="template" display="none">
	<g id="varW" display="inline">
		
			<rect x="174.448" y="293.378" fill="none" stroke="#000000" stroke-width="2.0349" stroke-linecap="round" stroke-miterlimit="8" width="55.052" height="47.122"/>
		<text transform="matrix(1 0 0 1 186.0908 330.1406)" font-family="'ArialMT'" font-size="32.5581">W</text>
	</g>
	<g id="varN1" display="inline">
		
			<rect x="274.793" y="93.5" fill="#FFFFFF" stroke="#000000" stroke-width="2.0349" stroke-linecap="round" stroke-miterlimit="8" width="48.703" height="49.15"/>
		<text transform="matrix(1 0 0 1 287.334 130.5918)" font-family="'ArialMT'" font-size="32.5581">N</text>
	</g>
	<g id="varN_1_" display="inline">
		
			<rect x="81.797" y="94.5" fill="#FFFFFF" stroke="#000000" stroke-width="2.0349" stroke-linecap="round" stroke-miterlimit="8" width="48.703" height="49.15"/>
		<text transform="matrix(1 0 0 1 94.3379 131.5918)" font-family="'ArialMT'" font-size="32.5581">N</text>
	</g>
	<g id="mod1" display="inline">
		
			<rect x="113.148" y="161.739" fill="none" stroke="#000000" stroke-width="2.0349" stroke-linecap="round" stroke-miterlimit="8" width="172.352" height="60.761"/>
		<text transform="matrix(1 0 0 1 121.6211 204.6113)" font-family="'ArialMT'" font-size="36">Modifier 1</text>
	</g>
	<g id="varH" display="inline">
		
			<rect x="174.5" y="34.5" fill="none" stroke="#000000" stroke-width="2.0349" stroke-linecap="round" stroke-miterlimit="8" width="55.462" height="49.698"/>
		<text transform="matrix(1 0 0 1 189.6523 69.1396)" font-family="'ArialMT'" font-size="32.5581">H</text>
	</g>
</g>
<g id="example" display="none">
	<g id="varAe" display="inline">
		<path fill="#00A651" d="M128.39,171.513c-13.799,0-24.984,10.191-24.984,22.76c0,12.572,11.186,22.759,24.984,22.759
			c13.797,0,24.983-10.188,24.983-22.759C153.373,181.704,142.188,171.513,128.39,171.513L128.39,171.513z"/>
		<path fill="#00A651" d="M200.39,170.513c-13.799,0-24.984,10.191-24.984,22.76c0,12.572,11.186,22.759,24.984,22.759
			c13.797,0,24.983-10.188,24.983-22.759C225.373,180.704,214.188,170.513,200.39,170.513L200.39,170.513z"/>
		<path fill="#00A651" d="M273.464,170.046c-12.937,0-23.423,10.294-23.423,22.992c0,12.7,10.486,22.994,23.423,22.994
			s23.422-10.294,23.422-22.994C296.886,180.34,286.398,170.046,273.464,170.046L273.464,170.046z"/>
		
			<line fill="none" stroke="#009966" stroke-width="5" stroke-linejoin="round" stroke-miterlimit="8" x1="286.962" y1="177.127" x2="300.35" y2="162.575"/>
		
			<line fill="none" stroke="#009966" stroke-width="5" stroke-linejoin="round" stroke-miterlimit="8" x1="260.188" y1="177.127" x2="246.802" y2="162.575"/>
	</g>
	<g display="inline">
		
			<path fill="none" stroke="#00A750" stroke-width="5.4331" stroke-linecap="round" stroke-linejoin="round" stroke-miterlimit="10" d="
			M195.951,118.865c34.328-1.161,89.678-17.114,108.297,5.248c18.617,22.344,39.128,107.79,3.438,128.829
			c-35.688,21.041-182.689,17.744-217.566-2.604c-34.897-20.328-9.421-97.45,8.222-119.366
			C115.979,109.056,161.644,120.004,195.951,118.865"/>
		<g>
			<polygon fill="#FFFFFF" points="183.762,249.361 183.762,281.92 216.32,281.92 216.32,249.361 			"/>
			<text transform="matrix(1 0 0 1 188.6768 279.1348)" fill="#00A24F" font-family="'ArialMT'" font-size="32.5581">M</text>
		</g>
		<g>
			<polygon fill="#FFFFFF" points="183.762,102.849 183.762,135.407 216.32,135.407 216.32,102.849 			"/>
			<text transform="matrix(1 0 0 1 188.6768 132.623)" fill="#00A24F" font-family="'ArialMT'" font-size="32.5581">M</text>
		</g>
		<g>
			<polygon fill="#FFFFFF" points="307.218,159.825 307.218,192.385 339.775,192.385 339.775,159.825 			"/>
			<text transform="matrix(1 0 0 1 312.0625 189.6211)" fill="#00A24F" font-family="'ArialMT'" font-size="32.5581">M</text>
		</g>
		<g>
			<polygon fill="#FFFFFF" points="57.032,176.105 57.032,208.664 89.59,208.664 89.59,176.105 			"/>
			<text transform="matrix(1 0 0 1 61.8779 205.8789)" fill="#00A24F" font-family="'ArialMT'" font-size="32.5581">M</text>
		</g>
	</g>
</g>
</svg>
