<?xml version="1.0" encoding="utf-8"?>
<!-- Generator: Adobe Illustrator 16.0.0, SVG Export Plug-In . SVG Version: 6.00 Build 0)  -->
<!DOCTYPE svg PUBLIC "-//W3C//DTD SVG 1.1//EN" "http://www.w3.org/Graphics/SVG/1.1/DTD/svg11.dtd">
<svg version="1.1" id="Version_1.0" xmlns="http://www.w3.org/2000/svg" xmlns:xlink="http://www.w3.org/1999/xlink" x="0px"
	 y="0px" width="400px" height="400px" viewBox="0 0 400 400" enable-background="new 0 0 400 400" xml:space="preserve">
<g id="main">
	<line fill="none" stroke="#000000" stroke-width="5" x1="146.75" y1="208.354" x2="337.5" y2="208.354"/>
	<line fill="none" stroke="#000000" stroke-width="5" x1="337.5" y1="96.353" x2="337.5" y2="320.354"/>
</g>
<g id="template" display="none">
	<g display="inline">
		<g>
			<g>
				<line fill="none" stroke="#000000" stroke-width="2" x1="64.5" y1="208.354" x2="125.147" y2="208.354"/>
				<g>
					<polygon points="122.229,218.326 139.5,208.354 122.229,198.381 					"/>
				</g>
			</g>
		</g>
		<text transform="matrix(1 0 0 1 11.6665 214.5195)" font-family="sans-serif" font-size="21">PT 3</text>
	</g>
	<g display="inline">
		<g>
			<g>
				<line fill="none" stroke="#000000" stroke-width="2" x1="240.917" y1="319.354" x2="318.481" y2="319.354"/>
				<g>
					<polygon points="315.563,329.326 332.834,319.354 315.563,309.381 					"/>
				</g>
			</g>
		</g>
		<text transform="matrix(1 0 0 1 192.417 324.7695)" font-family="sans-serif" font-size="21">PT 2</text>
	</g>
	<g display="inline">
		<g>
			<g>
				<line fill="none" stroke="#000000" stroke-width="2" x1="241.167" y1="97.522" x2="318.481" y2="97.522"/>
				<g>
					<polygon points="315.563,107.495 332.834,97.522 315.563,87.549 					"/>
				</g>
			</g>
		</g>
		<text transform="matrix(1 0 0 1 189.417 103.6855)" font-family="sans-serif" font-size="21">PT 1</text>
	</g>
</g>
<g id="example" display="none">
	<g display="inline">
		<polygon fill-rule="evenodd" clip-rule="evenodd" fill="#969696" points="357.574,183.625 385.128,167.767 385.128,199.483 
			357.574,183.625 		"/>
		<polygon fill-rule="evenodd" clip-rule="evenodd" fill="#969696" points="357.574,151.908 385.128,136.05 385.128,167.767 
			357.574,151.908 		"/>
		<polygon fill-rule="evenodd" clip-rule="evenodd" fill="#969696" points="357.411,120.354 384.966,104.496 384.966,136.213 
			357.411,120.354 		"/>
	</g>
	<g display="inline">
		<polygon fill="none" stroke="#969696" stroke-width="5" stroke-linecap="round" stroke-miterlimit="8" points="348.659,207.088 
			348.659,318.744 394.854,318.744 394.854,207.088 348.659,207.088 		"/>
		<path fill-rule="evenodd" clip-rule="evenodd" fill="#808080" d="M371.755,220.195c-6.399,0-11.587,4.746-11.587,10.602
			c0,5.852,5.188,10.596,11.587,10.596c6.403,0,11.591-4.744,11.591-10.596C383.346,224.941,378.158,220.195,371.755,220.195
			L371.755,220.195z"/>
		<path fill-rule="evenodd" clip-rule="evenodd" fill="#808080" d="M371.755,252.236c-6.399,0-11.587,4.744-11.587,10.6
			c0,5.852,5.188,10.598,11.587,10.598c6.403,0,11.591-4.746,11.591-10.598C383.346,256.98,378.158,252.236,371.755,252.236
			L371.755,252.236z"/>
		<path fill-rule="evenodd" clip-rule="evenodd" fill="#808080" d="M371.755,284.275c-6.399,0-11.587,4.746-11.587,10.6
			s5.188,10.598,11.587,10.598c6.403,0,11.591-4.744,11.591-10.598S378.158,284.275,371.755,284.275L371.755,284.275z"/>
	</g>
	<polygon display="inline" fill-rule="evenodd" clip-rule="evenodd" fill="#FF8080" stroke="#808080" stroke-width="2" points="
		71.816,164.933 21.411,207.088 71.816,249.243 122.226,207.088 71.816,164.933 	"/>
	<g display="inline">
		<line fill="none" stroke="#00FF00" stroke-width="5" x1="146.75" y1="208.354" x2="337.5" y2="208.354"/>
		<line fill="none" stroke="#00FF00" stroke-width="5" x1="337.5" y1="96.353" x2="337.5" y2="320.354"/>
	</g>
</g>
</svg>
