<?xml version="1.0" encoding="utf-8"?>
<!-- Generator: Adobe Illustrator 16.0.0, SVG Export Plug-In . SVG Version: 6.00 Build 0)  -->
<!DOCTYPE svg PUBLIC "-//W3C//DTD SVG 1.1//EN" "http://www.w3.org/Graphics/SVG/1.1/DTD/svg11.dtd">
<svg version="1.1" id="Version_1.0" xmlns="http://www.w3.org/2000/svg" xmlns:xlink="http://www.w3.org/1999/xlink" x="0px"
	 y="0px" width="400px" height="400px" viewBox="0 0 400 400" enable-background="new 0 0 400 400" xml:space="preserve">
<g id="main">
	
		<path fill="none" stroke="#000000" stroke-width="5.4331" stroke-linecap="round" stroke-linejoin="round" stroke-miterlimit="10" d="
		M195.951,118.865c34.328-1.161,89.678-17.114,108.297,5.248c18.617,22.344,39.128,107.79,3.438,128.829
		c-35.691,21.041-182.692,17.744-217.569-2.604c-34.897-20.328-9.421-97.45,8.222-119.366
		C115.979,109.056,161.644,120.004,195.951,118.865"/>
	<g>
		<polygon fill="#FFFFFF" points="286.218,162.825 286.218,195.385 361.615,195.385 361.615,162.825 		"/>
		<text transform="matrix(1 0 0 1 291.0625 192.6211)" font-family="sans-serif" font-size="32.5581">UXO</text>
	</g>
	<g>
		<polygon fill="#FFFFFF" points="37.032,176.105 37.032,208.664 117.167,208.664 117.167,176.105 		"/>
		<text transform="matrix(1 0 0 1 41.8779 205.8789)" font-family="sans-serif" font-size="32.5581">UXO</text>
	</g>
</g>
</svg>
