<?xml version="1.0" encoding="utf-8"?>
<!-- Generator: Adobe Illustrator 16.0.0, SVG Export Plug-In . SVG Version: 6.00 Build 0)  -->
<!DOCTYPE svg PUBLIC "-//W3C//DTD SVG 1.1//EN" "http://www.w3.org/Graphics/SVG/1.1/DTD/svg11.dtd">
<svg version="1.1" id="Version_1.0" xmlns="http://www.w3.org/2000/svg" xmlns:xlink="http://www.w3.org/1999/xlink" x="0px"
	 y="0px" width="400px" height="400px" viewBox="0 0 400 400" enable-background="new 0 0 400 400" xml:space="preserve">
<g id="main">
	
		<rect x="65.192" y="184.659" fill="none" stroke="#000000" stroke-width="5" stroke-linecap="round" stroke-miterlimit="8" width="278.154" height="136.358"/>
	<path d="M118.22,228.218c-14.639,0-26.514,11.022-26.514,24.62c0,13.6,11.875,24.62,26.514,24.62
		c14.639,0,26.514-11.021,26.514-24.62C144.734,239.24,132.859,228.218,118.22,228.218"/>
	<path d="M204.26,228.218c-14.527,0-26.326,11.022-26.326,24.62c0,13.6,11.799,24.62,26.326,24.62
		c14.545,0,26.324-11.021,26.324-24.62C230.584,239.24,218.805,228.218,204.26,228.218"/>
	<path d="M290.316,228.218c-14.642,0-26.515,11.022-26.515,24.62c0,13.6,11.873,24.62,26.515,24.62
		c14.639,0,26.516-11.021,26.516-24.62C316.832,239.24,304.955,228.218,290.316,228.218"/>
	
		<polyline fill="none" stroke="#000000" stroke-width="5" stroke-linecap="round" stroke-linejoin="round" stroke-miterlimit="10" stroke-dasharray="20,20" points="
		65.192,184.659 205.146,80.049 343.346,184.659 	"/>
</g>
</svg>
