<?xml version="1.0" encoding="utf-8"?>
<!-- Generator: Adobe Illustrator 16.0.0, SVG Export Plug-In . SVG Version: 6.00 Build 0)  -->
<!DOCTYPE svg PUBLIC "-//W3C//DTD SVG 1.1//EN" "http://www.w3.org/Graphics/SVG/1.1/DTD/svg11.dtd">
<svg version="1.1" id="Version_1.0" xmlns="http://www.w3.org/2000/svg" xmlns:xlink="http://www.w3.org/1999/xlink" x="0px"
	 y="0px" width="400px" height="400px" viewBox="0 0 400 400" enable-background="new 0 0 400 400" xml:space="preserve">
<g id="main">
	<line fill="none" stroke="#000000" stroke-width="12" stroke-dasharray="100,25" x1="23" y1="146.5" x2="373" y2="146.5"/>
	<line fill="none" stroke="#000000" stroke-width="12" stroke-dasharray="100,25" x1="23" y1="272.5" x2="373" y2="272.5"/>
	<polyline fill="none" stroke="#000000" stroke-width="5.5958" points="184,106 214,128.545 184,151.091 214,173.637 184,196.183 
		214,218.729 184,241.273 214,263.818 184,286.364 214,308.91 	"/>
</g>
<g id="template" display="none">
	<g display="inline">
		<polyline fill="none" stroke="#000000" stroke-width="3" points="374,291 374,311 359,321 		"/>
		<polygon stroke="#000000" stroke-width="3" points="370,295 374,285 378,295 		"/>
		<text transform="matrix(1 0 0 1 303 331)" font-family="sans-serif" font-size="24">PT 2</text>
	</g>
	<g display="inline">
		<polyline fill="none" stroke="#000000" stroke-width="3" points="24,291 24,311 39,321 		"/>
		<polygon stroke="#000000" stroke-width="3" points="20,295 24,285 28,295 		"/>
		<text transform="matrix(1 0 0 1 44 331)" font-family="sans-serif" font-size="24">PT 1</text>
	</g>
	<g display="inline">
		<text transform="matrix(1 0 0 1 249 86)" font-family="sans-serif" font-size="24">PT 3</text>
		<line fill="none" stroke="#000000" stroke-width="3" x1="274" y1="131" x2="274" y2="96"/>
		<polygon stroke="#000000" stroke-width="3" points="270,126 274,136 278,126 		"/>
	</g>
</g>
<g id="example" display="none">
	<path display="inline" fill="none" stroke="#808080" stroke-width="5" stroke-linejoin="round" stroke-miterlimit="8" d="
		M94.995,335.704c-10.564-52.085-11.186-85.626-6.836-142.62c32.316-40.358,27.965-81.263,27.965-124.076"/>
	<path display="inline" fill="none" stroke="#808080" stroke-width="5" stroke-linejoin="round" stroke-miterlimit="8" d="
		M294.039,335.704c-10.566-52.085-11.188-85.626-6.839-142.62c32.315-40.358,27.967-81.263,27.967-124.076"/>
</g>
</svg>
