<?xml version="1.0" encoding="utf-8"?>
<!-- Generator: Adobe Illustrator 16.0.0, SVG Export Plug-In . SVG Version: 6.00 Build 0)  -->
<!DOCTYPE svg PUBLIC "-//W3C//DTD SVG 1.1//EN" "http://www.w3.org/Graphics/SVG/1.1/DTD/svg11.dtd">
<svg version="1.1" id="Version_1.0" xmlns="http://www.w3.org/2000/svg" xmlns:xlink="http://www.w3.org/1999/xlink" x="0px"
	 y="0px" width="400px" height="400px" viewBox="0 0 400 400" enable-background="new 0 0 400 400" xml:space="preserve">
<g id="main">
	<text transform="matrix(1 0 0 1 158.0552 167.9854)" font-family="sans-serif" font-size="34.0483">FREE</text>
	<polygon fill="none" stroke="#00FF00" stroke-width="5" points="360.041,173.999 333.5,188 361.347,209.506 363.479,267.482 
		333,285 364.747,301.973 366.752,356.5 306,356.5 289.5,324 275,356.5 221,356.5 204.629,322.5 189,356.5 136,356.5 120,323 
		102,356.5 50,356.5 50,265.5 85,250.04 50,231.5 50,171 85.5,155.5 50,136 50,29.5 110.644,47.024 119.5,85.5 142.252,56.157 
		193.774,71.045 202.5,110 227.096,80.673 275.723,94.725 285,132 307.922,104.029 358,118.5 	"/>
</g>
<g id="template" display="none">
	<g id="varW1" display="inline">
		
			<rect x="211.023" y="241.482" fill="none" stroke="#000000" stroke-width="2.128" stroke-linecap="round" stroke-miterlimit="8" width="69.797" height="55.604"/>
		<text transform="matrix(1 0 0 1 223.7598 278.9971)" font-family="sans-serif" font-size="29.9625">W1</text>
	</g>
	<g id="varW" display="inline">
		<text transform="matrix(1 0 0 1 192.4155 278.6416)" font-family="sans-serif" font-size="29.9625">-</text>
		
			<rect x="126.604" y="241.482" fill="none" stroke="#000000" stroke-width="2.128" stroke-linecap="round" stroke-miterlimit="8" width="57.606" height="55.604"/>
		<text transform="matrix(1 0 0 1 141.7183 278.9971)" font-family="sans-serif" font-size="29.9625">W</text>
	</g>
	<g id="varT" display="inline">
		
			<rect x="180.082" y="180.75" fill="none" stroke="#000000" stroke-width="2.128" stroke-linecap="round" stroke-miterlimit="8" width="49.094" height="52.498"/>
		<text transform="matrix(1 0 0 1 195.9297 220.7646)" font-family="sans-serif" font-size="31.3245">T</text>
	</g>
</g>
<g id="example" display="none">
	<text id="varW1e" transform="matrix(1 0 0 1 104.7188 294.9971)" display="inline" font-family="sans-serif" font-size="29.9625">030900ZNOV07</text>
	<text id="varWe" transform="matrix(1 0 0 1 104.7183 266.9971)" display="inline" font-family="sans-serif" font-size="29.9625">011730ZOCT07 –</text>
	<text id="varTe" transform="matrix(1 0 0 1 144.5684 220.7646)" display="inline" font-family="sans-serif" font-size="31.3245">2 EN BN</text>
</g>
</svg>
