<?xml version="1.0" encoding="utf-8"?>
<!-- Generator: Adobe Illustrator 16.0.0, SVG Export Plug-In . SVG Version: 6.00 Build 0)  -->
<!DOCTYPE svg PUBLIC "-//W3C//DTD SVG 1.1//EN" "http://www.w3.org/Graphics/SVG/1.1/DTD/svg11.dtd">
<svg version="1.1" id="Version_1.0" xmlns="http://www.w3.org/2000/svg" xmlns:xlink="http://www.w3.org/1999/xlink" x="0px"
	 y="0px" width="400px" height="400px" viewBox="0 0 400 400" enable-background="new 0 0 400 400" xml:space="preserve">
<g id="main" transform="translate(-60 -30) scale(1 1)">
	<ellipse fill="#FFFFFF" stroke="#000000" stroke-width="5" cx="264.063" cy="245.5" rx="162" ry="104.5"/>
	<g>
		<rect x="251.063" y="333" fill="#FFFFFF" stroke="#FFFFFF" width="30" height="26"/>
		<text transform="matrix(1 0 0 1 257.063 354)" font-family="sans-serif" font-size="24">M</text>
	</g>
	<g>
		<rect x="88.063" y="225" fill="#FFFFFF" stroke="#FFFFFF" width="30" height="26"/>
		<text transform="matrix(1 0 0 1 94.063 246)" font-family="sans-serif" font-size="24">M</text>
	</g>
	<g>
		<rect x="411.063" y="225" fill="#FFFFFF" stroke="#FFFFFF" width="30" height="26"/>
		<text transform="matrix(1 0 0 1 417.0625 246)" font-family="sans-serif" font-size="24">M</text>
	</g>
	<g>
		<rect x="251.063" y="127" fill="#FFFFFF" stroke="#FFFFFF" width="30" height="26"/>
		<text transform="matrix(1 0 0 1 257.063 148)" font-family="sans-serif" font-size="24">M</text>
	</g>
	<g>
		
			<rect x="110.067" y="283.003" transform="matrix(0.8663 0.4995 -0.4995 0.8663 165.9485 -23.0651)" fill="#FFFFFF" stroke="#FFFFFF" width="31.998" height="31"/>
		<text transform="matrix(0.8133 0.5818 -0.5818 0.8133 112.4858 300.3916)" font-family="sans-serif" font-size="24">X</text>
	</g>
	<g>
		
			<rect x="206.083" y="330.002" transform="matrix(0.994 0.1092 -0.1092 0.994 39.0557 -22.1846)" fill="#FFFFFF" stroke="#FFFFFF" width="31.998" height="30.998"/>
		<text transform="matrix(0.9983 0.0576 -0.0576 0.9983 213.1079 352.8242)" font-family="sans-serif" font-size="23.997">X</text>
	</g>
	<g>
		
			<rect x="145.06" y="304.991" transform="matrix(0.9502 0.3117 -0.3117 0.9502 109.1499 -34.9946)" fill="#FFFFFF" stroke="#FFFFFF" width="38.001" height="38.004"/>
		
			<rect x="157.089" y="312.983" transform="matrix(0.9295 0.3689 -0.3689 0.9295 133.368 -40.6827)" fill="#FFFFFF" stroke="#FFFFFF" width="32.004" height="31.005"/>
		<text transform="matrix(0.9295 0.3689 -0.3689 0.9295 162.1226 333.3789)" font-family="sans-serif" font-size="24">X</text>
	</g>
	<g>
		
			<rect x="105.061" y="177.992" transform="matrix(0.9295 0.3689 -0.3689 0.9295 79.916 -31.0123)" fill="#FFFFFF" stroke="#FFFFFF" width="32.003" height="31.003"/>
		<text transform="matrix(0.5507 -0.8347 0.8347 0.5507 124.7559 206.3833)" font-family="sans-serif" font-size="24">X</text>
	</g>
	<g>
		
			<rect x="201.066" y="129.986" transform="matrix(0.9295 0.3689 -0.3689 0.9295 68.9798 -69.8148)" fill="#FFFFFF" stroke="#FFFFFF" width="32.004" height="31.003"/>
		<text transform="matrix(0.977 -0.2131 0.2131 0.977 206.5986 157.1572)" font-family="sans-serif" font-size="24">X</text>
	</g>
	<g>
		
			<rect x="295.059" y="127.988" transform="matrix(0.9295 0.3689 -0.3689 0.9295 74.87 -104.6273)" fill="#FFFFFF" stroke="#FFFFFF" width="32.003" height="31.003"/>
		<text transform="matrix(0.9815 0.1915 -0.1915 0.9815 301.1797 151.4297)" font-family="sans-serif" font-size="24">X</text>
	</g>
	<g>
		
			<rect x="387.066" y="177.976" transform="matrix(0.9295 0.3689 -0.3689 0.9295 99.7955 -135.0392)" fill="#FFFFFF" stroke="#FFFFFF" width="32.004" height="31.003"/>
		<text transform="matrix(0.6936 0.7204 -0.7204 0.6936 389.4434 193.1025)" font-family="sans-serif" font-size="24">X</text>
	</g>
	<g>
		
			<rect x="400.082" y="257.967" transform="matrix(0.9295 0.3689 -0.3689 0.9295 130.2251 -134.2022)" fill="#FFFFFF" stroke="#FFFFFF" width="32.003" height="31.004"/>
		<text transform="matrix(0.5218 -0.853 0.853 0.5218 420.1777 287.3154)" font-family="sans-serif" font-size="23.9958">X</text>
	</g>
	<g>
		
			<rect x="361.048" y="298.99" transform="matrix(0.9295 0.3689 -0.3689 0.9295 142.6075 -116.9114)" fill="#FFFFFF" stroke="#FFFFFF" width="32.005" height="31.003"/>
		<text transform="matrix(0.7759 -0.6308 0.6308 0.7759 379.957 328.3652)" font-family="sans-serif" font-size="23.9976">X</text>
	</g>
	<g>
		
			<rect x="305.05" y="328.988" transform="matrix(0.9295 0.3689 -0.3689 0.9295 149.7216 -94.1371)" fill="#FFFFFF" stroke="#FFFFFF" width="32.003" height="31.002"/>
		<text transform="matrix(0.9363 -0.3513 0.3513 0.9363 316.1318 351.1016)" font-family="sans-serif" font-size="24.0002">X</text>
	</g>
	<polyline fill="none" stroke="#000000" stroke-width="4" stroke-dasharray="12,12" points="173.063,260 262.357,194.463 
		350.063,260 	"/>
</g>
<g id="template" display="none">
	<g id="varN_1_" transform="translate(105 -104)" display="inline">
		<rect x="185.063" y="223" fill="#FFFFFF" stroke="#000000" stroke-width="2" width="24" height="26"/>
		<text transform="matrix(1 0 0 1 187.0625 245)" font-family="sans-serif" font-size="24">N</text>
	</g>
	<g id="varN" transform="translate(19 108)" display="inline">
		<rect x="77.063" y="8" fill="#FFFFFF" stroke="#000000" stroke-width="2" width="24" height="26"/>
		<text transform="matrix(1 0 0 1 79.063 30)" font-family="sans-serif" font-size="24">N</text>
	</g>
</g>
<g id="example" display="none">
	<g id="varN_3_" transform="translate(105 -104)" display="inline">
		<rect x="185.063" y="223" fill="#FFFFFF" width="24" height="26"/>
		<text id="varNe_1_" transform="matrix(1 0 0 1 187.0625 245)" font-family="sans-serif" font-size="24">X</text>
	</g>
	<g id="varN_2_" transform="translate(19 108)" display="inline">
		<rect x="77.063" y="8" fill="#FFFFFF" width="24" height="26"/>
		<text id="varNe" transform="matrix(1 0 0 1 79.063 30)" font-family="sans-serif" font-size="24">X</text>
	</g>
</g>
</svg>
