<?xml version="1.0" encoding="utf-8"?>
<!-- Generator: Adobe Illustrator 16.0.0, SVG Export Plug-In . SVG Version: 6.00 Build 0)  -->
<!DOCTYPE svg PUBLIC "-//W3C//DTD SVG 1.1//EN" "http://www.w3.org/Graphics/SVG/1.1/DTD/svg11.dtd">
<svg version="1.1" id="Version_1.0" xmlns="http://www.w3.org/2000/svg" xmlns:xlink="http://www.w3.org/1999/xlink" x="0px"
	 y="0px" width="400px" height="400px" viewBox="0 0 400 400" enable-background="new 0 0 400 400" xml:space="preserve">
<g id="main">
	
		<path fill="none" stroke="#000000" stroke-width="4.4552" stroke-linecap="round" stroke-linejoin="round" stroke-miterlimit="10" d="
		M195.559,122.345c-47.221,0-85.483,38.261-85.483,85.433c0,47.19,38.263,85.436,85.483,85.436
		c47.225,0,85.484-38.242,85.484-85.436C281.043,160.606,242.783,122.345,195.559,122.345"/>
	
		<path fill="none" stroke="#000000" stroke-width="4.4552" stroke-linecap="round" stroke-linejoin="round" stroke-miterlimit="10" d="
		M195.559,149.043c-31.486,0-57.017,26.297-57.017,58.734c0,32.455,25.53,58.736,57.017,58.736
		c31.487,0,57.018-26.281,57.018-58.736C252.576,175.34,227.045,149.043,195.559,149.043"/>
	
		<path fill="none" stroke="#000000" stroke-width="4.4552" stroke-linecap="round" stroke-linejoin="round" stroke-miterlimit="10" d="
		M195.559,181.08c-15.752,0-28.532,11.964-28.532,26.697c0,14.753,12.78,26.697,28.532,26.697c15.77,0,28.535-11.944,28.535-26.697
		C224.094,193.044,211.328,181.08,195.559,181.08"/>
	<g>
		<polygon fill="#FFFFFF" points="211.293,189.54 211.293,221.578 232.771,221.578 232.771,189.54 		"/>
		<text transform="matrix(1 0 0 1 216.252 213.334)" font-family="sans-serif" font-size="21.0914">1</text>
	</g>
	<g>
		<polygon fill="#FFFFFF" points="240.779,189.54 240.779,221.578 262.137,221.578 262.137,189.54 		"/>
		<text transform="matrix(1 0 0 1 245.627 213.334)" font-family="sans-serif" font-size="21.0914">2</text>
	</g>
	<g>
		<polygon fill="#FFFFFF" points="270.146,189.54 270.146,221.578 291.506,221.578 291.506,189.54 		"/>
		<text transform="matrix(1 0 0 1 274.9844 213.334)" font-family="sans-serif" font-size="21.0914">3</text>
	</g>
</g>
<g id="template" display="none">
	<g display="inline">
		<text transform="matrix(1 0 0 1 293.9473 121.4727)" font-family="sans-serif" font-size="21.0914">PT 3</text>
		<path stroke="#000000" stroke-width="0.267" stroke-linejoin="bevel" stroke-miterlimit="10" d="M281.828,123.513l-15.486,10.279
			l-1.535-2.319l15.469-10.279L281.828,123.513L281.828,123.513z M271.131,136.961l-22.227,6.742l14.836-17.872L271.131,136.961
			L271.131,136.961z"/>
	</g>
	<g display="inline">
		<path stroke="#000000" stroke-width="0.267" stroke-linejoin="bevel" stroke-miterlimit="10" d="M196.895,80.746l0.148,46.721
			h-2.769l-0.167-46.721H196.895L196.895,80.746z M202.334,125.215l-6.607,22.275l-6.742-22.226L202.334,125.215L202.334,125.215z"
			/>
		<text transform="matrix(1 0 0 1 176.4653 78.7666)" font-family="sans-serif" font-size="21.0914">PT 2</text>
	</g>
	<g display="inline">
		<path stroke="#000000" stroke-width="0.267" stroke-linejoin="bevel" stroke-miterlimit="10" d="M100.381,110.698l60.587,60.588
			L159,173.254L98.412,112.65L100.381,110.698L100.381,110.698z M163.138,165.979l11.012,20.44l-20.457-10.996L163.138,165.979
			L163.138,165.979z"/>
		<text transform="matrix(1 0 0 1 73.4106 100.1465)" font-family="sans-serif" font-size="21.0914">PT 1</text>
	</g>
	<text transform="matrix(1 0 0 1 207.4229 356.0547)" display="inline" font-family="sans-serif" font-size="15.4848">POINT</text>
	<text transform="matrix(1 0 0 1 207.4229 337.4727)" display="inline" font-family="sans-serif" font-size="15.4848">CENTER</text>
	<path display="inline" stroke="#000000" stroke-width="0.267" stroke-linejoin="bevel" stroke-miterlimit="10" d="M237.043,315.089
		l-35.377-88.205l2.586-1.034l35.375,88.202L237.043,315.089L237.043,315.089z M197.595,230.923l-2.086-23.146l14.468,18.172
		L197.595,230.923L197.595,230.923z"/>
</g>
</svg>
