<?xml version="1.0" encoding="utf-8"?>
<!-- Generator: Adobe Illustrator 16.0.0, SVG Export Plug-In . SVG Version: 6.00 Build 0)  -->
<!DOCTYPE svg PUBLIC "-//W3C//DTD SVG 1.1//EN" "http://www.w3.org/Graphics/SVG/1.1/DTD/svg11.dtd">
<svg version="1.1" id="Version_1.0" xmlns="http://www.w3.org/2000/svg" xmlns:xlink="http://www.w3.org/1999/xlink" x="0px"
	 y="0px" width="400px" height="400px" viewBox="0 0 400 400" enable-background="new 0 0 400 400" xml:space="preserve">
<g id="main" transform="translate(-110 -110) scale(1.25 1.25)">
	<path fill="none" stroke="#000000" stroke-width="2" d="M101.681,234.966c-0.108-12.348,15.754-26.221,26.583-35.167
		c32.363-26.734,209.623-64.639,245-36c32.169,26.042,20.952,102.852,9,137c-40.401,115.43-282.561,12.413-280.561-65.909"/>
</g>
<g id="template" transform="translate(138 86)" display="none">
	<rect x="8.58" y="1.249" display="inline" fill="#FFFFFF" stroke="#000000" stroke-width="2" width="27.5" height="26.25"/>
	<text transform="matrix(1 0 0 1 18.5791 19.998)" display="inline" font-family="sans-serif" font-size="15">T</text>
</g>
<g id="example" display="none">
	
		<path display="inline" fill="none" stroke="#000000" stroke-width="5" stroke-linecap="round" stroke-linejoin="round" stroke-miterlimit="8" d="
		M149.726,119.921c-15.879,1.008-32.011-0.503-47.639,2.773c-3.276,0.756-3.024,6.301-5.544,8.317
		c-8.318,6.803-31.003,8.567-31.003,8.567c-2.772,1.765-5.292,4.034-8.318,5.544c-2.521,1.261-5.797,1.261-8.318,2.771
		c-19.157,11.341,9.075,0.505-14.115,8.317c-3.781,11.845-9.578,21.673-13.862,33.77c-2.016,5.543-4.033,11.089-5.797,16.632
		c-1.008,2.771-2.773,8.568-2.773,8.568c1.008,7.56,0.505,15.122,2.773,22.431c0.756,2.771,12.855,10.585,14.115,11.086
		c11.594,5.042,24.448,7.059,36.295,11.341c2.017,2.774,4.033,5.292,5.797,8.318c2.017,3.527,3.278,7.559,5.546,11.089
		c14.114,21.421,51.922,15.874,70.071,16.885c16.383,2.016,28.733,7.057,44.613,2.771c5.797-1.511,11.342-3.781,16.886-5.542
		c2.774-1.011,8.317-2.773,8.317-2.773c23.693-23.689,27.224-14.616,72.845-16.886c20.416-2.267,39.067-6.299,58.979-11.087
		c10.335-10.585,0.253-1.765,16.636-11.341c5.798-3.529,16.889-11.089,16.889-11.089c19.157-29.485,7.059-64.767-25.206-75.604
		c-15.375-23.184-16.636-38.558-47.638-42.085c-12.099-1.26-24.197-1.765-36.296-2.773c-25.96-5.04-48.646-9.072-75.616-11.088
		c-5.545,1.008-11.342,1.512-16.888,2.773C169.64,114.378,160.817,119.921,149.726,119.921L149.726,119.921z"/>
	
		<path display="inline" fill="none" stroke="#000000" stroke-width="5" stroke-linecap="round" stroke-linejoin="round" stroke-miterlimit="8" d="
		M281.301,150.676c-36.556-2.015-50.168-4.03-81.18-8.313c-19.665,1.008-39.33,1.261-58.995,2.771
		c-13.11,1.008-28.74,6.803-41.851,8.313c-6.554,2.017-13.865,2.267-19.665,5.795c-6.302,3.78-10.84,9.825-16.891,13.855
		c-1.009,2.772-1.26,5.795-2.773,8.314c-1.262,2.268-4.287,3.275-5.547,5.794c-2.521,5.291-3.782,11.085-5.547,16.628
		c-1.008,2.771-2.772,8.565-2.772,8.565c7.815,39.554,41.346,39.554,69.835,58.699c17.899-1.006,35.799-0.505,53.447-2.771
		c5.547-0.755,10.085-8.061,13.866-11.337c10.084-8.063,20.169-12.345,30.757-19.397c30.254,2.772,59.752,8.817,89.753,13.855
		c10.841-3.526,13.36-7.306,19.666-16.627c4.537-18.139,10.838-29.728,2.771-50.385c-1.511-4.031-7.562-3.78-11.343-5.795
		c-2.774-1.763-5.549-3.779-8.32-5.543c-3.531-10.581-2.271-19.146-14.118-22.422C288.865,149.669,285.082,150.676,281.301,150.676
		L281.301,150.676z"/>
	
		<path display="inline" fill="none" stroke="#000000" stroke-width="5" stroke-linecap="round" stroke-linejoin="round" stroke-miterlimit="8" d="
		M135.631,170.284c-12.1,1.008-24.705-0.756-36.302,2.772c-9.329,2.773-17.143,20.161-19.665,27.973
		c1.009,6.553,0.252,13.607,2.772,19.655c2.522,6.302,10.589,10.334,16.893,11.09c19.412,2.518,39.327,3.276,58.74,5.794
		c5.545-0.755,23.193-1.26,30.756-5.794c10.336-6.302,20.672-12.852,33.781-13.861c21.432-1.512,42.86-1.765,64.289-2.771
		c3.276-10.331,6.302-15.373,0-27.972c-0.254-0.757-16.388-5.04-19.667-5.797c-14.619-3.024-27.729-6.551-41.848-11.088
		c-8.32-2.771-16.892-5.543-25.21-8.315c-2.774-1.01-8.571-2.773-8.571-2.773c-9.329,1.008-18.658,1.26-27.985,2.773
		C149.75,163.985,153.027,170.284,135.631,170.284L135.631,170.284z"/>
	<g display="inline">
		<polygon fill-rule="evenodd" clip-rule="evenodd" fill="#FFFFFF" points="121.819,156.851 237.777,156.851 237.777,199.21 
			121.819,199.21 121.819,156.851 		"/>
		<text transform="matrix(1.0017 0 0 1 140.3291 185.6611)"><tspan x="0" y="0" font-family="sans-serif" font-size="24">30</tspan><tspan x="27.127" y="0" font-family="sans-serif" font-size="24">0</tspan><tspan x="39.659" y="0" font-family="sans-serif" font-size="24">c</tspan><tspan x="53.223" y="0" font-family="sans-serif" font-size="24">G</tspan><tspan x="71.987" y="0" font-family="sans-serif" font-size="24" letter-spacing="-0.998">y</tspan><tspan x="83.486" y="0" font-family="sans-serif" font-size="24"> </tspan></text>
	</g>
	<g display="inline">
		<polygon fill-rule="evenodd" clip-rule="evenodd" fill="#FFFFFF" points="124.445,124.563 244.27,124.563 244.27,166.923 
			124.445,166.923 124.445,124.563 		"/>
		<text transform="matrix(1.0017 0 0 1 140.3291 153.3613)"><tspan x="0" y="0" font-family="sans-serif" font-size="24">10</tspan><tspan x="27.127" y="0" font-family="sans-serif" font-size="24">0</tspan><tspan x="39.659" y="0" font-family="sans-serif" font-size="24">c</tspan><tspan x="53.223" y="0" font-family="sans-serif" font-size="24">G</tspan><tspan x="71.987" y="0" font-family="sans-serif" font-size="24" letter-spacing="-0.998">y</tspan><tspan x="83.486" y="0" font-family="sans-serif" font-size="24"> </tspan><tspan x="89.77" y="0" font-family="sans-serif" font-size="24"> </tspan></text>
	</g>
	<g display="inline">
		<polygon fill-rule="evenodd" clip-rule="evenodd" fill="#FFFFFF" points="133.428,92.551 237.361,92.551 237.361,132.842 
			133.428,132.842 133.428,92.551 		"/>
		<text transform="matrix(1.0017 0 0 1 152.0742 121.04)"><tspan x="0" y="0" font-family="sans-serif" font-size="24">30</tspan><tspan x="27.127" y="0" font-family="sans-serif" font-size="24">c</tspan><tspan x="39.659" y="0" font-family="sans-serif" font-size="24">G</tspan><tspan x="58.423" y="0" font-family="sans-serif" font-size="24">y</tspan></text>
	</g>
</g>
</svg>
