<?xml version="1.0" encoding="utf-8"?>
<!-- Generator: Adobe Illustrator 16.0.0, SVG Export Plug-In . SVG Version: 6.00 Build 0)  -->
<!DOCTYPE svg PUBLIC "-//W3C//DTD SVG 1.1//EN" "http://www.w3.org/Graphics/SVG/1.1/DTD/svg11.dtd">
<svg version="1.1" id="Version_1.0" xmlns="http://www.w3.org/2000/svg" xmlns:xlink="http://www.w3.org/1999/xlink" x="0px"
	 y="0px" width="400px" height="400px" viewBox="0 0 400 400" enable-background="new 0 0 400 400" xml:space="preserve">
<g id="main" transform="translate(-60 -30) scale(1 1)">
	<ellipse fill="#FFFFFF" stroke="#000000" stroke-width="5" cx="264.063" cy="245.5" rx="162.002" ry="104.5"/>
	<g>
		<rect x="251.063" y="333" fill="#FFFFFF" stroke="#FFFFFF" width="30" height="26"/>
		<text transform="matrix(1 0 0 1 257.063 354)" font-family="sans-serif" font-size="24">M</text>
	</g>
	<g>
		<rect x="88.063" y="225" fill="#FFFFFF" stroke="#FFFFFF" width="30" height="26"/>
		<text transform="matrix(1 0 0 1 94.063 246)" font-family="sans-serif" font-size="24">M</text>
	</g>
	<g>
		<rect x="411.063" y="225" fill="#FFFFFF" stroke="#FFFFFF" width="30" height="26"/>
		<text transform="matrix(1 0 0 1 417.0625 246)" font-family="sans-serif" font-size="24">M</text>
	</g>
	<g>
		<rect x="251.063" y="127" fill="#FFFFFF" stroke="#FFFFFF" width="30" height="26"/>
		<text transform="matrix(1 0 0 1 257.063 148)" font-family="sans-serif" font-size="24">M</text>
	</g>
	<g>
		
			<rect x="110.054" y="283.002" transform="matrix(0.8663 0.4995 -0.4995 0.8663 165.9567 -23.0576)" fill="#FFFFFF" stroke="#FFFFFF" width="31.998" height="30.999"/>
		<text transform="matrix(0.8133 0.5818 -0.5818 0.8133 112.4858 300.3916)" font-family="sans-serif" font-size="24">X</text>
	</g>
	<g>
		
			<rect x="206.082" y="330.004" transform="matrix(0.994 0.1092 -0.1092 0.994 39.0583 -22.1857)" fill="#FFFFFF" stroke="#FFFFFF" width="31.997" height="30.997"/>
		<text transform="matrix(0.9983 0.0576 -0.0576 0.9983 213.1094 352.8242)" font-family="sans-serif" font-size="23.995">X</text>
	</g>
	<g>
		
			<rect x="145.051" y="304.991" transform="matrix(0.9502 0.3117 -0.3117 0.9502 109.1484 -34.9918)" fill="#FFFFFF" stroke="#FFFFFF" width="38.002" height="38.007"/>
		
			<rect x="157.079" y="312.984" transform="matrix(0.9295 0.3689 -0.3689 0.9295 133.3827 -40.6811)" fill="#FFFFFF" stroke="#FFFFFF" width="32.006" height="31.006"/>
		<text transform="matrix(0.9295 0.3689 -0.3689 0.9295 162.1226 333.3789)" font-family="sans-serif" font-size="24">X</text>
	</g>
	<g>
		
			<rect x="105.061" y="177.991" transform="matrix(0.9295 0.3689 -0.3689 0.9295 79.9187 -31.0132)" fill="#FFFFFF" stroke="#FFFFFF" width="32.005" height="31.005"/>
		<text transform="matrix(0.5507 -0.8347 0.8347 0.5507 124.7559 206.3833)" font-family="sans-serif" font-size="24">X</text>
	</g>
	<g>
		
			<rect x="201.067" y="129.983" transform="matrix(0.9295 0.3689 -0.3689 0.9295 68.9777 -69.8144)" fill="#FFFFFF" stroke="#FFFFFF" width="32.006" height="31.005"/>
		<text transform="matrix(0.977 -0.2131 0.2131 0.977 206.5986 157.1572)" font-family="sans-serif" font-size="24">X</text>
	</g>
	<g>
		
			<rect x="295.057" y="127.988" transform="matrix(0.9295 0.3689 -0.3689 0.9295 74.8683 -104.6249)" fill="#FFFFFF" stroke="#FFFFFF" width="32.005" height="31.005"/>
		<text transform="matrix(0.9815 0.1915 -0.1915 0.9815 301.1797 151.4297)" font-family="sans-serif" font-size="24">X</text>
	</g>
	<g>
		
			<rect x="387.064" y="177.976" transform="matrix(0.9295 0.3689 -0.3689 0.9295 99.7976 -135.0404)" fill="#FFFFFF" stroke="#FFFFFF" width="32.006" height="31.005"/>
		<text transform="matrix(0.6936 0.7204 -0.7204 0.6936 389.4434 193.1025)" font-family="sans-serif" font-size="24">X</text>
	</g>
	<g>
		
			<rect x="400.069" y="257.974" transform="matrix(0.9295 0.3689 -0.3689 0.9295 130.218 -134.1907)" fill="#FFFFFF" stroke="#FFFFFF" width="32.005" height="31.006"/>
		<text transform="matrix(0.5218 -0.853 0.853 0.5218 420.1777 287.3154)" font-family="sans-serif" font-size="23.993">X</text>
	</g>
	<g>
		
			<rect x="361.051" y="298.987" transform="matrix(0.9295 0.3689 -0.3689 0.9295 142.6098 -116.9147)" fill="#FFFFFF" stroke="#FFFFFF" width="32.008" height="31.005"/>
		<text transform="matrix(0.7759 -0.6308 0.6308 0.7759 379.9551 328.3662)" font-family="sans-serif" font-size="23.996">X</text>
	</g>
	<g>
		
			<rect x="305.049" y="328.988" transform="matrix(0.9295 0.3689 -0.3689 0.9295 149.7241 -94.1381)" fill="#FFFFFF" stroke="#FFFFFF" width="32.005" height="31.003"/>
		<text transform="matrix(0.9363 -0.3513 0.3513 0.9363 316.1309 351.0996)" font-family="sans-serif" font-size="24.0018">X</text>
	</g>
</g>
<g id="template" display="none">
	<g id="varN_1_" transform="translate(105 -104)" display="inline">
		<rect x="185.063" y="223" fill="#FFFFFF" stroke="#000000" stroke-width="2" width="24.002" height="26"/>
		<text transform="matrix(1 0 0 1 187.0625 245)" font-family="sans-serif" font-size="24">N</text>
	</g>
	<g id="varN" transform="translate(19 108)" display="inline">
		<rect x="77.063" y="8" fill="#FFFFFF" stroke="#000000" stroke-width="2" width="24" height="26"/>
		<text transform="matrix(1 0 0 1 79.063 30)" font-family="sans-serif" font-size="24">N</text>
	</g>
	<g id="mod1" transform="translate(19 108)" display="inline">
		<rect x="109.029" y="77" fill="#FFFFFF" stroke="#000000" stroke-width="2" width="148.471" height="45"/>
		<text transform="matrix(1 0 0 1 132.1084 106.5)" font-family="sans-serif" font-size="24">Modifier 1</text>
	</g>
</g>
<g id="example" display="none">
	<g id="varN_3_" transform="translate(105 -104)" display="inline">
		<rect x="185.063" y="223" fill="#FFFFFF" width="24.002" height="26"/>
		<text id="varNe_1_" transform="matrix(1 0 0 1 187.0625 245)" font-family="sans-serif" font-size="24">X</text>
	</g>
	<g id="varN_2_" transform="translate(19 108)" display="inline">
		<rect x="77.063" y="8" fill="#FFFFFF" width="24" height="26"/>
		<text id="varNe" transform="matrix(1 0 0 1 79.063 30)" font-family="sans-serif" font-size="24">X</text>
	</g>
	<g id="varAe" display="inline">
		<path fill="#231F20" d="M272.135,183.932c-14.801,0-26.799,10.968-26.799,24.5c0,13.531,11.998,24.5,26.799,24.5
			c14.805,0,26.803-10.969,26.803-24.5C298.938,194.9,286.938,183.932,272.135,183.932L272.135,183.932z"/>
		<path fill="#231F20" d="M121.231,183.932c-14.803,0-26.8,10.968-26.8,24.5c0,13.531,11.998,24.5,26.8,24.5
			c14.802,0,26.802-10.969,26.802-24.5C148.033,194.9,136.034,183.932,121.231,183.932L121.231,183.932z"/>
		<path fill="#231F20" d="M195.686,183.932c-14.806,0-26.803,10.968-26.803,24.5c0,13.531,11.998,24.5,26.803,24.5
			c14.8,0,26.798-10.969,26.798-24.5C222.482,194.9,210.484,183.932,195.686,183.932L195.686,183.932z"/>
	</g>
</g>
</svg>
