<?xml version="1.0" encoding="utf-8"?>
<!-- Generator: Adobe Illustrator 16.0.0, SVG Export Plug-In . SVG Version: 6.00 Build 0)  -->
<!DOCTYPE svg PUBLIC "-//W3C//DTD SVG 1.1//EN" "http://www.w3.org/Graphics/SVG/1.1/DTD/svg11.dtd">
<svg version="1.1" id="Version_1.0" xmlns="http://www.w3.org/2000/svg" xmlns:xlink="http://www.w3.org/1999/xlink" x="0px"
	 y="0px" width="400px" height="400px" viewBox="0 0 400 400" enable-background="new 0 0 400 400" xml:space="preserve">
<g id="main">
	
		<rect x="56.219" y="119.088" fill="none" stroke="#000000" stroke-width="5" stroke-linecap="round" stroke-miterlimit="8" width="289.521" height="139.076"/>
</g>
<g id="template" display="none">
	<g id="varW" display="inline">
		
			<rect x="169.5" y="268.529" fill="none" stroke="#000000" stroke-width="2.585" stroke-linecap="round" stroke-miterlimit="8" width="59" height="52.971"/>
		<text transform="matrix(1 0 0 1 181.7949 312.9238)" font-family="sans-serif" font-size="42">W</text>
	</g>
	<g id="varA" display="inline">
		
			<rect x="169.5" y="158.5" fill="none" stroke="#000000" stroke-width="2.585" stroke-linecap="round" stroke-miterlimit="8" width="59" height="58"/>
		<text transform="matrix(1 0 0 1 185.7563 203.5039)" font-family="sans-serif" font-size="42">A</text>
	</g>
	<g id="varH" display="inline">
		
			<rect x="169.5" y="52.5" fill="none" stroke="#000000" stroke-width="2.585" stroke-linecap="round" stroke-miterlimit="8" width="59" height="57.221"/>
		<text transform="matrix(1 0 0 1 185.5977 98.0547)" font-family="sans-serif" font-size="42">H</text>
	</g>
</g>
<g id="example" display="none">
	<g id="varAe" display="inline">
		<path fill-rule="evenodd" clip-rule="evenodd" d="M292.135,172.932c-14.801,0-26.799,10.968-26.799,24.5
			c0,13.531,11.998,24.499,26.799,24.499c14.804,0,26.802-10.968,26.802-24.499C318.937,183.9,306.938,172.932,292.135,172.932
			L292.135,172.932z"/>
		
			<line fill="none" stroke="#000000" stroke-width="5" stroke-linejoin="round" stroke-miterlimit="8" x1="251.936" y1="152.863" x2="292.135" y2="192.999"/>
		
			<line fill="none" stroke="#000000" stroke-width="5" stroke-linejoin="round" stroke-miterlimit="8" x1="332.337" y1="152.863" x2="292.135" y2="192.999"/>
		<path fill-rule="evenodd" clip-rule="evenodd" d="M111.231,172.932c-14.803,0-26.8,10.968-26.8,24.5
			c0,13.531,11.998,24.499,26.8,24.499s26.802-10.968,26.802-24.499C138.033,183.9,126.034,172.932,111.231,172.932L111.231,172.932
			z"/>
		
			<line fill="none" stroke="#000000" stroke-width="5" stroke-linejoin="round" stroke-miterlimit="8" x1="71.03" y1="152.863" x2="111.231" y2="192.999"/>
		
			<line fill="none" stroke="#000000" stroke-width="5" stroke-linejoin="round" stroke-miterlimit="8" x1="151.432" y1="152.863" x2="111.231" y2="192.999"/>
		<path fill-rule="evenodd" clip-rule="evenodd" d="M201.685,172.932c-14.805,0-26.802,10.968-26.802,24.5
			c0,13.531,11.998,24.499,26.802,24.499c14.801,0,26.799-10.968,26.799-24.499C228.483,183.9,216.485,172.932,201.685,172.932
			L201.685,172.932z"/>
		
			<line fill="none" stroke="#000000" stroke-width="5" stroke-linejoin="round" stroke-miterlimit="8" x1="161.481" y1="152.863" x2="201.685" y2="192.999"/>
		
			<line fill="none" stroke="#000000" stroke-width="5" stroke-linejoin="round" stroke-miterlimit="8" x1="241.884" y1="152.863" x2="201.685" y2="192.999"/>
	</g>
	<text id="varWe" transform="matrix(1 0 0 1 56.1973 305.9238)" display="inline" font-family="sans-serif" font-size="41.3602">032400ZJUL07</text>
	<text id="varHe" transform="matrix(1 0 0 1 174.8931 102.0547)" display="inline" font-family="sans-serif" font-size="41.3602">+S</text>
</g>
</svg>
