<?xml version="1.0" encoding="utf-8"?>
<!-- Generator: Adobe Illustrator 16.0.0, SVG Export Plug-In . SVG Version: 6.00 Build 0)  -->
<!DOCTYPE svg PUBLIC "-//W3C//DTD SVG 1.1//EN" "http://www.w3.org/Graphics/SVG/1.1/DTD/svg11.dtd">
<svg version="1.1" id="Version_1.0" xmlns="http://www.w3.org/2000/svg" xmlns:xlink="http://www.w3.org/1999/xlink" x="0px"
	 y="0px" width="400px" height="400px" viewBox="0 0 400 400" enable-background="new 0 0 400 400" xml:space="preserve">
<g id="main" transform="translate(-410 -400) scale(2.5 2.5)">
	<g>
		<g>
			<path fill="none" stroke="#000000" stroke-width="5" d="M204.6,192.6c49.678-2.258,93.925,42.4,99.2,88.904"/>
			<g>
				<polygon points="288.697,277.237 303.4,302.6 318.016,277.187 				"/>
			</g>
		</g>
	</g>
</g>
<g id="template" display="none">
	<g display="inline">
		<g>
			<line fill="none" stroke="#000000" stroke-width="2" x1="101.808" y1="100.125" x2="101.75" y2="130"/>
			<g>
				<polygon points="92.537,107.128 101.802,103.213 111.052,107.164 101.837,85.2 				"/>
			</g>
		</g>
	</g>
	<g display="inline">
		<g>
			<polyline fill="none" stroke="#000000" stroke-width="2" points="331.021,358.103 312.998,358.703 284.5,346.5 			"/>
			<g>
				<polygon points="323.695,349.084 327.935,358.205 324.313,367.589 345.938,357.605 				"/>
			</g>
		</g>
	</g>
	<text transform="matrix(1 0 0 1 74.3359 155.4229)" display="inline" font-family="sans-serif" font-size="28">PT 2</text>
	<g display="inline">
		<g>
			<line fill="none" stroke="#000000" stroke-width="2" x1="262.034" y1="168.754" x2="236.26" y2="189.405"/>
			<g>
				<polygon points="250.767,165.92 259.624,170.686 262.344,180.37 273.682,159.423 				"/>
			</g>
		</g>
	</g>
	<text transform="matrix(1 0 0 1 248.7705 342.3545)" display="inline" font-family="sans-serif" font-size="28">PT 1</text>
	<text transform="matrix(1 0 0 1 205.3359 215.9043)" display="inline" font-family="sans-serif" font-size="28">PT 3</text>
</g>
<g id="example" display="none">
	<g display="inline">
		<g>
			<path fill="none" stroke="#00FF00" stroke-width="5" d="M103,82c128.17-4.287,233.188,110.865,246.682,220.688"/>
			<g>
				<polygon fill="#00FF00" points="311.055,291.764 348.5,356.5 385.85,291.708 				"/>
			</g>
		</g>
	</g>
	<polygon display="inline" fill="#FF8080" stroke="#808080" stroke-width="2" stroke-miterlimit="8" points="49.57,36.1 5,73.407 
		49.57,110.71 94.141,73.407 	"/>
	<g display="inline">
		<polygon fill="#808080" points="297.374,142.329 320.533,129.021 320.533,155.639 		"/>
		<polygon fill="#808080" points="297.374,115.78 320.533,102.538 320.533,129.021 		"/>
		<polygon fill="#808080" points="297.374,89.229 320.533,75.92 320.533,102.538 		"/>
	</g>
	<g display="inline">
		<polygon fill="none" stroke="#808080" stroke-width="1.9971" stroke-linecap="round" stroke-miterlimit="8" points="
			243.297,14.322 243.297,108.155 281.941,108.155 281.941,14.322 		"/>
		<path fill="#808080" d="M262.62,25.344c-5.317,0-9.628,4.002-9.628,8.94s4.311,8.94,9.628,8.94s9.628-4.002,9.628-8.94
			S267.938,25.344,262.62,25.344L262.62,25.344z"/>
		<path fill="#808080" d="M262.62,52.231c-5.317,0-9.628,4.003-9.628,8.939c0,4.938,4.311,8.939,9.628,8.939
			s9.628-4.002,9.628-8.939C272.248,56.234,267.938,52.231,262.62,52.231L262.62,52.231z"/>
		<path fill="#808080" d="M262.62,79.118c-5.317,0-9.628,4.002-9.628,8.939c0,4.938,4.311,8.94,9.628,8.94s9.628-4.002,9.628-8.94
			C272.248,83.12,267.938,79.118,262.62,79.118L262.62,79.118z"/>
	</g>
	<g display="inline">
		<polygon fill="#808080" points="328.659,196.945 351.818,183.639 351.818,210.256 		"/>
		<polygon fill="#808080" points="328.659,170.397 351.818,157.155 351.818,183.639 		"/>
		<polygon fill="#808080" points="328.659,143.846 351.818,130.538 351.818,157.155 		"/>
	</g>
	<g display="inline">
		<polygon fill="none" stroke="#808080" stroke-width="1.9971" stroke-linecap="round" stroke-miterlimit="8" points="
			358.219,193.155 358.219,286.854 397,286.854 397,193.155 		"/>
		<path fill="#808080" d="M377.609,204.043c-5.354,0-9.695,4.002-9.695,8.941c0,4.938,4.342,8.938,9.695,8.938
			c5.354,0,9.692-4.002,9.692-8.938C387.303,208.045,382.965,204.043,377.609,204.043L377.609,204.043z"/>
		<path fill="#808080" d="M377.609,230.93c-5.354,0-9.695,4.002-9.695,8.939s4.342,8.939,9.695,8.939
			c5.354,0,9.692-4.002,9.692-8.939S382.965,230.93,377.609,230.93L377.609,230.93z"/>
		<path fill="#808080" d="M377.609,257.818c-5.354,0-9.695,4.002-9.695,8.938c0,4.938,4.342,8.939,9.695,8.939
			c5.354,0,9.692-4.002,9.692-8.939C387.303,261.82,382.965,257.818,377.609,257.818L377.609,257.818z"/>
	</g>
</g>
</svg>
