<?xml version="1.0" encoding="utf-8"?>
<!-- Generator: Adobe Illustrator 16.0.0, SVG Export Plug-In . SVG Version: 6.00 Build 0)  -->
<!DOCTYPE svg PUBLIC "-//W3C//DTD SVG 1.1//EN" "http://www.w3.org/Graphics/SVG/1.1/DTD/svg11.dtd">
<svg version="1.1" id="Version_1.0" xmlns="http://www.w3.org/2000/svg" xmlns:xlink="http://www.w3.org/1999/xlink" x="0px"
	 y="0px" width="612px" height="792px" viewBox="0 0 612 792" enable-background="new 0 0 612 792" xml:space="preserve">
<g id="main">
	
		<rect x="241.587" y="138.604" fill="none" stroke="#000000" stroke-width="4" stroke-linecap="round" stroke-miterlimit="8" width="128.229" height="170.972"/>
	<text transform="matrix(1 0 0 1 266.5645 186.4688)" font-family="sans-serif" font-size="36">DCN</text>
	<text transform="matrix(1 0 0 1 277.5596 229.6689)" font-family="sans-serif" font-size="36">E/T</text>
	<polygon fill="none" stroke="#000000" stroke-width="4" stroke-linecap="round" stroke-miterlimit="8" points="305.701,396.256 
		241.587,310.771 369.815,310.771 	"/>
</g>
<g id="template" display="none">
	<g id="varW1" display="inline">
		
			<rect x="191.826" y="180.085" fill="none" stroke="#000000" stroke-width="4" stroke-linecap="round" stroke-miterlimit="8" width="49.993" height="42.513"/>
		<text transform="matrix(1 0 0 1 197.9272 211.5244)" font-family="sans-serif" font-size="24">W1</text>
	</g>
	<g id="varW" display="inline">
		<text transform="matrix(1 0 0 1 226.98 169.0586)" font-family="sans-serif" font-size="23.6512">-</text>
		<polygon fill="none" stroke="#000000" stroke-width="4" stroke-linecap="round" stroke-miterlimit="8" points="191.826,137.822 
			191.826,180.316 223.72,179.844 224.72,139 		"/>
		<text transform="matrix(1 0 0 1 197.9272 169.0586)" font-family="sans-serif" font-size="24">W</text>
	</g>
	<g id="varT1" display="inline">
		
			<rect x="277.454" y="231.193" fill="none" stroke="#000000" stroke-width="4" stroke-linecap="round" stroke-miterlimit="8" width="53.832" height="53.197"/>
		<text transform="matrix(1 0 0 1 293.6699 268.5537)" font-family="sans-serif" font-size="24">T1</text>
	</g>
	<g id="varT" display="inline">
		
			<rect x="370.635" y="138.822" fill="none" stroke="#000000" stroke-width="4" stroke-linecap="round" stroke-miterlimit="8" width="56.637" height="53.179"/>
		<text transform="matrix(1 0 0 1 388.8262 170.9307)" font-family="sans-serif" font-size="24">T</text>
	</g>
	<g id="varH" display="inline">
		<text transform="matrix(1 0 0 1 296.5117 117.207)" font-family="sans-serif" font-size="24">H</text>
		
			<rect x="278.381" y="84.982" fill="none" stroke="#000000" stroke-width="4" stroke-linecap="round" stroke-miterlimit="8" width="56.634" height="53.197"/>
	</g>
	<g id="points" display="inline">
		<text transform="matrix(1 0 0 1 376.3359 419.8975)" font-family="sans-serif" font-size="23.6512">POINT</text>
		<text transform="matrix(1 0 0 1 376.3359 392.2559)" font-family="sans-serif" font-size="23.6512">ANCHOR</text>
		<path stroke="#000000" stroke-width="4" stroke-linejoin="bevel" stroke-miterlimit="10" d="M369.815,397.2h-35.62
			c-0.658,0-1.191-0.517-1.191-1.176c0-0.658,0.533-1.192,1.191-1.192h35.62c0.66,0,1.192,0.534,1.192,1.192
			C371.008,396.684,370.476,397.2,369.815,397.2L369.815,397.2z M336.566,403.148l-23.741-7.124l23.741-7.124V403.148z"/>
	</g>
</g>
<g id="example" display="none">
	<text transform="matrix(1 0 0 1 90.9272 165.0586)" display="inline" font-family="sans-serif" font-size="18">030200ZOCT08 -</text>
	<text transform="matrix(1 0 0 1 90.9272 186.6582)" display="inline" font-family="sans-serif" font-size="18">050700ZOCT08  </text>
	<text id="varT1e" transform="matrix(1 0 0 1 282.334 268.5537)" display="inline" font-family="sans-serif" font-size="24">DEU</text>
	<text id="varTe" transform="matrix(1 0 0 1 383.8262 170.9307)" display="inline" font-family="sans-serif" font-size="24">MND(S)</text>
	<text transform="matrix(1 0 0 1 218.8501 102.207)" display="inline" font-family="sans-serif" font-size="24">CONTRACTOR</text>
	<text transform="matrix(1 0 0 1 237.5 131.0068)" display="inline" font-family="sans-serif" font-size="24">OPERATED</text>
</g>
</svg>
