<?xml version="1.0" encoding="utf-8"?>
<!-- Generator: Adobe Illustrator 16.0.0, SVG Export Plug-In . SVG Version: 6.00 Build 0)  -->
<!DOCTYPE svg PUBLIC "-//W3C//DTD SVG 1.1//EN" "http://www.w3.org/Graphics/SVG/1.1/DTD/svg11.dtd">
<svg version="1.1" id="Version_1.0" xmlns="http://www.w3.org/2000/svg" xmlns:xlink="http://www.w3.org/1999/xlink" x="0px"
	 y="0px" width="612px" height="792px" viewBox="0 0 612 792" enable-background="new 0 0 612 792" xml:space="preserve">
<g id="main">
	
		<rect x="244.313" y="334.505" fill="none" stroke="#000000" stroke-width="5.3627" stroke-linecap="round" stroke-miterlimit="8" width="128.544" height="128.546"/>
	
		<line fill="none" stroke="#000000" stroke-width="5.3627" stroke-linejoin="round" stroke-miterlimit="10" x1="244.313" y1="463.051" x2="212.175" y2="495.188"/>
	
		<line fill="none" stroke="#000000" stroke-width="5.3627" stroke-linejoin="round" stroke-miterlimit="10" x1="372.856" y1="463.051" x2="404.994" y2="495.188"/>
	
		<line fill="none" stroke="#000000" stroke-width="5.3627" stroke-linejoin="round" stroke-miterlimit="10" x1="212.175" y1="302.369" x2="244.313" y2="334.505"/>
	
		<line fill="none" stroke="#000000" stroke-width="5.3627" stroke-linejoin="round" stroke-miterlimit="10" x1="404.994" y1="302.369" x2="372.856" y2="334.505"/>
</g>
<g id="template" display="none">
	<text transform="matrix(1 0 0 1 440.5186 388.5366)" display="inline" font-family="sans-serif" font-size="24">C</text>
	<text transform="matrix(1 0 0 1 457.8027 388.5366)" display="inline" font-family="sans-serif" font-size="24">E</text>
	<text transform="matrix(1 0 0 1 473.8105 388.5366)" display="inline" font-family="sans-serif" font-size="24">N</text>
	<text transform="matrix(1 0 0 1 491.0947 388.5366)" display="inline" font-family="sans-serif" font-size="24">T</text>
	<text transform="matrix(1 0 0 1 505.8027 388.5366)" display="inline" font-family="sans-serif" font-size="24">E</text>
	<text transform="matrix(1 0 0 1 521.8105 388.5366)" display="inline" font-family="sans-serif" font-size="24">R</text>
	<text transform="matrix(1 0 0 1 440.5186 417.3359)" display="inline" font-family="sans-serif" font-size="24">POINT </text>
	<path display="inline" stroke="#000000" stroke-width="0.3214" stroke-linejoin="bevel" stroke-miterlimit="10" d="
		M448.557,398.171H328.045v-5.342h120.512V398.171L448.557,398.171z M330.738,403.533l-26.795-8.033l26.795-8.034V403.533
		L330.738,403.533z"/>
</g>
</svg>
