<?xml version="1.0" encoding="utf-8"?>
<!-- Generator: Adobe Illustrator 16.0.0, SVG Export Plug-In . SVG Version: 6.00 Build 0)  -->
<!DOCTYPE svg PUBLIC "-//W3C//DTD SVG 1.1//EN" "http://www.w3.org/Graphics/SVG/1.1/DTD/svg11.dtd">
<svg version="1.1" id="Version_1.0" xmlns="http://www.w3.org/2000/svg" xmlns:xlink="http://www.w3.org/1999/xlink" x="0px"
	 y="0px" width="612px" height="792px" viewBox="0 0 612 792" enable-background="new 0 0 612 792" xml:space="preserve">
<g id="main">
	
		<rect x="241.869" y="137.849" fill="none" stroke="#000000" stroke-width="4" stroke-linecap="round" stroke-miterlimit="8" width="128.229" height="170.972"/>
	<text transform="matrix(1 0 0 1 266.8457 185.7129)" font-family="sans-serif" font-size="36">DCN</text>
	<text transform="matrix(1 0 0 1 272.8306 228.9131)" font-family="sans-serif" font-size="36">ALT</text>
	<polygon fill="none" stroke="#000000" stroke-width="4" stroke-linecap="round" stroke-miterlimit="8" points="305.982,395.5 
		241.869,310.015 370.097,310.015 	"/>
</g>
<g id="template" display="none">
	<g id="varW1" display="inline">
		
			<rect x="192.107" y="179.33" fill="none" stroke="#000000" stroke-width="4" stroke-linecap="round" stroke-miterlimit="8" width="49.993" height="42.513"/>
		<text transform="matrix(1 0 0 1 198.2085 210.7686)" font-family="sans-serif" font-size="24">W1</text>
	</g>
	<g id="varW" display="inline">
		<text transform="matrix(1 0 0 1 227.2612 168.3027)" font-family="sans-serif" font-size="23.6512">-</text>
		<polygon fill="none" stroke="#000000" stroke-width="4" stroke-linecap="round" stroke-miterlimit="8" points="192.107,137.066 
			192.107,179.561 224.001,179.088 225.001,138.244 		"/>
		<text transform="matrix(1 0 0 1 198.2085 168.3027)" font-family="sans-serif" font-size="24">W</text>
	</g>
	<g id="varT1" display="inline">
		
			<rect x="277.735" y="230.438" fill="none" stroke="#000000" stroke-width="4" stroke-linecap="round" stroke-miterlimit="8" width="53.832" height="53.197"/>
		<text transform="matrix(1 0 0 1 293.9512 267.7979)" font-family="sans-serif" font-size="24">T1</text>
	</g>
	<g id="varT" display="inline">
		
			<rect x="370.916" y="138.066" fill="none" stroke="#000000" stroke-width="4" stroke-linecap="round" stroke-miterlimit="8" width="56.637" height="53.179"/>
		<text transform="matrix(1 0 0 1 389.1074 170.1748)" font-family="sans-serif" font-size="24">T</text>
	</g>
	<g id="varH" display="inline">
		<text transform="matrix(1 0 0 1 296.793 116.4512)" font-family="sans-serif" font-size="24">H</text>
		
			<rect x="278.663" y="84.227" fill="none" stroke="#000000" stroke-width="4" stroke-linecap="round" stroke-miterlimit="8" width="56.634" height="53.197"/>
	</g>
	<g id="points" display="inline">
		<text transform="matrix(1 0 0 1 376.6172 419.1416)" font-family="sans-serif" font-size="23.6512">POINT</text>
		<text transform="matrix(1 0 0 1 376.6172 391.5)" font-family="sans-serif" font-size="23.6512">ANCHOR</text>
		<path stroke="#000000" stroke-width="2" stroke-linejoin="bevel" stroke-miterlimit="10" d="M370.097,396.444h-35.62
			c-0.658,0-1.191-0.517-1.191-1.176c0-0.658,0.533-1.192,1.191-1.192h35.62c0.66,0,1.192,0.534,1.192,1.192
			C371.289,395.928,370.757,396.444,370.097,396.444L370.097,396.444z M336.848,402.393l-23.741-7.124l23.741-7.124V402.393z"/>
	</g>
</g>
<g id="example" display="none">
	<text transform="matrix(1 0 0 1 91.2085 164.3027)" display="inline" font-family="sans-serif" font-size="18">030200ZOCT08 -</text>
	<text transform="matrix(1 0 0 1 91.2085 185.9023)" display="inline" font-family="sans-serif" font-size="18">050700ZOCT08  </text>
	<text id="varT1e" transform="matrix(1 0 0 1 277.2656 267.7979)" display="inline" font-family="sans-serif" font-size="24">6AAB</text>
	<text id="varTe" transform="matrix(1 0 0 1 389.1074 170.1748)" display="inline" font-family="sans-serif" font-size="24">8A</text>
	<text id="varHe" transform="matrix(1 0 0 1 296.793 116.4512)" display="inline" font-family="sans-serif" font-size="24">5</text>
</g>
</svg>
