<?xml version="1.0" encoding="utf-8"?>
<!-- Generator: Adobe Illustrator 16.0.0, SVG Export Plug-In . SVG Version: 6.00 Build 0)  -->
<!DOCTYPE svg PUBLIC "-//W3C//DTD SVG 1.1//EN" "http://www.w3.org/Graphics/SVG/1.1/DTD/svg11.dtd">
<svg version="1.1" id="Version_1.0" xmlns="http://www.w3.org/2000/svg" xmlns:xlink="http://www.w3.org/1999/xlink" x="0px"
	 y="0px" width="612px" height="792px" viewBox="0 0 612 792" enable-background="new 0 0 612 792" xml:space="preserve">
<g id="main">
	<polygon fill="none" stroke="#000000" stroke-width="5" stroke-linecap="round" stroke-miterlimit="8" points="306.299,394.762 
		379.885,277.062 232.714,277.062 	"/>
	<g>
		<path stroke="#000000" stroke-width="1.1654" d="M285.541,306.355c-3.894,0-7.046,4.143-7.046,9.229
			c0,5.11,3.152,9.229,7.046,9.229c3.895,0,7.045-4.119,7.045-9.229C292.586,310.499,289.436,306.355,285.541,306.355"/>
		<path fill="none" stroke="#000000" stroke-width="5.1568" stroke-linejoin="round" stroke-miterlimit="10" d="M286.541,308.351
			c16.783,0,30.381,17.71,30.381,39.537"/>
		<path fill="none" stroke="#000000" stroke-width="5.1568" stroke-linejoin="round" stroke-miterlimit="10" d="M329.03,308.351
			c-16.784,0-30.38,17.71-30.38,39.537"/>
		<path stroke="#000000" stroke-width="1.135" d="M329.805,306.103c-3.77,0-6.818,4.059-6.818,9.043
			c0,5.007,3.052,9.043,6.818,9.043c3.771,0,6.82-4.037,6.82-9.043C336.625,310.162,333.575,306.103,329.805,306.103"/>
	</g>
	<text transform="matrix(1 0 0 1 299.3965 304.5615)" font-family="sans-serif" font-size="28">C</text>
</g>
<g id="template" display="none">
	<g id="varW" display="inline">
		
			<rect x="169.363" y="277.062" fill="none" stroke="#000000" stroke-width="1.9314" stroke-linecap="round" stroke-miterlimit="8" width="54.851" height="46.103"/>
		<text transform="matrix(1 0 0 1 181.9551 309.2285)" font-family="sans-serif" font-size="28">W</text>
	</g>
	<g id="varT" display="inline">
		
			<rect x="173.497" y="375.947" fill="none" stroke="#000000" stroke-width="1.9314" stroke-linecap="round" stroke-miterlimit="8" width="46.605" height="46.105"/>
		<text transform="matrix(1 0 0 1 185.2842 408.1133)" font-family="sans-serif" font-size="28">T</text>
	</g>
	<g id="varH" display="inline">
		
			<rect x="386.199" y="277.062" fill="none" stroke="#000000" stroke-width="1.9314" stroke-linecap="round" stroke-miterlimit="8" width="49.194" height="46.103"/>
		<text transform="matrix(1 0 0 1 402.3037 309.2285)" font-family="sans-serif" font-size="28">H</text>
	</g>
	<g id="varN" display="inline">
		
			<rect x="386.199" y="375.947" fill="none" stroke="#000000" stroke-width="1.9314" stroke-linecap="round" stroke-miterlimit="8" width="49.194" height="46.105"/>
		<text transform="matrix(1 0 0 1 402.3037 408.1133)" font-family="sans-serif" font-size="28">N</text>
	</g>
	<g id="varQ_2_" display="inline">
		
			<rect x="281.899" y="492.947" fill="none" stroke="#000000" stroke-width="1.9314" stroke-linecap="round" stroke-miterlimit="8" width="46.605" height="46.104"/>
		<text id="Q_1_" transform="matrix(1 0 0 1 293.5352 525.9814)" font-family="sans-serif" font-size="28">Q</text>
	</g>
	<g id="varY" display="inline">
		
			<rect x="281.656" y="437.755" fill="none" stroke="#000000" stroke-width="1.9314" stroke-linecap="round" stroke-miterlimit="8" width="48.014" height="46.104"/>
		<text transform="matrix(1 0 0 1 296.208 469.8994)" font-family="sans-serif" font-size="28">Y</text>
	</g>
	<g id="varC" display="inline">
		
			<rect x="281.133" y="218.619" fill="none" stroke="#000000" stroke-width="1.9314" stroke-linecap="round" stroke-miterlimit="8" width="49.193" height="46.083"/>
		<text transform="matrix(1 0 0 1 294.1328 250.5039)" font-family="sans-serif" font-size="28">C</text>
	</g>
	<g display="inline">
		<g>
			
				<line fill="none" stroke="#000000" stroke-width="4" stroke-linejoin="bevel" x1="223.617" y1="472.899" x2="290.547" y2="414.778"/>
			<polygon points="291.469,428.691 287.748,417.208 276.9,411.915 304.07,403.036 			"/>
		</g>
		<text transform="matrix(1 0 0 1 126.5474 464.0205)" enable-background="new    "><tspan x="0" y="0" font-family="sans-serif" font-size="23.1768">ANCHOR </tspan><tspan x="14.808" y="27.813" font-family="sans-serif" font-size="23.1768">POINT</tspan></text>
	</g>
</g>
<g id="example" display="none">
	<g id="varQe" display="inline">
		
			<line fill="none" stroke="#000000" stroke-width="3" stroke-linecap="round" stroke-linejoin="round" stroke-miterlimit="10" x1="306.286" y1="440.196" x2="306.402" y2="489.642"/>
		<path stroke="#000000" stroke-width="0.309" stroke-linejoin="bevel" stroke-miterlimit="10" d="M306.286,488.366l63.351,0.098
			c0.72,0,1.297,0.578,1.273,1.275c0,0.715-0.56,1.293-1.273,1.293l-63.351-0.096c-0.715,0-1.295-0.581-1.295-1.296
			C304.991,488.946,305.571,488.366,306.286,488.366L306.286,488.366z M367.067,482.014l25.744,7.765l-25.766,7.688L367.067,482.014
			z"/>
	</g>
	<text id="varYe" transform="matrix(1 0 0 1 222.8086 437.8994)" display="inline" font-family="sans-serif" font-size="28">HS10211948</text>
	<text id="varCe" transform="matrix(1 0 0 1 296.457 250.5039)" display="inline" font-family="sans-serif" font-size="28">3</text>
	<text id="varTe" transform="matrix(1 0 0 1 125.708 398.1133)" display="inline" font-family="sans-serif" font-size="24">CANNISTER</text>
	<text transform="matrix(1 0 0 1 384.3037 298.2285)" display="inline" font-family="sans-serif" font-size="24">NERVE</text>
	<text transform="matrix(1 0 0 1 384.3037 327.0283)" display="inline" font-family="sans-serif" font-size="24">AGENT</text>
	<text id="varNe" transform="matrix(1 0 0 1 378.3037 397.1133)" display="inline" font-family="sans-serif" font-size="24">ENY</text>
	<text id="varWe" transform="matrix(1 0 0 1 93.2949 305.2285)" display="inline" font-family="sans-serif" font-size="20">300700ZJUN08</text>
</g>
</svg>
