<?xml version="1.0" encoding="utf-8"?>
<!-- Generator: Adobe Illustrator 16.0.0, SVG Export Plug-In . SVG Version: 6.00 Build 0)  -->
<!DOCTYPE svg PUBLIC "-//W3C//DTD SVG 1.1//EN" "http://www.w3.org/Graphics/SVG/1.1/DTD/svg11.dtd">
<svg version="1.1" id="Version_1.0" xmlns="http://www.w3.org/2000/svg" xmlns:xlink="http://www.w3.org/1999/xlink" x="0px"
	 y="0px" width="612px" height="792px" viewBox="0 0 612 792" enable-background="new 0 0 612 792" xml:space="preserve">
<g id="main">
	<polygon fill="none" stroke="#000000" stroke-width="5" stroke-linecap="round" stroke-miterlimit="8" points="305.5,394.762 
		379.086,277.062 231.916,277.062 	"/>
	<text transform="matrix(1 0 0 1 297.5977 378.2295)" font-family="sans-serif" font-size="28">T</text>
	<g>
		<path stroke="#000000" stroke-width="1.1654" d="M284.742,306.355c-3.893,0-7.045,4.143-7.045,9.229
			c0,5.11,3.152,9.229,7.045,9.229c3.895,0,7.045-4.119,7.045-9.229C291.787,310.499,288.637,306.355,284.742,306.355"/>
		<path fill="none" stroke="#000000" stroke-width="5.1568" stroke-linejoin="round" stroke-miterlimit="10" d="M285.743,308.351
			c16.783,0,30.38,17.71,30.38,39.537"/>
		<path fill="none" stroke="#000000" stroke-width="5.1568" stroke-linejoin="round" stroke-miterlimit="10" d="M328.231,308.351
			c-16.784,0-30.38,17.71-30.38,39.537"/>
		<path stroke="#000000" stroke-width="1.135" d="M329.006,306.103c-3.77,0-6.819,4.059-6.819,9.043
			c0,5.007,3.052,9.043,6.819,9.043c3.771,0,6.82-4.037,6.82-9.043C335.826,310.162,332.776,306.103,329.006,306.103"/>
	</g>
	<text transform="matrix(1 0 0 1 298.5977 304.5615)" font-family="sans-serif" font-size="28">B</text>
</g>
<g id="template" display="none">
	<g id="varW" display="inline">
		
			<rect x="168.564" y="277.062" fill="none" stroke="#000000" stroke-width="1.9314" stroke-linecap="round" stroke-miterlimit="8" width="54.851" height="46.103"/>
		<text transform="matrix(1 0 0 1 181.1563 309.2285)" font-family="sans-serif" font-size="28">W</text>
	</g>
	<g id="varT" display="inline">
		
			<rect x="172.698" y="375.947" fill="none" stroke="#000000" stroke-width="1.9314" stroke-linecap="round" stroke-miterlimit="8" width="46.605" height="46.105"/>
		<text transform="matrix(1 0 0 1 184.4854 408.1133)" font-family="sans-serif" font-size="28">T</text>
	</g>
	<g id="varH" display="inline">
		
			<rect x="385.4" y="277.062" fill="none" stroke="#000000" stroke-width="1.9314" stroke-linecap="round" stroke-miterlimit="8" width="49.195" height="46.103"/>
		<text transform="matrix(1 0 0 1 401.5049 309.2285)" font-family="sans-serif" font-size="28">H</text>
	</g>
	<g id="varN" display="inline">
		
			<rect x="385.4" y="375.947" fill="none" stroke="#000000" stroke-width="1.9314" stroke-linecap="round" stroke-miterlimit="8" width="49.195" height="46.105"/>
		<text transform="matrix(1 0 0 1 401.5049 408.1133)" font-family="sans-serif" font-size="28">N</text>
	</g>
	<g id="varY" display="inline">
		
			<rect x="280.857" y="437.755" fill="none" stroke="#000000" stroke-width="1.9314" stroke-linecap="round" stroke-miterlimit="8" width="48.014" height="46.103"/>
		<text transform="matrix(1 0 0 1 295.4092 469.8994)" font-family="sans-serif" font-size="28">Y</text>
	</g>
	<g id="varC" display="inline">
		
			<rect x="280.333" y="218.619" fill="none" stroke="#000000" stroke-width="1.9314" stroke-linecap="round" stroke-miterlimit="8" width="49.194" height="46.083"/>
		<text transform="matrix(1 0 0 1 293.334 250.5039)" font-family="sans-serif" font-size="28">C</text>
	</g>
	<g display="inline">
		<g id="varQ">
			
				<line fill="none" stroke="#000000" stroke-width="3" stroke-linecap="round" stroke-linejoin="round" stroke-miterlimit="10" x1="302.487" y1="487.196" x2="302.604" y2="536.642"/>
			<path stroke="#000000" stroke-width="0.309" stroke-linejoin="bevel" stroke-miterlimit="10" d="M302.487,535.366l63.351,0.098
				c0.719,0,1.297,0.578,1.273,1.275c0,0.715-0.559,1.293-1.273,1.293l-63.351-0.095c-0.715,0-1.295-0.582-1.295-1.296
				C301.192,535.946,301.772,535.366,302.487,535.366L302.487,535.366z M363.269,529.014l25.745,7.764l-25.766,7.688
				L363.269,529.014z"/>
			<text id="Q" transform="matrix(1 0 0 1 394.0996 544.9814)" font-family="sans-serif" font-size="28">Q</text>
		</g>
		<text transform="matrix(1 0 0 1 127.5645 490.833)" font-family="sans-serif" font-size="23.1768">POINT</text>
		<text transform="matrix(1 0 0 1 127.5645 463.0205)" font-family="sans-serif" font-size="23.1768">ANCHOR</text>
		<g>
			<g>
				
					<line fill="none" stroke="#000000" stroke-width="4" stroke-linejoin="bevel" x1="223.416" y1="471.899" x2="290.346" y2="413.778"/>
				<g>
					<polygon points="291.268,427.691 287.547,416.208 276.7,410.915 303.869,402.036 					"/>
				</g>
			</g>
		</g>
	</g>
</g>
<g id="example" display="none">
	<g id="varQ_1_" display="inline">
		
			<line fill="none" stroke="#000000" stroke-width="3" stroke-linecap="round" stroke-linejoin="round" stroke-miterlimit="10" x1="305.487" y1="440.196" x2="305.604" y2="489.642"/>
		<path stroke="#000000" stroke-width="0.309" stroke-linejoin="bevel" stroke-miterlimit="10" d="M305.487,488.366l63.351,0.098
			c0.719,0,1.297,0.578,1.273,1.275c0,0.715-0.559,1.293-1.273,1.293l-63.351-0.095c-0.715,0-1.295-0.582-1.295-1.296
			C304.192,488.946,304.772,488.366,305.487,488.366L305.487,488.366z M366.269,482.014l25.745,7.764l-25.766,7.688L366.269,482.014
			z"/>
	</g>
	<text id="varYe" transform="matrix(1 0 0 1 222.0098 437.8994)" display="inline" font-family="sans-serif" font-size="28">DT03071952</text>
	<text id="varCe" transform="matrix(1 0 0 1 295.6582 250.5039)" display="inline" font-family="sans-serif" font-size="28">1</text>
	<text id="varTe" transform="matrix(1 0 0 1 151.8936 397.1133)" display="inline" font-family="sans-serif" font-size="24">LETTER</text>
	<text transform="matrix(1 0 0 1 370.5049 306.2285)" display="inline" font-family="sans-serif" font-size="24">ANTHRAX</text>
	<text id="varNe" transform="matrix(1 0 0 1 377.5049 397.1133)" display="inline" font-family="sans-serif" font-size="24">ENY</text>
	<text id="varWe" transform="matrix(1 0 0 1 92.4961 305.2285)" display="inline" font-family="sans-serif" font-size="20">211400ZNOV07</text>
</g>
</svg>
