<?xml version="1.0" encoding="utf-8"?>
<!-- Generator: Adobe Illustrator 16.0.0, SVG Export Plug-In . SVG Version: 6.00 Build 0)  -->
<!DOCTYPE svg PUBLIC "-//W3C//DTD SVG 1.1//EN" "http://www.w3.org/Graphics/SVG/1.1/DTD/svg11.dtd">
<svg version="1.1" id="Version_1.0" xmlns="http://www.w3.org/2000/svg" xmlns:xlink="http://www.w3.org/1999/xlink" x="0px"
	 y="0px" width="612px" height="792px" viewBox="0 0 612 792" enable-background="new 0 0 612 792" xml:space="preserve">
<g id="main">
	
		<g transform="translate(-133.735 -1.80723) translate(145 350) scale(0.344828 0.344828) translate(-145 -350) translate(-6.98795 -143.253)">
		<polygon fill="none" stroke="#000000" stroke-width="5" stroke-linejoin="round" points="480.686,797.91 510.686,497.911 
			540.686,797.91 510.686,722.912 		"/>
		<line fill="none" stroke="#000000" stroke-width="5" x1="496.686" y1="632.911" x2="523.686" y2="632.911"/>
		
			<line fill="none" stroke="#000000" stroke-width="5" stroke-linecap="round" x1="460.686" y1="530.912" x2="560.687" y2="530.912"/>
		<line fill="none" stroke="#000000" stroke-width="5" x1="518.686" y1="531.909" x2="600.686" y2="727.911"/>
		<path fill="none" stroke="#000000" stroke-width="5" stroke-linecap="round" d="M460.686,530.912l-5,6.998v10"/>
		<path fill="none" stroke="#000000" stroke-width="5" stroke-linecap="round" d="M560.687,530.912l5,6.998v10"/>
	</g>
	
		<g transform="translate(96.988 4.81928) translate(145 350) scale(0.34 0.34) translate(-145 -350) translate(0 -14.1743) translate(0 -2.94118) translate(0 -2.94118) translate(287.03 -145.287)">
		<polygon fill="none" stroke="#000000" stroke-width="5" stroke-linejoin="round" points="485.096,804.272 515.1,504.272 
			545.097,804.272 515.1,729.272 		"/>
		<line fill="none" stroke="#000000" stroke-width="5" x1="501.1" y1="639.27" x2="528.099" y2="639.27"/>
		<line fill="none" stroke="#000000" stroke-width="5" stroke-linecap="round" x1="465.1" y1="537.271" x2="565.1" y2="537.271"/>
		<line fill="none" stroke="#000000" stroke-width="5" x1="523.096" y1="538.27" x2="605.099" y2="734.272"/>
		<path fill="none" stroke="#000000" stroke-width="5" stroke-linecap="round" d="M465.1,537.271l-5.003,7.001v10"/>
		<path fill="none" stroke="#000000" stroke-width="5" stroke-linecap="round" d="M565.1,537.271l4.998,7.001v10"/>
	</g>
	<line fill="none" stroke="#000000" stroke-width="3" x1="167.133" y1="394.452" x2="447.133" y2="394.452"/>
</g>
<g id="points" display="none">
	<text transform="matrix(1 0 0 1 134.9546 305.9522)" display="inline" font-family="sans-serif" font-size="24">For use on maps of all scales</text>
	<text transform="matrix(1 0 0 1 174.314 507.8975)" display="inline" font-family="sans-serif" font-size="24">PT. 1</text>
	<text transform="matrix(1 0 0 1 370.5996 508.0518)" display="inline" font-family="sans-serif" font-size="24">PT. 2</text>
	<g transform="translate(-128 156)" display="inline">
		<line fill="none" stroke="#000000" stroke-width="3" x1="273.133" y1="307.452" x2="297.133" y2="334.452"/>
		<polygon stroke="#000000" stroke-width="5" points="268.595,302.223 271.133,309.452 275.287,305.684 		"/>
	</g>
	<g transform="matrix(-1 0 0 1 515.139 156) translate(0 1)" display="inline">
		<line fill="none" stroke="#000000" stroke-width="3" x1="58.867" y1="307.452" x2="82.867" y2="334.452"/>
		<polygon stroke="#000000" stroke-width="5" points="54.328,302.223 56.867,309.452 61.02,305.684 		"/>
	</g>
</g>
<g id="example" display="none">
	
		<g transform="translate(-133.735 -1.80723) translate(145 350) scale(0.344828 0.344828) translate(-145 -350) translate(-6.98795 -143.253)" display="inline">
		<polygon fill="none" stroke="#000000" stroke-width="5" stroke-linejoin="round" points="480.686,913.91 510.686,613.91 
			540.686,913.91 510.686,838.912 		"/>
		<line fill="none" stroke="#000000" stroke-width="5" x1="496.686" y1="748.91" x2="523.686" y2="748.91"/>
		
			<line fill="none" stroke="#000000" stroke-width="5" stroke-linecap="round" x1="460.686" y1="646.912" x2="560.687" y2="646.912"/>
		<line fill="none" stroke="#000000" stroke-width="5" x1="518.686" y1="647.909" x2="600.686" y2="843.911"/>
		<path fill="none" stroke="#000000" stroke-width="5" stroke-linecap="round" d="M460.686,646.912l-5,6.998v10"/>
		<path fill="none" stroke="#000000" stroke-width="5" stroke-linecap="round" d="M560.687,646.912l5,6.998v10"/>
	</g>
	
		<g transform="translate(96.988 4.81928) translate(145 350) scale(0.34 0.34) translate(-145 -350) translate(0 -14.1743) translate(0 -2.94118) translate(0 -2.94118) translate(287.03 -145.287)" display="inline">
		<polygon fill="none" stroke="#000000" stroke-width="5" stroke-linejoin="round" points="485.096,804.272 515.1,504.272 
			545.097,804.272 515.1,729.272 		"/>
		<line fill="none" stroke="#000000" stroke-width="5" x1="501.1" y1="639.27" x2="528.099" y2="639.27"/>
		<line fill="none" stroke="#000000" stroke-width="5" stroke-linecap="round" x1="465.1" y1="537.271" x2="565.1" y2="537.271"/>
		<line fill="none" stroke="#000000" stroke-width="5" x1="523.096" y1="538.27" x2="605.099" y2="734.272"/>
		<path fill="none" stroke="#000000" stroke-width="5" stroke-linecap="round" d="M465.1,537.271l-5.003,7.001v10"/>
		<path fill="none" stroke="#000000" stroke-width="5" stroke-linecap="round" d="M565.1,537.271l4.998,7.001v10"/>
	</g>
	
		<g transform="translate(96.988 4.81928) translate(145 350) scale(0.34 0.34) translate(-145 -350) translate(0 -14.1743) translate(0 -2.94118) translate(0 -2.94118) translate(287.03 -145.287)" display="inline">
		<polygon fill="none" stroke="#000000" stroke-width="5" stroke-linejoin="round" points="-10.084,447.054 19.919,147.054 
			49.917,447.054 19.919,372.054 		"/>
		<line fill="none" stroke="#000000" stroke-width="5" x1="5.92" y1="282.052" x2="32.919" y2="282.052"/>
		
			<line fill="none" stroke="#000000" stroke-width="5" stroke-linecap="round" x1="-30.081" y1="180.053" x2="69.919" y2="180.053"/>
		<line fill="none" stroke="#000000" stroke-width="5" x1="27.916" y1="181.052" x2="109.918" y2="377.054"/>
		<path fill="none" stroke="#000000" stroke-width="5" stroke-linecap="round" d="M-30.081,180.053l-5.003,7.001v10"/>
		<path fill="none" stroke="#000000" stroke-width="5" stroke-linecap="round" d="M69.919,180.053l4.998,7.001v10"/>
	</g>
	<line display="inline" fill="none" stroke="#000000" stroke-width="3" x1="327.65" y1="274.48" x2="448.412" y2="404.109"/>
	<line display="inline" fill="none" stroke="#000000" stroke-width="3" x1="156.5" y1="429.775" x2="280.051" y2="301.5"/>
</g>
</svg>
