<?xml version="1.0" encoding="utf-8"?>
<!-- Generator: Adobe Illustrator 16.0.0, SVG Export Plug-In . SVG Version: 6.00 Build 0)  -->
<!DOCTYPE svg PUBLIC "-//W3C//DTD SVG 1.1//EN" "http://www.w3.org/Graphics/SVG/1.1/DTD/svg11.dtd">
<svg version="1.1" id="Version_1.0" xmlns="http://www.w3.org/2000/svg" xmlns:xlink="http://www.w3.org/1999/xlink" x="0px"
	 y="0px" width="400px" height="400px" viewBox="0 0 400 400" enable-background="new 0 0 400 400" xml:space="preserve">
<g id="main">
	<polyline fill="none" stroke="#000000" stroke-width="5" stroke-linejoin="bevel" stroke-miterlimit="10" points="51.238,188.025 
		77.746,188.025 77.746,160.21 104.254,160.21 104.254,188.025 130.653,188.025 130.653,160.21 157.162,160.21 157.162,188.025 
		183.419,188.025 183.419,160.21 209.818,160.21 209.818,188.025 236.199,188.025 236.199,160.21 262.834,160.21 262.834,188.025 
		289.09,188.025 289.09,160.21 315.492,160.21 315.492,188.025 341.749,188.025 	"/>
</g>
<g id="template" display="none">
	<g display="inline">
		<g>
			<line fill="none" stroke="#000000" stroke-width="3" x1="51.238" y1="237.135" x2="51.238" y2="201.468"/>
			<polygon points="58.74,203.656 51.261,190.703 43.782,203.656 			"/>
		</g>
		<text transform="matrix(1 0 0 1 28.6787 250.7949)" font-family="sans-serif" font-size="18">PT 1</text>
	</g>
	<g display="inline">
		<line fill="none" stroke="#000000" stroke-width="3" x1="341.749" y1="237.5" x2="341.749" y2="201.833"/>
		<polygon points="349.251,204.021 341.772,191.068 334.293,204.021 		"/>
		<text transform="matrix(1 0 0 1 321.5605 251.7949)" font-family="sans-serif" font-size="18">PT 2</text>
	</g>
</g>
<g id="example" display="none">
	<g display="inline">
		
			<polygon fill-rule="evenodd" clip-rule="evenodd" fill="#FF8080" stroke="#808080" stroke-width="3" stroke-miterlimit="10" points="
			193.354,77.276 138.807,120.714 193.354,164.153 247.9,120.714 193.354,77.276 		"/>
		<path fill="none" stroke="#808080" stroke-width="3" stroke-linecap="round" stroke-linejoin="round" stroke-miterlimit="8" d="
			M193.354,106.305c-12.778,0-23.135,6.451-23.135,14.409c0,7.958,10.357,14.41,23.135,14.41c12.777,0,23.135-6.451,23.135-14.41
			C216.489,112.756,206.132,106.305,193.354,106.305L193.354,106.305z"/>
		
			<line fill="none" stroke="#808080" stroke-width="3" stroke-linejoin="round" stroke-miterlimit="8" x1="193.354" y1="58.099" x2="193.354" y2="77.276"/>
	</g>
	<polyline display="inline" fill="none" stroke="#000000" stroke-width="5" stroke-linejoin="round" stroke-miterlimit="8" points="
		47.677,265.504 74.642,255.504 64.164,226.954 91.331,216.994 101.597,245.652 128.902,235.777 118.499,207.035 145.464,197.143 
		155.932,225.733 180.832,225.603 180.832,195.194 209.484,195.194 209.484,225.603 234.096,226.954 246.848,196.594 
		273.004,208.623 260.201,236.178 286.625,248.255 299.38,220.642 325.534,232.674 309.712,261.546 335.829,273.567 	"/>
</g>
</svg>
