<?xml version="1.0" encoding="utf-8"?>
<!-- Generator: Adobe Illustrator 16.0.0, SVG Export Plug-In . SVG Version: 6.00 Build 0)  -->
<!DOCTYPE svg PUBLIC "-//W3C//DTD SVG 1.1//EN" "http://www.w3.org/Graphics/SVG/1.1/DTD/svg11.dtd">
<svg version="1.1" id="Version_1.0" xmlns="http://www.w3.org/2000/svg" xmlns:xlink="http://www.w3.org/1999/xlink" x="0px"
	 y="0px" width="400px" height="400px" viewBox="0 0 400 400" enable-background="new 0 0 400 400" xml:space="preserve">
<g id="main">
	<text transform="matrix(1 0 0 1 24.6787 149)" font-family="sans-serif" font-size="55">0 0 0 0 0 0 0 0</text>
	<line fill="none" stroke="#000000" stroke-width="5" x1="13.75" y1="130.833" x2="390.75" y2="130.833"/>
	<line fill="none" stroke="#000000" stroke-width="5" x1="13.679" y1="151" x2="390.679" y2="151"/>
</g>
<g id="points" display="none">
	<g display="inline">
		<text transform="matrix(1 0 0 1 32.499 210.999)" font-family="sans-serif" font-size="15">PT 2</text>
		<line fill="none" stroke="#000000" stroke-width="2" x1="13.75" y1="166" x2="13.75" y2="186"/>
		<line fill="none" stroke="#000000" stroke-width="2" x1="13.326" y1="185.096" x2="28.75" y2="204.75"/>
		<polygon stroke="#000000" stroke-width="2" points="13.75,159.75 21.25,176.001 6.25,176.001 		"/>
	</g>
	<g display="inline">
		<text transform="matrix(1 0 0 1 338.499 204.9277)" font-family="sans-serif" font-size="15">PT 1</text>
		<line fill="none" stroke="#000000" stroke-width="2" x1="391.75" y1="167.429" x2="391.75" y2="186.179"/>
		<line fill="none" stroke="#000000" stroke-width="2" x1="392.186" y1="185.275" x2="374.25" y2="198.679"/>
		<polygon stroke="#000000" stroke-width="2" points="390.5,162.429 398,178.679 383,178.679 		"/>
	</g>
</g>
<g id="example" display="none">
	<g display="inline">
		
			<text transform="matrix(0.6273 0.7788 -0.7788 0.6273 180.8667 150.2578)" fill="#00FF00" font-family="sans-serif" font-size="55">0 0 0 0 0 0 0</text>
		<line fill="none" stroke="#00FF00" stroke-width="5" x1="195.409" y1="136.462" x2="389.5" y2="377.403"/>
		<line fill="none" stroke="#00FF00" stroke-width="5" x1="183.404" y1="151.926" x2="373.75" y2="390"/>
	</g>
	<g display="inline">
		<text transform="matrix(0.6132 -0.7899 0.7899 0.6132 34.3779 373.5244)" fill="#00FF00" font-family="sans-serif" font-size="55">0 0 0 0 0 0</text>
		<line fill="none" stroke="#00FF00" stroke-width="5" x1="13.326" y1="371.016" x2="189.897" y2="143.44"/>
		<line fill="none" stroke="#00FF00" stroke-width="5" x1="29.213" y1="383.439" x2="204.5" y2="159.75"/>
	</g>
</g>
</svg>
