<?xml version="1.0" encoding="utf-8"?>
<!-- Generator: Adobe Illustrator 16.0.0, SVG Export Plug-In . SVG Version: 6.00 Build 0)  -->
<!DOCTYPE svg PUBLIC "-//W3C//DTD SVG 1.1//EN" "http://www.w3.org/Graphics/SVG/1.1/DTD/svg11.dtd">
<svg version="1.1" id="Version_1.0" xmlns="http://www.w3.org/2000/svg" xmlns:xlink="http://www.w3.org/1999/xlink" x="0px"
	 y="0px" width="400px" height="400px" viewBox="0 0 400 400" enable-background="new 0 0 400 400" xml:space="preserve">
<g id="main">
	<polyline fill="#FFFFFF" stroke="#000000" stroke-width="5" points="19.669,169.639 33.475,169.639 49.808,127.355 66,169.498 
		125.836,169.498 144.543,124.244 163.363,169.355 216.252,169.355 234.92,125.8 255.777,169.639 324.363,169.639 343.03,128.912 
		362.475,168.86 378.949,168.86 	"/>
</g>
<g id="template" display="none">
	<g id="points" display="inline">
		<g>
			<text transform="matrix(1 0 0 1 7.499 241.5)" font-family="sans-serif" font-size="18">PT 1</text>
			<g>
				<g>
					<line fill="none" stroke="#000000" stroke-width="3" x1="20.833" y1="223.167" x2="20.833" y2="183.833"/>
					<polygon points="28.335,186.022 20.857,173.068 13.378,186.022 					"/>
				</g>
			</g>
		</g>
		<g>
			<text transform="matrix(1 0 0 1 358.499 239)" font-family="sans-serif" font-size="18">PT 2</text>
			<g>
				<g>
					<line fill="none" stroke="#000000" stroke-width="3" x1="378.75" y1="222.667" x2="378.75" y2="183.333"/>
					<polygon points="386.252,185.522 378.773,172.568 371.295,185.522 					"/>
				</g>
			</g>
		</g>
	</g>
	<g id="T" display="inline">
		
			<rect x="161.437" y="179.074" fill="none" stroke="#000000" stroke-width="4" stroke-linecap="round" stroke-miterlimit="8" width="56.635" height="53.179"/>
		<text id="varT" transform="matrix(1 0 0 1 178.6323 218.1816)" font-family="sans-serif" font-size="36">T</text>
	</g>
</g>
<g id="example" display="none">
	<text id="varTe" transform="matrix(1 0 0 1 140.6108 218.1816)" display="inline" font-family="sans-serif" font-size="36">1-3 IN</text>
</g>
</svg>
