<?xml version="1.0" encoding="utf-8"?>
<!-- Generator: Adobe Illustrator 16.0.0, SVG Export Plug-In . SVG Version: 6.00 Build 0)  -->
<!DOCTYPE svg PUBLIC "-//W3C//DTD SVG 1.1//EN" "http://www.w3.org/Graphics/SVG/1.1/DTD/svg11.dtd">
<svg version="1.1" id="Version_1.0" xmlns="http://www.w3.org/2000/svg" xmlns:xlink="http://www.w3.org/1999/xlink" x="0px"
	 y="0px" width="400px" height="400px" viewBox="0 0 400 400" enable-background="new 0 0 400 400" xml:space="preserve">
<g id="main">
	<polyline fill="none" stroke="#000000" stroke-width="4" stroke-miterlimit="10" points="24.081,180.941 61.276,180.941 
		84.549,228.941 105.641,180.941 167.459,180.941 187.822,230.396 207.74,180.941 278.361,180.941 295.459,226.761 313.507,180.941 
		356.154,180.941 	"/>
</g>
<g id="template" transform="translate(-300 -160) scale(2 2)" display="none">
	<text transform="matrix(0.5 0 0 0.5 180.0293 133.0054)" display="inline" font-family="sans-serif" font-size="24">PT 1</text>
	<text transform="matrix(0.5 0 0 0.5 275.0293 133.5054)" display="inline" font-family="sans-serif" font-size="24">PT 2</text>
	<line display="inline" fill="none" stroke="#000000" stroke-width="2" x1="161.029" y1="165.005" x2="161.029" y2="142.005"/>
	<line display="inline" fill="none" stroke="#000000" stroke-width="2" x1="160.786" y1="142.874" x2="177.029" y2="131.005"/>
	<line display="inline" fill="none" stroke="#000000" stroke-width="2" x1="329.029" y1="165.505" x2="329.029" y2="139.505"/>
	<line display="inline" fill="none" stroke="#000000" stroke-width="2" x1="329.47" y1="140.374" x2="305.029" y2="130.505"/>
	<polygon display="inline" stroke="#000000" stroke-width="2" points="161.029,166.985 165.029,152.985 157.029,152.985 	"/>
	<polygon display="inline" stroke="#000000" stroke-width="2" points="329.029,167.485 333.029,153.485 325.029,153.485 	"/>
</g>
<g id="example" display="none">
	
		<polyline id="_x3C_path_x3E_" display="inline" fill="#FF8080" stroke="#808080" stroke-width="5" stroke-linecap="square" points="
		187.37,362.405 238.37,311.405 187.37,260.405 136.37,311.405 187.37,362.405 	"/>
	<g id="symbol" display="inline">
		<path fill="none" stroke="#808080" stroke-width="5" d="M171.024,324.966c-6.75,0-12.222-5.89-12.222-13.155
			s5.472-13.155,12.222-13.155"/>
		<path fill="none" stroke="#808080" stroke-width="5" d="M203.716,298.655c6.75,0,12.222,5.89,12.222,13.155
			c0,7.265-5.472,13.155-12.222,13.155"/>
		<line fill="none" stroke="#808080" stroke-width="5" x1="171.024" y1="298.655" x2="203.716" y2="298.655"/>
		<line fill="none" stroke="#808080" stroke-width="5" x1="171.024" y1="324.966" x2="203.716" y2="324.966"/>
	</g>
	<text transform="matrix(1 0 0 1 183.5 254.5)" display="inline" font-family="sans-serif" font-size="18">II</text>
	<g display="inline">
		<g>
			<line fill="none" stroke="#000000" stroke-width="3" x1="365.058" y1="101.01" x2="365.058" y2="242.496"/>
			<g>
				<polygon points="353.948,234.07 365.058,238.79 376.167,234.07 365.058,260.405 				"/>
			</g>
		</g>
	</g>
	<text transform="matrix(1 0 0 1 315.0586 66.0107)" display="inline" enable-background="new    "><tspan x="0" y="0" font-family="sans-serif" font-size="24">Toward</tspan><tspan x="0" y="28.8" font-family="sans-serif" font-size="24">Enemy</tspan></text>
</g>
</svg>
