<?xml version="1.0" encoding="utf-8"?>
<!-- Generator: Adobe Illustrator 16.0.0, SVG Export Plug-In . SVG Version: 6.00 Build 0)  -->
<!DOCTYPE svg PUBLIC "-//W3C//DTD SVG 1.1//EN" "http://www.w3.org/Graphics/SVG/1.1/DTD/svg11.dtd">
<svg version="1.1" id="Version_1.0" xmlns="http://www.w3.org/2000/svg" xmlns:xlink="http://www.w3.org/1999/xlink" x="0px"
	 y="0px" width="400px" height="400px" viewBox="0 0 400 400" enable-background="new 0 0 400 400" xml:space="preserve">
<g id="main">
	<text transform="matrix(1 0 0 1 24.6787 149)" font-family="sans-serif" font-size="55">0 0 0 0 0 0 0 0</text>
	<line fill="none" stroke="#000000" stroke-width="5" x1="13.75" y1="108.833" x2="390.75" y2="108.833"/>
	<line fill="none" stroke="#000000" stroke-width="5" x1="13.679" y1="151" x2="390.679" y2="151"/>
</g>
<g id="points" display="none">
	<g display="inline">
		<text transform="matrix(1 0 0 1 32.499 210.999)" font-family="sans-serif" font-size="15">PT 2</text>
		<line fill="none" stroke="#000000" stroke-width="2" x1="13.75" y1="166" x2="13.75" y2="186"/>
		<line fill="none" stroke="#000000" stroke-width="2" x1="13.326" y1="185.096" x2="28.75" y2="204.75"/>
		<polygon stroke="#000000" stroke-width="2" points="13.75,159.75 21.25,176.001 6.25,176.001 		"/>
	</g>
	<g display="inline">
		<text transform="matrix(1 0 0 1 338.499 204.9277)" font-family="sans-serif" font-size="15">PT 1</text>
		<line fill="none" stroke="#000000" stroke-width="2" x1="391.75" y1="167.429" x2="391.75" y2="186.179"/>
		<line fill="none" stroke="#000000" stroke-width="2" x1="392.186" y1="185.275" x2="374.25" y2="198.679"/>
		<polygon stroke="#000000" stroke-width="2" points="390.5,162.429 398,178.679 383,178.679 		"/>
	</g>
</g>
<g id="example" display="none">
	<g display="inline">
		<text transform="matrix(0.3524 0.9358 -0.9358 0.3524 22.5552 35.9966)" fill="#00FF00" font-family="sans-serif" font-size="55">0 0 0 0 0 0 0 0</text>
		<line fill="none" stroke="#00FF00" stroke-width="5" x1="56.292" y1="11.612" x2="189.16" y2="364.422"/>
		<line fill="none" stroke="#00FF00" stroke-width="5" x1="16.806" y1="26.407" x2="149.674" y2="379.217"/>
	</g>
	<g display="inline">
		<text transform="matrix(0.378 -0.9258 0.9258 0.378 252.4746 370.2588)" fill="#00FF00" font-family="sans-serif" font-size="55">0 0 0 0 0 0 0 0</text>
		<line fill="none" stroke="#00FF00" stroke-width="5" x1="211.155" y1="365.193" x2="353.654" y2="16.162"/>
		<line fill="none" stroke="#00FF00" stroke-width="5" x1="250.167" y1="381.197" x2="392.667" y2="32.166"/>
	</g>
</g>
</svg>
