<?xml version="1.0" encoding="utf-8"?>
<!-- Generator: Adobe Illustrator 16.0.0, SVG Export Plug-In . SVG Version: 6.00 Build 0)  -->
<!DOCTYPE svg PUBLIC "-//W3C//DTD SVG 1.1//EN" "http://www.w3.org/Graphics/SVG/1.1/DTD/svg11.dtd">
<svg version="1.1" id="Version_1.0" xmlns="http://www.w3.org/2000/svg" xmlns:xlink="http://www.w3.org/1999/xlink" x="0px"
	 y="0px" width="400px" height="400px" viewBox="0 0 400 400" enable-background="new 0 0 400 400" xml:space="preserve">
<g id="main">
	<text transform="matrix(1 0 0 1 24.6787 149)" font-family="sans-serif" font-size="55">0 0 0 0 0 0 0 0</text>
	<line fill="none" stroke="#000000" stroke-width="5" x1="13.679" y1="151" x2="390.679" y2="151"/>
</g>
<g id="points" display="none">
	<g display="inline">
		<text transform="matrix(1 0 0 1 32.499 210.999)" font-family="sans-serif" font-size="15">PT 2</text>
		<line fill="none" stroke="#000000" stroke-width="2" x1="13.75" y1="166" x2="13.75" y2="186"/>
		<line fill="none" stroke="#000000" stroke-width="2" x1="13.326" y1="185.096" x2="28.75" y2="204.75"/>
		<polygon stroke="#000000" stroke-width="2" points="13.75,159.75 21.25,176.001 6.25,176.001 		"/>
	</g>
	<g display="inline">
		<text transform="matrix(1 0 0 1 338.499 204.9277)" font-family="sans-serif" font-size="15">PT 1</text>
		<line fill="none" stroke="#000000" stroke-width="2" x1="391.75" y1="167.429" x2="391.75" y2="186.179"/>
		<line fill="none" stroke="#000000" stroke-width="2" x1="392.186" y1="185.275" x2="374.25" y2="198.679"/>
		<polygon stroke="#000000" stroke-width="2" points="390.5,162.429 398,178.679 383,178.679 		"/>
	</g>
</g>
<g id="example" display="none">
	
		<path display="inline" fill="none" stroke="#06FF00" stroke-width="5" stroke-linecap="round" stroke-linejoin="round" stroke-miterlimit="8" d="
		M346.076,341.602c3.927,0,7.111-6.39,7.111-14.273c0-7.882-3.185-14.271-7.111-14.271c-3.928,0-7.109,6.39-7.109,14.271
		C338.967,335.212,342.148,341.602,346.076,341.602L346.076,341.602z"/>
	
		<path display="inline" fill="none" stroke="#06FF00" stroke-width="5" stroke-linecap="round" stroke-linejoin="round" stroke-miterlimit="8" d="
		M60.173,341.602c3.926,0,7.11-6.39,7.11-14.273c0-7.882-3.184-14.271-7.11-14.271c-3.927,0-7.111,6.39-7.111,14.271
		C53.062,335.212,56.246,341.602,60.173,341.602L60.173,341.602z"/>
	
		<path display="inline" fill="none" stroke="#06FF00" stroke-width="5" stroke-linecap="round" stroke-linejoin="round" stroke-miterlimit="8" d="
		M264.526,341.602c3.969,0,7.186-6.39,7.186-14.273c0-7.882-3.217-14.271-7.186-14.271c-3.966,0-7.184,6.39-7.184,14.271
		C257.343,335.212,260.561,341.602,264.526,341.602L264.526,341.602z"/>
	
		<path display="inline" fill="none" stroke="#06FF00" stroke-width="5" stroke-linecap="round" stroke-linejoin="round" stroke-miterlimit="8" d="
		M223.641,341.602c3.969,0,7.186-6.39,7.186-14.273c0-7.882-3.217-14.271-7.186-14.271s-7.183,6.39-7.183,14.271
		C216.458,335.212,219.672,341.602,223.641,341.602L223.641,341.602z"/>
	
		<path display="inline" fill="none" stroke="#06FF00" stroke-width="5" stroke-linecap="round" stroke-linejoin="round" stroke-miterlimit="8" d="
		M182.904,341.602c3.967,0,7.185-6.39,7.185-14.273c0-7.882-3.217-14.271-7.185-14.271c-3.968,0-7.186,6.39-7.186,14.271
		C175.718,335.212,178.936,341.602,182.904,341.602L182.904,341.602z"/>
	
		<path display="inline" fill="none" stroke="#06FF00" stroke-width="5" stroke-linecap="round" stroke-linejoin="round" stroke-miterlimit="8" d="
		M142.092,341.602c3.927,0,7.11-6.39,7.11-14.273c0-7.882-3.183-14.271-7.11-14.271c-3.928,0-7.11,6.39-7.11,14.271
		C134.982,335.212,138.164,341.602,142.092,341.602L142.092,341.602z"/>
	
		<path display="inline" fill="none" stroke="#06FF00" stroke-width="5" stroke-linecap="round" stroke-linejoin="round" stroke-miterlimit="8" d="
		M101.28,341.602c3.968,0,7.184-6.39,7.184-14.273c0-7.882-3.216-14.271-7.184-14.271c-3.968,0-7.185,6.39-7.185,14.271
		C94.095,335.212,97.312,341.602,101.28,341.602L101.28,341.602z"/>
	
		<path display="inline" fill="none" stroke="#06FF00" stroke-width="5" stroke-linecap="round" stroke-linejoin="round" stroke-miterlimit="8" d="
		M305.265,341.602c3.969,0,7.185-6.39,7.185-14.273c0-7.882-3.216-14.271-7.185-14.271s-7.184,6.39-7.184,14.271
		C298.081,335.212,301.296,341.602,305.265,341.602L305.265,341.602z"/>
	
		<line display="inline" fill="none" stroke="#06FF00" stroke-width="5" stroke-linejoin="round" stroke-miterlimit="8" x1="353.188" y1="313.057" x2="53.062" y2="313.057"/>
	
		<line display="inline" fill="none" stroke="#06FF00" stroke-width="5" stroke-linejoin="round" stroke-miterlimit="8" x1="367.555" y1="313.057" x2="38.693" y2="313.057"/>
	
		<path display="inline" fill="none" stroke="#06FF00" stroke-width="5" stroke-linecap="round" stroke-linejoin="round" stroke-miterlimit="8" d="
		M60.173,113.107c-3.927,0-7.111,6.388-7.111,14.271s3.184,14.271,7.111,14.271c3.926,0,7.11-6.388,7.11-14.271
		S64.099,113.107,60.173,113.107L60.173,113.107z"/>
	
		<path display="inline" fill="none" stroke="#06FF00" stroke-width="5" stroke-linecap="round" stroke-linejoin="round" stroke-miterlimit="8" d="
		M346.076,113.107c-3.928,0-7.109,6.388-7.109,14.271s3.182,14.271,7.109,14.271c3.927,0,7.111-6.388,7.111-14.271
		S350.003,113.107,346.076,113.107L346.076,113.107z"/>
	
		<path display="inline" fill="none" stroke="#06FF00" stroke-width="5" stroke-linecap="round" stroke-linejoin="round" stroke-miterlimit="8" d="
		M141.796,113.107c-3.927,0-7.11,6.388-7.11,14.271s3.183,14.271,7.11,14.271c3.927,0,7.11-6.388,7.11-14.271
		S145.723,113.107,141.796,113.107L141.796,113.107z"/>
	
		<path display="inline" fill="none" stroke="#06FF00" stroke-width="5" stroke-linecap="round" stroke-linejoin="round" stroke-miterlimit="8" d="
		M182.607,113.107c-3.968,0-7.186,6.388-7.186,14.271s3.217,14.271,7.186,14.271c3.969,0,7.185-6.388,7.185-14.271
		S186.576,113.107,182.607,113.107L182.607,113.107z"/>
	
		<path display="inline" fill="none" stroke="#06FF00" stroke-width="5" stroke-linecap="round" stroke-linejoin="round" stroke-miterlimit="8" d="
		M223.346,113.107c-3.969,0-7.186,6.388-7.186,14.271s3.217,14.271,7.186,14.271s7.186-6.388,7.186-14.271
		S227.314,113.107,223.346,113.107L223.346,113.107z"/>
	
		<path display="inline" fill="none" stroke="#06FF00" stroke-width="5" stroke-linecap="round" stroke-linejoin="round" stroke-miterlimit="8" d="
		M264.156,113.107c-3.926,0-7.111,6.388-7.111,14.271s3.186,14.271,7.111,14.271c3.928,0,7.11-6.388,7.11-14.271
		S268.084,113.107,264.156,113.107L264.156,113.107z"/>
	
		<path display="inline" fill="none" stroke="#06FF00" stroke-width="5" stroke-linecap="round" stroke-linejoin="round" stroke-miterlimit="8" d="
		M304.97,113.107c-3.969,0-7.187,6.388-7.187,14.271s3.218,14.271,7.187,14.271c3.968,0,7.185-6.388,7.185-14.271
		S308.938,113.107,304.97,113.107L304.97,113.107z"/>
	
		<path display="inline" fill="none" stroke="#06FF00" stroke-width="5" stroke-linecap="round" stroke-linejoin="round" stroke-miterlimit="8" d="
		M100.984,113.107c-3.969,0-7.186,6.388-7.186,14.271s3.216,14.271,7.186,14.271c3.967,0,7.184-6.388,7.184-14.271
		S104.952,113.107,100.984,113.107L100.984,113.107z"/>
	
		<line display="inline" fill="none" stroke="#06FF00" stroke-width="5" stroke-linejoin="round" stroke-miterlimit="8" x1="53.062" y1="141.649" x2="353.188" y2="141.649"/>
	
		<line display="inline" fill="none" stroke="#06FF00" stroke-width="5" stroke-linejoin="round" stroke-miterlimit="8" x1="38.693" y1="141.649" x2="367.555" y2="141.649"/>
	
		<path display="inline" fill="none" stroke="#06FF00" stroke-width="5" stroke-linecap="round" stroke-linejoin="round" stroke-miterlimit="8" d="
		M10.101,166.125c0-3.961,6.4-7.172,14.296-7.172c7.895,0,14.295,3.21,14.295,7.172c0,3.962-6.4,7.173-14.295,7.173
		C16.501,173.298,10.101,170.087,10.101,166.125L10.101,166.125z"/>
	
		<path display="inline" fill="none" stroke="#06FF00" stroke-width="5" stroke-linecap="round" stroke-linejoin="round" stroke-miterlimit="8" d="
		M10.101,247.614c0-3.96,6.4-7.174,14.296-7.174c7.895,0,14.295,3.214,14.295,7.174c0,3.963-6.4,7.174-14.295,7.174
		C16.501,254.788,10.101,251.577,10.101,247.614L10.101,247.614z"/>
	
		<path display="inline" fill="none" stroke="#06FF00" stroke-width="5" stroke-linecap="round" stroke-linejoin="round" stroke-miterlimit="8" d="
		M9.954,288.285c0-3.962,6.4-7.174,14.295-7.174c7.896,0,14.295,3.212,14.295,7.174c0,3.96-6.399,7.172-14.295,7.172
		C16.354,295.457,9.954,292.245,9.954,288.285L9.954,288.285z"/>
	
		<path display="inline" fill="none" stroke="#06FF00" stroke-width="5" stroke-linecap="round" stroke-linejoin="round" stroke-miterlimit="8" d="
		M10.101,206.797c0-3.961,6.4-7.174,14.296-7.174c7.895,0,14.295,3.213,14.295,7.174c0,3.962-6.4,7.172-14.295,7.172
		C16.501,213.969,10.101,210.759,10.101,206.797L10.101,206.797z"/>
	
		<line display="inline" fill="none" stroke="#06FF00" stroke-width="5" stroke-linejoin="round" stroke-miterlimit="8" x1="38.693" y1="141.649" x2="38.693" y2="313.057"/>
	
		<path display="inline" fill="none" stroke="#06FF00" stroke-width="5" stroke-linecap="round" stroke-linejoin="round" stroke-miterlimit="8" d="
		M396.147,166.125c0-3.961-6.398-7.172-14.297-7.172c-7.894,0-14.296,3.21-14.296,7.172c0,3.962,6.402,7.173,14.296,7.173
		C389.749,173.298,396.147,170.087,396.147,166.125L396.147,166.125z"/>
	
		<path display="inline" fill="none" stroke="#06FF00" stroke-width="5" stroke-linecap="round" stroke-linejoin="round" stroke-miterlimit="8" d="
		M396.147,247.614c0-3.96-6.398-7.174-14.297-7.174c-7.894,0-14.296,3.214-14.296,7.174c0,3.963,6.402,7.174,14.296,7.174
		C389.749,254.788,396.147,251.577,396.147,247.614L396.147,247.614z"/>
	
		<path display="inline" fill="none" stroke="#06FF00" stroke-width="5" stroke-linecap="round" stroke-linejoin="round" stroke-miterlimit="8" d="
		M396.147,288.285c0-3.962-6.398-7.174-14.297-7.174c-7.894,0-14.296,3.212-14.296,7.174c0,3.96,6.402,7.172,14.296,7.172
		C389.749,295.457,396.147,292.245,396.147,288.285L396.147,288.285z"/>
	
		<path display="inline" fill="none" stroke="#06FF00" stroke-width="5" stroke-linecap="round" stroke-linejoin="round" stroke-miterlimit="8" d="
		M396.147,206.797c0-3.961-6.398-7.174-14.297-7.174c-7.894,0-14.296,3.213-14.296,7.174c0,3.962,6.402,7.172,14.296,7.172
		C389.749,213.969,396.147,210.759,396.147,206.797L396.147,206.797z"/>
	
		<line display="inline" fill="none" stroke="#06FF00" stroke-width="5" stroke-linejoin="round" stroke-miterlimit="8" x1="367.705" y1="141.649" x2="367.705" y2="313.057"/>
</g>
</svg>
