<?xml version="1.0" encoding="utf-8"?>
<!-- Generator: Adobe Illustrator 16.0.0, SVG Export Plug-In . SVG Version: 6.00 Build 0)  -->
<!DOCTYPE svg PUBLIC "-//W3C//DTD SVG 1.1//EN" "http://www.w3.org/Graphics/SVG/1.1/DTD/svg11.dtd">
<svg version="1.1" id="Version_1.0" xmlns="http://www.w3.org/2000/svg" xmlns:xlink="http://www.w3.org/1999/xlink" x="0px"
	 y="0px" width="400px" height="400px" viewBox="0 0 400 400" enable-background="new 0 0 400 400" xml:space="preserve">
<g id="main">
	<text transform="matrix(1 0 0 1 36.6787 165)" font-family="sans-serif" font-size="55">x x x x x x x x</text>
	<line fill="none" stroke="#000000" stroke-width="5" x1="13.679" y1="151" x2="390.679" y2="151"/>
</g>
<g id="template" display="none">
	<g display="inline">
		<text transform="matrix(1 0 0 1 32.499 210.999)" font-family="sans-serif" font-size="15">PT 2</text>
		<line fill="none" stroke="#000000" stroke-width="2" x1="13.75" y1="166" x2="13.75" y2="186"/>
		<line fill="none" stroke="#000000" stroke-width="2" x1="13.326" y1="185.096" x2="28.75" y2="204.75"/>
		<polygon stroke="#000000" stroke-width="2" points="13.75,159.75 21.25,176.001 6.25,176.001 		"/>
	</g>
	<g display="inline">
		<text transform="matrix(1 0 0 1 338.499 204.9277)" font-family="sans-serif" font-size="15">PT 1</text>
		<line fill="none" stroke="#000000" stroke-width="2" x1="391.75" y1="167.429" x2="391.75" y2="186.179"/>
		<line fill="none" stroke="#000000" stroke-width="2" x1="392.186" y1="185.275" x2="374.25" y2="198.679"/>
		<polygon stroke="#000000" stroke-width="2" points="390.5,162.429 398,178.679 383,178.679 		"/>
	</g>
</g>
<g id="example" display="none">
	
		<line display="inline" fill="none" stroke="#00FF00" stroke-width="5" stroke-linejoin="round" stroke-miterlimit="8" x1="114.125" y1="263.385" x2="93.202" y2="305.158"/>
	
		<line display="inline" fill="none" stroke="#00FF00" stroke-width="5" stroke-linejoin="round" stroke-miterlimit="8" x1="93.202" y1="263.385" x2="114.125" y2="305.158"/>
	
		<line display="inline" fill="none" stroke="#00FF00" stroke-width="5" stroke-linejoin="round" stroke-miterlimit="8" x1="173.753" y1="263.385" x2="152.831" y2="305.158"/>
	
		<line display="inline" fill="none" stroke="#00FF00" stroke-width="5" stroke-linejoin="round" stroke-miterlimit="8" x1="152.831" y1="263.385" x2="173.753" y2="305.158"/>
	
		<line display="inline" fill="none" stroke="#00FF00" stroke-width="5" stroke-linejoin="round" stroke-miterlimit="8" x1="233.558" y1="263.385" x2="212.633" y2="305.158"/>
	
		<line display="inline" fill="none" stroke="#00FF00" stroke-width="5" stroke-linejoin="round" stroke-miterlimit="8" x1="212.633" y1="263.385" x2="233.558" y2="305.158"/>
	
		<line display="inline" fill="none" stroke="#00FF00" stroke-width="5" stroke-linejoin="round" stroke-miterlimit="8" x1="293.187" y1="263.385" x2="272.262" y2="305.158"/>
	
		<line display="inline" fill="none" stroke="#00FF00" stroke-width="5" stroke-linejoin="round" stroke-miterlimit="8" x1="272.262" y1="263.385" x2="293.187" y2="305.158"/>
	
		<line display="inline" fill="none" stroke="#00FF00" stroke-width="5" stroke-linejoin="round" stroke-miterlimit="8" x1="239.25" y1="91.123" x2="192.643" y2="95.172"/>
	
		<line display="inline" fill="none" stroke="#00FF00" stroke-width="5" stroke-linejoin="round" stroke-miterlimit="8" x1="228.304" y1="73.32" x2="203.587" y2="112.976"/>
	
		<line display="inline" fill="none" stroke="#00FF00" stroke-width="5" stroke-linejoin="round" stroke-miterlimit="8" x1="270.461" y1="141.951" x2="223.851" y2="146"/>
	
		<line display="inline" fill="none" stroke="#00FF00" stroke-width="5" stroke-linejoin="round" stroke-miterlimit="8" x1="259.515" y1="124.147" x2="234.797" y2="163.802"/>
	
		<line display="inline" fill="none" stroke="#00FF00" stroke-width="5" stroke-linejoin="round" stroke-miterlimit="8" x1="301.667" y1="192.776" x2="255.061" y2="196.828"/>
	
		<line display="inline" fill="none" stroke="#00FF00" stroke-width="5" stroke-linejoin="round" stroke-miterlimit="8" x1="290.725" y1="174.975" x2="266.007" y2="214.629"/>
	
		<line display="inline" fill="none" stroke="#00FF00" stroke-width="5" stroke-linejoin="round" stroke-miterlimit="8" x1="332.876" y1="243.604" x2="286.271" y2="247.656"/>
	
		<line display="inline" fill="none" stroke="#00FF00" stroke-width="5" stroke-linejoin="round" stroke-miterlimit="8" x1="321.931" y1="225.801" x2="297.214" y2="265.457"/>
	
		<line display="inline" fill="none" stroke="#00FF00" stroke-width="5" stroke-linejoin="round" stroke-miterlimit="8" x1="66.326" y1="225.939" x2="91.485" y2="265.318"/>
	
		<line display="inline" fill="none" stroke="#00FF00" stroke-width="5" stroke-linejoin="round" stroke-miterlimit="8" x1="55.581" y1="243.863" x2="102.229" y2="247.396"/>
	
		<line display="inline" fill="none" stroke="#00FF00" stroke-width="5" stroke-linejoin="round" stroke-miterlimit="8" x1="97.012" y1="174.94" x2="122.17" y2="214.316"/>
	
		<line display="inline" fill="none" stroke="#00FF00" stroke-width="5" stroke-linejoin="round" stroke-miterlimit="8" x1="86.268" y1="192.861" x2="132.917" y2="196.395"/>
	
		<line display="inline" fill="none" stroke="#00FF00" stroke-width="5" stroke-linejoin="round" stroke-miterlimit="8" x1="127.697" y1="123.764" x2="152.858" y2="163.143"/>
	
		<line display="inline" fill="none" stroke="#00FF00" stroke-width="5" stroke-linejoin="round" stroke-miterlimit="8" x1="116.953" y1="141.687" x2="163.603" y2="145.219"/>
	
		<line display="inline" fill="none" stroke="#00FF00" stroke-width="5" stroke-linejoin="round" stroke-miterlimit="8" x1="158.384" y1="72.59" x2="183.544" y2="111.966"/>
	
		<line display="inline" fill="none" stroke="#00FF00" stroke-width="5" stroke-linejoin="round" stroke-miterlimit="8" x1="147.639" y1="90.511" x2="194.289" y2="94.043"/>
	<polygon display="inline" fill="none" stroke="#00FF00" stroke-width="5" stroke-linejoin="round" stroke-miterlimit="8" points="
		333.813,285.104 56.936,284.271 191.534,53.676 	"/>
</g>
</svg>
