<?xml version="1.0" encoding="utf-8"?>
<!-- Generator: Adobe Illustrator 16.0.0, SVG Export Plug-In . SVG Version: 6.00 Build 0)  -->
<!DOCTYPE svg PUBLIC "-//W3C//DTD SVG 1.1//EN" "http://www.w3.org/Graphics/SVG/1.1/DTD/svg11.dtd">
<svg version="1.1" id="Version_1.0" xmlns="http://www.w3.org/2000/svg" xmlns:xlink="http://www.w3.org/1999/xlink" x="0px"
	 y="0px" width="400px" height="400px" viewBox="0 0 400 400" enable-background="new 0 0 400 400" xml:space="preserve">
<g id="main">
	<polyline fill="none" stroke="#000000" stroke-width="5" points="54.052,246.328 54.052,111.336 324.039,111.336 324.039,246.328 	
		"/>
</g>
<g id="template" display="none">
	<g display="inline">
		<path stroke="#000000" stroke-width="0.3857" stroke-linejoin="bevel" stroke-miterlimit="10" d="M96.298,148.194l-17.549-14.078
			c-0.7-0.554-0.819-1.543-0.265-2.241c0.554-0.7,1.566-0.82,2.266-0.265l17.549,14.078c0.698,0.554,0.819,1.566,0.265,2.266
			C98.008,148.628,96.996,148.749,96.298,148.194L96.298,148.194z M76.217,142.408l-19.043-27.626l31.096,12.583L76.217,142.408z"/>
		
			<line fill="none" stroke="#000000" stroke-width="3" stroke-linecap="round" stroke-linejoin="round" stroke-miterlimit="10" x1="97.996" y1="224.089" x2="97.996" y2="146.951"/>
		<text transform="matrix(1 0 0 1 74.3428 246.1006)" font-family="sans-serif" font-size="24">PT 1</text>
	</g>
	<g display="inline">
		<path stroke="#000000" stroke-width="0.3857" stroke-linejoin="bevel" stroke-miterlimit="10" d="M278.044,146.687l17.549-14.078
			c0.699-0.555,1.712-0.435,2.267,0.265c0.558,0.698,0.459,1.688-0.24,2.241l-17.571,14.078c-0.698,0.555-1.714,0.434-2.266-0.241
			C277.225,148.253,277.344,147.241,278.044,146.687L278.044,146.687z M288.072,128.366l31.122-12.583l-19.069,27.626
			L288.072,128.366z"/>
		
			<line fill="none" stroke="#000000" stroke-width="3" stroke-linecap="round" stroke-linejoin="round" stroke-miterlimit="10" x1="278.516" y1="225.089" x2="278.516" y2="147.951"/>
		<text transform="matrix(1 0 0 1 246.8828 244.1006)" font-family="sans-serif" font-size="24">PT 2</text>
	</g>
</g>
</svg>
