<?xml version="1.0" encoding="utf-8"?>
<!-- Generator: Adobe Illustrator 16.0.0, SVG Export Plug-In . SVG Version: 6.00 Build 0)  -->
<!DOCTYPE svg PUBLIC "-//W3C//DTD SVG 1.1//EN" "http://www.w3.org/Graphics/SVG/1.1/DTD/svg11.dtd">
<svg version="1.1" id="Version_1.0" xmlns="http://www.w3.org/2000/svg" xmlns:xlink="http://www.w3.org/1999/xlink" x="0px"
	 y="0px" width="400px" height="400px" viewBox="0 0 400 400" enable-background="new 0 0 400 400" xml:space="preserve">
<g id="main">
	<line fill="none" stroke="#000000" stroke-width="5" x1="147.066" y1="80" x2="147.066" y2="296"/>
	<line fill="none" stroke="#000000" stroke-width="5" x1="83.066" y1="130" x2="215.066" y2="130"/>
	<line fill="none" stroke="#000000" stroke-width="5" x1="26.5" y1="213.834" x2="281.859" y2="213.53"/>
	<path fill="none" stroke="#000000" stroke-width="5" d="M147.052,295.643c0,50.14,30.509,77.067,79.414,81.957"/>
</g>
<g id="template" transform="translate(-330 -220) scale(2 2)" display="none">
	<g display="inline">
		<text transform="matrix(0.5 0 0 0.5 335.8584 220.2085)" font-family="sans-serif" font-size="24">PT 2</text>
		<line fill="none" stroke="#000000" stroke-width="2" x1="318.385" y1="216.364" x2="334.904" y2="216.281"/>
		<polygon stroke="#000000" stroke-width="2" points="308.332,216.701 323.104,211.514 323.333,221.746 		"/>
	</g>
	<g display="inline">
		<text transform="matrix(0.5 0 0 0.5 277.2402 190.5571)" font-family="sans-serif" font-size="24">PT 1</text>
		<line fill="none" stroke="#000000" stroke-width="2" x1="249.574" y1="196.891" x2="274.274" y2="186.893"/>
		<polygon stroke="#000000" stroke-width="2" points="241.047,200.585 253.174,188.546 258.1,199.488 		"/>
	</g>
</g>
<g id="example" display="none">
	<path display="inline" d="M332.289,167.017c-27.854,0-50.43,20.823-50.43,46.513s22.576,46.513,50.43,46.513
		c27.853,0,50.43-20.82,50.43-46.513C382.719,187.84,360.142,167.017,332.289,167.017L332.289,167.017z"/>
	
		<line display="inline" fill="none" stroke="#000000" stroke-width="5" stroke-linejoin="round" stroke-miterlimit="8" x1="362.572" y1="177.325" x2="392.854" y2="146.272"/>
	
		<line display="inline" fill="none" stroke="#000000" stroke-width="5" stroke-linejoin="round" stroke-miterlimit="8" x1="302.007" y1="177.325" x2="271.725" y2="146.272"/>
</g>
</svg>
