<?xml version="1.0" encoding="utf-8"?>
<!-- Generator: Adobe Illustrator 16.0.0, SVG Export Plug-In . SVG Version: 6.00 Build 0)  -->
<!DOCTYPE svg PUBLIC "-//W3C//DTD SVG 1.1//EN" "http://www.w3.org/Graphics/SVG/1.1/DTD/svg11.dtd">
<svg version="1.1" id="Version_1.0" xmlns="http://www.w3.org/2000/svg" xmlns:xlink="http://www.w3.org/1999/xlink" x="0px"
	 y="0px" width="612px" height="792px" viewBox="0 0 612 792" enable-background="new 0 0 612 792" xml:space="preserve">
<g id="main">
	
		<rect x="241.869" y="138.849" fill="none" stroke="#000000" stroke-width="4" stroke-linecap="round" stroke-miterlimit="8" width="128.229" height="170.972"/>
	<text transform="matrix(1 0 0 1 268.8311 194.7129)" font-family="sans-serif" font-size="36">AXP</text>
	<polygon fill="none" stroke="#000000" stroke-width="4" stroke-linecap="round" stroke-miterlimit="8" points="305.982,396.5 
		241.869,311.015 370.097,311.015 	"/>
</g>
<g id="template" display="none">
	<g id="varW1" display="inline">
		
			<rect x="192.107" y="180.33" fill="none" stroke="#000000" stroke-width="4" stroke-linecap="round" stroke-miterlimit="8" width="49.993" height="42.513"/>
		<text transform="matrix(1 0 0 1 198.2085 211.7686)" font-family="sans-serif" font-size="24">W1</text>
	</g>
	<g id="varW" display="inline">
		<text transform="matrix(1 0 0 1 227.2612 169.3027)" font-family="sans-serif" font-size="23.6512">-</text>
		<polygon fill="none" stroke="#000000" stroke-width="4" stroke-linecap="round" stroke-miterlimit="8" points="192.107,138.066 
			192.107,180.561 224.001,180.088 225.001,139.244 		"/>
		<text transform="matrix(1 0 0 1 198.2085 169.3027)" font-family="sans-serif" font-size="24">W</text>
	</g>
	<g id="varT1" display="inline">
		
			<rect x="277.735" y="231.438" fill="none" stroke="#000000" stroke-width="4" stroke-linecap="round" stroke-miterlimit="8" width="53.832" height="53.197"/>
		<text transform="matrix(1 0 0 1 293.9512 268.7979)" font-family="sans-serif" font-size="24">T1</text>
	</g>
	<g id="varT" display="inline">
		
			<rect x="370.916" y="139.066" fill="none" stroke="#000000" stroke-width="4" stroke-linecap="round" stroke-miterlimit="8" width="56.637" height="53.179"/>
		<text transform="matrix(1 0 0 1 389.1074 171.1748)" font-family="sans-serif" font-size="24">T</text>
	</g>
	<g id="varH" display="inline">
		<text transform="matrix(1 0 0 1 296.793 117.4512)" font-family="sans-serif" font-size="24">H</text>
		
			<rect x="278.663" y="85.227" fill="none" stroke="#000000" stroke-width="4" stroke-linecap="round" stroke-miterlimit="8" width="56.634" height="53.197"/>
	</g>
	<g id="points" display="inline">
		<text transform="matrix(1 0 0 1 376.6172 420.1416)" font-family="sans-serif" font-size="23.6512">POINT</text>
		<text transform="matrix(1 0 0 1 376.6172 392.5)" font-family="sans-serif" font-size="23.6512">ANCHOR</text>
		<path stroke="#000000" stroke-width="2" stroke-linejoin="bevel" stroke-miterlimit="10" d="M370.097,397.444h-35.62
			c-0.658,0-1.191-0.517-1.191-1.176c0-0.658,0.533-1.192,1.191-1.192h35.62c0.66,0,1.192,0.534,1.192,1.192
			C371.289,396.928,370.757,397.444,370.097,397.444L370.097,397.444z M336.848,403.393l-23.741-7.124l23.741-7.124V403.393z"/>
	</g>
</g>
<g id="example" display="none">
	<text id="varWe" transform="matrix(1 0 0 1 91.2085 165.3027)" display="inline" font-family="sans-serif" font-size="18">030200ZMAY08 - </text>
	<text id="varW1e" transform="matrix(1 0 0 1 91.2085 186.9023)" display="inline" font-family="sans-serif" font-size="18">050700ZMAY08  </text>
	<text id="varT1e" transform="matrix(1 0 0 1 270.2461 265.7979)" display="inline" font-family="sans-serif" font-size="30">4077</text>
	<text id="varTe" transform="matrix(1 0 0 1 384.1074 171.1748)" display="inline" font-family="sans-serif" font-size="24">1</text>
	<text id="varHe_1_" transform="matrix(1 0 0 1 296.4941 119.4512)" display="inline" font-family="sans-serif" font-size="24">3</text>
</g>
</svg>
