<?xml version="1.0" encoding="utf-8"?>
<!-- Generator: Adobe Illustrator 16.0.0, SVG Export Plug-In . SVG Version: 6.00 Build 0)  -->
<!DOCTYPE svg PUBLIC "-//W3C//DTD SVG 1.1//EN" "http://www.w3.org/Graphics/SVG/1.1/DTD/svg11.dtd">
<svg version="1.1" id="Version_1.0" xmlns="http://www.w3.org/2000/svg" xmlns:xlink="http://www.w3.org/1999/xlink" x="0px"
	 y="0px" width="612px" height="792px" viewBox="0 0 612 792" enable-background="new 0 0 612 792" xml:space="preserve">
<g id="main">
	
		<rect x="241.408" y="139.849" fill="none" stroke="#000000" stroke-width="4" stroke-linecap="round" stroke-miterlimit="8" width="128.229" height="170.972"/>
	<polygon fill="none" stroke="#000000" stroke-width="4" stroke-linecap="round" stroke-miterlimit="8" points="305.521,396.5 
		241.408,311.015 369.636,311.015 	"/>
	<line fill="none" stroke="#000000" stroke-width="4" x1="241.408" y1="289.311" x2="369.636" y2="289.311"/>
	<g>
		<ellipse fill="none" stroke="#000000" stroke-width="6" cx="308.882" cy="216.82" rx="32.726" ry="32.726"/>
		<line fill="none" stroke="#000000" stroke-width="6" x1="308.882" y1="249.545" x2="308.882" y2="270.795"/>
		<line fill="none" stroke="#000000" stroke-width="6" x1="308.882" y1="184.094" x2="308.882" y2="161.747"/>
		<line fill="none" stroke="#000000" stroke-width="6" x1="339.619" y1="216.818" x2="362.535" y2="216.818"/>
		<line fill="none" stroke="#000000" stroke-width="6" x1="278.156" y1="216.818" x2="254.55" y2="216.818"/>
		<line fill="none" stroke="#000000" stroke-width="6" x1="272.109" y1="255.646" x2="288.313" y2="239.441"/>
		<line fill="none" stroke="#000000" stroke-width="6" x1="332.505" y1="193.195" x2="348.71" y2="176.992"/>
		<line fill="none" stroke="#000000" stroke-width="6" x1="348.947" y1="252.646" x2="332.742" y2="236.441"/>
		<line fill="none" stroke="#000000" stroke-width="6" x1="287.258" y1="191.094" x2="271.054" y2="174.889"/>
	</g>
</g>
<g id="template" display="none">
	<g id="varW1" display="inline">
		
			<rect x="189.827" y="180.935" fill="none" stroke="#000000" stroke-width="4" stroke-linecap="round" stroke-miterlimit="8" width="49.993" height="42.513"/>
		<text transform="matrix(1 0 0 1 195.9272 212.374)" font-family="sans-serif" font-size="23.6512">W1</text>
	</g>
	<g id="varW" display="inline">
		<text transform="matrix(1 0 0 1 224.98 169.9082)" font-family="sans-serif" font-size="23.6512">-</text>
		<polygon fill="none" stroke="#000000" stroke-width="4" stroke-linecap="round" stroke-miterlimit="8" points="189.827,138.672 
			189.827,181.167 221.721,180.694 222.721,139.849 		"/>
		<text transform="matrix(1 0 0 1 195.9272 169.9082)" font-family="sans-serif" font-size="23.6512">W</text>
	</g>
	<g id="varH" display="inline">
		<text transform="matrix(1 0 0 1 298.5117 118.0566)" font-family="sans-serif" font-size="23.6512">H</text>
		
			<rect x="280.382" y="85.832" fill="none" stroke="#000000" stroke-width="4" stroke-linecap="round" stroke-miterlimit="8" width="56.634" height="53.197"/>
	</g>
	<g id="varT" display="inline">
		
			<rect x="369.636" y="139.672" fill="none" stroke="#000000" stroke-width="4" stroke-linecap="round" stroke-miterlimit="8" width="56.636" height="53.179"/>
		<text transform="matrix(1 0 0 1 387.8262 171.7803)" font-family="sans-serif" font-size="23.6512">T</text>
	</g>
	<g id="points" display="inline">
		<text transform="matrix(1 0 0 1 375.1563 421.1416)" font-family="sans-serif" font-size="23.6512">POINT</text>
		<text transform="matrix(1 0 0 1 375.1563 393.5)" font-family="sans-serif" font-size="23.6512">ANCHOR</text>
		<path stroke="#000000" stroke-width="2" stroke-linejoin="bevel" stroke-miterlimit="10" d="M368.636,398.444h-35.62
			c-0.658,0-1.191-0.517-1.191-1.176c0-0.658,0.533-1.192,1.191-1.192h35.62c0.66,0,1.192,0.534,1.192,1.192
			C369.828,397.928,369.296,398.444,368.636,398.444L368.636,398.444z M335.387,404.393l-23.741-7.124l23.741-7.124V404.393z"/>
	</g>
</g>
<g id="example" display="none">
	<text id="varw1e" transform="matrix(1 0 0 1 94.9272 188.374)" display="inline" font-family="sans-serif" font-size="18">050700ZMAY08 </text>
	<text id="varWe" transform="matrix(1 0 0 1 94.9272 163.9082)" display="inline" font-family="sans-serif" font-size="18">030200ZMAY08 - </text>
	<text id="varHe" transform="matrix(1 0 0 1 300.8379 118.0566)" display="inline" font-family="sans-serif" font-size="24">6</text>
	<text id="varTe" transform="matrix(1 0 0 1 387.8262 171.7803)" display="inline" font-family="sans-serif" font-size="24">14</text>
</g>
</svg>
