<?xml version="1.0" encoding="utf-8"?>
<!-- Generator: Adobe Illustrator 16.0.0, SVG Export Plug-In . SVG Version: 6.00 Build 0)  -->
<!DOCTYPE svg PUBLIC "-//W3C//DTD SVG 1.1//EN" "http://www.w3.org/Graphics/SVG/1.1/DTD/svg11.dtd">
<svg version="1.1" id="Version_1.0" xmlns="http://www.w3.org/2000/svg" xmlns:xlink="http://www.w3.org/1999/xlink" x="0px"
	 y="0px" width="400px" height="400px" viewBox="0 0 400 400" enable-background="new 0 0 400 400" xml:space="preserve">
<g id="main">
	<rect x="56" y="131" fill="none" stroke="#000000" stroke-width="5" width="250" height="75"/>
	<polygon fill="none" stroke="#000000" stroke-width="5" points="308,168 375,98 375,238 	"/>
</g>
<g id="template" display="none">
	<g id="varH" transform="scale(0.75 0.75) translate(-82 66)" display="inline">
		<rect x="417.667" y="128.9" fill="none" stroke="#000000" stroke-width="5" width="50" height="50"/>
		<text transform="matrix(1.3333 0 0 1.3333 429.6653 166.9011)" font-family="sans-serif" font-size="28">H</text>
	</g>
	<g id="varA" transform="scale(0.75 0.75) translate(5 66)" display="inline">
		<rect x="212.849" y="129.012" fill="none" stroke="#000000" stroke-width="5" width="50" height="50"/>
		<text transform="matrix(1.3333 0 0 1.3333 225.8268 166.9011)" font-family="sans-serif" font-size="28">A</text>
	</g>
	<g id="varV" transform="scale(0.75 0.75) translate(96 66)" display="inline">
		<rect x="13.834" y="128.9" fill="none" stroke="#000000" stroke-width="4.5184" width="48.999" height="50"/>
		<text transform="matrix(1.3333 0 0 1.3333 26.8327 166.8998)" font-family="sans-serif" font-size="28">V</text>
	</g>
	<g id="varW1" transform="scale(0.75 0.75) translate(68 158)" display="inline">
		<rect x="193.516" y="130.667" fill="#FFFFFF" stroke="#000000" stroke-width="5" width="79.999" height="50"/>
		<text transform="matrix(1.3333 0 0 1.3333 209.5143 168.6667)" font-family="sans-serif" font-size="28">W1</text>
	</g>
	<g id="varW" transform="scale(0.75 0.75) translate(-44 158)" display="inline">
		<line fill="none" stroke="#000000" stroke-width="5" x1="261.516" y1="155.667" x2="291.516" y2="155.667"/>
		<rect x="197.999" y="130.667" fill="none" stroke="#000000" stroke-width="5" width="50" height="50"/>
		<text transform="matrix(1.3333 0 0 1.3333 205.9844 168.5547)" font-family="sans-serif" font-size="28">W</text>
	</g>
	<g id="points" display="inline">
		<g>
			<g transform="translate(-40 5)">
				<polyline fill="none" stroke="#000000" stroke-width="3" points="426.5,178 431.5,199.5 431.5,239 411.5,259 				"/>
				<polygon stroke="#000000" stroke-width="2" points="418.116,164.872 423.507,179.545 429.261,174.711 				"/>
			</g>
			<g transform="scale(0.75 0.75) translate(208 209.333)">
				<text transform="matrix(1.3333 0 0 1.3333 223.4518 151.7035)" font-family="sans-serif" font-size="18">PT 1</text>
			</g>
		</g>
		<g>
			<g transform="translate(15 28)">
				<polyline fill="none" stroke="#000000" stroke-width="3" points="29.513,158 10.506,173.165 10.506,217.5 				"/>
				<polygon stroke="#000000" stroke-width="3" points="26.903,154.603 38.924,148.239 32.56,160.259 				"/>
			</g>
			<g transform="scale(0.75 0.75) translate(-104 210.667)">
				<text transform="matrix(1.3333 0 0 1.3333 123.3333 141.333)" font-family="sans-serif" font-size="18">PT 2</text>
			</g>
		</g>
	</g>
</g>
<g id="example" display="none">
	<text id="varW1e" transform="matrix(1 0 0 1 79.4883 266.0001)" display="inline" font-family="sans-serif" font-size="28">061600ZJUN07</text>
	<text id="varWe" transform="matrix(1 0 0 1 79.4883 237.9161)" display="inline" font-family="sans-serif" font-size="28">251400ZJUN07 -</text>
	<text id="varHe" transform="matrix(1 0 0 1 260.749 175.1514)" display="inline" font-family="sans-serif" font-size="28">12</text>
	<g id="varAe" display="inline">
		
			<line fill="none" stroke="#000000" stroke-width="3" stroke-linejoin="round" stroke-miterlimit="8" x1="164.402" y1="180.624" x2="164.402" y2="146.231"/>
		
			<line fill="none" stroke="#000000" stroke-width="3" stroke-linejoin="round" stroke-miterlimit="8" x1="211.696" y1="180.624" x2="211.696" y2="146.231"/>
		
			<line fill="none" stroke="#000000" stroke-width="3" stroke-linejoin="round" stroke-miterlimit="8" x1="164.402" y1="180.624" x2="210.762" y2="180.624"/>
		<path fill="none" stroke="#000000" stroke-width="3" stroke-linecap="round" stroke-linejoin="round" stroke-miterlimit="8" d="
			M164.402,147.504c0,5.056,10.376,9.152,23.18,9.152l0,0c12.804,0,23.18-4.097,23.18-9.152"/>
		<path fill="none" stroke="#000000" stroke-width="3" stroke-linecap="round" stroke-linejoin="round" stroke-miterlimit="8" d="
			M177.889,180.624c-2.483,0-4.496,1.906-4.496,4.255c0,2.351,2.013,4.257,4.496,4.257c2.483,0,4.497-1.906,4.497-4.257
			C182.386,182.53,180.373,180.624,177.889,180.624L177.889,180.624z"/>
		<path fill="none" stroke="#000000" stroke-width="3" stroke-linecap="round" stroke-linejoin="round" stroke-miterlimit="8" d="
			M168.898,180.624c-2.483,0-4.496,1.906-4.496,4.255c0,2.351,2.012,4.257,4.496,4.257s4.496-1.906,4.496-4.257
			C173.394,182.53,171.381,180.624,168.898,180.624L168.898,180.624z"/>
		<path fill="none" stroke="#000000" stroke-width="3" stroke-linecap="round" stroke-linejoin="round" stroke-miterlimit="8" d="
			M209.303,180.624c-2.484,0-4.495,1.906-4.495,4.255c0,2.351,2.011,4.257,4.495,4.257c2.482,0,4.496-1.906,4.496-4.257
			C213.799,182.53,211.785,180.624,209.303,180.624L209.303,180.624z"/>
		
			<line fill="none" stroke="#000000" stroke-width="3" stroke-linejoin="round" stroke-miterlimit="8" x1="211.464" y1="165.235" x2="225.477" y2="165.235"/>
		
			<line fill="none" stroke="#000000" stroke-width="3" stroke-linejoin="round" stroke-miterlimit="8" x1="225.477" y1="172.229" x2="225.477" y2="158.239"/>
	</g>
	<text id="varVe" transform="matrix(1 0 0 1 72.1245 175.1514)" display="inline" font-family="sans-serif" font-size="28">M915</text>
</g>
</svg>
