<?xml version="1.0" encoding="utf-8"?>
<!-- Generator: Adobe Illustrator 16.0.0, SVG Export Plug-In . SVG Version: 6.00 Build 0)  -->
<!DOCTYPE svg PUBLIC "-//W3C//DTD SVG 1.1//EN" "http://www.w3.org/Graphics/SVG/1.1/DTD/svg11.dtd">
<svg version="1.1" id="Version_1.0" xmlns="http://www.w3.org/2000/svg" xmlns:xlink="http://www.w3.org/1999/xlink" x="0px"
	 y="0px" width="400px" height="400px" viewBox="0 0 400 400" enable-background="new 0 0 400 400" xml:space="preserve">
<g id="main">
	<polygon fill="none" stroke="#000000" stroke-width="5" points="58,132 58,202 308,202 308,222 383,167 308,112 308,132 	"/>
</g>
<g id="template" display="none">
	<g id="varV" transform="scale(0.75 0.75) translate(96 66)" display="inline">
		<rect x="28.501" y="128.9" fill="none" stroke="#000000" stroke-width="4.5184" width="48.999" height="50"/>
		<text transform="matrix(1.3333 0 0 1.3333 41.4993 166.8998)" font-family="sans-serif" font-size="28">V</text>
	</g>
	<g id="varA" transform="scale(0.75 0.75) translate(5 66)" display="inline">
		<rect x="227.516" y="129.012" fill="none" stroke="#000000" stroke-width="5" width="49.999" height="50"/>
		<text transform="matrix(1.3333 0 0 1.3333 240.4935 166.9011)" font-family="sans-serif" font-size="28">A</text>
	</g>
	<g id="varH" transform="scale(0.75 0.75) translate(-82 66)" display="inline">
		<rect x="432.333" y="128.9" fill="none" stroke="#000000" stroke-width="5" width="50" height="50"/>
		<text transform="matrix(1.3333 0 0 1.3333 444.332 166.9011)" font-family="sans-serif" font-size="28">H</text>
	</g>
	<g id="varW1" transform="scale(0.75 0.75) translate(68 158)" display="inline">
		<rect x="193.516" y="130.667" fill="#FFFFFF" stroke="#000000" stroke-width="5" width="79.999" height="50"/>
		<text transform="matrix(1.3333 0 0 1.3333 209.5143 168.6667)" font-family="sans-serif" font-size="28">W1</text>
	</g>
	<g id="varW" transform="scale(0.75 0.75) translate(-44 158)" display="inline">
		<line fill="none" stroke="#000000" stroke-width="5" x1="261.516" y1="155.667" x2="291.516" y2="155.667"/>
		<rect x="197.999" y="130.667" fill="none" stroke="#000000" stroke-width="5" width="50" height="50"/>
		<text transform="matrix(1.3333 0 0 1.3333 205.9844 168.5547)" font-family="sans-serif" font-size="28">W</text>
	</g>
	<g id="points" display="inline">
		<g>
			<g transform="translate(-40 5)">
				<polyline fill="none" stroke="#000000" stroke-width="3" points="424.5,164 424.5,239 404.5,259 				"/>
				<polygon stroke="#000000" stroke-width="2" points="424.5,164 419.5,178 429.5,178 				"/>
			</g>
			<g transform="scale(0.75 0.75) translate(208 209.333)">
				<text transform="matrix(1.3333 0 0 1.3333 223.4518 151.7035)" font-family="sans-serif" font-size="18">PT 1</text>
			</g>
		</g>
		<g>
			<g transform="translate(15 28)">
				<polyline fill="none" stroke="#000000" stroke-width="3" points="29.513,158 10.506,173.165 10.506,217.5 				"/>
				<polygon stroke="#000000" stroke-width="3" points="26.903,154.603 38.924,148.239 32.56,160.259 				"/>
			</g>
			<g transform="scale(0.75 0.75) translate(-104 210.667)">
				<text transform="matrix(1.3333 0 0 1.3333 123.3333 141.333)" font-family="sans-serif" font-size="18">PT 2</text>
			</g>
		</g>
	</g>
</g>
<g id="example" display="none">
	<text id="varW1e" transform="matrix(1 0 0 1 85.1357 271.0001)" display="inline" font-family="sans-serif" font-size="28">060800ZJUN07</text>
	<text id="varWe" transform="matrix(1 0 0 1 84.4883 237.9161)" display="inline" font-family="sans-serif" font-size="28">060500ZJUN07 -</text>
	<g id="varAe" display="inline">
		
			<line fill="none" stroke="#000000" stroke-width="5" stroke-linejoin="round" stroke-miterlimit="8" x1="181.356" y1="140.175" x2="181.356" y2="188.5"/>
		
			<line fill="none" stroke="#000000" stroke-width="5" stroke-linejoin="round" stroke-miterlimit="8" x1="229.761" y1="140.175" x2="229.761" y2="188.5"/>
		
			<line fill="none" stroke="#000000" stroke-width="5" stroke-linejoin="round" stroke-miterlimit="8" x1="181.356" y1="148.229" x2="229.761" y2="148.229"/>
		
			<line fill="none" stroke="#000000" stroke-width="5" stroke-linejoin="round" stroke-miterlimit="8" x1="181.356" y1="180.444" x2="229.761" y2="180.444"/>
	</g>
	<text id="varHe" transform="matrix(1 0 0 1 271.749 174.6758)" display="inline" font-family="sans-serif" font-size="28">5</text>
	<text id="varVe" transform="matrix(1 0 0 1 77.1245 174.6749)" display="inline" font-family="sans-serif" font-size="28">M1A2</text>
</g>
</svg>
