<?xml version="1.0" encoding="utf-8"?>
<!-- Generator: Adobe Illustrator 16.0.0, SVG Export Plug-In . SVG Version: 6.00 Build 0)  -->
<!DOCTYPE svg PUBLIC "-//W3C//DTD SVG 1.1//EN" "http://www.w3.org/Graphics/SVG/1.1/DTD/svg11.dtd">
<svg version="1.1" id="Version_1.0" xmlns="http://www.w3.org/2000/svg" xmlns:xlink="http://www.w3.org/1999/xlink" x="0px"
	 y="0px" width="400px" height="400px" viewBox="0 0 400 400" enable-background="new 0 0 400 400" xml:space="preserve">
<g id="main" transform="translate(-110 -60) scale(1.25 1.25)">
	<text transform="matrix(0.8 0 0 0.8 212.5992 251.1992)" font-family="'ArialMT'" font-size="25">S</text>
	<text transform="matrix(0.8 0 0 0.8 269.5992 250.1992)" font-family="'ArialMT'" font-size="25">S</text>
	<g>
		<g>
			<polyline fill="none" stroke="#000000" stroke-width="2" points="293.6,243.2 364.918,243.2 354.373,252.836 394.813,252.836 			
				"/>
			<g>
				<path d="M383.877,260.516c-0.237-0.372-0.127-0.867,0.245-1.105l10.324-6.575l-10.324-6.575
					c-0.373-0.238-0.483-0.733-0.245-1.105c0.238-0.372,0.734-0.48,1.105-0.245l11.384,7.25c0.23,0.147,0.37,0.402,0.37,0.675
					s-0.14,0.528-0.37,0.675l-11.384,7.25c-0.133,0.084-0.282,0.125-0.429,0.125C384.289,260.886,384.03,260.755,383.877,260.516z"
					/>
			</g>
		</g>
	</g>
	<g>
		<g>
			<polyline fill="none" stroke="#000000" stroke-width="2" points="203.266,243.533 131.948,243.533 144.133,253.533 
				103.391,253.533 			"/>
			<g>
				<path d="M114.325,245.853c0.237,0.372,0.127,0.867-0.245,1.105l-10.324,6.575l10.324,6.575c0.373,0.237,0.483,0.733,0.245,1.105
					c-0.238,0.373-0.735,0.48-1.105,0.245l-11.384-7.25c-0.23-0.147-0.37-0.402-0.37-0.675c0-0.273,0.14-0.528,0.37-0.675
					l11.384-7.25c0.133-0.084,0.282-0.125,0.429-0.125C113.914,245.483,114.172,245.614,114.325,245.853z"/>
			</g>
		</g>
	</g>
</g>
<g id="template" display="none">
	<g id="varA" transform="translate(135 114)">
		<rect x="53.25" y="115" display="inline" fill="#FFFFFF" stroke="#000000" stroke-width="2" width="25" height="25"/>
		<text transform="matrix(1 0 0 1 57.1348 136.1133)" display="inline" font-family="'ArialMT'" font-size="25">A</text>
	</g>
	<g id="points" display="inline">
		<g>
			<g id="_x3C_group_x3E_" transform="translate(6 74)">
				<text transform="matrix(1 0 0 1 175.999 76.249)" font-family="'ArialMT'" font-size="18.75">PT. 1</text>
				<text transform="matrix(1 0 0 1 143.499 97.499)" font-family="'ArialMT'" font-size="18.75">(CENTER PT.)</text>
			</g>
			<g>
				<g>
					<line fill="none" stroke="#000000" stroke-width="2" x1="202" y1="227.147" x2="202" y2="181.5"/>
					<g>
						<polygon points="211.973,224.229 202,241.5 192.027,224.229 						"/>
					</g>
				</g>
			</g>
		</g>
		<g>
			<text transform="matrix(1 0 0 1 324.499 201.499)" font-family="'ArialMT'" font-size="18.75">PT. 3</text>
			<g>
				<g>
					<polyline fill="none" stroke="#000000" stroke-width="2" points="385,236.147 385,226.482 349.5,204 					"/>
					<g>
						<polygon points="394.973,233.229 385,250.5 375.027,233.229 						"/>
					</g>
				</g>
			</g>
		</g>
		<g>
			<text transform="matrix(1 0 0 1 19.249 207.999)" font-family="'ArialMT'" font-size="18.75">PT. 2</text>
			<g>
				<g>
					<polyline fill="none" stroke="#000000" stroke-width="2" points="18,235.897 18,228.732 39.063,212 					"/>
					<g>
						<polygon points="27.973,232.979 18,250.25 8.027,232.979 						"/>
					</g>
				</g>
			</g>
		</g>
	</g>
</g>
<g id="example" display="none">
	<g id="varAe" display="inline">
		
			<rect id="_x3C_path_x3E__1_" x="178.989" y="229.118" fill="#C7C8CA" stroke="#939598" stroke-width="2" width="41.261" height="27.507"/>
		<g id="main_2_">
			<line fill="none" stroke="#939598" stroke-width="2" x1="179.037" y1="256.625" x2="220.184" y2="229.118"/>
			<path fill="none" stroke="#939598" stroke-width="2" d="M192.733,237.57c-6.876,0-6.876,10.604,0,10.604h13.753
				c6.877,0,6.877-10.604,0-10.604H192.733z"/>
		</g>
		
			<text transform="matrix(1 0 0 1 198.5498 224.6904)" stroke="#939598" stroke-miterlimit="10" font-family="'ArialMT'" font-size="12">II</text>
	</g>
	<g display="inline">
		<line fill="none" stroke="#808080" stroke-width="2" x1="385.92" y1="141.167" x2="385.92" y2="318.501"/>
		<g>
			<rect x="376.587" y="221.241" fill="#FFFFFF" width="18.666" height="22.187"/>
			
				<text transform="matrix(4.489659e-011 -1 1 4.489659e-011 391.2539 239.9072)" fill="#808080" font-family="'ArialMT'" font-size="14">XX</text>
		</g>
	</g>
	<g display="inline">
		<line fill="none" stroke="#808080" stroke-width="2" x1="15.833" y1="143.668" x2="15.833" y2="321.002"/>
		<g>
			<rect x="6.5" y="223.742" fill="#FFFFFF" width="18.666" height="22.186"/>
			
				<text transform="matrix(4.489659e-011 -1 1 4.489659e-011 21.167 242.4072)" fill="#808080" font-family="'ArialMT'" font-size="14">XX</text>
		</g>
	</g>
</g>
</svg>
