<?xml version="1.0" encoding="utf-8"?>
<!-- Generator: Adobe Illustrator 16.0.0, SVG Export Plug-In . SVG Version: 6.00 Build 0)  -->
<!DOCTYPE svg PUBLIC "-//W3C//DTD SVG 1.1//EN" "http://www.w3.org/Graphics/SVG/1.1/DTD/svg11.dtd">
<svg version="1.1" id="Version_1.0" xmlns="http://www.w3.org/2000/svg" xmlns:xlink="http://www.w3.org/1999/xlink" x="0px"
	 y="0px" width="400px" height="400px" viewBox="0 0 400 400" enable-background="new 0 0 400 400" xml:space="preserve">
<g id="main">
	<g transform="translate(65 54)">
		<circle fill="#FFFFFF" stroke="#000000" stroke-width="2" cx="14.251" cy="64.625" r="33.25"/>
		<path fill="none" stroke="#000000" stroke-width="2" d="M49.251,64.625c114.401,3.455,230.205,52.57,245,181.125"/>
		<line fill="none" stroke="#000000" stroke-width="2" x1="262.434" y1="222.527" x2="294.571" y2="246.393"/>
		<line fill="none" stroke="#000000" stroke-width="2" x1="292.98" y1="246.393" x2="319.704" y2="221.574"/>
	</g>
	<g transform="translate(62 -28) translate(-4 -4)">
		<rect x="188" y="170" fill="#FFFFFF" stroke="#FFFFFF" width="35" height="35"/>
		<text transform="matrix(1 0 0 1 194.3281 200)" font-family="sans-serif" font-size="35">S</text>
	</g>
</g>
<g id="template" display="none">
	<g id="varA" transform="translate(92 -35) translate(2 2)" display="inline">
		<rect x="-28.749" y="138.5" fill="#FFFFFF" stroke="#000000" stroke-width="2" width="28" height="28"/>
		<text transform="matrix(1 0 0 1 -23.5005 161.25)" font-family="sans-serif" font-size="26.2487">A</text>
	</g>
	<g id="points" transform="translate(-240 -220) scale(1.75 1.75)" display="inline">
		<g id="_x3C_group_x3E_" transform="translate(63 6)">
			<text transform="matrix(0.5714 0 0 0.5714 113.428 273)" font-family="sans-serif" font-size="26.2474">PT. 1</text>
			<text transform="matrix(0.5714 0 0 0.5714 82.8566 287.8571)" font-family="sans-serif" font-size="26.2474">(CENTER PT.)</text>
		</g>
		<text transform="matrix(0.5714 0 0 0.5714 267.428 278)" font-family="sans-serif" font-size="26.2474">PT. 2</text>
		<line fill="none" stroke="#000000" stroke-width="2" x1="179.429" y1="223" x2="179.429" y2="251"/>
		<line fill="none" stroke="#000000" stroke-width="2" x1="179.331" y1="250.289" x2="189.429" y2="265"/>
		<line fill="none" stroke="#000000" stroke-width="2" x1="331.429" y1="301" x2="313.429" y2="301"/>
		<line fill="none" stroke="#000000" stroke-width="2" x1="314.21" y1="301.133" x2="293.429" y2="281"/>
		<polygon stroke="#000000" stroke-width="2" points="179.429,219 184.429,230 174.429,230 		"/>
		<polygon stroke="#000000" stroke-width="2" points="338.294,299.865 327.294,304.865 327.294,294.865 		"/>
		<text transform="matrix(0.5714 0 0 0.5714 265.7143 195.4286)" font-family="sans-serif" font-size="24.9988">PT. 3</text>
	</g>
</g>
<g id="example" display="none">
	<g id="varAe_1_" display="inline">
		<g id="frame_2_">
			
				<rect id="_x3C_path_x3E__2_" x="58.199" y="107.96" fill="#80E0FF" stroke="#000000" stroke-width="2" width="41.261" height="27.507"/>
		</g>
		<g id="main_1_">
			<line fill="none" stroke="#000000" stroke-width="2" x1="58.247" y1="135.467" x2="99.394" y2="107.96"/>
			<path fill="none" stroke="#000000" stroke-width="2" d="M71.943,116.413c-6.876,0-6.876,10.604,0,10.604h13.753
				c6.877,0,6.877-10.604,0-10.604H71.943z"/>
		</g>
		<text transform="matrix(1 0 0 1 75.7598 103.5327)" font-family="sans-serif" font-size="12">X</text>
	</g>
</g>
</svg>
