<?xml version="1.0" encoding="utf-8"?>
<!-- Generator: Adobe Illustrator 16.0.0, SVG Export Plug-In . SVG Version: 6.00 Build 0)  -->
<!DOCTYPE svg PUBLIC "-//W3C//DTD SVG 1.1//EN" "http://www.w3.org/Graphics/SVG/1.1/DTD/svg11.dtd">
<svg version="1.1" id="Version_1.0" xmlns="http://www.w3.org/2000/svg" xmlns:xlink="http://www.w3.org/1999/xlink" x="0px"
	 y="0px" width="400px" height="400px" viewBox="0 0 400 400" enable-background="new 0 0 400 400" xml:space="preserve">
<g id="main">
	<path fill="none" stroke="#000000" stroke-width="2" d="M105.838,195.867C128.893,13.1,390.387,45.06,382.338,214.066
		c-6.03,126.617-191.758,174.385-261.1,51.801"/>
	<polyline fill="none" stroke="#000000" stroke-width="2" points="119.25,148.5 169.652,147.896 147.25,108.25 	"/>
	<polyline fill="none" stroke="#000000" stroke-width="2" points="215.5,75 237.602,112.126 262.75,73.867 	"/>
	<polyline fill="none" stroke="#000000" stroke-width="2" points="163,311.25 197.232,283.038 200.619,330.859 	"/>
	<polyline fill="none" stroke="#000000" stroke-width="2" points="248.945,336.305 273.195,290.305 295.523,326.523 	"/>
	<polyline fill="none" stroke="#000000" stroke-width="2" points="332.75,102.746 310.121,140.645 366,141.5 	"/>
	<polyline fill="none" stroke="#000000" stroke-width="2" points="380,180 343.25,204.723 380,230.75 	"/>
	<polyline fill="none" stroke="#000000" stroke-width="2" points="371.06,260.073 319.806,260.674 343.25,297.25 	"/>
	<polyline fill="none" stroke="#000000" stroke-width="2" points="121,309.5 121.238,265.867 156.729,265.447 	"/>
	<g transform="translate(182 32) translate(0 -1)">
		<rect x="191" y="157" fill="#FFFFFF" stroke="#FFFFFF" width="25" height="35"/>
		<text transform="matrix(1 0 0 1 194.1377 187)" font-family="sans-serif" font-size="35">I</text>
	</g>
</g>
<g id="template" display="none">
	<g display="inline">
		<ellipse stroke="#000000" cx="246.098" cy="204.414" rx="2.985" ry="2.934"/>
		<text transform="matrix(1 0 0 1 218 232)" font-family="sans-serif" font-size="21">PT. 1</text>
		<text transform="matrix(1 0 0 1 145.5 253.5)" font-family="sans-serif" font-size="21">(CENTER POINT)</text>
	</g>
	<g display="inline">
		<line fill="none" stroke="#000000" stroke-width="2" x1="82.5" y1="185.25" x2="51" y2="153.75"/>
		<line fill="none" stroke="#000000" stroke-width="2" x1="51.486" y1="155.106" x2="52.458" y2="110.773"/>
		<polygon stroke="#000000" stroke-width="2" points="88.269,191.485 70.775,187.174 82.688,174.354 		"/>
		<g id="_x3C_group_x3E_" transform="matrix(1.75 0 0 1.75 -100.25 -27.5)">
			<text transform="matrix(0.5714 0 0 0.5714 71.428 43.5714)" font-family="sans-serif" font-size="20.9978">PT. 2</text>
			<text transform="matrix(0.5714 0 0 0.5714 63.428 55.5714)" font-family="sans-serif" font-size="20.9978">(START</text>
			<text transform="matrix(0.5714 0 0 0.5714 64.428 70.5714)" font-family="sans-serif" font-size="20.9978">POINT)</text>
		</g>
	</g>
</g>
<g id="example" display="none">
	<g id="frame" display="inline">
		<polyline id="_x3C_path_x3E_" fill="#FF8080" stroke="#000000" stroke-width="5" stroke-linecap="square" points="
			240.124,253.073 285.652,207.545 240.124,162.018 194.597,207.545 240.124,253.073 		"/>
	</g>
	<g id="main_1_" display="inline">
		<line fill="none" stroke="#000000" stroke-width="5" x1="217.492" y1="230.572" x2="262.362" y2="185.044"/>
		<line fill="none" stroke="#000000" stroke-width="5" x1="217.492" y1="185.044" x2="262.362" y2="230.572"/>
	</g>
	<text transform="matrix(1 0 0 1 232.3994 157.1406)" display="inline" font-family="sans-serif" font-size="26.7097">II</text>
</g>
</svg>
