<?xml version="1.0" encoding="utf-8"?>
<!-- Generator: Adobe Illustrator 16.0.0, SVG Export Plug-In . SVG Version: 6.00 Build 0)  -->
<!DOCTYPE svg PUBLIC "-//W3C//DTD SVG 1.1//EN" "http://www.w3.org/Graphics/SVG/1.1/DTD/svg11.dtd">
<svg version="1.1" id="Version_1.0" xmlns="http://www.w3.org/2000/svg" xmlns:xlink="http://www.w3.org/1999/xlink" x="0px"
	 y="0px" width="400px" height="400px" viewBox="0 0 400 400" enable-background="new 0 0 400 400" xml:space="preserve">
<g id="main">
	<line fill="none" stroke="#000000" stroke-width="2" x1="27.153" y1="200.5" x2="287" y2="200.5"/>
	<g>
		<rect x="150.75" y="189.121" fill="#FFFFFF" width="33.75" height="24.379"/>
		<text transform="matrix(1 0 0 1 160.5 209.25)" font-family="sans-serif" font-size="24.5">B</text>
	</g>
	<line fill="none" stroke="#000000" stroke-width="2" x1="287" y1="88.5" x2="287" y2="312.5"/>
</g>
<g id="template" display="none">
	<g display="inline">
		<line fill="none" stroke="#000000" stroke-width="2" x1="218.75" y1="107.75" x2="267.75" y2="95.5"/>
		<polygon stroke="#000000" stroke-width="2" points="275.749,92.283 264.112,106.039 257.922,89.67 		"/>
		<text transform="matrix(1 0 0 1 159.25 116.5)" font-family="sans-serif" font-size="21">PT. 1</text>
	</g>
	<g display="inline">
		<line fill="none" stroke="#000000" stroke-width="2" x1="222.25" y1="290.495" x2="271.25" y2="302.745"/>
		<polygon stroke="#000000" stroke-width="2" points="279.249,305.961 267.612,292.205 261.422,308.574 		"/>
		<text transform="matrix(1 0 0 1 157.5 293.25)" font-family="sans-serif" font-size="21">PT. 2</text>
	</g>
	<g display="inline">
		<polygon stroke="#000000" stroke-width="2" points="27.536,192.121 24,173.525 43.341,181.705 		"/>
		<line fill="none" stroke="#000000" stroke-width="2" x1="27.153" y1="188.25" x2="55.153" y2="139.25"/>
		<text transform="matrix(1 0 0 1 48.1528 134)" font-family="sans-serif" font-size="21">PT. 3</text>
	</g>
</g>
<g id="example" display="none">
	
		<polyline id="_x3C_path_x3E_" display="inline" fill="#FF8080" stroke="#000000" stroke-width="3" stroke-linecap="square" points="
		354.154,238.297 392.451,200 354.154,161.703 315.856,200 354.154,238.297 	"/>
	<path display="inline" fill="none" stroke="#000000" stroke-width="3" d="M341.879,210.184c-5.068,0-9.177-4.424-9.177-9.879
		c0-5.456,4.108-9.879,9.177-9.879"/>
	<path display="inline" fill="none" stroke="#000000" stroke-width="3" d="M366.429,190.425c5.068,0,9.177,4.423,9.177,9.879
		c0,5.456-4.108,9.879-9.177,9.879"/>
	<line display="inline" fill="none" stroke="#000000" stroke-width="3" x1="341.879" y1="190.425" x2="366.429" y2="190.425"/>
	<line display="inline" fill="none" stroke="#000000" stroke-width="3" x1="341.879" y1="210.184" x2="366.429" y2="210.184"/>
	<text transform="matrix(1 0 0 1 347.6934 153.25)" display="inline" font-family="sans-serif" font-size="24.5">II</text>
</g>
</svg>
