<?xml version="1.0" encoding="utf-8"?>
<!-- Generator: Adobe Illustrator 16.0.0, SVG Export Plug-In . SVG Version: 6.00 Build 0)  -->
<!DOCTYPE svg PUBLIC "-//W3C//DTD SVG 1.1//EN" "http://www.w3.org/Graphics/SVG/1.1/DTD/svg11.dtd">
<svg version="1.1" id="Version_1.0" xmlns="http://www.w3.org/2000/svg" xmlns:xlink="http://www.w3.org/1999/xlink" x="0px"
	 y="0px" width="400px" height="400px" viewBox="0 0 400 400" enable-background="new 0 0 400 400" xml:space="preserve">
<g id="main" transform="translate(65 54)">
	<circle fill="#FFFFFF" stroke="#000000" stroke-width="2" cx="14.251" cy="83.625" r="33.25"/>
	<path fill="none" stroke="#000000" stroke-width="2" d="M49.251,83.625c114.401,3.454,230.205,52.57,245,181.125"/>
	<line fill="none" stroke="#000000" stroke-width="2" x1="262.434" y1="241.527" x2="294.571" y2="265.393"/>
	<line fill="none" stroke="#000000" stroke-width="2" x1="292.98" y1="265.393" x2="319.704" y2="240.574"/>
	<g transform="translate(55 -34)">
		<rect x="123" y="135" fill="#FFFFFF" stroke="#FFFFFF" width="35" height="35"/>
		<text transform="matrix(1 0 0 1 129.3281 165)" font-family="sans-serif" font-size="35">S</text>
	</g>
</g>
<g id="template" display="none">
	<g id="varA" transform="translate(92 -35) translate(2 2)" display="inline">
		<rect x="-28.749" y="157.5" fill="#FFFFFF" stroke="#000000" stroke-width="2" width="28" height="28"/>
		<text transform="matrix(1 0 0 1 -23.5005 180.25)" font-family="sans-serif" font-size="26.2487">A</text>
	</g>
	<g id="points" transform="translate(-240 -220) scale(1.75 1.75)" display="inline">
		<g id="_x3C_group_x3E_" transform="translate(63 6) translate(0 -15.4286)">
			<text transform="matrix(0.5714 0 0 0.5714 113.4277 283.8572)" font-family="sans-serif" font-size="26.2461">PT. 1</text>
			<text transform="matrix(0.5714 0 0 0.5714 82.8563 298.7143)" font-family="sans-serif" font-size="26.2461">(CENTER PT.)</text>
		</g>
		<text transform="matrix(0.5714 0 0 0.5714 275.428 289.4291)" font-family="sans-serif" font-size="26.2461">PT. 4</text>
		<text transform="matrix(0.5714 0 0 0.5714 198.2849 176.2863)" font-family="sans-serif" font-size="26.2461">PT. 2</text>
		<g transform="translate(2.85714 -14.8571)">
			<line fill="none" stroke="#000000" stroke-width="2" x1="179.429" y1="233.857" x2="179.429" y2="261.857"/>
			<line fill="none" stroke="#000000" stroke-width="2" x1="179.331" y1="261.146" x2="189.429" y2="275.857"/>
			<polygon stroke="#000000" stroke-width="2" points="179.429,229.857 184.429,240.857 174.429,240.857 			"/>
		</g>
		<line fill="none" stroke="#000000" stroke-width="2" x1="331.429" y1="311.857" x2="313.429" y2="311.857"/>
		<line fill="none" stroke="#000000" stroke-width="2" x1="314.21" y1="311.99" x2="293.429" y2="291.857"/>
		<text transform="matrix(0.5714 0 0 0.5714 265.7143 206.2857)" font-family="sans-serif" font-size="24.9976">PT. 3</text>
		
			<g transform="translate(-44.4444 9.6) translate(0 4.8) translate(-79 -111) scale(1.4) translate(-72.8571 -56.4286) rotate(20.3622 248 187.692) translate(-0.269181 5.43317)">
			<line fill="none" stroke="#000000" stroke-width="2" x1="331.965" y1="234.009" x2="331.964" y2="222.01"/>
			<polygon stroke="#000000" stroke-width="2" points="331.965,237.657 334.822,229.657 329.107,229.657 			"/>
		</g>
		<polygon stroke="#000000" stroke-width="2" points="338.294,310.722 327.294,315.722 327.294,305.722 		"/>
	</g>
</g>
<g id="example" display="none">
	<g id="varAe" display="inline">
		<g id="frame_1_">
			
				<rect id="_x3C_path_x3E__1_" x="58.199" y="125.96" fill="#80E0FF" stroke="#000000" stroke-width="2" width="41.261" height="27.507"/>
		</g>
		<g id="main_2_">
			<line fill="none" stroke="#000000" stroke-width="2" x1="58.247" y1="153.467" x2="99.394" y2="125.96"/>
			<path fill="none" stroke="#000000" stroke-width="2" d="M71.943,134.412c-6.876,0-6.876,10.604,0,10.604h13.753
				c6.877,0,6.877-10.604,0-10.604H71.943z"/>
		</g>
		<text transform="matrix(1 0 0 1 77.7598 121.5326)" font-family="sans-serif" font-size="12">X</text>
	</g>
</g>
</svg>
