<?xml version="1.0" encoding="utf-8"?>
<!-- Generator: Adobe Illustrator 16.0.0, SVG Export Plug-In . SVG Version: 6.00 Build 0)  -->
<!DOCTYPE svg PUBLIC "-//W3C//DTD SVG 1.1//EN" "http://www.w3.org/Graphics/SVG/1.1/DTD/svg11.dtd">
<svg version="1.1" id="Version_1.0" xmlns="http://www.w3.org/2000/svg" xmlns:xlink="http://www.w3.org/1999/xlink" x="0px"
	 y="0px" width="400px" height="400px" viewBox="0 0 400 400" enable-background="new 0 0 400 400" xml:space="preserve">
<g id="main" transform="translate(-110 -80) scale(1.25 1.25)">
	<path fill="none" stroke="#000000" stroke-width="2" d="M315.4,154.6c80.069,0,98.652,105.535-6,111"/>
	<line fill="none" stroke="#000000" stroke-width="2" x1="309.4" y1="265.6" x2="244" y2="265.6"/>
	<line fill="none" stroke="#000000" stroke-width="2" x1="201.4" y1="265.6" x2="122.4" y2="265.6"/>
	<line fill="none" stroke="#000000" stroke-width="2" x1="123.4" y1="265.6" x2="137.4" y2="253.6"/>
	<line fill="none" stroke="#000000" stroke-width="2" x1="123.387" y1="266.333" x2="135.787" y2="279.133"/>
	<text transform="matrix(0.8 0 0 0.8 205.3992 269.9992)" font-family="sans-serif" font-size="25">WP</text>
</g>
<g id="template" display="none">
	<g display="inline">
		<line fill="none" stroke="#000000" stroke-width="2" x1="278" y1="105.75" x2="261.75" y2="90.107"/>
		<line fill="none" stroke="#000000" stroke-width="2" x1="263" y1="90.75" x2="223" y2="90.75"/>
		<polygon stroke="#000000" stroke-width="2" points="282.395,110.144 265.584,100.413 274.018,92.951 		"/>
		<text transform="matrix(1 0 0 1 177.999 95.749)" font-family="sans-serif" font-size="15">PT 3</text>
	</g>
	<g display="inline">
		<line fill="none" stroke="#000000" stroke-width="2" x1="280.5" y1="263.25" x2="280.5" y2="288.25"/>
		<line fill="none" stroke="#000000" stroke-width="2" x1="281.055" y1="287.164" x2="263" y2="299.5"/>
		<polygon stroke="#000000" stroke-width="2" points="280.5,255.75 288,278.25 273,278.25 		"/>
		<text transform="matrix(1 0 0 1 219.249 310.749)" font-family="sans-serif" font-size="15">PT 2</text>
	</g>
	<g display="inline">
		<line fill="none" stroke="#000000" stroke-width="2" x1="40.5" y1="264.5" x2="40.5" y2="289.5"/>
		<line fill="none" stroke="#000000" stroke-width="2" x1="39.889" y1="288.691" x2="65.5" y2="305.75"/>
		<polygon stroke="#000000" stroke-width="2" points="40.5,259.5 48,282 33,282 		"/>
		<text transform="matrix(1 0 0 1 66.749 310.749)" font-family="sans-serif" font-size="15">PT 1</text>
	</g>
</g>
</svg>
