<?xml version="1.0" encoding="utf-8"?>
<!-- Generator: Adobe Illustrator 16.0.0, SVG Export Plug-In . SVG Version: 6.00 Build 0)  -->
<!DOCTYPE svg PUBLIC "-//W3C//DTD SVG 1.1//EN" "http://www.w3.org/Graphics/SVG/1.1/DTD/svg11.dtd">
<svg version="1.1" id="Version_1.0" xmlns="http://www.w3.org/2000/svg" xmlns:xlink="http://www.w3.org/1999/xlink" x="0px"
	 y="0px" width="400px" height="400px" viewBox="0 0 400 400" enable-background="new 0 0 400 400" xml:space="preserve">
<g id="main" transform="translate(-110 -80) scale(1.25 1.25)">
	<path fill="none" stroke="#000000" stroke-width="2" d="M295.2,167.2c80.069,0,98.652,105.535-6,111"/>
	<line fill="none" stroke="#000000" stroke-width="2" x1="295.2" y1="167.2" x2="142.734" y2="167.287"/>
	<line fill="none" stroke="#000000" stroke-width="2" x1="290.2" y1="278.2" x2="142.2" y2="278.2"/>
	<line fill="none" stroke="#000000" stroke-width="2" x1="142.634" y1="166.687" x2="158.2" y2="184.2"/>
	<line fill="none" stroke="#000000" stroke-width="2" x1="142.434" y1="167.887" x2="158.2" y2="153.2"/>
	<line fill="none" stroke="#000000" stroke-width="2" x1="289.773" y1="278.127" x2="278.2" y2="263.2"/>
	<line fill="none" stroke="#000000" stroke-width="2" x1="289.273" y1="278.427" x2="275.773" y2="291.927"/>
	<text transform="matrix(0.8 0 0 0.8 196.5992 239.5328)" font-family="sans-serif" font-size="53.75">RIP</text>
</g>
<g id="template" display="none">
	<g display="inline">
		<line fill="none" stroke="#000000" stroke-width="2" x1="69" y1="279" x2="69" y2="300.25"/>
		<line fill="none" stroke="#000000" stroke-width="2" x1="68.505" y1="299.277" x2="86.5" y2="315.25"/>
		<polygon stroke="#000000" stroke-width="2" points="69,270.25 75.25,281.5 62.75,281.5 		"/>
		<text transform="matrix(1 0 0 1 70.249 330.249)" font-family="sans-serif" font-size="15">PT. 4</text>
	</g>
	<g display="inline">
		<line fill="none" stroke="#000000" stroke-width="2" x1="255.165" y1="281.5" x2="255.165" y2="302.75"/>
		<line fill="none" stroke="#000000" stroke-width="2" x1="255.66" y1="301.777" x2="237.665" y2="317.75"/>
		<polygon stroke="#000000" stroke-width="2" points="255.165,272.75 248.915,284 261.415,284 		"/>
		<text transform="matrix(1 0 0 1 212.749 332.749)" font-family="sans-serif" font-size="15">PT. 3</text>
	</g>
	<g display="inline">
		<line fill="none" stroke="#000000" stroke-width="2" x1="261.415" y1="114.836" x2="261.415" y2="93.586"/>
		<line fill="none" stroke="#000000" stroke-width="2" x1="261.91" y1="94.559" x2="243.915" y2="78.586"/>
		<polygon stroke="#000000" stroke-width="2" points="261.415,123.587 255.165,112.337 267.665,112.337 		"/>
		<text transform="matrix(1 0 0 1 220.249 72.749)" font-family="sans-serif" font-size="15">PT. 2</text>
	</g>
	<g display="inline">
		<line fill="none" stroke="#000000" stroke-width="2" x1="66.5" y1="114.836" x2="66.5" y2="93.586"/>
		<line fill="none" stroke="#000000" stroke-width="2" x1="66.005" y1="94.559" x2="84" y2="78.586"/>
		<polygon stroke="#000000" stroke-width="2" points="66.5,123.587 72.75,112.337 60.25,112.337 		"/>
		<text transform="matrix(1 0 0 1 62.749 72.749)" font-family="sans-serif" font-size="15">PT. 1</text>
	</g>
</g>
<g id="example" display="none">
	<g display="inline">
		<g id="frame">
			
				<rect id="_x3C_path_x3E_" x="348.939" y="183.928" fill="#80E0FF" stroke="#000000" stroke-width="2" width="41.261" height="27.507"/>
		</g>
		<g id="main_1_">
			<line fill="none" stroke="#000000" stroke-width="2" x1="348.987" y1="183.928" x2="390.133" y2="211.435"/>
			<line fill="none" stroke="#000000" stroke-width="2" x1="348.987" y1="211.435" x2="390.133" y2="183.928"/>
			<path fill="none" stroke="#000000" stroke-width="2" d="M362.684,192.38c-6.876,0-6.876,10.607,0,10.607h13.754
				c6.877,0,6.877-10.607,0-10.607H362.684z"/>
		</g>
		<text transform="matrix(1 0 0 1 365.5 179.5)" font-family="sans-serif" font-size="12">X</text>
	</g>
	<g display="inline">
		<g id="frame_1_">
			
				<rect id="_x3C_path_x3E__1_" x="19.989" y="253.118" fill="#80E0FF" stroke="#000000" stroke-width="2" width="41.261" height="27.507"/>
		</g>
		<g id="main_2_">
			<line fill="none" stroke="#000000" stroke-width="2" x1="20.037" y1="253.118" x2="61.183" y2="280.625"/>
			<line fill="none" stroke="#000000" stroke-width="2" x1="20.037" y1="280.625" x2="61.183" y2="253.118"/>
			<path fill="none" stroke="#000000" stroke-width="2" d="M33.733,261.571c-6.876,0-6.876,10.606,0,10.606h13.754
				c6.877,0,6.877-10.606,0-10.606H33.733z"/>
		</g>
		<text transform="matrix(1 0 0 1 36.5498 248.6904)" font-family="sans-serif" font-size="12">X</text>
	</g>
</g>
</svg>
