<?xml version="1.0" encoding="utf-8"?>
<!-- Generator: Adobe Illustrator 16.0.0, SVG Export Plug-In . SVG Version: 6.00 Build 0)  -->
<!DOCTYPE svg PUBLIC "-//W3C//DTD SVG 1.1//EN" "http://www.w3.org/Graphics/SVG/1.1/DTD/svg11.dtd">
<svg version="1.1" id="Version_1.0" xmlns="http://www.w3.org/2000/svg" xmlns:xlink="http://www.w3.org/1999/xlink" x="0px"
	 y="0px" width="400px" height="400px" viewBox="0 0 400 400" enable-background="new 0 0 400 400" xml:space="preserve">
<g id="main" transform="translate(65 54)">
	<circle fill="#FFFFFF" stroke="#000000" stroke-width="2" cx="14.251" cy="83.625" r="33.25"/>
	<path fill="none" stroke="#000000" stroke-width="2" d="M49.251,83.625c114.401,3.454,230.205,52.57,245,181.125"/>
	<line fill="none" stroke="#000000" stroke-width="2" x1="262.434" y1="241.527" x2="294.571" y2="265.393"/>
	<line fill="none" stroke="#000000" stroke-width="2" x1="292.98" y1="265.393" x2="319.704" y2="240.574"/>
	<g transform="translate(55 -34)">
		<rect x="123" y="135" fill="#FFFFFF" stroke="#FFFFFF" width="35" height="35"/>
		<text transform="matrix(1 0 0 1 129.3281 165)" font-family="'ArialMT'" font-size="35">S</text>
	</g>
</g>
<g id="template" display="none">
	<g id="varA" transform="translate(92 -35) translate(2 2)">
		<rect x="-28.749" y="157.5" display="inline" fill="#FFFFFF" stroke="#000000" stroke-width="2" width="28" height="28"/>
		<text transform="matrix(1 0 0 1 -23.5005 180.25)" display="inline" font-family="'ArialMT'" font-size="26.2487">A</text>
	</g>
	<g id="points" transform="translate(-240 -220) scale(1.75 1.75)" display="inline">
		<g id="_x3C_group_x3E_" transform="translate(63 6) translate(0 -15.4286)">
			<text transform="matrix(0.5714 0 0 0.5714 125.7129 265.5357)" font-family="'ArialMT'" font-size="26.2435">PT. 1</text>
			<text transform="matrix(0.5714 0 0 0.5714 95.1415 280.3929)" font-family="'ArialMT'" font-size="26.2435">(CENTER PT.)</text>
		</g>
		<text transform="matrix(0.5714 0 0 0.5714 275.4275 286.572)" font-family="'ArialMT'" font-size="26.2435">PT. 4</text>
		<text transform="matrix(0.5714 0 0 0.5714 198.2843 176.2863)" font-family="'ArialMT'" font-size="26.2435">PT. 2</text>
		<g>
			<g>
				<line fill="none" stroke="#000000" stroke-width="2" x1="184.068" y1="209.917" x2="202.09" y2="242.757"/>
				<g>
					<polygon points="179.874,214.12 180.122,202.727 189.866,208.637 					"/>
				</g>
			</g>
		</g>
		<g>
			<g>
				<polyline fill="none" stroke="#000000" stroke-width="2" points="332.359,308.429 321.714,308.429 292.286,288.429 				"/>
				<g>
					<polygon points="330.691,302.73 340.56,308.429 330.691,314.127 					"/>
				</g>
			</g>
		</g>
		<text transform="matrix(0.5714 0 0 0.5714 265.7132 206.2857)" font-family="'ArialMT'" font-size="24.9952">PT. 3</text>
		<g>
			<g>
				<line fill="none" stroke="#000000" stroke-width="2" x1="206.958" y1="193.779" x2="212.242" y2="180.114"/>
				<g>
					<polygon points="212.874,194.279 204,201.429 202.244,190.169 					"/>
				</g>
			</g>
		</g>
	</g>
</g>
<g id="example" display="none">
	<g id="varAe" display="inline">
		
			<rect id="_x3C_path_x3E__1_" x="58.199" y="125.96" fill="#C7C8CA" stroke="#939598" stroke-width="2" width="41.261" height="27.507"/>
		<g id="main_2_">
			<line fill="none" stroke="#939598" stroke-width="2" x1="58.247" y1="153.467" x2="99.394" y2="125.96"/>
			<path fill="none" stroke="#939598" stroke-width="2" d="M71.943,134.412c-6.876,0-6.876,10.604,0,10.604h13.753
				c6.877,0,6.877-10.604,0-10.604H71.943z"/>
		</g>
		
			<text transform="matrix(1 0 0 1 77.7598 121.5322)" stroke="#939598" stroke-miterlimit="10" font-family="'ArialMT'" font-size="12">X</text>
	</g>
</g>
</svg>
