<?xml version="1.0" encoding="utf-8"?>
<!-- Generator: Adobe Illustrator 16.0.0, SVG Export Plug-In . SVG Version: 6.00 Build 0)  -->
<!DOCTYPE svg PUBLIC "-//W3C//DTD SVG 1.1//EN" "http://www.w3.org/Graphics/SVG/1.1/DTD/svg11.dtd">
<svg version="1.1" id="Version_1.0" xmlns="http://www.w3.org/2000/svg" xmlns:xlink="http://www.w3.org/1999/xlink" x="0px"
	 y="0px" width="400px" height="400px" viewBox="0 0 400 400" enable-background="new 0 0 400 400" xml:space="preserve">
<g id="main">
	<path fill="none" stroke="#000000" stroke-width="2" d="M93.838,195.867C116.893,13.1,378.387,45.06,370.338,214.066
		c-6.03,126.617-191.758,174.385-261.1,51.801"/>
	<polyline fill="none" stroke="#000000" stroke-width="2" points="107.25,148.5 157.652,147.896 135.25,108.25 	"/>
	<polyline fill="none" stroke="#000000" stroke-width="2" points="203.5,75 225.602,112.126 250.75,73.867 	"/>
	<polyline fill="none" stroke="#000000" stroke-width="2" points="151,311.25 185.232,283.038 188.619,330.859 	"/>
	<polyline fill="none" stroke="#000000" stroke-width="2" points="236.945,336.305 261.195,290.305 283.523,326.523 	"/>
	<polyline fill="none" stroke="#000000" stroke-width="2" points="320.75,102.746 298.121,140.645 354,141.5 	"/>
	<polyline fill="none" stroke="#000000" stroke-width="2" points="368,180 331.25,204.723 368,230.75 	"/>
	<polyline fill="none" stroke="#000000" stroke-width="2" points="359.06,260.073 307.806,260.674 331.25,297.25 	"/>
	<polyline fill="none" stroke="#000000" stroke-width="2" points="109,309.5 109.238,265.867 144.729,265.447 	"/>
	<g transform="translate(182 32) translate(0 -1)">
		<rect x="179" y="157" fill="#FFFFFF" stroke="#FFFFFF" width="25" height="35"/>
		<text transform="matrix(1 0 0 1 163.7998 182)" font-family="sans-serif" font-size="28">C/K</text>
	</g>
</g>
<g id="template" display="none">
	<g display="inline">
		<ellipse stroke="#000000" cx="234.098" cy="204.414" rx="2.985" ry="2.934"/>
		<text transform="matrix(1 0 0 1 206 232)" font-family="sans-serif" font-size="21">PT. 1</text>
		<text transform="matrix(1 0 0 1 133.5 253.5)" font-family="sans-serif" font-size="21">(CENTER POINT)</text>
	</g>
	<g display="inline">
		<line fill="none" stroke="#000000" stroke-width="2" x1="82.5" y1="186.25" x2="51" y2="154.75"/>
		<line fill="none" stroke="#000000" stroke-width="2" x1="51.486" y1="156.106" x2="52.458" y2="111.773"/>
		<polygon stroke="#000000" stroke-width="2" points="88.269,192.485 70.775,188.174 82.688,175.354 		"/>
		<g id="_x3C_group_x3E_" transform="matrix(1.75 0 0 1.75 -100.25 -27.5)">
			<text transform="matrix(0.5714 0 0 0.5714 71.4277 44.1429)" font-family="sans-serif" font-size="20.9967">PT. 2</text>
			<text transform="matrix(0.5714 0 0 0.5714 63.4277 56.1429)" font-family="sans-serif" font-size="20.9967">(START</text>
			<text transform="matrix(0.5714 0 0 0.5714 64.4277 71.1429)" font-family="sans-serif" font-size="20.9967">POINT)</text>
		</g>
	</g>
</g>
<g id="example" display="none">
	<g id="frame" display="inline">
		<polyline id="_x3C_path_x3E_" fill="#FF8080" stroke="#000000" stroke-width="5" stroke-linecap="square" points="
			237.124,251.073 282.652,205.545 237.124,160.018 191.597,205.545 237.124,251.073 		"/>
	</g>
	<g id="main_1_" display="inline">
		<line fill="none" stroke="#000000" stroke-width="5" x1="214.492" y1="228.572" x2="259.361" y2="183.044"/>
		<line fill="none" stroke="#000000" stroke-width="5" x1="214.492" y1="183.044" x2="259.361" y2="228.572"/>
	</g>
	<text transform="matrix(1 0 0 1 229.3994 155.1406)" display="inline" font-family="sans-serif" font-size="26.7097">II</text>
</g>
</svg>
