<?xml version="1.0" encoding="utf-8"?>
<!-- Generator: Adobe Illustrator 16.0.0, SVG Export Plug-In . SVG Version: 6.00 Build 0)  -->
<!DOCTYPE svg PUBLIC "-//W3C//DTD SVG 1.1//EN" "http://www.w3.org/Graphics/SVG/1.1/DTD/svg11.dtd">
<svg version="1.1" id="Version_1.0" xmlns="http://www.w3.org/2000/svg" xmlns:xlink="http://www.w3.org/1999/xlink" x="0px"
	 y="0px" width="400px" height="400px" viewBox="0 0 400 400" enable-background="new 0 0 400 400" xml:space="preserve">
<g id="main" transform="translate(-110 -60) scale(1.25 1.25)">
	<text transform="matrix(0.8 0 0 0.8 212.5992 251.1992)" font-family="sans-serif" font-size="25">C</text>
	<text transform="matrix(0.8 0 0 0.8 269.5992 250.1992)" font-family="sans-serif" font-size="25">C</text>
	<g>
		<g>
			<polyline fill="none" stroke="#000000" stroke-width="2" points="293.6,243.2 364.918,243.2 354.373,252.836 394.813,252.836 			
				"/>
			<g>
				<path d="M383.877,260.516c-0.237-0.372-0.127-0.867,0.245-1.105l10.324-6.575l-10.324-6.575
					c-0.373-0.238-0.483-0.733-0.245-1.105c0.238-0.372,0.735-0.48,1.105-0.245l11.384,7.25c0.23,0.147,0.37,0.402,0.37,0.675
					s-0.14,0.528-0.37,0.675l-11.384,7.25c-0.133,0.084-0.282,0.125-0.429,0.125C384.289,260.886,384.03,260.755,383.877,260.516z"
					/>
			</g>
		</g>
	</g>
	<g>
		<g>
			<polyline fill="none" stroke="#000000" stroke-width="2" points="203.266,243.533 131.948,243.533 144.133,253.533 
				103.391,253.533 			"/>
			<g>
				<path d="M114.325,245.853c0.237,0.372,0.127,0.867-0.245,1.105l-10.324,6.575l10.324,6.575c0.373,0.237,0.483,0.733,0.245,1.105
					c-0.238,0.372-0.735,0.48-1.105,0.245l-11.384-7.25c-0.23-0.147-0.37-0.402-0.37-0.675s0.14-0.528,0.37-0.675l11.384-7.25
					c0.133-0.084,0.282-0.125,0.429-0.125C113.914,245.483,114.172,245.614,114.325,245.853z"/>
			</g>
		</g>
	</g>
</g>
<g id="example" display="none">
	<g id="varAe" display="inline">
		<g id="frame_1_">
			
				<rect id="_x3C_path_x3E__1_" x="178.989" y="229.118" fill="#80E0FF" stroke="#000000" stroke-width="2" width="41.261" height="27.507"/>
		</g>
		<g id="main_2_">
			<line fill="none" stroke="#000000" stroke-width="2" x1="179.037" y1="256.625" x2="220.184" y2="229.118"/>
			<path fill="none" stroke="#000000" stroke-width="2" d="M192.733,237.571c-6.876,0-6.876,10.605,0,10.605h13.753
				c6.877,0,6.877-10.605,0-10.605H192.733z"/>
		</g>
		<text transform="matrix(1 0 0 1 198.5498 224.6904)" font-family="sans-serif" font-size="12">II</text>
	</g>
	<g display="inline">
		<line fill="none" stroke="#808080" stroke-width="2" x1="385.92" y1="141.167" x2="385.92" y2="318.501"/>
		<g>
			<rect x="376.587" y="221.241" fill="#FFFFFF" width="18.666" height="22.187"/>
			
				<text transform="matrix(4.489659e-011 -1 1 4.489659e-011 391.2539 239.9072)" fill="#808080" font-family="sans-serif" font-size="14">XX</text>
		</g>
	</g>
	<g display="inline">
		<line fill="none" stroke="#808080" stroke-width="2" x1="15.833" y1="143.668" x2="15.833" y2="321.002"/>
		<g>
			<rect x="6.5" y="223.742" fill="#FFFFFF" width="18.666" height="22.186"/>
			
				<text transform="matrix(4.489659e-011 -1 1 4.489659e-011 21.167 242.4072)" fill="#808080" font-family="sans-serif" font-size="14">XX</text>
		</g>
	</g>
</g>
<g id="points_1_" display="none">
	<g id="varA" transform="translate(135 114)" display="inline">
		<rect x="53.25" y="118" fill="#FFFFFF" stroke="#000000" stroke-width="2" width="25" height="25"/>
		<text transform="matrix(1 0 0 1 57.1348 139.1133)" font-family="sans-serif" font-size="25">A</text>
	</g>
	<g display="inline">
		<text transform="matrix(1 0 0 1 123.4717 195.7764)" font-family="sans-serif" font-size="18.75">PT. 2</text>
		<g transform="translate(-44.4444 9.6) translate(0 4.8)">
			<line fill="none" stroke="#000000" stroke-width="2" x1="189.889" y1="216.35" x2="189.889" y2="190.1"/>
			<polygon stroke="#000000" stroke-width="2" points="189.889,224.328 196.139,206.83 183.639,206.83 			"/>
		</g>
	</g>
	<g display="inline">
		<text transform="matrix(1 0 0 1 236.499 194.5)" font-family="sans-serif" font-size="18.75">PT. 3</text>
		<g transform="translate(39.2 12) translate(-1.6 7.2) translate(0.8 -2.4)">
			<line fill="none" stroke="#000000" stroke-width="2" x1="218.6" y1="213.95" x2="218.6" y2="187.7"/>
			<polygon stroke="#000000" stroke-width="2" points="218.6,221.929 224.85,204.43 212.35,204.43 			"/>
		</g>
	</g>
	<g display="inline">
		<text transform="matrix(1 0 0 1 329.999 196.749)" font-family="sans-serif" font-size="18.75">PT. 4</text>
		<line fill="none" stroke="#000000" stroke-width="2" x1="386" y1="246.5" x2="386" y2="221.5"/>
		<line fill="none" stroke="#000000" stroke-width="2" x1="386.331" y1="222.482" x2="356" y2="202.75"/>
		<polygon stroke="#000000" stroke-width="2" points="386,251.979 392.25,234.48 379.75,234.48 		"/>
	</g>
	<g display="inline">
		<text transform="matrix(1 0 0 1 27.4443 206.4717)" font-family="sans-serif" font-size="18.75">PT. 1</text>
		<line fill="none" stroke="#000000" stroke-width="2" x1="17" y1="247.25" x2="17" y2="224.75"/>
		<line fill="none" stroke="#000000" stroke-width="2" x1="16.635" y1="225.732" x2="39.5" y2="212.25"/>
		<polygon stroke="#000000" stroke-width="2" points="17,251.479 23.25,233.98 10.75,233.98 		"/>
	</g>
</g>
</svg>
