<?xml version="1.0" encoding="utf-8"?>
<!-- Generator: Adobe Illustrator 16.0.0, SVG Export Plug-In . SVG Version: 6.00 Build 0)  -->
<!DOCTYPE svg PUBLIC "-//W3C//DTD SVG 1.1//EN" "http://www.w3.org/Graphics/SVG/1.1/DTD/svg11.dtd">
<svg version="1.1" id="Version_1.0" xmlns="http://www.w3.org/2000/svg" xmlns:xlink="http://www.w3.org/1999/xlink" x="0px"
	 y="0px" width="400px" height="400px" viewBox="0 0 400 400" enable-background="new 0 0 400 400" xml:space="preserve">
<g id="main" transform="translate(-230 -210) scale(1.75 1.75)">
	<g>
		<g>
			<line fill="none" stroke="#000000" stroke-width="2" x1="140.143" y1="155" x2="145.949" y2="158.649"/>
			
				<line fill="none" stroke="#000000" stroke-width="2" stroke-dasharray="24.1218,24.1218" x1="157.619" y1="165.985" x2="338.502" y2="279.683"/>
			<line fill="none" stroke="#000000" stroke-width="2" x1="344.338" y1="283.351" x2="350.143" y2="287"/>
		</g>
	</g>
	<g>
		<g>
			<line fill="none" stroke="#000000" stroke-width="2" x1="140.143" y1="287" x2="145.949" y2="283.351"/>
			
				<line fill="none" stroke="#000000" stroke-width="2" stroke-dasharray="24.1218,24.1218" x1="157.619" y1="276.016" x2="338.502" y2="162.317"/>
			<line fill="none" stroke="#000000" stroke-width="2" x1="344.338" y1="158.649" x2="350.143" y2="155"/>
		</g>
	</g>
	<g transform="translate(0 -1) translate(0 -1) translate(-1 0) translate(-1 0)">
		<rect x="237.429" y="214" fill="#FFFFFF" stroke="#FFFFFF" width="20" height="20"/>
		<text transform="matrix(0.5714 0 0 0.5714 240.4922 231.1429)" font-family="sans-serif" font-size="34.9964">S</text>
	</g>
</g>
<g id="template" display="none">
	<g display="inline">
		<g>
			<line fill="none" stroke="#000000" stroke-width="2" x1="198.75" y1="288" x2="198.75" y2="195.968"/>
			<g>
				<polygon points="208.723,198.886 198.75,181.615 188.777,198.886 				"/>
			</g>
		</g>
	</g>
	
		<g id="CENTER_x25_20POINT" transform="translate(63 -94) translate(0 0.571429) translate(0 0.571429) translate(-0.571429 0)" display="inline">
		<text transform="matrix(1 0 0 1 90.0709 400.3572)" font-family="sans-serif" font-size="20.9989">CENTER</text>
		<text transform="matrix(1 0 0 1 102.3209 423.1072)" font-family="sans-serif" font-size="20.9989">POINT</text>
	</g>
</g>
</svg>
