<?xml version="1.0" encoding="utf-8"?>
<!-- Generator: Adobe Illustrator 16.0.0, SVG Export Plug-In . SVG Version: 6.00 Build 0)  -->
<!DOCTYPE svg PUBLIC "-//W3C//DTD SVG 1.1//EN" "http://www.w3.org/Graphics/SVG/1.1/DTD/svg11.dtd">
<svg version="1.1" id="Version_1.0" xmlns="http://www.w3.org/2000/svg" xmlns:xlink="http://www.w3.org/1999/xlink" x="0px"
	 y="0px" width="400px" height="400px" viewBox="0 0 400 400" enable-background="new 0 0 400 400" xml:space="preserve">
<g id="main">
	
		<line fill="none" stroke="#000000" stroke-width="3" stroke-linecap="round" stroke-dasharray="10,10" x1="278" y1="162" x2="123" y2="162"/>
	
		<line fill="none" stroke="#000000" stroke-width="3" stroke-linecap="round" stroke-dasharray="10,10" x1="278" y1="242" x2="156" y2="242"/>
	
		<line fill="none" stroke="#000000" stroke-width="3" stroke-linecap="round" stroke-dasharray="10,10" x1="278" y1="162" x2="278" y2="122"/>
	
		<line fill="none" stroke="#000000" stroke-width="3" stroke-linecap="round" stroke-dasharray="10,8" x1="278" y1="122" x2="338" y2="202"/>
	
		<line fill="none" stroke="#000000" stroke-width="3" stroke-linecap="round" stroke-dasharray="10,10" x1="278" y1="242" x2="278" y2="282"/>
	
		<line fill="none" stroke="#000000" stroke-width="3" stroke-linecap="round" stroke-dasharray="10,8" x1="278" y1="282" x2="338" y2="202"/>
	
		<line fill="none" stroke="#000000" stroke-width="3" stroke-linecap="round" stroke-dasharray="10,10" x1="48" y1="247" x2="123" y2="162"/>
	
		<line fill="none" stroke="#000000" stroke-width="3" stroke-linecap="round" stroke-dasharray="10,10" x1="156" y1="242" x2="106" y2="300"/>
	<text transform="matrix(1 0 0 1 163.9375 217)" font-family="sans-serif" font-size="40">CATK</text>
</g>
<g id="template" display="none">
	<text transform="matrix(1 0 0 1 143.9409 326.3477)" display="inline" font-family="sans-serif" font-size="20">PT. N-1</text>
	<text transform="matrix(1 0 0 1 307.5195 303.7813)" display="inline" font-family="sans-serif" font-size="20">PT. 1</text>
	<text transform="matrix(1 0 0 1 194.3989 281.0098)" display="inline" font-family="sans-serif" font-size="20">PT. 2</text>
	<text transform="matrix(1 0 0 1 154.7686 82.6523)" display="inline" font-family="sans-serif" font-size="20">PT. N</text>
	<line display="inline" fill="none" stroke="#000000" stroke-width="2" x1="338" y1="280.71" x2="338" y2="223.041"/>
	<line display="inline" fill="none" stroke="#000000" stroke-width="2" x1="138.93" y1="314.758" x2="89.427" y2="281.242"/>
	<line display="inline" fill="none" stroke="#000000" stroke-width="2" x1="260.124" y1="111.354" x2="210.621" y2="77.837"/>
	<line display="inline" fill="none" stroke="#000000" stroke-width="2" x1="193.399" y1="262.852" x2="147.509" y2="219.041"/>
	<path display="inline" d="M263.41,103.799l9.247,15.313l-17.8-1.791L263.41,103.799"/>
	<path display="inline" d="M141.895,224.938L136.144,208l17.002,5.563L141.895,224.938z"/>
	<path display="inline" d="M330.53,222.988l8-16l8,16H330.53z"/>
	<path display="inline" d="M84.998,287.686l-8.87-15.535l17.75,2.227L84.998,287.686z"/>
</g>
</svg>
