<?xml version="1.0" encoding="utf-8"?>
<!-- Generator: Adobe Illustrator 16.0.0, SVG Export Plug-In . SVG Version: 6.00 Build 0)  -->
<!DOCTYPE svg PUBLIC "-//W3C//DTD SVG 1.1//EN" "http://www.w3.org/Graphics/SVG/1.1/DTD/svg11.dtd">
<svg version="1.1" id="Version_1.0" xmlns="http://www.w3.org/2000/svg" xmlns:xlink="http://www.w3.org/1999/xlink" x="0px"
	 y="0px" width="400px" height="400px" viewBox="0 0 400 400" enable-background="new 0 0 400 400" xml:space="preserve">
<g id="main">
	<line fill="none" stroke="#000000" stroke-width="5" x1="41.5" y1="187" x2="273.725" y2="187.002"/>
	<line fill="none" stroke="#000000" stroke-width="5" x1="357" y1="265" x2="89.947" y2="264.78"/>
	<line fill="none" stroke="#000000" stroke-width="5" x1="221.725" y1="113.225" x2="89.603" y2="113.156"/>
	<line fill="none" stroke="#000000" stroke-width="5" x1="357" y1="264" x2="314" y2="249"/>
	<line fill="none" stroke="#000000" stroke-width="5" x1="357.228" y1="265.674" x2="315" y2="278"/>
	<line fill="none" stroke="#000000" stroke-width="5" x1="272.568" y1="186.559" x2="228" y2="168"/>
	<line fill="none" stroke="#000000" stroke-width="5" x1="273.014" y1="187.891" x2="230" y2="202"/>
	<line fill="none" stroke="#000000" stroke-width="5" x1="220.613" y1="113.225" x2="176" y2="93"/>
	<line fill="none" stroke="#000000" stroke-width="5" x1="220.613" y1="113.114" x2="176" y2="129"/>
	<line fill="none" stroke="#000000" stroke-width="5" x1="90" y1="111" x2="90" y2="267"/>
	<g transform="translate(-23 1)">
		<rect x="183" y="168" fill="#FFFFFF" stroke="#FFFFFF" width="35" height="35"/>
		<text transform="matrix(1 0 0 1 188.3623 198)" font-family="sans-serif" font-size="35">D</text>
	</g>
</g>
<g id="template" transform="translate(-60 -30) scale(1 1)" display="none">
	<text transform="matrix(1 0 0 1 362 342)" display="inline" font-family="sans-serif" font-size="12">PT. 3</text>
	<text transform="matrix(1 0 0 1 109 333)" display="inline" font-family="sans-serif" font-size="12">PT. 2</text>
	<text transform="matrix(1 0 0 1 96 124)" display="inline" font-family="sans-serif" font-size="12">PT. 1</text>
	<line display="inline" fill="none" stroke="#000000" stroke-width="2" x1="417" y1="310" x2="417" y2="328"/>
	<line display="inline" fill="none" stroke="#000000" stroke-width="2" x1="417.222" y1="327.212" x2="399" y2="338"/>
	<line display="inline" fill="none" stroke="#000000" stroke-width="2" x1="143" y1="304" x2="129" y2="321"/>
	<line display="inline" fill="none" stroke="#000000" stroke-width="2" x1="143" y1="138" x2="129" y2="127"/>
	<polygon display="inline" stroke="#000000" stroke-width="2" points="147.791,140.201 135.262,140.023 141.158,129.572 	"/>
	<polygon display="inline" stroke="#000000" stroke-width="2" points="146.917,297.905 144.556,310.211 135.292,302.582 	"/>
	<polygon display="inline" stroke="#000000" stroke-width="2" points="417,302 423,313 411,313 	"/>
</g>
</svg>
