<?xml version="1.0" encoding="utf-8"?>
<!-- Generator: Adobe Illustrator 16.0.0, SVG Export Plug-In . SVG Version: 6.00 Build 0)  -->
<!DOCTYPE svg PUBLIC "-//W3C//DTD SVG 1.1//EN" "http://www.w3.org/Graphics/SVG/1.1/DTD/svg11.dtd">
<svg version="1.1" id="Version_1.0" xmlns="http://www.w3.org/2000/svg" xmlns:xlink="http://www.w3.org/1999/xlink" x="0px"
	 y="0px" width="400px" height="400px" viewBox="0 0 400 400" enable-background="new 0 0 400 400" xml:space="preserve">
<g id="main" transform="translate(-110 -60) scale(1.25 1.25)">
	<text transform="matrix(0.8 0 0 0.8 212.5992 251.1992)" font-family="'ArialMT'" font-size="25">S</text>
	<text transform="matrix(0.8 0 0 0.8 269.5992 250.1992)" font-family="'ArialMT'" font-size="25">S</text>
	<g>
		<g>
			<polyline fill="none" stroke="#000000" stroke-width="2" points="293.6,243.2 364.918,243.2 354.373,252.836 394.813,252.836 			
				"/>
			<g>
				<path d="M383.877,260.516c-0.237-0.372-0.127-0.867,0.245-1.105l10.324-6.575l-10.324-6.575
					c-0.373-0.238-0.483-0.733-0.245-1.105c0.238-0.372,0.734-0.48,1.105-0.245l11.384,7.25c0.23,0.147,0.37,0.402,0.37,0.675
					s-0.14,0.528-0.37,0.675l-11.384,7.25c-0.133,0.084-0.282,0.125-0.429,0.125C384.289,260.886,384.03,260.755,383.877,260.516z"
					/>
			</g>
		</g>
	</g>
	<g>
		<g>
			<polyline fill="none" stroke="#000000" stroke-width="2" points="203.266,243.533 131.948,243.533 144.133,253.533 
				103.391,253.533 			"/>
			<g>
				<path d="M114.325,245.853c0.237,0.372,0.127,0.867-0.245,1.105l-10.324,6.575l10.324,6.575c0.373,0.237,0.483,0.733,0.245,1.105
					c-0.238,0.373-0.735,0.48-1.105,0.245l-11.384-7.25c-0.23-0.147-0.37-0.402-0.37-0.675c0-0.273,0.14-0.528,0.37-0.675
					l11.384-7.25c0.133-0.084,0.282-0.125,0.429-0.125C113.914,245.483,114.172,245.614,114.325,245.853z"/>
			</g>
		</g>
	</g>
</g>
<g id="template" display="none">
	<g id="varA" transform="translate(135 114)">
		<rect x="53.25" y="118" display="inline" fill="#FFFFFF" stroke="#000000" stroke-width="2" width="25" height="25"/>
		<text transform="matrix(1 0 0 1 57.1348 139.1133)" display="inline" font-family="'ArialMT'" font-size="25">A</text>
	</g>
	<g display="inline">
		<text transform="matrix(1 0 0 1 123.4717 195.7764)" font-family="'ArialMT'" font-size="18.75">PT. 2</text>
		<g>
			<g>
				<line fill="none" stroke="#000000" stroke-width="2" x1="145.445" y1="228.063" x2="145.445" y2="202.5"/>
				<g>
					<polygon points="155.417,225.146 145.445,242.416 135.472,225.146 					"/>
				</g>
			</g>
		</g>
	</g>
	<g display="inline">
		<text transform="matrix(1 0 0 1 236.499 196.5)" font-family="'ArialMT'" font-size="18.75">PT. 3</text>
		<g>
			<g>
				<line fill="none" stroke="#000000" stroke-width="2" x1="257.445" y1="227.836" x2="257.445" y2="202.272"/>
				<g>
					<polygon points="267.418,224.918 257.445,242.188 247.473,224.918 					"/>
				</g>
			</g>
		</g>
	</g>
	<g display="inline">
		<text transform="matrix(1 0 0 1 329.999 196.749)" font-family="'ArialMT'" font-size="18.75">PT. 4</text>
		<g>
			<g>
				<polyline fill="none" stroke="#000000" stroke-width="2" points="386.331,237.605 386.331,227.041 356,202.75 				"/>
				<g>
					<polygon points="396.304,234.688 386.331,251.958 376.358,234.688 					"/>
				</g>
			</g>
		</g>
	</g>
	<g display="inline">
		<text transform="matrix(1 0 0 1 27.4443 206.4717)" font-family="'ArialMT'" font-size="18.75">PT. 1</text>
		<g>
			<g>
				<polyline fill="none" stroke="#000000" stroke-width="2" points="16.635,240.605 16.635,230.041 43.5,212.25 				"/>
				<g>
					<polygon points="26.607,237.688 16.635,254.958 6.662,237.688 					"/>
				</g>
			</g>
		</g>
	</g>
</g>
<g id="example" display="none">
	<g id="varAe" display="inline">
		<g id="frame_1_">
			
				<rect id="_x3C_path_x3E__1_" x="178.989" y="229.118" fill="#80E0FF" stroke="#000000" stroke-width="2" width="41.261" height="27.507"/>
		</g>
		<g id="main_2_">
			<line fill="none" stroke="#000000" stroke-width="2" x1="179.037" y1="256.625" x2="220.184" y2="229.118"/>
			<path fill="none" stroke="#000000" stroke-width="2" d="M192.733,237.57c-6.876,0-6.876,10.604,0,10.604h13.753
				c6.877,0,6.877-10.604,0-10.604H192.733z"/>
		</g>
		<text transform="matrix(1 0 0 1 198.5498 224.6904)" font-family="'ArialMT'" font-size="12">II</text>
	</g>
	<g display="inline">
		<line fill="none" stroke="#808080" stroke-width="2" x1="385.92" y1="141.167" x2="385.92" y2="318.501"/>
		<g>
			<rect x="376.587" y="221.241" fill="#FFFFFF" width="18.666" height="22.187"/>
			
				<text transform="matrix(4.489659e-011 -1 1 4.489659e-011 391.2539 239.9072)" fill="#808080" font-family="'ArialMT'" font-size="14">XX</text>
		</g>
	</g>
	<g display="inline">
		<line fill="none" stroke="#808080" stroke-width="2" x1="15.833" y1="143.668" x2="15.833" y2="321.002"/>
		<g>
			<rect x="6.5" y="223.742" fill="#FFFFFF" width="18.666" height="22.186"/>
			
				<text transform="matrix(4.489659e-011 -1 1 4.489659e-011 21.167 242.4072)" fill="#808080" font-family="'ArialMT'" font-size="14">XX</text>
		</g>
	</g>
</g>
</svg>
