<?xml version="1.0" encoding="utf-8"?>
<!-- Generator: Adobe Illustrator 16.0.0, SVG Export Plug-In . SVG Version: 6.00 Build 0)  -->
<!DOCTYPE svg PUBLIC "-//W3C//DTD SVG 1.1//EN" "http://www.w3.org/Graphics/SVG/1.1/DTD/svg11.dtd">
<svg version="1.1" id="Version_1.0" xmlns="http://www.w3.org/2000/svg" xmlns:xlink="http://www.w3.org/1999/xlink" x="0px"
	 y="0px" width="612px" height="792px" viewBox="0 0 612 792" enable-background="new 0 0 612 792" xml:space="preserve">
<g id="octagon" display="none">
	<g id="outFrame" display="inline">
		<line fill="none" stroke="#0000FF" stroke-width="2" x1="220" y1="309.5" x2="306" y2="273"/>
		<line fill="none" stroke="#0000FF" stroke-width="2" x1="306" y1="273" x2="390.5" y2="309.5"/>
		<line fill="none" stroke="#0000FF" stroke-width="2" x1="390.5" y1="309.5" x2="427" y2="396"/>
		<line fill="none" stroke="#0000FF" stroke-width="2" x1="427" y1="396" x2="390.5" y2="482.5"/>
		<line fill="none" stroke="#0000FF" stroke-width="2" x1="390.5" y1="482.5" x2="306" y2="516"/>
		<line fill="none" stroke="#0000FF" stroke-width="2" x1="306" y1="516" x2="220" y2="482.5"/>
		<polyline fill="none" stroke="#0000FF" stroke-width="2" points="220,482.5 183,396 220,309.5 		"/>
	</g>
	<line id="bottom" fill="none" stroke="#0000FF" stroke-width="2" x1="203.966" y1="445.015" x2="406.199" y2="445.295"/>
	<line id="top" fill="none" stroke="#0000FF" stroke-width="2" x1="203.966" y1="346.985" x2="406.199" y2="346.705"/>
</g>
<g id="main">
	<path d="M322.529,445.535h-34.26c-0.093-4.953-0.139-7.934-0.139-9.035c0-11.1,1.834-20.226,5.504-27.383
		c3.669-7.199,11.053-15.228,22.062-24.216c11.008-8.944,17.612-14.814,19.723-17.613c3.346-4.356,4.998-9.219,4.998-14.492
		c0-7.339-2.934-13.623-8.806-18.897c-5.87-5.229-13.762-7.843-23.712-7.843c-9.586,0-17.612,2.751-24.079,8.21
		c-6.422,5.458-10.871,13.805-13.301,24.995l-34.628-4.311c0.962-16.053,7.796-29.676,20.456-40.866
		c12.705-11.19,29.308-16.787,49.948-16.787c21.647,0,38.893,5.688,51.736,17.017c12.795,11.327,19.218,24.492,19.218,39.582
		c0,8.301-2.387,16.19-7.063,23.619c-4.725,7.431-14.771,17.566-30.18,30.363c-7.982,6.648-12.937,11.97-14.862,16.007
		C323.22,427.922,322.344,435.124,322.529,445.535z M288.269,496.307v-37.746h34.898v37.746H288.269z"/>
</g>
</svg>
