<?xml version="1.0" encoding="utf-8"?>
<!-- Generator: Adobe Illustrator 14.0.0, SVG Export Plug-In . SVG Version: 6.00 Build 43363)  -->
<!DOCTYPE svg PUBLIC "-//W3C//DTD SVG 1.1//EN" "http://www.w3.org/Graphics/SVG/1.1/DTD/svg11.dtd">
<svg version="1.1" id="Version_1.0" xmlns="http://www.w3.org/2000/svg" xmlns:xlink="http://www.w3.org/1999/xlink" x="0px" y="0px"
	 width="612px" height="792px" viewBox="0 0 612 792" enable-background="new 0 0 612 792" xml:space="preserve">
<g id="octagon" display="none">
	<g id="outFrame" display="inline">
		<line fill="none" stroke="#0000FF" stroke-width="2" x1="220" y1="309.5" x2="306" y2="273"/>
		<line fill="none" stroke="#0000FF" stroke-width="2" x1="306" y1="273" x2="390.5" y2="309.5"/>
		<line fill="none" stroke="#0000FF" stroke-width="2" x1="390.5" y1="309.5" x2="427" y2="396"/>
		<line fill="none" stroke="#0000FF" stroke-width="2" x1="427" y1="396" x2="390.5" y2="482.5"/>
		<line fill="none" stroke="#0000FF" stroke-width="2" x1="390.5" y1="482.5" x2="306" y2="516"/>
		<line fill="none" stroke="#0000FF" stroke-width="2" x1="306" y1="516" x2="220" y2="482.5"/>
		<line fill="none" stroke="#0000FF" stroke-width="2" x1="220" y1="482.5" x2="183" y2="396"/>
		<line fill="none" stroke="#0000FF" stroke-width="2" x1="183" y1="396" x2="220" y2="309.5"/>
	</g>
	
		<line id="bottom" display="inline" fill="none" stroke="#0000FF" stroke-width="2" x1="203.966" y1="445.015" x2="406.199" y2="445.295"/>
	
		<line id="top" display="inline" fill="none" stroke="#0000FF" stroke-width="2" x1="203.966" y1="346.985" x2="406.199" y2="346.705"/>
</g>
<g id="main">
	<g>
		<line fill="none" stroke="#000000" stroke-width="10" x1="306" y1="453" x2="306" y2="488"/>
		<line fill="none" stroke="#000000" stroke-width="10" x1="241" y1="485" x2="371" y2="485"/>
	</g>
	<polygon fill="#008000" stroke="#000000" stroke-width="10" points="286,323 286,288 326,288 326,323 	"/>
	<polygon fill="#008000" stroke="#000000" stroke-width="10" points="248.769,355.107 224.028,330.35 252.322,302.075 
		277.063,326.833 	"/>
	<polygon fill="#008000" stroke="#000000" stroke-width="10" points="334.28,326.788 358.977,301.987 387.32,330.212 
		362.623,355.013 	"/>
	<circle fill="#008000" stroke="#000000" stroke-width="10" cx="306" cy="383" r="70"/>
	<text transform="matrix(1 0 0 1 252.9746 408)" font-family="sans-serif" font-size="78">EX</text>
</g>
</svg>
