<?xml version="1.0" encoding="utf-8"?>
<!-- Generator: Adobe Illustrator 14.0.0, SVG Export Plug-In . SVG Version: 6.00 Build 43363)  -->
<!DOCTYPE svg PUBLIC "-//W3C//DTD SVG 1.1//EN" "http://www.w3.org/Graphics/SVG/1.1/DTD/svg11.dtd">
<svg version="1.1" id="Version_1.0" xmlns="http://www.w3.org/2000/svg" xmlns:xlink="http://www.w3.org/1999/xlink" x="0px" y="0px"
	 width="612px" height="792px" viewBox="0 0 612 792" enable-background="new 0 0 612 792" xml:space="preserve">
<g id="octagon" display="none">
	<g id="outFrame" display="inline">
		<line fill="none" stroke="#0000FF" stroke-width="2" x1="220" y1="309.5" x2="306" y2="273"/>
		<line fill="none" stroke="#0000FF" stroke-width="2" x1="306" y1="273" x2="390.5" y2="309.5"/>
		<line fill="none" stroke="#0000FF" stroke-width="2" x1="390.5" y1="309.5" x2="427" y2="396"/>
		<line fill="none" stroke="#0000FF" stroke-width="2" x1="427" y1="396" x2="390.5" y2="482.5"/>
		<line fill="none" stroke="#0000FF" stroke-width="2" x1="390.5" y1="482.5" x2="306" y2="516"/>
		<line fill="none" stroke="#0000FF" stroke-width="2" x1="306" y1="516" x2="220" y2="482.5"/>
		<line fill="none" stroke="#0000FF" stroke-width="2" x1="220" y1="482.5" x2="183" y2="396"/>
		<line fill="none" stroke="#0000FF" stroke-width="2" x1="183" y1="396" x2="220" y2="309.5"/>
	</g>
	<line id="bottom" fill="none" stroke="#0000FF" stroke-width="2" x1="203.966" y1="445.015" x2="406.199" y2="445.295"/>
	<line id="top" fill="none" stroke="#0000FF" stroke-width="2" x1="203.966" y1="346.985" x2="406.199" y2="346.705"/>
</g>
<g id="main">
	<g>
		<polyline fill="none" stroke="#000000" stroke-width="9.622" stroke-linecap="round" stroke-linejoin="round" points="
			247.343,487 261.775,453.323 276.208,487 290.642,453.323 305.074,487 319.507,453.323 333.94,487 348.373,453.323 362.806,487 		
			"/>
	</g>
	<polygon fill="#00FF00" stroke="#000000" stroke-width="9.622" points="285.831,323.427 285.831,289.75 324.318,289.75 
		324.318,323.427 	"/>
	<polygon fill="#00FF00" stroke="#000000" stroke-width="9.622" points="250.006,354.32 226.202,330.499 253.426,303.293 
		277.231,327.114 	"/>
	<polygon fill="#00FF00" stroke="#000000" stroke-width="9.622" points="332.285,327.071 356.048,303.208 383.32,330.367 
		359.557,354.229 	"/>
	<circle fill="#00FF00" stroke="#000000" stroke-width="9.622" cx="305.074" cy="381.158" r="67.354"/>
	<g>
		<line fill="none" stroke="#000000" stroke-width="9.5331" x1="231.016" y1="306.589" x2="391.944" y2="473.162"/>
		<line fill="none" stroke="#000000" stroke-width="9.4364" x1="219" y1="471.994" x2="378.76" y2="307.588"/>
	</g>
</g>
</svg>
