<?xml version="1.0" encoding="utf-8"?>
<!-- Generator: Adobe Illustrator 14.0.0, SVG Export Plug-In . SVG Version: 6.00 Build 43363)  -->
<!DOCTYPE svg PUBLIC "-//W3C//DTD SVG 1.1//EN" "http://www.w3.org/Graphics/SVG/1.1/DTD/svg11.dtd">
<svg version="1.1" id="Version_1.0" xmlns="http://www.w3.org/2000/svg" xmlns:xlink="http://www.w3.org/1999/xlink" x="0px" y="0px"
	 width="612px" height="792px" viewBox="0 0 612 792" enable-background="new 0 0 612 792" xml:space="preserve">
<g id="octagon" display="none">
	<g id="outFrame" display="inline">
		<line fill="none" stroke="#0000FF" stroke-width="2" x1="220" y1="309.5" x2="306" y2="273"/>
		<line fill="none" stroke="#0000FF" stroke-width="2" x1="306" y1="273" x2="390.5" y2="309.5"/>
		<line fill="none" stroke="#0000FF" stroke-width="2" x1="390.5" y1="309.5" x2="427" y2="396"/>
		<line fill="none" stroke="#0000FF" stroke-width="2" x1="427" y1="396" x2="390.5" y2="482.5"/>
		<line fill="none" stroke="#0000FF" stroke-width="2" x1="390.5" y1="482.5" x2="306" y2="516"/>
		<line fill="none" stroke="#0000FF" stroke-width="2" x1="306" y1="516" x2="220" y2="482.5"/>
		<line fill="none" stroke="#0000FF" stroke-width="2" x1="220" y1="482.5" x2="183" y2="396"/>
		<line fill="none" stroke="#0000FF" stroke-width="2" x1="183" y1="396" x2="220" y2="309.5"/>
	</g>
	
		<line id="bottom" display="inline" fill="none" stroke="#0000FF" stroke-width="2" x1="203.966" y1="445.015" x2="406.199" y2="445.295"/>
	
		<line id="top" display="inline" fill="none" stroke="#0000FF" stroke-width="2" x1="203.966" y1="346.985" x2="406.199" y2="346.705"/>
</g>
<g id="main">
	<line fill="none" stroke="#000000" stroke-width="10" x1="183" y1="396" x2="427" y2="396"/>
	<polygon fill="#00FF00" stroke="#000000" stroke-width="10" points="282.227,338.015 282.227,297.5 328.529,297.5 328.529,338.015 
			"/>
	<polygon fill="#00FF00" stroke="#000000" stroke-width="10" points="239.128,375.181 210.489,346.523 243.242,313.793 
		271.881,342.452 	"/>
	<polygon fill="#00FF00" stroke="#000000" stroke-width="10" points="338.114,342.4 366.701,313.691 399.512,346.364 
		370.923,375.073 	"/>
	<circle fill="#00FF00" stroke="#000000" stroke-width="10" cx="305.378" cy="407.47" r="81.03"/>
	<g>
		<line fill="none" stroke="#000000" stroke-width="10" x1="216.468" y1="317.758" x2="390.5" y2="481.5"/>
		<line fill="none" stroke="#000000" stroke-width="10" x1="222.348" y1="480.5" x2="394.25" y2="321.757"/>
	</g>
</g>
</svg>
