<?xml version="1.0" encoding="utf-8"?>
<!-- Generator: Adobe Illustrator 16.0.0, SVG Export Plug-In . SVG Version: 6.00 Build 0)  -->
<!DOCTYPE svg PUBLIC "-//W3C//DTD SVG 1.1//EN" "http://www.w3.org/Graphics/SVG/1.1/DTD/svg11.dtd">
<svg version="1.1" id="Version_1.0" xmlns="http://www.w3.org/2000/svg" xmlns:xlink="http://www.w3.org/1999/xlink" x="0px"
	 y="0px" width="612px" height="792px" viewBox="0 0 612 792" enable-background="new 0 0 612 792" xml:space="preserve">
<g id="octagon" display="none">
	
		<line id="mod2_1_" display="inline" fill="none" stroke="#0000FF" stroke-width="2" x1="203.966" y1="445.015" x2="406.199" y2="445.295"/>
	
		<line id="mod1_1_" display="inline" fill="none" stroke="#0000FF" stroke-width="2" x1="203.966" y1="346.985" x2="406.199" y2="346.705"/>
	<g id="outFrame" display="inline">
		<line fill="none" stroke="#0000FF" stroke-width="2" x1="220" y1="309.5" x2="306" y2="273"/>
		<line fill="none" stroke="#0000FF" stroke-width="2" x1="306" y1="273" x2="390.5" y2="309.5"/>
		<line fill="none" stroke="#0000FF" stroke-width="2" x1="390.5" y1="309.5" x2="427" y2="396"/>
		<line fill="none" stroke="#0000FF" stroke-width="2" x1="427" y1="396" x2="390.5" y2="482.5"/>
		<line fill="none" stroke="#0000FF" stroke-width="2" x1="390.5" y1="482.5" x2="306" y2="516"/>
		<line fill="none" stroke="#0000FF" stroke-width="2" x1="306" y1="516" x2="220" y2="482.5"/>
		<line fill="none" stroke="#0000FF" stroke-width="2" x1="220" y1="482.5" x2="183" y2="396"/>
		<line fill="none" stroke="#0000FF" stroke-width="2" x1="183" y1="396" x2="220" y2="309.5"/>
	</g>
</g>
<g id="main">
	<g id="Comm">
		<line fill="none" stroke="#000000" stroke-width="5" x1="306.094" y1="381.833" x2="306.094" y2="396"/>
		<path fill="none" stroke="#000000" stroke-width="5" d="M237.726,353.912c37.114,38.465,98.271,39.559,136.738,2.445"/>
	</g>
	<g id="Satellite">
		<rect x="208.216" y="395.136" fill="#FFFFFF" stroke="#000000" stroke-width="5" width="72.237" height="43.114"/>
		<rect x="288.856" y="395.135" fill="#FFFFFF" stroke="#000000" stroke-width="5" width="33.154" height="43.115"/>
		<rect x="330.413" y="395.135" fill="#FFFFFF" stroke="#000000" stroke-width="5" width="72.239" height="43.115"/>
		<line fill="none" stroke="#000000" stroke-width="5" x1="322.01" y1="417.625" x2="331.699" y2="417.625"/>
		<line fill="none" stroke="#000000" stroke-width="5" x1="279.569" y1="416.692" x2="288.856" y2="416.692"/>
	</g>
</g>
</svg>
