<?xml version="1.0" encoding="utf-8"?>
<!-- Generator: Adobe Illustrator 16.0.0, SVG Export Plug-In . SVG Version: 6.00 Build 0)  -->
<!DOCTYPE svg PUBLIC "-//W3C//DTD SVG 1.1//EN" "http://www.w3.org/Graphics/SVG/1.1/DTD/svg11.dtd">
<svg version="1.1" id="Version_1.0" xmlns="http://www.w3.org/2000/svg" xmlns:xlink="http://www.w3.org/1999/xlink" x="0px"
	 y="0px" width="612px" height="792px" viewBox="0 0 612 792" enable-background="new 0 0 612 792" xml:space="preserve">
<g id="octagon" display="none">
	
		<line id="mod2_1_" display="inline" fill="none" stroke="#0000FF" stroke-width="2" x1="203.966" y1="445.015" x2="406.199" y2="445.295"/>
	
		<line id="mod1_1_" display="inline" fill="none" stroke="#0000FF" stroke-width="2" x1="203.966" y1="346.985" x2="406.199" y2="346.705"/>
	<g id="outFrame" display="inline">
		<line fill="none" stroke="#0000FF" stroke-width="2" x1="220" y1="309.5" x2="306" y2="273"/>
		<line fill="none" stroke="#0000FF" stroke-width="2" x1="306" y1="273" x2="390.5" y2="309.5"/>
		<line fill="none" stroke="#0000FF" stroke-width="2" x1="390.5" y1="309.5" x2="427" y2="396"/>
		<line fill="none" stroke="#0000FF" stroke-width="2" x1="427" y1="396" x2="390.5" y2="482.5"/>
		<line fill="none" stroke="#0000FF" stroke-width="2" x1="390.5" y1="482.5" x2="306" y2="516"/>
		<line fill="none" stroke="#0000FF" stroke-width="2" x1="306" y1="516" x2="220" y2="482.5"/>
		<line fill="none" stroke="#0000FF" stroke-width="2" x1="220" y1="482.5" x2="183" y2="396"/>
		<line fill="none" stroke="#0000FF" stroke-width="2" x1="183" y1="396" x2="220" y2="309.5"/>
	</g>
</g>
<g id="main">
	<g id="Satellite">
		<rect x="206.244" y="353.585" fill="#FFFFFF" stroke="#000000" stroke-width="5" width="73.855" height="44.08"/>
		<rect x="288.69" y="353.584" fill="#FFFFFF" stroke="#000000" stroke-width="5" width="33.897" height="44.081"/>
		<rect x="331.178" y="353.584" fill="#FFFFFF" stroke="#000000" stroke-width="5" width="73.858" height="44.081"/>
		<line fill="none" stroke="#000000" stroke-width="5" x1="279.196" y1="375.625" x2="288.69" y2="375.625"/>
		<line fill="none" stroke="#000000" stroke-width="5" x1="322.588" y1="375.625" x2="332.083" y2="375.625"/>
	</g>
	<g id="EarthObs">
		<line fill="none" stroke="#000000" stroke-width="5" x1="305.616" y1="398.661" x2="305.616" y2="403.626"/>
		<polyline fill="none" stroke="#000000" stroke-width="5" points="285.533,416.735 292.93,404.622 316.86,404.622 324.801,416.735 
					"/>
		<circle fill="#FFFFFF" stroke="#000000" stroke-width="5" cx="305.087" cy="427.184" r="14.043"/>
	</g>
</g>
</svg>
