<?xml version="1.0" encoding="utf-8"?>
<!-- Generator: Adobe Illustrator 16.0.0, SVG Export Plug-In . SVG Version: 6.00 Build 0)  -->
<!DOCTYPE svg PUBLIC "-//W3C//DTD SVG 1.1//EN" "http://www.w3.org/Graphics/SVG/1.1/DTD/svg11.dtd">
<svg version="1.1" id="Version_1.0" xmlns="http://www.w3.org/2000/svg" xmlns:xlink="http://www.w3.org/1999/xlink" x="0px"
	 y="0px" width="612px" height="792px" viewBox="0 0 612 792" enable-background="new 0 0 612 792" xml:space="preserve">
<g id="octagon" display="none">
	
		<line id="mod2_1_" display="inline" fill="none" stroke="#0000FF" stroke-width="2" x1="203.966" y1="445.015" x2="406.199" y2="445.295"/>
	
		<line id="mod1_1_" display="inline" fill="none" stroke="#0000FF" stroke-width="2" x1="203.966" y1="346.985" x2="406.199" y2="346.705"/>
	<g id="outFrame" display="inline">
		<line fill="none" stroke="#0000FF" stroke-width="2" x1="220" y1="309.5" x2="306" y2="273"/>
		<line fill="none" stroke="#0000FF" stroke-width="2" x1="306" y1="273" x2="390.5" y2="309.5"/>
		<line fill="none" stroke="#0000FF" stroke-width="2" x1="390.5" y1="309.5" x2="427" y2="396"/>
		<line fill="none" stroke="#0000FF" stroke-width="2" x1="427" y1="396" x2="390.5" y2="482.5"/>
		<line fill="none" stroke="#0000FF" stroke-width="2" x1="390.5" y1="482.5" x2="306" y2="516"/>
		<line fill="none" stroke="#0000FF" stroke-width="2" x1="306" y1="516" x2="220" y2="482.5"/>
		<line fill="none" stroke="#0000FF" stroke-width="2" x1="220" y1="482.5" x2="183" y2="396"/>
		<line fill="none" stroke="#0000FF" stroke-width="2" x1="183" y1="396" x2="220" y2="309.5"/>
	</g>
</g>
<g id="main">
	<g id="Satellite">
		<rect x="223.336" y="377.91" fill="#FFFFFF" stroke="#000000" stroke-width="5" width="60.621" height="36.182"/>
		<rect x="291.008" y="377.91" fill="#FFFFFF" stroke="#000000" stroke-width="5" width="27.822" height="36.182"/>
		<rect x="325.882" y="377.91" fill="#FFFFFF" stroke="#000000" stroke-width="5" width="60.622" height="36.182"/>
		<line fill="none" stroke="#000000" stroke-width="5" x1="317.795" y1="396" x2="327.355" y2="396"/>
		<line fill="none" stroke="#000000" stroke-width="5" x1="283.213" y1="396" x2="291.402" y2="396"/>
	</g>
	<g id="Mini">
		<polyline fill="none" stroke="#000000" stroke-width="5" points="283.728,441.999 305.005,420.731 326.273,442.008 		"/>
		<polyline fill="none" stroke="#000000" stroke-width="5" points="325.192,349.759 303.915,371.026 282.646,349.75 		"/>
		<polyline fill="none" stroke="#000000" stroke-width="5" points="194.55,374.727 215.818,396.004 194.542,417.273 		"/>
		<polyline fill="none" stroke="#000000" stroke-width="5" points="414.296,417.273 393.027,395.996 414.305,374.727 		"/>
	</g>
</g>
</svg>
