<?xml version="1.0" encoding="utf-8"?>
<!-- Generator: Adobe Illustrator 16.0.0, SVG Export Plug-In . SVG Version: 6.00 Build 0)  -->
<!DOCTYPE svg PUBLIC "-//W3C//DTD SVG 1.1//EN" "http://www.w3.org/Graphics/SVG/1.1/DTD/svg11.dtd">
<svg version="1.1" id="Version_1.0" xmlns="http://www.w3.org/2000/svg" xmlns:xlink="http://www.w3.org/1999/xlink" x="0px"
	 y="0px" width="612px" height="792px" viewBox="0 0 612 792" enable-background="new 0 0 612 792" xml:space="preserve">
<g id="octagon" display="none">
	
		<line id="mod2_1_" display="inline" fill="none" stroke="#0000FF" stroke-width="2" x1="203.966" y1="445.015" x2="406.199" y2="445.295"/>
	
		<line id="mod1_1_" display="inline" fill="none" stroke="#0000FF" stroke-width="2" x1="203.966" y1="346.985" x2="406.199" y2="346.705"/>
	<g id="outFrame" display="inline">
		<line fill="none" stroke="#0000FF" stroke-width="2" x1="220" y1="309.5" x2="306" y2="273"/>
		<line fill="none" stroke="#0000FF" stroke-width="2" x1="306" y1="273" x2="390.5" y2="309.5"/>
		<line fill="none" stroke="#0000FF" stroke-width="2" x1="390.5" y1="309.5" x2="427" y2="396"/>
		<line fill="none" stroke="#0000FF" stroke-width="2" x1="427" y1="396" x2="390.5" y2="482.5"/>
		<line fill="none" stroke="#0000FF" stroke-width="2" x1="390.5" y1="482.5" x2="306" y2="516"/>
		<line fill="none" stroke="#0000FF" stroke-width="2" x1="306" y1="516" x2="220" y2="482.5"/>
		<line fill="none" stroke="#0000FF" stroke-width="2" x1="220" y1="482.5" x2="183" y2="396"/>
		<line fill="none" stroke="#0000FF" stroke-width="2" x1="183" y1="396" x2="220" y2="309.5"/>
	</g>
</g>
<g id="main">
	<path fill="none" stroke="#000000" stroke-width="5" d="M311.125,369.555c38.981,0.917,69.855,13.302,69.855,28.445
		c0,15.74-33.355,28.5-74.5,28.5c-41.146,0-74.5-12.76-74.5-28.5c0-15.269,31.39-27.734,70.832-28.466"/>
	<path fill="#FFFFFF" stroke="#000000" stroke-width="5" d="M310.947,384.162c24.048,0.621,42.869,6.209,42.869,13.01
		c0,7.217-21.191,13.066-47.333,13.066c-26.143,0-47.335-5.851-47.335-13.066c0-6.898,19.361-12.548,43.899-13.033"/>
	<polyline fill="none" stroke="#000000" stroke-width="5" points="311.479,425.667 311.479,440.875 301.48,440.875 301.48,425.334 	
		"/>
	<polyline fill="none" stroke="#000000" stroke-width="5" points="301.48,412.5 301.48,349.125 311.479,349.125 311.479,411.035 	
		"/>
</g>
</svg>
