<?xml version="1.0" encoding="utf-8"?>
<!-- Generator: Adobe Illustrator 16.0.0, SVG Export Plug-In . SVG Version: 6.00 Build 0)  -->
<!DOCTYPE svg PUBLIC "-//W3C//DTD SVG 1.1//EN" "http://www.w3.org/Graphics/SVG/1.1/DTD/svg11.dtd">
<svg version="1.1" id="Version_1.0" xmlns="http://www.w3.org/2000/svg" xmlns:xlink="http://www.w3.org/1999/xlink" x="0px"
	 y="0px" width="612px" height="792px" viewBox="0 0 612 792" enable-background="new 0 0 612 792" xml:space="preserve">
<g id="Amplifier">
	<path fill="none" stroke="#000000" stroke-width="5" stroke-linecap="round" stroke-linejoin="round" stroke-miterlimit="10" d="
		M501.283,589.795c-0.012-15.354-12.462-27.796-27.817-27.796c-15.363,0-27.818,12.455-27.818,27.818
		c0,15.362-12.454,27.817-27.817,27.817s-27.818-12.455-27.818-27.817c0-0.008,0-0.016,0-0.022h-0.002
		c-0.011-15.354-12.462-27.796-27.817-27.796c-15.363,0-27.817,12.455-27.817,27.818c0,15.362-12.455,27.817-27.818,27.817
		c-15.364,0-27.818-12.455-27.818-27.817c0-0.008,0-0.016-0.001-0.022c-0.012-15.354-12.462-27.796-27.818-27.796
		c-15.363,0-27.818,12.455-27.818,27.818c0,15.362-12.455,27.817-27.818,27.817c-15.363,0-27.818-12.455-27.818-27.817
		c0-0.008,0-0.016,0-0.022c-0.012-15.354-12.462-27.796-27.818-27.796c-15.363,0-27.818,12.455-27.818,27.818"/>
</g>
</svg>
