<?xml version="1.0" encoding="utf-8"?>
<!-- Generator: Adobe Illustrator 14.0.0, SVG Export Plug-In . SVG Version: 6.00 Build 43363)  -->
<!DOCTYPE svg PUBLIC "-//W3C//DTD SVG 1.1//EN" "http://www.w3.org/Graphics/SVG/1.1/DTD/svg11.dtd">
<svg version="1.1" id="Version_1.0" xmlns="http://www.w3.org/2000/svg" xmlns:xlink="http://www.w3.org/1999/xlink" x="0px" y="0px"
	 width="612px" height="792px" viewBox="0 0 612 792" enable-background="new 0 0 612 792" xml:space="preserve">
<g id="octagon" display="none">
	
		<line id="mod2_1_" display="inline" fill="none" stroke="#0000FF" stroke-width="2" x1="203.966" y1="445.015" x2="406.199" y2="445.295"/>
	
		<line id="mod1_1_" display="inline" fill="none" stroke="#0000FF" stroke-width="2" x1="203.966" y1="346.985" x2="406.199" y2="346.705"/>
	<g id="outFrame" display="inline">
		<line fill="none" stroke="#0000FF" stroke-width="2" x1="220" y1="309.5" x2="306" y2="273"/>
		<line fill="none" stroke="#0000FF" stroke-width="2" x1="306" y1="273" x2="390.5" y2="309.5"/>
		<line fill="none" stroke="#0000FF" stroke-width="2" x1="390.5" y1="309.5" x2="427" y2="396"/>
		<line fill="none" stroke="#0000FF" stroke-width="2" x1="427" y1="396" x2="390.5" y2="482.5"/>
		<line fill="none" stroke="#0000FF" stroke-width="2" x1="390.5" y1="482.5" x2="306" y2="516"/>
		<line fill="none" stroke="#0000FF" stroke-width="2" x1="306" y1="516" x2="220" y2="482.5"/>
		<line fill="none" stroke="#0000FF" stroke-width="2" x1="220" y1="482.5" x2="183" y2="396"/>
		<line fill="none" stroke="#0000FF" stroke-width="2" x1="183" y1="396" x2="220" y2="309.5"/>
	</g>
</g>
<g id="main">
	<polyline fill="none" stroke="#000000" stroke-width="9" points="314.258,387.191 338.484,395.45 330.188,407.012 355.002,414.721 
			"/>
	<polyline fill="none" stroke="#000000" stroke-width="9" points="314.258,375.079 340.686,368.472 334.631,357.46 355.002,350.853 
			"/>
	<polyline fill="none" stroke="#000000" stroke-width="9" points="256.999,350.853 282.325,357.46 276.819,368.472 296.64,375.079 	
		"/>
	<polyline fill="none" stroke="#000000" stroke-width="9" points="256.999,414.721 282.325,405.91 276.819,395.45 296.64,387.191 	
		"/>
	<line fill="none" stroke="#000000" stroke-width="9" x1="274.617" y1="441.148" x2="333.529" y2="441.148"/>
	<line fill="none" stroke="#000000" stroke-width="9" x1="306.275" y1="438.945" x2="306.275" y2="393.248"/>
</g>
</svg>
