<?xml version="1.0" encoding="utf-8"?>
<!-- Generator: Adobe Illustrator 16.0.0, SVG Export Plug-In . SVG Version: 6.00 Build 0)  -->
<!DOCTYPE svg PUBLIC "-//W3C//DTD SVG 1.1//EN" "http://www.w3.org/Graphics/SVG/1.1/DTD/svg11.dtd">
<svg version="1.1" id="Version_1.0" xmlns="http://www.w3.org/2000/svg" xmlns:xlink="http://www.w3.org/1999/xlink" x="0px"
	 y="0px" width="612px" height="792px" viewBox="0 0 612 792" enable-background="new 0 0 612 792" xml:space="preserve">
<g id="octagon" display="none">
	<g id="outFrame" display="inline">
		<line fill="none" stroke="#0000FF" stroke-width="2" x1="220" y1="309.5" x2="306" y2="273"/>
		<line fill="none" stroke="#0000FF" stroke-width="2" x1="306" y1="273" x2="390.5" y2="309.5"/>
		<line fill="none" stroke="#0000FF" stroke-width="2" x1="390.5" y1="309.5" x2="427" y2="396"/>
		<line fill="none" stroke="#0000FF" stroke-width="2" x1="427" y1="396" x2="390.5" y2="482.5"/>
		<line fill="none" stroke="#0000FF" stroke-width="2" x1="390.5" y1="482.5" x2="306" y2="516"/>
		<line fill="none" stroke="#0000FF" stroke-width="2" x1="306" y1="516" x2="220" y2="482.5"/>
		<line fill="none" stroke="#0000FF" stroke-width="2" x1="220" y1="482.5" x2="183" y2="396"/>
		<line fill="none" stroke="#0000FF" stroke-width="2" x1="183" y1="396" x2="220" y2="309.5"/>
	</g>
	
		<line id="mod2_1_" display="inline" fill="none" stroke="#0000FF" stroke-width="2" x1="203.966" y1="445.015" x2="406.199" y2="445.295"/>
	
		<line id="mod1_1_" display="inline" fill="none" stroke="#0000FF" stroke-width="2" x1="203.966" y1="346.985" x2="406.199" y2="346.705"/>
</g>
<g id="main">
	<polyline fill="none" stroke="#000000" stroke-width="5" points="202,326 306,416 306,376 410,466 	"/>
	<g>
		<rect x="240.558" y="346.985" stroke="#000000" stroke-width="5" width="37.512" height="75.023"/>
		<rect x="333.586" y="346.985" stroke="#000000" stroke-width="5" width="37.511" height="75.023"/>
		<rect x="288.072" y="354.487" stroke="#000000" stroke-width="5" width="34.511" height="60.018"/>
		<line fill="none" stroke="#000000" stroke-width="5" x1="279.069" y1="384.497" x2="288.072" y2="384.497"/>
		<line fill="none" stroke="#000000" stroke-width="5" x1="322.583" y1="384.497" x2="331.586" y2="384.497"/>
		<line fill="none" stroke="#000000" stroke-width="5" x1="305.327" y1="414.505" x2="305.327" y2="433.262"/>
		<path fill="none" stroke="#000000" stroke-width="5" d="M267.816,444.515c18.756-15.005,56.267-15.005,75.023,0"/>
	</g>
</g>
</svg>
