<?xml version="1.0" encoding="utf-8"?>
<!-- Generator: Adobe Illustrator 16.0.0, SVG Export Plug-In . SVG Version: 6.00 Build 0)  -->
<!DOCTYPE svg PUBLIC "-//W3C//DTD SVG 1.1//EN" "http://www.w3.org/Graphics/SVG/1.1/DTD/svg11.dtd">
<svg version="1.1" id="Version_1.0" xmlns="http://www.w3.org/2000/svg" xmlns:xlink="http://www.w3.org/1999/xlink" x="0px"
	 y="0px" width="612px" height="792px" viewBox="0 0 612 792" enable-background="new 0 0 612 792" xml:space="preserve">
<g id="octagon" display="none">
	<g id="outFrame" display="inline">
		<line fill="none" stroke="#0000FF" stroke-width="2" x1="220" y1="309.5" x2="306" y2="273"/>
		<line fill="none" stroke="#0000FF" stroke-width="2" x1="306" y1="273" x2="390.5" y2="309.5"/>
		<line fill="none" stroke="#0000FF" stroke-width="2" x1="390.5" y1="309.5" x2="427" y2="396"/>
		<line fill="none" stroke="#0000FF" stroke-width="2" x1="427" y1="396" x2="390.5" y2="482.5"/>
		<line fill="none" stroke="#0000FF" stroke-width="2" x1="390.5" y1="482.5" x2="306" y2="516"/>
		<line fill="none" stroke="#0000FF" stroke-width="2" x1="306" y1="516" x2="220" y2="482.5"/>
		<line fill="none" stroke="#0000FF" stroke-width="2" x1="220" y1="482.5" x2="183" y2="396"/>
		<line fill="none" stroke="#0000FF" stroke-width="2" x1="183" y1="396" x2="220" y2="309.5"/>
	</g>
	
		<line id="mod2_1_" display="inline" fill="none" stroke="#0000FF" stroke-width="2" x1="203.966" y1="445.015" x2="406.199" y2="445.295"/>
	
		<line id="mod1_1_" display="inline" fill="none" stroke="#0000FF" stroke-width="2" x1="203.966" y1="346.985" x2="406.199" y2="346.705"/>
</g>
<g id="main">
	<rect x="239.667" y="350.139" stroke="#000000" stroke-width="5" width="33.833" height="78.361"/>
	<rect x="333.583" y="350.139" stroke="#000000" stroke-width="5" width="33.834" height="78.361"/>
	<rect x="291.832" y="358.631" stroke="#000000" stroke-width="5" width="26.501" height="61.377"/>
	<line fill="none" stroke="#000000" stroke-width="5" x1="272.167" y1="389.319" x2="335.833" y2="389.319"/>
	<line fill="none" stroke="#000000" stroke-width="5" x1="304" y1="418.5" x2="304" y2="432.5"/>
	<path fill="none" stroke="#000000" stroke-width="5" d="M281.764,442.667c11.142-12.532,31.032-13.003,44.471-1.055"/>
	<polyline fill="none" stroke="#000000" stroke-width="5" stroke-miterlimit="1" points="126.984,279.068 304.083,422.5 
		304.943,371.5 484.5,511 	"/>
</g>
<rect id="greyBox" x="126.5" y="276" display="none" fill="none" stroke="#C8C8C8" stroke-width="10" width="359" height="240"/>
</svg>
