<?xml version="1.0" encoding="utf-8"?>
<!-- Generator: Adobe Illustrator 16.0.0, SVG Export Plug-In . SVG Version: 6.00 Build 0)  -->
<!DOCTYPE svg PUBLIC "-//W3C//DTD SVG 1.1//EN" "http://www.w3.org/Graphics/SVG/1.1/DTD/svg11.dtd">
<svg version="1.1" id="Version_1.0" xmlns="http://www.w3.org/2000/svg" xmlns:xlink="http://www.w3.org/1999/xlink" x="0px"
	 y="0px" width="612px" height="792px" viewBox="0 0 612 792" enable-background="new 0 0 612 792" xml:space="preserve">
<g id="octagon" display="none">
	<g id="outFrame" display="inline">
		<line fill="none" stroke="#0000FF" stroke-width="2" x1="220" y1="309.5" x2="306" y2="273"/>
		<line fill="none" stroke="#0000FF" stroke-width="2" x1="306" y1="273" x2="390.5" y2="309.5"/>
		<line fill="none" stroke="#0000FF" stroke-width="2" x1="390.5" y1="309.5" x2="427" y2="396"/>
		<line fill="none" stroke="#0000FF" stroke-width="2" x1="427" y1="396" x2="390.5" y2="482.5"/>
		<line fill="none" stroke="#0000FF" stroke-width="2" x1="390.5" y1="482.5" x2="306" y2="516"/>
		<line fill="none" stroke="#0000FF" stroke-width="2" x1="306" y1="516" x2="220" y2="482.5"/>
		<line fill="none" stroke="#0000FF" stroke-width="2" x1="220" y1="482.5" x2="183" y2="396"/>
		<line fill="none" stroke="#0000FF" stroke-width="2" x1="183" y1="396" x2="220" y2="309.5"/>
	</g>
	
		<line id="mod2_1_" display="inline" fill="none" stroke="#0000FF" stroke-width="2" x1="203.966" y1="445.015" x2="406.199" y2="445.295"/>
	
		<line id="mod1_1_" display="inline" fill="none" stroke="#0000FF" stroke-width="2" x1="203.966" y1="346.985" x2="406.199" y2="346.705"/>
</g>
<g id="main">
	<polyline fill="none" stroke="#000000" stroke-width="5" points="186,316 306,415 306,375 426,474 	"/>
	<g>
		<line fill="none" stroke="#000000" stroke-width="5" x1="264.092" y1="364.173" x2="279.372" y2="349.985"/>
		<line fill="none" stroke="#000000" stroke-width="5" x1="276.097" y1="349.985" x2="293.014" y2="364.173"/>
		<line fill="none" stroke="#000000" stroke-width="5" x1="289.739" y1="364.173" x2="306.655" y2="349.985"/>
		<line fill="none" stroke="#000000" stroke-width="5" x1="303.381" y1="349.985" x2="320.298" y2="364.173"/>
		<line fill="none" stroke="#000000" stroke-width="5" x1="317.022" y1="364.173" x2="333.939" y2="349.985"/>
		<line fill="none" stroke="#000000" stroke-width="5" x1="330.665" y1="349.985" x2="345.945" y2="364.173"/>
		<line fill="none" stroke="#000000" stroke-width="5" x1="305.019" y1="351.622" x2="305.019" y2="411.647"/>
		<ellipse fill="none" stroke="#000000" stroke-width="5" cx="305.019" cy="426.654" rx="16.371" ry="16.371"/>
	</g>
</g>
</svg>
