<?xml version="1.0" encoding="utf-8"?>
<!-- Generator: Adobe Illustrator 16.0.0, SVG Export Plug-In . SVG Version: 6.00 Build 0)  -->
<!DOCTYPE svg PUBLIC "-//W3C//DTD SVG 1.1//EN" "http://www.w3.org/Graphics/SVG/1.1/DTD/svg11.dtd">
<svg version="1.1" id="Version_1.0" xmlns="http://www.w3.org/2000/svg" xmlns:xlink="http://www.w3.org/1999/xlink" x="0px"
	 y="0px" width="612px" height="792px" viewBox="0 0 612 792" enable-background="new 0 0 612 792" xml:space="preserve">
<g id="octagon" display="none">
	
		<line id="mod2_1_" display="inline" fill="none" stroke="#0000FF" stroke-width="2" x1="203.966" y1="445.015" x2="406.199" y2="445.295"/>
	
		<line id="mod1_1_" display="inline" fill="none" stroke="#0000FF" stroke-width="2" x1="203.966" y1="346.985" x2="406.199" y2="346.705"/>
	<g id="outFrame" display="inline">
		<line fill="none" stroke="#0000FF" stroke-width="2" x1="220" y1="309.5" x2="306" y2="273"/>
		<line fill="none" stroke="#0000FF" stroke-width="2" x1="306" y1="273" x2="390.5" y2="309.5"/>
		<line fill="none" stroke="#0000FF" stroke-width="2" x1="390.5" y1="309.5" x2="427" y2="396"/>
		<line fill="none" stroke="#0000FF" stroke-width="2" x1="427" y1="396" x2="390.5" y2="482.5"/>
		<line fill="none" stroke="#0000FF" stroke-width="2" x1="390.5" y1="482.5" x2="306" y2="516"/>
		<line fill="none" stroke="#0000FF" stroke-width="2" x1="306" y1="516" x2="220" y2="482.5"/>
		<line fill="none" stroke="#0000FF" stroke-width="2" x1="220" y1="482.5" x2="183" y2="396"/>
		<line fill="none" stroke="#0000FF" stroke-width="2" x1="183" y1="396" x2="220" y2="309.5"/>
	</g>
</g>
<g id="main">
	<path fill="none" stroke="#000000" stroke-width="5" d="M178.342,370.75c11.697,0,21.18,10.082,21.18,22.518"/>
	<path fill="none" stroke="#000000" stroke-width="5" d="M242.136,392.398c0,12.438-9.482,22.519-21.18,22.519
		c-11.697,0-21.182-10.081-21.182-22.519"/>
	<path fill="none" stroke="#000000" stroke-width="5" d="M242.136,393.268c0-12.436,9.483-22.518,21.182-22.518
		c11.697,0,21.179,10.082,21.179,22.518"/>
	<path fill="none" stroke="#000000" stroke-width="5" d="M326.857,392.398c0,12.438-9.483,22.519-21.18,22.519
		c-11.698,0-21.181-10.081-21.181-22.519"/>
	<path fill="none" stroke="#000000" stroke-width="5" d="M326.857,393.268c0-12.436,9.481-22.518,21.182-22.518
		c11.698,0,21.181,10.082,21.181,22.518"/>
	<path fill="none" stroke="#000000" stroke-width="5" d="M411.579,392.398c0,12.438-9.481,22.519-21.182,22.519
		c-11.697,0-21.18-10.081-21.18-22.519"/>
	<path fill="none" stroke="#000000" stroke-width="5" d="M411.579,393.268c0-12.436,9.483-22.518,21.181-22.518"/>
</g>
</svg>
