<?xml version="1.0" encoding="utf-8"?>
<!-- Generator: Adobe Illustrator 16.0.0, SVG Export Plug-In . SVG Version: 6.00 Build 0)  -->
<!DOCTYPE svg PUBLIC "-//W3C//DTD SVG 1.1//EN" "http://www.w3.org/Graphics/SVG/1.1/DTD/svg11.dtd">
<svg version="1.1" id="Version_1.0" xmlns="http://www.w3.org/2000/svg" xmlns:xlink="http://www.w3.org/1999/xlink" x="0px"
	 y="0px" width="612px" height="792px" viewBox="0 0 612 792" enable-background="new 0 0 612 792" xml:space="preserve">
<g id="octagon" display="none">
	<g id="outFrame" display="inline">
		<line fill="none" stroke="#0000FF" stroke-width="2" x1="220" y1="309.5" x2="306" y2="273"/>
		<line fill="none" stroke="#0000FF" stroke-width="2" x1="306" y1="273" x2="390.5" y2="309.5"/>
		<line fill="none" stroke="#0000FF" stroke-width="2" x1="390.5" y1="309.5" x2="427" y2="396"/>
		<line fill="none" stroke="#0000FF" stroke-width="2" x1="427" y1="396" x2="390.5" y2="482.5"/>
		<line fill="none" stroke="#0000FF" stroke-width="2" x1="390.5" y1="482.5" x2="306" y2="516"/>
		<line fill="none" stroke="#0000FF" stroke-width="2" x1="306" y1="516" x2="220" y2="482.5"/>
		<line fill="none" stroke="#0000FF" stroke-width="2" x1="220" y1="482.5" x2="183" y2="396"/>
		<line fill="none" stroke="#0000FF" stroke-width="2" x1="183" y1="396" x2="220" y2="309.5"/>
	</g>
	
		<line id="mod2_1_" display="inline" fill="none" stroke="#0000FF" stroke-width="2" x1="203.966" y1="445.015" x2="406.199" y2="445.295"/>
	
		<line id="mod1_1_" display="inline" fill="none" stroke="#0000FF" stroke-width="2" x1="203.966" y1="346.985" x2="406.199" y2="346.705"/>
</g>
<g id="main">
	<g id="symbol">
		<line fill="none" stroke="#000000" stroke-width="5" x1="174" y1="528" x2="438" y2="264"/>
		<line fill="none" stroke="#000000" stroke-width="5" x1="174" y1="264" x2="438" y2="528"/>
	</g>
	<path fill="none" stroke="#000000" stroke-width="5" d="M170.695,373.75c12.436,0,22.518,10.082,22.518,22.518"/>
	<path fill="none" stroke="#000000" stroke-width="5" d="M238.518,395.398c0,12.438-10.081,22.519-22.518,22.519
		c-12.436,0-22.519-10.081-22.519-22.519"/>
	<path fill="none" stroke="#000000" stroke-width="5" d="M238.518,396.268c0-12.436,10.082-22.518,22.519-22.518
		c12.436,0,22.517,10.082,22.517,22.518"/>
	<path fill="none" stroke="#000000" stroke-width="5" d="M328.59,395.398c0,12.438-10.082,22.519-22.517,22.519
		c-12.438,0-22.519-10.081-22.519-22.519"/>
	<path fill="none" stroke="#000000" stroke-width="5" d="M328.59,396.268c0-12.436,10.082-22.518,22.521-22.518
		c12.437,0,22.518,10.082,22.518,22.518"/>
	<path fill="none" stroke="#000000" stroke-width="5" d="M418.662,395.398c0,12.438-10.082,22.519-22.521,22.519
		c-12.436,0-22.518-10.081-22.518-22.519"/>
	<path fill="none" stroke="#000000" stroke-width="5" d="M418.662,396.268c0-12.436,10.082-22.518,22.518-22.518"/>
</g>
</svg>
