<?xml version="1.0" encoding="utf-8"?>
<!-- Generator: Adobe Illustrator 16.0.0, SVG Export Plug-In . SVG Version: 6.00 Build 0)  -->
<!DOCTYPE svg PUBLIC "-//W3C//DTD SVG 1.1//EN" "http://www.w3.org/Graphics/SVG/1.1/DTD/svg11.dtd">
<svg version="1.1" id="Version_1.0" xmlns="http://www.w3.org/2000/svg" xmlns:xlink="http://www.w3.org/1999/xlink" x="0px"
	 y="0px" width="612px" height="792px" viewBox="0 0 612 792" enable-background="new 0 0 612 792" xml:space="preserve">
<g id="octagon" display="none">
	<g id="outFrame" display="inline">
		<line fill="none" stroke="#0000FF" stroke-width="2" x1="220" y1="309.5" x2="306" y2="273"/>
		<line fill="none" stroke="#0000FF" stroke-width="2" x1="306" y1="273" x2="390.5" y2="309.5"/>
		<line fill="none" stroke="#0000FF" stroke-width="2" x1="390.5" y1="309.5" x2="427" y2="396"/>
		<line fill="none" stroke="#0000FF" stroke-width="2" x1="427" y1="396" x2="390.5" y2="482.5"/>
		<line fill="none" stroke="#0000FF" stroke-width="2" x1="390.5" y1="482.5" x2="306" y2="516"/>
		<line fill="none" stroke="#0000FF" stroke-width="2" x1="306" y1="516" x2="220" y2="482.5"/>
		<line fill="none" stroke="#0000FF" stroke-width="2" x1="220" y1="482.5" x2="183" y2="396"/>
		<line fill="none" stroke="#0000FF" stroke-width="2" x1="183" y1="396" x2="220" y2="309.5"/>
	</g>
	
		<line id="mod2_1_" display="inline" fill="none" stroke="#0000FF" stroke-width="2" x1="203.966" y1="445.015" x2="406.199" y2="445.295"/>
	
		<line id="mod1_1_" display="inline" fill="none" stroke="#0000FF" stroke-width="2" x1="203.966" y1="346.985" x2="406.199" y2="346.705"/>
</g>
<g id="main">
	<g>
		<polyline fill="#FFFFFF" stroke="#000000" stroke-width="5" points="246.752,395.855 246.752,451.618 309.485,451.618 
			337.367,479.5 337.367,367.974 309.485,395.855 246.752,395.855 246.752,451.618 		"/>
		<line fill="none" stroke="#000000" stroke-width="5" x1="337.367" y1="435.587" x2="365.248" y2="435.587"/>
		<line fill="none" stroke="#000000" stroke-width="5" x1="337.367" y1="411.888" x2="365.248" y2="411.888"/>
		<line fill="none" stroke="#000000" stroke-width="5" x1="337.367" y1="388.885" x2="365.248" y2="388.885"/>
		<line fill="none" stroke="#000000" stroke-width="5" x1="337.367" y1="458.589" x2="365.248" y2="458.589"/>
	</g>
	<g id="Symbol">
		<path stroke="#000000" d="M387.356,333.482c0,11.495-10.057,20.813-22.46,20.813c-12.402,0-52.964-20.813-52.964-20.813
			s40.562-20.812,52.964-20.812C377.3,312.67,387.356,321.988,387.356,333.482z"/>
		<path stroke="#000000" d="M234.652,333.661c0-11.686,10.224-21.161,22.835-21.161c12.611,0,53.852,21.161,53.852,21.161
			s-41.24,21.16-53.852,21.16C244.875,354.821,234.652,345.347,234.652,333.661z"/>
	</g>
</g>
</svg>
