<?xml version="1.0" encoding="utf-8"?>
<!-- Generator: Adobe Illustrator 16.0.0, SVG Export Plug-In . SVG Version: 6.00 Build 0)  -->
<!DOCTYPE svg PUBLIC "-//W3C//DTD SVG 1.1//EN" "http://www.w3.org/Graphics/SVG/1.1/DTD/svg11.dtd">
<svg version="1.1" id="Version_1.0" xmlns="http://www.w3.org/2000/svg" xmlns:xlink="http://www.w3.org/1999/xlink" x="0px"
	 y="0px" width="612px" height="792px" viewBox="0 0 612 792" enable-background="new 0 0 612 792" xml:space="preserve">
<g id="octagon" display="none">
	<g id="outFrame" display="inline">
		<line fill="none" stroke="#0000FF" stroke-width="2" x1="220" y1="309.5" x2="306" y2="273"/>
		<line fill="none" stroke="#0000FF" stroke-width="2" x1="306" y1="273" x2="390.5" y2="309.5"/>
		<line fill="none" stroke="#0000FF" stroke-width="2" x1="390.5" y1="309.5" x2="427" y2="396"/>
		<line fill="none" stroke="#0000FF" stroke-width="2" x1="427" y1="396" x2="390.5" y2="482.5"/>
		<line fill="none" stroke="#0000FF" stroke-width="2" x1="390.5" y1="482.5" x2="306" y2="516"/>
		<line fill="none" stroke="#0000FF" stroke-width="2" x1="306" y1="516" x2="220" y2="482.5"/>
		<line fill="none" stroke="#0000FF" stroke-width="2" x1="220" y1="482.5" x2="183" y2="396"/>
		<line fill="none" stroke="#0000FF" stroke-width="2" x1="183" y1="396" x2="220" y2="309.5"/>
	</g>
	
		<line id="mod2_1_" display="inline" fill="none" stroke="#0000FF" stroke-width="2" x1="203.966" y1="445.015" x2="406.199" y2="445.295"/>
	
		<line id="mod1_1_" display="inline" fill="none" stroke="#0000FF" stroke-width="2" x1="203.966" y1="346.985" x2="406.199" y2="346.705"/>
</g>
<g id="main">
	<line fill="none" stroke="#000000" stroke-width="5" x1="484.5" y1="279.902" x2="129.18" y2="515"/>
	<g id="symbol">
		<path fill="none" stroke="#000000" stroke-width="5" d="M250.552,441c-22.895,0-41.457-19.98-41.457-44.626
			c0-24.646,18.562-44.624,41.457-44.624"/>
		<path fill="none" stroke="#000000" stroke-width="5" d="M361.448,351.75c22.896,0,41.457,19.979,41.457,44.624
			c0,24.645-18.563,44.626-41.457,44.626"/>
		<line fill="none" stroke="#000000" stroke-width="5" x1="250.552" y1="351.75" x2="361.448" y2="351.75"/>
		<line fill="none" stroke="#000000" stroke-width="5" x1="250.552" y1="441" x2="361.448" y2="441"/>
	</g>
	<circle id="symbol_1_" cx="305.083" cy="396" r="37.833"/>
</g>
<rect id="greyBox" x="125.5" y="275" display="none" fill="none" stroke="#C8C8C8" stroke-width="10" width="359" height="240"/>
</svg>
