<?xml version="1.0" encoding="utf-8"?>
<!-- Generator: Adobe Illustrator 16.0.0, SVG Export Plug-In . SVG Version: 6.00 Build 0)  -->
<!DOCTYPE svg PUBLIC "-//W3C//DTD SVG 1.1//EN" "http://www.w3.org/Graphics/SVG/1.1/DTD/svg11.dtd">
<svg version="1.1" id="Version_1.0" xmlns="http://www.w3.org/2000/svg" xmlns:xlink="http://www.w3.org/1999/xlink" x="0px"
	 y="0px" width="612px" height="792px" viewBox="0 0 612 792" enable-background="new 0 0 612 792" xml:space="preserve">
<g id="octagon" display="none">
	<g id="outFrame" display="inline">
		<line fill="none" stroke="#0000FF" stroke-width="2" x1="220" y1="309.5" x2="306" y2="273"/>
		<line fill="none" stroke="#0000FF" stroke-width="2" x1="306" y1="273" x2="390.5" y2="309.5"/>
		<line fill="none" stroke="#0000FF" stroke-width="2" x1="390.5" y1="309.5" x2="427" y2="396"/>
		<line fill="none" stroke="#0000FF" stroke-width="2" x1="427" y1="396" x2="390.5" y2="482.5"/>
		<line fill="none" stroke="#0000FF" stroke-width="2" x1="390.5" y1="482.5" x2="306" y2="516"/>
		<line fill="none" stroke="#0000FF" stroke-width="2" x1="306" y1="516" x2="220" y2="482.5"/>
		<line fill="none" stroke="#0000FF" stroke-width="2" x1="220" y1="482.5" x2="183" y2="396"/>
		<line fill="none" stroke="#0000FF" stroke-width="2" x1="183" y1="396" x2="220" y2="309.5"/>
	</g>
	
		<line id="mod2_1_" display="inline" fill="none" stroke="#0000FF" stroke-width="2" x1="203.966" y1="445.015" x2="406.199" y2="445.295"/>
	
		<line id="mod1_1_" display="inline" fill="none" stroke="#0000FF" stroke-width="2" x1="203.966" y1="346.985" x2="406.199" y2="346.705"/>
</g>
<g id="main">
	<g>
		<g>
			<ellipse fill="none" stroke="#000000" stroke-width="4" cx="305" cy="284.841" rx="4.939" ry="4.939"/>
			<line fill="none" stroke="#000000" stroke-width="5" x1="305" y1="289.78" x2="305" y2="339.169"/>
			<line fill="none" stroke="#000000" stroke-width="5" x1="288.75" y1="292.867" x2="321.25" y2="292.867"/>
			<path stroke="#000000" stroke-width="4" d="M274.132,314.475c15.434,30.868,46.302,30.868,61.736,0
				C320.434,349.973,289.566,349.973,274.132,314.475"/>
			<path stroke="#000000" stroke-width="4" d="M274.132,314.475c2.469,13.891,4.013,13.891,4.013,13.891l4.63-6.174
				c-4.013-1.543-5.556-4.63-7.717-6.791"/>
			<path stroke="#000000" stroke-width="4" d="M335.868,314.475c-2.47,13.891-4.013,13.891-4.013,13.891l-4.635-6.174
				c4.018-1.543,5.561-4.63,7.721-6.791"/>
		</g>
	</g>
	<line fill="none" stroke="#000000" stroke-width="5" x1="427.336" y1="317.724" x2="188.516" y2="475.74"/>
	<g>
		<polyline points="309.939,396 219.939,346 219.939,446 309.939,396 399.939,346 399.939,446 309.939,396 		"/>
		<ellipse stroke="#000000" stroke-width="5" cx="309.938" cy="396" rx="35.171" ry="35.171"/>
	</g>
</g>
</svg>
