<?xml version="1.0" encoding="utf-8"?>
<!-- Generator: Adobe Illustrator 16.0.0, SVG Export Plug-In . SVG Version: 6.00 Build 0)  -->
<!DOCTYPE svg PUBLIC "-//W3C//DTD SVG 1.1//EN" "http://www.w3.org/Graphics/SVG/1.1/DTD/svg11.dtd">
<svg version="1.1" id="Version_1.0" xmlns="http://www.w3.org/2000/svg" xmlns:xlink="http://www.w3.org/1999/xlink" x="0px" y="0px"
	 width="612px" height="792px" viewBox="0 0 612 792" enable-background="new 0 0 612 792" xml:space="preserve">
<g id="octagon" display="none">
	
		<line id="mod2_1_" display="inline" fill="none" stroke="#0000FF" stroke-width="2" x1="203.966" y1="445.015" x2="406.199" y2="445.295"/>
	
		<line id="mod1_1_" display="inline" fill="none" stroke="#0000FF" stroke-width="2" x1="203.966" y1="346.985" x2="406.199" y2="346.705"/>
	<g id="outFrame" display="inline">
		<line fill="none" stroke="#0000FF" stroke-width="2" x1="220" y1="309.5" x2="306" y2="273"/>
		<line fill="none" stroke="#0000FF" stroke-width="2" x1="306" y1="273" x2="390.5" y2="309.5"/>
		<line fill="none" stroke="#0000FF" stroke-width="2" x1="390.5" y1="309.5" x2="427" y2="396"/>
		<line fill="none" stroke="#0000FF" stroke-width="2" x1="427" y1="396" x2="390.5" y2="482.5"/>
		<line fill="none" stroke="#0000FF" stroke-width="2" x1="390.5" y1="482.5" x2="306" y2="516"/>
		<line fill="none" stroke="#0000FF" stroke-width="2" x1="306" y1="516" x2="220" y2="482.5"/>
		<line fill="none" stroke="#0000FF" stroke-width="2" x1="220" y1="482.5" x2="183" y2="396"/>
		<line fill="none" stroke="#0000FF" stroke-width="2" x1="183" y1="396" x2="220" y2="309.5"/>
	</g>
</g>
<g id="main">
	<g id="waves2">
		<path fill="none" stroke="#000000" stroke-width="5" d="M239.603,301.813c0,1.889-0.383,3.688-1.075,5.324
			c-0.692,1.637-1.694,3.111-2.932,4.349c-1.238,1.238-2.712,2.239-4.349,2.932c-1.637,0.693-3.436,1.075-5.325,1.075
			c-1.889,0-3.688-0.383-5.325-1.075c-1.637-0.692-3.111-1.694-4.349-2.932c-1.238-1.238-2.24-2.712-2.932-4.349
			c-0.692-1.637-1.075-3.436-1.075-5.324"/>
		<path fill="none" stroke="#000000" stroke-width="5" d="M184.882,302.053c0-1.889,0.383-3.688,1.075-5.324
			c0.692-1.637,1.694-3.111,2.932-4.349c1.238-1.238,2.712-2.239,4.349-2.932c1.637-0.693,3.436-1.075,5.325-1.075
			s3.688,0.383,5.325,1.075c1.637,0.692,3.111,1.694,4.349,2.932c1.238,1.238,2.24,2.712,2.932,4.349s1.075,3.436,1.075,5.324"/>
		<path fill="none" stroke="#000000" stroke-width="5" d="M294.324,301.813c0,1.889-0.383,3.688-1.075,5.324
			c-0.692,1.637-1.694,3.111-2.932,4.349c-1.238,1.238-2.712,2.239-4.349,2.932c-1.637,0.693-3.436,1.075-5.325,1.075
			s-3.688-0.383-5.325-1.075c-1.637-0.692-3.111-1.694-4.349-2.932c-1.238-1.238-2.24-2.712-2.932-4.349
			c-0.692-1.637-1.075-3.436-1.075-5.324"/>
		<path fill="none" stroke="#000000" stroke-width="5" d="M239.603,302.053c0-1.889,0.383-3.688,1.075-5.324
			c0.692-1.637,1.694-3.111,2.932-4.349c1.238-1.238,2.712-2.239,4.349-2.932c1.637-0.693,3.436-1.075,5.325-1.075
			c1.889,0,3.688,0.383,5.325,1.075c1.637,0.692,3.111,1.694,4.349,2.932c1.238,1.238,2.24,2.712,2.932,4.349
			s1.075,3.436,1.075,5.324"/>
		<path fill="none" stroke="#000000" stroke-width="5" d="M349.046,301.813c0,1.889-0.383,3.688-1.075,5.324
			c-0.689,1.636-1.69,3.111-2.932,4.349c-1.239,1.238-2.712,2.239-4.349,2.932c-1.64,0.693-3.438,1.075-5.325,1.075
			c-1.891,0-3.688-0.383-5.325-1.075s-3.11-1.694-4.349-2.932c-1.239-1.238-2.239-2.712-2.935-4.349
			c-0.69-1.637-1.075-3.436-1.075-5.324"/>
		<path fill="none" stroke="#000000" stroke-width="5" d="M294.324,302.053c0-1.889,0.383-3.688,1.075-5.324
			s1.694-3.111,2.932-4.349c1.238-1.238,2.712-2.239,4.348-2.932c1.637-0.692,3.436-1.075,5.325-1.075s3.688,0.383,5.324,1.075
			c1.636,0.692,3.111,1.694,4.349,2.932c1.238,1.238,2.239,2.712,2.935,4.349c0.69,1.637,1.072,3.436,1.072,5.324"/>
		<path fill="none" stroke="#000000" stroke-width="5" d="M184.882,301.813c0,1.889-0.383,3.688-1.075,5.324
			c-0.692,1.637-1.694,3.111-2.932,4.349c-1.238,1.238-2.712,2.239-4.349,2.932c-1.637,0.693-3.436,1.075-5.325,1.075
			c-1.889,0-3.688-0.383-5.325-1.075c-1.637-0.692-3.111-1.694-4.349-2.932c-1.238-1.238-2.24-2.712-2.932-4.349
			c-0.692-1.637-1.075-3.436-1.075-5.324"/>
		<path fill="none" stroke="#000000" stroke-width="5" d="M130.162,302.053c0-1.889,0.383-3.688,1.075-5.324
			c0.692-1.637,1.694-3.111,2.932-4.349c1.238-1.238,2.712-2.239,4.349-2.932c1.637-0.693,3.436-1.075,5.325-1.075
			c1.889,0,3.688,0.383,5.325,1.075c1.637,0.692,3.111,1.694,4.349,2.932c1.238,1.238,2.24,2.712,2.932,4.349
			c0.692,1.637,1.075,3.436,1.075,5.324"/>
		<path fill="none" stroke="#000000" stroke-width="5" d="M403.767,301.813c0,1.889-0.383,3.688-1.072,5.324
			c-0.692,1.636-1.693,3.111-2.935,4.349c-1.238,1.238-2.712,2.239-4.349,2.932s-3.438,1.075-5.325,1.075s-3.688-0.383-5.325-1.075
			c-1.637-0.692-3.107-1.694-4.349-2.932c-1.239-1.238-2.239-2.712-2.935-4.349c-0.69-1.637-1.072-3.436-1.072-5.324"/>
		<path fill="none" stroke="#000000" stroke-width="5" d="M349.046,302.053c0-1.889,0.383-3.688,1.075-5.324
			c0.691-1.636,1.693-3.111,2.932-4.349c1.239-1.238,2.712-2.239,4.352-2.932c1.636-0.692,3.436-1.075,5.321-1.075
			c1.891,0,3.688,0.383,5.324,1.075c1.64,0.692,3.11,1.694,4.352,2.932c1.236,1.238,2.236,2.712,2.932,4.349
			c0.693,1.637,1.075,3.436,1.075,5.324"/>
		<path fill="none" stroke="#000000" stroke-width="5" d="M458.487,301.813c0,1.889-0.386,3.688-1.075,5.324
			c-0.692,1.636-1.693,3.111-2.932,4.349c-1.239,1.238-2.715,2.239-4.352,2.932s-3.437,1.075-5.325,1.075
			c-1.888,0-3.688-0.383-5.325-1.075c-1.637-0.692-3.107-1.694-4.349-2.932c-1.239-1.238-2.239-2.712-2.932-4.349
			c-0.693-1.637-1.075-3.436-1.075-5.324"/>
		<path fill="none" stroke="#000000" stroke-width="5" d="M403.765,302.053c0-1.889,0.386-3.688,1.075-5.324
			c0.692-1.636,1.693-3.111,2.935-4.349c1.236-1.238,2.712-2.239,4.349-2.932c1.636-0.692,3.436-1.075,5.324-1.075
			c1.888,0,3.688,0.383,5.324,1.075c1.636,0.692,3.107,1.694,4.349,2.932c1.239,1.238,2.239,2.712,2.932,4.349
			c0.693,1.637,1.075,3.436,1.075,5.324"/>
		<path fill="none" stroke="#000000" stroke-width="5" d="M458.485,302.053c0-1.889,0.383-3.688,1.072-5.324
			c0.692-1.636,1.693-3.111,2.935-4.349c1.239-1.238,2.712-2.239,4.349-2.932c1.636-0.692,3.438-1.075,5.324-1.075
			s3.688,0.383,5.324,1.075c1.636,0.692,3.107,1.694,4.349,2.932c1.239,1.238,2.239,2.712,2.932,4.349
			c0.693,1.637,1.075,3.436,1.075,5.324"/>
		<path fill="none" stroke="#000000" stroke-width="5" d="M130.162,300.864c0,0.472-0.024,0.938-0.071,1.399
			c-0.046,0.46-0.116,0.913-0.207,1.358c-0.091,0.444-0.204,0.882-0.337,1.311c-0.133,0.429-0.287,0.848-0.46,1.257
			s-0.366,0.809-0.576,1.195c-0.21,0.388-0.439,0.764-0.685,1.128c-0.246,0.364-0.509,0.715-0.788,1.053
			c-0.279,0.338-0.574,0.662-0.883,0.972c-0.309,0.31-0.633,0.604-0.971,0.883c-0.338,0.279-0.689,0.542-1.054,0.788
			c-0.364,0.245-0.74,0.475-1.128,0.685c-0.194,0.105-0.392,0.207-0.591,0.303"/>
		<path fill="none" stroke="#000000" stroke-width="5" d="M488.181,309.461c-0.245-0.364-0.475-0.74-0.685-1.129
			c-0.211-0.387-0.403-0.786-0.576-1.195c-0.173-0.409-0.326-0.828-0.46-1.257c-0.134-0.429-0.246-0.866-0.337-1.311
			c-0.092-0.445-0.161-0.898-0.208-1.358c-0.046-0.46-0.07-0.926-0.07-1.398"/>
	</g>
	<g id="waves1">
		<path fill="none" stroke="#000000" stroke-width="5" d="M239.604,332.305c0,7.556-6.125,13.68-13.68,13.68
			c-7.555,0-13.68-6.124-13.68-13.68"/>
		<path fill="none" stroke="#000000" stroke-width="5" d="M184.883,332.545c0-7.556,6.125-13.68,13.68-13.68
			s13.68,6.124,13.68,13.68"/>
		<path fill="none" stroke="#000000" stroke-width="5" d="M294.325,332.305c0,7.556-6.125,13.68-13.681,13.68
			c-7.555,0-13.68-6.124-13.68-13.68"/>
		<path fill="none" stroke="#000000" stroke-width="5" d="M239.604,332.545c0-7.556,6.125-13.68,13.68-13.68
			c7.555,0,13.68,6.124,13.68,13.68"/>
		<path fill="none" stroke="#000000" stroke-width="5" d="M349.047,332.305c0,7.556-6.125,13.68-13.681,13.68
			c-7.559,0-13.684-6.124-13.684-13.68"/>
		<path fill="none" stroke="#000000" stroke-width="5" d="M294.325,332.545c0-7.556,6.125-13.68,13.68-13.68
			s13.68,6.124,13.68,13.68"/>
		<path fill="none" stroke="#000000" stroke-width="5" d="M184.883,332.305c0,7.556-6.125,13.68-13.68,13.68
			c-7.555,0-13.68-6.124-13.68-13.68"/>
		<path fill="none" stroke="#000000" stroke-width="5" d="M130.163,332.545c0-7.556,6.125-13.68,13.68-13.68
			c7.555,0,13.68,6.124,13.68,13.68"/>
		<path fill="none" stroke="#000000" stroke-width="5" d="M403.768,332.305c0,7.556-6.125,13.68-13.681,13.68
			s-13.681-6.124-13.681-13.68"/>
		<path fill="none" stroke="#000000" stroke-width="5" d="M349.047,332.545c0-7.556,6.125-13.68,13.68-13.68
			c7.558,0,13.683,6.124,13.683,13.68"/>
		<path fill="none" stroke="#000000" stroke-width="5" d="M458.488,332.305c0,7.556-6.125,13.68-13.684,13.68
			c-7.556,0-13.681-6.124-13.681-13.68"/>
		<path fill="none" stroke="#000000" stroke-width="5" d="M403.766,332.545c0-7.556,6.125-13.68,13.683-13.68
			c7.555,0,13.68,6.124,13.68,13.68"/>
		<path fill="none" stroke="#000000" stroke-width="5" d="M458.486,332.545c0-7.556,6.125-13.68,13.68-13.68
			s13.68,6.124,13.68,13.68"/>
		<path fill="none" stroke="#000000" stroke-width="5" d="M130.163,331.356c0,0.472-0.024,0.939-0.071,1.399
			c-0.046,0.46-0.116,0.913-0.208,1.358c-0.091,0.445-0.204,0.883-0.337,1.311c-0.133,0.428-0.287,0.847-0.46,1.257
			c-0.173,0.409-0.365,0.808-0.576,1.196c-0.211,0.388-0.44,0.764-0.686,1.127c-0.246,0.363-0.509,0.715-0.788,1.053
			c-0.279,0.338-0.574,0.662-0.883,0.971c-0.309,0.31-0.633,0.604-0.971,0.883c-0.338,0.279-0.689,0.542-1.054,0.787
			c-0.364,0.246-0.74,0.475-1.128,0.685c-0.245,0.133-0.494,0.259-0.748,0.377"/>
		<path fill="none" stroke="#000000" stroke-width="5" d="M488.182,339.953c-0.246-0.364-0.475-0.74-0.685-1.129
			c-0.21-0.387-0.403-0.786-0.576-1.195c-0.173-0.409-0.327-0.828-0.46-1.257c-0.134-0.429-0.246-0.866-0.337-1.311
			s-0.161-0.898-0.208-1.358s-0.07-0.926-0.07-1.398"/>
	</g>
	<text transform="matrix(1 0 0 1 225.9238 431.6719)" font-family="sans-serif" font-size="96">E</text>
	<text transform="matrix(1 0 0 1 307.0898 432.084)" font-family="sans-serif" font-size="96">W</text>
</g>
<rect id="greyBox" x="125.985" y="277" display="none" fill="none" stroke="#CCCCCC" stroke-width="10" width="359.861" height="242.5"/>
</svg>
