<?xml version="1.0" encoding="utf-8"?>
<!-- Generator: Adobe Illustrator 14.0.0, SVG Export Plug-In . SVG Version: 6.00 Build 43363)  -->
<!DOCTYPE svg PUBLIC "-//W3C//DTD SVG 1.1//EN" "http://www.w3.org/Graphics/SVG/1.1/DTD/svg11.dtd">
<svg version="1.1" id="Version_1.0" xmlns="http://www.w3.org/2000/svg" xmlns:xlink="http://www.w3.org/1999/xlink" x="0px" y="0px"
	 width="612px" height="792px" viewBox="0 0 612 792" enable-background="new 0 0 612 792" xml:space="preserve">
<g id="octagon" display="none">
	<g id="outFrame" display="inline">
		<line fill="none" stroke="#0000FF" stroke-width="2" x1="220" y1="309.5" x2="306" y2="273"/>
		<line fill="none" stroke="#0000FF" stroke-width="2" x1="306" y1="273" x2="390.5" y2="309.5"/>
		<line fill="none" stroke="#0000FF" stroke-width="2" x1="390.5" y1="309.5" x2="427" y2="396"/>
		<line fill="none" stroke="#0000FF" stroke-width="2" x1="427" y1="396" x2="390.5" y2="482.5"/>
		<line fill="none" stroke="#0000FF" stroke-width="2" x1="390.5" y1="482.5" x2="306" y2="516"/>
		<line fill="none" stroke="#0000FF" stroke-width="2" x1="306" y1="516" x2="220" y2="482.5"/>
		<line fill="none" stroke="#0000FF" stroke-width="2" x1="220" y1="482.5" x2="183" y2="396"/>
		<line fill="none" stroke="#0000FF" stroke-width="2" x1="183" y1="396" x2="220" y2="309.5"/>
	</g>
	
		<line id="bottom" display="inline" fill="none" stroke="#0000FF" stroke-width="2" x1="203.966" y1="445.015" x2="406.199" y2="445.295"/>
	
		<line id="top" display="inline" fill="none" stroke="#0000FF" stroke-width="2" x1="203.966" y1="346.985" x2="406.199" y2="346.705"/>
</g>
<g id="main">
	<g transform="translate(110 111) scale(5 5)">
		<path d="M48.879,57.116c-0.129-0.025-0.659,0.182-1.589,0.619c-0.595,0.258-1.28,0.658-2.054,1.2
			c-2.843,1.883-4.845,4.424-6.008,7.621c-0.053,0-0.129-0.064-0.233-0.193c-0.439-1.392-1.228-2.786-2.365-4.179
			c-1.189-1.495-2.558-2.734-4.108-3.713c-0.725-0.464-1.719-0.928-2.985-1.392c-0.021-0.052-0.021-0.091,0-0.117
			c0.335-0.154,0.788-0.348,1.357-0.58c1.472-0.49,3.042-1.612,4.709-3.366c1.667-1.754,2.758-3.403,3.275-4.951
			c0.078-0.206,0.193-0.413,0.349-0.62c0.49,1.522,1.421,3.108,2.791,4.759c1.447,1.779,2.932,3.043,4.457,3.79
			c0.336,0.156,0.879,0.401,1.629,0.735C48.335,56.755,48.593,56.884,48.879,57.116z"/>
	</g>
</g>
</svg>
