<?xml version="1.0" encoding="utf-8"?>
<!-- Generator: Adobe Illustrator 16.0.0, SVG Export Plug-In . SVG Version: 6.00 Build 0)  -->
<!DOCTYPE svg PUBLIC "-//W3C//DTD SVG 1.1//EN" "http://www.w3.org/Graphics/SVG/1.1/DTD/svg11.dtd">
<svg version="1.1" id="Version_1.0" xmlns="http://www.w3.org/2000/svg" xmlns:xlink="http://www.w3.org/1999/xlink" x="0px"
	 y="0px" width="612px" height="792px" viewBox="0 0 612 792" enable-background="new 0 0 612 792" xml:space="preserve">
<g id="octagon" display="none">
	<g id="outFrame" display="inline">
		<line fill="none" stroke="#0000FF" stroke-width="2" x1="220" y1="309.5" x2="306" y2="273"/>
		<line fill="none" stroke="#0000FF" stroke-width="2" x1="306" y1="273" x2="390.5" y2="309.5"/>
		<line fill="none" stroke="#0000FF" stroke-width="2" x1="390.5" y1="309.5" x2="427" y2="396"/>
		<line fill="none" stroke="#0000FF" stroke-width="2" x1="427" y1="396" x2="390.5" y2="482.5"/>
		<line fill="none" stroke="#0000FF" stroke-width="2" x1="390.5" y1="482.5" x2="306" y2="516"/>
		<line fill="none" stroke="#0000FF" stroke-width="2" x1="306" y1="516" x2="220" y2="482.5"/>
		<line fill="none" stroke="#0000FF" stroke-width="2" x1="220" y1="482.5" x2="183" y2="396"/>
		<line fill="none" stroke="#0000FF" stroke-width="2" x1="183" y1="396" x2="220" y2="309.5"/>
	</g>
	
		<line id="mod2_1_" display="inline" fill="none" stroke="#0000FF" stroke-width="2" x1="203.966" y1="445.015" x2="406.199" y2="445.295"/>
	
		<line id="mod1_1_" display="inline" fill="none" stroke="#0000FF" stroke-width="2" x1="203.966" y1="346.985" x2="406.199" y2="346.705"/>
</g>
<g id="main">
	<line fill="none" stroke="#000000" stroke-width="5" x1="173.083" y1="446.92" x2="437.082" y2="446.92"/>
	<g>
		<ellipse fill="none" stroke="#000000" stroke-width="5" cx="306.082" cy="395.542" rx="25.402" ry="25.402"/>
		<line fill="none" stroke="#000000" stroke-width="5" x1="266.891" y1="370.866" x2="286.486" y2="383.204"/>
		<line fill="none" stroke="#000000" stroke-width="5" x1="325.677" y1="407.881" x2="345.273" y2="420.218"/>
		<line fill="none" stroke="#000000" stroke-width="5" x1="266.891" y1="420.218" x2="286.486" y2="407.881"/>
		<line fill="none" stroke="#000000" stroke-width="5" x1="325.677" y1="383.204" x2="345.273" y2="370.866"/>
		<line fill="none" stroke="#000000" stroke-width="5" x1="306.082" y1="348.367" x2="306.082" y2="370.141"/>
		<line fill="none" stroke="#000000" stroke-width="5" x1="306.082" y1="442.717" x2="306.082" y2="420.944"/>
	</g>
</g>
</svg>
