<?xml version="1.0" encoding="utf-8"?>
<!-- Generator: Adobe Illustrator 16.0.0, SVG Export Plug-In . SVG Version: 6.00 Build 0)  -->
<!DOCTYPE svg PUBLIC "-//W3C//DTD SVG 1.1//EN" "http://www.w3.org/Graphics/SVG/1.1/DTD/svg11.dtd">
<svg version="1.1" id="Version_1.0" xmlns="http://www.w3.org/2000/svg" xmlns:xlink="http://www.w3.org/1999/xlink" x="0px"
	 y="0px" width="612px" height="792px" viewBox="0 0 612 792" enable-background="new 0 0 612 792" xml:space="preserve">
<g id="octagon" display="none">
	<g id="outFrame" display="inline">
		<line fill="none" stroke="#0000FF" stroke-width="2" x1="220" y1="309.5" x2="306" y2="273"/>
		<line fill="none" stroke="#0000FF" stroke-width="2" x1="306" y1="273" x2="390.5" y2="309.5"/>
		<line fill="none" stroke="#0000FF" stroke-width="2" x1="390.5" y1="309.5" x2="427" y2="396"/>
		<line fill="none" stroke="#0000FF" stroke-width="2" x1="427" y1="396" x2="390.5" y2="482.5"/>
		<line fill="none" stroke="#0000FF" stroke-width="2" x1="390.5" y1="482.5" x2="306" y2="516"/>
		<line fill="none" stroke="#0000FF" stroke-width="2" x1="306" y1="516" x2="220" y2="482.5"/>
		<line fill="none" stroke="#0000FF" stroke-width="2" x1="220" y1="482.5" x2="183" y2="396"/>
		<line fill="none" stroke="#0000FF" stroke-width="2" x1="183" y1="396" x2="220" y2="309.5"/>
	</g>
	
		<line id="mod2_1_" display="inline" fill="none" stroke="#0000FF" stroke-width="2" x1="203.966" y1="445.015" x2="406.199" y2="445.295"/>
	
		<line id="mod1_1_" display="inline" fill="none" stroke="#0000FF" stroke-width="2" x1="203.966" y1="346.985" x2="406.199" y2="346.705"/>
</g>
<g id="main">
	<g>
		<ellipse fill="none" stroke="#000000" stroke-width="5" cx="306" cy="357.529" rx="7.404" ry="7.404"/>
		<line fill="none" stroke="#000000" stroke-width="5" x1="306" y1="364.934" x2="306" y2="438.982"/>
		<line fill="none" stroke="#000000" stroke-width="5" x1="268.976" y1="369.562" x2="343.023" y2="369.562"/>
		<path stroke="#000000" stroke-width="3" d="M259.72,401.959c23.14,46.279,69.418,46.279,92.559,0
			C329.139,455.181,282.86,455.181,259.72,401.959"/>
		<path stroke="#000000" stroke-width="3" d="M259.72,401.959c3.703,20.826,6.017,20.826,6.017,20.826l6.942-9.256
			c-6.016-2.314-8.33-6.943-11.569-10.185"/>
		<path stroke="#000000" stroke-width="3" d="M352.279,401.959c-3.701,20.826-6.016,20.826-6.016,20.826l-6.941-9.256
			c6.016-2.314,8.33-6.943,11.566-10.185"/>
	</g>
</g>
</svg>
