<?xml version="1.0" encoding="utf-8"?>
<!-- Generator: Adobe Illustrator 14.0.0, SVG Export Plug-In . SVG Version: 6.00 Build 43363)  -->
<!DOCTYPE svg PUBLIC "-//W3C//DTD SVG 1.1//EN" "http://www.w3.org/Graphics/SVG/1.1/DTD/svg11.dtd">
<svg version="1.1" id="Version_1.0" xmlns="http://www.w3.org/2000/svg" xmlns:xlink="http://www.w3.org/1999/xlink" x="0px" y="0px"
	 width="612px" height="792px" viewBox="0 0 612 792" enable-background="new 0 0 612 792" xml:space="preserve">
<g id="octagon" display="none">
	<g id="outFrame" display="inline">
		<line fill="none" stroke="#0000FF" stroke-width="2" x1="220" y1="309.5" x2="306" y2="273"/>
		<line fill="none" stroke="#0000FF" stroke-width="2" x1="306" y1="273" x2="390.5" y2="309.5"/>
		<line fill="none" stroke="#0000FF" stroke-width="2" x1="390.5" y1="309.5" x2="427" y2="396"/>
		<line fill="none" stroke="#0000FF" stroke-width="2" x1="427" y1="396" x2="390.5" y2="482.5"/>
		<line fill="none" stroke="#0000FF" stroke-width="2" x1="390.5" y1="482.5" x2="306" y2="516"/>
		<line fill="none" stroke="#0000FF" stroke-width="2" x1="306" y1="516" x2="220" y2="482.5"/>
		<line fill="none" stroke="#0000FF" stroke-width="2" x1="220" y1="482.5" x2="183" y2="396"/>
		<line fill="none" stroke="#0000FF" stroke-width="2" x1="183" y1="396" x2="220" y2="309.5"/>
	</g>
	<line id="bottom" fill="none" stroke="#0000FF" stroke-width="2" x1="203.966" y1="445.015" x2="406.199" y2="445.295"/>
	<line id="top" fill="none" stroke="#0000FF" stroke-width="2" x1="203.966" y1="346.985" x2="406.199" y2="346.705"/>
</g>
<g id="main">
	<g transform="scale(100) translate(0.73 0.69)">
		<polygon id="_94647176" fill="#FFFFFF" points="1.735,2.714 1.715,2.709 1.715,2.714 		"/>
		<path id="_94720800" d="M2.939,2.798l0.279,0.77l-0.563,0L2.939,2.798z M1.72,2.799l0.279,0.77L1.443,3.567L1.72,2.799z
			 M1.735,2.714h-0.02V2.709L1.735,2.714z M1.735,2.714l0.076,0.012l0.016-0.002l0.238-0.034l0.026,0.003
			c0.079,0,0.082,0.091,0.102,0.091h0.071v1.164H1.99v0.056H1.878v0.061H1.786v0.097h1.088V4.061H2.777V4.005H2.665V3.949H2.381
			V2.785h0.081c0.024,0,0.015-0.091,0.112-0.091h0.015l0.234,0.03l0.025,0.001l0.076-0.009C2.897,2.773,2.868,2.87,2.844,2.933
			C2.816,3.008,2.794,3.08,2.765,3.154C2.736,3.229,2.713,3.3,2.685,3.374C2.673,3.407,2.657,3.448,2.646,3.482
			c-0.007,0.021-0.014,0.037-0.02,0.056c-0.009,0.03-0.003,0.03-0.041,0.03c0.051,0.076,0.192,0.173,0.32,0.173h0.061
			c0.129,0,0.275-0.097,0.325-0.173H3.265L2.948,2.71c0.024-0.003,0.068-0.021,0.068-0.041c0-0.02-0.036,0.005-0.061,0.005h-0.01
			c-0.131,0-0.231-0.107-0.366-0.107h-0.03c-0.07,0-0.13,0.033-0.168,0.066C2.362,2.624,2.35,2.627,2.35,2.597
			c0-0.01,0.026-0.082,0.03-0.091L2.333,2.359L2.325,2.358C2.323,2.381,2.297,2.455,2.289,2.48c-0.02,0.06,0.016,0.063,0.016,0.118
			v0.015c0,0.018-0.011,0.013-0.025,0.02C2.24,2.599,2.183,2.567,2.112,2.567h-0.03c-0.138,0-0.236,0.107-0.366,0.107H1.7
			c-0.039,0-0.058-0.035-0.061,0.005l0.069,0.034C1.649,2.836,1.605,3.01,1.549,3.148c-0.03,0.073-0.052,0.145-0.081,0.219
			C1.453,3.405,1.444,3.438,1.429,3.475c-0.012,0.03-0.016,0.092-0.054,0.093c0.051,0.076,0.185,0.173,0.31,0.173h0.066
			c0.133,0,0.267-0.093,0.32-0.173H2.04L1.735,2.714L1.735,2.714z"/>
	</g>
</g>
</svg>
