<?xml version="1.0" encoding="utf-8"?>
<!-- Generator: Adobe Illustrator 14.0.0, SVG Export Plug-In . SVG Version: 6.00 Build 43363)  -->
<!DOCTYPE svg PUBLIC "-//W3C//DTD SVG 1.1//EN" "http://www.w3.org/Graphics/SVG/1.1/DTD/svg11.dtd">
<svg version="1.1" id="Version_1.0" xmlns="http://www.w3.org/2000/svg" xmlns:xlink="http://www.w3.org/1999/xlink" x="0px" y="0px"
	 width="612px" height="792px" viewBox="0 0 612 792" enable-background="new 0 0 612 792" xml:space="preserve">
<g id="octagon" display="none">
	<g id="outFrame" display="inline">
		<line fill="none" stroke="#0000FF" stroke-width="2" x1="220" y1="309.5" x2="306" y2="273"/>
		<line fill="none" stroke="#0000FF" stroke-width="2" x1="306" y1="273" x2="390.5" y2="309.5"/>
		<line fill="none" stroke="#0000FF" stroke-width="2" x1="390.5" y1="309.5" x2="427" y2="396"/>
		<line fill="none" stroke="#0000FF" stroke-width="2" x1="427" y1="396" x2="390.5" y2="482.5"/>
		<line fill="none" stroke="#0000FF" stroke-width="2" x1="390.5" y1="482.5" x2="306" y2="516"/>
		<line fill="none" stroke="#0000FF" stroke-width="2" x1="306" y1="516" x2="220" y2="482.5"/>
		<line fill="none" stroke="#0000FF" stroke-width="2" x1="220" y1="482.5" x2="183" y2="396"/>
		<line fill="none" stroke="#0000FF" stroke-width="2" x1="183" y1="396" x2="220" y2="309.5"/>
	</g>
	<line id="bottom" fill="none" stroke="#0000FF" stroke-width="2" x1="203.966" y1="445.015" x2="406.199" y2="445.295"/>
	<line id="top" fill="none" stroke="#0000FF" stroke-width="2" x1="203.966" y1="346.985" x2="406.199" y2="346.705"/>
</g>
<g id="main">
	<g transform="scale(100) translate(0.66 0.74)">
		<g>
			<path id="_65363480" d="M2.755,2.458h0.274V2.38H2.703C2.711,2.395,2.739,2.458,2.755,2.458z"/>
			<path id="_65379072" d="M2.709,2.541h0.036v0.016c0,0.074,0.068,0.129,0.145,0.129c0.095,0,0.14-0.081,0.14-0.181H2.75
				C2.735,2.505,2.715,2.531,2.709,2.541z"/>
			<path id="_94401360" d="M1.933,3.244v0.01c0,0.016,0.045,0.067,0.072,0.067H2.02c0.037,0,0.492-0.339,0.574-0.383l0.003,0.348
				l0.375-0.555H2.595c-0.019,0-0.303,0.211-0.346,0.239c-0.056,0.037-0.12,0.081-0.173,0.122C2.027,3.131,1.933,3.165,1.933,3.244z
				"/>
			<path id="_66403960" d="M1.757,3.42V2.732H1.674c-0.02,0-0.047,0.02-0.047,0.036v0.611c0,0.023,0.012,0.032,0.026,0.041H1.757z"
				/>
			<path id="_66403768" d="M2.703,3.286h0.31v0.129H2.6v0.626h0.207c0.027,0,0.038-0.176,0.043-0.21
				c0.012-0.069,0.029-0.159,0.034-0.225l0.008,0l0.064,0.434h0.217V2.81c0-0.026-0.051-0.078-0.083-0.078H3.086
				c-0.023,0-0.172,0.237-0.195,0.271C2.866,3.042,2.709,3.265,2.703,3.286z"/>
			<polygon id="_66403824" points="1.757,3.42 1.757,4.051 2.45,4.051 2.45,3.42 			"/>
		</g>
		<g>
			<line id="_40181744" fill="none" x1="2.597" y1="3.288" x2="2.6" y2="3.415"/>
			<line id="_39704416" fill="none" x1="2.972" y1="2.732" x2="3.086" y2="2.732"/>
			<line id="_39663360" fill="none" x1="3.029" y1="2.458" x2="3.029" y2="2.505"/>
			<line id="_40245400" fill="none" x1="2.755" y1="2.458" x2="2.75" y2="2.505"/>
			<path id="_41573280" fill="#FFFFFF" d="M3.014,3.286h-0.31c0.005-0.02,0.162-0.244,0.188-0.282
				c0.023-0.034,0.172-0.271,0.195-0.271H2.972L2.597,3.288L2.6,3.415h0.414V3.286z"/>
			<polygon id="_41396192" fill="#FFFFFF" points="2.75,2.505 3.029,2.505 3.029,2.458 2.755,2.458 			"/>
		</g>
	</g>
</g>
</svg>
