<?xml version="1.0" encoding="utf-8"?>
<!-- Generator: Adobe Illustrator 16.0.0, SVG Export Plug-In . SVG Version: 6.00 Build 0)  -->
<!DOCTYPE svg PUBLIC "-//W3C//DTD SVG 1.1//EN" "http://www.w3.org/Graphics/SVG/1.1/DTD/svg11.dtd">
<svg version="1.1" id="Version_1.0" xmlns="http://www.w3.org/2000/svg" xmlns:xlink="http://www.w3.org/1999/xlink" x="0px"
	 y="0px" width="612px" height="792px" viewBox="0 0 612 792" enable-background="new 0 0 612 792" xml:space="preserve">
<g id="octagon">
	
		<line id="mod2_1_" display="none" fill="none" stroke="#0000FF" stroke-width="2" x1="203.966" y1="445.015" x2="406.199" y2="445.295"/>
	
		<line id="mod1_1_" display="none" fill="none" stroke="#0000FF" stroke-width="2" x1="203.966" y1="346.985" x2="406.199" y2="346.705"/>
	<g id="outFrame">
		<line fill="none" stroke="#0000FF" stroke-width="2" x1="220" y1="309.5" x2="306" y2="273"/>
		<line fill="none" stroke="#0000FF" stroke-width="2" x1="306" y1="273" x2="390.5" y2="309.5"/>
		<line fill="none" stroke="#0000FF" stroke-width="2" x1="390.5" y1="309.5" x2="427" y2="396"/>
		<line fill="none" stroke="#0000FF" stroke-width="2" x1="427" y1="396" x2="390.5" y2="482.5"/>
		<line fill="none" stroke="#0000FF" stroke-width="2" x1="390.5" y1="482.5" x2="306" y2="516"/>
		<line fill="none" stroke="#0000FF" stroke-width="2" x1="306" y1="516" x2="220" y2="482.5"/>
		<line fill="none" stroke="#0000FF" stroke-width="2" x1="220" y1="482.5" x2="183" y2="396"/>
		<line fill="none" stroke="#0000FF" stroke-width="2" x1="183" y1="396" x2="220" y2="309.5"/>
	</g>
</g>
<g id="main" transform="translate(0 29) scale(1 0.8)">
	<line fill="none" stroke="#000000" stroke-width="5" x1="243.695" y1="402.591" x2="243.695" y2="514.86"/>
	<line fill="none" stroke="#000000" stroke-width="5" x1="372" y1="402.591" x2="372" y2="514.86"/>
	<line fill="none" stroke="#000000" stroke-width="5" x1="243.695" y1="512.853" x2="372" y2="512.853"/>
	<path fill="none" stroke="#000000" stroke-width="5" d="M243.695,404.796c56.134,20.85,72.172,20.85,128.305,0"/>
	<g transform="translate(0 15)">
		<line fill="none" stroke="#000000" stroke-width="5" x1="307.848" y1="424.68" x2="307.848" y2="464.774"/>
		<line fill="none" stroke="#000000" stroke-width="5" x1="257.328" y1="422.675" x2="257.328" y2="482.817"/>
		<line fill="none" stroke="#000000" stroke-width="5" x1="358.368" y1="422.675" x2="358.368" y2="482.817"/>
		<line fill="none" stroke="#000000" stroke-width="5" x1="255.724" y1="424.68" x2="359.973" y2="424.68"/>
	</g>
	<text transform="matrix(1 0 0 1.25 287 581.875)" font-family="sans-serif" font-size="60">H</text>
	<text transform="matrix(1 0 0 1.25 249 386.5314)" font-family="sans-serif" font-size="53.1003">RRC</text>
</g>
</svg>
