<?xml version="1.0" encoding="utf-8"?>
<!-- Generator: Adobe Illustrator 16.0.0, SVG Export Plug-In . SVG Version: 6.00 Build 0)  -->
<!DOCTYPE svg PUBLIC "-//W3C//DTD SVG 1.1//EN" "http://www.w3.org/Graphics/SVG/1.1/DTD/svg11.dtd">
<svg version="1.1" id="Version_1.0" xmlns="http://www.w3.org/2000/svg" xmlns:xlink="http://www.w3.org/1999/xlink" x="0px"
	 y="0px" width="612px" height="792px" viewBox="0 0 612 792" enable-background="new 0 0 612 792" xml:space="preserve">
<g id="octagon" display="none">
	<g id="outFrame" display="inline">
		<line fill="none" stroke="#0000FF" stroke-width="2" x1="220" y1="309.5" x2="306" y2="273"/>
		<line fill="none" stroke="#0000FF" stroke-width="2" x1="306" y1="273" x2="390.5" y2="309.5"/>
		<line fill="none" stroke="#0000FF" stroke-width="2" x1="390.5" y1="309.5" x2="427" y2="396"/>
		<line fill="none" stroke="#0000FF" stroke-width="2" x1="427" y1="396" x2="390.5" y2="482.5"/>
		<line fill="none" stroke="#0000FF" stroke-width="2" x1="390.5" y1="482.5" x2="306" y2="516"/>
		<line fill="none" stroke="#0000FF" stroke-width="2" x1="306" y1="516" x2="220" y2="482.5"/>
		<line fill="none" stroke="#0000FF" stroke-width="2" x1="220" y1="482.5" x2="183" y2="396"/>
		<line fill="none" stroke="#0000FF" stroke-width="2" x1="183" y1="396" x2="220" y2="309.5"/>
	</g>
	
		<line id="bottom" display="inline" fill="none" stroke="#0000FF" stroke-width="2" x1="203.966" y1="445.015" x2="406.199" y2="445.295"/>
	
		<line id="top" display="inline" fill="none" stroke="#0000FF" stroke-width="2" x1="203.966" y1="346.985" x2="406.199" y2="346.705"/>
</g>
<g id="main" transform="translate(0 29) scale(1 0.8)">
	<line fill="none" stroke="#000000" stroke-width="5" x1="216" y1="374.375" x2="216" y2="542.406"/>
	<line fill="none" stroke="#000000" stroke-width="5" x1="393.75" y1="374.375" x2="393.75" y2="542.406"/>
	<line fill="none" stroke="#000000" stroke-width="5" x1="216" y1="540.155" x2="393.75" y2="540.155"/>
	<path fill="none" stroke="#000000" stroke-width="5" d="M216,376.676c77.766,31.206,99.984,31.206,177.75,0"/>
	<g>
		<line fill="none" stroke="#000000" stroke-width="5" x1="294.903" y1="421.057" x2="335.48" y2="421.057"/>
		<path fill="none" stroke="#000000" stroke-width="5" d="M234.037,446.417h97.385c32.464,0,38.956,45.648,40.578,76.083"/>
		<line fill="none" stroke="#000000" stroke-width="5" x1="315.191" y1="446.417" x2="315.191" y2="421.057"/>
	</g>
</g>
</svg>
