<?xml version="1.0" encoding="utf-8"?>
<!-- Generator: Adobe Illustrator 14.0.0, SVG Export Plug-In . SVG Version: 6.00 Build 43363)  -->
<!DOCTYPE svg PUBLIC "-//W3C//DTD SVG 1.1//EN" "http://www.w3.org/Graphics/SVG/1.1/DTD/svg11.dtd">
<svg version="1.1" id="Version_1.0" xmlns="http://www.w3.org/2000/svg" xmlns:xlink="http://www.w3.org/1999/xlink" x="0px" y="0px"
	 width="612px" height="792px" viewBox="0 0 612 792" enable-background="new 0 0 612 792" xml:space="preserve">
<g id="octagon" display="none">
	<g id="outFrame" display="inline">
		<line fill="none" stroke="#0000FF" stroke-width="2" x1="220" y1="309.5" x2="306" y2="273"/>
		<line fill="none" stroke="#0000FF" stroke-width="2" x1="306" y1="273" x2="390.5" y2="309.5"/>
		<line fill="none" stroke="#0000FF" stroke-width="2" x1="390.5" y1="309.5" x2="427" y2="396"/>
		<line fill="none" stroke="#0000FF" stroke-width="2" x1="427" y1="396" x2="390.5" y2="482.5"/>
		<line fill="none" stroke="#0000FF" stroke-width="2" x1="390.5" y1="482.5" x2="306" y2="516"/>
		<line fill="none" stroke="#0000FF" stroke-width="2" x1="306" y1="516" x2="220" y2="482.5"/>
		<line fill="none" stroke="#0000FF" stroke-width="2" x1="220" y1="482.5" x2="183" y2="396"/>
		<line fill="none" stroke="#0000FF" stroke-width="2" x1="183" y1="396" x2="220" y2="309.5"/>
	</g>
	<line id="bottom" fill="none" stroke="#0000FF" stroke-width="2" x1="203.966" y1="445.015" x2="406.199" y2="445.295"/>
	<line id="top" fill="none" stroke="#0000FF" stroke-width="2" x1="203.966" y1="346.985" x2="406.199" y2="346.705"/>
</g>
<g id="main">
	<g transform="translate(170 108) scale(5 5)">
		<path d="M28.924,69.115c-0.766-0.161-1.533-0.294-2.299-0.403v-8.624c-0.578-0.108-2.141-0.349-4.688-0.725l-0.506-1.129
			l7.055-1.614l-6.848-1.449l0.01-1.267l7.271-1.777c-0.67-0.108-1.436-0.214-2.295-0.322v-13.25
			c-0.96,0.646-2.235,1.534-3.821,2.665L21,40.731l6.191-4.081l6.049,4.081l-1.744,0.572L27.5,38.475v12.007l5.125,0.966
			l-0.006,1.21l-7.318,1.646l7.324,1.703v1.205l-6.873,1.365c0.484,0.055,1.068,0.136,1.748,0.241v8.599l5.137,1.026l-0.012,1.295
			l-7.012,1.519l7.008,1.495l0.004,1.188l-7.16,1.696l6.84,1.433l-0.072,0.956l-10.585-1.822l-0.004-1.238l7.264-1.578l-7.26-1.547
			l0.01-1.152L28.924,69.115z"/>
	</g>
</g>
</svg>
