<?xml version="1.0" encoding="utf-8"?>
<!-- Generator: Adobe Illustrator 16.0.0, SVG Export Plug-In . SVG Version: 6.00 Build 0)  -->
<!DOCTYPE svg PUBLIC "-//W3C//DTD SVG 1.1//EN" "http://www.w3.org/Graphics/SVG/1.1/DTD/svg11.dtd">
<svg version="1.1" id="Version_1.0" xmlns="http://www.w3.org/2000/svg" xmlns:xlink="http://www.w3.org/1999/xlink" x="0px"
	 y="0px" width="612px" height="792px" viewBox="0 0 612 792" enable-background="new 0 0 612 792" xml:space="preserve">
<g id="octagon" display="none">
	<g id="outFrame" display="inline">
		<line fill="none" stroke="#0000FF" stroke-width="2" x1="220" y1="306.5" x2="306" y2="270"/>
		<line fill="none" stroke="#0000FF" stroke-width="2" x1="306" y1="270" x2="390.5" y2="306.5"/>
		<line fill="none" stroke="#0000FF" stroke-width="2" x1="390.5" y1="306.5" x2="427" y2="393"/>
		<line fill="none" stroke="#0000FF" stroke-width="2" x1="427" y1="393" x2="390.5" y2="479.5"/>
		<line fill="none" stroke="#0000FF" stroke-width="2" x1="390.5" y1="479.5" x2="306" y2="513"/>
		<line fill="none" stroke="#0000FF" stroke-width="2" x1="306" y1="513" x2="220" y2="479.5"/>
		<line fill="none" stroke="#0000FF" stroke-width="2" x1="220" y1="479.5" x2="183" y2="393"/>
		<line fill="none" stroke="#0000FF" stroke-width="2" x1="183" y1="393" x2="220" y2="306.5"/>
	</g>
	
		<line id="bottom" display="inline" fill="none" stroke="#0000FF" stroke-width="2" x1="203.966" y1="442.015" x2="406.199" y2="442.295"/>
	
		<line id="top" display="inline" fill="none" stroke="#0000FF" stroke-width="2" x1="203.966" y1="343.985" x2="406.199" y2="343.705"/>
</g>
<g id="main">
	<g id="box">
		<rect x="288.511" y="369.15" fill="none" stroke="#000000" stroke-width="5" width="34.979" height="69.959"/>
		<line fill="none" stroke="#000000" stroke-width="5" x1="292.008" y1="391.41" x2="319.992" y2="391.41"/>
		<line fill="none" stroke="#000000" stroke-width="5" x1="306" y1="372.33" x2="306" y2="435.93"/>
	</g>
	<g>
		<g id="box_1_">
			<rect x="245.264" y="346.891" fill="none" stroke="#000000" stroke-width="5" width="34.979" height="69.958"/>
			<line fill="none" stroke="#000000" stroke-width="5" x1="248.762" y1="369.15" x2="276.745" y2="369.15"/>
			<line fill="none" stroke="#000000" stroke-width="5" x1="262.753" y1="350.071" x2="262.753" y2="413.67"/>
		</g>
	</g>
	<g>
		<g id="box_2_">
			<rect x="331.758" y="346.891" fill="none" stroke="#000000" stroke-width="5" width="34.979" height="69.958"/>
			<line fill="none" stroke="#000000" stroke-width="5" x1="335.255" y1="369.15" x2="363.239" y2="369.15"/>
			<line fill="none" stroke="#000000" stroke-width="5" x1="349.247" y1="350.071" x2="349.247" y2="413.67"/>
		</g>
	</g>
</g>
</svg>
