<?xml version="1.0" encoding="utf-8"?>
<!-- Generator: Adobe Illustrator 16.0.0, SVG Export Plug-In . SVG Version: 6.00 Build 0)  -->
<!DOCTYPE svg PUBLIC "-//W3C//DTD SVG 1.1//EN" "http://www.w3.org/Graphics/SVG/1.1/DTD/svg11.dtd">
<svg version="1.1" id="Version_1.0" xmlns="http://www.w3.org/2000/svg" xmlns:xlink="http://www.w3.org/1999/xlink" x="0px" y="0px"
	 width="612px" height="792px" viewBox="0 0 612 792" enable-background="new 0 0 612 792" xml:space="preserve">
<g id="octagon" display="none">
	<g id="outFrame" display="inline">
		<line fill="none" stroke="#0000FF" stroke-width="2" x1="220" y1="306.5" x2="306" y2="270"/>
		<line fill="none" stroke="#0000FF" stroke-width="2" x1="306" y1="270" x2="390.5" y2="306.5"/>
		<line fill="none" stroke="#0000FF" stroke-width="2" x1="390.5" y1="306.5" x2="427" y2="393"/>
		<line fill="none" stroke="#0000FF" stroke-width="2" x1="427" y1="393" x2="390.5" y2="479.5"/>
		<line fill="none" stroke="#0000FF" stroke-width="2" x1="390.5" y1="479.5" x2="306" y2="513"/>
		<line fill="none" stroke="#0000FF" stroke-width="2" x1="306" y1="513" x2="220" y2="479.5"/>
		<line fill="none" stroke="#0000FF" stroke-width="2" x1="220" y1="479.5" x2="183" y2="393"/>
		<line fill="none" stroke="#0000FF" stroke-width="2" x1="183" y1="393" x2="220" y2="306.5"/>
	</g>
	
		<line id="bottom" display="inline" fill="none" stroke="#0000FF" stroke-width="2" x1="203.966" y1="442.015" x2="406.199" y2="442.295"/>
	
		<line id="top" display="inline" fill="none" stroke="#0000FF" stroke-width="2" x1="203.966" y1="343.985" x2="406.199" y2="343.705"/>
</g>
<g id="main">
	<path id="_x3C_path_x3E_" stroke="#000000" stroke-width="4" d="M353.05,369.771c-1.264,0.321-1.978,0.476-2.128,0.476
		c-1.265,0-2.759-1.891-4.489-5.677l-0.477-0.943c-0.16-0.315-1.185-1.418-3.073-3.31l-33.646,33.604l40.84,40.78l-2.229,2.424
		l-41.548-40.33l-41.673,40.336l-2.341-2.309l40.875-40.697l-33.568-34.051c-1.104,0.788-2.765,2.995-4.972,6.626
		c-1.261,2.365-2.364,3.546-3.307,3.546c-0.161,0-0.874-0.154-2.128-0.476c-0.161,0-0.788,0-1.891,0
		c1.258-5.323,4.328-10.134,9.218-14.443c4.883-4.305,9.373-6.459,13.478-6.459c1.258,0,5.276,1.307,12.059,3.924
		c-9.737,0.617-16.177,2.151-19.32,4.614l33.661,34.14l33.888-33.841c-1.427-1.392-3.472-2.476-6.146-3.258
		c-1.419-0.463-5.829-1.231-13.229-2.321c6.141-2.167,9.688-3.258,10.637-3.258c3.937,0,8.305,1.803,13.116,5.402
		c4.811,3.605,8.156,7.753,10.052,12.449v3.054C353.756,369.771,353.204,369.771,353.05,369.771z"/>
</g>
</svg>
