<?xml version="1.0" encoding="utf-8"?>
<!-- Generator: Adobe Illustrator 16.0.0, SVG Export Plug-In . SVG Version: 6.00 Build 0)  -->
<!DOCTYPE svg PUBLIC "-//W3C//DTD SVG 1.1//EN" "http://www.w3.org/Graphics/SVG/1.1/DTD/svg11.dtd">
<svg version="1.1" id="Version_1.0" xmlns="http://www.w3.org/2000/svg" xmlns:xlink="http://www.w3.org/1999/xlink" x="0px" y="0px"
	 width="612px" height="792px" viewBox="0 0 612 792" enable-background="new 0 0 612 792" xml:space="preserve">
<g id="octagon" display="none">
	<g id="outFrame" display="inline">
		<line fill="none" stroke="#0000FF" stroke-width="2" x1="220" y1="309.5" x2="306" y2="273"/>
		<line fill="none" stroke="#0000FF" stroke-width="2" x1="306" y1="273" x2="390.5" y2="309.5"/>
		<line fill="none" stroke="#0000FF" stroke-width="2" x1="390.5" y1="309.5" x2="427" y2="396"/>
		<line fill="none" stroke="#0000FF" stroke-width="2" x1="427" y1="396" x2="390.5" y2="482.5"/>
		<line fill="none" stroke="#0000FF" stroke-width="2" x1="390.5" y1="482.5" x2="306" y2="516"/>
		<line fill="none" stroke="#0000FF" stroke-width="2" x1="306" y1="516" x2="220" y2="482.5"/>
		<line fill="none" stroke="#0000FF" stroke-width="2" x1="220" y1="482.5" x2="183" y2="396"/>
		<line fill="none" stroke="#0000FF" stroke-width="2" x1="183" y1="396" x2="220" y2="309.5"/>
	</g>
	
		<line id="mod2_1_" display="inline" fill="none" stroke="#0000FF" stroke-width="2" x1="203.966" y1="445.015" x2="406.199" y2="445.295"/>
	
		<line id="mod1_1_" display="inline" fill="none" stroke="#0000FF" stroke-width="2" x1="203.966" y1="346.985" x2="406.199" y2="346.705"/>
</g>
<g id="main">
	<g transform="scale(100) translate(0.74 0.57)">
		<path id="_100900712" d="M1.484,3.338c0,0.033-0.017,0.065-0.018,0.107C1.465,3.49,1.461,3.522,1.461,3.57v0.08l0.014,0.089h0.068
			L1.524,3.578V3.534c0-0.202,0.124-0.447,0.232-0.537c0.139-0.115,0.291-0.228,0.542-0.228H2.32c0.224,0,0.427,0.109,0.539,0.221
			c0.08,0.08,0.103,0.118,0.161,0.218c0.035,0.06,0.083,0.209,0.083,0.3v0.107c0,0.035-0.018,0.076-0.018,0.111v0.013h0.068
			l0.016-0.16V3.485c0-0.04-0.025-0.131-0.036-0.165C3.114,3.257,3.101,3.23,3.075,3.178C3.029,3.083,2.981,3.017,2.908,2.946
			C2.793,2.832,2.569,2.707,2.342,2.707H2.28c-0.196,0-0.415,0.102-0.515,0.197C1.694,2.971,1.654,3.007,1.597,3.092
			C1.57,3.133,1.559,3.166,1.535,3.207C1.512,3.246,1.505,3.306,1.484,3.338z"/>
		<polygon id="_238946784" points="1.484,3.903 3.138,3.903 3.138,3.832 1.484,3.832 		"/>
		<polygon id="_234617384" points="1.412,4.059 3.214,4.059 3.214,3.983 1.412,3.983 		"/>
	</g>
	<ellipse fill="none" stroke="#000000" stroke-width="5" cx="275" cy="378" rx="12" ry="12"/>
	<ellipse fill="none" stroke="#000000" stroke-width="5" cx="335" cy="378" rx="12" ry="12"/>
	<line fill="none" stroke="#000000" stroke-width="5" x1="275" y1="389" x2="275" y2="429"/>
	<line fill="none" stroke="#000000" stroke-width="5" x1="335" y1="389" x2="335" y2="429"/>
	<line fill="none" stroke="#000000" stroke-width="5" x1="263" y1="403" x2="287" y2="403"/>
	<line fill="none" stroke="#000000" stroke-width="5" x1="323" y1="403" x2="347" y2="403"/>
</g>
</svg>
