<?xml version="1.0" encoding="utf-8"?>
<!-- Generator: Adobe Illustrator 16.0.0, SVG Export Plug-In . SVG Version: 6.00 Build 0)  -->
<!DOCTYPE svg PUBLIC "-//W3C//DTD SVG 1.1//EN" "http://www.w3.org/Graphics/SVG/1.1/DTD/svg11.dtd">
<svg version="1.1" id="Version_1.0" xmlns="http://www.w3.org/2000/svg" xmlns:xlink="http://www.w3.org/1999/xlink" x="0px"
	 y="0px" width="612px" height="792px" viewBox="0 0 612 792" enable-background="new 0 0 612 792" xml:space="preserve">
<g id="octagon" display="none">
	<g id="outFrame" display="inline">
		<line fill="none" stroke="#0000FF" stroke-width="2" x1="220" y1="309.5" x2="306" y2="273"/>
		<line fill="none" stroke="#0000FF" stroke-width="2" x1="306" y1="273" x2="390.5" y2="309.5"/>
		<line fill="none" stroke="#0000FF" stroke-width="2" x1="390.5" y1="309.5" x2="427" y2="396"/>
		<line fill="none" stroke="#0000FF" stroke-width="2" x1="427" y1="396" x2="390.5" y2="482.5"/>
		<line fill="none" stroke="#0000FF" stroke-width="2" x1="390.5" y1="482.5" x2="306" y2="516"/>
		<line fill="none" stroke="#0000FF" stroke-width="2" x1="306" y1="516" x2="220" y2="482.5"/>
		<line fill="none" stroke="#0000FF" stroke-width="2" x1="220" y1="482.5" x2="183" y2="396"/>
		<line fill="none" stroke="#0000FF" stroke-width="2" x1="183" y1="396" x2="220" y2="309.5"/>
	</g>
	
		<line id="mod2_1_" display="inline" fill="none" stroke="#0000FF" stroke-width="2" x1="203.966" y1="445.015" x2="406.199" y2="445.295"/>
	
		<line id="mod1_1_" display="inline" fill="none" stroke="#0000FF" stroke-width="2" x1="203.966" y1="346.985" x2="406.199" y2="346.705"/>
</g>
<g id="main">
	<g transform="scale(150)">
		<path id="_65451144" d="M1.629,2.843v-0.04c0-0.037,0.043-0.123,0.052-0.157C1.693,2.601,1.733,2.547,1.76,2.512
			c0.059-0.076,0.142-0.149,0.275-0.149h0.073c0.057,0,0.147,0.072,0.174,0.108C2.304,2.5,2.319,2.523,2.338,2.554
			C2.346,2.566,2.383,2.64,2.383,2.652l0.003,0.009l0.002,0.005L2.39,2.674c0,0.007,0.014,0.024,0.017,0.051L2.41,2.738
			C2.415,2.772,2.43,2.85,2.434,2.887C2.438,2.918,2.442,2.945,2.44,2.971C2.439,2.99,2.435,3.006,2.424,3.029
			c0,0.04-0.087,0.145-0.104,0.146L2.167,3.15c-0.03-0.005-0.113,0.033-0.154,0.033c-0.034,0-0.093-0.029-0.125-0.029
			c-0.027,0-0.054,0.022-0.092,0.022h-0.01c-0.032,0-0.099-0.102-0.117-0.128C1.639,3.005,1.629,2.914,1.629,2.843z M2.14,2.326
			L2.039,2.308C2.026,2.306,1.952,2.326,1.943,2.33L1.838,2.138l0.029,0.008V2.097l0.149,0.056l0.005-0.059l0.054,0.041L2.17,2.091
			v0.043L2.295,2.11L2.14,2.326L2.14,2.326z M2.336,2.085L2.185,2.112V2.066C2.17,2.074,2.09,2.114,2.075,2.114
			c-0.001,0-0.056-0.043-0.066-0.048L1.998,2.132l-0.146-0.06v0.049L1.801,2.105l0.135,0.252L1.932,2.359
			C1.855,2.377,1.761,2.472,1.721,2.532C1.708,2.551,1.7,2.576,1.687,2.593c-0.023,0.03-0.015,0.041-0.029,0.066
			C1.648,2.678,1.61,2.779,1.61,2.802v0.062c0,0.017,0.012,0.096,0.016,0.112C1.633,2.999,1.632,3.009,1.639,3.03
			c0.005,0.015,0.015,0.026,0.023,0.039c0.022,0.034,0.08,0.125,0.127,0.125c0.042,0,0.071-0.022,0.095-0.022
			c0.038,0,0.087,0.029,0.121,0.029h0.011c0.034,0,0.095-0.024,0.134-0.031c0.03-0.005,0.098,0.017,0.141,0.017H2.32
			c0.028,0,0.08-0.07,0.096-0.091C2.434,3.073,2.438,3.06,2.445,3.029c0.001-0.003,0.007-0.018,0.01-0.033
			c0.004-0.019,0.005-0.04,0.005-0.04c0-0.05-0.012-0.068-0.015-0.099C2.441,2.817,2.439,2.79,2.434,2.755
			C2.43,2.726,2.387,2.611,2.374,2.584c-0.04-0.082-0.128-0.22-0.233-0.229L2.336,2.085z"/>
		<text transform="matrix(0.0067 0 0 0.0067 1.8544 3.0148)" font-family="sans-serif" font-size="103">$</text>
	</g>
</g>
</svg>
