<?xml version="1.0" encoding="utf-8"?>
<!-- Generator: Adobe Illustrator 16.0.0, SVG Export Plug-In . SVG Version: 6.00 Build 0)  -->
<!DOCTYPE svg PUBLIC "-//W3C//DTD SVG 1.1//EN" "http://www.w3.org/Graphics/SVG/1.1/DTD/svg11.dtd">
<svg version="1.1" id="Version_1.0" xmlns="http://www.w3.org/2000/svg" xmlns:xlink="http://www.w3.org/1999/xlink" x="0px" y="0px"
	 width="612px" height="792px" viewBox="0 0 612 792" enable-background="new 0 0 612 792" xml:space="preserve">
<g id="octagon" display="none">
	<g id="outFrame" display="inline">
		<line fill="none" stroke="#0000FF" stroke-width="2" x1="220" y1="309.5" x2="306" y2="273"/>
		<line fill="none" stroke="#0000FF" stroke-width="2" x1="306" y1="273" x2="390.5" y2="309.5"/>
		<line fill="none" stroke="#0000FF" stroke-width="2" x1="390.5" y1="309.5" x2="427" y2="396"/>
		<line fill="none" stroke="#0000FF" stroke-width="2" x1="427" y1="396" x2="390.5" y2="482.5"/>
		<line fill="none" stroke="#0000FF" stroke-width="2" x1="390.5" y1="482.5" x2="306" y2="516"/>
		<line fill="none" stroke="#0000FF" stroke-width="2" x1="306" y1="516" x2="220" y2="482.5"/>
		<line fill="none" stroke="#0000FF" stroke-width="2" x1="220" y1="482.5" x2="183" y2="396"/>
		<line fill="none" stroke="#0000FF" stroke-width="2" x1="183" y1="396" x2="220" y2="309.5"/>
	</g>
	
		<line id="mod2_1_" display="inline" fill="none" stroke="#0000FF" stroke-width="2" x1="203.966" y1="445.015" x2="406.199" y2="445.295"/>
	
		<line id="mod1_1_" display="inline" fill="none" stroke="#0000FF" stroke-width="2" x1="203.966" y1="346.985" x2="406.199" y2="346.705"/>
</g>
<g id="main">
	<g transform="scale(100) translate(0.75 0.7)">
		<path id="_83824000" fill="#FFFFFF" d="M1.654,2.849h1.289C2.908,2.825,2.301,2.526,2.296,2.526
			C2.291,2.526,1.673,2.833,1.654,2.849L1.654,2.849z"/>
		<path id="_146958160" d="M1.654,2.849c0.019-0.017,0.637-0.324,0.642-0.324c0.005,0,0.612,0.299,0.647,0.324H1.654L1.654,2.849z
			 M1.452,2.881v0.011c0,0.014,0.003,0.015,0.005,0.027C1.47,2.921,1.47,2.924,1.484,2.924h1.624c0.017,0,0.042-0.016,0.042-0.027
			c0-0.056-0.043-0.059-0.081-0.078C3.031,2.8,2.996,2.783,2.959,2.765c-0.073-0.037-0.146-0.07-0.221-0.108
			C2.695,2.635,2.305,2.441,2.296,2.441c-0.007,0-0.39,0.192-0.43,0.212C1.795,2.689,1.725,2.721,1.652,2.757
			C1.615,2.776,1.584,2.792,1.546,2.81C1.517,2.825,1.452,2.843,1.452,2.881L1.452,2.881z"/>
		<polygon id="_145556760" points="2.853,3.056 2.906,3.056 2.908,3.168 2.89,3.693 2.853,3.693 2.853,3.789 3.05,3.789 3.05,3.693 
			3.012,3.693 3.014,3.672 2.991,3.094 2.991,3.056 3.05,3.056 3.05,2.977 2.853,2.977 		"/>
		<polygon id="_145352632" points="2.476,3.502 2.466,3.693 2.434,3.693 2.434,3.789 2.625,3.789 2.625,3.693 2.589,3.693 
			2.572,3.056 2.625,3.056 2.625,2.977 2.434,2.977 2.434,3.056 2.488,3.056 		"/>
		<polygon id="_89423368" points="1.707,3.693 1.696,3.476 1.686,3.056 1.744,3.056 1.744,2.977 1.543,2.977 1.543,3.056 
			1.603,3.056 1.58,3.693 1.543,3.693 1.543,3.789 1.744,3.789 1.744,3.693 		"/>
		<path id="_146630112" d="M1.707,3.693L1.696,3.476L1.707,3.693z"/>
		<path id="_88600024" d="M2.466,3.693l0.011-0.191L2.466,3.693z"/>
		<polygon id="_89808904" points="2.025,3.109 2.004,3.672 2.004,3.693 1.967,3.693 1.967,3.789 2.163,3.789 2.163,3.693 
			2.121,3.693 2.121,3.64 2.106,3.109 2.105,3.056 2.163,3.056 2.163,2.977 1.967,2.977 1.967,3.056 2.025,3.056 		"/>
		<polygon id="_84215880" points="1.505,3.916 3.087,3.916 3.087,3.842 1.505,3.842 		"/>
		<polygon id="_89454344" points="1.452,4.075 3.145,4.075 3.145,4.001 1.452,4.001 		"/>
		<polygon id="_90903432" points="1.707,3.693 1.696,3.476 1.686,3.056 1.744,3.056 1.744,2.977 1.543,2.977 1.543,3.056 
			1.603,3.056 1.58,3.693 1.543,3.693 1.543,3.789 1.744,3.789 1.744,3.693 		"/>
		<polygon id="_83554896" points="2.476,3.502 2.466,3.693 2.434,3.693 2.434,3.789 2.625,3.789 2.625,3.693 2.589,3.693 
			2.572,3.056 2.625,3.056 2.625,2.977 2.434,2.977 2.434,3.056 2.488,3.056 		"/>
	</g>
</g>
</svg>
