<?xml version="1.0" encoding="utf-8"?>
<!-- Generator: Adobe Illustrator 16.0.0, SVG Export Plug-In . SVG Version: 6.00 Build 0)  -->
<!DOCTYPE svg PUBLIC "-//W3C//DTD SVG 1.1//EN" "http://www.w3.org/Graphics/SVG/1.1/DTD/svg11.dtd">
<svg version="1.1" id="Version_1.0" xmlns="http://www.w3.org/2000/svg" xmlns:xlink="http://www.w3.org/1999/xlink" x="0px" y="0px"
	 width="612px" height="792px" viewBox="0 0 612 792" enable-background="new 0 0 612 792" xml:space="preserve">
<g id="octagon" display="none">
	<g id="outFrame" display="inline">
		<line fill="none" stroke="#0000FF" stroke-width="2" x1="220" y1="309.5" x2="306" y2="273"/>
		<line fill="none" stroke="#0000FF" stroke-width="2" x1="306" y1="273" x2="390.5" y2="309.5"/>
		<line fill="none" stroke="#0000FF" stroke-width="2" x1="390.5" y1="309.5" x2="427" y2="396"/>
		<line fill="none" stroke="#0000FF" stroke-width="2" x1="427" y1="396" x2="390.5" y2="482.5"/>
		<line fill="none" stroke="#0000FF" stroke-width="2" x1="390.5" y1="482.5" x2="306" y2="516"/>
		<line fill="none" stroke="#0000FF" stroke-width="2" x1="306" y1="516" x2="220" y2="482.5"/>
		<line fill="none" stroke="#0000FF" stroke-width="2" x1="220" y1="482.5" x2="183" y2="396"/>
		<line fill="none" stroke="#0000FF" stroke-width="2" x1="183" y1="396" x2="220" y2="309.5"/>
	</g>
	
		<line id="mod2_1_" display="inline" fill="none" stroke="#0000FF" stroke-width="2" x1="203.966" y1="445.015" x2="406.199" y2="445.295"/>
	
		<line id="mod1_1_" display="inline" fill="none" stroke="#0000FF" stroke-width="2" x1="203.966" y1="346.985" x2="406.199" y2="346.705"/>
</g>
<g id="main">
	<g transform="scale(100) translate(0.72 0.65)">
		<polygon id="_99450424" points="2.893,2.792 3.09,2.793 3.09,2.742 2.869,2.741 		"/>
		<path id="_100260264" d="M2.868,2.851h0.027v0.016c0,0.015,0.02,0.052,0.03,0.059c0.013,0.009,0.047,0.023,0.067,0.023
			c0.065,0,0.097-0.047,0.097-0.113V2.824H2.903C2.891,2.824,2.873,2.843,2.868,2.851z"/>
		<path id="_43726000" fill="#FFFFFF" d="M1.654,3.263H2.37c0-0.012-0.038-0.112-0.044-0.123C2.3,3.096,2.317,3.049,2.245,3.049
			H1.782c-0.059,0-0.066,0.048-0.082,0.089C1.694,3.157,1.655,3.252,1.654,3.263z"/>
		<path id="_101638640" d="M2.553,3.022C2.558,3,2.577,2.984,2.603,2.983v0.054h-0.05c0.001,0.035,0.019,0.054,0.054,0.054V3.042
			h0.051c-0.001,0.032-0.019,0.036-0.035,0.05h0.195l0.001,0.254L3.07,2.988L2.817,2.983h-0.16v-0.19
			c0-0.029-0.019-0.054-0.047-0.054H2.599c-0.056,0-0.051,0.06-0.051,0.117C2.549,2.889,2.539,3.001,2.553,3.022z M2.553,3.022
			v0.016h0.051V2.983C2.577,2.984,2.558,3,2.553,3.022z M2.607,3.092h0.016c0.016-0.014,0.034-0.018,0.035-0.051H2.607V3.092z"/>
		<path id="_42932440" fill="#FFFFFF" d="M1.561,3.438v0.019c0,0.036,0.037,0.066,0.074,0.066c0.044,0,0.086-0.033,0.086-0.074
			V3.442c0-0.041-0.039-0.078-0.082-0.078C1.594,3.364,1.561,3.393,1.561,3.438z"/>
		<path id="_43758872" fill="#FFFFFF" d="M2.304,3.438V3.45c0,0.042,0.042,0.074,0.086,0.074c0.034,0,0.078-0.034,0.078-0.066V3.442
			c0-0.042-0.036-0.078-0.078-0.078C2.346,3.364,2.304,3.396,2.304,3.438z"/>
		<path id="_95493544" d="M2.973,3.792L2.981,3.71l0.012-0.156h0.043l0.019,0.323h0.144V3.03c0-0.014-0.031-0.047-0.051-0.047
			L3.134,2.985L2.887,3.349h0.21v0.089h-0.28v0.44h0.152l-0.001-0.02L2.973,3.792z"/>
		<path id="_231756312" d="M2.304,3.438c0-0.042,0.042-0.074,0.086-0.074c0.042,0,0.078,0.036,0.078,0.078v0.016
			c0,0.032-0.043,0.066-0.078,0.066c-0.043,0-0.086-0.032-0.086-0.074V3.438z M1.561,3.438c0-0.045,0.033-0.074,0.078-0.074
			c0.043,0,0.082,0.036,0.082,0.078V3.45c0,0.041-0.041,0.074-0.086,0.074c-0.037,0-0.074-0.03-0.074-0.066V3.438z M1.654,3.263
			c0.001-0.011,0.04-0.106,0.047-0.125c0.016-0.042,0.023-0.089,0.082-0.089h0.463c0.071,0,0.055,0.046,0.08,0.091
			C2.332,3.151,2.37,3.252,2.37,3.263H1.654z M1.561,3.287c-0.053,0-0.093,0.037-0.093,0.089v0.23c0,0.026,0.042,0.058,0.078,0.058
			v0.132c0,0.045,0.033,0.082,0.082,0.082c0.035,0,0.078-0.04,0.078-0.066V3.664h0.619V3.82c0,0.024,0.042,0.058,0.074,0.058h0.004
			c0.035,0,0.078-0.033,0.078-0.066V3.664c0.048,0,0.082-0.034,0.082-0.082V3.38c0-0.051-0.034-0.083-0.079-0.092
			C2.45,3.282,2.456,3.267,2.443,3.241C2.434,3.222,2.426,3.2,2.417,3.181c-0.031-0.066-0.054-0.206-0.14-0.206h-0.53
			c-0.073,0-0.088,0.083-0.112,0.137C1.619,3.148,1.568,3.257,1.561,3.287z"/>
		<line id="_40606696" fill="none" x1="2.817" y1="3.438" x2="2.819" y2="3.346"/>
		<line id="_37667632" fill="none" x1="3.07" y1="2.988" x2="3.148" y2="2.983"/>
		<polygon id="_63065104" fill="#FFFFFF" points="3.097,3.349 2.887,3.349 3.134,2.985 3.148,2.983 3.07,2.988 2.819,3.346 
			2.817,3.438 3.097,3.438 		"/>
		<line id="_38001312" fill="none" x1="2.893" y1="2.792" x2="2.903" y2="2.824"/>
		<line id="_62862760" fill="none" x1="3.09" y1="2.793" x2="3.09" y2="2.824"/>
		<polygon id="_40505440" fill="#FFFFFF" points="3.09,2.824 3.09,2.793 2.893,2.792 2.903,2.824 		"/>
	</g>
</g>
</svg>
