<?xml version="1.0" encoding="utf-8"?>
<!-- Generator: Adobe Illustrator 16.0.0, SVG Export Plug-In . SVG Version: 6.00 Build 0)  -->
<!DOCTYPE svg PUBLIC "-//W3C//DTD SVG 1.1//EN" "http://www.w3.org/Graphics/SVG/1.1/DTD/svg11.dtd">
<svg version="1.1" id="Version_1.0" xmlns="http://www.w3.org/2000/svg" xmlns:xlink="http://www.w3.org/1999/xlink" x="0px" y="0px"
	 width="612px" height="792px" viewBox="0 0 612 792" enable-background="new 0 0 612 792" xml:space="preserve">
<g id="octagon" display="none">
	
		<line id="mod2_1_" display="inline" fill="none" stroke="#0000FF" stroke-width="2" x1="203.966" y1="445.015" x2="406.199" y2="445.295"/>
	
		<line id="mod1_1_" display="inline" fill="none" stroke="#0000FF" stroke-width="2" x1="203.966" y1="346.985" x2="406.199" y2="346.705"/>
	<g id="outFrame" display="inline">
		<line fill="none" stroke="#0000FF" stroke-width="2" x1="220" y1="309.5" x2="306" y2="273"/>
		<line fill="none" stroke="#0000FF" stroke-width="2" x1="306" y1="273" x2="390.5" y2="309.5"/>
		<line fill="none" stroke="#0000FF" stroke-width="2" x1="390.5" y1="309.5" x2="427" y2="396"/>
		<line fill="none" stroke="#0000FF" stroke-width="2" x1="427" y1="396" x2="390.5" y2="482.5"/>
		<line fill="none" stroke="#0000FF" stroke-width="2" x1="390.5" y1="482.5" x2="306" y2="516"/>
		<line fill="none" stroke="#0000FF" stroke-width="2" x1="306" y1="516" x2="220" y2="482.5"/>
		<line fill="none" stroke="#0000FF" stroke-width="2" x1="220" y1="482.5" x2="183" y2="396"/>
		<line fill="none" stroke="#0000FF" stroke-width="2" x1="183" y1="396" x2="220" y2="309.5"/>
	</g>
</g>
<g id="main">
	<g transform="scale(110) translate(0.572727 0.818182)">
		<path id="_42218880" d="M1.732,2.667v0.067c0,0.044,0.005,0.07,0.019,0.102c0.004,0.009,0.034,0.091,0.035,0.091l0.008-0.001
			l0.033-0.067c-0.02-0.027-0.032-0.092-0.032-0.142v-0.04c0-0.085,0.053-0.188,0.096-0.233c0.04-0.041,0.133-0.125,0.207-0.127
			l-0.01-0.063C1.928,2.267,1.732,2.487,1.732,2.667z"/>
		<path id="_95654976" d="M1.489,2.667v0.117c0,0.096,0.122,0.371,0.18,0.387c0.003-0.012,0.022-0.05,0.022-0.058
			c0,0-0.047-0.067-0.053-0.078c-0.016-0.03-0.03-0.054-0.044-0.087C1.571,2.889,1.552,2.812,1.552,2.73V2.676
			c0-0.182,0.076-0.294,0.157-0.397c0.031-0.04,0.106-0.1,0.152-0.127C1.893,2.133,1.917,2.12,1.954,2.105
			C1.966,2.1,2.057,2.076,2.057,2.068L2.052,2.01C1.998,2.012,1.871,2.07,1.833,2.093c-0.072,0.044-0.11,0.082-0.167,0.139
			C1.584,2.314,1.489,2.504,1.489,2.667L1.489,2.667z"/>
		<path id="_230091728" d="M2.298,2.316c0.137,0.011,0.303,0.208,0.303,0.365V2.73c0,0.034-0.031,0.125-0.031,0.126
			c0,0.005,0.028,0.065,0.031,0.072L2.605,2.93l0.036-0.078l0.003-0.013l0.015-0.135l0.004-0.01L2.641,2.559
			C2.625,2.553,2.627,2.527,2.616,2.508C2.606,2.49,2.597,2.471,2.587,2.456C2.563,2.419,2.545,2.398,2.514,2.367
			c-0.049-0.05-0.131-0.095-0.21-0.114L2.298,2.316z"/>
		<path id="_230091784" d="M2.334,2.073C2.492,2.11,2.582,2.177,2.678,2.275c0.068,0.069,0.165,0.25,0.165,0.384v0.09
			c0,0.047-0.033,0.174-0.051,0.205C2.776,2.98,2.765,3.008,2.749,3.036c-0.006,0.01-0.054,0.075-0.054,0.077
			c0,0.015,0.022,0.037,0.027,0.058C2.76,3.161,2.83,3.027,2.851,2.985c0.028-0.057,0.061-0.178,0.061-0.259V2.645
			c0-0.002-0.021-0.112-0.023-0.125C2.883,2.5,2.857,2.437,2.847,2.412c-0.02-0.05-0.083-0.145-0.119-0.182
			c-0.081-0.082-0.24-0.208-0.384-0.22L2.334,2.073z"/>
		<path id="_42189704" d="M2.42,3.153l0.093,0.305L2.509,3.461l-0.277-0.19L2.42,3.153z M1.973,3.154l0.181,0.117L1.879,3.463
			L1.973,3.154z M2.195,2.932l0.201,0.187c-0.039,0.011-0.183,0.128-0.2,0.128c-0.004,0-0.187-0.122-0.195-0.132L2.195,2.932z
			 M2.315,2.822l0.071,0.223L2.23,2.9L2.315,2.822z M2.076,2.825l0.086,0.074L2.005,3.045L2.076,2.825z M2.123,2.803l0.145-0.001
			L2.195,2.875L2.123,2.803z M2.182,2.429C2.181,2.443,2.178,2.445,2.178,2.46v0.045H2.11c-0.011,0-0.018,0.007-0.018,0.018
			c0,0.012,0.002,0.012,0.005,0.022c0.01,0.002,0.01,0.005,0.022,0.005h0.058v0.063H2.074c-0.014,0-0.027,0.004-0.027,0.018
			c0,0.011,0.007,0.018,0.018,0.018h0.112v0.112H2.074c-0.012,0-0.012,0.002-0.02,0.005l-0.057,0.18L1.974,3.019L1.88,3.321
			L1.854,3.392c0,0.046-0.031,0.079-0.031,0.126c0,0.01,0.002,0.005,0.005,0.018H1.84c0.013,0,0.343-0.234,0.351-0.234
			c0.014,0,0.322,0.213,0.36,0.238c0.01-0.005,0.022-0.008,0.022-0.022V3.504c0-0.001-0.034-0.101-0.039-0.114
			C2.526,3.365,2.502,3.293,2.499,3.271L2.476,3.199L2.382,2.898L2.362,2.82C2.34,2.811,2.356,2.762,2.326,2.762H2.218V2.649h0.108
			c0.011,0,0.018-0.007,0.018-0.018S2.337,2.613,2.326,2.613H2.218V2.55h0.054c0.015,0,0.031-0.008,0.031-0.022V2.523
			c0-0.011-0.007-0.018-0.018-0.018H2.218V2.447c0-0.009-0.013-0.022-0.018-0.022C2.199,2.424,2.184,2.428,2.182,2.429z"/>
	</g>
</g>
</svg>
