<?xml version="1.0" encoding="utf-8"?>
<!-- Generator: Adobe Illustrator 16.0.0, SVG Export Plug-In . SVG Version: 6.00 Build 0)  -->
<!DOCTYPE svg PUBLIC "-//W3C//DTD SVG 1.1//EN" "http://www.w3.org/Graphics/SVG/1.1/DTD/svg11.dtd">
<svg version="1.1" id="Version_1.0" xmlns="http://www.w3.org/2000/svg" xmlns:xlink="http://www.w3.org/1999/xlink" x="0px" y="0px"
	 width="612px" height="792px" viewBox="0 0 612 792" enable-background="new 0 0 612 792" xml:space="preserve">
<g id="octagon" display="none">
	<g id="outFrame" display="inline">
		<line fill="none" stroke="#0000FF" stroke-width="2" x1="220" y1="309.5" x2="306" y2="273"/>
		<line fill="none" stroke="#0000FF" stroke-width="2" x1="306" y1="273" x2="390.5" y2="309.5"/>
		<line fill="none" stroke="#0000FF" stroke-width="2" x1="390.5" y1="309.5" x2="427" y2="396"/>
		<line fill="none" stroke="#0000FF" stroke-width="2" x1="427" y1="396" x2="390.5" y2="482.5"/>
		<line fill="none" stroke="#0000FF" stroke-width="2" x1="390.5" y1="482.5" x2="306" y2="516"/>
		<line fill="none" stroke="#0000FF" stroke-width="2" x1="306" y1="516" x2="220" y2="482.5"/>
		<line fill="none" stroke="#0000FF" stroke-width="2" x1="220" y1="482.5" x2="183" y2="396"/>
		<line fill="none" stroke="#0000FF" stroke-width="2" x1="183" y1="396" x2="220" y2="309.5"/>
	</g>
	
		<line id="mod2_1_" display="inline" fill="none" stroke="#0000FF" stroke-width="2" x1="203.966" y1="445.015" x2="406.199" y2="445.295"/>
	
		<line id="mod1_1_" display="inline" fill="none" stroke="#0000FF" stroke-width="2" x1="203.966" y1="346.985" x2="406.199" y2="346.705"/>
</g>
<g id="main">
	<g transform="scale(120) translate(0.366667 0.3)">
		<path id="_100264232" fill="#FFFFFF" d="M2.054,3.228H2.045c-0.011,0-0.023-0.012-0.023-0.023v-0.26
			c0-0.011,0.008-0.018,0.018-0.018h0.014c0.011,0,0.018,0.008,0.018,0.018v0.246C2.072,3.207,2.07,3.228,2.054,3.228z M1.557,2.918
			v0.743h0.597V2.33c-0.161,0-0.354,0.074-0.436,0.156C1.629,2.575,1.557,2.742,1.557,2.918z"/>
		<path id="_97764416" d="M2.054,3.228c0.016,0,0.018-0.02,0.018-0.036V2.945c0-0.011-0.008-0.018-0.018-0.018H2.041
			c-0.011,0-0.018,0.008-0.018,0.018v0.26c0,0.011,0.012,0.023,0.023,0.023H2.054z"/>
		<path id="_102084936" d="M2.287,2.945v0.26c0,0.011,0.012,0.023,0.023,0.023h0.009c0.015,0,0.023-0.017,0.023-0.032V2.949
			c0-0.011-0.012-0.023-0.023-0.023H2.305C2.294,2.927,2.287,2.934,2.287,2.945z"/>
		<path id="_236268984" fill="#FFFFFF" d="M2.287,2.945c0-0.011,0.008-0.018,0.018-0.018h0.014c0.011,0,0.023,0.012,0.023,0.023
			v0.246c0,0.015-0.008,0.032-0.023,0.032h-0.01c-0.011,0-0.023-0.012-0.023-0.023v-0.26H2.287z M2.205,3.661h0.597V2.972
			c0-0.218-0.041-0.357-0.145-0.475C2.58,2.409,2.369,2.33,2.205,2.33V3.661z"/>
		<path id="_97094432" d="M2.205,2.33c0.164,0,0.375,0.08,0.452,0.167c0.104,0.118,0.145,0.257,0.145,0.475V3.66H2.205V2.33z
			 M1.557,2.918c0-0.176,0.071-0.342,0.161-0.432C1.8,2.404,1.993,2.33,2.154,2.33v1.331H1.557V2.918z M1.503,3.715h1.354V2.981
			c0-0.226-0.053-0.411-0.168-0.525C2.588,2.355,2.376,2.275,2.177,2.275c-0.173,0-0.405,0.078-0.491,0.165
			c-0.067,0.068-0.09,0.104-0.13,0.198c-0.02,0.049-0.053,0.209-0.053,0.275V3.715L1.503,3.715z"/>
	</g>
</g>
</svg>
