<?xml version="1.0" encoding="utf-8"?>
<!-- Generator: Adobe Illustrator 16.0.0, SVG Export Plug-In . SVG Version: 6.00 Build 0)  -->
<!DOCTYPE svg PUBLIC "-//W3C//DTD SVG 1.1//EN" "http://www.w3.org/Graphics/SVG/1.1/DTD/svg11.dtd">
<svg version="1.1" id="Version_1.0" xmlns="http://www.w3.org/2000/svg" xmlns:xlink="http://www.w3.org/1999/xlink" x="0px"
	 y="0px" width="612px" height="792px" viewBox="0 0 612 792" enable-background="new 0 0 612 792" xml:space="preserve">
<g id="octagon" display="none">
	<g id="outFrame" display="inline">
		<line fill="none" stroke="#0000FF" stroke-width="2" x1="220" y1="309.5" x2="306" y2="273"/>
		<line fill="none" stroke="#0000FF" stroke-width="2" x1="306" y1="273" x2="390.5" y2="309.5"/>
		<line fill="none" stroke="#0000FF" stroke-width="2" x1="390.5" y1="309.5" x2="427" y2="396"/>
		<line fill="none" stroke="#0000FF" stroke-width="2" x1="427" y1="396" x2="390.5" y2="482.5"/>
		<line fill="none" stroke="#0000FF" stroke-width="2" x1="390.5" y1="482.5" x2="306" y2="516"/>
		<line fill="none" stroke="#0000FF" stroke-width="2" x1="306" y1="516" x2="220" y2="482.5"/>
		<line fill="none" stroke="#0000FF" stroke-width="2" x1="220" y1="482.5" x2="183" y2="396"/>
		<line fill="none" stroke="#0000FF" stroke-width="2" x1="183" y1="396" x2="220" y2="309.5"/>
	</g>
	
		<line id="mod2_1_" display="inline" fill="none" stroke="#0000FF" stroke-width="2" x1="203.966" y1="445.015" x2="406.199" y2="445.295"/>
	
		<line id="mod1_1_" display="inline" fill="none" stroke="#0000FF" stroke-width="2" x1="203.966" y1="346.985" x2="406.199" y2="346.705"/>
</g>
<g id="main">
	<g transform="scale(100) translate(0.71 0.8)">
		<path id="_85660424" d="M1.286,3.064H1.225L1.209,3.12h0.07v0.06H1.224L1.209,3.236h0.07C1.29,3.288,1.294,3.342,1.307,3.394
			c0.013,0.05,0.036,0.091,0.058,0.132c0.035,0.068,0.132,0.142,0.234,0.142h0.038c0.07,0,0.146-0.033,0.182-0.068
			c0.028-0.028,0.099-0.101,0.108-0.143L1.91,3.446c-0.015,0.01-0.064,0.08-0.089,0.102C1.794,3.572,1.729,3.605,1.682,3.605H1.633
			c-0.14,0-0.214-0.217-0.214-0.369h0.369c0.013,0,0.022-0.044,0.025-0.056H1.42V3.12h0.403c0.015,0,0.02-0.045,0.025-0.056H1.422
			c0.003-0.005,0.019-0.104,0.023-0.121c0.009-0.037,0.026-0.079,0.04-0.108c0.027-0.055,0.087-0.126,0.168-0.126h0.043
			c0.111,0,0.186,0.111,0.186,0.225h0.028V2.731c0-0.024-0.166-0.067-0.21-0.067H1.644c-0.106,0-0.202,0.07-0.249,0.131
			C1.354,2.849,1.288,2.974,1.286,3.064L1.286,3.064z"/>
		<path id="_87409168" d="M2.773,3.559C2.773,3.53,2.8,3.51,2.829,3.51h0.017c0.025,0,0.033,0.013,0.052,0.017
			C2.888,3.572,2.87,3.625,2.815,3.625H2.812c-0.02,0-0.038-0.023-0.038-0.043V3.559z M3.005,2.864c0-0.074,0.041-0.158,0.112-0.158
			h0.025c0.12,0,0.05,0.158,0.126,0.158h0.013c0.024,0,0.049-0.029,0.049-0.056V2.798c0-0.064-0.085-0.133-0.155-0.133H3.145
			c-0.16,0-0.256,0.142-0.256,0.305v0.067H2.756v0.07h0.136L2.9,3.173H2.756v0.07h0.147L2.911,3.38L2.91,3.471L2.872,3.467H2.837
			c-0.055,0-0.106,0.048-0.106,0.101c0,0.055,0.027,0.098,0.081,0.098h0.014c0.049,0,0.11-0.073,0.119-0.112
			c0.011,0.003,0.08,0.057,0.097,0.068c0.029,0.02,0.074,0.045,0.121,0.045h0.038c0.094,0,0.182-0.135,0.182-0.236
			c-0.014,0-0.007-0.002-0.021-0.002c-0.009,0-0.026,0.112-0.136,0.112H3.191c-0.043,0-0.184-0.041-0.214-0.056
			C2.993,3.421,3.02,3.359,3.02,3.278V3.242h0.185v-0.07H3.019V3.144L3.014,3.106h0.19v-0.07H3.012L3.004,2.888L3.005,2.864
			L3.005,2.864z"/>
		<path id="_87516072" d="M2.335,3.239C2.349,3.242,2.427,3.305,2.44,3.318c0.035,0.034,0.052,0.057,0.061,0.118
			C2.513,3.525,2.424,3.62,2.335,3.622V3.239z M2.289,3.046c-0.052-0.027-0.135-0.1-0.141-0.171C2.142,2.78,2.195,2.714,2.289,2.714
			V3.046z M2.335,2.709c0.02,0.01,0.06,0.009,0.088,0.024C2.446,2.746,2.47,2.759,2.486,2.78c0.047,0.064,0.037,0.076,0.057,0.161
			h0.028V2.734c0-0.025-0.186-0.067-0.236-0.067V2.594H2.289v0.074c-0.127,0-0.253,0.099-0.253,0.228v0.021
			c0,0.074,0.051,0.143,0.094,0.176c0.029,0.023,0.129,0.105,0.159,0.112v0.418c-0.063,0-0.131-0.031-0.162-0.062
			C2.109,3.542,2.093,3.515,2.083,3.491C2.078,3.477,2.072,3.408,2.058,3.408H2.033v0.207c0.019,0.001,0.086,0.028,0.116,0.036
			C2.182,3.66,2.236,3.668,2.279,3.668H2.29v0.087h0.046V3.668c0.146,0,0.28-0.115,0.28-0.263c0-0.094-0.055-0.155-0.108-0.197
			C2.45,3.162,2.396,3.119,2.335,3.078V2.709L2.335,2.709z"/>
	</g>
</g>
</svg>
