<?xml version="1.0" encoding="utf-8"?>
<!-- Generator: Adobe Illustrator 16.0.0, SVG Export Plug-In . SVG Version: 6.00 Build 0)  -->
<!DOCTYPE svg PUBLIC "-//W3C//DTD SVG 1.1//EN" "http://www.w3.org/Graphics/SVG/1.1/DTD/svg11.dtd">
<svg version="1.1" id="Version_1.0" xmlns="http://www.w3.org/2000/svg" xmlns:xlink="http://www.w3.org/1999/xlink" x="0px" y="0px"
	 width="612px" height="792px" viewBox="0 0 612 792" enable-background="new 0 0 612 792" xml:space="preserve">
<g id="octagon" display="none">
	<g id="outFrame" display="inline">
		<line fill="none" stroke="#0000FF" stroke-width="2" x1="220" y1="309.5" x2="306" y2="273"/>
		<line fill="none" stroke="#0000FF" stroke-width="2" x1="306" y1="273" x2="390.5" y2="309.5"/>
		<line fill="none" stroke="#0000FF" stroke-width="2" x1="390.5" y1="309.5" x2="427" y2="396"/>
		<line fill="none" stroke="#0000FF" stroke-width="2" x1="427" y1="396" x2="390.5" y2="482.5"/>
		<line fill="none" stroke="#0000FF" stroke-width="2" x1="390.5" y1="482.5" x2="306" y2="516"/>
		<line fill="none" stroke="#0000FF" stroke-width="2" x1="306" y1="516" x2="220" y2="482.5"/>
		<line fill="none" stroke="#0000FF" stroke-width="2" x1="220" y1="482.5" x2="183" y2="396"/>
		<line fill="none" stroke="#0000FF" stroke-width="2" x1="183" y1="396" x2="220" y2="309.5"/>
	</g>
	
		<line id="mod2_1_" display="inline" fill="none" stroke="#0000FF" stroke-width="2" x1="203.966" y1="445.015" x2="406.199" y2="445.295"/>
	
		<line id="mod1_1_" display="inline" fill="none" stroke="#0000FF" stroke-width="2" x1="203.966" y1="346.985" x2="406.199" y2="346.705"/>
</g>
<g id="main">
	<g transform="scale(100) translate(0.74 0.73)">
		<path id="_150414912" d="M1.523,2.951c0.058,0,0.079-0.043,0.114-0.066c0.027,0.02,0.056,0.066,0.11,0.066h0.004
			c0.065,0,0.083-0.043,0.117-0.066c0.035,0.023,0.055,0.066,0.117,0.066c0.06,0,0.082-0.045,0.114-0.066
			c0.016,0.011,0.028,0.028,0.048,0.04c0.01,0.006,0.055,0.022,0.055,0.033v0.169C2.169,3.119,2.111,3.068,2.103,3.039H2.095
			C2.088,3.067,2.021,3.13,1.982,3.13c-0.038,0-0.102-0.066-0.11-0.095C1.848,3.051,1.806,3.13,1.758,3.13H1.747
			c-0.03,0-0.1-0.068-0.106-0.092C1.621,3.044,1.577,3.13,1.523,3.13H1.516c-0.027,0-0.042-0.018-0.059-0.029L1.431,3.13
			C1.456,3.147,1.47,3.174,1.512,3.174h0.011c0.057,0,0.078-0.046,0.114-0.07c0.018,0.027,0.07,0.07,0.117,0.07
			c0.057,0,0.083-0.049,0.114-0.07c0.031,0.021,0.064,0.07,0.117,0.07s0.084-0.052,0.117-0.07c0.018,0.026,0.065,0.059,0.1,0.067
			v0.176C2.168,3.344,2.117,3.286,2.103,3.259C2.076,3.277,2.04,3.35,1.985,3.35H1.982c-0.057,0-0.102-0.088-0.117-0.092
			C1.858,3.282,1.79,3.35,1.762,3.35H1.751c-0.054,0-0.09-0.073-0.117-0.092C1.62,3.284,1.564,3.35,1.531,3.35H1.509
			c-0.018,0-0.042-0.024-0.055-0.033L1.431,3.354c0.027,0.018,0.043,0.04,0.089,0.04c0.067,0,0.078-0.045,0.117-0.066
			c0.034,0.023,0.051,0.066,0.117,0.066c0.055,0,0.084-0.046,0.114-0.066c0.035,0.024,0.063,0.066,0.121,0.066
			c0.045,0,0.085-0.049,0.11-0.066C2.121,3.34,2.124,3.353,2.148,3.367c0.011,0.007,0.054,0.018,0.054,0.031v0.169
			c-0.034-0.008-0.09-0.056-0.099-0.088C2.076,3.497,2.04,3.574,1.982,3.574c-0.036,0-0.102-0.066-0.11-0.095
			c-0.029,0.02-0.064,0.095-0.121,0.095c-0.05,0-0.093-0.079-0.117-0.095C1.626,3.505,1.559,3.574,1.527,3.574H1.512
			c-0.021,0-0.045-0.024-0.059-0.033L1.431,3.573C1.458,3.591,1.476,3.618,1.52,3.618c0.056,0,0.082-0.046,0.117-0.07
			c0.029,0.02,0.064,0.072,0.117,0.07c0.057-0.003,0.082-0.048,0.114-0.07c0.03,0.02,0.068,0.07,0.117,0.07
			c0.047,0,0.086-0.051,0.114-0.07C2.138,3.574,2.143,3.597,2.202,3.61v0.125h0.425L2.593,3.604
			c0.021,0.005,0.026,0.014,0.056,0.014c0.05,0,0.082-0.048,0.114-0.07c0.033,0.022,0.059,0.07,0.117,0.07
			c0.04,0,0.096-0.044,0.11-0.07c0.033,0.008,0.062,0.07,0.128,0.07c0.029,0,0.065-0.034,0.084-0.044L3.177,3.541
			C3.16,3.552,3.14,3.574,3.111,3.574c-0.052,0-0.092-0.077-0.117-0.095C2.977,3.514,2.926,3.574,2.876,3.574
			c-0.033,0-0.107-0.065-0.11-0.095C2.741,3.496,2.701,3.574,2.649,3.574H2.645c-0.027,0-0.054-0.023-0.068-0.038
			C2.568,3.527,2.556,3.473,2.55,3.457C2.541,3.432,2.506,3.316,2.506,3.292L2.498,3.281l0.001-0.015L2.491,3.255V3.24L2.484,3.23
			L2.352,2.765l0.004-0.001l-0.008-0.01l0.001-0.015C2.344,2.731,2.341,2.732,2.341,2.723V2.712H2.202v0.194
			c-0.035-0.018-0.03-0.013-0.06-0.039C2.139,2.864,2.117,2.844,2.116,2.842c-0.01-0.013-0.003-0.022-0.02-0.027
			C2.093,2.844,2.019,2.91,1.989,2.91H1.985c-0.063,0-0.105-0.091-0.121-0.095C1.857,2.842,1.79,2.91,1.758,2.91H1.747
			c-0.03,0-0.104-0.068-0.106-0.095C1.629,2.818,1.571,2.91,1.531,2.91H1.509c-0.018,0-0.042-0.024-0.055-0.033L1.432,2.91
			c0.026,0.017,0.04,0.04,0.084,0.04h0.007V2.951z"/>
	</g>
</g>
</svg>
