<?xml version="1.0" encoding="utf-8"?>
<!-- Generator: Adobe Illustrator 16.0.0, SVG Export Plug-In . SVG Version: 6.00 Build 0)  -->
<!DOCTYPE svg PUBLIC "-//W3C//DTD SVG 1.1//EN" "http://www.w3.org/Graphics/SVG/1.1/DTD/svg11.dtd">
<svg version="1.1" id="Version_1.0" xmlns="http://www.w3.org/2000/svg" xmlns:xlink="http://www.w3.org/1999/xlink" x="0px" y="0px"
	 width="612px" height="792px" viewBox="0 0 612 792" enable-background="new 0 0 612 792" xml:space="preserve">
<g id="octagon" display="none">
	
		<line id="mod2_1_" display="inline" fill="none" stroke="#0000FF" stroke-width="2" x1="203.966" y1="445.015" x2="406.199" y2="445.295"/>
	
		<line id="mod1_1_" display="inline" fill="none" stroke="#0000FF" stroke-width="2" x1="203.966" y1="346.985" x2="406.199" y2="346.705"/>
	<g id="outFrame" display="inline">
		<line fill="none" stroke="#0000FF" stroke-width="2" x1="220" y1="309.5" x2="306" y2="273"/>
		<line fill="none" stroke="#0000FF" stroke-width="2" x1="306" y1="273" x2="390.5" y2="309.5"/>
		<line fill="none" stroke="#0000FF" stroke-width="2" x1="390.5" y1="309.5" x2="427" y2="396"/>
		<line fill="none" stroke="#0000FF" stroke-width="2" x1="427" y1="396" x2="390.5" y2="482.5"/>
		<line fill="none" stroke="#0000FF" stroke-width="2" x1="390.5" y1="482.5" x2="306" y2="516"/>
		<line fill="none" stroke="#0000FF" stroke-width="2" x1="306" y1="516" x2="220" y2="482.5"/>
		<line fill="none" stroke="#0000FF" stroke-width="2" x1="220" y1="482.5" x2="183" y2="396"/>
		<line fill="none" stroke="#0000FF" stroke-width="2" x1="183" y1="396" x2="220" y2="309.5"/>
	</g>
</g>
<g id="main">
	<g transform="scale(100) translate(0.76 0.65)">
		<polygon id="_43846288" points="2.094,3.054 2.105,3.043 2.094,3.038 		"/>
		<path id="_102731816" d="M2.352,3.781L2.651,3.58l0.071,0.23l0.033,0.1l0.053,0.172L2.352,3.781z M1.777,4.082l0.085-0.293
			l0.049-0.147l0.02-0.064l0.297,0.205L1.777,4.082z M2.288,3.216L2.613,3.52C2.575,3.545,2.306,3.732,2.285,3.732
			c-0.003,0-0.289-0.192-0.318-0.213L2.288,3.216z M2.481,3.038l0.006,0.004l0.045,0.142l0.063,0.217L2.342,3.169L2.481,3.038
			L2.481,3.038z M2.094,3.054V3.038l0.011,0.005l0.134,0.126l-0.25,0.235L2.054,3.18L2.094,3.054z M2.167,3.012l0.244-0.001
			l-0.125,0.11L2.167,3.012z M2.258,2.434v0.09H2.147c-0.012,0-0.026,0.014-0.026,0.026v0.016c0,0.017,0.019,0.026,0.037,0.026
			h0.101v0.106h-0.18c-0.012,0-0.026,0.014-0.026,0.026v0.005c0,0.025,0.012,0.037,0.037,0.037h0.169v0.175h-0.17
			c-0.019,0-0.026,0.008-0.033,0.017L2.04,3.008L1.918,3.399L1.844,3.638L1.766,3.874L1.764,3.895L1.692,4.113l-0.003,0.02
			L1.676,4.187C1.7,4.193,1.689,4.203,1.708,4.203h0.005c0.021,0,0.503-0.342,0.577-0.381c0.062,0.042,0.56,0.381,0.588,0.381
			c0.015,0,0.026-0.018,0.026-0.032c0-0.003-0.034-0.101-0.037-0.106l-0.003-0.02L2.787,3.802L2.715,3.569L2.597,3.176
			C2.583,3.155,2.563,3.082,2.553,3.05C2.537,3.004,2.54,2.943,2.491,2.943H2.322V2.768h0.18c0.012,0,0.026-0.014,0.026-0.026V2.731
			c0-0.016-0.005-0.032-0.021-0.032H2.322V2.593h0.101c0.018,0,0.037-0.009,0.037-0.026V2.551c0-0.017-0.019-0.026-0.037-0.026
			H2.322V2.424c0-0.015-0.018-0.026-0.032-0.026C2.27,2.397,2.258,2.413,2.258,2.434L2.258,2.434z"/>
	</g>
</g>
</svg>
