<?xml version="1.0" encoding="utf-8"?>
<!-- Generator: Adobe Illustrator 16.0.0, SVG Export Plug-In . SVG Version: 6.00 Build 0)  -->
<!DOCTYPE svg PUBLIC "-//W3C//DTD SVG 1.1//EN" "http://www.w3.org/Graphics/SVG/1.1/DTD/svg11.dtd">
<svg version="1.1" id="Version_1.0" xmlns="http://www.w3.org/2000/svg" xmlns:xlink="http://www.w3.org/1999/xlink" x="0px" y="0px"
	 width="612px" height="792px" viewBox="0 0 612 792" enable-background="new 0 0 612 792" xml:space="preserve">
<g id="octagon" display="none">
	<g id="outFrame" display="inline">
		<line fill="none" stroke="#0000FF" stroke-width="2" x1="220" y1="309.5" x2="306" y2="273"/>
		<line fill="none" stroke="#0000FF" stroke-width="2" x1="306" y1="273" x2="390.5" y2="309.5"/>
		<line fill="none" stroke="#0000FF" stroke-width="2" x1="390.5" y1="309.5" x2="427" y2="396"/>
		<line fill="none" stroke="#0000FF" stroke-width="2" x1="427" y1="396" x2="390.5" y2="482.5"/>
		<line fill="none" stroke="#0000FF" stroke-width="2" x1="390.5" y1="482.5" x2="306" y2="516"/>
		<line fill="none" stroke="#0000FF" stroke-width="2" x1="306" y1="516" x2="220" y2="482.5"/>
		<line fill="none" stroke="#0000FF" stroke-width="2" x1="220" y1="482.5" x2="183" y2="396"/>
		<line fill="none" stroke="#0000FF" stroke-width="2" x1="183" y1="396" x2="220" y2="309.5"/>
	</g>
	
		<line id="mod2_1_" display="inline" fill="none" stroke="#0000FF" stroke-width="2" x1="203.966" y1="445.015" x2="406.199" y2="445.295"/>
	
		<line id="mod1_1_" display="inline" fill="none" stroke="#0000FF" stroke-width="2" x1="203.966" y1="346.985" x2="406.199" y2="346.705"/>
</g>
<g id="main">
	<path id="_63583088" d="M291.873,395.059h26.96v14.485c-3.926,0-11.648,2.606-14.552,1.679c-3.061-0.979-9.494-3.851-12.408-4.093
		V395.059z M243.99,395.059h41.445v14.889c0,1.498,7.455,3.466,9.13,4.147c0.88,0.359,9.758,3.5,9.811,3.72l17.927-2.189l1.932,6.74
		l2.646,9.31c0.66,0.986,2.413,5.98,2.413,7.646v0.401c0,2.834-1.608,4.787-1.608,8.854l33.827-0.009l-2.303-7.564l-1.39-4.356
		l-7.603-25.089c-0.589-0.879-1.208-1.715-1.208-3.22c0-3.144,9.698-10.335,11.636-13.267l-6.808-20.935H243.99V395.059
		L243.99,395.059z"/>
	<path id="_87876656" d="M316.683,332.387h11.154v33.463h24.699v-33.463h11.155v33.463h16.729v92.421H230.236V365.85h86.446
		L316.683,332.387L316.683,332.387z M227.448,461.459h155.763v-98.796h-15.935V329.2H349.35v33.463h-17.927V329.2h-17.927v33.463
		h-86.048V461.459z"/>
</g>
</svg>
