<?xml version="1.0" encoding="utf-8"?>
<!-- Generator: Adobe Illustrator 16.0.0, SVG Export Plug-In . SVG Version: 6.00 Build 0)  -->
<!DOCTYPE svg PUBLIC "-//W3C//DTD SVG 1.1//EN" "http://www.w3.org/Graphics/SVG/1.1/DTD/svg11.dtd">
<svg version="1.1" id="Version_1.0" xmlns="http://www.w3.org/2000/svg" xmlns:xlink="http://www.w3.org/1999/xlink" x="0px" y="0px"
	 width="612px" height="792px" viewBox="0 0 612 792" enable-background="new 0 0 612 792" xml:space="preserve">
<g id="octagon" display="none">
	<g id="outFrame" display="inline">
		<line fill="none" stroke="#0000FF" stroke-width="2" x1="220" y1="309.5" x2="306" y2="273"/>
		<line fill="none" stroke="#0000FF" stroke-width="2" x1="306" y1="273" x2="390.5" y2="309.5"/>
		<line fill="none" stroke="#0000FF" stroke-width="2" x1="390.5" y1="309.5" x2="427" y2="396"/>
		<line fill="none" stroke="#0000FF" stroke-width="2" x1="427" y1="396" x2="390.5" y2="482.5"/>
		<line fill="none" stroke="#0000FF" stroke-width="2" x1="390.5" y1="482.5" x2="306" y2="516"/>
		<line fill="none" stroke="#0000FF" stroke-width="2" x1="306" y1="516" x2="220" y2="482.5"/>
		<line fill="none" stroke="#0000FF" stroke-width="2" x1="220" y1="482.5" x2="183" y2="396"/>
		<line fill="none" stroke="#0000FF" stroke-width="2" x1="183" y1="396" x2="220" y2="309.5"/>
	</g>
	
		<line id="mod2_1_" display="inline" fill="none" stroke="#0000FF" stroke-width="2" x1="203.966" y1="445.015" x2="406.199" y2="445.295"/>
	
		<line id="mod1_1_" display="inline" fill="none" stroke="#0000FF" stroke-width="2" x1="203.966" y1="346.985" x2="406.199" y2="346.705"/>
</g>
<g id="main">
	<g transform="scale(100) translate(1.17 0.38)">
		<polygon id="_41234416" points="1.815,2.633 1.841,2.638 1.843,2.631 1.817,2.627 		"/>
		<path id="_41732696" fill="#FFFFFF" d="M1.852,2.633l0.046,0.009L1.914,2.55C1.905,2.549,1.909,2.548,1.9,2.548
			C1.86,2.548,1.865,2.606,1.852,2.633z"/>
		<path id="_40069960" fill="#FFFFFF" d="M1.908,2.644l0.046,0.009l0.004-0.066l0.006,0.005c-0.001-0.01-0.001-0.008-0.009-0.007
			l0.002-0.002l-0.03-0.028L1.925,2.557L1.908,2.644z"/>
		<polygon id="_41956312" fill="#FFFFFF" points="1.961,2.655 1.998,2.661 1.964,2.596 		"/>
		<polygon id="_42934992" fill="#FFFFFF" points="1.826,2.706 1.841,2.638 1.815,2.633 1.791,2.699 		"/>
		<polygon id="_41956504" points="1.826,2.706 1.835,2.706 1.85,2.64 1.841,2.638 		"/>
		<polygon id="_40859248" fill="#FFFFFF" points="1.824,2.712 1.828,2.712 1.832,2.715 1.835,2.71 1.835,2.706 1.826,2.706 		"/>
		<polygon id="_42441848" fill="#FFFFFF" points="1.841,2.638 1.85,2.64 1.835,2.706 1.887,2.715 1.896,2.649 1.852,2.64 
			1.852,2.633 1.843,2.631 		"/>
		<polygon id="_41956696" fill="#FFFFFF" points="1.896,2.717 1.949,2.726 1.953,2.66 1.907,2.651 		"/>
		<path id="_42713152" fill="#FFFFFF" d="M2.01,2.748l0.01-0.001l-0.008-0.01c0-0.033-0.001-0.031-0.008-0.055
			C2,2.668,2.003,2.67,1.987,2.667C1.978,2.665,1.968,2.663,1.96,2.662L1.955,2.727l0.055,0.01V2.748z"/>
		<polygon id="_41956984" points="1.824,2.712 1.826,2.706 1.791,2.699 1.815,2.633 1.805,2.626 1.762,2.769 1.764,2.769 
			1.772,2.767 1.789,2.706 		"/>
		<polygon id="_42712984" fill="#FFFFFF" points="1.832,2.715 1.822,2.78 1.876,2.791 1.885,2.724 		"/>
		<path id="_41957464" fill="#FFFFFF" d="M1.885,2.794l0.057,0.013c0-0.086,0.032-0.062-0.047-0.081L1.885,2.794z"/>
		<path id="_41874056" fill="#FFFFFF" d="M2.006,2.82L2.01,2.748L1.955,2.737C1.955,2.821,1.923,2.801,2.006,2.82z"/>
		<path id="_42057872" fill="#FFFFFF" d="M2.012,2.822l0.026,0.004C2.035,2.811,2.032,2.751,2.017,2.75L2.012,2.822z"/>
		<polygon id="_42036056" fill="#FFFFFF" points="2.006,2.827 2.012,2.829 2.012,2.822 2.006,2.82 		"/>
		<path id="_41873672" d="M1.799,2.844c0.02,0,0.013-0.043,0.02-0.057L1.808,2.785L1.799,2.844z"/>
		<polygon id="_42712872" fill="#FFFFFF" points="1.876,2.862 1.935,2.877 1.942,2.813 1.884,2.8 		"/>
		<polygon id="_41957272" fill="#FFFFFF" points="2.001,2.892 2.006,2.827 1.949,2.816 1.942,2.878 		"/>
		<polygon id="_42934600" points="2.001,2.892 2.008,2.895 2.012,2.829 2.006,2.827 		"/>
		<polygon id="_42934656" fill="#FFFFFF" points="2.001,2.903 2.008,2.903 2.008,2.895 2.001,2.892 		"/>
		<path id="_42934824" fill="#FFFFFF" d="M2.008,2.895L2.05,2.903c-0.002-0.004-0.006-0.04-0.007-0.048
			C2.04,2.831,2.037,2.831,2.012,2.829L2.008,2.895z"/>
		<path id="_42525368" fill="#FFFFFF" d="M1.799,2.844L1.797,2.851C1.768,2.85,1.76,2.828,1.755,2.859
			c-0.002,0.009-0.008,0.053-0.007,0.06c0.001,0.005,0.018,0.006,0.024,0.008c0.017,0.004,0.017,0.006,0.017-0.013
			c0-0.019,0.007-0.043,0.009-0.061h0.009l-0.009,0.08l0.059,0.014l0.009-0.079L1.808,2.855v-0.01l0.058,0.014l0.007-0.061
			L1.819,2.787C1.812,2.801,1.819,2.844,1.799,2.844z"/>
		<path id="_42713768" fill="#FFFFFF" d="M1.863,2.956l0.002-0.007L1.861,2.947H1.857C1.857,2.956,1.855,2.954,1.863,2.956z"/>
		<polygon id="_41955736" fill="#FFFFFF" points="1.865,2.949 1.927,2.963 1.935,2.886 1.874,2.87 		"/>
		<polygon id="_42360728" points="1.863,2.956 1.927,2.971 1.927,2.963 1.865,2.949 		"/>
		<polygon id="_42713880" fill="#FFFFFF" points="1.936,2.965 1.995,2.978 2.001,2.903 1.942,2.888 		"/>
		<polygon id="_42620888" fill="#FFFFFF" points="2.003,2.98 2.057,2.991 2.05,2.915 2.008,2.906 		"/>
		<polygon id="_41955448" fill="#FFFFFF" points="1.741,3.002 1.779,3.011 1.786,2.939 1.747,2.93 		"/>
		<polygon id="_42934320" fill="#FFFFFF" points="1.848,3.035 1.857,3.035 1.857,3.026 1.849,3.026 1.854,2.954 1.796,2.941 
			1.789,3.012 1.848,3.024 		"/>
		<polygon id="_41955352" fill="#FFFFFF" points="1.927,2.971 1.863,2.956 1.859,3.028 1.92,3.039 		"/>
		<path id="_42934208" fill="#FFFFFF" d="M1.927,2.971h0.007l-0.005,0.07H1.92V3.05l0.007,0.002c0-0.004,0-0.009,0.004-0.009
			c0.017,0,0.039,0.011,0.057,0.011c0-0.008,0.007-0.063,0.006-0.066C1.993,2.984,1.945,2.974,1.936,2.974V2.965L1.927,2.963V2.971z
			"/>
		<path id="_42714104" fill="#FFFFFF" d="M2.058,3.07l0.001-0.029L2.056,3L2.001,2.989c0,0.009-0.004,0.067-0.004,0.067
			C2,3.06,2.051,3.07,2.058,3.07z"/>
		<path id="_41955064" fill="#FFFFFF" d="M1.74,3.07c0,0.013-0.005,0.005,0.013,0.011C1.76,3.084,1.769,3.087,1.778,3.088V3.035
			c0-0.017,0.01-0.014-0.01-0.018C1.757,3.015,1.751,3.011,1.74,3.011V3.07z"/>
		<polygon id="_40821288" fill="#FFFFFF" points="1.843,3.11 1.848,3.035 1.786,3.022 1.787,3.046 1.784,3.091 		"/>
		<path id="_42714272" fill="#FFFFFF" d="M1.992,3.118c0.02-0.01,0.038-0.02,0.069-0.02C2.059,3.096,2.058,3.096,2.058,3.092v-0.01
			L1.996,3.068L1.992,3.118z"/>
		<polygon id="_41954776" fill="#FFFFFF" points="1.852,3.112 1.909,3.129 1.92,3.05 1.857,3.037 		"/>
		<polygon id="_42714440" points="1.909,3.129 1.918,3.132 1.927,3.053 1.92,3.05 		"/>
		<polygon id="_41954488" fill="#FFFFFF" points="1.909,3.138 1.914,3.14 1.918,3.14 1.918,3.132 1.909,3.129 		"/>
		<path id="_42714608" d="M1.918,3.14l0.041,0.012l0.005-0.001c-0.003-0.012-0.035-0.014-0.046-0.02V3.14z"/>
		<path id="_41954200" fill="#FFFFFF" d="M1.852,3.112L1.843,3.11v0.009L1.784,3.103v0.009c0,0.006-0.001,0.005-0.002,0.009
			c0.01,0.018,0.04,0.066,0.04,0.088h0.005L1.824,3.2l0.02,0.009V3.121h0.009L1.852,3.112L1.852,3.112z"/>
		<polygon id="_42714776" fill="#FFFFFF" points="1.909,3.138 1.852,3.123 1.852,3.129 1.852,3.215 1.894,3.235 		"/>
		<path id="_41953912" fill="#FFFFFF" d="M1.845,3.248l0.001-0.014c0-0.013-0.005-0.019-0.016-0.022L1.845,3.248z"/>
		<path id="_42706992" fill="#FFFFFF" d="M1.918,3.132c0.011,0.005,0.043,0.007,0.046,0.02L1.959,3.153L1.918,3.14l-0.015,0.1
			l0.022,0.012c0.009-0.017,0.019-0.049,0.027-0.069c0.009-0.021,0.025-0.042,0.036-0.06H1.983l0.005-0.057L1.927,3.053L1.918,3.132
			z"/>
		<path id="_41953624" fill="#FFFFFF" d="M1.858,3.279L1.85,3.263c0,0.015,0.009,0.045,0.02,0.048L1.868,3.305
			C1.882,3.301,1.89,3.261,1.892,3.244l-0.04-0.02L1.858,3.279z"/>
		<path id="_42707160" fill="#FFFFFF" d="M1.872,3.314l0.016,0.051L1.922,3.26L1.9,3.25C1.892,3.268,1.894,3.308,1.872,3.314z"/>
		<path id="_41953336" d="M1.872,3.314C1.894,3.308,1.892,3.268,1.9,3.25l0.022,0.01L1.888,3.365L1.872,3.314z M1.868,3.305
			L1.87,3.311C1.858,3.309,1.85,3.278,1.85,3.263l0.009,0.015L1.851,3.224l0.04,0.02C1.89,3.261,1.882,3.301,1.868,3.305z
			 M1.845,3.248L1.829,3.213C1.84,3.215,1.845,3.221,1.845,3.235V3.248z M1.909,3.138L1.894,3.235l-0.042-0.02V3.129V3.122
			L1.909,3.138z M1.843,3.11l0.009,0.002v0.009H1.843v0.088L1.824,3.2l0.002,0.009H1.821c0-0.022-0.03-0.069-0.04-0.088
			c0.002-0.003,0.002-0.003,0.002-0.009V3.103l0.059,0.016L1.843,3.11z M1.996,3.068l0.062,0.014v0.01
			c0,0.004,0.001,0.004,0.002,0.007c-0.031,0-0.048,0.009-0.069,0.02L1.996,3.068z M1.843,3.11L1.784,3.091l0.002-0.045V3.022
			l0.061,0.013L1.843,3.11z M2.058,3.07C2.051,3.07,2,3.06,1.998,3.056c0,0,0.004-0.058,0.004-0.067L2.056,3l0.003,0.041L2.058,3.07
			z M1.74,3.011c0.01,0,0.017,0.004,0.027,0.006c0.02,0.004,0.01,0.002,0.01,0.018v0.053C1.769,3.087,1.76,3.084,1.753,3.081
			C1.735,3.076,1.74,3.083,1.74,3.07V3.011z M2.008,2.906L2.05,2.915l0.007,0.076L2.003,2.98L2.008,2.906z M1.848,3.035V3.024
			L1.789,3.012l0.007-0.071l0.059,0.013L1.849,3.026h0.007v0.009H1.848z M1.747,2.93l0.039,0.009L1.779,3.011L1.741,3.002
			L1.747,2.93z M1.936,2.965l0.007-0.077l0.059,0.015L1.995,2.978L1.936,2.965z M1.927,2.963l0.009,0.002v0.009
			c0.01,0,0.058,0.01,0.059,0.016c0.001,0.002-0.006,0.058-0.006,0.066c-0.019,0-0.04-0.011-0.057-0.011
			c-0.004,0-0.004,0.005-0.004,0.009l0.061,0.013L1.983,3.123h0.005C1.976,3.141,1.96,3.162,1.952,3.183
			c-0.008,0.02-0.018,0.052-0.027,0.069L1.903,3.241l0.015-0.1H1.914L1.909,3.138V3.129L1.852,3.112l0.005-0.075L1.92,3.05V3.042
			h0.009l0.005-0.07H1.927L1.92,3.039L1.859,3.028l0.004-0.072c-0.008-0.002-0.006,0-0.007-0.009H1.86l0.004,0.002l0.01-0.079
			l0.061,0.016L1.927,2.963z M2.006,2.827V2.82l0.007,0.002v0.007c0.024,0.002,0.027,0.002,0.03,0.026
			C2.044,2.863,2.048,2.899,2.05,2.903L2.008,2.895v0.009H2.001V2.892L1.942,2.878l0.007-0.062L2.006,2.827z M2.012,2.822
			L2.017,2.75c0.015,0.002,0.018,0.061,0.021,0.077L2.012,2.822z M1.884,2.8l0.059,0.013L1.935,2.877l-0.06-0.015L1.884,2.8z
			 M2.006,2.82c-0.082-0.019-0.05,0.001-0.05-0.083L2.01,2.748L2.006,2.82z M1.895,2.726c0.08,0.019,0.047-0.005,0.047,0.081
			L1.885,2.794L1.895,2.726z M1.832,2.715l0.053,0.009L1.876,2.791L1.822,2.78L1.832,2.715z M2.01,2.748V2.737l-0.055-0.01
			L1.96,2.662c0.008,0.001,0.017,0.003,0.027,0.005C2.003,2.67,2,2.668,2.004,2.681c0.007,0.024,0.008,0.022,0.008,0.055l0.008,0.01
			L2.01,2.748z M1.907,2.651L1.953,2.66L1.949,2.726L1.896,2.717L1.907,2.651z M1.964,2.596l0.034,0.065L1.961,2.655L1.964,2.596z
			 M1.925,2.557l0.001-0.002l0.031,0.029L1.955,2.585c0.008-0.002,0.008-0.003,0.009,0.007L1.958,2.587L1.954,2.653L1.908,2.644
			L1.925,2.557z M1.852,2.633C1.865,2.606,1.86,2.548,1.9,2.548c0.008,0,0.004,0.001,0.013,0.002L1.898,2.642L1.852,2.633z
			 M1.843,2.631l0.009,0.002V2.64l0.044,0.009L1.887,2.715L1.835,2.706V2.71L1.832,2.715L1.828,2.712H1.823L1.81,2.777L1.771,2.77
			v0.007c0.012,0.001,0.024,0.007,0.035,0.007c0.004,0,0-0.004,0.013-0.004v0.009L1.874,2.8L1.867,2.859L1.808,2.845v0.01
			l0.057,0.014L1.857,2.947l-0.06-0.014l0.009-0.08H1.797C1.796,2.872,1.789,2.896,1.789,2.914C1.788,2.933,1.788,2.931,1.771,2.927
			C1.766,2.926,1.749,2.925,1.748,2.919c-0.001-0.007,0.005-0.051,0.007-0.06C1.76,2.828,1.768,2.85,1.797,2.851l0.002-0.007
			C1.793,2.841,1.76,2.836,1.76,2.831c0-0.02,0.009-0.037,0.009-0.057c-0.015,0.002-0.018,0.058-0.02,0.074
			C1.746,2.869,1.739,2.913,1.74,2.93c0.001,0.021-0.006,0.06-0.006,0.087c0,0.033-0.002,0.06-0.002,0.094h0.007V3.088l0.037,0.01
			v0.024L1.69,3.11H1.688c-0.126,0-0.219,0.243-0.219,0.384c0,0.057,0.019,0.134,0.05,0.156C1.537,3.614,1.551,3.573,1.57,3.536
			c0.019-0.037,0.035-0.077,0.052-0.115C1.63,3.403,1.639,3.384,1.648,3.366c0.01-0.021,0.019-0.037,0.046-0.029
			c0.023,0.007,0.048,0.08,0.053,0.114c0.013,0.095,0,0.226,0.015,0.316c0.017,0.1,0.058,0.159,0.134,0.199
			C1.92,3.956,1.958,3.952,1.98,3.937c0.023-0.016,0.044-0.031,0.06-0.054C2.071,3.838,2.089,3.78,2.089,3.704L2.09,3.689
			l-0.008-0.14V3.542c0-0.068,0.012-0.208,0.07-0.208h0.002c0.036,0,0.051,0.014,0.066,0.035c0.014,0.019,0.031,0.036,0.046,0.055
			C2.295,3.461,2.33,3.496,2.33,3.562v0.015l0.009,0.002c0.009-0.04,0.046-0.071,0.046-0.129V3.412c0-0.088-0.036-0.156-0.074-0.207
			c-0.02-0.027-0.044-0.049-0.071-0.07C2.222,3.123,2.173,3.088,2.146,3.088l-0.02-0.001l-0.057,0.01
			c-0.005-0.021,0.002-0.05-0.003-0.078c-0.003-0.02-0.004-0.062-0.005-0.083C2.057,2.884,2.048,2.83,2.039,2.783
			c-0.016-0.082-0.05-0.204-0.114-0.235v0.007l-0.01-0.003l0.003-0.008l-0.02-0.002C1.875,2.539,1.85,2.562,1.84,2.574
			C1.835,2.581,1.798,2.623,1.819,2.625C1.823,2.61,1.851,2.571,1.863,2.564L1.843,2.631z"/>
	</g>
	<text transform="matrix(1 0 0 1 254.5654 483.9999)" font-family="sans-serif" font-size="52">LAB</text>
</g>
</svg>
