<?xml version="1.0" encoding="utf-8"?>
<!-- Generator: Adobe Illustrator 16.0.0, SVG Export Plug-In . SVG Version: 6.00 Build 0)  -->
<!DOCTYPE svg PUBLIC "-//W3C//DTD SVG 1.1//EN" "http://www.w3.org/Graphics/SVG/1.1/DTD/svg11.dtd">
<svg version="1.1" id="Version_1.0" xmlns="http://www.w3.org/2000/svg" xmlns:xlink="http://www.w3.org/1999/xlink" x="0px" y="0px"
	 width="612px" height="792px" viewBox="0 0 612 792" enable-background="new 0 0 612 792" xml:space="preserve">
<g id="octagon" display="none">
	<g id="outFrame" display="inline">
		<line fill="none" stroke="#0000FF" stroke-width="2" x1="220" y1="309.5" x2="306" y2="273"/>
		<line fill="none" stroke="#0000FF" stroke-width="2" x1="306" y1="273" x2="390.5" y2="309.5"/>
		<line fill="none" stroke="#0000FF" stroke-width="2" x1="390.5" y1="309.5" x2="427" y2="396"/>
		<line fill="none" stroke="#0000FF" stroke-width="2" x1="427" y1="396" x2="390.5" y2="482.5"/>
		<line fill="none" stroke="#0000FF" stroke-width="2" x1="390.5" y1="482.5" x2="306" y2="516"/>
		<line fill="none" stroke="#0000FF" stroke-width="2" x1="306" y1="516" x2="220" y2="482.5"/>
		<line fill="none" stroke="#0000FF" stroke-width="2" x1="220" y1="482.5" x2="183" y2="396"/>
		<line fill="none" stroke="#0000FF" stroke-width="2" x1="183" y1="396" x2="220" y2="309.5"/>
	</g>
	
		<line id="mod2_1_" display="inline" fill="none" stroke="#0000FF" stroke-width="2" x1="203.966" y1="445.015" x2="406.199" y2="445.295"/>
	
		<line id="mod1_1_" display="inline" fill="none" stroke="#0000FF" stroke-width="2" x1="203.966" y1="346.985" x2="406.199" y2="346.705"/>
</g>
<g id="main">
	<g transform="scale(100) translate(0.74 0.65)">
		<path id="_102634488" d="M2.308,2.882c0.186,0,0.576-0.111,0.643-0.211c-0.07-0.037-0.627-0.399-0.632-0.399
			c-0.011,0-0.623,0.385-0.637,0.405c0.064,0.087,0.415,0.205,0.582,0.205H2.308z"/>
		<path id="_100750160" d="M2.774,3.779l0.011,0.133l0.017,0.321h0.072c0-0.152-0.028-0.315-0.028-0.466
			c0-0.085-0.01-0.156-0.011-0.239C2.833,3.395,2.841,3.454,2.901,3.364L2.894,3.286l0.001-0.028H2.79V2.854
			C2.728,2.868,2.659,2.899,2.583,2.918C2.519,2.934,2.422,2.954,2.347,2.954H2.286c-0.189,0-0.305-0.066-0.449-0.1v0.405H1.732
			v0.017L1.725,3.369l0.08,0.093l-0.05,0.771h0.077V4.151l0.035-0.543c0.013,0.01,0.053,0.068,0.075,0.09
			c0.022,0.022,0.06,0.054,0.087,0.073c0.055,0.037,0.139,0.096,0.218,0.103v0.36h0.139v-0.36c0.093-0.022,0.154-0.056,0.22-0.107
			C2.641,3.74,2.661,3.723,2.692,3.692c0.017-0.017,0.062-0.079,0.076-0.085v0.078L2.774,3.779z"/>
		<line id="_62107160" fill="none" x1="1.837" y1="2.854" x2="1.838" y2="2.775"/>
		<line id="_40108936" fill="none" x1="2.79" y1="2.854" x2="2.79" y2="2.772"/>
		<path id="_38781984" fill="#FFFFFF" d="M2.264,2.882c-0.108,0-0.292-0.049-0.426-0.107L1.837,2.854
			c0.144,0.034,0.26,0.1,0.449,0.1h0.061c0.075,0,0.172-0.019,0.236-0.035C2.658,2.9,2.728,2.869,2.79,2.855V2.773
			C2.641,2.834,2.43,2.882,2.308,2.882H2.264z"/>
	</g>
</g>
</svg>
