<?xml version="1.0" encoding="utf-8"?>
<!-- Generator: Adobe Illustrator 16.0.0, SVG Export Plug-In . SVG Version: 6.00 Build 0)  -->
<!DOCTYPE svg PUBLIC "-//W3C//DTD SVG 1.1//EN" "http://www.w3.org/Graphics/SVG/1.1/DTD/svg11.dtd">
<svg version="1.1" id="Version_1.0" xmlns="http://www.w3.org/2000/svg" xmlns:xlink="http://www.w3.org/1999/xlink" x="0px"
	 y="0px" width="612px" height="792px" viewBox="0 0 612 792" enable-background="new 0 0 612 792" xml:space="preserve">
<g id="octagon" display="none">
	<g id="outFrame" display="inline">
		<line fill="none" stroke="#0000FF" stroke-width="2" x1="220" y1="306.5" x2="306" y2="270"/>
		<line fill="none" stroke="#0000FF" stroke-width="2" x1="306" y1="270" x2="390.5" y2="306.5"/>
		<line fill="none" stroke="#0000FF" stroke-width="2" x1="390.5" y1="306.5" x2="427" y2="393"/>
		<line fill="none" stroke="#0000FF" stroke-width="2" x1="427" y1="393" x2="390.5" y2="479.5"/>
		<line fill="none" stroke="#0000FF" stroke-width="2" x1="390.5" y1="479.5" x2="306" y2="513"/>
		<line fill="none" stroke="#0000FF" stroke-width="2" x1="306" y1="513" x2="220" y2="479.5"/>
		<line fill="none" stroke="#0000FF" stroke-width="2" x1="220" y1="479.5" x2="183" y2="393"/>
		<line fill="none" stroke="#0000FF" stroke-width="2" x1="183" y1="393" x2="220" y2="306.5"/>
	</g>
	
		<line id="bottom" display="inline" fill="none" stroke="#0000FF" stroke-width="2" x1="203.966" y1="442.015" x2="406.199" y2="442.295"/>
	
		<line id="top" display="inline" fill="none" stroke="#0000FF" stroke-width="2" x1="203.966" y1="343.985" x2="406.199" y2="343.705"/>
</g>
<g id="main">
	<g>
		<ellipse fill="none" stroke="#000000" stroke-width="5" cx="306" cy="339.736" rx="8.736" ry="8.736"/>
		<line fill="none" stroke="#000000" stroke-width="5" x1="306" y1="348.473" x2="306" y2="435.837"/>
		<line fill="none" stroke="#000000" stroke-width="5" x1="287.875" y1="353.933" x2="324.125" y2="353.933"/>
		<path stroke="#000000" stroke-width="3" d="M251.397,392.155c27.301,54.603,81.904,54.603,109.205,0
			C333.302,454.948,278.699,454.948,251.397,392.155"/>
		<path stroke="#000000" stroke-width="3" d="M251.397,392.155c4.368,24.571,7.098,24.571,7.098,24.571l8.19-10.921
			c-7.098-2.729-9.828-8.188-13.65-12.013"/>
		<path stroke="#000000" stroke-width="3" d="M360.603,392.155c-4.366,24.571-7.098,24.571-7.098,24.571l-8.188-10.921
			c7.099-2.729,9.826-8.188,13.648-12.013"/>
	</g>
	<text transform="matrix(1 0 0 1 259.042 326.834)" font-family="sans-serif" font-size="48">YRD</text>
</g>
</svg>
