<?xml version="1.0" encoding="utf-8"?>
<!-- Generator: Adobe Illustrator 16.0.0, SVG Export Plug-In . SVG Version: 6.00 Build 0)  -->
<!DOCTYPE svg PUBLIC "-//W3C//DTD SVG 1.1//EN" "http://www.w3.org/Graphics/SVG/1.1/DTD/svg11.dtd">
<svg version="1.1" id="Version_1.0" xmlns="http://www.w3.org/2000/svg" xmlns:xlink="http://www.w3.org/1999/xlink" x="0px"
	 y="0px" width="612px" height="792px" viewBox="0 0 612 792" enable-background="new 0 0 612 792" xml:space="preserve">
<g id="octagon" display="none">
	<g id="outFrame" display="inline">
		<line fill="none" stroke="#0000FF" stroke-width="2" x1="220" y1="309.5" x2="306" y2="273"/>
		<line fill="none" stroke="#0000FF" stroke-width="2" x1="306" y1="273" x2="390.5" y2="309.5"/>
		<line fill="none" stroke="#0000FF" stroke-width="2" x1="390.5" y1="309.5" x2="427" y2="396"/>
		<line fill="none" stroke="#0000FF" stroke-width="2" x1="427" y1="396" x2="390.5" y2="482.5"/>
		<line fill="none" stroke="#0000FF" stroke-width="2" x1="390.5" y1="482.5" x2="306" y2="516"/>
		<line fill="none" stroke="#0000FF" stroke-width="2" x1="306" y1="516" x2="220" y2="482.5"/>
		<line fill="none" stroke="#0000FF" stroke-width="2" x1="220" y1="482.5" x2="183" y2="396"/>
		<line fill="none" stroke="#0000FF" stroke-width="2" x1="183" y1="396" x2="220" y2="309.5"/>
	</g>
	<line id="mod2_1_" fill="none" stroke="#0000FF" stroke-width="2" x1="203.966" y1="445.015" x2="406.199" y2="445.295"/>
	<line id="mod1_1_" fill="none" stroke="#0000FF" stroke-width="2" x1="203.966" y1="346.985" x2="406.199" y2="346.705"/>
</g>
<g id="main">
	<path id="_66403824" d="M316.3,435.3l-24.5-52l-14.8,36l-13.2-16.2l-33.3,31l2.2,2.5v0.4l31-28.3l13.8,17.6h0.8
		c0.1-2.6,5.7-13.899,6.9-17.5c0.8-2.6,2.7-6.1,3.7-8.399c0.8-1.9,2.3-7.7,3.8-8.101l23.5,50.7l0.2,0.4L359.8,375l0.4,0.3l20.1,38.9
		l3.4-1.2l-23.5-45.1c-0.3,1.2-19.3,30.3-21.7,33.9C335.9,405.8,318,434.8,316.3,435.3z"/>
	<polygon id="_63700480" points="221.5,456.8 390,456.8 390,453.3 223.1,453.3 223.9,453.3 223.9,335.7 221.5,335.7 	"/>
	<text transform="matrix(1 0 0 1 297 391.5)" stroke="#000000" stroke-miterlimit="10" font-family="sans-serif" font-size="72">S</text>
	<line fill="none" stroke="#000000" stroke-width="5" stroke-miterlimit="10" x1="321.8" y1="333.8" x2="321.8" y2="399.3"/>
</g>
</svg>
