<?xml version="1.0" encoding="utf-8"?>
<!-- Generator: Adobe Illustrator 16.0.0, SVG Export Plug-In . SVG Version: 6.00 Build 0)  -->
<!DOCTYPE svg PUBLIC "-//W3C//DTD SVG 1.1//EN" "http://www.w3.org/Graphics/SVG/1.1/DTD/svg11.dtd">
<svg version="1.1" id="Version_1.0" xmlns="http://www.w3.org/2000/svg" xmlns:xlink="http://www.w3.org/1999/xlink" x="0px" y="0px"
	 width="612px" height="792px" viewBox="0 0 612 792" enable-background="new 0 0 612 792" xml:space="preserve">
<g id="octagon" display="none">
	<g id="outFrame" display="inline">
		<line fill="none" stroke="#0000FF" stroke-width="2" x1="220" y1="309.5" x2="306" y2="273"/>
		<line fill="none" stroke="#0000FF" stroke-width="2" x1="306" y1="273" x2="390.5" y2="309.5"/>
		<line fill="none" stroke="#0000FF" stroke-width="2" x1="390.5" y1="309.5" x2="427" y2="396"/>
		<line fill="none" stroke="#0000FF" stroke-width="2" x1="427" y1="396" x2="390.5" y2="482.5"/>
		<line fill="none" stroke="#0000FF" stroke-width="2" x1="390.5" y1="482.5" x2="306" y2="516"/>
		<line fill="none" stroke="#0000FF" stroke-width="2" x1="306" y1="516" x2="220" y2="482.5"/>
		<line fill="none" stroke="#0000FF" stroke-width="2" x1="220" y1="482.5" x2="183" y2="396"/>
		<line fill="none" stroke="#0000FF" stroke-width="2" x1="183" y1="396" x2="220" y2="309.5"/>
	</g>
	
		<line id="mod2_1_" display="inline" fill="none" stroke="#0000FF" stroke-width="2" x1="203.966" y1="445.015" x2="406.199" y2="445.295"/>
	
		<line id="mod1_1_" display="inline" fill="none" stroke="#0000FF" stroke-width="2" x1="203.966" y1="346.985" x2="406.199" y2="346.705"/>
</g>
<g id="main">
	<g transform="scale(100) translate(0.72 0.73)">
		<path id="_65376456" fill="#FFFFFF" d="M2.333,3.915L1.822,3.417l0.511-0.499l0.513,0.501L2.333,3.915z M2.462,2.896H1.493v1.036
			h1.684V2.896H2.989V2.521H2.864v0.375H2.587V2.521H2.462V2.896z"/>
		<path id="_65846384" fill="#FFFFFF" d="M1.967,3.303V3.41h0.089V3.213C2.044,3.221,1.967,3.292,1.967,3.303z"/>
		<polygon id="_65247944" fill="#FFFFFF" points="2.166,3.105 2.163,3.41 2.27,3.41 2.269,3.002 		"/>
		<path id="_64268320" fill="#FFFFFF" d="M2.395,3.41h0.107v-0.3c0-0.011-0.094-0.098-0.107-0.107V3.41z"/>
		<path id="_64249792" fill="#FFFFFF" d="M2.61,3.41h0.089V3.311c0-0.017-0.001-0.002,0.004-0.013L2.61,3.213V3.41z"/>
		<polygon id="_94571432" fill="#FFFFFF" points="2.332,3.889 2.815,3.423 1.85,3.423 		"/>
		<path id="_94539784" d="M1.85,3.423h0.965L2.332,3.889L1.85,3.423z M2.395,3.003C2.408,3.012,2.503,3.099,2.503,3.11v0.3H2.395
			V3.003z M2.269,3.002L2.27,3.41H2.163l0.003-0.305L2.269,3.002L2.269,3.002z M1.967,3.303c0-0.011,0.078-0.081,0.089-0.089V3.41
			H1.967V3.303z M2.61,3.213l0.093,0.086C2.698,3.31,2.699,3.294,2.699,3.311V3.41H2.61V3.213z M2.846,3.418l-0.513-0.5L1.822,3.417
			l0.511,0.498L2.846,3.418z"/>
		<path id="_65451144" d="M2.462,2.521h0.125v0.375h0.277V2.521h0.125v0.375h0.188v1.036H1.493V2.896h0.969V2.521z M1.462,3.968
			h1.746V2.865H3.03v-0.38H2.829v0.38H2.628v-0.38H2.427v0.38H1.462V3.968L1.462,3.968z"/>
	</g>
</g>
</svg>
