<?xml version="1.0" encoding="utf-8"?>
<!-- Generator: Adobe Illustrator 16.0.0, SVG Export Plug-In . SVG Version: 6.00 Build 0)  -->
<!DOCTYPE svg PUBLIC "-//W3C//DTD SVG 1.1//EN" "http://www.w3.org/Graphics/SVG/1.1/DTD/svg11.dtd">
<svg version="1.1" id="Version_1.0" xmlns="http://www.w3.org/2000/svg" xmlns:xlink="http://www.w3.org/1999/xlink" x="0px" y="0px"
	 width="612px" height="792px" viewBox="0 0 612 792" enable-background="new 0 0 612 792" xml:space="preserve">
<g id="octagon" display="none">
	<g id="outFrame" display="inline">
		<line fill="none" stroke="#0000FF" stroke-width="2" x1="220" y1="309.5" x2="306" y2="273"/>
		<line fill="none" stroke="#0000FF" stroke-width="2" x1="306" y1="273" x2="390.5" y2="309.5"/>
		<line fill="none" stroke="#0000FF" stroke-width="2" x1="390.5" y1="309.5" x2="427" y2="396"/>
		<line fill="none" stroke="#0000FF" stroke-width="2" x1="427" y1="396" x2="390.5" y2="482.5"/>
		<line fill="none" stroke="#0000FF" stroke-width="2" x1="390.5" y1="482.5" x2="306" y2="516"/>
		<line fill="none" stroke="#0000FF" stroke-width="2" x1="306" y1="516" x2="220" y2="482.5"/>
		<line fill="none" stroke="#0000FF" stroke-width="2" x1="220" y1="482.5" x2="183" y2="396"/>
		<line fill="none" stroke="#0000FF" stroke-width="2" x1="183" y1="396" x2="220" y2="309.5"/>
	</g>
	
		<line id="mod2_1_" display="inline" fill="none" stroke="#0000FF" stroke-width="2" x1="203.966" y1="445.015" x2="406.199" y2="445.295"/>
	
		<line id="mod1_1_" display="inline" fill="none" stroke="#0000FF" stroke-width="2" x1="203.966" y1="346.985" x2="406.199" y2="346.705"/>
</g>
<g id="main">
	<g transform="scale(120) translate(0.35 0.491667)">
		<path id="_102612720" fill="#FFFFFF" d="M1.833,2.335c0-0.022,0.001-0.074-0.01-0.083C1.823,2.274,1.822,2.326,1.833,2.335z"/>
		<path id="_41173376" d="M1.823,2.252c0.011,0.009,0.01,0.06,0.01,0.083l0.052,0.614l0.53,0.001l0.208,0.479
			c0.031-0.003,0.114-0.032,0.148-0.043c0.025-0.008,0.136-0.029,0.136-0.055V3.326c0-0.015-0.039-0.1-0.042-0.131L2.707,3.25
			L2.52,2.799H2.023L2.014,2.675h0.361V2.562H2.006L1.983,2.293c0.054-0.005,0.108-0.081,0.108-0.139V2.108h-0.01V2.092
			c0-0.016-0.043-0.064-0.056-0.073c-0.02-0.015-0.068-0.033-0.101-0.027C1.879,2,1.858,2.008,1.832,2.034
			C1.818,2.048,1.787,2.1,1.787,2.123v0.026C1.787,2.198,1.803,2.223,1.823,2.252L1.823,2.252z"/>
		<path id="_98494696" d="M1.637,3.042c0-0.08,0.02-0.12,0.048-0.174c0.03-0.058,0.069-0.079,0.096-0.12l-0.022-0.17
			C1.704,2.592,1.598,2.713,1.568,2.766c-0.049,0.085-0.08,0.164-0.08,0.296V3.13c0,0.045,0.045,0.168,0.064,0.199
			c0.041,0.067,0.062,0.094,0.115,0.148C1.742,3.553,1.889,3.625,2.04,3.625h0.02c0.103,0,0.206-0.034,0.272-0.074
			C2.367,3.53,2.51,3.422,2.51,3.388c0-0.024-0.064-0.138-0.072-0.175C2.414,3.245,2.404,3.276,2.376,3.312
			c-0.024,0.032-0.048,0.057-0.08,0.08C2.242,3.433,2.155,3.475,2.06,3.475H2.034c-0.213,0-0.397-0.187-0.397-0.403V3.042
			L1.637,3.042z"/>
	</g>
</g>
</svg>
