<?xml version="1.0" encoding="utf-8"?>
<!-- Generator: Adobe Illustrator 16.0.0, SVG Export Plug-In . SVG Version: 6.00 Build 0)  -->
<!DOCTYPE svg PUBLIC "-//W3C//DTD SVG 1.1//EN" "http://www.w3.org/Graphics/SVG/1.1/DTD/svg11.dtd">
<svg version="1.1" id="Version_1.0" xmlns="http://www.w3.org/2000/svg" xmlns:xlink="http://www.w3.org/1999/xlink" x="0px" y="0px"
	 width="612px" height="792px" viewBox="0 0 612 792" enable-background="new 0 0 612 792" xml:space="preserve">
<g id="octagon" display="none">
	<g id="outFrame" display="inline">
		<line fill="none" stroke="#0000FF" stroke-width="2" x1="220" y1="309.5" x2="306" y2="273"/>
		<line fill="none" stroke="#0000FF" stroke-width="2" x1="306" y1="273" x2="390.5" y2="309.5"/>
		<line fill="none" stroke="#0000FF" stroke-width="2" x1="390.5" y1="309.5" x2="427" y2="396"/>
		<line fill="none" stroke="#0000FF" stroke-width="2" x1="427" y1="396" x2="390.5" y2="482.5"/>
		<line fill="none" stroke="#0000FF" stroke-width="2" x1="390.5" y1="482.5" x2="306" y2="516"/>
		<line fill="none" stroke="#0000FF" stroke-width="2" x1="306" y1="516" x2="220" y2="482.5"/>
		<line fill="none" stroke="#0000FF" stroke-width="2" x1="220" y1="482.5" x2="183" y2="396"/>
		<line fill="none" stroke="#0000FF" stroke-width="2" x1="183" y1="396" x2="220" y2="309.5"/>
	</g>
	
		<line id="mod2_1_" display="inline" fill="none" stroke="#0000FF" stroke-width="2" x1="203.966" y1="445.015" x2="406.199" y2="445.295"/>
	
		<line id="mod1_1_" display="inline" fill="none" stroke="#0000FF" stroke-width="2" x1="203.966" y1="346.985" x2="406.199" y2="346.705"/>
</g>
<g id="main">
	<g transform="scale(80) translate(1.275 1.7)">
		<path id="_94682064" fill="#FFFFFF" d="M2.007,2.758v0.043c0,0.041,0.075,0.165,0.105,0.173c0-0.04,0.012-0.047,0.012-0.087v-0.13
			c0-0.019-0.026-0.068-0.043-0.068H2.062C2.038,2.69,2.007,2.729,2.007,2.758z"/>
		<path id="_65712424" fill="#FFFFFF" d="M2.998,2.845v0.111C3.04,2.941,3.134,2.79,3.134,2.728c0-0.021-0.011-0.043-0.031-0.043
			H3.084C2.996,2.684,2.998,2.759,2.998,2.845z"/>
		<path id="_95425992" d="M2.162,2.981C2.178,3.04,2.439,3.08,2.534,3.08h0.031c0.097,0,0.391-0.043,0.396-0.111
			c-0.127-0.03-0.204-0.056-0.372-0.056H2.546c-0.075,0-0.137,0.011-0.204,0.019C2.252,2.943,2.224,2.965,2.162,2.981z"/>
		<path id="_94470944" fill="#FFFFFF" d="M1.802,3.012v0.025c0,0.025,0.045,0.062,0.074,0.062h0.012
			c0.061,0,0.182-0.059,0.204-0.093c-0.061-0.014-0.08-0.019-0.155-0.025C1.817,2.973,1.87,2.994,1.802,3.012z"/>
		<path id="_64876472" fill="#FFFFFF" d="M3.028,2.985c0.023,0.037,0.161,0.121,0.217,0.121h0.019c0.019,0,0.037-0.006,0.037-0.025
			V3.062c0-0.069-0.08-0.103-0.149-0.096L3.028,2.985L3.028,2.985z"/>
		<path id="_64182128" fill="#FFFFFF" d="M2.731,3.607L2.767,3.57l0.008,0.037l0.021,0.058l0.047-0.064
			C2.839,3.593,2.83,3.58,2.83,3.57c0-0.015,0.019-0.024,0.019-0.068h0.005l0.012,0.071l0.106-0.179L2.967,3.39
			c0.041,0.011-0.012,0.074-0.024,0.094c-0.019,0.032-0.04,0.067-0.056,0.1L2.93,3.57C2.904,3.608,2.902,3.623,2.856,3.62
			L2.812,3.681l0.087-0.005c-0.01,0.006-0.064,0.036-0.075,0.036c-0.017,0-0.017-0.003-0.031-0.006L2.75,3.793l0.1-0.005L2.756,3.83
			L2.73,3.817L2.694,3.915l0.112-0.011C2.798,3.909,2.714,3.948,2.707,3.948c-0.016,0-0.006-0.004-0.031-0.006
			C2.668,4.034,2.577,4.199,2.577,4.325L2.575,4.356l0.008,0.068H2.539c0-0.124-0.037-0.425-0.074-0.495H2.434l-0.068-0.05
			l0.093,0.019c0-0.022-0.024-0.106-0.036-0.108c-0.04-0.007-0.072-0.016-0.094-0.048l0.09,0.013L2.385,3.669
			c-0.048,0.004-0.078-0.02-0.111-0.05l0.1,0.019L2.341,3.57C2.334,3.572,2.324,3.576,2.323,3.576c-0.021,0-0.061-0.032-0.074-0.045
			l0.08,0.014L2.31,3.514H2.28L2.249,3.456L2.29,3.477L2.212,3.3l0.012-0.006L2.31,3.477l0.01-0.001l0.021-0.074
			c0,0.04,0.012,0.039,0.012,0.074v0.006c0,0.022-0.019,0.019-0.019,0.031c0,0.013,0.016,0.031,0.022,0.036l0.021-0.055h0.012v0.05
			c0,0.015-0.01,0.018-0.019,0.031c0.006,0.028,0.016,0.067,0.04,0.072l0.041-0.066c0,0.048,0.001,0.082-0.031,0.099l0.021,0.052
			l0.035-0.039l0.001,0.063L2.459,3.78l0.026,0.088L2.521,3.83l0.001,0.063L2.503,3.916L2.54,4.028c0-0.087,0.014-0.124,0.027-0.195
			c0.008-0.04,0.04-0.174,0.039-0.186L2.578,3.632L2.573,3.555L2.62,3.613l0.017-0.085l-0.02-0.015L2.603,3.426l0.053,0.069
			l0.025-0.074C2.649,3.404,2.657,3.395,2.66,3.345l0.031,0.044l0.028-0.067C2.705,3.318,2.7,3.321,2.7,3.303
			c0-0.025,0.012-0.027,0.012-0.074L2.716,3.23l0.015,0.067l0.01-0.001l0.065-0.185L2.83,3.114L2.757,3.306l0.042-0.021
			C2.792,3.312,2.779,3.34,2.744,3.341L2.719,3.402L2.793,3.39C2.771,3.409,2.745,3.434,2.705,3.433L2.682,3.509l0.093-0.025
			C2.768,3.494,2.7,3.546,2.688,3.546c-0.014,0-0.007-0.002-0.025-0.006L2.638,3.624L2.731,3.607z M2.162,2.981
			c0.063-0.017,0.091-0.039,0.18-0.049C2.409,2.924,2.47,2.913,2.546,2.913h0.043c0.168,0,0.244,0.026,0.372,0.056
			c-0.006,0.069-0.3,0.112-0.397,0.112H2.533C2.438,3.081,2.177,3.041,2.162,2.981z M1.982,4.028v0.074
			c0,0.172-0.002,0.372,0.167,0.372h0.824c0.087,0,0.12-0.054,0.154-0.105L3.14,4.257v-0.26c0-0.281-0.024-0.497-0.063-0.736
			c-0.05-0.316-0.081-0.354-0.445-0.354H2.496c-0.417,0-0.361,0.054-0.448,0.369c-0.014,0.049-0.011,0.126-0.025,0.18
			C2.007,3.517,2.016,3.579,2.004,3.642C1.986,3.745,1.982,3.911,1.982,4.028z"/>
		<path id="_65522656" fill="#FFFFFF" d="M2.731,3.607c-0.01,0.008-0.07,0.056-0.081,0.056c-0.014,0-0.007-0.002-0.025-0.006
			c0,0.046-0.034,0.134-0.042,0.186C2.575,3.894,2.552,3.994,2.552,4.04L2.549,4.096l0.016,0.13l0.098-0.303L2.638,3.917
			L2.626,3.805L2.674,3.9l0.038-0.093l-0.017-0.02l0.003-0.064L2.73,3.776l0.052-0.095H2.769l0.007-0.074L2.767,3.57L2.731,3.607z"
			/>
		<path id="_95748448" d="M1.982,4.028c0-0.117,0.004-0.283,0.022-0.386c0.011-0.063,0.003-0.125,0.019-0.186
			c0.014-0.053,0.011-0.131,0.025-0.18c0.088-0.315,0.031-0.369,0.448-0.369h0.136c0.364,0,0.395,0.038,0.445,0.354
			C3.116,3.5,3.14,3.716,3.14,3.997v0.26L3.127,4.369C3.093,4.42,3.06,4.474,2.973,4.474H2.149c-0.169,0-0.167-0.2-0.167-0.372
			V4.028z M1.802,3.012c0.067-0.018,0.014-0.04,0.136-0.031c0.075,0.005,0.094,0.01,0.155,0.025C2.071,3.04,1.95,3.099,1.889,3.099
			H1.877c-0.029,0-0.074-0.037-0.074-0.062V3.012H1.802z M3.152,2.966c0.069-0.007,0.149,0.027,0.149,0.096v0.019
			c0,0.019-0.018,0.025-0.037,0.025H3.245c-0.056,0-0.194-0.084-0.217-0.121L3.152,2.966z M2.007,2.758
			c0-0.03,0.031-0.068,0.056-0.068h0.019c0.018,0,0.043,0.049,0.043,0.068v0.13c0,0.04-0.012,0.047-0.012,0.087
			c-0.03-0.008-0.105-0.133-0.105-0.173V2.758H2.007z M2.998,2.845c0-0.086-0.001-0.161,0.087-0.161h0.019
			c0.02,0,0.031,0.022,0.031,0.043c0,0.063-0.094,0.214-0.136,0.229V2.845H2.998z M3.041,2.963C3.056,2.906,3.159,2.807,3.159,2.74
			V2.697C3.139,2.689,3.138,2.66,3.109,2.66H3.091c-0.08,0-0.118,0.063-0.118,0.142v0.13C2.91,2.915,2.901,2.901,2.812,2.895
			C2.75,2.89,2.697,2.882,2.626,2.882H2.515c-0.15,0-0.278,0.009-0.378,0.062c0.005-0.022,0.012-0.029,0.012-0.056V2.783
			c0-0.045-0.031-0.118-0.068-0.118H2.056c-0.025,0-0.081,0.058-0.081,0.093c0,0.061,0.066,0.171,0.093,0.211L1.889,2.954
			c-0.038,0-0.105,0.035-0.105,0.065v0.019c0,0.042,0.053,0.087,0.093,0.087h0.006c0.091,0,0.142-0.061,0.198-0.074
			C2.023,3.161,1.963,3.739,1.963,3.93v0.186c0,0.185,0.009,0.384,0.192,0.384h0.817c0.128,0,0.192-0.119,0.192-0.248V3.923
			c0-0.071-0.005-0.171-0.013-0.241c-0.007-0.056-0.024-0.179-0.024-0.23c0-0.081-0.023-0.148-0.031-0.222
			C3.089,3.165,3.055,3.095,3.041,3.037C3.077,3.056,3.194,3.13,3.233,3.13H3.27c0.031,0,0.056-0.025,0.056-0.056V3.068
			C3.326,3,3.28,2.95,3.208,2.95h-0.08L3.041,2.963z"/>
		<path id="_65522824" d="M2.775,3.607L2.768,3.681h0.013L2.729,3.776L2.697,3.723L2.694,3.787l0.017,0.02L2.674,3.9L2.626,3.805
			l0.012,0.112l0.025,0.007L2.565,4.227l-0.016-0.13L2.552,4.04c0-0.047,0.024-0.147,0.032-0.198
			c0.008-0.052,0.042-0.14,0.043-0.186C2.645,3.66,2.638,3.662,2.652,3.662c0.011,0,0.071-0.047,0.081-0.056L2.638,3.624
			l0.025-0.085c0.018,0.004,0.011,0.006,0.025,0.006c0.011,0,0.08-0.052,0.087-0.062L2.682,3.509l0.023-0.076
			c0.04,0.001,0.066-0.024,0.088-0.043L2.719,3.402l0.025-0.061C2.779,3.34,2.792,3.312,2.799,3.285L2.757,3.306L2.83,3.114
			L2.806,3.111L2.741,3.296l-0.01,0.001L2.716,3.23L2.713,3.229c0,0.048-0.012,0.049-0.012,0.074c0,0.017,0.005,0.015,0.019,0.019
			L2.691,3.389L2.66,3.345c-0.003,0.05-0.011,0.059,0.022,0.076L2.657,3.495L2.603,3.426l0.014,0.088l0.02,0.015L2.62,3.613
			L2.573,3.555l0.005,0.076l0.028,0.015c0.001,0.012-0.032,0.145-0.039,0.186C2.553,3.904,2.539,3.941,2.539,4.028L2.503,3.916
			l0.019-0.024L2.521,3.83L2.485,3.868L2.459,3.78l0.019-0.024L2.477,3.694L2.443,3.733L2.422,3.681
			C2.454,3.664,2.453,3.63,2.453,3.582L2.412,3.648c-0.023-0.005-0.033-0.044-0.04-0.072C2.381,3.563,2.391,3.56,2.391,3.545v-0.05
			H2.378L2.357,3.55C2.351,3.545,2.335,3.527,2.335,3.514c0-0.012,0.019-0.009,0.019-0.031V3.477c0-0.035-0.012-0.034-0.012-0.074
			L2.32,3.476L2.31,3.477L2.224,3.294L2.212,3.3L2.29,3.477L2.249,3.456L2.28,3.514l0.03,0.001l0.019,0.031l-0.08-0.014
			c0.013,0.012,0.053,0.045,0.074,0.045c0.002,0,0.011-0.004,0.019-0.006l0.032,0.068l-0.1-0.019c0.034,0.03,0.064,0.054,0.111,0.05
			L2.42,3.755L2.33,3.742C2.351,3.774,2.384,3.783,2.423,3.79c0.011,0.002,0.035,0.086,0.036,0.108L2.366,3.879l0.068,0.05h0.031
			C2.502,4,2.539,4.301,2.539,4.424h0.043L2.575,4.356l0.001-0.031c0-0.126,0.091-0.291,0.099-0.384
			C2.7,3.943,2.691,3.948,2.707,3.948c0.007,0,0.091-0.038,0.099-0.043l-0.112,0.01L2.73,3.817L2.756,3.83L2.85,3.788l-0.1,0.005
			l0.043-0.087c0.014,0.003,0.014,0.006,0.031,0.006c0.01,0,0.065-0.031,0.074-0.037L2.812,3.681L2.856,3.62
			C2.902,3.623,2.904,3.608,2.93,3.57L2.887,3.584c0.016-0.033,0.037-0.068,0.056-0.1c0.012-0.02,0.064-0.083,0.024-0.094
			l0.006,0.003l-0.107,0.18L2.854,3.502H2.849c0,0.044-0.019,0.053-0.019,0.068c0,0.01,0.008,0.023,0.012,0.031L2.796,3.665
			L2.775,3.607z"/>
	</g>
	<text transform="matrix(1 0 0 1 235.2461 341)" font-family="sans-serif" font-size="52">STOR</text>
</g>
</svg>
