<?xml version="1.0" encoding="utf-8"?>
<!-- Generator: Adobe Illustrator 16.0.0, SVG Export Plug-In . SVG Version: 6.00 Build 0)  -->
<!DOCTYPE svg PUBLIC "-//W3C//DTD SVG 1.1//EN" "http://www.w3.org/Graphics/SVG/1.1/DTD/svg11.dtd">
<svg version="1.1" id="Version_1.0" xmlns="http://www.w3.org/2000/svg" xmlns:xlink="http://www.w3.org/1999/xlink" x="0px"
	 y="0px" width="612px" height="792px" viewBox="0 0 612 792" enable-background="new 0 0 612 792" xml:space="preserve">
<g id="octagon">
	
		<line id="mod2_1_" display="none" fill="none" stroke="#0000FF" stroke-width="2" x1="203.966" y1="445.015" x2="406.199" y2="445.295"/>
	
		<line id="mod1_1_" display="none" fill="none" stroke="#0000FF" stroke-width="2" x1="203.966" y1="346.985" x2="406.199" y2="346.705"/>
	<g id="outFrame" display="none">
		<line display="inline" fill="none" stroke="#0000FF" stroke-width="2" x1="220" y1="309.5" x2="306" y2="273"/>
		<line display="inline" fill="none" stroke="#0000FF" stroke-width="2" x1="306" y1="273" x2="390.5" y2="309.5"/>
		<line display="inline" fill="none" stroke="#0000FF" stroke-width="2" x1="390.5" y1="309.5" x2="427" y2="396"/>
		<line display="inline" fill="none" stroke="#0000FF" stroke-width="2" x1="427" y1="396" x2="390.5" y2="482.5"/>
		<line display="inline" fill="none" stroke="#0000FF" stroke-width="2" x1="390.5" y1="482.5" x2="306" y2="516"/>
		<line display="inline" fill="none" stroke="#0000FF" stroke-width="2" x1="306" y1="516" x2="220" y2="482.5"/>
		<line display="inline" fill="none" stroke="#0000FF" stroke-width="2" x1="220" y1="482.5" x2="183" y2="396"/>
		<line display="inline" fill="none" stroke="#0000FF" stroke-width="2" x1="183" y1="396" x2="220" y2="309.5"/>
	</g>
</g>
<g id="main">
	<g transform="scale(110) translate(0.572727 0.818182)">
		<path id="_42189704" d="M2.42,3.153l0.093,0.305L2.509,3.461l-0.277-0.19L2.42,3.153z M1.973,3.154l0.181,0.117L1.879,3.463
			L1.973,3.154z M2.195,2.932l0.201,0.187c-0.039,0.011-0.183,0.128-0.2,0.128c-0.004,0-0.187-0.122-0.195-0.132L2.195,2.932z
			 M2.315,2.822l0.071,0.223L2.23,2.9L2.315,2.822z M2.076,2.825l0.086,0.074L2.005,3.045L2.076,2.825z M2.123,2.803l0.145-0.001
			L2.195,2.875L2.123,2.803z M2.182,2.429C2.181,2.443,2.178,2.445,2.178,2.46v0.045H2.11c-0.011,0-0.018,0.007-0.018,0.018
			c0,0.012,0.002,0.012,0.005,0.022c0.01,0.002,0.01,0.005,0.022,0.005h0.058v0.063H2.074c-0.014,0-0.027,0.004-0.027,0.018
			c0,0.011,0.007,0.018,0.018,0.018h0.112v0.112H2.074c-0.012,0-0.012,0.002-0.02,0.005l-0.057,0.18L1.974,3.019L1.88,3.321
			L1.854,3.392C1.849,3.438,1.823,3.471,1.823,3.518c0,0.01,0.002,0.005,0.005,0.018H1.84c0.013,0,0.343-0.234,0.351-0.234
			c0.014,0,0.322,0.213,0.36,0.238c0.01-0.005,0.022-0.008,0.022-0.022V3.504c0-0.001-0.034-0.101-0.039-0.114
			C2.526,3.365,2.502,3.293,2.499,3.271L2.476,3.199L2.382,2.898L2.362,2.82C2.356,2.801,2.36,2.762,2.33,2.762H2.218V2.649h0.108
			c0.011,0,0.018-0.007,0.018-0.018S2.337,2.613,2.326,2.613H2.218V2.55h0.054c0.015,0,0.031-0.008,0.031-0.022V2.523
			c0-0.011-0.007-0.018-0.018-0.018H2.218V2.447c0-0.009-0.013-0.022-0.018-0.022C2.199,2.424,2.184,2.428,2.182,2.429z"/>
	</g>
</g>
<path fill="none" stroke="#000000" stroke-width="5" stroke-miterlimit="10" d="M321.766,314.18
	c34.649,7.59,60.609,38.39,60.609,75.35c0,18.92-6.819,36.3-18.26,49.72"/>
<path fill="none" stroke="#000000" stroke-width="5" stroke-miterlimit="10" d="M316.11,340.799
	c21.229,4.95,36.96,23.98,36.96,46.75c0,7.261-1.65,14.08-4.512,20.24"/>
<path fill="none" stroke="#000000" stroke-width="5" stroke-miterlimit="10" d="M262.65,411.201c-0.22-0.439-0.44-0.881-0.66-1.32
	c-3.08-6.381-4.84-13.531-4.84-21.121c0-22.33,15.29-41.14,35.97-46.529"/>
<path fill="none" stroke="#000000" stroke-width="5" stroke-miterlimit="10" d="M245.049,439.691
	c-11.66-13.531-18.7-31.132-18.7-50.38c0-37.291,26.4-68.311,61.601-75.57"/>
</svg>
