<?xml version="1.0" encoding="utf-8"?>
<!-- Generator: Adobe Illustrator 16.0.0, SVG Export Plug-In . SVG Version: 6.00 Build 0)  -->
<!DOCTYPE svg PUBLIC "-//W3C//DTD SVG 1.1//EN" "http://www.w3.org/Graphics/SVG/1.1/DTD/svg11.dtd">
<svg version="1.1" id="Version_1.0" xmlns="http://www.w3.org/2000/svg" xmlns:xlink="http://www.w3.org/1999/xlink" x="0px" y="0px"
	 width="612px" height="792px" viewBox="0 0 612 792" enable-background="new 0 0 612 792" xml:space="preserve">
<g id="octagon" display="none">
	
		<line id="mod2_1_" display="inline" fill="none" stroke="#0000FF" stroke-width="2" x1="203.966" y1="445.015" x2="406.199" y2="445.295"/>
	
		<line id="mod1_1_" display="inline" fill="none" stroke="#0000FF" stroke-width="2" x1="203.966" y1="346.985" x2="406.199" y2="346.705"/>
	<g id="outFrame" display="inline">
		<line fill="none" stroke="#0000FF" stroke-width="2" x1="220" y1="309.5" x2="306" y2="273"/>
		<line fill="none" stroke="#0000FF" stroke-width="2" x1="306" y1="273" x2="390.5" y2="309.5"/>
		<line fill="none" stroke="#0000FF" stroke-width="2" x1="390.5" y1="309.5" x2="427" y2="396"/>
		<line fill="none" stroke="#0000FF" stroke-width="2" x1="427" y1="396" x2="390.5" y2="482.5"/>
		<line fill="none" stroke="#0000FF" stroke-width="2" x1="390.5" y1="482.5" x2="306" y2="516"/>
		<line fill="none" stroke="#0000FF" stroke-width="2" x1="306" y1="516" x2="220" y2="482.5"/>
		<line fill="none" stroke="#0000FF" stroke-width="2" x1="220" y1="482.5" x2="183" y2="396"/>
		<line fill="none" stroke="#0000FF" stroke-width="2" x1="183" y1="396" x2="220" y2="309.5"/>
	</g>
</g>
<g id="main">
	<g transform="scale(100) translate(0.74 0.74)">
		<path id="_65378144" d="M2.283,2.543v0.005c0,0.025,0.013,0.038,0.038,0.038c0.013,0,0.027-0.015,0.027-0.027
			c0-0.019-0.004-0.021-0.005-0.038C2.331,2.519,2.331,2.516,2.316,2.516H2.311C2.298,2.516,2.283,2.531,2.283,2.543z"/>
		<path id="_66411088" fill="#FFFFFF" d="M2.343,2.521c0.002,0.018,0.006,0.02,0.006,0.039c0,0.013-0.015,0.027-0.027,0.027
			c-0.025,0-0.038-0.013-0.038-0.038V2.543c0-0.013,0.015-0.027,0.027-0.027h0.005C2.331,2.516,2.331,2.519,2.343,2.521z
			 M2.245,2.543V2.56c0,0.031,0.04,0.06,0.065,0.06c0.036,0,0.076-0.024,0.076-0.06V2.532c0-0.026-0.039-0.049-0.071-0.049
			C2.28,2.483,2.245,2.509,2.245,2.543z"/>
		<path id="_95332856" fill="#FFFFFF" d="M2.272,2.674c0,0.014-0.014,0.021-0.022,0.033l0.138-0.002L2.36,2.685V2.642
			C2.343,2.643,2.34,2.647,2.322,2.647H2.311c-0.019,0-0.021-0.004-0.038-0.005L2.272,2.674L2.272,2.674z"/>
		<path id="_63642984" fill="#FFFFFF" d="M1.983,2.429h0.055v0.153c0,0.02-0.058,0.034-0.076,0.038v0.104h0.126V2.341H1.983V2.429z"
			/>
		<path id="_64590056" fill="#FFFFFF" d="M2.551,2.723h0.104V2.631c0-0.019-0.043-0.031-0.06-0.033V2.429h0.044V2.341H2.551V2.723z"
			/>
		<path id="_94384416" fill="#FFFFFF" d="M1.71,3.002v0.104h1.212V3.002c0-0.03-0.181-0.142-0.213-0.164
			C2.647,2.796,2.522,2.745,2.42,2.745H2.207c-0.098,0-0.22,0.056-0.284,0.093C1.891,2.857,1.71,2.974,1.71,3.002L1.71,3.002z"/>
		<path id="_94576280" fill="#FFFFFF" d="M1.71,3.777c0,0.047,0.226,0.191,0.251,0.191h0.715c0.025,0,0.246-0.147,0.246-0.196V3.689
			H1.71V3.777L1.71,3.777z"/>
		<polygon id="_95536176" fill="#FFFFFF" points="1.967,4.088 2.676,4.088 2.676,4.006 1.967,4.006 		"/>
		<path id="_65729432" d="M1.967,4.006h0.71v0.082h-0.71V4.006z M1.71,3.689h1.212v0.082c0,0.049-0.22,0.196-0.246,0.196H1.961
			c-0.025,0-0.251-0.144-0.251-0.191V3.689L1.71,3.689z M1.71,3.002c0-0.027,0.181-0.145,0.213-0.164
			c0.064-0.037,0.186-0.093,0.284-0.093H2.42c0.102,0,0.228,0.051,0.289,0.093C2.741,2.86,2.922,2.972,2.922,3.002v0.104H1.71V3.002
			L1.71,3.002z M2.272,2.642C2.289,2.643,2.291,2.647,2.31,2.647h0.011c0.019,0,0.021-0.004,0.038-0.005v0.044l0.029,0.02
			L2.251,2.707c0.008-0.012,0.022-0.019,0.022-0.033L2.272,2.642L2.272,2.642z M2.245,2.543c0-0.035,0.035-0.06,0.071-0.06
			c0.032,0,0.071,0.023,0.071,0.049V2.56c0,0.036-0.04,0.06-0.076,0.06c-0.026,0-0.065-0.029-0.065-0.06V2.543H2.245z M2.551,2.341
			h0.087v0.087H2.594v0.169c0.018,0.001,0.06,0.014,0.06,0.033v0.093H2.551V2.341z M1.983,2.341h0.104v0.382H1.961V2.62
			C1.98,2.615,2.038,2.601,2.038,2.582V2.429H1.983V2.341z M2.125,2.341h0.387v0.382c-0.04-0.009-0.12-0.023-0.12-0.065V2.636
			c0-0.038,0.022-0.052,0.022-0.065V2.543c0-0.08-0.074-0.081-0.082-0.109h0.104V2.396h-0.24v0.038H2.3V2.45
			C2.252,2.452,2.223,2.498,2.223,2.549v0.016c0,0.024,0.022,0.049,0.022,0.06v0.033c0,0.036-0.084,0.057-0.12,0.065V2.341
			L2.125,2.341z M1.945,2.461H2V2.56c0,0.019-0.052,0.031-0.071,0.033v0.169h0.076C1.99,2.772,1.938,2.793,1.914,2.807
			C1.883,2.825,1.858,2.841,1.83,2.86C1.807,2.875,1.678,2.978,1.672,2.98v0.791c0,0.047,0.079,0.11,0.112,0.133
			C1.808,3.92,1.929,3.986,1.929,4.006v0.12h0.78v-0.12c0-0.039,0.251-0.116,0.251-0.251V2.991c0-0.023-0.126-0.111-0.151-0.128
			C2.78,2.843,2.757,2.828,2.726,2.81C2.703,2.795,2.647,2.774,2.633,2.762h0.06v-0.17C2.675,2.588,2.627,2.579,2.627,2.56V2.461
			h0.049V2.303H1.945V2.461z"/>
	</g>
</g>
</svg>
