<?xml version="1.0" encoding="utf-8"?>
<!-- Generator: Adobe Illustrator 16.0.0, SVG Export Plug-In . SVG Version: 6.00 Build 0)  -->
<!DOCTYPE svg PUBLIC "-//W3C//DTD SVG 1.1//EN" "http://www.w3.org/Graphics/SVG/1.1/DTD/svg11.dtd">
<svg version="1.1" id="Version_1.0" xmlns="http://www.w3.org/2000/svg" xmlns:xlink="http://www.w3.org/1999/xlink" x="0px" y="0px"
	 width="612px" height="792px" viewBox="0 0 612 792" enable-background="new 0 0 612 792" xml:space="preserve">
<g id="octagon" display="none">
	<g id="outFrame" display="inline">
		<line fill="none" stroke="#0000FF" stroke-width="2" x1="220" y1="309.5" x2="306" y2="273"/>
		<line fill="none" stroke="#0000FF" stroke-width="2" x1="306" y1="273" x2="390.5" y2="309.5"/>
		<line fill="none" stroke="#0000FF" stroke-width="2" x1="390.5" y1="309.5" x2="427" y2="396"/>
		<line fill="none" stroke="#0000FF" stroke-width="2" x1="427" y1="396" x2="390.5" y2="482.5"/>
		<line fill="none" stroke="#0000FF" stroke-width="2" x1="390.5" y1="482.5" x2="306" y2="516"/>
		<line fill="none" stroke="#0000FF" stroke-width="2" x1="306" y1="516" x2="220" y2="482.5"/>
		<line fill="none" stroke="#0000FF" stroke-width="2" x1="220" y1="482.5" x2="183" y2="396"/>
		<line fill="none" stroke="#0000FF" stroke-width="2" x1="183" y1="396" x2="220" y2="309.5"/>
	</g>
	
		<line id="mod2_1_" display="inline" fill="none" stroke="#0000FF" stroke-width="2" x1="203.966" y1="445.015" x2="406.199" y2="445.295"/>
	
		<line id="mod1_1_" display="inline" fill="none" stroke="#0000FF" stroke-width="2" x1="203.966" y1="346.985" x2="406.199" y2="346.705"/>
</g>
<g id="main">
	<g transform="scale(90) translate(0.966667 1.05556)">
		<path id="_97508600" fill="#FFFFFF" d="M3.082,3.439h0.225C3.294,3.421,3.191,3.288,3.178,3.288H3.082V3.439z"/>
		<path id="_98074256" d="M3.082,3.288h0.096c0.013,0,0.116,0.133,0.128,0.151H3.082V3.288z M2.967,2.793l-0.02-0.036L2.753,2.864
			l0.039,0.098L1.903,3.366c0.021,0.012,0.057,0.12,0.071,0.146c0.006,0.011,0.063,0.14,0.063,0.143
			c0,0.014-0.025,0.006-0.023,0.018L2.029,3.76h0.095c0-0.068,0.055-0.133,0.119-0.133H2.27c0.066,0,0.119,0.064,0.119,0.133h0.018
			c0-0.066,0.017-0.064,0.041-0.101L2.39,3.503l0.265-0.12l0.117,0.275L2.629,3.659C2.653,3.695,2.674,3.695,2.674,3.76h0.399V3.746
			c0-0.057,0.07-0.119,0.133-0.119H3.22c0.071,0,0.128,0.06,0.128,0.133h0.073V3.673H3.389V3.467c0-0.034-0.16-0.189-0.17-0.224
			H3.041V3.66H2.926L2.778,3.325L2.93,3.262L2.811,2.999L2.967,2.793z"/>
		<path id="_94759656" d="M3.11,3.778c0,0.069,0.044,0.076,0.082,0.101H2.56c0.032-0.02,0.078-0.033,0.078-0.092V3.755
			c0-0.037-0.052-0.078-0.101-0.078c-0.028,0-0.05,0.011-0.065,0.026c-0.01,0.01-0.031,0.044-0.031,0.057v0.037
			c0,0.006,0.024,0.048,0.029,0.054C2.487,3.87,2.502,3.868,2.519,3.88H2.28c0.016-0.012,0.035-0.015,0.049-0.03
			c0.01-0.011,0.016-0.039,0.029-0.044V3.76c0-0.011-0.024-0.051-0.033-0.058C2.307,3.686,2.289,3.677,2.257,3.677H2.253
			c-0.047,0-0.096,0.041-0.096,0.087v0.037c0,0.042,0.055,0.062,0.078,0.078H1.992c-0.002-0.09-0.07-0.051-0.087-0.082
			C1.874,3.743,1.93,3.736,1.826,3.71C1.739,3.689,1.77,3.702,1.718,3.649C1.7,3.63,1.635,3.6,1.602,3.6H1.598
			c-0.028,0-0.053,0.032-0.076,0.043c-0.031,0.015-0.063,0.01-0.09,0.03c-0.03,0.022-0.063,0.121-0.063,0.171v0.018h-0.01v0.06
			h2.002h0.137V3.879H3.233c0.022-0.014,0.026-0.005,0.05-0.029c0.01-0.01,0.024-0.041,0.033-0.045V3.76
			c0-0.013-0.026-0.052-0.036-0.06C3.261,3.687,3.242,3.677,3.21,3.677c-0.054,0-0.101,0.042-0.101,0.096v0.005H3.11z"/>
	</g>
</g>
</svg>
