<?xml version="1.0" encoding="utf-8"?>
<!-- Generator: Adobe Illustrator 16.0.0, SVG Export Plug-In . SVG Version: 6.00 Build 0)  -->
<!DOCTYPE svg PUBLIC "-//W3C//DTD SVG 1.1//EN" "http://www.w3.org/Graphics/SVG/1.1/DTD/svg11.dtd">
<svg version="1.1" id="Version_1.0" xmlns="http://www.w3.org/2000/svg" xmlns:xlink="http://www.w3.org/1999/xlink" x="0px" y="0px"
	 width="612px" height="792px" viewBox="0 0 612 792" enable-background="new 0 0 612 792" xml:space="preserve">
<g id="octagon" display="none">
	<g id="outFrame" display="inline">
		<line fill="none" stroke="#0000FF" stroke-width="2" x1="220" y1="309.5" x2="306" y2="273"/>
		<line fill="none" stroke="#0000FF" stroke-width="2" x1="306" y1="273" x2="390.5" y2="309.5"/>
		<line fill="none" stroke="#0000FF" stroke-width="2" x1="390.5" y1="309.5" x2="427" y2="396"/>
		<line fill="none" stroke="#0000FF" stroke-width="2" x1="427" y1="396" x2="390.5" y2="482.5"/>
		<line fill="none" stroke="#0000FF" stroke-width="2" x1="390.5" y1="482.5" x2="306" y2="516"/>
		<line fill="none" stroke="#0000FF" stroke-width="2" x1="306" y1="516" x2="220" y2="482.5"/>
		<line fill="none" stroke="#0000FF" stroke-width="2" x1="220" y1="482.5" x2="183" y2="396"/>
		<line fill="none" stroke="#0000FF" stroke-width="2" x1="183" y1="396" x2="220" y2="309.5"/>
	</g>
	
		<line id="mod2_1_" display="inline" fill="none" stroke="#0000FF" stroke-width="2" x1="203.966" y1="445.015" x2="406.199" y2="445.295"/>
	
		<line id="mod1_1_" display="inline" fill="none" stroke="#0000FF" stroke-width="2" x1="203.966" y1="346.985" x2="406.199" y2="346.705"/>
</g>
<g id="main">
	<g transform="scale(100) translate(0.74 0.77)">
		<path id="_65378808" fill="#FFFFFF" d="M2.078,3.171h0.186c0.031,0,0.091-0.041,0.091-0.073V3.035
			c0-0.024-0.056-0.068-0.086-0.068H2.078V3.171z"/>
		<path id="_95912048" d="M2.078,2.967h0.191c0.031,0,0.086,0.045,0.086,0.068v0.064c0,0.032-0.06,0.073-0.091,0.073H2.078V2.967z
			 M1.956,3.63h0.123V3.303l0.043,0.002l0.189,0.249L2.092,3.829l0.147,0.002l0.148-0.174c0.031,0.008,0.104,0.148,0.141,0.172
			h0.154C2.66,3.787,2.473,3.57,2.473,3.553c0-0.008,0.186-0.243,0.204-0.259L2.526,3.292L2.385,3.446L2.278,3.303
			C2.409,3.272,2.487,3.22,2.487,3.058V3.044c0-0.05-0.042-0.118-0.069-0.144C2.392,2.875,2.316,2.84,2.264,2.84H1.956V3.63z"/>
		<path id="_96956424" fill="#FFFFFF" d="M1.956,2.84h0.309c0.052,0,0.127,0.035,0.153,0.06c0.027,0.027,0.069,0.094,0.069,0.144
			v0.014c0,0.162-0.078,0.215-0.209,0.245l0.107,0.143l0.141-0.154l0.152,0.002C2.659,3.31,2.473,3.545,2.473,3.553
			c0,0.018,0.186,0.235,0.209,0.277H2.528c-0.037-0.025-0.11-0.164-0.141-0.172L2.239,3.831L2.092,3.829l0.219-0.276L2.122,3.305
			L2.078,3.303V3.63H1.956V2.84z M2.451,2.804H1.466v1.053h1.711V2.804H2.986V2.422H2.859v0.381H2.578V2.422H2.451V2.804z"/>
		<path id="_66485456" d="M2.451,2.422h0.127v0.381h0.281V2.422h0.127v0.381h0.191v1.053H1.466V2.804h0.985V2.422z M1.434,3.893
			h1.775V2.772H3.027V2.386H2.823v0.386H2.618V2.386H2.414v0.386h-0.98V3.893z"/>
	</g>
</g>
</svg>
