<?xml version="1.0" encoding="utf-8"?>
<!-- Generator: Adobe Illustrator 16.0.0, SVG Export Plug-In . SVG Version: 6.00 Build 0)  -->
<!DOCTYPE svg PUBLIC "-//W3C//DTD SVG 1.1//EN" "http://www.w3.org/Graphics/SVG/1.1/DTD/svg11.dtd">
<svg version="1.1" id="Version_1.0" xmlns="http://www.w3.org/2000/svg" xmlns:xlink="http://www.w3.org/1999/xlink" x="0px" y="0px"
	 width="612px" height="792px" viewBox="0 0 612 792" enable-background="new 0 0 612 792" xml:space="preserve">
<g id="octagon" display="none">
	<g id="outFrame" display="inline">
		<line fill="none" stroke="#0000FF" stroke-width="2" x1="220" y1="309.5" x2="306" y2="273"/>
		<line fill="none" stroke="#0000FF" stroke-width="2" x1="306" y1="273" x2="390.5" y2="309.5"/>
		<line fill="none" stroke="#0000FF" stroke-width="2" x1="390.5" y1="309.5" x2="427" y2="396"/>
		<line fill="none" stroke="#0000FF" stroke-width="2" x1="427" y1="396" x2="390.5" y2="482.5"/>
		<line fill="none" stroke="#0000FF" stroke-width="2" x1="390.5" y1="482.5" x2="306" y2="516"/>
		<line fill="none" stroke="#0000FF" stroke-width="2" x1="306" y1="516" x2="220" y2="482.5"/>
		<line fill="none" stroke="#0000FF" stroke-width="2" x1="220" y1="482.5" x2="183" y2="396"/>
		<line fill="none" stroke="#0000FF" stroke-width="2" x1="183" y1="396" x2="220" y2="309.5"/>
	</g>
	
		<line id="mod2_1_" display="inline" fill="none" stroke="#0000FF" stroke-width="2" x1="203.966" y1="445.015" x2="406.199" y2="445.295"/>
	
		<line id="mod1_1_" display="inline" fill="none" stroke="#0000FF" stroke-width="2" x1="203.966" y1="346.985" x2="406.199" y2="346.705"/>
</g>
<g id="main">
	<g transform="scale(100) translate(0.7 0.62)">
		<path id="_99217032" d="M2.431,3.044v0.009c0,0.037,0.035,0.079,0.07,0.079H2.51c0.039,0,0.075-0.031,0.075-0.07V3.03
			c0-0.024-0.039-0.051-0.07-0.051H2.511C2.473,2.978,2.431,3.014,2.431,3.044z"/>
		<path id="_99122624" fill="#FFFFFF" d="M2.59,3.319c0,0.035-0.014,0.039-0.014,0.061v0.015l0.112-0.043V3.263
			C2.676,3.26,2.624,3.237,2.615,3.241C2.606,3.246,2.603,3.3,2.59,3.319z"/>
		<path id="_230953504" fill="#FFFFFF" d="M2.506,3.413c0.01-0.014,0.009-0.019,0.009-0.042L2.506,3.413z"/>
		<path id="_43470376" d="M1.768,3.342c0,0.044,0.028,0.084,0.075,0.084h0.014c0.034,0,0.061-0.038,0.061-0.075
			C1.918,3.243,1.768,3.246,1.768,3.342z"/>
		<path id="_100750160" fill="#FFFFFF" d="M1.768,3.342c0-0.097,0.149-0.1,0.149,0.009c0,0.036-0.027,0.075-0.061,0.075H1.843
			C1.797,3.427,1.768,3.387,1.768,3.342z M2.506,3.413L2.515,3.37l0.028-0.177h0.009V3.179c0-0.021,0.064-0.093,0.08-0.104
			l0.285,0.039c-0.013,0.02-0.023,0.06-0.036,0.085C2.873,3.213,2.87,3.226,2.864,3.243C2.857,3.26,2.847,3.263,2.839,3.279
			l0.155-0.071L3.019,3.28l-0.228,0.1v0.014c0,0.052,0.005,0.093,0.005,0.14c0,0.044,0.021,0.107-0.033,0.107
			c-0.052,0-0.033-0.054-0.038-0.098C2.721,3.509,2.716,3.456,2.716,3.416L2.385,3.562v0.247h0.07v0.168h-0.21V3.809H2.32V3.6
			L1.969,3.758c0.027,0.023,0.21,0.122,0.21,0.145v0.009c0,0.018-0.026,0.037-0.047,0.037H2.119c-0.03,0-0.223-0.12-0.262-0.14
			l-0.154,0.07L1.671,3.815l0.102-0.043C1.766,3.746,1.722,3.734,1.722,3.711V3.595c0-0.011,0.057-0.14,0.07-0.14h0.107
			c0.02,0,0.17,0.168,0.182,0.168c0.038,0,0.364-0.182,0.425-0.187V3.413z M2.431,3.044c0-0.03,0.042-0.065,0.079-0.065h0.005
			c0.031,0,0.07,0.027,0.07,0.051v0.033c0,0.039-0.036,0.07-0.075,0.07H2.501c-0.035,0-0.07-0.043-0.07-0.079V3.044z M1.472,3.167
			C1.505,3.17,1.586,3.159,1.586,3.188v0.873h1.536V3.188c0-0.03,0.082-0.019,0.114-0.022L2.352,2.623L1.472,3.167L1.472,3.167z"/>
		<path id="_99216936" fill="#FFFFFF" d="M1.88,3.641c0,0.015,0.019,0.043,0.025,0.063l0.12-0.055l0.004-0.003L1.88,3.539V3.641z"/>
		<path id="_231407800" d="M1.88,3.539l0.148,0.108L2.025,3.649l-0.12,0.055C1.899,3.684,1.88,3.657,1.88,3.641V3.539z M2.59,3.319
			C2.603,3.3,2.606,3.246,2.615,3.241C2.624,3.237,2.676,3.26,2.688,3.263v0.089L2.577,3.395V3.38
			C2.576,3.358,2.59,3.354,2.59,3.319z M2.515,3.37c0,0.023,0.001,0.028-0.009,0.042v0.023C2.445,3.441,2.12,3.623,2.081,3.623
			c-0.013,0-0.162-0.168-0.182-0.168H1.792c-0.013,0-0.07,0.129-0.07,0.14v0.117c0,0.022,0.045,0.035,0.051,0.061L1.671,3.815
			l0.032,0.064l0.154-0.07c0.038,0.02,0.232,0.14,0.262,0.14h0.014c0.021,0,0.047-0.019,0.047-0.037V3.903
			c0-0.023-0.183-0.121-0.21-0.145L2.32,3.6v0.209H2.245v0.168h0.21V3.809h-0.07V3.562l0.331-0.146c0,0.039,0.005,0.092,0.009,0.127
			C2.73,3.588,2.71,3.641,2.763,3.641c0.053,0,0.032-0.063,0.033-0.107c0-0.047-0.005-0.088-0.005-0.14V3.38l0.228-0.1L2.994,3.208
			L2.839,3.279C2.847,3.263,2.857,3.26,2.864,3.243c0.006-0.017,0.009-0.03,0.017-0.044c0.013-0.025,0.023-0.065,0.036-0.085
			L2.632,3.075c-0.015,0.012-0.08,0.083-0.08,0.104v0.014H2.543L2.515,3.37z"/>
		<path id="_231407992" d="M2.352,2.623l0.885,0.543C3.204,3.17,3.122,3.159,3.122,3.188v0.873H1.586V3.188
			c0-0.03-0.082-0.019-0.114-0.022L2.352,2.623L2.352,2.623z M1.357,3.184c0.005,0.02,0.007,0.032,0.033,0.032h0.154V4.08
			c0,0.013,0.002,0.013,0.005,0.023H3.15c0.011,0,0.019-0.008,0.019-0.019V3.216h0.149c0.019,0,0.033-0.01,0.033-0.028
			c0-0.015-0.446-0.28-0.495-0.313c-0.039-0.026-0.499-0.308-0.5-0.308C2.35,2.567,1.438,3.13,1.357,3.184L1.357,3.184z"/>
	</g>
</g>
</svg>
