<?xml version="1.0" encoding="utf-8"?>
<!-- Generator: Adobe Illustrator 16.0.0, SVG Export Plug-In . SVG Version: 6.00 Build 0)  -->
<!DOCTYPE svg PUBLIC "-//W3C//DTD SVG 1.1//EN" "http://www.w3.org/Graphics/SVG/1.1/DTD/svg11.dtd">
<svg version="1.1" id="Version_1.0" xmlns="http://www.w3.org/2000/svg" xmlns:xlink="http://www.w3.org/1999/xlink" x="0px"
	 y="0px" width="612px" height="792px" viewBox="0 0 612 792" enable-background="new 0 0 612 792" xml:space="preserve">
<g id="octagon" display="none">
	<g id="outFrame" display="inline">
		<line fill="none" stroke="#0000FF" stroke-width="2" x1="220" y1="309.5" x2="306" y2="273"/>
		<line fill="none" stroke="#0000FF" stroke-width="2" x1="306" y1="273" x2="390.5" y2="309.5"/>
		<line fill="none" stroke="#0000FF" stroke-width="2" x1="390.5" y1="309.5" x2="427" y2="396"/>
		<line fill="none" stroke="#0000FF" stroke-width="2" x1="427" y1="396" x2="390.5" y2="482.5"/>
		<line fill="none" stroke="#0000FF" stroke-width="2" x1="390.5" y1="482.5" x2="306" y2="516"/>
		<line fill="none" stroke="#0000FF" stroke-width="2" x1="306" y1="516" x2="220" y2="482.5"/>
		<line fill="none" stroke="#0000FF" stroke-width="2" x1="220" y1="482.5" x2="183" y2="396"/>
		<line fill="none" stroke="#0000FF" stroke-width="2" x1="183" y1="396" x2="220" y2="309.5"/>
	</g>
	
		<line id="mod2_1_" display="inline" fill="none" stroke="#0000FF" stroke-width="2" x1="203.966" y1="445.015" x2="406.199" y2="445.295"/>
	
		<line id="mod1_1_" display="inline" fill="none" stroke="#0000FF" stroke-width="2" x1="203.966" y1="346.985" x2="406.199" y2="346.705"/>
</g>
<g id="main">
	<g transform="scale(100) translate(0.76 0.81)">
		<polygon id="_97071888" points="2.841,3.062 2.977,3.113 3.005,3.063 2.861,3.005 		"/>
		<polygon id="_95241712" points="2.778,3.193 2.909,3.243 2.939,3.195 2.799,3.138 		"/>
		<polygon id="_94860488" points="2.718,3.307 2.853,3.362 2.852,3.358 2.883,3.312 2.74,3.257 		"/>
		<path id="_94673800" d="M2.18,2.627l0.652,0.237L2.557,3.467L1.89,3.146L2.18,2.627z M1.868,3.156l0.694,0.335l0.292-0.642
			C2.83,2.847,2.56,2.745,2.518,2.728C2.488,2.716,2.185,2.604,2.18,2.604c-0.022,0-0.136,0.237-0.159,0.271
			C2,2.907,1.874,3.132,1.868,3.156z"/>
		<path id="_65976264" d="M2.661,3.435L2.797,3.49L2.795,3.484l0.032-0.045C2.8,3.433,2.703,3.383,2.69,3.383
			C2.68,3.383,2.662,3.422,2.661,3.435z"/>
		<path id="_94957312" d="M2.015,3.449l0.107,0.072L1.973,3.667L1.822,3.564L2.015,3.449z M1.788,3.562l0.185,0.123L2.151,3.52
			C2.138,3.51,2.019,3.43,2.015,3.43C1.989,3.43,1.826,3.552,1.788,3.562z"/>
		<path id="_95082912" d="M1.609,3.548c0.127-0.003,0.395-0.165,0.425-0.165c0.01,0,0.184,0.095,0.222,0.104
			C2.246,3.502,2.129,3.602,2.101,3.63C2.07,3.66,1.983,3.775,1.963,3.789C1.924,3.768,1.614,3.567,1.609,3.548z M1.231,3.393
			l0.297-0.062l0.278,0.141L1.565,3.548L1.97,3.815L1.969,3.81l0.159-0.187L2.8,3.941L3.308,2.77L2.053,2.34
			C2.039,2.395,1.922,2.568,1.89,2.635c-0.02,0.044-0.057,0.11-0.082,0.149c-0.03,0.044-0.054,0.102-0.082,0.149
			C1.697,2.982,1.673,3.029,1.644,3.078C1.615,3.125,1.591,3.184,1.561,3.227C1.5,3.318,1.555,3.294,1.423,3.32
			c-0.065,0.013-0.13,0.024-0.192,0.039 M2.781,3.896L2.151,3.6L2.27,3.5l0.182,0.087l0.03-0.059L1.885,3.236v0.006L1.859,3.298
			L2.01,3.37L1.854,3.454L1.558,3.309L1.553,3.31L2.07,2.384l0.005,0.003L3.26,2.79h0.006L2.781,3.896z"/>
		<text transform="matrix(0.0092 0.004 -0.004 0.0092 2.0972 3.1545)" font-family="sans-serif" font-size="66">$</text>
	</g>
</g>
</svg>
