<?xml version="1.0" encoding="utf-8"?>
<!-- Generator: Adobe Illustrator 16.0.0, SVG Export Plug-In . SVG Version: 6.00 Build 0)  -->
<!DOCTYPE svg PUBLIC "-//W3C//DTD SVG 1.1//EN" "http://www.w3.org/Graphics/SVG/1.1/DTD/svg11.dtd">
<svg version="1.1" id="Version_1.0" xmlns="http://www.w3.org/2000/svg" xmlns:xlink="http://www.w3.org/1999/xlink" x="0px" y="0px"
	 width="612px" height="792px" viewBox="0 0 612 792" enable-background="new 0 0 612 792" xml:space="preserve">
<g id="octagon" display="none">
	<g id="outFrame" display="inline">
		<line fill="none" stroke="#0000FF" stroke-width="2" x1="220" y1="309.5" x2="306" y2="273"/>
		<line fill="none" stroke="#0000FF" stroke-width="2" x1="306" y1="273" x2="390.5" y2="309.5"/>
		<line fill="none" stroke="#0000FF" stroke-width="2" x1="390.5" y1="309.5" x2="427" y2="396"/>
		<line fill="none" stroke="#0000FF" stroke-width="2" x1="427" y1="396" x2="390.5" y2="482.5"/>
		<line fill="none" stroke="#0000FF" stroke-width="2" x1="390.5" y1="482.5" x2="306" y2="516"/>
		<line fill="none" stroke="#0000FF" stroke-width="2" x1="306" y1="516" x2="220" y2="482.5"/>
		<line fill="none" stroke="#0000FF" stroke-width="2" x1="220" y1="482.5" x2="183" y2="396"/>
		<line fill="none" stroke="#0000FF" stroke-width="2" x1="183" y1="396" x2="220" y2="309.5"/>
	</g>
	
		<line id="mod2_1_" display="inline" fill="none" stroke="#0000FF" stroke-width="2" x1="203.966" y1="445.015" x2="406.199" y2="445.295"/>
	
		<line id="mod1_1_" display="inline" fill="none" stroke="#0000FF" stroke-width="2" x1="203.966" y1="346.985" x2="406.199" y2="346.705"/>
</g>
<g id="main">
	<g transform="scale(100) translate(0.78 0.7)">
		<path id="_65323024" d="M2.029,3.059c0,0.013,0.002,0.006,0.005,0.022H2.05c0.022,0,0.213-0.159,0.252-0.17V2.894
			c0-0.013-0.004-0.016-0.016-0.016h-0.01C2.266,2.877,2.029,3.049,2.029,3.059z"/>
		<path id="_65787840" fill="#FFFFFF" d="M1.525,3.465c0,0.035-0.011,0.042-0.011,0.077c0,0.135,0.102,0.241,0.236,0.241h0.016
			c0.119,0,0.219-0.107,0.219-0.23V3.525c0-0.117-0.108-0.219-0.225-0.219H1.744c-0.056,0-0.107,0.023-0.138,0.048
			C1.552,3.396,1.558,3.415,1.525,3.465z"/>
		<path id="_95571104" d="M2.825,3.733V3.728c0-0.051,0.037-0.093,0.088-0.093h0.011c0.056,0,0.093,0.041,0.093,0.099V3.75
			c0,0.03-0.052,0.071-0.093,0.071H2.913C2.865,3.821,2.825,3.781,2.825,3.733z M1.525,3.465c0.033-0.049,0.027-0.068,0.081-0.111
			c0.032-0.025,0.083-0.048,0.138-0.048H1.76c0.117,0,0.225,0.102,0.225,0.219v0.027c0,0.124-0.1,0.23-0.219,0.23H1.75
			c-0.134,0-0.236-0.106-0.236-0.241C1.514,3.506,1.525,3.5,1.525,3.465L1.525,3.465z M1.722,2.96c-0.021,0-0.038-0.111-0.044-0.132
			C1.672,2.803,1.645,2.713,1.645,2.691h0.603c0.013,0,0.033-0.02,0.033-0.033V2.603c0-0.018-0.02-0.027-0.038-0.027H1.448
			c-0.018,0-0.038,0.01-0.038,0.027v0.055c0,0.013,0.02,0.033,0.033,0.033H1.53l0.066,0.4l-0.17,0.062l0.071,0.086
			C1.472,3.272,1.44,3.292,1.407,3.343C1.396,3.363,1.36,3.453,1.36,3.481v0.055c0,0.134,0.041,0.219,0.108,0.287
			C1.526,3.881,1.63,3.942,1.744,3.942h0.011c0.22,0,0.395-0.184,0.395-0.4h0.335c0.014,0,0.048,0.036,0.06,0.044h0.214
			C2.731,3.627,2.704,3.658,2.704,3.728c0,0.116,0.097,0.214,0.214,0.214c0.109,0,0.219-0.096,0.219-0.197v-0.05
			c0-0.031-0.037-0.086-0.049-0.11h0.181L3.295,3.47H3.116V3.454l0.03-0.203L3.143,3.168c0-0.016-0.043-0.052-0.055-0.06l-0.4-0.013
			V2.713c0-0.013-0.009-0.022-0.022-0.022c-0.013,0-0.022,0.009-0.022,0.022v0.384C2.59,3.092,2.495,3.086,2.441,3.086
			c-0.033,0-0.073,0.002-0.104,0C2.284,3.083,2.286,3.053,2.265,3.053H2.15L2.2,3.36H2.106V3.223c0-0.019-0.102-0.104-0.126-0.104
			H1.794V3.004L1.765,2.961L1.722,2.96z"/>
		<path id="_95599384" fill="#FFFFFF" d="M2.825,3.733c0,0.048,0.04,0.088,0.088,0.088h0.011c0.041,0,0.093-0.041,0.093-0.071V3.733
			c0-0.058-0.037-0.099-0.093-0.099H2.913c-0.051,0-0.088,0.043-0.088,0.093V3.733z"/>
	</g>
</g>
</svg>
