<?xml version="1.0" encoding="utf-8"?>
<!-- Generator: Adobe Illustrator 16.0.0, SVG Export Plug-In . SVG Version: 6.00 Build 0)  -->
<!DOCTYPE svg PUBLIC "-//W3C//DTD SVG 1.1//EN" "http://www.w3.org/Graphics/SVG/1.1/DTD/svg11.dtd">
<svg version="1.1" id="Version_1.0" xmlns="http://www.w3.org/2000/svg" xmlns:xlink="http://www.w3.org/1999/xlink" x="0px" y="0px"
	 width="612px" height="792px" viewBox="0 0 612 792" enable-background="new 0 0 612 792" xml:space="preserve">
<g id="octagon" display="none">
	<g id="outFrame" display="inline">
		<line fill="none" stroke="#0000FF" stroke-width="2" x1="220" y1="309.5" x2="306" y2="273"/>
		<line fill="none" stroke="#0000FF" stroke-width="2" x1="306" y1="273" x2="390.5" y2="309.5"/>
		<line fill="none" stroke="#0000FF" stroke-width="2" x1="390.5" y1="309.5" x2="427" y2="396"/>
		<line fill="none" stroke="#0000FF" stroke-width="2" x1="427" y1="396" x2="390.5" y2="482.5"/>
		<line fill="none" stroke="#0000FF" stroke-width="2" x1="390.5" y1="482.5" x2="306" y2="516"/>
		<line fill="none" stroke="#0000FF" stroke-width="2" x1="306" y1="516" x2="220" y2="482.5"/>
		<line fill="none" stroke="#0000FF" stroke-width="2" x1="220" y1="482.5" x2="183" y2="396"/>
		<line fill="none" stroke="#0000FF" stroke-width="2" x1="183" y1="396" x2="220" y2="309.5"/>
	</g>
	
		<line id="mod2_1_" display="inline" fill="none" stroke="#0000FF" stroke-width="2" x1="203.966" y1="445.015" x2="406.199" y2="445.295"/>
	
		<line id="mod1_1_" display="inline" fill="none" stroke="#0000FF" stroke-width="2" x1="203.966" y1="346.985" x2="406.199" y2="346.705"/>
</g>
<g id="main">
	<g transform="scale(100) translate(0.75 0.89)">
		<path id="_237775544" d="M2.162,2.889l0.275,0.002c0.015,0,0.161-0.222,0.176-0.25H1.989L2.162,2.889z"/>
		<polygon id="_99526056" points="1.831,2.731 1.998,2.989 2.025,2.97 1.863,2.716 		"/>
		<polygon id="_238955144" points="2.578,2.973 2.614,2.987 2.774,2.73 2.743,2.717 		"/>
		<polygon id="_230110800" points="2.127,3.03 2.473,3.03 2.473,2.988 2.127,2.988 		"/>
		<polygon id="_102162872" points="1.646,2.758 1.887,3.142 1.921,3.126 1.678,2.738 		"/>
		<path id="_232237944" d="M2.691,3.118c0,0.015,0.016,0.017,0.027,0.023l0.24-0.386L2.927,2.739
			C2.913,2.79,2.691,3.102,2.691,3.118z"/>
		<polygon id="_42914064" points="1.997,3.187 2.607,3.187 2.607,3.146 1.997,3.146 		"/>
		<polygon id="_98549864" points="1.459,2.782 1.775,3.284 1.81,3.264 1.492,2.761 		"/>
		<path id="_242270816" d="M2.802,3.261c0,0.004,0.024,0.02,0.027,0.022L3.15,2.782h0.006l-0.04-0.02
			C3.084,2.822,2.802,3.245,2.802,3.261z"/>
		<polygon id="_43062768" points="1.868,3.34 2.742,3.34 2.742,3.298 1.868,3.298 		"/>
		<path id="_42201224" d="M2.908,3.405C2.914,3.408,2.933,3.418,2.94,3.418c0.005,0,0.361-0.561,0.398-0.616L3.301,2.789
			L2.908,3.405z"/>
		<polygon id="_102022312" points="1.276,2.804 1.669,3.419 1.696,3.405 1.303,2.789 		"/>
		<polygon id="_97525480" points="1.738,3.497 2.866,3.497 2.866,3.46 1.738,3.46 		"/>
	</g>
</g>
</svg>
