<?xml version="1.0" encoding="utf-8"?>
<!-- Generator: Adobe Illustrator 16.0.0, SVG Export Plug-In . SVG Version: 6.00 Build 0)  -->
<!DOCTYPE svg PUBLIC "-//W3C//DTD SVG 1.1//EN" "http://www.w3.org/Graphics/SVG/1.1/DTD/svg11.dtd">
<svg version="1.1" id="Version_1.0" xmlns="http://www.w3.org/2000/svg" xmlns:xlink="http://www.w3.org/1999/xlink" x="0px"
	 y="0px" width="612px" height="792px" viewBox="0 0 612 792" enable-background="new 0 0 612 792" xml:space="preserve">
<g id="octagon" display="none">
	<g id="outFrame" display="inline">
		<line fill="none" stroke="#0000FF" stroke-width="2" x1="220" y1="309.5" x2="306" y2="273"/>
		<line fill="none" stroke="#0000FF" stroke-width="2" x1="306" y1="273" x2="390.5" y2="309.5"/>
		<line fill="none" stroke="#0000FF" stroke-width="2" x1="390.5" y1="309.5" x2="427" y2="396"/>
		<line fill="none" stroke="#0000FF" stroke-width="2" x1="427" y1="396" x2="390.5" y2="482.5"/>
		<line fill="none" stroke="#0000FF" stroke-width="2" x1="390.5" y1="482.5" x2="306" y2="516"/>
		<line fill="none" stroke="#0000FF" stroke-width="2" x1="306" y1="516" x2="220" y2="482.5"/>
		<line fill="none" stroke="#0000FF" stroke-width="2" x1="220" y1="482.5" x2="183" y2="396"/>
		<line fill="none" stroke="#0000FF" stroke-width="2" x1="183" y1="396" x2="220" y2="309.5"/>
	</g>
	
		<line id="bottom" display="inline" fill="none" stroke="#0000FF" stroke-width="2" x1="203.966" y1="445.015" x2="406.199" y2="445.295"/>
	
		<line id="top" display="inline" fill="none" stroke="#0000FF" stroke-width="2" x1="203.966" y1="346.985" x2="406.199" y2="346.705"/>
</g>
<g id="main">
	<path d="M331.25,424.125c-5.71-3.96-15.271-9.831-26.041-20.608c-9.832,9.354-18.959,15.108-26.209,20.358
		c-11.813,7.5-25.5,15.188-26.643,13.168c-0.931-1.646-1.702-3.508-2.083-5.708c21.556-11.572,37.566-23.537,48.029-35.908
		c-8.723-12.048-13.075-23.538-13.075-34.477c0-1.109-0.353-5.825,1.439-13.45c1.265,0,11.043,29.075,18.5,40.167
		c7.604-10.142,13.344-25.291,17.627-41.932c1.741,5.393,2.619,10.146,2.619,14.26c0,13.157-4.521,24.815-13.554,34.954
		c9.821,12.523,25.832,24.66,48.025,36.388c-0.637,2.933-1.641,7.632-3.967,6.747C351.891,436.553,335.063,427.313,331.25,424.125z"
		/>
	<path fill="none" stroke="#000000" stroke-width="6" stroke-linecap="square" stroke-linejoin="bevel" stroke-miterlimit="10" d="
		M351.75,431.75c-5.999-2.917-10-3.417-10.917-9.083c-0.005-0.027,0.004-0.055,0.004-0.082c-2.965,1.97-4.921,5.337-4.921,9.165
		c0,6.076,4.924,11,11,11c6.048,0,10.95-4.879,10.996-10.917C356.17,432.99,353.772,432.733,351.75,431.75z"/>
	<path fill="none" stroke="#000000" stroke-width="6" stroke-linecap="square" stroke-linejoin="bevel" stroke-miterlimit="10" d="
		M267.188,427.438c-5.672,3.556-7.688,5.188-12.978,4.531c-0.028-0.004-0.044-0.033-0.068-0.048c0.121,3.56,1.959,6.991,5.218,9.001
		c5.172,3.189,11.948,1.58,15.136-3.589c3.175-5.147,1.596-11.881-3.519-15.089C271.047,424.334,269.093,426.243,267.188,427.438z"
		/>
</g>
</svg>
