<?xml version="1.0" encoding="utf-8"?>
<!-- Generator: Adobe Illustrator 16.0.0, SVG Export Plug-In . SVG Version: 6.00 Build 0)  -->
<!DOCTYPE svg PUBLIC "-//W3C//DTD SVG 1.1//EN" "http://www.w3.org/Graphics/SVG/1.1/DTD/svg11.dtd">
<svg version="1.1" id="_1.AIR____________" xmlns="http://www.w3.org/2000/svg" xmlns:xlink="http://www.w3.org/1999/xlink" x="0px"
	 y="0px" width="400px" height="400px" viewBox="0 0 400 400" style="enable-background:new 0 0 400 400;" xml:space="preserve">
<g>
	<g transform="scale(120) translate(0.391667 0.55) translate(-0.0333333 0)">
		<polygon id="_65633920" style="fill:#FFFFFF;" points="0.813,0.24 0.952,0.24 0.952,-0.108 0.813,-0.108 		"/>
		<polygon id="_64213456" style="fill:#FFFFFF;" points="1.718,0.24 1.787,0.24 1.787,0.136 1.718,0.136 		"/>
		<polygon id="_103741008" style="fill:#FFFFFF;" points="0.604,0.379 1.926,0.379 1.926,0.31 0.604,0.31 		"/>
		<polygon id="_108051176" style="fill:#FFFFFF;" points="1.718,0.553 1.787,0.553 1.787,0.449 1.718,0.449 		"/>
		<polygon id="_64028088" style="fill:#FFFFFF;" points="0.813,0.797 0.952,0.797 0.952,0.449 0.813,0.449 		"/>
		<path id="_106699768" d="M0.813,0.449h0.139v0.348H0.813V0.449z M1.787,0.553h-0.07V0.449h0.07V0.553z M0.604,0.379V0.31h1.323
			v0.07H0.604z M1.787,0.24h-0.07V0.136h0.07V0.24z M0.813-0.108h0.139V0.24H0.813V-0.108z M0.743,0.24H0.534v0.209h0.209v0.418
			h0.278V0.449h0.627v0.174h0.209V0.449h0.139V0.24H1.857V0.066H1.648V0.24H1.021v-0.418H0.743V0.24z"/>
	</g>
	<text transform="matrix(1 0 0 1 192.4707 59.9414)" style="font-family:'Arial-BoldMT'; font-size:65;">I</text>
</g>
<g id="octagon" style="display:none;">
	<g id="outFrame" style="display:inline;">
		<line style="fill:none;stroke:#0000FF;stroke-width:2;" x1="115" y1="188.5" x2="78.5" y2="102.5"/>
		<line style="fill:none;stroke:#0000FF;stroke-width:2;" x1="78.5" y1="102.5" x2="115" y2="18"/>
		<line style="fill:none;stroke:#0000FF;stroke-width:2;" x1="115" y1="18" x2="201.5" y2="-18.5"/>
		<line style="fill:none;stroke:#0000FF;stroke-width:2;" x1="201.5" y1="-18.5" x2="288" y2="18"/>
		<line style="fill:none;stroke:#0000FF;stroke-width:2;" x1="288" y1="18" x2="321.5" y2="102.5"/>
		<line style="fill:none;stroke:#0000FF;stroke-width:2;" x1="321.5" y1="102.5" x2="288" y2="188.5"/>
		<line style="fill:none;stroke:#0000FF;stroke-width:2;" x1="288" y1="188.5" x2="201.5" y2="225.5"/>
		<line style="fill:none;stroke:#0000FF;stroke-width:2;" x1="201.5" y1="225.5" x2="115" y2="188.5"/>
	</g>
</g>
</svg>
