<?xml version="1.0" encoding="utf-8"?>
<!-- Generator: Adobe Illustrator 16.0.0, SVG Export Plug-In . SVG Version: 6.00 Build 0)  -->
<!DOCTYPE svg PUBLIC "-//W3C//DTD SVG 1.1//EN" "http://www.w3.org/Graphics/SVG/1.1/DTD/svg11.dtd">
<svg version="1.1" id="_1.ACDNT__________" xmlns="http://www.w3.org/2000/svg" xmlns:xlink="http://www.w3.org/1999/xlink" x="0px"
	 y="0px" width="400px" height="400px" viewBox="0 0 400 400" style="enable-background:new 0 0 400 400;" xml:space="preserve">
<g>
	<g transform="scale(120) translate(0.391667 0.55) translate(-0.0333333 0)">
		<polygon id="_65633920" style="fill:#FFFFFF;" points="0.813,0.407 0.952,0.407 0.952,0.059 0.813,0.059 		"/>
		<polygon id="_64213456" style="fill:#FFFFFF;" points="1.718,0.407 1.787,0.407 1.787,0.302 1.718,0.302 		"/>
		<polygon id="_103741008" style="fill:#FFFFFF;" points="0.604,0.546 1.926,0.546 1.926,0.476 0.604,0.476 		"/>
		<polygon id="_108051176" style="fill:#FFFFFF;" points="1.718,0.72 1.787,0.72 1.787,0.616 1.718,0.616 		"/>
		<polygon id="_64028088" style="fill:#FFFFFF;" points="0.813,0.964 0.952,0.964 0.952,0.616 0.813,0.616 		"/>
		<path id="_106699768" d="M0.813,0.616h0.139v0.348H0.813V0.616z M1.787,0.72h-0.07V0.616h0.07V0.72z M0.604,0.546v-0.07h1.323
			v0.07H0.604z M1.787,0.407h-0.07V0.302h0.07V0.407z M0.813,0.059h0.139v0.348H0.813V0.059z M0.743,0.407H0.534v0.209h0.209v0.418
			h0.278V0.616h0.627V0.79h0.209V0.616h0.139V0.407H1.857V0.233H1.648v0.174H1.021v-0.418H0.743V0.407z"/>
	</g>
	<text transform="matrix(1 0 0 1 181.0293 79.9414)" style="font-family:'Arial-BoldMT'; font-size:65;">A</text>
</g>
<g id="octagon" style="display:none;">
	<g id="outFrame" style="display:inline;">
		<line style="fill:none;stroke:#0000FF;stroke-width:2;" x1="115" y1="212.5" x2="78.5" y2="126.5"/>
		<line style="fill:none;stroke:#0000FF;stroke-width:2;" x1="78.5" y1="126.5" x2="115" y2="42"/>
		<line style="fill:none;stroke:#0000FF;stroke-width:2;" x1="115" y1="42" x2="201.5" y2="5.5"/>
		<line style="fill:none;stroke:#0000FF;stroke-width:2;" x1="201.5" y1="5.5" x2="288" y2="42"/>
		<line style="fill:none;stroke:#0000FF;stroke-width:2;" x1="288" y1="42" x2="321.5" y2="126.5"/>
		<line style="fill:none;stroke:#0000FF;stroke-width:2;" x1="321.5" y1="126.5" x2="288" y2="212.5"/>
		<line style="fill:none;stroke:#0000FF;stroke-width:2;" x1="288" y1="212.5" x2="201.5" y2="249.5"/>
		<line style="fill:none;stroke:#0000FF;stroke-width:2;" x1="201.5" y1="249.5" x2="115" y2="212.5"/>
	</g>
</g>
</svg>
