<?xml version="1.0" encoding="utf-8"?>
<!-- Generator: Adobe Illustrator 16.0.0, SVG Export Plug-In . SVG Version: 6.00 Build 0)  -->
<!DOCTYPE svg PUBLIC "-//W3C//DTD SVG 1.1//EN" "http://www.w3.org/Graphics/SVG/1.1/DTD/svg11.dtd">
<svg version="1.1" id="_2.CVRIOT_________" xmlns="http://www.w3.org/2000/svg" xmlns:xlink="http://www.w3.org/1999/xlink" x="0px"
	 y="0px" width="400px" height="400px" viewBox="0 0 400 400" style="enable-background:new 0 0 400 400;" xml:space="preserve">
<g>
	<ellipse style="fill:none;stroke:#000000;stroke-width:10;" cx="201.5" cy="335" rx="20" ry="20"/>
	<line style="fill:none;stroke:#000000;stroke-width:10;" x1="201.5" y1="355" x2="201.5" y2="450"/>
	<line style="fill:none;stroke:#000000;stroke-width:10;" x1="176.5" y1="380" x2="226.5" y2="380"/>
	<g transform="translate(-60 -20)">
		<ellipse style="fill:none;stroke:#000000;stroke-width:10;" cx="201.5" cy="335" rx="20" ry="20"/>
		<line style="fill:none;stroke:#000000;stroke-width:10;" x1="201.5" y1="355" x2="201.5" y2="450"/>
		<line style="fill:none;stroke:#000000;stroke-width:10;" x1="176.5" y1="380" x2="226.5" y2="380"/>
	</g>
	<g transform="translate(60 -20)">
		<ellipse style="fill:none;stroke:#000000;stroke-width:10;" cx="201.5" cy="335" rx="20" ry="20"/>
		<line style="fill:none;stroke:#000000;stroke-width:10;" x1="201.5" y1="355" x2="201.5" y2="450"/>
		<line style="fill:none;stroke:#000000;stroke-width:10;" x1="176.5" y1="380" x2="226.5" y2="380"/>
	</g>
</g>
<g>
	<text transform="matrix(1 0 0 1 141.2832 284.5)" style="font-family:'Arial-BoldMT'; font-size:50;">RIOT</text>
</g>
<g id="octagon" style="display:none;">
	<g id="outFrame" style="display:inline;">
		<line style="fill:none;stroke:#0000FF;stroke-width:2;" x1="115" y1="428.5" x2="78.5" y2="342.5"/>
		<line style="fill:none;stroke:#0000FF;stroke-width:2;" x1="78.5" y1="342.5" x2="115" y2="258"/>
		<line style="fill:none;stroke:#0000FF;stroke-width:2;" x1="115" y1="258" x2="201.5" y2="221.5"/>
		<line style="fill:none;stroke:#0000FF;stroke-width:2;" x1="201.5" y1="221.5" x2="288" y2="258"/>
		<line style="fill:none;stroke:#0000FF;stroke-width:2;" x1="288" y1="258" x2="321.5" y2="342.5"/>
		<line style="fill:none;stroke:#0000FF;stroke-width:2;" x1="321.5" y1="342.5" x2="288" y2="428.5"/>
		<line style="fill:none;stroke:#0000FF;stroke-width:2;" x1="288" y1="428.5" x2="201.5" y2="465.5"/>
		<line style="fill:none;stroke:#0000FF;stroke-width:2;" x1="201.5" y1="465.5" x2="115" y2="428.5"/>
	</g>
</g>
</svg>
