<?xml version="1.0" encoding="utf-8"?>
<!-- Generator: Adobe Illustrator 19.2.0, SVG Export Plug-In . SVG Version: 6.00 Build 0)  -->
<svg version="1.1" id="Version_1.0" xmlns="http://www.w3.org/2000/svg" xmlns:xlink="http://www.w3.org/1999/xlink" x="0px"
	 y="0px" width="612px" height="792px" viewBox="0 0 612 792" style="enable-background:new 0 0 612 792;" xml:space="preserve">
<g id="octagon" style="display:none;">
	<g id="outFrame" style="display:inline;">
		<line style="fill:none;stroke:#3A53A4;stroke-width:2;" x1="208" y1="297.5" x2="294" y2="261"/>
		<line style="fill:none;stroke:#3A53A4;stroke-width:2;" x1="294" y1="261" x2="378.5" y2="297.5"/>
		<line style="fill:none;stroke:#3A53A4;stroke-width:2;" x1="378.5" y1="297.5" x2="415" y2="384"/>
		<line style="fill:none;stroke:#3A53A4;stroke-width:2;" x1="415" y1="384" x2="378.5" y2="470.5"/>
		<line style="fill:none;stroke:#3A53A4;stroke-width:2;" x1="378.5" y1="470.5" x2="294" y2="504"/>
		<line style="fill:none;stroke:#3A53A4;stroke-width:2;" x1="294" y1="504" x2="208" y2="470.5"/>
		<line style="fill:none;stroke:#3A53A4;stroke-width:2;" x1="208" y1="470.5" x2="171" y2="384"/>
		<line style="fill:none;stroke:#3A53A4;stroke-width:2;" x1="171" y1="384" x2="208" y2="297.5"/>
	</g>
	<line id="mod2_1_" style="display:inline;fill:none;stroke:#3A53A4;stroke-width:2;" x1="192" y1="433" x2="394.2" y2="433.3"/>
	<line id="mod1_1_" style="display:inline;fill:none;stroke:#3A53A4;stroke-width:2;" x1="192" y1="335" x2="394.2" y2="334.7"/>
</g>
<g transform="translate(0 -29) translate(0 24)">
	<ellipse style="fill:#010101;stroke:#010101;" cx="292" cy="386.5" rx="80" ry="80"/>
	<polygon style="fill:#FFFFFF;stroke:#010101;stroke-linejoin:bevel;" points="292,306.5 361,426.5 223,426.5 	"/>
</g>
<g>
	<ellipse style="fill:none;stroke:#010101;stroke-width:7;" cx="289" cy="209.8" rx="17" ry="17"/>
	<line style="fill:none;stroke:#010101;stroke-width:7;" x1="272" y1="226.8" x2="306" y2="192.8"/>
</g>
</svg>
