<?xml version="1.0" encoding="utf-8"?>
<!-- Generator: Adobe Illustrator 16.0.0, SVG Export Plug-In . SVG Version: 6.00 Build 0)  -->
<!DOCTYPE svg PUBLIC "-//W3C//DTD SVG 1.1//EN" "http://www.w3.org/Graphics/SVG/1.1/DTD/svg11.dtd">
<svg version="1.1" id="Version_1.0" xmlns="http://www.w3.org/2000/svg" xmlns:xlink="http://www.w3.org/1999/xlink" x="0px"
	 y="0px" width="612px" height="792px" viewBox="0 0 612 792" style="enable-background:new 0 0 612 792;" xml:space="preserve">
<g id="octagon" style="display:none;">
	<g id="outFrame" style="display:inline;">
		<line style="fill:none;stroke:#0000FF;stroke-width:2;" x1="220" y1="479.5" x2="183.5" y2="393.5"/>
		<line style="fill:none;stroke:#0000FF;stroke-width:2;" x1="183.5" y1="393.5" x2="220" y2="309"/>
		<line style="fill:none;stroke:#0000FF;stroke-width:2;" x1="220" y1="309" x2="306.5" y2="272.5"/>
		<line style="fill:none;stroke:#0000FF;stroke-width:2;" x1="306.5" y1="272.5" x2="393" y2="309"/>
		<line style="fill:none;stroke:#0000FF;stroke-width:2;" x1="393" y1="309" x2="426.5" y2="393.5"/>
		<line style="fill:none;stroke:#0000FF;stroke-width:2;" x1="426.5" y1="393.5" x2="393" y2="479.5"/>
		<line style="fill:none;stroke:#0000FF;stroke-width:2;" x1="393" y1="479.5" x2="306.5" y2="516.5"/>
		<line style="fill:none;stroke:#0000FF;stroke-width:2;" x1="306.5" y1="516.5" x2="220" y2="479.5"/>
	</g>
</g>
<g id="frame" style="display:none;">
	<polyline id="_x3C_path_x3E_" style="display:inline;fill:none;stroke:#3A58A7;stroke-width:5;stroke-linecap:square;" points="
		306,569 479,396 306,223 133,396 306,569 	"/>
</g>
<g transform="translate(0 -29) translate(0 24)">
	<path style="fill:#010101;stroke:#010101;" d="M306.889,372.24c45.018,0,81.5,36.68,81.5,81.88c0,45.249-36.482,81.882-81.5,81.882
		c-45.017,0-81.5-36.633-81.5-81.882C225.389,408.92,261.872,372.24,306.889,372.24z"/>
	<polygon style="fill:#FFFFFF;stroke:#010101;stroke-linejoin:bevel;" points="306.889,372.238 377.195,495.085 236.599,495.085 	
		"/>
</g>
<g>
	<path style="fill:none;stroke:#010101;stroke-width:7;" d="M303.84,256.002c9.563,0,17.324,7.79,17.324,17.409
		c0,9.596-7.762,17.385-17.324,17.385c-9.576,0-17.325-7.789-17.325-17.385C286.515,263.792,294.264,256.002,303.84,256.002z"/>
	<line style="fill:none;stroke:#010101;stroke-width:7;" x1="286.515" y1="290.795" x2="321.163" y2="256.002"/>
</g>
</svg>
