<?xml version="1.0" encoding="utf-8"?>
<!-- Generator: Adobe Illustrator 16.0.0, SVG Export Plug-In . SVG Version: 6.00 Build 0)  -->
<!DOCTYPE svg PUBLIC "-//W3C//DTD SVG 1.1//EN" "http://www.w3.org/Graphics/SVG/1.1/DTD/svg11.dtd">
<svg version="1.1" id="Version_1.0" xmlns="http://www.w3.org/2000/svg" xmlns:xlink="http://www.w3.org/1999/xlink" x="0px"
	 y="0px" width="612px" height="792px" viewBox="0 0 612 792" style="enable-background:new 0 0 612 792;" xml:space="preserve">
<g id="octagon" style="display:none;">
	<g id="outFrame" style="display:inline;">
		<line style="fill:none;stroke:#0000FF;stroke-width:2;" x1="220" y1="479.5" x2="183.5" y2="393.5"/>
		<line style="fill:none;stroke:#0000FF;stroke-width:2;" x1="183.5" y1="393.5" x2="220" y2="309"/>
		<line style="fill:none;stroke:#0000FF;stroke-width:2;" x1="220" y1="309" x2="306.5" y2="272.5"/>
		<line style="fill:none;stroke:#0000FF;stroke-width:2;" x1="306.5" y1="272.5" x2="393" y2="309"/>
		<line style="fill:none;stroke:#0000FF;stroke-width:2;" x1="393" y1="309" x2="426.5" y2="393.5"/>
		<line style="fill:none;stroke:#0000FF;stroke-width:2;" x1="426.5" y1="393.5" x2="393" y2="479.5"/>
		<line style="fill:none;stroke:#0000FF;stroke-width:2;" x1="393" y1="479.5" x2="306.5" y2="516.5"/>
		<line style="fill:none;stroke:#0000FF;stroke-width:2;" x1="306.5" y1="516.5" x2="220" y2="479.5"/>
	</g>
</g>
<g id="frame" style="display:none;">
	<path style="display:inline;fill:none;stroke:#0042E9;stroke-width:5;" d="M221,481c0,115,170,115,170,0c115,0,115-170,0-170
		c0-115-170-115-170,0C106,311,106,481,221,481z"/>
</g>
<g transform="translate(0 -29) translate(0 24)">
	<path style="fill:#010101;stroke:#010101;" d="M307.889,383.23c27.606,0,50,21.31,50,47.643c0,26.299-22.394,47.629-50,47.629
		c-27.611,0-50-21.33-50-47.629C257.889,404.54,280.277,383.23,307.889,383.23z"/>
	<polygon style="fill:#FFFFFF;stroke:#010101;stroke-linejoin:bevel;" points="307.889,383.23 351.005,454.672 264.761,454.672 	"/>
</g>
<g>
	<path style="fill:none;stroke:#010101;stroke-width:7;" d="M306.009,313.502c5.871,0,10.618,4.533,10.618,10.115
		c0,5.603-4.747,10.135-10.618,10.135c-5.86,0-10.619-4.532-10.619-10.135C295.39,318.035,300.148,313.502,306.009,313.502z"/>
	<line style="fill:none;stroke:#010101;stroke-width:7;" x1="295.39" y1="333.751" x2="316.627" y2="313.502"/>
</g>
</svg>
