<?xml version="1.0" encoding="utf-8"?>
<!-- Generator: Adobe Illustrator 16.0.0, SVG Export Plug-In . SVG Version: 6.00 Build 0)  -->
<!DOCTYPE svg PUBLIC "-//W3C//DTD SVG 1.1//EN" "http://www.w3.org/Graphics/SVG/1.1/DTD/svg11.dtd">
<svg version="1.1" id="_1.EMMED__________" xmlns="http://www.w3.org/2000/svg" xmlns:xlink="http://www.w3.org/1999/xlink" x="0px"
	 y="0px" width="400px" height="400px" viewBox="0 0 400 400" style="enable-background:new 0 0 400 400;" xml:space="preserve">
<g>
	<g transform="scale(100) translate(0.76 0.78)">
		<polygon points="0.747,0.497 0.323,0.746 0.575,1.185 1.002,0.939 1.004,1.429 1.509,1.429 1.509,0.941 1.937,1.186 2.193,0.751 
			1.769,0.498 2.195,0.25 1.938,-0.189 1.51,0.057 1.509,-0.438 1.004,-0.438 1.004,0.055 0.576,-0.189 0.324,0.249 		"/>
	</g>
</g>
<g id="octagon" style="display:none;">
	<g id="outFrame" style="display:inline;">
		<line style="fill:none;stroke:#0000FF;stroke-width:2;" x1="115" y1="212.5" x2="78.5" y2="126.5"/>
		<line style="fill:none;stroke:#0000FF;stroke-width:2;" x1="78.5" y1="126.5" x2="115" y2="42"/>
		<line style="fill:none;stroke:#0000FF;stroke-width:2;" x1="115" y1="42" x2="201.5" y2="5.5"/>
		<line style="fill:none;stroke:#0000FF;stroke-width:2;" x1="201.5" y1="5.5" x2="288" y2="42"/>
		<line style="fill:none;stroke:#0000FF;stroke-width:2;" x1="288" y1="42" x2="321.5" y2="126.5"/>
		<line style="fill:none;stroke:#0000FF;stroke-width:2;" x1="321.5" y1="126.5" x2="288" y2="212.5"/>
		<line style="fill:none;stroke:#0000FF;stroke-width:2;" x1="288" y1="212.5" x2="201.5" y2="249.5"/>
		<line style="fill:none;stroke:#0000FF;stroke-width:2;" x1="201.5" y1="249.5" x2="115" y2="212.5"/>
	</g>
</g>
</svg>
