<?xml version="1.0" encoding="utf-8"?>
<!-- Generator: Adobe Illustrator 16.0.0, SVG Export Plug-In . SVG Version: 6.00 Build 0)  -->
<!DOCTYPE svg PUBLIC "-//W3C//DTD SVG 1.1//EN" "http://www.w3.org/Graphics/SVG/1.1/DTD/svg11.dtd">
<svg version="1.1" id="Version_1.0" xmlns="http://www.w3.org/2000/svg" xmlns:xlink="http://www.w3.org/1999/xlink" x="0px"
	 y="0px" width="612px" height="792px" viewBox="0 0 612 792" style="enable-background:new 0 0 612 792;" xml:space="preserve">
<g id="octagon" style="display:none;">
	<g id="outFrame" style="display:inline;">
		<line style="fill:none;stroke:#0000FF;stroke-width:2;" x1="220" y1="479.5" x2="183.5" y2="393.5"/>
		<line style="fill:none;stroke:#0000FF;stroke-width:2;" x1="183.5" y1="393.5" x2="220" y2="309"/>
		<line style="fill:none;stroke:#0000FF;stroke-width:2;" x1="220" y1="309" x2="306.5" y2="272.5"/>
		<line style="fill:none;stroke:#0000FF;stroke-width:2;" x1="306.5" y1="272.5" x2="393" y2="309"/>
		<line style="fill:none;stroke:#0000FF;stroke-width:2;" x1="393" y1="309" x2="426.5" y2="393.5"/>
		<line style="fill:none;stroke:#0000FF;stroke-width:2;" x1="426.5" y1="393.5" x2="393" y2="479.5"/>
		<line style="fill:none;stroke:#0000FF;stroke-width:2;" x1="393" y1="479.5" x2="306.5" y2="516.5"/>
		<line style="fill:none;stroke:#0000FF;stroke-width:2;" x1="306.5" y1="516.5" x2="220" y2="479.5"/>
	</g>
</g>
<g id="frame" style="display:none;">
	<rect x="174" y="264" style="display:inline;fill:none;stroke:#3A58A7;stroke-width:5;" width="264" height="264"/>
</g>
<g transform="translate(0 -29) translate(0 24)">
	<path style="fill:#010101;stroke:#010101;" d="M307.889,378.154c41.425,0,75,34.004,75,75.923c0,41.948-33.575,75.925-75,75.925
		c-41.424,0-75-33.977-75-75.925C232.889,412.158,266.465,378.154,307.889,378.154z"/>
	<polygon style="fill:#FFFFFF;stroke:#010101;stroke-linejoin:bevel;" points="307.889,378.152 372.584,492.054 243.204,492.054 	
		"/>
</g>
<g>
	<path style="fill:none;stroke:#010101;stroke-width:7;" d="M305.081,270.002c8.801,0,15.94,7.224,15.94,16.14
		c0,8.902-7.14,16.125-15.94,16.125c-8.808,0-15.941-7.223-15.941-16.125C289.14,277.226,296.273,270.002,305.081,270.002z"/>
	<line style="fill:none;stroke:#010101;stroke-width:7;" x1="289.14" y1="302.266" x2="321.021" y2="270.002"/>
</g>
</svg>
