<?xml version="1.0" encoding="utf-8"?>
<!-- Generator: Adobe Illustrator 16.0.0, SVG Export Plug-In . SVG Version: 6.00 Build 0)  -->
<!DOCTYPE svg PUBLIC "-//W3C//DTD SVG 1.1//EN" "http://www.w3.org/Graphics/SVG/1.1/DTD/svg11.dtd">
<svg version="1.1" id="_3.GAR3----------X" xmlns="http://www.w3.org/2000/svg" xmlns:xlink="http://www.w3.org/1999/xlink" x="0px"
	 y="0px" width="400px" height="400px" viewBox="0 0 400 400" style="enable-background:new 0 0 400 400;" xml:space="preserve">
<g>
	<line style="fill:none;stroke:#000000;stroke-width:5;" x1="58.5" y1="348.5" x2="358.5" y2="48.5"/>
	<line style="fill:none;stroke:#000000;stroke-width:5;" x1="58.5" y1="48.5" x2="358.5" y2="348.5"/>
</g>
<g transform="translate(90 0)">
	<rect x="177.5" y="172.5" style="fill:#FFFFFF;stroke:#000000;stroke-width:5;" width="50" height="50"/>
	<text transform="matrix(1 0 0 1 191.5 210.5)" style="font-family:'ArialMT'; font-size:36;">T</text>
	<text transform="matrix(1 0 0 1 191.5 210.5)" style="fill:none;stroke:#000000; font-family:'ArialMT'; font-size:36;">T</text>
</g>
<g transform="translate(0 -90)">
	<text transform="matrix(1 0 0 1 159 195)" style="font-family:'ArialMT'; font-size:24;">CENTER</text>
	<text transform="matrix(1 0 0 1 159 195)" style="fill:none;stroke:#000000; font-family:'ArialMT'; font-size:24;">CENTER</text>
	<text transform="matrix(1 0 0 1 170 220)" style="font-family:'ArialMT'; font-size:24;">POINT</text>
	<text transform="matrix(1 0 0 1 170 220)" style="fill:none;stroke:#000000; font-family:'ArialMT'; font-size:24;">POINT</text>
</g>
<g transform="translate(0 50)">
	<line style="fill:none;stroke:#000000;stroke-width:3;" x1="208" y1="86" x2="208" y2="141"/>
	<polygon style="stroke:#000000;" points="208,144 201,129 215,129 	"/>
</g>
</svg>
