<?xml version="1.0" encoding="utf-8"?>
<!-- Generator: Adobe Illustrator 16.0.0, SVG Export Plug-In . SVG Version: 6.00 Build 0)  -->
<!DOCTYPE svg PUBLIC "-//W3C//DTD SVG 1.1//EN" "http://www.w3.org/Graphics/SVG/1.1/DTD/svg11.dtd">
<svg version="1.1" id="_9.GAR9----------X" xmlns="http://www.w3.org/2000/svg" xmlns:xlink="http://www.w3.org/1999/xlink" x="0px"
	 y="0px" width="400px" height="400px" viewBox="0 0 400 400" style="enable-background:new 0 0 400 400;" xml:space="preserve">
<g>
	<path style="fill:#FFFF80;stroke:#000000;stroke-width:5;" d="M159.5,44h30v75l35,75h-100l35-75V44z"/>
	<text transform="matrix(1 0 0 1 163.5 169)" style="font-family:'ArialMT'; font-size:32;">B</text>
	<text transform="matrix(1 0 0 1 163.5 169)" style="fill:none;stroke:#000000; font-family:'ArialMT'; font-size:32;">B</text>
</g>
<g>
	<rect x="35.5" y="103" style="fill:#FFFFFF;stroke:#FFFFFF;" width="66" height="32"/>
	<text transform="matrix(1 0 0 1 37.5 132)" style="font-family:'ArialMT'; font-size:36;">BIO</text>
	<text transform="matrix(1 0 0 1 37.5 132)" style="fill:none;stroke:#000000; font-family:'ArialMT'; font-size:36;">BIO</text>
</g>
<g transform="translate(100 -50)">
	<rect x="125" y="92" style="fill:none;stroke:#000000;stroke-width:5;" width="100" height="50"/>
	<text transform="matrix(1 0 0 1 162 130)" style="font-family:'ArialMT'; font-size:36;">H</text>
	<text transform="matrix(1 0 0 1 162 130)" style="fill:none;stroke:#000000; font-family:'ArialMT'; font-size:36;">H</text>
</g>
<g transform="translate(-100 -50)">
	<rect x="125" y="93" style="fill:none;stroke:#000000;stroke-width:5;" width="100" height="50"/>
	<text transform="matrix(1 0 0 1 159 131)" style="font-family:'ArialMT'; font-size:36;">W</text>
	<text transform="matrix(1 0 0 1 159 131)" style="fill:none;stroke:#000000; font-family:'ArialMT'; font-size:36;">W</text>
</g>
<g transform="translate(100 50)">
	<rect x="125" y="96" style="fill:none;stroke:#000000;stroke-width:5;" width="100" height="50"/>
	<text transform="matrix(1 0 0 1 162 134)" style="font-family:'ArialMT'; font-size:36;">N</text>
	<text transform="matrix(1 0 0 1 162 134)" style="fill:none;stroke:#000000; font-family:'ArialMT'; font-size:36;">N</text>
</g>
<g transform="translate(-100 50)">
	<rect x="125" y="96" style="fill:none;stroke:#000000;stroke-width:5;" width="100" height="50"/>
	<text transform="matrix(1 0 0 1 164 134)" style="font-family:'ArialMT'; font-size:36;">T</text>
	<text transform="matrix(1 0 0 1 164 134)" style="fill:none;stroke:#000000; font-family:'ArialMT'; font-size:36;">T</text>
</g>
<g transform="translate(0 100)">
	<rect x="126" y="96" style="fill:none;stroke:#000000;stroke-width:5;" width="100" height="50"/>
	<text transform="matrix(1 0 0 1 164 134)" style="font-family:'ArialMT'; font-size:36;">Y</text>
	<text transform="matrix(1 0 0 1 164 134)" style="fill:none;stroke:#000000; font-family:'ArialMT'; font-size:36;">Y</text>
</g>
<g>
	<polyline style="fill:none;stroke:#000000;stroke-width:3;" points="174.5,296 174.5,356 134.5,316 	"/>
	<polygon style="stroke:#000000;stroke-width:3;" points="127.825,308.889 140.846,314.889 133.479,322.289 	"/>
	<text transform="matrix(1 0 0 1 94.5 326)" style="font-family:'ArialMT'; font-size:36;">Q</text>
	<text transform="matrix(1 0 0 1 94.5 326)" style="fill:none;stroke:#000000; font-family:'ArialMT'; font-size:36;">Q</text>
</g>
<g transform="translate(120 0)">
	<text transform="matrix(1 0 0 1 102 125)" style="font-family:'ArialMT'; font-size:24;">ANCHOR PT.</text>
	<text transform="matrix(1 0 0 1 102 125)" style="fill:none;stroke:#000000; font-family:'ArialMT'; font-size:24;">ANCHOR PT.</text>
</g>
<g>
	<line style="fill:none;stroke:#000000;stroke-width:3;" x1="219.177" y1="128" x2="177.177" y2="188"/>
	<polygon style="stroke:#000000;stroke-width:3;" points="177,188.419 179.856,177.693 185.44,181.824 	"/>
</g>
</svg>
