<?xml version="1.0" encoding="utf-8"?>
<!-- Generator: Adobe Illustrator 16.0.0, SVG Export Plug-In . SVG Version: 6.00 Build 0)  -->
<!DOCTYPE svg PUBLIC "-//W3C//DTD SVG 1.1//EN" "http://www.w3.org/Graphics/SVG/1.1/DTD/svg11.dtd">
<svg version="1.1" id="_0.G-MPNF--------X" xmlns="http://www.w3.org/2000/svg" xmlns:xlink="http://www.w3.org/1999/xlink" x="0px"
	 y="0px" width="400px" height="400px" viewBox="0 0 400 400" style="enable-background:new 0 0 400 400;" xml:space="preserve">
<g>
	<path style="fill:none;stroke:#000000;stroke-width:5;" d="M196,16c77.318,0,140,62.681,140,140H56C56,78.681,118.682,16,196,16z"
		/>
	
		<linearGradient id="SVGID_1_" gradientUnits="userSpaceOnUse" x1="-104.2852" y1="201.6328" x2="-104.1851" y2="201.4328" gradientTransform="matrix(100 0 0 -200 10594.5 40462.5)">
		<stop  offset="0.85" style="stop-color:#FFFFFF"/>
		<stop  offset="0.85" style="stop-color:#000000"/>
	</linearGradient>
	<rect x="146" y="156" style="fill:url(#SVGID_1_);stroke:#000000;stroke-width:5;" width="100" height="200"/>
	<text transform="matrix(1 0 0 1 170 282)" style="font-family:'Arial-BoldMT'; font-size:72;">N</text>
	<text transform="matrix(1 0 0 1 170 282)" style="fill:none;stroke:#000000; font-family:'Arial-BoldMT'; font-size:72;">N</text>
	<text transform="matrix(1 0 0 1 284 362)" style="font-family:'ArialMT'; font-size:24;">ANCHOR</text>
	<text transform="matrix(1 0 0 1 284 362)" style="fill:none;stroke:#000000; font-family:'ArialMT'; font-size:24;">ANCHOR</text>
	<text transform="matrix(1 0 0 1 296 387)" style="font-family:'ArialMT'; font-size:24;">POINT</text>
	<text transform="matrix(1 0 0 1 296 387)" style="fill:none;stroke:#000000; font-family:'ArialMT'; font-size:24;">POINT</text>
	<polyline style="fill:none;stroke:#000000;stroke-width:3;" points="286,373 196,396 196,371 	"/>
	<polygon style="stroke:#000000;stroke-width:3;" points="191,376 196,361 201,376 	"/>
</g>
</svg>
