<?xml version="1.0" encoding="utf-8"?>
<!-- Generator: Adobe Illustrator 16.0.0, SVG Export Plug-In . SVG Version: 6.00 Build 0)  -->
<!DOCTYPE svg PUBLIC "-//W3C//DTD SVG 1.1//EN" "http://www.w3.org/Graphics/SVG/1.1/DTD/svg11.dtd">
<svg version="1.1" id="_10.GAR9----------X" xmlns="http://www.w3.org/2000/svg" xmlns:xlink="http://www.w3.org/1999/xlink"
	 x="0px" y="0px" width="400px" height="400px" viewBox="0 0 400 400" style="enable-background:new 0 0 400 400;"
	 xml:space="preserve">
<g>
	<rect x="152.5" y="97.5" style="fill:#FFFF80;stroke:#000000;stroke-width:5;" width="36" height="100"/>
	<text transform="matrix(1 0 0 1 158.5 157.5)" style="font-family:'ArialMT'; font-size:32;">N</text>
	<text transform="matrix(1 0 0 1 158.5 157.5)" style="fill:none;stroke:#000000; font-family:'ArialMT'; font-size:32;">N</text>
	<path style="fill:#FFFF80;stroke:#000000;stroke-width:5;" d="M170.5,97.5h-50c0,0,0-50,50-50s50,50,50,50H170.5z"/>
</g>
<g transform="translate(100 -50)">
	<rect x="119.5" y="97" style="fill:none;stroke:#000000;stroke-width:5;" width="100" height="50"/>
	<text transform="matrix(1 0 0 1 156.5 135)" style="font-family:'ArialMT'; font-size:36;">H</text>
	<text transform="matrix(1 0 0 1 156.5 135)" style="fill:none;stroke:#000000; font-family:'ArialMT'; font-size:36;">H</text>
</g>
<g transform="translate(0 -100)">
	<rect x="120" y="96.5" style="fill:none;stroke:#000000;stroke-width:5;" width="100" height="50"/>
	<text transform="matrix(1 0 0 1 157 134.5)" style="font-family:'ArialMT'; font-size:36;">C</text>
	<text transform="matrix(1 0 0 1 157 134.5)" style="fill:none;stroke:#000000; font-family:'ArialMT'; font-size:36;">C</text>
</g>
<g transform="translate(-100 -50)">
	<rect x="120" y="96.5" style="fill:none;stroke:#000000;stroke-width:5;" width="100" height="50"/>
	<text transform="matrix(1 0 0 1 154 134.5)" style="font-family:'ArialMT'; font-size:36;">W</text>
	<text transform="matrix(1 0 0 1 154 134.5)" style="fill:none;stroke:#000000; font-family:'ArialMT'; font-size:36;">W</text>
</g>
<g transform="translate(-100 0)">
	<rect x="120" y="98" style="fill:none;stroke:#000000;stroke-width:5;" width="100" height="50"/>
	<text transform="matrix(1 0 0 1 159 136)" style="font-family:'ArialMT'; font-size:36;">V</text>
	<text transform="matrix(1 0 0 1 159 136)" style="fill:none;stroke:#000000; font-family:'ArialMT'; font-size:36;">V</text>
</g>
<g transform="translate(-100 50)">
	<rect x="120" y="98" style="fill:none;stroke:#000000;stroke-width:5;" width="100" height="50"/>
	<text transform="matrix(1 0 0 1 159 136)" style="font-family:'ArialMT'; font-size:36;">T</text>
	<text transform="matrix(1 0 0 1 159 136)" style="fill:none;stroke:#000000; font-family:'ArialMT'; font-size:36;">T</text>
</g>
<g transform="translate(100 50)">
	<rect x="120.5" y="98" style="fill:none;stroke:#000000;stroke-width:5;" width="100" height="50"/>
	<text transform="matrix(1 0 0 1 157.5 136)" style="font-family:'ArialMT'; font-size:36;">N</text>
	<text transform="matrix(1 0 0 1 157.5 136)" style="fill:none;stroke:#000000; font-family:'ArialMT'; font-size:36;">N</text>
</g>
<g transform="translate(0 100)">
	<rect x="120" y="98" style="fill:none;stroke:#000000;stroke-width:5;" width="100" height="50"/>
	<text transform="matrix(1 0 0 1 158 136)" style="font-family:'ArialMT'; font-size:36;">Y</text>
	<text transform="matrix(1 0 0 1 158 136)" style="fill:none;stroke:#000000; font-family:'ArialMT'; font-size:36;">Y</text>
</g>
<g transform="translate(0 150)">
	<rect x="120" y="98" style="fill:none;stroke:#000000;stroke-width:5;" width="100" height="50"/>
	<text transform="matrix(1 0 0 1 156 136)" style="font-family:'ArialMT'; font-size:36;">Q</text>
	<text transform="matrix(1 0 0 1 156 136)" style="fill:none;stroke:#000000; font-family:'ArialMT'; font-size:36;">Q</text>
</g>
<g transform="translate(120 0)">
	<text transform="matrix(1 0 0 1 95 130)" style="font-family:'ArialMT'; font-size:24;">ANCHOR PT.</text>
	<text transform="matrix(1 0 0 1 95 130)" style="fill:none;stroke:#000000; font-family:'ArialMT'; font-size:24;">ANCHOR PT.</text>
</g>
<g>
	<line style="fill:none;stroke:#000000;stroke-width:3;" x1="212.266" y1="132.791" x2="170.265" y2="192.791"/>
	<polygon style="stroke:#000000;stroke-width:3;" points="170.088,193.209 172.945,182.483 178.529,186.615 	"/>
</g>
</svg>
