<?xml version="1.0" encoding="utf-8"?>
<!-- Generator: Adobe Illustrator 16.0.0, SVG Export Plug-In . SVG Version: 6.00 Build 0)  -->
<!DOCTYPE svg PUBLIC "-//W3C//DTD SVG 1.1//EN" "http://www.w3.org/Graphics/SVG/1.1/DTD/svg11.dtd">
<svg version="1.1" id="_9.GAR9----------X" xmlns="http://www.w3.org/2000/svg" xmlns:xlink="http://www.w3.org/1999/xlink" x="0px"
	 y="0px" width="400px" height="400px" viewBox="0 0 400 400" style="enable-background:new 0 0 400 400;" xml:space="preserve">
<g>
	<circle style="fill:#FFFF80;stroke:#000000;stroke-width:5;" cx="192.5" cy="229.5" r="40"/>
	<polyline style="fill:#FFFF80;stroke:#000000;stroke-width:5;" points="177.5,194.25 177.5,119.5 207.5,119.5 207.5,194.25 	"/>
	<text transform="matrix(1 0 0 1 180.5 239.5)" style="font-family:'ArialMT'; font-size:32;">C</text>
	<text transform="matrix(1 0 0 1 180.5 239.5)" style="fill:none;stroke:#000000; font-family:'ArialMT'; font-size:32;">C</text>
</g>
<g>
	<rect x="51.5" y="180" style="fill:#FFFFFF;stroke:#FFFFFF;" width="80" height="32"/>
	<text transform="matrix(1 0 0 1 53.5 209)" style="font-family:'ArialMT'; font-size:36;">CML</text>
	<text transform="matrix(1 0 0 1 53.5 209)" style="fill:none;stroke:#000000; font-family:'ArialMT'; font-size:36;">CML</text>
</g>
<g transform="translate(-100 -50)">
	<rect x="143" y="170" style="fill:none;stroke:#000000;stroke-width:5;" width="100" height="50"/>
	<text transform="matrix(1 0 0 1 177 208)" style="font-family:'ArialMT'; font-size:36;">W</text>
	<text transform="matrix(1 0 0 1 177 208)" style="fill:none;stroke:#000000; font-family:'ArialMT'; font-size:36;">W</text>
</g>
<g transform="translate(100 -50)">
	<rect x="143" y="169" style="fill:none;stroke:#000000;stroke-width:5;" width="100" height="50"/>
	<text transform="matrix(1 0 0 1 180 207)" style="font-family:'ArialMT'; font-size:36;">H</text>
	<text transform="matrix(1 0 0 1 180 207)" style="fill:none;stroke:#000000; font-family:'ArialMT'; font-size:36;">H</text>
</g>
<g transform="translate(100 50)">
	<rect x="143" y="173" style="fill:none;stroke:#000000;stroke-width:5;" width="100" height="50"/>
	<text transform="matrix(1 0 0 1 180 211)" style="font-family:'ArialMT'; font-size:36;">N</text>
	<text transform="matrix(1 0 0 1 180 211)" style="fill:none;stroke:#000000; font-family:'ArialMT'; font-size:36;">N</text>
</g>
<g transform="translate(-100 50)">
	<rect x="143" y="173" style="fill:none;stroke:#000000;stroke-width:5;" width="100" height="50"/>
	<text transform="matrix(1 0 0 1 182 211)" style="font-family:'ArialMT'; font-size:36;">T</text>
	<text transform="matrix(1 0 0 1 182 211)" style="fill:none;stroke:#000000; font-family:'ArialMT'; font-size:36;">T</text>
</g>
<g transform="translate(0 100)">
	<rect x="143" y="173" style="fill:none;stroke:#000000;stroke-width:5;" width="100" height="50"/>
	<text transform="matrix(1 0 0 1 181 211)" style="font-family:'ArialMT'; font-size:36;">Y</text>
	<text transform="matrix(1 0 0 1 181 211)" style="fill:none;stroke:#000000; font-family:'ArialMT'; font-size:36;">Y</text>
</g>
<g transform="translate(0 150)">
	<rect x="143" y="173" style="fill:none;stroke:#000000;stroke-width:5;" width="100" height="50"/>
	<text transform="matrix(1 0 0 1 179 211)" style="font-family:'ArialMT'; font-size:36;">Q</text>
	<text transform="matrix(1 0 0 1 179 211)" style="fill:none;stroke:#000000; font-family:'ArialMT'; font-size:36;">Q</text>
</g>
<g transform="translate(120 0)">
	<text transform="matrix(1 0 0 1 120 201)" style="font-family:'ArialMT'; font-size:24;">ANCHOR PT.</text>
	<text transform="matrix(1 0 0 1 120 201)" style="fill:none;stroke:#000000; font-family:'ArialMT'; font-size:24;">ANCHOR PT.</text>
</g>
<g>
	<line style="fill:none;stroke:#000000;stroke-width:3;" x1="236" y1="204" x2="194" y2="264"/>
	<polygon style="stroke:#000000;stroke-width:3;" points="193.823,264.419 196.68,253.693 202.264,257.824 	"/>
</g>
</svg>
