<?xml version="1.0" encoding="utf-8"?>
<!-- Generator: Adobe Illustrator 16.0.0, SVG Export Plug-In . SVG Version: 6.00 Build 0)  -->
<!DOCTYPE svg PUBLIC "-//W3C//DTD SVG 1.1//EN" "http://www.w3.org/Graphics/SVG/1.1/DTD/svg11.dtd">
<svg version="1.1" id="_3.GC------------X" xmlns="http://www.w3.org/2000/svg" xmlns:xlink="http://www.w3.org/1999/xlink" x="0px"
	 y="0px" width="400px" height="400px" viewBox="0 0 400 400" style="enable-background:new 0 0 400 400;" xml:space="preserve">
<g>
	<polygon style="fill:none;stroke:#000000;stroke-width:5;" points="58.5,298.5 198.5,56 338.5,298.5 	"/>
</g>
<g>
	<polygon style="fill:none;stroke:#000000;stroke-width:5;" points="122.5,222.5 272.5,222.5 247.5,275.5 147.5,275.5 	"/>
	<line style="fill:none;stroke:#000000;stroke-width:5;" x1="86.5" y1="250.5" x2="134.5" y2="250.5"/>
	<line style="fill:none;stroke:#000000;stroke-width:5;" x1="260.5" y1="250.5" x2="308.5" y2="250.5"/>
</g>
<g>
	<line style="fill:none;stroke:#000000;stroke-width:3;" x1="193.57" y1="209.016" x2="91.5" y2="79"/>
	<polygon style="stroke:#000000;stroke-width:3;" points="198.329,214.84 194.818,205.114 189.396,209.296 	"/>
</g>
<g transform="translate(-135 -150)">
	<text transform="matrix(1 0 0 1 178 196)" style="font-family:'ArialMT'; font-size:24;">CENTER</text>
	<text transform="matrix(1 0 0 1 178 196)" style="fill:none;stroke:#000000; font-family:'ArialMT'; font-size:24;">CENTER</text>
	<text transform="matrix(1 0 0 1 189 221)" style="font-family:'ArialMT'; font-size:24;">POINT</text>
	<text transform="matrix(1 0 0 1 189 221)" style="fill:none;stroke:#000000; font-family:'ArialMT'; font-size:24;">POINT</text>
</g>
</svg>
