<?xml version="1.0" encoding="utf-8"?>
<!-- Generator: Adobe Illustrator 16.0.0, SVG Export Plug-In . SVG Version: 6.00 Build 0)  -->
<!DOCTYPE svg PUBLIC "-//W3C//DTD SVG 1.1//EN" "http://www.w3.org/Graphics/SVG/1.1/DTD/svg11.dtd">
<svg version="1.1" id="Version_1.0" xmlns="http://www.w3.org/2000/svg" xmlns:xlink="http://www.w3.org/1999/xlink" x="0px"
	 y="0px" width="612px" height="792px" viewBox="0 0 612 792" style="enable-background:new 0 0 612 792;" xml:space="preserve">
<g id="octagon" style="display:none;">
	<g id="outFrame" style="display:inline;">
		<line style="fill:none;stroke:#0000FF;stroke-width:2;" x1="220" y1="479.5" x2="183.5" y2="393.5"/>
		<line style="fill:none;stroke:#0000FF;stroke-width:2;" x1="183.5" y1="393.5" x2="220" y2="309"/>
		<line style="fill:none;stroke:#0000FF;stroke-width:2;" x1="220" y1="309" x2="306.5" y2="272.5"/>
		<line style="fill:none;stroke:#0000FF;stroke-width:2;" x1="306.5" y1="272.5" x2="393" y2="309"/>
		<line style="fill:none;stroke:#0000FF;stroke-width:2;" x1="393" y1="309" x2="426.5" y2="393.5"/>
		<line style="fill:none;stroke:#0000FF;stroke-width:2;" x1="426.5" y1="393.5" x2="393" y2="479.5"/>
		<line style="fill:none;stroke:#0000FF;stroke-width:2;" x1="393" y1="479.5" x2="306.5" y2="516.5"/>
		<line style="fill:none;stroke:#0000FF;stroke-width:2;" x1="306.5" y1="516.5" x2="220" y2="479.5"/>
	</g>
</g>
<g>
	<path style="fill:#FFFF80;stroke:#000000;stroke-width:5;" d="M293.5,315.5h30v75l35,75h-100l35-75V315.5z"/>
	<text transform="matrix(1 0 0 1 297.5 440.5)" style="font-family:'sans-serif'; font-size:32;">B</text>
	<text transform="matrix(1 0 0 1 297.5 440.5)" style="fill:none;stroke:#000000; font-family:'sans-serif'; font-size:32;">B</text>
</g>
<g>
	<rect x="159.5" y="376.5" style="fill:#FFFFFF;stroke:#FFFFFF;" width="66" height="32"/>
	<text transform="matrix(1 0 0 1 161.5 405.5)" style="font-family:'sans-serif'; font-size:36;">BIO</text>
	<text transform="matrix(1 0 0 1 161.5 405.5)" style="fill:none;stroke:#000000; font-family:'sans-serif'; font-size:36;">BIO</text>
</g>
</svg>
