<?xml version="1.0" encoding="utf-8"?>
<!-- Generator: Adobe Illustrator 16.0.0, SVG Export Plug-In . SVG Version: 6.00 Build 0)  -->
<!DOCTYPE svg PUBLIC "-//W3C//DTD SVG 1.1//EN" "http://www.w3.org/Graphics/SVG/1.1/DTD/svg11.dtd">
<svg version="1.1" id="_3.I-A-SCC--------" xmlns="http://www.w3.org/2000/svg" xmlns:xlink="http://www.w3.org/1999/xlink" x="0px"
	 y="0px" width="400px" height="400px" viewBox="0 0 400 400" style="enable-background:new 0 0 400 400;" xml:space="preserve">
<g>
	<text transform="matrix(1 0 0 1 179.5 198.5)" style="font-family:'ArialMT'; font-size:60;">G</text>
</g>
<g>
	<line style="fill:none;stroke:#000000;stroke-width:10;" x1="174" y1="378" x2="227" y2="378"/>
	<line style="fill:none;stroke:#000000;stroke-width:10;" x1="201" y1="378" x2="201" y2="253"/>
	<path style="fill:none;stroke:#000000;stroke-width:10;" d="M191,234l-38-13l11-17l-35-11"/>
	<path style="fill:none;stroke:#000000;stroke-width:10;" d="M211,234l38-13l-11-17l35-11"/>
	<path style="fill:none;stroke:#000000;stroke-width:10;" d="M191,248l-38,14l11,16l-35,12"/>
	<path style="fill:none;stroke:#000000;stroke-width:10;" d="M211,248l38,14l-11,16l35,12"/>
</g>
<g>
	<text transform="matrix(1 0 0 1 138 344)" style="font-family:'ArialMT'; font-size:60;">C</text>
	<text transform="matrix(1 0 0 1 218 344)" style="font-family:'ArialMT'; font-size:60;">M</text>
</g>
<g id="octagon" style="display:none;">
	<g id="outFrame" style="display:inline;">
		<line style="fill:none;stroke:#0000FF;stroke-width:2;" x1="115" y1="356.5" x2="78.5" y2="270.5"/>
		<line style="fill:none;stroke:#0000FF;stroke-width:2;" x1="78.5" y1="270.5" x2="115" y2="186"/>
		<line style="fill:none;stroke:#0000FF;stroke-width:2;" x1="115" y1="186" x2="201.5" y2="149.5"/>
		<line style="fill:none;stroke:#0000FF;stroke-width:2;" x1="201.5" y1="149.5" x2="288" y2="186"/>
		<line style="fill:none;stroke:#0000FF;stroke-width:2;" x1="288" y1="186" x2="321.5" y2="270.5"/>
		<line style="fill:none;stroke:#0000FF;stroke-width:2;" x1="321.5" y1="270.5" x2="288" y2="356.5"/>
		<line style="fill:none;stroke:#0000FF;stroke-width:2;" x1="288" y1="356.5" x2="201.5" y2="393.5"/>
		<line style="fill:none;stroke:#0000FF;stroke-width:2;" x1="201.5" y1="393.5" x2="115" y2="356.5"/>
	</g>
</g>
</svg>
