<?xml version="1.0" encoding="utf-8"?>
<!-- Generator: Adobe Illustrator 16.0.0, SVG Export Plug-In . SVG Version: 6.00 Build 0)  -->
<!DOCTYPE svg PUBLIC "-//W3C//DTD SVG 1.1//EN" "http://www.w3.org/Graphics/SVG/1.1/DTD/svg11.dtd">
<svg version="1.1" id="_3.I---SRI--------" xmlns="http://www.w3.org/2000/svg" xmlns:xlink="http://www.w3.org/1999/xlink" x="0px"
	 y="0px" width="400px" height="400px" viewBox="0 0 400 400" style="enable-background:new 0 0 400 400;" xml:space="preserve">
<g>
	<text transform="matrix(1 0 0 1 176.5 135.5)" style="font-family:'ArialMT'; font-size:60;">G</text>
</g>
<g transform="translate(32 50) scale(0.8 0.8)">
	<g transform="translate(-57 -20) scale(1.38 1.38)">
		<path style="fill:none;stroke:#000000;stroke-width:10;" d="M138.188,124.058c0,55,30,75,80,70"/>
		<polyline style="fill:none;stroke:#000000;stroke-width:10;" points="143.189,159.058 198.189,119.058 198.189,159.058 
			253.188,119.058 		"/>
	</g>
</g>
<g>
	<text transform="matrix(1 0 0 1 103 245)" style="font-family:'ArialMT'; font-size:60;">I</text>
	<text transform="matrix(1 0 0 1 263 245)" style="font-family:'ArialMT'; font-size:60;">F</text>
</g>
<g id="octagon" style="display:none;">
	<g id="outFrame" style="display:inline;">
		<line style="fill:none;stroke:#0000FF;stroke-width:2;" x1="115" y1="284.5" x2="78.5" y2="198.5"/>
		<line style="fill:none;stroke:#0000FF;stroke-width:2;" x1="78.5" y1="198.5" x2="115" y2="114"/>
		<line style="fill:none;stroke:#0000FF;stroke-width:2;" x1="115" y1="114" x2="201.5" y2="77.5"/>
		<line style="fill:none;stroke:#0000FF;stroke-width:2;" x1="201.5" y1="77.5" x2="288" y2="114"/>
		<line style="fill:none;stroke:#0000FF;stroke-width:2;" x1="288" y1="114" x2="321.5" y2="198.5"/>
		<line style="fill:none;stroke:#0000FF;stroke-width:2;" x1="321.5" y1="198.5" x2="288" y2="284.5"/>
		<line style="fill:none;stroke:#0000FF;stroke-width:2;" x1="288" y1="284.5" x2="201.5" y2="321.5"/>
		<line style="fill:none;stroke:#0000FF;stroke-width:2;" x1="201.5" y1="321.5" x2="115" y2="284.5"/>
	</g>
</g>
</svg>
