<?xml version="1.0" encoding="utf-8"?>
<!-- Generator: Adobe Illustrator 16.0.0, SVG Export Plug-In . SVG Version: 6.00 Build 0)  -->
<!DOCTYPE svg PUBLIC "-//W3C//DTD SVG 1.1//EN" "http://www.w3.org/Graphics/SVG/1.1/DTD/svg11.dtd">
<svg version="1.1" id="_3.I-G-SCT--------" xmlns="http://www.w3.org/2000/svg" xmlns:xlink="http://www.w3.org/1999/xlink" x="0px"
	 y="0px" width="400px" height="400px" viewBox="0 0 400 400" style="enable-background:new 0 0 400 400;" xml:space="preserve">
<g>
	<text transform="matrix(1 0 0 1 178.5 149.5)" style="font-family:'ArialMT'; font-size:60;">G</text>
</g>
<g>
	<line style="fill:none;stroke:#000000;stroke-width:10;" x1="173" y1="329" x2="226" y2="329"/>
	<line style="fill:none;stroke:#000000;stroke-width:10;" x1="200" y1="329" x2="200" y2="204"/>
	<path style="fill:none;stroke:#000000;stroke-width:10;" d="M190,185l-38-13l11-17l-35-11"/>
	<path style="fill:none;stroke:#000000;stroke-width:10;" d="M210,185l38-13l-11-17l35-11"/>
	<path style="fill:none;stroke:#000000;stroke-width:10;" d="M190,199l-38,14l11,16l-35,12"/>
	<path style="fill:none;stroke:#000000;stroke-width:10;" d="M210,199l38,14l-11,16l35,12"/>
</g>
<g>
	<text transform="matrix(1 0 0 1 141 294)" style="font-family:'ArialMT'; font-size:60;">T</text>
	<text transform="matrix(1 0 0 1 221 294)" style="font-family:'ArialMT'; font-size:60;">S</text>
</g>
<g id="octagon" style="display:none;">
	<g id="outFrame" style="display:inline;">
		<line style="fill:none;stroke:#0000FF;stroke-width:2;" x1="115" y1="308.5" x2="78.5" y2="222.5"/>
		<line style="fill:none;stroke:#0000FF;stroke-width:2;" x1="78.5" y1="222.5" x2="115" y2="138"/>
		<line style="fill:none;stroke:#0000FF;stroke-width:2;" x1="115" y1="138" x2="201.5" y2="101.5"/>
		<line style="fill:none;stroke:#0000FF;stroke-width:2;" x1="201.5" y1="101.5" x2="288" y2="138"/>
		<line style="fill:none;stroke:#0000FF;stroke-width:2;" x1="288" y1="138" x2="321.5" y2="222.5"/>
		<line style="fill:none;stroke:#0000FF;stroke-width:2;" x1="321.5" y1="222.5" x2="288" y2="308.5"/>
		<line style="fill:none;stroke:#0000FF;stroke-width:2;" x1="288" y1="308.5" x2="201.5" y2="345.5"/>
		<line style="fill:none;stroke:#0000FF;stroke-width:2;" x1="201.5" y1="345.5" x2="115" y2="308.5"/>
	</g>
</g>
</svg>
