<?xml version="1.0" encoding="utf-8"?>
<!-- Generator: Adobe Illustrator 16.0.0, SVG Export Plug-In . SVG Version: 6.00 Build 0)  -->
<!DOCTYPE svg PUBLIC "-//W3C//DTD SVG 1.1//EN" "http://www.w3.org/Graphics/SVG/1.1/DTD/svg11.dtd">
<svg version="1.1" id="_3.I---SRT--------" xmlns="http://www.w3.org/2000/svg" xmlns:xlink="http://www.w3.org/1999/xlink" x="0px"
	 y="0px" width="400px" height="400px" viewBox="0 0 400 400" style="enable-background:new 0 0 400 400;" xml:space="preserve">
<g>
	<text transform="matrix(1 0 0 1 178.5 104.5)" style="font-family:'ArialMT'; font-size:60;">S</text>
</g>
<g transform="translate(32 50) scale(0.8 0.8)">
	<g transform="translate(-57 -20) scale(1.38 1.38)">
		<path style="fill:none;stroke:#000000;stroke-width:10;" d="M138.188,95.978c0,55,30,75,80,70"/>
		<polyline style="fill:none;stroke:#000000;stroke-width:10;" points="143.189,130.978 198.189,90.978 198.189,130.978 
			253.188,90.978 		"/>
	</g>
</g>
<g>
	<text transform="matrix(1 0 0 1 94 215)" style="font-family:'ArialMT'; font-size:60;">T</text>
	<text transform="matrix(1 0 0 1 264 215)" style="font-family:'ArialMT'; font-size:60;">A</text>
</g>
<g id="octagon" style="display:none;">
	<g id="outFrame" style="display:inline;">
		<line style="fill:none;stroke:#0000FF;stroke-width:2;" x1="115" y1="236.5" x2="78.5" y2="150.5"/>
		<line style="fill:none;stroke:#0000FF;stroke-width:2;" x1="78.5" y1="150.5" x2="115" y2="66"/>
		<line style="fill:none;stroke:#0000FF;stroke-width:2;" x1="115" y1="66" x2="201.5" y2="29.5"/>
		<line style="fill:none;stroke:#0000FF;stroke-width:2;" x1="201.5" y1="29.5" x2="288" y2="66"/>
		<line style="fill:none;stroke:#0000FF;stroke-width:2;" x1="288" y1="66" x2="321.5" y2="150.5"/>
		<line style="fill:none;stroke:#0000FF;stroke-width:2;" x1="321.5" y1="150.5" x2="288" y2="236.5"/>
		<line style="fill:none;stroke:#0000FF;stroke-width:2;" x1="288" y1="236.5" x2="201.5" y2="273.5"/>
		<line style="fill:none;stroke:#0000FF;stroke-width:2;" x1="201.5" y1="273.5" x2="115" y2="236.5"/>
	</g>
</g>
</svg>
