<?xml version="1.0" encoding="utf-8"?>
<!-- Generator: Adobe Illustrator 16.0.0, SVG Export Plug-In . SVG Version: 6.00 Build 0)  -->
<!DOCTYPE svg PUBLIC "-//W3C//DTD SVG 1.1//EN" "http://www.w3.org/Graphics/SVG/1.1/DTD/svg11.dtd">
<svg version="1.1" id="_2.I-A-SCS--------" xmlns="http://www.w3.org/2000/svg" xmlns:xlink="http://www.w3.org/1999/xlink" x="0px"
	 y="0px" width="400px" height="400px" viewBox="0 0 400 400" style="enable-background:new 0 0 400 400;" xml:space="preserve">
<g>
	<line style="fill:none;stroke:#000000;stroke-width:10;" x1="174.5" y1="299.5" x2="227.5" y2="299.5"/>
	<line style="fill:none;stroke:#000000;stroke-width:10;" x1="201.5" y1="299.5" x2="201.5" y2="174.5"/>
	<path style="fill:none;stroke:#000000;stroke-width:10;" d="M191.5,155.5l-38-13l11-17l-35-11"/>
	<path style="fill:none;stroke:#000000;stroke-width:10;" d="M211.5,155.5l38-13l-11-17l35-11"/>
	<path style="fill:none;stroke:#000000;stroke-width:10;" d="M191.5,169.5l-38,14l11,16l-35,12"/>
	<path style="fill:none;stroke:#000000;stroke-width:10;" d="M211.5,169.5l38,14l-11,16l35,12"/>
</g>
<g>
	<text transform="matrix(1 0 0 1 141 274)" style="font-family:'ArialMT'; font-size:60;">S</text>
	<text transform="matrix(1 0 0 1 221 274)" style="font-family:'ArialMT'; font-size:60;">U</text>
</g>
<g id="octagon" style="display:none;">
	<g id="outFrame" style="display:inline;">
		<line style="fill:none;stroke:#0000FF;stroke-width:2;" x1="115" y1="284.5" x2="78.5" y2="198.5"/>
		<line style="fill:none;stroke:#0000FF;stroke-width:2;" x1="78.5" y1="198.5" x2="115" y2="114"/>
		<line style="fill:none;stroke:#0000FF;stroke-width:2;" x1="115" y1="114" x2="201.5" y2="77.5"/>
		<line style="fill:none;stroke:#0000FF;stroke-width:2;" x1="201.5" y1="77.5" x2="288" y2="114"/>
		<line style="fill:none;stroke:#0000FF;stroke-width:2;" x1="288" y1="114" x2="321.5" y2="198.5"/>
		<line style="fill:none;stroke:#0000FF;stroke-width:2;" x1="321.5" y1="198.5" x2="288" y2="284.5"/>
		<line style="fill:none;stroke:#0000FF;stroke-width:2;" x1="288" y1="284.5" x2="201.5" y2="321.5"/>
		<line style="fill:none;stroke:#0000FF;stroke-width:2;" x1="201.5" y1="321.5" x2="115" y2="284.5"/>
	</g>
</g>
</svg>
