<?xml version="1.0" encoding="utf-8"?>
<!-- Generator: Adobe Illustrator 16.0.0, SVG Export Plug-In . SVG Version: 6.00 Build 0)  -->
<!DOCTYPE svg PUBLIC "-//W3C//DTD SVG 1.1//EN" "http://www.w3.org/Graphics/SVG/1.1/DTD/svg11.dtd">
<svg version="1.1" id="_2.S-A-WMU--------" xmlns="http://www.w3.org/2000/svg" xmlns:xlink="http://www.w3.org/1999/xlink" x="0px"
	 y="0px" width="400px" height="400px" viewBox="0 0 400 400" style="enable-background:new 0 0 400 400;" xml:space="preserve">
<g>
	<polyline style="fill:none;stroke:#000000;stroke-width:10;" points="186.5,164.5 186.5,109.5 201.5,84.5 216.5,109.5 216.5,164.5 
			"/>
	<polyline style="fill:none;stroke:#000000;stroke-width:10;" points="216.5,239.5 216.5,254.5 231.5,269.5 231.5,299.5 
		201.5,269.5 171.5,299.5 171.5,269.5 186.5,254.5 186.5,239.5 	"/>
</g>
<g>
	<text transform="matrix(1 0 0 1 108.4731 231)" style="font-family:'Arial-BoldMT'; font-size:90;">SUS</text>
</g>
<g id="octagon" style="display:none;">
	<g id="outFrame" style="display:inline;">
		<line style="fill:none;stroke:#0000FF;stroke-width:2;" x1="115" y1="284.5" x2="78.5" y2="198.5"/>
		<line style="fill:none;stroke:#0000FF;stroke-width:2;" x1="78.5" y1="198.5" x2="115" y2="114"/>
		<line style="fill:none;stroke:#0000FF;stroke-width:2;" x1="115" y1="114" x2="201.5" y2="77.5"/>
		<line style="fill:none;stroke:#0000FF;stroke-width:2;" x1="201.5" y1="77.5" x2="288" y2="114"/>
		<line style="fill:none;stroke:#0000FF;stroke-width:2;" x1="288" y1="114" x2="321.5" y2="198.5"/>
		<line style="fill:none;stroke:#0000FF;stroke-width:2;" x1="321.5" y1="198.5" x2="288" y2="284.5"/>
		<line style="fill:none;stroke:#0000FF;stroke-width:2;" x1="288" y1="284.5" x2="201.5" y2="321.5"/>
		<line style="fill:none;stroke:#0000FF;stroke-width:2;" x1="201.5" y1="321.5" x2="115" y2="284.5"/>
	</g>
	
		<line id="mod2_1_" style="display:inline;fill:none;stroke:#0000FF;stroke-width:2;" x1="250.515" y1="300.534" x2="250.795" y2="98.301"/>
	
		<line id="mod1_1_" style="display:inline;fill:none;stroke:#0000FF;stroke-width:2;" x1="152.485" y1="300.534" x2="152.205" y2="98.301"/>
</g>
</svg>
