<?xml version="1.0" encoding="utf-8"?>
<!-- Generator: Adobe Illustrator 16.0.0, SVG Export Plug-In . SVG Version: 6.00 Build 0)  -->
<!DOCTYPE svg PUBLIC "-//W3C//DTD SVG 1.1//EN" "http://www.w3.org/Graphics/SVG/1.1/DTD/svg11.dtd">
<svg version="1.1" id="_1.S-A-WM---------" xmlns="http://www.w3.org/2000/svg" xmlns:xlink="http://www.w3.org/1999/xlink" x="0px"
	 y="0px" width="400px" height="400px" viewBox="0 0 400 400" style="enable-background:new 0 0 400 400;" xml:space="preserve">
<g>
	<polyline style="fill:none;stroke:#000000;stroke-width:10;" points="200.5,10 215.5,35 215.5,180 230.5,195 230.5,225 200.5,195 
		170.5,225 170.5,195 185.5,180 185.5,35 200.5,10 	"/>
</g>
<g id="octagon" style="display:none;">
	<g id="outFrame" style="display:inline;">
		<line style="fill:none;stroke:#0000FF;stroke-width:2;" x1="115" y1="213.5" x2="78.5" y2="127.5"/>
		<line style="fill:none;stroke:#0000FF;stroke-width:2;" x1="78.5" y1="127.5" x2="115" y2="43"/>
		<line style="fill:none;stroke:#0000FF;stroke-width:2;" x1="115" y1="43" x2="201.5" y2="6.5"/>
		<line style="fill:none;stroke:#0000FF;stroke-width:2;" x1="201.5" y1="6.5" x2="288" y2="43"/>
		<line style="fill:none;stroke:#0000FF;stroke-width:2;" x1="288" y1="43" x2="321.5" y2="127.5"/>
		<line style="fill:none;stroke:#0000FF;stroke-width:2;" x1="321.5" y1="127.5" x2="288" y2="213.5"/>
		<line style="fill:none;stroke:#0000FF;stroke-width:2;" x1="288" y1="213.5" x2="201.5" y2="250.5"/>
		<line style="fill:none;stroke:#0000FF;stroke-width:2;" x1="201.5" y1="250.5" x2="115" y2="213.5"/>
	</g>
	
		<line id="mod2_1_" style="display:inline;fill:none;stroke:#0000FF;stroke-width:2;" x1="250.515" y1="229.534" x2="250.795" y2="27.301"/>
	
		<line id="mod1_1_" style="display:inline;fill:none;stroke:#0000FF;stroke-width:2;" x1="152.485" y1="229.534" x2="152.205" y2="27.301"/>
</g>
</svg>
