<?xml version="1.0" encoding="utf-8"?>
<!-- Generator: Adobe Illustrator 16.0.0, SVG Export Plug-In . SVG Version: 6.00 Build 0)  -->
<!DOCTYPE svg PUBLIC "-//W3C//DTD SVG 1.1//EN" "http://www.w3.org/Graphics/SVG/1.1/DTD/svg11.dtd">
<svg version="1.1" id="_2.S-A-MFH--------" xmlns="http://www.w3.org/2000/svg" xmlns:xlink="http://www.w3.org/1999/xlink" x="0px"
	 y="0px" width="400px" height="400px" viewBox="0 0 400 400" style="enable-background:new 0 0 400 400;" xml:space="preserve">
<g>
	<polyline points="126.5,172.384 126.5,204.176 201.5,251.861 276.5,204.176 276.5,172.384 201.5,220.07 	"/>
</g>
<g transform="matrix(0.5 0 0 0.5 100.15 42.5)">
	<text transform="matrix(1.8873 0 0 2 161.5516 255)" style="font-family:'Arial-BoldMT'; font-size:59.608;">H</text>
</g>
<g id="octagon" style="display:none;">
	<g id="outFrame" style="display:inline;">
		<line style="fill:none;stroke:#0000FF;stroke-width:2;" x1="115" y1="285.5" x2="78.5" y2="199.5"/>
		<line style="fill:none;stroke:#0000FF;stroke-width:2;" x1="78.5" y1="199.5" x2="115" y2="115"/>
		<line style="fill:none;stroke:#0000FF;stroke-width:2;" x1="115" y1="115" x2="201.5" y2="78.5"/>
		<line style="fill:none;stroke:#0000FF;stroke-width:2;" x1="201.5" y1="78.5" x2="288" y2="115"/>
		<line style="fill:none;stroke:#0000FF;stroke-width:2;" x1="288" y1="115" x2="321.5" y2="199.5"/>
		<line style="fill:none;stroke:#0000FF;stroke-width:2;" x1="321.5" y1="199.5" x2="288" y2="285.5"/>
		<line style="fill:none;stroke:#0000FF;stroke-width:2;" x1="288" y1="285.5" x2="201.5" y2="322.5"/>
		<line style="fill:none;stroke:#0000FF;stroke-width:2;" x1="201.5" y1="322.5" x2="115" y2="285.5"/>
	</g>
	
		<line id="mod2_1_" style="display:inline;fill:none;stroke:#0000FF;stroke-width:2;" x1="250.515" y1="301.534" x2="250.795" y2="99.301"/>
	
		<line id="mod1_1_" style="display:inline;fill:none;stroke:#0000FF;stroke-width:2;" x1="152.485" y1="301.534" x2="152.205" y2="99.301"/>
</g>
</svg>
