<?xml version="1.0" encoding="utf-8"?>
<!-- Generator: Adobe Illustrator 16.0.0, SVG Export Plug-In . SVG Version: 6.00 Build 0)  -->
<!DOCTYPE svg PUBLIC "-//W3C//DTD SVG 1.1//EN" "http://www.w3.org/Graphics/SVG/1.1/DTD/svg11.dtd">
<svg version="1.1" id="_2.S-G-UCM--------" xmlns="http://www.w3.org/2000/svg" xmlns:xlink="http://www.w3.org/1999/xlink" x="0px"
	 y="0px" width="400px" height="400px" viewBox="0 0 400 400" style="enable-background:new 0 0 400 400;" xml:space="preserve">
<g transform="translate(60 109) scale(0.7 0.7)">
	<ellipse style="fill:none;stroke:#000000;stroke-width:10;" cx="202.383" cy="204.188" rx="84.526" ry="84.526"/>
	<line style="fill:none;stroke:#000000;stroke-width:10;" x1="134.763" y1="157.699" x2="270.004" y2="250.678"/>
	<line style="fill:none;stroke:#000000;stroke-width:10;" x1="134.763" y1="250.678" x2="270.004" y2="157.699"/>
	<line style="fill:none;stroke:#000000;stroke-width:10;" x1="202.383" y1="119.662" x2="202.383" y2="288.714"/>
</g>
<g transform="translate(80 19) scale(0.6 0.6)">
	<path style="fill:none;stroke:#000000;stroke-width:10;" d="M170.203,273.933V134.465c0-26.414,63.394-26.414,63.394,0v139.469"/>
	<line style="fill:none;stroke:#000000;stroke-width:10;" x1="201.899" y1="273.933" x2="201.899" y2="113.333"/>
</g>
<g id="octagon" style="display:none;">
	<g id="outFrame" style="display:inline;">
		<line style="fill:none;stroke:#0000FF;stroke-width:2;" x1="115" y1="285.5" x2="78.5" y2="199.5"/>
		<line style="fill:none;stroke:#0000FF;stroke-width:2;" x1="78.5" y1="199.5" x2="115" y2="115"/>
		<line style="fill:none;stroke:#0000FF;stroke-width:2;" x1="115" y1="115" x2="201.5" y2="78.5"/>
		<line style="fill:none;stroke:#0000FF;stroke-width:2;" x1="201.5" y1="78.5" x2="288" y2="115"/>
		<line style="fill:none;stroke:#0000FF;stroke-width:2;" x1="288" y1="115" x2="321.5" y2="199.5"/>
		<line style="fill:none;stroke:#0000FF;stroke-width:2;" x1="321.5" y1="199.5" x2="288" y2="285.5"/>
		<line style="fill:none;stroke:#0000FF;stroke-width:2;" x1="288" y1="285.5" x2="201.5" y2="322.5"/>
		<line style="fill:none;stroke:#0000FF;stroke-width:2;" x1="201.5" y1="322.5" x2="115" y2="285.5"/>
	</g>
	
		<line id="mod2_1_" style="display:inline;fill:none;stroke:#0000FF;stroke-width:2;" x1="250.515" y1="301.534" x2="250.795" y2="99.301"/>
	
		<line id="mod1_1_" style="display:inline;fill:none;stroke:#0000FF;stroke-width:2;" x1="152.485" y1="301.534" x2="152.205" y2="99.301"/>
</g>
</svg>
