<?xml version="1.0" encoding="utf-8"?>
<!-- Generator: Adobe Illustrator 16.0.0, SVG Export Plug-In . SVG Version: 6.00 Build 0)  -->
<!DOCTYPE svg PUBLIC "-//W3C//DTD SVG 1.1//EN" "http://www.w3.org/Graphics/SVG/1.1/DTD/svg11.dtd">
<svg version="1.1" id="Version_1.0" xmlns="http://www.w3.org/2000/svg" xmlns:xlink="http://www.w3.org/1999/xlink" x="0px"
	 y="0px" width="612px" height="792px" viewBox="0 0 612 792" style="enable-background:new 0 0 612 792;" xml:space="preserve">
<g id="octagon" style="display:none;">
	<g id="outFrame" style="display:inline;">
		<line style="fill:none;stroke:#0000FF;stroke-width:2;" x1="220" y1="479.5" x2="183.5" y2="393.5"/>
		<line style="fill:none;stroke:#0000FF;stroke-width:2;" x1="183.5" y1="393.5" x2="220" y2="309"/>
		<line style="fill:none;stroke:#0000FF;stroke-width:2;" x1="220" y1="309" x2="306.5" y2="272.5"/>
		<line style="fill:none;stroke:#0000FF;stroke-width:2;" x1="306.5" y1="272.5" x2="393" y2="309"/>
		<line style="fill:none;stroke:#0000FF;stroke-width:2;" x1="393" y1="309" x2="426.5" y2="393.5"/>
		<line style="fill:none;stroke:#0000FF;stroke-width:2;" x1="426.5" y1="393.5" x2="393" y2="479.5"/>
		<line style="fill:none;stroke:#0000FF;stroke-width:2;" x1="393" y1="479.5" x2="306.5" y2="516.5"/>
		<line style="fill:none;stroke:#0000FF;stroke-width:2;" x1="306.5" y1="516.5" x2="220" y2="479.5"/>
	</g>
</g>
<g id="frame" style="display:none;">
	<path style="display:inline;fill:none;stroke:#0042E9;stroke-width:5;" d="M221,481c0,115,170,115,170,0c115,0,115-170,0-170
		c0-115-170-115-170,0C106,311,106,481,221,481z"/>
</g>
<g>
	<path style="fill:none;stroke:#000000;stroke-width:10;" d="M285.461,422.048V328.21c0-17.771,40.91-17.771,40.91,0v93.838"/>
</g>
<g>
	<path style="fill:none;stroke:#000000;stroke-width:10;" d="M340.008,314.702c23.863,0,23.863,46.919,0,46.919h-68.184
		c-23.863,0-23.863-46.919,0-46.919H340.008z"/>
	<text transform="matrix(0.9591 0 0 1 291.144 354.5137)" style="font-family:'Arial-BoldMT'; font-size:42.654;">C</text>
</g>
<g>
	<path style="fill:none;stroke:#000000;stroke-width:10;" d="M185.916,464.702c51.819-99.527,188.181-99.527,240,0H185.916z"/>
</g>
</svg>
