<?xml version="1.0" encoding="utf-8"?>
<!-- Generator: Adobe Illustrator 16.0.0, SVG Export Plug-In . SVG Version: 6.00 Build 0)  -->
<!DOCTYPE svg PUBLIC "-//W3C//DTD SVG 1.1//EN" "http://www.w3.org/Graphics/SVG/1.1/DTD/svg11.dtd">
<svg version="1.1" id="_3.S-G-UCAW-------" xmlns="http://www.w3.org/2000/svg" xmlns:xlink="http://www.w3.org/1999/xlink" x="0px"
	 y="0px" width="400px" height="400px" viewBox="0 0 400 400" style="enable-background:new 0 0 400 400;" xml:space="preserve">
<g>
	<line style="fill:none;stroke:#000000;stroke-width:10;" x1="321" y1="121.5" x2="81" y2="279.5"/>
</g>
<g transform="translate(0 22) scale(1 0.8)">
	<path style="fill:none;stroke:#000000;stroke-width:10;" d="M140.5,140c-60,0-60,120,0,120h120c60,0,60-120,0-120H140.5z"/>
</g>
<g transform="translate(0 5)">
	<ellipse style="fill:none;stroke:#000000;stroke-width:10;" cx="122" cy="246" rx="13" ry="13"/>
	<ellipse style="fill:none;stroke:#000000;stroke-width:10;" cx="202" cy="246" rx="13" ry="13"/>
	<ellipse style="fill:none;stroke:#000000;stroke-width:10;" cx="282" cy="246" rx="13" ry="13"/>
</g>
<g id="frame" style="display:none;">
	<path style="display:inline;fill:none;stroke:#0042E9;stroke-width:5;" d="M115,285c0,115,170,115,170,0c115,0,115-170,0-170
		c0-115-170-115-170,0C0,115,0,285,115,285z"/>
</g>
</svg>
