<?xml version="1.0" encoding="utf-8"?>
<!-- Generator: Adobe Illustrator 19.2.0, SVG Export Plug-In . SVG Version: 6.00 Build 0)  -->
<svg version="1.1" id="Version_1.0" xmlns="http://www.w3.org/2000/svg" xmlns:xlink="http://www.w3.org/1999/xlink" x="0px"
	 y="0px" width="612px" height="792px" viewBox="0 0 612 792" style="enable-background:new 0 0 612 792;" xml:space="preserve">
<g id="octagon" style="display:none;">
	<g id="outFrame" style="display:inline;">
		<line style="fill:none;stroke:#0000FF;stroke-width:2;" x1="220" y1="309.5" x2="306" y2="273"/>
		<line style="fill:none;stroke:#0000FF;stroke-width:2;" x1="306" y1="273" x2="390.5" y2="309.5"/>
		<line style="fill:none;stroke:#0000FF;stroke-width:2;" x1="390.5" y1="309.5" x2="427" y2="396"/>
		<line style="fill:none;stroke:#0000FF;stroke-width:2;" x1="427" y1="396" x2="390.5" y2="482.5"/>
		<line style="fill:none;stroke:#0000FF;stroke-width:2;" x1="390.5" y1="482.5" x2="306" y2="516"/>
		<line style="fill:none;stroke:#0000FF;stroke-width:2;" x1="306" y1="516" x2="220" y2="482.5"/>
		<line style="fill:none;stroke:#0000FF;stroke-width:2;" x1="220" y1="482.5" x2="183" y2="396"/>
		<line style="fill:none;stroke:#0000FF;stroke-width:2;" x1="183" y1="396" x2="220" y2="309.5"/>
	</g>
	<line id="mod2_1_" style="display:inline;fill:none;stroke:#0000FF;stroke-width:2;" x1="204" y1="445" x2="406.2" y2="445.3"/>
	<line id="mod1_1_" style="display:inline;fill:none;stroke:#0000FF;stroke-width:2;" x1="204" y1="347" x2="406.2" y2="346.7"/>
</g>
<g>
	<path style="fill:none;stroke:#000000;stroke-width:10;" d="M276,441V309c0-25,60-25,60,0v132"/>
</g>
<g>
	<path style="fill:none;stroke:#000000;stroke-width:10;" d="M356,290c35,0,35,66,0,66H256c-35,0-35-66,0-66H356z"/>
	<text transform="matrix(1 0 0 1 284.335 346)" style="font-family:'Arial-BoldMT'; font-size:60px;">C</text>
</g>
<g>
	<path style="fill:none;stroke:#000000;stroke-width:10;" d="M130,501c76-140,276-140,352,0H130z"/>
</g>
</svg>
