<?xml version="1.0" encoding="utf-8"?>
<!-- Generator: Adobe Illustrator 16.0.0, SVG Export Plug-In . SVG Version: 6.00 Build 0)  -->
<!DOCTYPE svg PUBLIC "-//W3C//DTD SVG 1.1//EN" "http://www.w3.org/Graphics/SVG/1.1/DTD/svg11.dtd">
<svg version="1.1" id="Version_1.0" xmlns="http://www.w3.org/2000/svg" xmlns:xlink="http://www.w3.org/1999/xlink" x="0px"
	 y="0px" width="612px" height="792px" viewBox="0 0 612 792" style="enable-background:new 0 0 612 792;" xml:space="preserve">
<g id="octagon" style="display:none;">
	<g id="outFrame" style="display:inline;">
		<line style="fill:none;stroke:#0000FF;stroke-width:2;" x1="220" y1="479.5" x2="183.5" y2="393.5"/>
		<line style="fill:none;stroke:#0000FF;stroke-width:2;" x1="183.5" y1="393.5" x2="220" y2="309"/>
		<line style="fill:none;stroke:#0000FF;stroke-width:2;" x1="220" y1="309" x2="306.5" y2="272.5"/>
		<line style="fill:none;stroke:#0000FF;stroke-width:2;" x1="306.5" y1="272.5" x2="393" y2="309"/>
		<line style="fill:none;stroke:#0000FF;stroke-width:2;" x1="393" y1="309" x2="426.5" y2="393.5"/>
		<line style="fill:none;stroke:#0000FF;stroke-width:2;" x1="426.5" y1="393.5" x2="393" y2="479.5"/>
		<line style="fill:none;stroke:#0000FF;stroke-width:2;" x1="393" y1="479.5" x2="306.5" y2="516.5"/>
		<line style="fill:none;stroke:#0000FF;stroke-width:2;" x1="306.5" y1="516.5" x2="220" y2="479.5"/>
	</g>
</g>
<g id="frame" style="display:none;">
	
		<rect id="_x3C_path_x3E_" x="126.082" y="276" style="display:inline;fill:none;stroke:#3A58A7;stroke-width:5;" width="360" height="240"/>
</g>
<g transform="translate(40 17) scale(0.8 0.8)">
	<path style="fill:none;stroke:#010101;stroke-width:10;" d="M321.842,398.683l9.931-21.021l9.932,21.021H321.842z"/>
	<line style="fill:none;stroke:#010101;stroke-width:10;" x1="331.773" y1="377.662" x2="331.773" y2="523.181"/>
	<ellipse style="fill:none;stroke:#010101;stroke-width:10;" cx="331.773" cy="535.309" rx="12.91" ry="10.509"/>
</g>
<g transform="translate(0 60)">
	<path style="fill:none;stroke:#010101;stroke-width:10;" d="M126.669,406.299c0,2.424,32.77,8.896,32.77-15.36
		c0-24.253,41.708-24.253,41.708,0c0,24.256,41.709,24.256,41.709,0c0-24.253,41.709-24.253,41.709,0
		c0,24.256,41.711,24.256,41.711,0c0-24.253,41.704-24.253,41.704,0c0,24.256,41.71,24.256,41.71,0c0-24.253,41.709-24.253,41.709,0
		c0,24.256,32.77,17.784,32.77,15.36"/>
</g>
</svg>
