<?xml version="1.0" encoding="utf-8"?>
<!-- Generator: Adobe Illustrator 16.0.0, SVG Export Plug-In . SVG Version: 6.00 Build 0)  -->
<!DOCTYPE svg PUBLIC "-//W3C//DTD SVG 1.1//EN" "http://www.w3.org/Graphics/SVG/1.1/DTD/svg11.dtd">
<svg version="1.1" id="_2.S-A-MFY--------" xmlns="http://www.w3.org/2000/svg" xmlns:xlink="http://www.w3.org/1999/xlink" x="0px"
	 y="0px" width="400px" height="400px" viewBox="0 0 400 400" style="enable-background:new 0 0 400 400;" xml:space="preserve">
<g>
	<polyline points="200.5,202.5 110.5,152.5 110.5,252.5 200.5,202.5 290.5,152.5 290.5,252.5 200.5,202.5 	"/>
</g>
<g transform="translate(100 30) scale(0.5 0.5)">
	<text transform="matrix(2 0 0 2 149.9756 234)" style="font-family:'Arial-BoldMT'; font-size:75;">Y</text>
</g>
<g id="octagon" style="display:none;">
	<g id="outFrame" style="display:inline;">
		<line style="fill:none;stroke:#0000FF;stroke-width:2;" x1="115" y1="114.5" x2="201" y2="78"/>
		<line style="fill:none;stroke:#0000FF;stroke-width:2;" x1="201" y1="78" x2="285.5" y2="114.5"/>
		<line style="fill:none;stroke:#0000FF;stroke-width:2;" x1="285.5" y1="114.5" x2="322" y2="201"/>
		<line style="fill:none;stroke:#0000FF;stroke-width:2;" x1="322" y1="201" x2="285.5" y2="287.5"/>
		<line style="fill:none;stroke:#0000FF;stroke-width:2;" x1="285.5" y1="287.5" x2="201" y2="321"/>
		<line style="fill:none;stroke:#0000FF;stroke-width:2;" x1="201" y1="321" x2="115" y2="287.5"/>
		<line style="fill:none;stroke:#0000FF;stroke-width:2;" x1="115" y1="287.5" x2="78" y2="201"/>
		<line style="fill:none;stroke:#0000FF;stroke-width:2;" x1="78" y1="201" x2="115" y2="114.5"/>
	</g>
	
		<line id="mod2_1_" style="display:inline;fill:none;stroke:#0000FF;stroke-width:2;" x1="98.966" y1="250.015" x2="301.199" y2="250.295"/>
	
		<line id="mod1_1_" style="display:inline;fill:none;stroke:#0000FF;stroke-width:2;" x1="98.966" y1="151.985" x2="301.199" y2="151.705"/>
</g>
</svg>
