<?xml version="1.0" encoding="utf-8"?>
<!-- Generator: Adobe Illustrator 16.0.0, SVG Export Plug-In . SVG Version: 6.00 Build 0)  -->
<!DOCTYPE svg PUBLIC "-//W3C//DTD SVG 1.1//EN" "http://www.w3.org/Graphics/SVG/1.1/DTD/svg11.dtd">
<svg version="1.1" id="_3.SUG-UUMSEC-----" xmlns="http://www.w3.org/2000/svg" xmlns:xlink="http://www.w3.org/1999/xlink" x="0px"
	 y="0px" width="400px" height="400px" viewBox="0 0 400 400" style="enable-background:new 0 0 400 400;" xml:space="preserve">
<g>
	<line style="fill:none;stroke:#000000;stroke-width:10;" x1="140" y1="200.5" x2="260" y2="200.5"/>
	<path style="fill:none;stroke:#000000;stroke-width:10;" d="M285,175.5c-35,0-35,50,0,50"/>
	<path style="fill:none;stroke:#000000;stroke-width:10;" d="M115,175.5c35,0,35,50,0,50"/>
</g>
<g transform="translate(80 21) scale(0.6 0.6)">
	<path style="fill:none;stroke:#000000;stroke-width:10;" d="M169.167,276V144c0-25,60-25,60,0v132"/>
	<line style="fill:none;stroke:#000000;stroke-width:10;" x1="199.167" y1="276" x2="199.167" y2="124"/>
</g>
<g>
	<polyline style="fill:none;stroke:#000000;stroke-width:10;" points="351,139 311,199 351,259 	"/>
</g>
<g id="frame" style="display:none;">
	<path style="display:inline;fill:none;stroke:#0042E9;stroke-width:5;" d="M115,285c0,115,170,115,170,0c115,0,115-170,0-170
		c0-115-170-115-170,0C0,115,0,285,115,285z"/>
</g>
</svg>
