<?xml version="1.0" encoding="utf-8"?>
<!-- Generator: Adobe Illustrator 16.0.0, SVG Export Plug-In . SVG Version: 6.00 Build 0)  -->
<!DOCTYPE svg PUBLIC "-//W3C//DTD SVG 1.1//EN" "http://www.w3.org/Graphics/SVG/1.1/DTD/svg11.dtd">
<svg version="1.1" id="_2.S-G-UCIN-------" xmlns="http://www.w3.org/2000/svg" xmlns:xlink="http://www.w3.org/1999/xlink" x="0px"
	 y="0px" width="400px" height="400px" viewBox="0 0 400 400" style="enable-background:new 0 0 400 400;" xml:space="preserve">
<g>
	<line style="fill:none;stroke:#000000;stroke-width:10;" x1="321" y1="122.5" x2="81" y2="280.5"/>
	<line style="fill:none;stroke:#000000;stroke-width:10;" x1="81" y1="122.5" x2="321" y2="280.5"/>
</g>
<g>
	<g>
		<ellipse style="fill:none;stroke:#000000;stroke-width:10;" cx="200.5" cy="105" rx="16" ry="16"/>
		<line style="fill:none;stroke:#000000;stroke-width:10;" x1="200.5" y1="121" x2="200.5" y2="281"/>
		<line style="fill:none;stroke:#000000;stroke-width:10;" x1="120.5" y1="131" x2="280.5" y2="131"/>
		<path style="stroke:#000000;stroke-width:10;" d="M100.5,201c50,100,150,100,200,0C250.5,316,150.5,316,100.5,201"/>
		<path style="stroke:#000000;stroke-width:10;" d="M100.5,201c8,45,13,45,13,45l15-20c-13-5-18-15-25-22"/>
		<path style="stroke:#000000;stroke-width:10;" d="M300.5,201c-8,45-13,45-13,45l-15-20c13-5,18-15,25-22"/>
	</g>
</g>
<g id="frame" style="display:none;">
	<path style="display:inline;fill:none;stroke:#0042E9;stroke-width:5;" d="M115,285c0,115,170,115,170,0c115,0,115-170,0-170
		c0-115-170-115-170,0C0,115,0,285,115,285z"/>
</g>
</svg>
