<?xml version="1.0" encoding="utf-8"?>
<!-- Generator: Adobe Illustrator 16.0.0, SVG Export Plug-In . SVG Version: 6.00 Build 0)  -->
<!DOCTYPE svg PUBLIC "-//W3C//DTD SVG 1.1//EN" "http://www.w3.org/Graphics/SVG/1.1/DTD/svg11.dtd">
<svg version="1.1" id="Version_1.0" xmlns="http://www.w3.org/2000/svg" xmlns:xlink="http://www.w3.org/1999/xlink" x="0px"
	 y="0px" width="612px" height="792px" viewBox="0 0 612 792" style="enable-background:new 0 0 612 792;" xml:space="preserve">
<g id="octagon" style="display:none;">
	<g id="outFrame" style="display:inline;">
		<line style="fill:none;stroke:#0000FF;stroke-width:2;" x1="220" y1="479.5" x2="183.5" y2="393.5"/>
		<line style="fill:none;stroke:#0000FF;stroke-width:2;" x1="183.5" y1="393.5" x2="220" y2="309"/>
		<line style="fill:none;stroke:#0000FF;stroke-width:2;" x1="220" y1="309" x2="306.5" y2="272.5"/>
		<line style="fill:none;stroke:#0000FF;stroke-width:2;" x1="306.5" y1="272.5" x2="393" y2="309"/>
		<line style="fill:none;stroke:#0000FF;stroke-width:2;" x1="393" y1="309" x2="426.5" y2="393.5"/>
		<line style="fill:none;stroke:#0000FF;stroke-width:2;" x1="426.5" y1="393.5" x2="393" y2="479.5"/>
		<line style="fill:none;stroke:#0000FF;stroke-width:2;" x1="393" y1="479.5" x2="306.5" y2="516.5"/>
		<line style="fill:none;stroke:#0000FF;stroke-width:2;" x1="306.5" y1="516.5" x2="220" y2="479.5"/>
	</g>
</g>
<g id="frame" style="display:none;">
	<rect x="174" y="264" style="display:inline;fill:none;stroke:#3A58A7;stroke-width:5;" width="264" height="264"/>
</g>
<g>
	<path style="fill:none;stroke:#000000;stroke-width:10;" d="M283.416,451.905v-160.15c0-30.33,45.001-30.33,45.001,0v160.15"/>
</g>
<g>
	<path style="fill:none;stroke:#000000;stroke-width:10;" d="M343.417,268.702c26.249,0,26.249,80.076,0,80.076h-75.002
		c-26.25,0-26.25-80.076,0-80.076H343.417z"/>
	<text transform="matrix(0.6182 0 0 1 289.667 336.6484)" style="font-family:'Arial-BoldMT'; font-size:72.7962;">C</text>
</g>
<g>
	<path style="fill:none;stroke:#000000;stroke-width:10;" d="M173.916,524.702c57-169.859,206.999-169.859,264,0H173.916z"/>
</g>
</svg>
