<?xml version="1.0" encoding="utf-8"?>
<!-- Generator: Adobe Illustrator 16.0.0, SVG Export Plug-In . SVG Version: 6.00 Build 0)  -->
<!DOCTYPE svg PUBLIC "-//W3C//DTD SVG 1.1//EN" "http://www.w3.org/Graphics/SVG/1.1/DTD/svg11.dtd">
<svg version="1.1" id="_3.S-G-UCFRST-----" xmlns="http://www.w3.org/2000/svg" xmlns:xlink="http://www.w3.org/1999/xlink" x="0px"
	 y="0px" width="400px" height="400px" viewBox="0 0 400 400" style="enable-background:new 0 0 400 400;" xml:space="preserve">
<g>
	<ellipse style="stroke:#000000;stroke-width:10;" cx="200.5" cy="200.5" rx="18" ry="18"/>
</g>
<g>
	<line style="fill:none;stroke:#000000;stroke-width:10;" x1="202" y1="100" x2="150" y2="160"/>
	<line style="fill:none;stroke:#000000;stroke-width:10;" x1="198" y1="100" x2="250" y2="160"/>
	<line style="fill:none;stroke:#000000;stroke-width:10;" x1="202" y1="130" x2="150" y2="190"/>
	<line style="fill:none;stroke:#000000;stroke-width:10;" x1="198" y1="130" x2="250" y2="190"/>
</g>
<g>
	<ellipse style="fill:none;stroke:#000000;stroke-width:10;" cx="120" cy="240" rx="13" ry="13"/>
	<ellipse style="fill:none;stroke:#000000;stroke-width:10;" cx="280" cy="240" rx="13" ry="13"/>
	<line style="fill:none;stroke:#000000;stroke-width:10;" x1="133" y1="240" x2="267" y2="240"/>
</g>
<g id="frame" style="display:none;">
	<path style="display:inline;fill:none;stroke:#0042E9;stroke-width:5;" d="M115,285c0,115,170,115,170,0c115,0,115-170,0-170
		c0-115-170-115-170,0C0,115,0,285,115,285z"/>
</g>
</svg>
