<?xml version="1.0" encoding="utf-8"?>
<!-- Generator: Adobe Illustrator 16.0.0, SVG Export Plug-In . SVG Version: 6.00 Build 0)  -->
<!DOCTYPE svg PUBLIC "-//W3C//DTD SVG 1.1//EN" "http://www.w3.org/Graphics/SVG/1.1/DTD/svg11.dtd">
<svg version="1.1" id="_2.SUG-UUMSEJ-----" xmlns="http://www.w3.org/2000/svg" xmlns:xlink="http://www.w3.org/1999/xlink" x="0px"
	 y="0px" width="400px" height="400px" viewBox="0 0 400 400" style="enable-background:new 0 0 400 400;" xml:space="preserve">
<g transform="translate(0 40)">
	<text transform="matrix(1 0 0 1 127.4829 231.75)" style="font-family:'Arial-BoldMT'; font-size:90;">EW</text>
</g>
<g>
	<g>
		<g>
			<defs>
				<path id="SVGID_1_" d="M114.471,284.25c0,115,170,115,170,0c115,0,115-170,0-170c0-115-170-115-170,0
					C-0.529,114.25-0.529,284.25,114.471,284.25z"/>
			</defs>
			<clipPath id="SVGID_2_">
				<use xlink:href="#SVGID_1_"  style="overflow:visible;"/>
			</clipPath>
			<g style="clip-path:url(#SVGID_2_);">
				<path style="fill:none;stroke:#000000;stroke-width:10;" d="M4,127.787c0,1.733,21.175,6.355,21.175-10.978
					c0-17.333,26.95-17.333,26.95,0c0,17.333,26.95,17.333,26.95,0c0-17.333,26.95-17.333,26.95,0c0,17.333,26.949,17.333,26.949,0
					c0-17.333,26.951-17.333,26.951,0c0,17.333,26.949,17.333,26.949,0c0-17.333,26.95-17.333,26.95,0
					c0,17.333,21.175,12.711,21.175,10.978"/>
				<path style="fill:none;stroke:#000000;stroke-width:10;" d="M221.333,128.12c0,1.733,21.176,6.355,21.176-10.978
					s26.95-17.333,26.95,0s26.949,17.333,26.949,0s26.95-17.333,26.95,0s26.95,17.333,26.95,0s26.95-17.333,26.95,0
					s26.95,17.333,26.95,0s26.949-17.333,26.949,0s21.176,12.711,21.176,10.978"/>
				<path style="fill:none;stroke:#000000;stroke-width:10;" d="M3,158.787c0,1.733,21.175,6.355,21.175-10.978
					c0-17.333,26.95-17.333,26.95,0c0,17.333,26.95,17.333,26.95,0c0-17.333,26.95-17.333,26.95,0c0,17.333,26.949,17.333,26.949,0
					c0-17.333,26.951-17.333,26.951,0c0,17.333,26.949,17.333,26.949,0c0-17.333,26.95-17.333,26.95,0
					c0,17.333,21.175,12.711,21.175,10.978"/>
				<path style="fill:none;stroke:#000000;stroke-width:10;" d="M220.333,159.12c0,1.733,21.175,6.355,21.175-10.978
					c0-17.333,26.95-17.333,26.95,0c0,17.333,26.95,17.333,26.95,0c0-17.333,26.95-17.333,26.95,0c0,17.333,26.95,17.333,26.95,0
					c0-17.333,26.949-17.333,26.949,0c0,17.333,26.95,17.333,26.95,0c0-17.333,26.95-17.333,26.95,0
					c0,17.333,21.175,12.711,21.175,10.978"/>
			</g>
		</g>
	</g>
</g>
</svg>
