<?xml version="1.0" encoding="utf-8"?>
<!-- Generator: Adobe Illustrator 16.0.0, SVG Export Plug-In . SVG Version: 6.00 Build 0)  -->
<!DOCTYPE svg PUBLIC "-//W3C//DTD SVG 1.1//EN" "http://www.w3.org/Graphics/SVG/1.1/DTD/svg11.dtd">
<svg version="1.1" id="Version_1.0" xmlns="http://www.w3.org/2000/svg" xmlns:xlink="http://www.w3.org/1999/xlink" x="0px"
	 y="0px" width="612px" height="792px" viewBox="0 0 612 792" style="enable-background:new 0 0 612 792;" xml:space="preserve">
<g id="octagon" style="display:none;">
	<g id="outFrame" style="display:inline;">
		<line style="fill:none;stroke:#0000FF;stroke-width:2;" x1="220" y1="479.5" x2="183.5" y2="393.5"/>
		<line style="fill:none;stroke:#0000FF;stroke-width:2;" x1="183.5" y1="393.5" x2="220" y2="309"/>
		<line style="fill:none;stroke:#0000FF;stroke-width:2;" x1="220" y1="309" x2="306.5" y2="272.5"/>
		<line style="fill:none;stroke:#0000FF;stroke-width:2;" x1="306.5" y1="272.5" x2="393" y2="309"/>
		<line style="fill:none;stroke:#0000FF;stroke-width:2;" x1="393" y1="309" x2="426.5" y2="393.5"/>
		<line style="fill:none;stroke:#0000FF;stroke-width:2;" x1="426.5" y1="393.5" x2="393" y2="479.5"/>
		<line style="fill:none;stroke:#0000FF;stroke-width:2;" x1="393" y1="479.5" x2="306.5" y2="516.5"/>
		<line style="fill:none;stroke:#0000FF;stroke-width:2;" x1="306.5" y1="516.5" x2="220" y2="479.5"/>
	</g>
</g>
<g id="frame_1_" style="display:none;">
	<path style="display:inline;fill:none;stroke:#0042E9;stroke-width:5;" d="M221,481c0,115,170,115,170,0c115,0,115-170,0-170
		c0-115-170-115-170,0C106,311,106,481,221,481z"/>
</g>
<g>
	<path style="fill:none;stroke:#010101;stroke-width:10;" d="M141.654,406.733c0,2.849,30.262,10.565,30.262-18.283
		c0-28.851,38.503-28.851,38.503,0c0,28.85,38.502,28.85,38.502,0c0-28.851,38.486-28.851,38.486,0c0,28.85,38.519,28.85,38.519,0
		c0-28.851,38.459-28.851,38.459,0c0,28.85,38.546,28.85,38.546,0c0-28.851,38.459-28.851,38.459,0
		c0,28.85,30.265,21.133,30.265,18.283"/>
</g>
<g transform="translate(0 28) scale(1 0.8)">
	<path style="fill:none;stroke:#010101;stroke-width:10;" d="M251.668,378.438c-55.029,0-55.029,115.375,0,115.375h110.015
		c54.941,0,54.941-115.375,0-115.375H251.668z"/>
</g>
<g transform="translate(0 5)">
	<path style="fill:none;stroke:#010101;stroke-width:10;" d="M233.326,419.033c6.588,0,11.919,5.586,11.919,12.482
		c0,6.897-5.331,12.484-11.919,12.484c-6.588,0-11.919-5.586-11.919-12.483C221.407,424.62,226.737,419.033,233.326,419.033z"/>
	<path style="fill:none;stroke:#010101;stroke-width:10;" d="M306.654,419.033c6.545,0,11.919,5.586,11.919,12.482
		c0,6.897-5.374,12.484-11.919,12.484c-6.589,0-11.919-5.586-11.919-12.483C294.735,424.62,300.065,419.033,306.654,419.033z"/>
	<path style="fill:none;stroke:#010101;stroke-width:10;" d="M380.025,419.033c6.545,0,11.92,5.586,11.92,12.482
		c0,6.897-5.375,12.484-11.92,12.484c-6.633,0-11.919-5.586-11.919-12.483C368.106,424.62,373.394,419.033,380.025,419.033z"/>
</g>
<g>
	<line style="fill:none;stroke:#010101;stroke-width:10;" x1="279.139" y1="468.267" x2="334.125" y2="468.267"/>
	<path style="fill:none;stroke:#010101;stroke-width:10;" d="M265.403,455.733c13.734,0,13.734,25.017,0,25.017"/>
	<path style="fill:none;stroke:#010101;stroke-width:10;" d="M347.903,455.733c-13.778,0-13.778,25.017,0,25.017"/>
</g>
</svg>
