<?xml version="1.0" encoding="utf-8"?>
<!-- Generator: Adobe Illustrator 19.2.0, SVG Export Plug-In . SVG Version: 6.00 Build 0)  -->
<svg version="1.1" id="Version_1.0" xmlns="http://www.w3.org/2000/svg" xmlns:xlink="http://www.w3.org/1999/xlink" x="0px"
	 y="0px" width="612px" height="792px" viewBox="0 0 612 792" style="enable-background:new 0 0 612 792;" xml:space="preserve">
<g id="octagon" style="display:none;">
	<g id="outFrame" style="display:inline;">
		<line style="fill:none;stroke:#3A53A4;stroke-width:2;" x1="221" y1="303.5" x2="307" y2="267"/>
		<line style="fill:none;stroke:#3A53A4;stroke-width:2;" x1="307" y1="267" x2="391.5" y2="303.5"/>
		<line style="fill:none;stroke:#3A53A4;stroke-width:2;" x1="391.5" y1="303.5" x2="428" y2="390"/>
		<line style="fill:none;stroke:#3A53A4;stroke-width:2;" x1="428" y1="390" x2="391.5" y2="476.5"/>
		<line style="fill:none;stroke:#3A53A4;stroke-width:2;" x1="391.5" y1="476.5" x2="307" y2="510"/>
		<line style="fill:none;stroke:#3A53A4;stroke-width:2;" x1="307" y1="510" x2="221" y2="476.5"/>
		<line style="fill:none;stroke:#3A53A4;stroke-width:2;" x1="221" y1="476.5" x2="184" y2="390"/>
		<line style="fill:none;stroke:#3A53A4;stroke-width:2;" x1="184" y1="390" x2="221" y2="303.5"/>
	</g>
	<line id="mod2_1_" style="display:inline;fill:none;stroke:#3A53A4;stroke-width:2;" x1="205" y1="439" x2="407.2" y2="439.3"/>
	<line id="mod1_1_" style="display:inline;fill:none;stroke:#3A53A4;stroke-width:2;" x1="205" y1="341" x2="407.2" y2="340.7"/>
</g>
<g>
	<line style="fill:none;stroke:#010101;stroke-width:10;" x1="306" y1="303.5" x2="306" y2="498.5"/>
	<line style="fill:none;stroke:#010101;stroke-width:10;" x1="241" y1="308.5" x2="371" y2="308.5"/>
</g>
<g transform="translate(80 160) scale(0.6 0.6)">
	<text transform="matrix(1.6667 0 0 1.6667 322.5039 552.4998)" style="fill:#010101; font-family:'ArialMT'; font-size:90px;">C</text>
</g>
<g id="main">
	<polyline id="_x3C_path_x3E_" style="fill:none;stroke:#010101;stroke-width:5;stroke-miterlimit:1;" points="127,280.1 
		304.1,423.5 304.9,372.5 484.5,512 	"/>
</g>
</svg>
