<?xml version="1.0" encoding="utf-8"?>
<!-- Generator: Adobe Illustrator 16.0.0, SVG Export Plug-In . SVG Version: 6.00 Build 0)  -->
<!DOCTYPE svg PUBLIC "-//W3C//DTD SVG 1.1//EN" "http://www.w3.org/Graphics/SVG/1.1/DTD/svg11.dtd">
<svg version="1.1" id="_2.SHG-UCATW------" xmlns="http://www.w3.org/2000/svg" xmlns:xlink="http://www.w3.org/1999/xlink" x="0px"
	 y="0px" width="400px" height="400px" viewBox="0 0 400 400" style="enable-background:new 0 0 400 400;" xml:space="preserve">
<g transform="translate(21 0) scale(0.9 0.9)">
	<text transform="matrix(1.1111 0 0 1.1111 108.2509 220.3331)" style="font-family:'Arial-BoldMT'; font-size:81;">SEC</text>
</g>
<g transform="translate(40 80) scale(0.8 0.8)">
	<path style="fill:none;stroke:#000000;stroke-width:10;" d="M44.25,204.25c3-1.001,9-8,9-18c0-30,42-30,42,0s42,30,42,0
		s42.001-30,42.001,0s42,30,42,0s42.001-30,42.001,0s42,30,42,0s42-30,42,0c0,10,6.001,17,9,18"/>
</g>
<g id="frame" style="display:none;">
	<polyline id="_x3C_path_x3E_" style="display:inline;fill:none;stroke:#3A58A7;stroke-width:5;stroke-linecap:square;" points="
		200,373 373,200 200,27 27,200 200,373 	"/>
</g>
</svg>
