<?xml version="1.0" encoding="utf-8"?>
<!-- Generator: Adobe Illustrator 16.0.0, SVG Export Plug-In . SVG Version: 6.00 Build 0)  -->
<!DOCTYPE svg PUBLIC "-//W3C//DTD SVG 1.1//EN" "http://www.w3.org/Graphics/SVG/1.1/DTD/svg11.dtd">
<svg version="1.1" id="_1.S-G-EXM--------" xmlns="http://www.w3.org/2000/svg" xmlns:xlink="http://www.w3.org/1999/xlink" x="0px"
	 y="0px" width="400px" height="400px" viewBox="0 0 400 400" style="enable-background:new 0 0 400 400;" xml:space="preserve">
<g>
	<g transform="translate(124 123) scale(5 5)">
		<path d="M15.514,36.427L-2.408,0.3H33.77L15.514,36.427z M-0.544,2.069l16.07,31.065l16.03-31.065H-0.544z M19.412,16.224V9.616
			l-2.274,6.608L14.36,16.21l-2.32-6.534v6.548H9.681V5.903h3.451l2.633,6.942l2.622-6.942h3.384v10.321H19.412z"/>
	</g>
</g>
<g id="octagon" style="display:none;">
	<g id="outFrame" style="display:inline;">
		<line style="fill:none;stroke:#0000FF;stroke-width:2;" x1="115" y1="285.5" x2="78.5" y2="199.5"/>
		<line style="fill:none;stroke:#0000FF;stroke-width:2;" x1="78.5" y1="199.5" x2="115" y2="115"/>
		<line style="fill:none;stroke:#0000FF;stroke-width:2;" x1="115" y1="115" x2="201.5" y2="78.5"/>
		<line style="fill:none;stroke:#0000FF;stroke-width:2;" x1="201.5" y1="78.5" x2="288" y2="115"/>
		<line style="fill:none;stroke:#0000FF;stroke-width:2;" x1="288" y1="115" x2="321.5" y2="199.5"/>
		<line style="fill:none;stroke:#0000FF;stroke-width:2;" x1="321.5" y1="199.5" x2="288" y2="285.5"/>
		<line style="fill:none;stroke:#0000FF;stroke-width:2;" x1="288" y1="285.5" x2="201.5" y2="322.5"/>
		<line style="fill:none;stroke:#0000FF;stroke-width:2;" x1="201.5" y1="322.5" x2="115" y2="285.5"/>
	</g>
</g>
</svg>
