<?xml version="1.0" encoding="utf-8"?>
<!-- Generator: Adobe Illustrator 16.0.0, SVG Export Plug-In . SVG Version: 6.00 Build 0)  -->
<!DOCTYPE svg PUBLIC "-//W3C//DTD SVG 1.1//EN" "http://www.w3.org/Graphics/SVG/1.1/DTD/svg11.dtd">
<svg version="1.1" id="Version_1.0" xmlns="http://www.w3.org/2000/svg" xmlns:xlink="http://www.w3.org/1999/xlink" x="0px"
	 y="0px" width="612px" height="792px" viewBox="0 0 612 792" style="enable-background:new 0 0 612 792;" xml:space="preserve">
<g id="frame" style="display:none;">
	<rect x="174" y="263" style="display:inline;fill:none;stroke:#3A58A7;stroke-width:5;" width="264" height="264"/>
</g>
<g transform="translate(0 40)">
	<text transform="matrix(1 0 0 1 236.0122 428.5)" style="font-family:'sans-serif'; font-size:90;">EW</text>
</g>
<g>
	<g>
		<g>
			<g>
				<path style="fill:none;stroke:#000000;stroke-width:10;" d="M179.109,312.831c0-18.138,28.202-18.138,28.202,0
					c0,18.139,28.201,18.139,28.201,0c0-18.138,28.204-18.138,28.204,0c0,18.139,28.201,18.139,28.201,0
					c0-18.138,28.202-18.138,28.202,0c0,18.139,22.158,13.302,22.158,11.488"/>
				<path style="fill:none;stroke:#000000;stroke-width:10;" d="M100.546,324.319"/>
				<path style="fill:none;stroke:#000000;stroke-width:10;" d="M327.975,324.668c0,1.814,22.16,6.65,22.16-11.488
					c0-18.139,28.201-18.139,28.201,0c0,18.138,28.201,18.138,28.201,0c0-18.139,28.202-18.139,28.202,0"/>
				<path style="fill:none;stroke:#000000;stroke-width:10;" d="M178.063,345.271c0-18.138,28.202-18.138,28.202,0
					c0,18.139,28.201,18.139,28.201,0c0-18.138,28.204-18.138,28.204,0c0,18.139,28.201,18.139,28.201,0
					c0-18.138,28.203-18.138,28.203,0c0,18.139,22.157,13.301,22.157,11.488"/>
				<path style="fill:none;stroke:#000000;stroke-width:10;" d="M99.5,356.759"/>
				<path style="fill:none;stroke:#000000;stroke-width:10;" d="M546.5,345.62"/>
				<path style="fill:none;stroke:#000000;stroke-width:10;" d="M490.097,345.62"/>
				<path style="fill:none;stroke:#000000;stroke-width:10;" d="M326.928,357.107c0,1.814,22.159,6.65,22.159-11.487
					c0-18.139,28.202-18.139,28.202,0c0,18.138,28.201,18.138,28.201,0c0-18.139,28.202-18.139,28.202,0"/>
			</g>
		</g>
	</g>
</g>
</svg>
