<?xml version="1.0" encoding="utf-8"?>
<!-- Generator: Adobe Illustrator 16.0.0, SVG Export Plug-In . SVG Version: 6.00 Build 0)  -->
<!DOCTYPE svg PUBLIC "-//W3C//DTD SVG 1.1//EN" "http://www.w3.org/Graphics/SVG/1.1/DTD/svg11.dtd">
<svg version="1.1" id="_2.SNG-UUMSEJ-----" xmlns="http://www.w3.org/2000/svg" xmlns:xlink="http://www.w3.org/1999/xlink" x="0px"
	 y="0px" width="400px" height="400px" viewBox="0 0 400 400" style="enable-background:new 0 0 400 400;" xml:space="preserve">
<g transform="translate(0 40)">
	<text transform="matrix(1 0 0 1 127.4829 231.5)" style="font-family:'Arial-BoldMT'; font-size:90;">EW</text>
</g>
<g>
	<g>
		<g>
			<defs>
				<rect id="SVGID_1_" x="67.471" y="67" width="264" height="264"/>
			</defs>
			<clipPath id="SVGID_2_">
				<use xlink:href="#SVGID_1_"  style="overflow:visible;"/>
			</clipPath>
			<g style="clip-path:url(#SVGID_2_);">
				<path style="fill:none;stroke:#000000;stroke-width:10;" d="M4,127.537c0,1.733,21.175,6.355,21.175-10.978
					c0-17.333,26.95-17.333,26.95,0c0,17.333,26.95,17.333,26.95,0c0-17.333,26.95-17.333,26.95,0c0,17.333,26.949,17.333,26.949,0
					c0-17.333,26.951-17.333,26.951,0c0,17.333,26.949,17.333,26.949,0c0-17.333,26.95-17.333,26.95,0
					c0,17.333,21.175,12.711,21.175,10.978"/>
				<path style="fill:none;stroke:#000000;stroke-width:10;" d="M221.333,127.87c0,1.733,21.176,6.355,21.176-10.978
					s26.95-17.333,26.95,0s26.949,17.333,26.949,0s26.95-17.333,26.95,0s26.95,17.333,26.95,0s26.95-17.333,26.95,0
					s26.95,17.333,26.95,0s26.949-17.333,26.949,0s21.176,12.711,21.176,10.978"/>
				<path style="fill:none;stroke:#000000;stroke-width:10;" d="M3,158.537c0,1.733,21.175,6.355,21.175-10.978
					c0-17.333,26.95-17.333,26.95,0c0,17.333,26.95,17.333,26.95,0c0-17.333,26.95-17.333,26.95,0c0,17.333,26.949,17.333,26.949,0
					c0-17.333,26.951-17.333,26.951,0c0,17.333,26.949,17.333,26.949,0c0-17.333,26.95-17.333,26.95,0
					c0,17.333,21.175,12.711,21.175,10.978"/>
				<path style="fill:none;stroke:#000000;stroke-width:10;" d="M220.333,158.87c0,1.733,21.175,6.355,21.175-10.978
					c0-17.333,26.95-17.333,26.95,0c0,17.333,26.95,17.333,26.95,0c0-17.333,26.95-17.333,26.95,0c0,17.333,26.95,17.333,26.95,0
					c0-17.333,26.949-17.333,26.949,0c0,17.333,26.95,17.333,26.95,0c0-17.333,26.95-17.333,26.95,0
					c0,17.333,21.175,12.711,21.175,10.978"/>
			</g>
		</g>
	</g>
</g>
<g id="frame" style="display:none;">
	<rect x="68" y="68" style="display:inline;fill:none;stroke:#3A58A7;stroke-width:5;" width="264" height="264"/>
</g>
</svg>
