<?xml version="1.0" encoding="utf-8"?>
<!-- Generator: Adobe Illustrator 16.0.0, SVG Export Plug-In . SVG Version: 6.00 Build 0)  -->
<!DOCTYPE svg PUBLIC "-//W3C//DTD SVG 1.1//EN" "http://www.w3.org/Graphics/SVG/1.1/DTD/svg11.dtd">
<svg version="1.1" id="Version_1.0" xmlns="http://www.w3.org/2000/svg" xmlns:xlink="http://www.w3.org/1999/xlink" x="0px"
	 y="0px" width="612px" height="792px" viewBox="0 0 612 792" style="enable-background:new 0 0 612 792;" xml:space="preserve">
<g id="frame" style="display:none;">
	<polyline id="_x3C_path_x3E_" style="display:inline;fill:none;stroke:#3A58A7;stroke-width:5;stroke-linecap:square;" points="
		306,568 479,395 306,222 133,395 306,568 	"/>
</g>
<g transform="translate(21 0) scale(0.9 0.9)">
	<text transform="matrix(1.1111 0 0 1.1111 225.8062 448.1109)" style="font-family:'sans-serif'; font-size:81;">SEC</text>
</g>
<g transform="translate(40 80) scale(0.8 0.8)">
	<path style="fill:none;stroke:#000000;stroke-width:10;" d="M176.5,460.5c3-1.001,9-8,9-18c0-30,42-30,42,0s41.999,30,41.999,0
		s42.001-30,42.001,0s42,30,42,0s42.001-30,42.001,0s42,30,42,0s41.999-30,41.999,0c0,10,6.001,17,9,18"/>
</g>
</svg>
