<?xml version="1.0" encoding="utf-8"?>
<!-- Generator: Adobe Illustrator 16.0.0, SVG Export Plug-In . SVG Version: 6.00 Build 0)  -->
<!DOCTYPE svg PUBLIC "-//W3C//DTD SVG 1.1//EN" "http://www.w3.org/Graphics/SVG/1.1/DTD/svg11.dtd">
<svg version="1.1" id="_2.S-G-UCVV-------" xmlns="http://www.w3.org/2000/svg" xmlns:xlink="http://www.w3.org/1999/xlink" x="0px"
	 y="0px" width="400px" height="400px" viewBox="0 0 400 400" style="enable-background:new 0 0 400 400;" xml:space="preserve">
<g transform="translate(20 -10) scale(0.9 0.9)">
	<path d="M198.333,210.158l-55-25c-55-25-55,75,0,50L198.333,210.158l55-25c55-25,55,75,0,50L198.333,210.158"/>
</g>
<g>
	<text transform="matrix(1 0 0 1 98.5371 258.6426)" style="font-family:'Arial-BoldMT'; font-size:60;">VSTOL</text>
</g>
<g id="octagon" style="display:none;">
	<g id="outFrame" style="display:inline;">
		<line style="fill:none;stroke:#0000FF;stroke-width:2;" x1="115" y1="114.5" x2="201" y2="78"/>
		<line style="fill:none;stroke:#0000FF;stroke-width:2;" x1="201" y1="78" x2="285.5" y2="114.5"/>
		<line style="fill:none;stroke:#0000FF;stroke-width:2;" x1="285.5" y1="114.5" x2="322" y2="201"/>
		<line style="fill:none;stroke:#0000FF;stroke-width:2;" x1="322" y1="201" x2="285.5" y2="287.5"/>
		<line style="fill:none;stroke:#0000FF;stroke-width:2;" x1="285.5" y1="287.5" x2="201" y2="321"/>
		<line style="fill:none;stroke:#0000FF;stroke-width:2;" x1="201" y1="321" x2="115" y2="287.5"/>
		<line style="fill:none;stroke:#0000FF;stroke-width:2;" x1="115" y1="287.5" x2="78" y2="201"/>
		<line style="fill:none;stroke:#0000FF;stroke-width:2;" x1="78" y1="201" x2="115" y2="114.5"/>
	</g>
	
		<line id="mod2_1_" style="display:inline;fill:none;stroke:#0000FF;stroke-width:2;" x1="98.966" y1="250.015" x2="301.199" y2="250.295"/>
	
		<line id="mod1_1_" style="display:inline;fill:none;stroke:#0000FF;stroke-width:2;" x1="98.966" y1="151.985" x2="301.199" y2="151.705"/>
</g>
</svg>
