<?xml version="1.0" encoding="utf-8"?>
<!-- Generator: Adobe Illustrator 16.0.0, SVG Export Plug-In . SVG Version: 6.00 Build 0)  -->
<!DOCTYPE svg PUBLIC "-//W3C//DTD SVG 1.1//EN" "http://www.w3.org/Graphics/SVG/1.1/DTD/svg11.dtd">
<svg version="1.1" id="_3.LIGHTCIVVEH----" xmlns="http://www.w3.org/2000/svg" xmlns:xlink="http://www.w3.org/1999/xlink" x="0px"
	 y="0px" width="400px" height="400px" viewBox="0 0 400 400" style="enable-background:new 0 0 400 400;" xml:space="preserve">
<g>
	<line style="fill:none;stroke:#000000;stroke-width:10;" x1="276.5" y1="270.5" x2="301.5" y2="270.5"/>
	<line style="fill:none;stroke:#000000;stroke-width:10;" x1="301.5" y1="295.5" x2="301.5" y2="245.5"/>
</g>
<g>
	<polygon style="fill:#FFFFFF;stroke:#000000;stroke-width:10;" points="126,300 126,200 176,200 176,250 276,250 276,300 	"/>
	<ellipse style="fill:#FFFFFF;stroke:#000000;stroke-width:10;" cx="251" cy="305" rx="20" ry="20"/>
	<ellipse style="fill:#FFFFFF;stroke:#000000;stroke-width:10;" cx="151" cy="305" rx="20" ry="20"/>
	<rect x="136" y="210" style="fill:none;stroke:#000000;stroke-width:5;" width="30" height="43"/>
</g>
<g>
	<line style="fill:none;stroke:#000000;stroke-width:10;" x1="201" y1="251" x2="201" y2="298"/>
</g>
<g id="octagon" style="display:none;">
	<g id="outFrame" style="display:inline;">
		<line style="fill:none;stroke:#0000FF;stroke-width:2;" x1="115" y1="357.5" x2="78.5" y2="271.5"/>
		<line style="fill:none;stroke:#0000FF;stroke-width:2;" x1="78.5" y1="271.5" x2="115" y2="187"/>
		<line style="fill:none;stroke:#0000FF;stroke-width:2;" x1="115" y1="187" x2="201.5" y2="150.5"/>
		<line style="fill:none;stroke:#0000FF;stroke-width:2;" x1="201.5" y1="150.5" x2="288" y2="187"/>
		<line style="fill:none;stroke:#0000FF;stroke-width:2;" x1="288" y1="187" x2="321.5" y2="271.5"/>
		<line style="fill:none;stroke:#0000FF;stroke-width:2;" x1="321.5" y1="271.5" x2="288" y2="357.5"/>
		<line style="fill:none;stroke:#0000FF;stroke-width:2;" x1="288" y1="357.5" x2="201.5" y2="394.5"/>
		<line style="fill:none;stroke:#0000FF;stroke-width:2;" x1="201.5" y1="394.5" x2="115" y2="357.5"/>
	</g>
</g>
</svg>
