<?xml version="1.0" encoding="utf-8"?>
<!-- Generator: Adobe Illustrator 16.0.0, SVG Export Plug-In . SVG Version: 6.00 Build 0)  -->
<!DOCTYPE svg PUBLIC "-//W3C//DTD SVG 1.1//EN" "http://www.w3.org/Graphics/SVG/1.1/DTD/svg11.dtd">
<svg version="1.1" id="_2.S-G-USAQ-------" xmlns="http://www.w3.org/2000/svg" xmlns:xlink="http://www.w3.org/1999/xlink" x="0px"
	 y="0px" width="400px" height="400px" viewBox="0 0 400 400" style="enable-background:new 0 0 400 400;" xml:space="preserve">
<g>
	<line style="fill:none;stroke:#000000;stroke-width:10;" x1="17.5" y1="245.5" x2="347.5" y2="245.5"/>
	<polyline style="fill:none;stroke:#000000;stroke-width:10;" points="377.5,80.5 327.5,200.5 377.5,320.5 	"/>
</g>
<g transform="translate(120 160) scale(5 5.5)">
	<path d="M31.4,6.053c0,2.258-0.457,3.82-1.367,4.684c-1.008,1.01-2.254,1.514-3.74,1.514c-1.297,0-2.424-0.381-3.381-1.146
		c-0.816-0.621-1.463-2.029-1.943-4.229H6.15V11.5H4.525V6.875h-3.5V11.5H-0.6V5.25h21.572c0.48-2.156,1.08-3.523,1.799-4.1
		C23.681,0.385,24.806,0,26.15,0c1.438,0,2.672,0.494,3.703,1.479C30.884,2.464,31.4,3.988,31.4,6.053z M1.025,11.5v-1.25h3.5v1.25
		H1.025z M29.775,6.053c0-1.666-0.361-2.82-1.08-3.463c-0.719-0.643-1.559-0.965-2.518-0.965c-1.008,0-1.848,0.311-2.52,0.93
		C22.985,3.174,22.65,4.34,22.65,6.053c0,1.668,0.371,2.846,1.115,3.537c0.742,0.691,1.594,1.035,2.555,1.035
		c0.959,0,1.775-0.309,2.447-0.928C29.439,9.078,29.775,7.863,29.775,6.053z"/>
</g>
<g id="frame" style="display:none;">
	
		<rect id="_x3C_path_x3E_" x="20.082" y="80" style="display:inline;fill:none;stroke:#3A58A7;stroke-width:5;" width="360" height="240"/>
</g>
</svg>
