<?xml version="1.0" encoding="utf-8"?>
<!-- Generator: Adobe Illustrator 16.0.0, SVG Export Plug-In . SVG Version: 6.00 Build 0)  -->
<!DOCTYPE svg PUBLIC "-//W3C//DTD SVG 1.1//EN" "http://www.w3.org/Graphics/SVG/1.1/DTD/svg11.dtd">
<svg version="1.1" id="_2.S-G-EVEM-------" xmlns="http://www.w3.org/2000/svg" xmlns:xlink="http://www.w3.org/1999/xlink" x="0px"
	 y="0px" width="400px" height="400px" viewBox="0 0 400 400" style="enable-background:new 0 0 400 400;" xml:space="preserve">
<g>
	<line style="fill:none;stroke:#000000;stroke-width:10;" x1="115.839" y1="127.928" x2="115.839" y2="278.5"/>
	<line style="fill:none;stroke:#000000;stroke-width:10;" x1="287.922" y1="127.928" x2="287.922" y2="278.5"/>
	<line style="fill:none;stroke:#000000;stroke-width:10;" x1="115.839" y1="273.123" x2="287.922" y2="273.123"/>
	<path style="fill:none;stroke:#000000;stroke-width:10;" d="M115.839,132.23c75.286,27.964,96.796,27.964,172.083,0"/>
</g>
<g>
	<ellipse cx="201.343" cy="213.431" rx="29.039" ry="29.039"/>
	<line style="fill:none;stroke:#000000;stroke-width:10;" x1="201.343" y1="167.185" x2="201.343" y2="259.679"/>
	<line style="fill:none;stroke:#000000;stroke-width:10;" x1="175.53" y1="174.713" x2="227.155" y2="252.15"/>
	<line style="fill:none;stroke:#000000;stroke-width:10;" x1="175.53" y1="252.15" x2="227.155" y2="174.713"/>
</g>
<g id="octagon" style="display:none;">
	<g id="outFrame" style="display:inline;">
		<line style="fill:none;stroke:#0000FF;stroke-width:2;" x1="115" y1="285.5" x2="78.5" y2="199.5"/>
		<line style="fill:none;stroke:#0000FF;stroke-width:2;" x1="78.5" y1="199.5" x2="115" y2="115"/>
		<line style="fill:none;stroke:#0000FF;stroke-width:2;" x1="115" y1="115" x2="201.5" y2="78.5"/>
		<line style="fill:none;stroke:#0000FF;stroke-width:2;" x1="201.5" y1="78.5" x2="288" y2="115"/>
		<line style="fill:none;stroke:#0000FF;stroke-width:2;" x1="288" y1="115" x2="321.5" y2="199.5"/>
		<line style="fill:none;stroke:#0000FF;stroke-width:2;" x1="321.5" y1="199.5" x2="288" y2="285.5"/>
		<line style="fill:none;stroke:#0000FF;stroke-width:2;" x1="288" y1="285.5" x2="201.5" y2="322.5"/>
		<line style="fill:none;stroke:#0000FF;stroke-width:2;" x1="201.5" y1="322.5" x2="115" y2="285.5"/>
	</g>
</g>
</svg>
