<?xml version="1.0" encoding="utf-8"?>
<!-- Generator: Adobe Illustrator 16.0.0, SVG Export Plug-In . SVG Version: 6.00 Build 0)  -->
<!DOCTYPE svg PUBLIC "-//W3C//DTD SVG 1.1//EN" "http://www.w3.org/Graphics/SVG/1.1/DTD/svg11.dtd">
<svg version="1.1" id="Version_1.0" xmlns="http://www.w3.org/2000/svg" xmlns:xlink="http://www.w3.org/1999/xlink" x="0px"
	 y="0px" width="612px" height="792px" viewBox="0 0 612 792" style="enable-background:new 0 0 612 792;" xml:space="preserve">
<g id="octagon" style="display:none;">
	<g id="outFrame" style="display:inline;">
		<line style="fill:none;stroke:#0000FF;stroke-width:2;" x1="220" y1="479.5" x2="183.5" y2="393.5"/>
		<line style="fill:none;stroke:#0000FF;stroke-width:2;" x1="183.5" y1="393.5" x2="220" y2="309"/>
		<line style="fill:none;stroke:#0000FF;stroke-width:2;" x1="220" y1="309" x2="306.5" y2="272.5"/>
		<line style="fill:none;stroke:#0000FF;stroke-width:2;" x1="306.5" y1="272.5" x2="393" y2="309"/>
		<line style="fill:none;stroke:#0000FF;stroke-width:2;" x1="393" y1="309" x2="426.5" y2="393.5"/>
		<line style="fill:none;stroke:#0000FF;stroke-width:2;" x1="426.5" y1="393.5" x2="393" y2="479.5"/>
		<line style="fill:none;stroke:#0000FF;stroke-width:2;" x1="393" y1="479.5" x2="306.5" y2="516.5"/>
		<line style="fill:none;stroke:#0000FF;stroke-width:2;" x1="306.5" y1="516.5" x2="220" y2="479.5"/>
	</g>
</g>
<g id="frame_1_" style="display:none;">
	<rect x="174" y="264" style="display:inline;fill:none;stroke:#3A58A7;stroke-width:5;" width="264" height="264"/>
</g>
<g transform="translate(0 15)">
	<path style="fill:none;stroke:#010101;stroke-width:10;" d="M291.244,372.71v-97.297c0-29.664,30.003-29.664,30.003,0v97.297"/>
	<line style="fill:none;stroke:#010101;stroke-width:10;" x1="306.246" y1="254.055" x2="306.246" y2="360.847"/>
	<path style="fill:none;stroke:#010101;stroke-width:10;" d="M279.994,390.509c0-35.596,52.503-35.596,52.503,0"/>
</g>
<g>
	<path style="fill:none;stroke:#010101;stroke-width:10;" d="M174.246,524.165c56.999-166.119,207-166.119,264,0H174.246z"/>
</g>
</svg>
