<?xml version="1.0" encoding="utf-8"?>
<!-- Generator: Adobe Illustrator 16.0.0, SVG Export Plug-In . SVG Version: 6.00 Build 0)  -->
<!DOCTYPE svg PUBLIC "-//W3C//DTD SVG 1.1//EN" "http://www.w3.org/Graphics/SVG/1.1/DTD/svg11.dtd">
<svg version="1.1" id="Version_1.0" xmlns="http://www.w3.org/2000/svg" xmlns:xlink="http://www.w3.org/1999/xlink" x="0px"
	 y="0px" width="612px" height="792px" viewBox="0 0 612 792" style="enable-background:new 0 0 612 792;" xml:space="preserve">
<g id="frame" style="display:none;">
	<path style="display:inline;fill:none;stroke:#0042E9;stroke-width:5;" d="M221,480c0,115,170,115,170,0c115,0,115-170,0-170
		c0-115-170-115-170,0C106,310,106,480,221,480z"/>
</g>
<g>
	<line style="fill:none;stroke:#000000;stroke-width:10;" x1="145.5" y1="438.5" x2="465.5" y2="438.5"/>
</g>
<g>
	<polyline style="fill:none;stroke:#000000;stroke-width:10;" points="303,388 355,308 255,308 307,388 	"/>
	<line style="fill:none;stroke:#000000;stroke-width:10;" x1="305" y1="383" x2="305" y2="438"/>
</g>
<g transform="translate(187 130) scale(0.4 0.4)">
	<polyline points="447.5,667.5 357.5,617.5 357.5,717.5 447.5,667.5 537.5,617.5 537.5,717.5 447.5,667.5 	"/>
</g>
</svg>
