<?xml version="1.0" encoding="utf-8"?>
<!-- Generator: Adobe Illustrator 16.0.0, SVG Export Plug-In . SVG Version: 6.00 Build 0)  -->
<!DOCTYPE svg PUBLIC "-//W3C//DTD SVG 1.1//EN" "http://www.w3.org/Graphics/SVG/1.1/DTD/svg11.dtd">
<svg version="1.1" id="_3.S-A-MH---------" xmlns="http://www.w3.org/2000/svg" xmlns:xlink="http://www.w3.org/1999/xlink" x="0px"
	 y="0px" width="400px" height="400px" viewBox="0 0 400 400" style="enable-background:new 0 0 400 400;" xml:space="preserve">
<g>
	<line style="fill:none;stroke:#000000;stroke-width:10;" x1="39.5" y1="315.5" x2="359.5" y2="315.5"/>
</g>
<g>
	<polyline style="fill:none;stroke:#000000;stroke-width:10;" points="197,265 249,185 149,185 201,265 	"/>
	<line style="fill:none;stroke:#000000;stroke-width:10;" x1="199" y1="260" x2="199" y2="315"/>
</g>
<g transform="translate(187 130) scale(0.4 0.4)">
	<polyline points="190,360 100,310 100,410 190,360 280,310 280,410 190,360 	"/>
</g>
<g id="frame" style="display:none;">
	<path style="display:inline;fill:none;stroke:#0042E9;stroke-width:5;" d="M115,357c0,115,170,115,170,0c115,0,115-170,0-170
		c0-115-170-115-170,0C0,187,0,357,115,357z"/>
</g>
</svg>
