<?xml version="1.0" encoding="utf-8"?>
<!-- Generator: Adobe Illustrator 16.0.0, SVG Export Plug-In . SVG Version: 6.00 Build 0)  -->
<!DOCTYPE svg PUBLIC "-//W3C//DTD SVG 1.1//EN" "http://www.w3.org/Graphics/SVG/1.1/DTD/svg11.dtd">
<svg version="1.1" id="_2.SUGPUUACC------" xmlns="http://www.w3.org/2000/svg" xmlns:xlink="http://www.w3.org/1999/xlink" x="0px"
	 y="0px" width="400px" height="400px" viewBox="0 0 400 400" style="enable-background:new 0 0 400 400;" xml:space="preserve">
<g>
	<ellipse style="stroke:#000000;stroke-width:10;" cx="127.998" cy="166.682" rx="19.083" ry="19.083"/>
	<ellipse style="stroke:#000000;stroke-width:10;" cx="276.417" cy="166.682" rx="19.083" ry="19.083"/>
	<path style="fill:none;stroke:#000000;stroke-width:10;" d="M138.599,150.779c63.608,37.105,74.209,58.308,100.713,153.721"/>
	<path style="fill:none;stroke:#000000;stroke-width:10;" d="M265.816,150.779c-63.609,37.105-74.21,58.308-100.714,153.721"/>
</g>
<g transform="translate(102 32) scale(0.5 0.5)">
	<text transform="matrix(2 0 0 2 93.1416 240.7402)" style="font-family:'Arial-BoldMT'; font-size:79.5106;">SD</text>
</g>
<g id="octagon" style="display:none;">
	<g id="outFrame" style="display:inline;">
		<line style="fill:none;stroke:#0000FF;stroke-width:2;" x1="115" y1="285.5" x2="78.5" y2="199.5"/>
		<line style="fill:none;stroke:#0000FF;stroke-width:2;" x1="78.5" y1="199.5" x2="115" y2="115"/>
		<line style="fill:none;stroke:#0000FF;stroke-width:2;" x1="115" y1="115" x2="201.5" y2="78.5"/>
		<line style="fill:none;stroke:#0000FF;stroke-width:2;" x1="201.5" y1="78.5" x2="288" y2="115"/>
		<line style="fill:none;stroke:#0000FF;stroke-width:2;" x1="288" y1="115" x2="321.5" y2="199.5"/>
		<line style="fill:none;stroke:#0000FF;stroke-width:2;" x1="321.5" y1="199.5" x2="288" y2="285.5"/>
		<line style="fill:none;stroke:#0000FF;stroke-width:2;" x1="288" y1="285.5" x2="201.5" y2="322.5"/>
		<line style="fill:none;stroke:#0000FF;stroke-width:2;" x1="201.5" y1="322.5" x2="115" y2="285.5"/>
	</g>
</g>
</svg>
