<?xml version="1.0" encoding="utf-8"?>
<!-- Generator: Adobe Illustrator 16.0.0, SVG Export Plug-In . SVG Version: 6.00 Build 0)  -->
<!DOCTYPE svg PUBLIC "-//W3C//DTD SVG 1.1//EN" "http://www.w3.org/Graphics/SVG/1.1/DTD/svg11.dtd">
<svg version="1.1" id="_2.S-G-IMS---H----" xmlns="http://www.w3.org/2000/svg" xmlns:xlink="http://www.w3.org/1999/xlink" x="0px"
	 y="0px" width="400px" height="400px" viewBox="0 0 400 400" style="enable-background:new 0 0 400 400;" xml:space="preserve">
<g transform="translate(50 25) scale(0.75 0.75)">
	<g>
		<ellipse style="fill:none;stroke:#000000;stroke-width:10;" cx="202.228" cy="105.018" rx="16.604" ry="16.351"/>
		<line style="fill:none;stroke:#000000;stroke-width:10;" x1="202.228" y1="121.368" x2="202.228" y2="284.878"/>
		<line style="fill:none;stroke:#000000;stroke-width:10;" x1="119.21" y1="131.588" x2="285.246" y2="131.588"/>
		<path style="stroke:#000000;stroke-width:10;" d="M98.456,203.124c51.886,102.193,155.659,102.193,207.544,0
			C254.115,320.646,150.342,320.646,98.456,203.124"/>
		<path style="stroke:#000000;stroke-width:10;" d="M98.456,203.124c8.302,45.987,13.491,45.987,13.491,45.987l15.566-20.439
			c-13.49-5.11-18.679-15.329-25.943-22.482"/>
		<path style="stroke:#000000;stroke-width:10;" d="M306,203.124c-8.302,45.987-13.491,45.987-13.491,45.987l-15.565-20.439
			c13.49-5.11,18.678-15.329,25.943-22.482"/>
	</g>
</g>
<g>
	<text transform="matrix(1.0154 0 0 1 129.9453 299.4629)" style="font-family:'Arial-BoldMT'; font-size:66.4256;">YRD</text>
</g>
<g id="octagon" style="display:none;">
	<g id="outFrame" style="display:inline;">
		<line style="fill:none;stroke:#0000FF;stroke-width:2;" x1="115" y1="285.5" x2="78.5" y2="199.5"/>
		<line style="fill:none;stroke:#0000FF;stroke-width:2;" x1="78.5" y1="199.5" x2="115" y2="115"/>
		<line style="fill:none;stroke:#0000FF;stroke-width:2;" x1="115" y1="115" x2="201.5" y2="78.5"/>
		<line style="fill:none;stroke:#0000FF;stroke-width:2;" x1="201.5" y1="78.5" x2="288" y2="115"/>
		<line style="fill:none;stroke:#0000FF;stroke-width:2;" x1="288" y1="115" x2="321.5" y2="199.5"/>
		<line style="fill:none;stroke:#0000FF;stroke-width:2;" x1="321.5" y1="199.5" x2="288" y2="285.5"/>
		<line style="fill:none;stroke:#0000FF;stroke-width:2;" x1="288" y1="285.5" x2="201.5" y2="322.5"/>
		<line style="fill:none;stroke:#0000FF;stroke-width:2;" x1="201.5" y1="322.5" x2="115" y2="285.5"/>
	</g>
</g>
</svg>
