<?xml version="1.0" encoding="utf-8"?>
<!-- Generator: Adobe Illustrator 16.0.0, SVG Export Plug-In . SVG Version: 6.00 Build 0)  -->
<!DOCTYPE svg PUBLIC "-//W3C//DTD SVG 1.1//EN" "http://www.w3.org/Graphics/SVG/1.1/DTD/svg11.dtd">
<svg version="1.1" id="_3.S-A-MFD--------" xmlns="http://www.w3.org/2000/svg" xmlns:xlink="http://www.w3.org/1999/xlink" x="0px"
	 y="0px" width="400px" height="400px" viewBox="0 0 400 400" style="enable-background:new 0 0 400 400;" xml:space="preserve">
<g>
	<line style="fill:none;stroke:#000000;stroke-width:10;" x1="320.5" y1="121.5" x2="80.5" y2="279.5"/>
</g>
<g>
	<path style="fill:none;stroke:#000000;stroke-width:10;" d="M32,222c18,0,21-16,21-22c0-30,42-30,42,0s42,30,42,0s42-30,42,0
		s42,30,42,0s42-30,42,0s42,30,42,0s42-30,42,0c0,6,3,22,21,22"/>
</g>
<g transform="translate(78 70) scale(0.4 0.4)">
	<text transform="matrix(2.5 0 0 2.5 93.3374 240)" style="font-family:'Arial-BoldMT'; font-size:60;">D</text>
</g>
<g id="frame" style="display:none;">
	<path style="display:inline;fill:none;stroke:#0042E9;stroke-width:5;" d="M115,285c0,115,170,115,170,0c115,0,115-170,0-170
		c0-115-170-115-170,0C0,115,0,285,115,285z"/>
</g>
</svg>
