<?xml version="1.0" encoding="utf-8"?>
<!-- Generator: Adobe Illustrator 16.0.0, SVG Export Plug-In . SVG Version: 6.00 Build 0)  -->
<!DOCTYPE svg PUBLIC "-//W3C//DTD SVG 1.1//EN" "http://www.w3.org/Graphics/SVG/1.1/DTD/svg11.dtd">
<svg version="1.1" id="Version_1.0" xmlns="http://www.w3.org/2000/svg" xmlns:xlink="http://www.w3.org/1999/xlink" x="0px"
	 y="0px" width="612px" height="792px" viewBox="0 0 612 792" style="enable-background:new 0 0 612 792;" xml:space="preserve">
<g id="frame" style="display:none;">
	<path style="display:inline;fill:none;stroke:#0042E9;stroke-width:5;" d="M221,480c0,115,170,115,170,0c115,0,115-170,0-170
		c0-115-170-115-170,0C106,310,106,480,221,480z"/>
</g>
<g>
	<line style="fill:none;stroke:#000000;stroke-width:10;" x1="146.5" y1="441.5" x2="446.5" y2="441.5"/>
	<polyline style="fill:none;stroke:#000000;stroke-width:10;" points="456.5,336.5 416.5,396.5 456.5,456.5 	"/>
</g>
<g>
	<line style="fill:none;stroke:#000000;stroke-width:10;" x1="291" y1="326" x2="341" y2="326"/>
	<line style="fill:none;stroke:#000000;stroke-width:10;" x1="316" y1="351" x2="316" y2="326"/>
	<path style="fill:none;stroke:#000000;stroke-width:10;" d="M216,351h120c40,0,48,45,50,75"/>
</g>
<g transform="translate(80 80) scale(0.6 0.6)">
	<text transform="matrix(1.6667 0 0 1.6667 273.0387 541.333)" style="font-family:'sans-serif'; font-size:39;">PURE</text>
</g>
</svg>
