<?xml version="1.0" encoding="utf-8"?>
<!-- Generator: Adobe Illustrator 16.0.0, SVG Export Plug-In . SVG Version: 6.00 Build 0)  -->
<!DOCTYPE svg PUBLIC "-//W3C//DTD SVG 1.1//EN" "http://www.w3.org/Graphics/SVG/1.1/DTD/svg11.dtd">
<svg version="1.1" id="_2.S-G-USAQ-------" xmlns="http://www.w3.org/2000/svg" xmlns:xlink="http://www.w3.org/1999/xlink" x="0px"
	 y="0px" width="400px" height="400px" viewBox="0 0 400 400" style="enable-background:new 0 0 400 400;" xml:space="preserve">
<g>
	<line style="fill:none;stroke:#000000;stroke-width:10;" x1="38.5" y1="242.5" x2="338.5" y2="242.5"/>
	<polyline style="fill:none;stroke:#000000;stroke-width:10;" points="348.5,137.5 308.5,197.5 348.5,257.5 	"/>
</g>
<g transform="translate(120 160) scale(5 5.5)">
	<path d="M31.6,5.508c0,2.258-0.457,3.82-1.367,4.684c-1.008,1.01-2.254,1.514-3.74,1.514c-1.297,0-2.424-0.381-3.381-1.146
		c-0.816-0.621-1.463-2.029-1.943-4.229H6.35v4.624H4.725V6.33h-3.5v4.625H-0.4v-6.25h21.572c0.48-2.156,1.08-3.523,1.799-4.1
		c0.91-0.765,2.035-1.15,3.379-1.15c1.438,0,2.672,0.494,3.703,1.479C31.084,1.919,31.6,3.443,31.6,5.508z M1.225,10.955v-1.25h3.5
		v1.25H1.225z M29.975,5.508c0-1.666-0.361-2.82-1.08-3.463c-0.719-0.643-1.559-0.965-2.518-0.965c-1.008,0-1.848,0.311-2.52,0.93
		c-0.672,0.619-1.007,1.785-1.007,3.498c0,1.668,0.371,2.846,1.115,3.537c0.742,0.691,1.594,1.035,2.555,1.035
		c0.959,0,1.775-0.309,2.447-0.928C29.639,8.533,29.975,7.317,29.975,5.508z"/>
</g>
<g id="frame" style="display:none;">
	<path style="display:inline;fill:none;stroke:#0042E9;stroke-width:5;" d="M115,285c0,115,170,115,170,0c115,0,115-170,0-170
		c0-115-170-115-170,0C0,115,0,285,115,285z"/>
</g>
</svg>
