<?xml version="1.0" encoding="utf-8"?>
<!-- Generator: Adobe Illustrator 16.0.0, SVG Export Plug-In . SVG Version: 6.00 Build 0)  -->
<!DOCTYPE svg PUBLIC "-//W3C//DTD SVG 1.1//EN" "http://www.w3.org/Graphics/SVG/1.1/DTD/svg11.dtd">
<svg version="1.1" id="_2.S-G-UCIN-------" xmlns="http://www.w3.org/2000/svg" xmlns:xlink="http://www.w3.org/1999/xlink" x="0px"
	 y="0px" width="400px" height="400px" viewBox="0 0 400 400" style="enable-background:new 0 0 400 400;" xml:space="preserve">
<g>
	<line style="fill:none;stroke:#000000;stroke-width:10;" x1="380" y1="81" x2="20" y2="321"/>
	<line style="fill:none;stroke:#000000;stroke-width:10;" x1="20" y1="81" x2="380" y2="321"/>
</g>
<g transform="translate(0 7)">
	<g>
		<ellipse style="fill:none;stroke:#000000;stroke-width:10;" cx="199.5" cy="104.5" rx="16" ry="16"/>
		<line style="fill:none;stroke:#000000;stroke-width:10;" x1="199.5" y1="120.5" x2="199.5" y2="280.5"/>
		<line style="fill:none;stroke:#000000;stroke-width:10;" x1="119.5" y1="130.5" x2="279.5" y2="130.5"/>
		<path style="stroke:#000000;stroke-width:10;" d="M99.5,200.5c50,100,150,100,200,0C249.5,315.5,149.5,315.5,99.5,200.5"/>
		<path style="stroke:#000000;stroke-width:10;" d="M99.5,200.5c8,45,13,45,13,45l15-20c-13-5-18-15-25-22"/>
		<path style="stroke:#000000;stroke-width:10;" d="M299.5,200.5c-8,45-13,45-13,45l-15-20c13-5,18-15,25-22"/>
	</g>
</g>
<g id="frame" style="display:none;">
	
		<rect id="_x3C_path_x3E_" x="20.082" y="80" style="display:inline;fill:none;stroke:#3A58A7;stroke-width:5;" width="360" height="240"/>
</g>
</svg>
