<?xml version="1.0" encoding="utf-8"?>
<!-- Generator: Adobe Illustrator 16.0.0, SVG Export Plug-In . SVG Version: 6.00 Build 0)  -->
<!DOCTYPE svg PUBLIC "-//W3C//DTD SVG 1.1//EN" "http://www.w3.org/Graphics/SVG/1.1/DTD/svg11.dtd">
<svg version="1.1" id="Version_1.0" xmlns="http://www.w3.org/2000/svg" xmlns:xlink="http://www.w3.org/1999/xlink" x="0px"
	 y="0px" width="612px" height="792px" viewBox="0 0 612 792" style="enable-background:new 0 0 612 792;" xml:space="preserve">
<g id="octagon" style="display:none;">
	<g id="outFrame" style="display:inline;">
		<line style="fill:none;stroke:#0000FF;stroke-width:2;" x1="220" y1="479.5" x2="183.5" y2="393.5"/>
		<line style="fill:none;stroke:#0000FF;stroke-width:2;" x1="183.5" y1="393.5" x2="220" y2="309"/>
		<line style="fill:none;stroke:#0000FF;stroke-width:2;" x1="220" y1="309" x2="306.5" y2="272.5"/>
		<line style="fill:none;stroke:#0000FF;stroke-width:2;" x1="306.5" y1="272.5" x2="393" y2="309"/>
		<line style="fill:none;stroke:#0000FF;stroke-width:2;" x1="393" y1="309" x2="426.5" y2="393.5"/>
		<line style="fill:none;stroke:#0000FF;stroke-width:2;" x1="426.5" y1="393.5" x2="393" y2="479.5"/>
		<line style="fill:none;stroke:#0000FF;stroke-width:2;" x1="393" y1="479.5" x2="306.5" y2="516.5"/>
		<line style="fill:none;stroke:#0000FF;stroke-width:2;" x1="306.5" y1="516.5" x2="220" y2="479.5"/>
	</g>
</g>
<g id="frame" style="display:none;">
	<rect x="174" y="264" style="display:inline;fill:none;stroke:#3A58A7;stroke-width:5;" width="264" height="264"/>
</g>
<g>
	<path style="fill:none;stroke:#010101;stroke-width:10;" d="M173.899,522.75c57.001-149.333,206.999-149.333,264,0H173.899z"/>
</g>
<g>
	<path style="fill:none;stroke:#010101;stroke-width:10;" d="M343.4,297.683c26.249,0,26.249,70.4,0,70.4h-75.001
		c-26.248,0-26.248-70.4,0-70.4H343.4z"/>
	<text transform="matrix(0.7031 0 0 1 290.8926 357.418)" style="fill:#010101; font-family:'ArialMT'; font-size:64.0002;">V</text>
	<line style="fill:none;stroke:#010101;stroke-width:10;" x1="215.901" y1="266.75" x2="215.901" y2="522.75"/>
</g>
</svg>
