<?xml version="1.0" encoding="utf-8"?>
<!-- Generator: Adobe Illustrator 16.0.0, SVG Export Plug-In . SVG Version: 6.00 Build 0)  -->
<!DOCTYPE svg PUBLIC "-//W3C//DTD SVG 1.1//EN" "http://www.w3.org/Graphics/SVG/1.1/DTD/svg11.dtd">
<svg version="1.1" id="Version_1.0" xmlns="http://www.w3.org/2000/svg" xmlns:xlink="http://www.w3.org/1999/xlink" x="0px"
	 y="0px" width="612px" height="792px" viewBox="0 0 612 792" style="enable-background:new 0 0 612 792;" xml:space="preserve">
<g id="octagon" style="display:none;">
	<g id="outFrame" style="display:inline;">
		<line style="fill:none;stroke:#0000FF;stroke-width:2;" x1="220" y1="479.5" x2="183.5" y2="393.5"/>
		<line style="fill:none;stroke:#0000FF;stroke-width:2;" x1="183.5" y1="393.5" x2="220" y2="309"/>
		<line style="fill:none;stroke:#0000FF;stroke-width:2;" x1="220" y1="309" x2="306.5" y2="272.5"/>
		<line style="fill:none;stroke:#0000FF;stroke-width:2;" x1="306.5" y1="272.5" x2="393" y2="309"/>
		<line style="fill:none;stroke:#0000FF;stroke-width:2;" x1="393" y1="309" x2="426.5" y2="393.5"/>
		<line style="fill:none;stroke:#0000FF;stroke-width:2;" x1="426.5" y1="393.5" x2="393" y2="479.5"/>
		<line style="fill:none;stroke:#0000FF;stroke-width:2;" x1="393" y1="479.5" x2="306.5" y2="516.5"/>
		<line style="fill:none;stroke:#0000FF;stroke-width:2;" x1="306.5" y1="516.5" x2="220" y2="479.5"/>
	</g>
</g>
<g id="frame" style="display:none;">
	
		<rect id="_x3C_path_x3E_" x="126.082" y="276" style="display:inline;fill:none;stroke:#3A58A7;stroke-width:5;" width="360" height="240"/>
</g>
<g>
	<path style="fill:none;stroke:#010101;stroke-width:10;" d="M275.335,445.872V298.858c0-27.845,60.51-27.845,60.51,0v147.014"/>
</g>
<g>
	<path style="fill:none;stroke:#010101;stroke-width:10;" d="M356.017,277.698c35.298,0,35.298,73.506,0,73.506H255.165
		c-35.297,0-35.297-73.506,0-73.506H356.017z"/>
	<text transform="matrix(0.9055 0 0 1 285.4116 340.0645)" style="fill:#010101; font-family:'ArialMT'; font-size:66.8252;">S</text>
</g>
<g>
	<path style="fill:none;stroke:#010101;stroke-width:10;" d="M128.09,512.697c76.649-155.925,278.354-155.925,355,0H128.09z"/>
</g>
</svg>
