<?xml version="1.0" encoding="utf-8"?>
<!-- Generator: Adobe Illustrator 16.0.0, SVG Export Plug-In . SVG Version: 6.00 Build 0)  -->
<!DOCTYPE svg PUBLIC "-//W3C//DTD SVG 1.1//EN" "http://www.w3.org/Graphics/SVG/1.1/DTD/svg11.dtd">
<svg version="1.1" id="_2.S-G-USAQ-------" xmlns="http://www.w3.org/2000/svg" xmlns:xlink="http://www.w3.org/1999/xlink" x="0px"
	 y="0px" width="400px" height="400px" viewBox="0 0 400 400" style="enable-background:new 0 0 400 400;" xml:space="preserve">
<g>
	<line style="fill:none;stroke:#000000;stroke-width:10;" x1="50.5" y1="244.5" x2="350.5" y2="244.5"/>
	<polyline style="fill:none;stroke:#000000;stroke-width:10;" points="20.5,79.5 70.5,199.5 20.5,319.5 	"/>
	<polyline style="fill:none;stroke:#000000;stroke-width:10;" points="380.5,79.5 330.5,199.5 380.5,319.5 	"/>
</g>
<g transform="translate(120 160) scale(5 5.5)">
	<path d="M32,5.871c0,2.258-0.457,3.82-1.367,4.684c-1.008,1.01-2.254,1.514-3.74,1.514c-1.297,0-2.424-0.381-3.381-1.146
		c-0.816-0.621-1.463-2.029-1.943-4.229H6.75v4.624H5.125V6.693h-3.5v4.625H0v-6.25h21.572c0.48-2.156,1.08-3.523,1.799-4.1
		c0.91-0.765,2.035-1.15,3.379-1.15c1.438,0,2.672,0.494,3.703,1.479C31.484,2.282,32,3.806,32,5.871z M1.625,11.318v-1.25h3.5v1.25
		H1.625z M30.375,5.871c0-1.666-0.361-2.82-1.08-3.463c-0.719-0.643-1.559-0.965-2.518-0.965c-1.008,0-1.848,0.311-2.52,0.93
		c-0.672,0.619-1.007,1.785-1.007,3.498c0,1.668,0.371,2.846,1.115,3.537c0.742,0.691,1.594,1.035,2.555,1.035
		c0.959,0,1.775-0.309,2.447-0.928S30.375,7.681,30.375,5.871z"/>
</g>
<g id="frame" style="display:none;">
	
		<rect id="_x3C_path_x3E_" x="20.082" y="80" style="display:inline;fill:none;stroke:#3A58A7;stroke-width:5;" width="360" height="240"/>
</g>
</svg>
