<?xml version="1.0" encoding="utf-8"?>
<!-- Generator: Adobe Illustrator 16.0.0, SVG Export Plug-In . SVG Version: 6.00 Build 0)  -->
<!DOCTYPE svg PUBLIC "-//W3C//DTD SVG 1.1//EN" "http://www.w3.org/Graphics/SVG/1.1/DTD/svg11.dtd">
<svg version="1.1" id="Version_1.0" xmlns="http://www.w3.org/2000/svg" xmlns:xlink="http://www.w3.org/1999/xlink" x="0px"
	 y="0px" width="612px" height="792px" viewBox="0 0 612 792" enable-background="new 0 0 612 792" xml:space="preserve">
<g id="octagon" display="none">
	<g id="outFrame" display="inline">
		<line fill="none" stroke="#0000FF" stroke-width="2" x1="220" y1="306.5" x2="306" y2="270"/>
		<line fill="none" stroke="#0000FF" stroke-width="2" x1="306" y1="270" x2="390.5" y2="306.5"/>
		<line fill="none" stroke="#0000FF" stroke-width="2" x1="390.5" y1="306.5" x2="427" y2="393"/>
		<line fill="none" stroke="#0000FF" stroke-width="2" x1="427" y1="393" x2="390.5" y2="479.5"/>
		<line fill="none" stroke="#0000FF" stroke-width="2" x1="390.5" y1="479.5" x2="306" y2="513"/>
		<line fill="none" stroke="#0000FF" stroke-width="2" x1="306" y1="513" x2="220" y2="479.5"/>
		<line fill="none" stroke="#0000FF" stroke-width="2" x1="220" y1="479.5" x2="183" y2="393"/>
		<line fill="none" stroke="#0000FF" stroke-width="2" x1="183" y1="393" x2="220" y2="306.5"/>
	</g>
		<line id="bottom" display="inline" fill="none" stroke="#0000FF" stroke-width="2" x1="203.966" y1="442.015" x2="406.199" y2="442.295"/>
		<line id="top" display="inline" fill="none" stroke="#0000FF" stroke-width="2" x1="203.966" y1="343.985" x2="406.199" y2="343.705"/>
	</g>
<g id="main">
	<path fill="#FFFFFF" stroke="#000000" stroke-width="2.7526" d="M332.057,399.517L332.057,399.517
		c0,9.964-5.43,18.673-13.492,23.352l35.063,60.725c29.018-16.814,48.568-48.205,48.568-84.076l0,0H332.057L332.057,399.517z"/>
	<path fill="#FFFFFF" stroke="#000000" stroke-width="2.7526" d="M278.106,399.517L278.106,399.517H207.97l0,0
		c0,35.878,19.557,67.262,48.566,84.076l35.064-60.725C283.543,418.193,278.106,409.48,278.106,399.517z"/>
	<path fill="#FFFFFF" stroke="#000000" stroke-width="2.7526" d="M305.082,372.54c4.911,0,9.512,1.325,13.479,3.629l35.066-60.736
		c-14.287-8.28-30.873-13.027-48.545-13.027c-17.671,0-34.255,4.748-48.545,13.027l35.064,60.736
		C295.57,373.865,300.172,372.54,305.082,372.54z"/>
	<path fill="#FFFFFF" stroke="#000000" stroke-width="5" d="M305.082,415.701c-8.924,0-16.185-7.261-16.185-16.185
		s7.261-16.187,16.185-16.187c8.924,0,16.186,7.263,16.186,16.187S314.006,415.701,305.082,415.701L305.082,415.701z"/>
</g>
</svg>
