<?xml version="1.0" encoding="utf-8"?>
<!-- Generator: Adobe Illustrator 16.0.0, SVG Export Plug-In . SVG Version: 6.00 Build 0)  -->
<!DOCTYPE svg PUBLIC "-//W3C//DTD SVG 1.1//EN" "http://www.w3.org/Graphics/SVG/1.1/DTD/svg11.dtd">
<svg version="1.1" id="_3.S-A-MFD--------" xmlns="http://www.w3.org/2000/svg" xmlns:xlink="http://www.w3.org/1999/xlink" x="0px"
	 y="0px" width="400px" height="400px" viewBox="0 0 400 400" style="enable-background:new 0 0 400 400;" xml:space="preserve">
<g>
	<line style="fill:none;stroke:#000000;stroke-width:10;" x1="305.5" y1="130.5" x2="97.5" y2="270.5"/>
</g>
<g>
	<path style="fill:none;stroke:#000000;stroke-width:10;" d="M45,218c3-1,9-8,9-18c0-30,42-30,42,0s42,30,42,0s42-30,42,0
		s42,30,42,0s42-30,42,0s42,30,42,0s42-30,42,0c0,10,6,17,9,18"/>
</g>
<g transform="translate(78 70) scale(0.4 0.4)">
	<text transform="matrix(2.5 0 0 2.5 150.8374 227.5)" style="font-family:'Arial-BoldMT'; font-size:60;">D</text>
</g>
<g id="frame" style="display:none;">
	<polyline id="_x3C_path_x3E_" style="display:inline;fill:none;stroke:#3A58A7;stroke-width:5;stroke-linecap:square;" points="
		200,373 373,200 200,27 27,200 200,373 	"/>
</g>
</svg>
