<?xml version="1.0" encoding="utf-8"?>
<!-- Generator: Adobe Illustrator 16.0.0, SVG Export Plug-In . SVG Version: 6.00 Build 0)  -->
<!DOCTYPE svg PUBLIC "-//W3C//DTD SVG 1.1//EN" "http://www.w3.org/Graphics/SVG/1.1/DTD/svg11.dtd">
<svg version="1.1" id="_3.S-G-USSWP------" xmlns="http://www.w3.org/2000/svg" xmlns:xlink="http://www.w3.org/1999/xlink" x="0px"
	 y="0px" width="400px" height="400px" viewBox="0 0 400 400" style="enable-background:new 0 0 400 400;" xml:space="preserve">
<g>
	<line style="fill:none;stroke:#000000;stroke-width:10;" x1="60.5" y1="220.5" x2="340.5" y2="220.5"/>
	<polyline style="fill:none;stroke:#000000;stroke-width:10;" points="50.5,115.5 90.5,175.5 50.5,235.5 	"/>
	<polyline style="fill:none;stroke:#000000;stroke-width:10;" points="350.5,115.5 310.5,175.5 350.5,235.5 	"/>
</g>
<g>
	<line style="fill:none;stroke:#000000;stroke-width:10;" x1="185" y1="105" x2="235" y2="105"/>
	<line style="fill:none;stroke:#000000;stroke-width:10;" x1="210" y1="130" x2="210" y2="105"/>
	<path style="fill:none;stroke:#000000;stroke-width:10;" d="M110,130h120c40,0,48,45,50,75"/>
</g>
<g transform="translate(80 80) scale(0.6 0.6)">
	<text transform="matrix(1.6667 0 0 1.6667 99.7054 181.3338)" style="font-family:'Arial-BoldMT'; font-size:39;">PURE</text>
</g>
<g id="frame" style="display:none;">
	<path style="display:inline;fill:none;stroke:#0042E9;stroke-width:5;" d="M115,261c0,115,170,115,170,0c115,0,115-170,0-170
		c0-115-170-115-170,0C0,91,0,261,115,261z"/>
</g>
</svg>
