<?xml version="1.0" encoding="utf-8"?>
<!-- Generator: Adobe Illustrator 16.0.0, SVG Export Plug-In . SVG Version: 6.00 Build 0)  -->
<!DOCTYPE svg PUBLIC "-//W3C//DTD SVG 1.1//EN" "http://www.w3.org/Graphics/SVG/1.1/DTD/svg11.dtd">
<svg version="1.1" id="_2.S-G-USSL-------" xmlns="http://www.w3.org/2000/svg" xmlns:xlink="http://www.w3.org/1999/xlink" x="0px"
	 y="0px" width="400px" height="400px" viewBox="0 0 400 400" style="enable-background:new 0 0 400 400;" xml:space="preserve">
<g>
	<line style="fill:none;stroke:#000000;stroke-width:10;" x1="61" y1="242.5" x2="341" y2="242.5"/>
	<polyline style="fill:none;stroke:#000000;stroke-width:10;" points="51,137.5 91,197.5 51,257.5 	"/>
	<polyline style="fill:none;stroke:#000000;stroke-width:10;" points="351,137.5 311,197.5 351,257.5 	"/>
</g>
<g>
	<line style="fill:none;stroke:#000000;stroke-width:10;" x1="220.5" y1="132" x2="220.5" y2="227"/>
	<line style="fill:none;stroke:#000000;stroke-width:10;" x1="221.5" y1="130" x2="186.5" y2="93"/>
	<line style="fill:none;stroke:#000000;stroke-width:10;" x1="173.5" y1="132" x2="225.5" y2="132"/>
	<line style="fill:none;stroke:#000000;stroke-width:10;" x1="221.5" y1="134" x2="186.5" y2="171"/>
</g>
<g id="frame" style="display:none;">
	<path style="display:inline;fill:none;stroke:#0042E9;stroke-width:5;" d="M115,285c0,115,170,115,170,0c115,0,115-170,0-170
		c0-115-170-115-170,0C0,115,0,285,115,285z"/>
</g>
</svg>
