<?xml version="1.0" encoding="utf-8"?>
<!-- Generator: Adobe Illustrator 16.0.0, SVG Export Plug-In . SVG Version: 6.00 Build 0)  -->
<!DOCTYPE svg PUBLIC "-//W3C//DTD SVG 1.1//EN" "http://www.w3.org/Graphics/SVG/1.1/DTD/svg11.dtd">
<svg version="1.1" id="_3.SUG-UCD--------" xmlns="http://www.w3.org/2000/svg" xmlns:xlink="http://www.w3.org/1999/xlink" x="0px"
	 y="0px" width="400px" height="400px" viewBox="0 0 400 400" style="enable-background:new 0 0 400 400;" xml:space="preserve">
<g>
	<path style="fill:none;stroke:#000000;stroke-width:10;" d="M172,230.5v-132c0-25,60-25,60,0v132"/>
</g>
<g>
	<line style="fill:none;stroke:#000000;stroke-width:10;" x1="171.5" y1="115" x2="231.5" y2="115"/>
	<line style="fill:none;stroke:#000000;stroke-width:10;" x1="171.5" y1="135" x2="231.5" y2="135"/>
	<line style="fill:none;stroke:#000000;stroke-width:10;" x1="171.5" y1="155" x2="231.5" y2="155"/>
</g>
<g>
	<path style="fill:none;stroke:#000000;stroke-width:10;" d="M60,292c41-86,241-86,282,0"/>
</g>
<g id="frame" style="display:none;">
	<path style="display:inline;fill:none;stroke:#0042E9;stroke-width:5;" d="M115,309c0,115,170,115,170,0c115,0,115-170,0-170
		c0-115-170-115-170,0C0,139,0,309,115,309z"/>
</g>
</svg>
