<?xml version="1.0" encoding="utf-8"?>
<!-- Generator: Adobe Illustrator 16.0.0, SVG Export Plug-In . SVG Version: 6.00 Build 0)  -->
<!DOCTYPE svg PUBLIC "-//W3C//DTD SVG 1.1//EN" "http://www.w3.org/Graphics/SVG/1.1/DTD/svg11.dtd">
<svg version="1.1" id="Version_1.0" xmlns="http://www.w3.org/2000/svg" xmlns:xlink="http://www.w3.org/1999/xlink" x="0px"
	 y="0px" width="612px" height="792px" viewBox="0 0 612 792" style="enable-background:new 0 0 612 792;" xml:space="preserve">
<g id="frame" style="display:none;">
	<path style="display:inline;fill:none;stroke:#0042E9;stroke-width:5;" d="M221,480c0,115,170,115,170,0c115,0,115-170,0-170
		c0-115-170-115-170,0C106,310,106,480,221,480z"/>
</g>
<g>
	<g transform="translate(108 128) scale(6 6)">
		<path d="M48.472,38.805c0,0.385-0.145,0.746-0.434,1.082c-0.289,0.336-0.578,0.504-0.867,0.504c-0.336,0-0.576-0.047-0.721-0.145
			c-0.289-0.238-0.748-0.574-1.373-1.008l-1.229-0.215c-0.529-0.096-0.842-0.313-0.938-0.648c-1.109,0.338-2.218,1.492-3.322,3.463
			c-0.146,0.578-0.41,1.348-0.795,2.309c-0.435,0.723-1.107,2.021-2.021,3.896c-0.627,1.638-0.938,3.439-0.938,5.412
			c0,0.338,0.172,0.771,0.52,1.299c0.492,0.771,0.765,1.228,0.814,1.371h-1.697c-0.297-0.338-0.592-0.967-0.887-1.887
			c0-0.338,0.059-0.834,0.176-1.486c0.117-0.651,0.178-1.147,0.178-1.487c-0.145,0.146-0.289,0.407-0.432,0.791
			c-0.146,1.487-0.217,2.209-0.217,2.159c0,0.146,0.19,0.697,0.575,1.656h-1.881c-0.102-0.287-0.149-0.719-0.149-1.297
			c0-0.287,0.131-0.898,0.396-1.834c0.265-0.936,0.396-1.572,0.396-1.908c0-1.151,0.053-2.641,0.158-4.465
			c-3.267-0.336-6.002-1.176-8.209-2.52c-0.386,0.482-0.938,1.229-1.656,2.238c-0.049,0.338-0.146,0.795-0.287,1.373
			c-0.193,0.338-0.457,0.817-0.793,1.442c-0.336,1.207-0.504,1.93-0.504,2.17c0,0.098,0.035,0.205,0.106,0.324
			c0.072,0.121,0.109,0.229,0.109,0.324c0.047,0.82,0.287,1.662,0.719,2.529c0.48,1.012,0.744,1.637,0.793,1.877
			c-0.147,0-0.354-0.013-0.623-0.035c-0.27-0.023-0.453-0.012-0.551,0.035c-0.098,0.051-0.123,0.176-0.072,0.375h-2.051
			c-0.147-0.146-0.172-0.529-0.074-1.156c-0.487-0.627-0.731-1.086-0.731-1.375c0,0.049,0.072-0.48,0.217-1.59
			c0.145-1.11,0.191-1.904,0.145-2.387c-0.12-1.205-0.239-1.736-0.36-1.593c0.24-0.19,0.512-0.457,0.813-0.795
			c0.181-0.146,0.271-0.457,0.271-0.938c0-0.724-0.377-1.592-1.131-2.604c-0.052,0.049-0.076,1.369-0.076,3.961
			c-0.094,0.576-0.188,1.129-0.281,1.655c-0.188,0.771-0.656,1.441-1.406,2.017c-0.188-0.146-0.211-0.264-0.069-0.358
			c-0.056-0.096-0.22-0.145-0.5-0.145c0.25-0.48,0.375-0.816,0.375-1.008c0.008-0.672,0.008-1.727,0-3.168v-2.16v-3.384
			c0-0.383,0.203-1.031,0.61-1.943c0.407-0.913,0.755-1.44,1.043-1.585c0.959-0.574,1.896-0.982,2.808-1.225
			c1.344-0.286,2.184-0.431,2.518-0.431c0.814,0,1.941,0.289,3.381,0.865c1.44,0.576,2.447,0.863,3.023,0.863
			c0.527,0,2.373-0.504,5.541-1.516c0.574-0.287,1.486-0.719,2.734-1.297c0.43-0.145,1.532-0.457,3.311-0.938
			c0.959-0.289,1.582-0.648,1.871-1.082c0.096-0.287,0.19-0.432,0.289-0.432c0.24,0.578,0.192,1.01-0.144,1.297
			c0.336,0.145,0.552,0.506,0.648,1.082c0.192,0.193,0.456,0.506,0.792,0.938c0.096,0.191,0.24,0.48,0.432,0.865l1.009,0.936
			C48.255,38.301,48.472,38.613,48.472,38.805z M22.265,55.078l-0.289-0.719l-0.145,0.072l0.217,0.646L22.265,55.078L22.265,55.078z
			"/>
	</g>
</g>
</svg>
