<?xml version="1.0" encoding="utf-8"?>
<!-- Generator: Adobe Illustrator 16.0.0, SVG Export Plug-In . SVG Version: 6.00 Build 0)  -->
<!DOCTYPE svg PUBLIC "-//W3C//DTD SVG 1.1//EN" "http://www.w3.org/Graphics/SVG/1.1/DTD/svg11.dtd">
<svg version="1.1" id="_2.S-G-USAQ-------" xmlns="http://www.w3.org/2000/svg" xmlns:xlink="http://www.w3.org/1999/xlink" x="0px"
	 y="0px" width="400px" height="400px" viewBox="0 0 400 400" style="enable-background:new 0 0 400 400;" xml:space="preserve">
<g>
	<line style="fill:none;stroke:#000000;stroke-width:10;" x1="69.5" y1="242" x2="329.5" y2="242"/>
	<polyline style="fill:none;stroke:#000000;stroke-width:10;" points="329.5,152 299.5,197 329.5,242 	"/>
</g>
<g transform="translate(120 160) scale(5 5.5)">
	<path d="M31.6,5.053c0,2.258-0.457,3.82-1.367,4.684c-1.008,1.01-2.254,1.514-3.74,1.514c-1.297,0-2.424-0.381-3.381-1.146
		c-0.816-0.621-1.463-2.029-1.943-4.229H6.35V10.5H4.725V5.875h-3.5V10.5H-0.4V4.25h21.572c0.48-2.156,1.08-3.523,1.799-4.1
		C23.881-0.615,25.006-1,26.35-1c1.438,0,2.672,0.494,3.703,1.479C31.084,1.464,31.6,2.988,31.6,5.053z M1.225,10.5V9.25h3.5v1.25
		H1.225z M29.975,5.053c0-1.666-0.361-2.82-1.08-3.463c-0.719-0.643-1.559-0.965-2.518-0.965c-1.008,0-1.848,0.311-2.52,0.93
		C23.185,2.174,22.85,3.34,22.85,5.053c0,1.668,0.371,2.846,1.115,3.537c0.742,0.691,1.594,1.035,2.555,1.035
		c0.959,0,1.775-0.309,2.447-0.928C29.639,8.078,29.975,6.863,29.975,5.053z"/>
</g>
<g id="frame" style="display:none;">
	<polyline id="_x3C_path_x3E_" style="display:inline;fill:none;stroke:#3A58A7;stroke-width:5;stroke-linecap:square;" points="
		200,373 373,200 200,27 27,200 200,373 	"/>
</g>
</svg>
