<?xml version="1.0" encoding="utf-8"?>
<!-- Generator: Adobe Illustrator 19.2.0, SVG Export Plug-In . SVG Version: 6.00 Build 0)  -->
<svg version="1.1" id="Version_1.0" xmlns="http://www.w3.org/2000/svg" xmlns:xlink="http://www.w3.org/1999/xlink" x="0px"
	 y="0px" width="612px" height="792px" viewBox="0 0 612 792" style="enable-background:new 0 0 612 792;" xml:space="preserve">
<g id="octagon" style="display:none;">
	<g id="outFrame" style="display:inline;">
		<line style="fill:none;stroke:#3A53A4;stroke-width:2;" x1="221" y1="311.5" x2="307" y2="275"/>
		<line style="fill:none;stroke:#3A53A4;stroke-width:2;" x1="307" y1="275" x2="391.5" y2="311.5"/>
		<line style="fill:none;stroke:#3A53A4;stroke-width:2;" x1="391.5" y1="311.5" x2="428" y2="398"/>
		<line style="fill:none;stroke:#3A53A4;stroke-width:2;" x1="428" y1="398" x2="391.5" y2="484.5"/>
		<line style="fill:none;stroke:#3A53A4;stroke-width:2;" x1="391.5" y1="484.5" x2="307" y2="518"/>
		<line style="fill:none;stroke:#3A53A4;stroke-width:2;" x1="307" y1="518" x2="221" y2="484.5"/>
		<line style="fill:none;stroke:#3A53A4;stroke-width:2;" x1="221" y1="484.5" x2="184" y2="398"/>
		<line style="fill:none;stroke:#3A53A4;stroke-width:2;" x1="184" y1="398" x2="221" y2="311.5"/>
	</g>
	<line id="mod2_1_" style="display:inline;fill:none;stroke:#3A53A4;stroke-width:2;" x1="205" y1="447" x2="407.2" y2="447.3"/>
	<line id="mod1_1_" style="display:inline;fill:none;stroke:#3A53A4;stroke-width:2;" x1="205" y1="349" x2="407.2" y2="348.7"/>
</g>
<g transform="translate(40 15) scale(0.8 0.8)">
	<path style="fill:none;stroke:#010101;stroke-width:10;" d="M308,522.2v-162c5-25,45-25,50,0v162"/>
	<line style="fill:none;stroke:#010101;stroke-width:10;" x1="333" y1="342.2" x2="333" y2="512.2"/>
	<path style="fill:none;stroke:#010101;stroke-width:10;" d="M295,537.2c3-30,73-30,76,0H295z"/>
</g>
<g>
	<text transform="matrix(1 0 0 1 286.5431 503.8)" style="fill:#010101; font-family:'ArialMT'; font-size:65px;">T</text>
</g>
<g>
	<text transform="matrix(1 0 0 1 229.7181 393.8)" style="fill:#010101; font-family:'ArialMT'; font-size:65px;">E</text>
	<text transform="matrix(1 0 0 1 337.9249 393.8)" style="fill:#010101; font-family:'ArialMT'; font-size:65px;">R</text>
</g>
</svg>
