<?xml version="1.0" encoding="utf-8"?>
<!-- Generator: Adobe Illustrator 16.0.0, SVG Export Plug-In . SVG Version: 6.00 Build 0)  -->
<!DOCTYPE svg PUBLIC "-//W3C//DTD SVG 1.1//EN" "http://www.w3.org/Graphics/SVG/1.1/DTD/svg11.dtd">
<svg version="1.1" id="Version_1.0" xmlns="http://www.w3.org/2000/svg" xmlns:xlink="http://www.w3.org/1999/xlink" x="0px"
	 y="0px" width="612px" height="792px" viewBox="0 0 612 792" style="enable-background:new 0 0 612 792;" xml:space="preserve">
<g id="octagon" style="display:none;">
	<g id="outFrame" style="display:inline;">
		<line style="fill:none;stroke:#0000FF;stroke-width:2;" x1="220" y1="479.5" x2="183.5" y2="393.5"/>
		<line style="fill:none;stroke:#0000FF;stroke-width:2;" x1="183.5" y1="393.5" x2="220" y2="309"/>
		<line style="fill:none;stroke:#0000FF;stroke-width:2;" x1="220" y1="309" x2="306.5" y2="272.5"/>
		<line style="fill:none;stroke:#0000FF;stroke-width:2;" x1="306.5" y1="272.5" x2="393" y2="309"/>
		<line style="fill:none;stroke:#0000FF;stroke-width:2;" x1="393" y1="309" x2="426.5" y2="393.5"/>
		<line style="fill:none;stroke:#0000FF;stroke-width:2;" x1="426.5" y1="393.5" x2="393" y2="479.5"/>
		<line style="fill:none;stroke:#0000FF;stroke-width:2;" x1="393" y1="479.5" x2="306.5" y2="516.5"/>
		<line style="fill:none;stroke:#0000FF;stroke-width:2;" x1="306.5" y1="516.5" x2="220" y2="479.5"/>
	</g>
</g>
<g id="frame" style="display:none;">
	<path style="display:inline;fill:none;stroke:#0042E9;stroke-width:5;" d="M221,481c0,115,170,115,170,0c115,0,115-170,0-170
		c0-115-170-115-170,0C106,311,106,481,221,481z"/>
</g>
<g>
	<path style="fill:none;stroke:#010101;stroke-width:10;" d="M285.136,422.543v-93.839c0-17.773,40.908-17.773,40.908,0v93.839"/>
</g>
<g>
	<path style="fill:none;stroke:#010101;stroke-width:10;" d="M339.682,315.198c23.863,0,23.863,46.919,0,46.919H271.5
		c-23.863,0-23.863-46.919,0-46.919H339.682z"/>
	<text transform="matrix(0.9591 0 0 1 291.9487 355.0078)" style="fill:#010101; font-family:'ArialMT'; font-size:42.6544;">S</text>
</g>
<g>
	<path style="fill:none;stroke:#010101;stroke-width:10;" d="M185.59,465.197c51.819-99.526,188.185-99.526,240,0H185.59z"/>
</g>
</svg>
