<?xml version="1.0" encoding="utf-8"?>
<!-- Generator: Adobe Illustrator 16.0.0, SVG Export Plug-In . SVG Version: 6.00 Build 0)  -->
<!DOCTYPE svg PUBLIC "-//W3C//DTD SVG 1.1//EN" "http://www.w3.org/Graphics/SVG/1.1/DTD/svg11.dtd">
<svg version="1.1" id="_2.S-G-UCIN-------" xmlns="http://www.w3.org/2000/svg" xmlns:xlink="http://www.w3.org/1999/xlink" x="0px"
	 y="0px" width="400px" height="400px" viewBox="0 0 400 400" style="enable-background:new 0 0 400 400;" xml:space="preserve">
<g>
	<line style="fill:none;stroke:#000000;stroke-width:10;" x1="304" y1="126.5" x2="96" y2="266.5"/>
	<line style="fill:none;stroke:#000000;stroke-width:10;" x1="96" y1="126.5" x2="304" y2="266.5"/>
</g>
<g>
	<g>
		<ellipse style="fill:none;stroke:#000000;stroke-width:10;" cx="199.5" cy="100" rx="16" ry="16"/>
		<line style="fill:none;stroke:#000000;stroke-width:10;" x1="199.5" y1="116" x2="199.5" y2="276"/>
		<line style="fill:none;stroke:#000000;stroke-width:10;" x1="119.5" y1="126" x2="279.5" y2="126"/>
		<path style="stroke:#000000;stroke-width:10;" d="M99.5,196c50,100,150,100,200,0C249.5,311,149.5,311,99.5,196"/>
		<path style="stroke:#000000;stroke-width:10;" d="M99.5,196c8,45,13,45,13,45l15-20c-13-5-18-15-25-22"/>
		<path style="stroke:#000000;stroke-width:10;" d="M299.5,196c-8,45-13,45-13,45l-15-20c13-5,18-15,25-22"/>
	</g>
</g>
<g id="frame" style="display:none;">
	<polyline id="_x3C_path_x3E_" style="display:inline;fill:none;stroke:#3A58A7;stroke-width:5;stroke-linecap:square;" points="
		200,373 373,200 200,27 27,200 200,373 	"/>
</g>
</svg>
