<?xml version="1.0" encoding="utf-8"?>
<!-- Generator: Adobe Illustrator 16.0.0, SVG Export Plug-In . SVG Version: 6.00 Build 0)  -->
<!DOCTYPE svg PUBLIC "-//W3C//DTD SVG 1.1//EN" "http://www.w3.org/Graphics/SVG/1.1/DTD/svg11.dtd">
<svg version="1.1" id="_3.S-G-UCAW-------" xmlns="http://www.w3.org/2000/svg" xmlns:xlink="http://www.w3.org/1999/xlink" x="0px"
	 y="0px" width="400px" height="400px" viewBox="0 0 400 400" style="enable-background:new 0 0 400 400;" xml:space="preserve">
<g transform="translate(10 18) scale(0.95 0.82)">
	<path style="fill:none;stroke:#000000;stroke-width:10;" d="M138.421,140.61c-60,0-60,120,0,120h120c60,0,60-120,0-120H138.421z"/>
</g>
<g>
	<line style="fill:none;stroke:#000000;stroke-width:10;" x1="148" y1="105" x2="198" y2="175"/>
	<line style="fill:none;stroke:#000000;stroke-width:10;" x1="248" y1="105" x2="198" y2="175"/>
</g>
<g>
	<ellipse style="fill:none;stroke:#000000;stroke-width:10;" cx="118" cy="250" rx="13" ry="13"/>
	<ellipse style="fill:none;stroke:#000000;stroke-width:10;" cx="198" cy="250" rx="13" ry="13"/>
	<ellipse style="fill:none;stroke:#000000;stroke-width:10;" cx="278" cy="250" rx="13" ry="13"/>
</g>
<g id="frame" style="display:none;">
	<path style="display:inline;fill:none;stroke:#0042E9;stroke-width:5;" d="M115,285c0,115,170,115,170,0c115,0,115-170,0-170
		c0-115-170-115-170,0C0,115,0,285,115,285z"/>
</g>
</svg>
