<?xml version="1.0" encoding="utf-8"?>
<!-- Generator: Adobe Illustrator 16.0.0, SVG Export Plug-In . SVG Version: 6.00 Build 0)  -->
<!DOCTYPE svg PUBLIC "-//W3C//DTD SVG 1.1//EN" "http://www.w3.org/Graphics/SVG/1.1/DTD/svg11.dtd">
<svg version="1.1" id="Version_1.0" xmlns="http://www.w3.org/2000/svg" xmlns:xlink="http://www.w3.org/1999/xlink" x="0px"
	 y="0px" width="612px" height="792px" viewBox="0 0 612 792" style="enable-background:new 0 0 612 792;" xml:space="preserve">
<g id="frame" style="display:none;">
	
		<rect id="_x3C_path_x3E_" x="126.082" y="276" style="display:inline;fill:none;stroke:#3A58A7;stroke-width:5;" width="360" height="240"/>
</g>
<g>
	<line style="fill:none;stroke:#000000;stroke-width:10;" x1="485.5" y1="275.5" x2="125.5" y2="515.5"/>
	<line style="fill:none;stroke:#000000;stroke-width:10;" x1="125.5" y1="275.5" x2="485.5" y2="515.5"/>
</g>
<g transform="translate(0 7)">
	<g>
		<ellipse style="fill:none;stroke:#000000;stroke-width:10;" cx="305" cy="299" rx="16" ry="16"/>
		<line style="fill:none;stroke:#000000;stroke-width:10;" x1="305" y1="315" x2="305" y2="475"/>
		<line style="fill:none;stroke:#000000;stroke-width:10;" x1="225" y1="325" x2="385" y2="325"/>
		<path style="stroke:#000000;stroke-width:10;" d="M205,395c50,100,150,100,200,0C355,510,255,510,205,395"/>
		<path style="stroke:#000000;stroke-width:10;" d="M205,395c8,45,13,45,13,45l15-20c-13-5-18-15-25-22"/>
		<path style="stroke:#000000;stroke-width:10;" d="M405,395c-8,45-13,45-13,45l-15-20c13-5,18-15,25-22"/>
	</g>
</g>
</svg>
