<?xml version="1.0" encoding="utf-8"?>
<!-- Generator: Adobe Illustrator 16.0.0, SVG Export Plug-In . SVG Version: 6.00 Build 0)  -->
<!DOCTYPE svg PUBLIC "-//W3C//DTD SVG 1.1//EN" "http://www.w3.org/Graphics/SVG/1.1/DTD/svg11.dtd">
<svg version="1.1" id="Version_1.0" xmlns="http://www.w3.org/2000/svg" xmlns:xlink="http://www.w3.org/1999/xlink" x="0px"
	 y="0px" width="612px" height="792px" viewBox="0 0 612 792" style="enable-background:new 0 0 612 792;" xml:space="preserve">
<g id="octagon" style="display:none;">
	<g id="outFrame" style="display:inline;">
		<line style="fill:none;stroke:#0000FF;stroke-width:2;" x1="220" y1="479.5" x2="183.5" y2="393.5"/>
		<line style="fill:none;stroke:#0000FF;stroke-width:2;" x1="183.5" y1="393.5" x2="220" y2="309"/>
		<line style="fill:none;stroke:#0000FF;stroke-width:2;" x1="220" y1="309" x2="306.5" y2="272.5"/>
		<line style="fill:none;stroke:#0000FF;stroke-width:2;" x1="306.5" y1="272.5" x2="393" y2="309"/>
		<line style="fill:none;stroke:#0000FF;stroke-width:2;" x1="393" y1="309" x2="426.5" y2="393.5"/>
		<line style="fill:none;stroke:#0000FF;stroke-width:2;" x1="426.5" y1="393.5" x2="393" y2="479.5"/>
		<line style="fill:none;stroke:#0000FF;stroke-width:2;" x1="393" y1="479.5" x2="306.5" y2="516.5"/>
		<line style="fill:none;stroke:#0000FF;stroke-width:2;" x1="306.5" y1="516.5" x2="220" y2="479.5"/>
	</g>
</g>
<g id="frame" style="display:none;">
	
		<rect id="_x3C_path_x3E_" x="126.082" y="276" style="display:inline;fill:none;stroke:#3A58A7;stroke-width:5;" width="360" height="240"/>
</g>
<g>
	<path style="fill:none;stroke:#010101;stroke-width:10;" d="M128.399,511.25c76.649-137.083,278.352-137.083,355,0H128.399z"/>
</g>
<g>
	<path style="fill:none;stroke:#010101;stroke-width:10;" d="M356.327,304.646c35.296,0,35.296,64.625,0,64.625H255.474
		c-35.296,0-35.296-64.625,0-64.625H356.327z"/>
	<text transform="matrix(1.03 0 0 1 285.7197 359.48)" style="fill:#010101; font-family:'ArialMT'; font-size:58.7502;">V</text>
	<line style="fill:none;stroke:#010101;stroke-width:10;" x1="184.878" y1="276.25" x2="184.878" y2="511.25"/>
</g>
</svg>
