<?xml version="1.0" encoding="utf-8"?>
<!-- Generator: Adobe Illustrator 16.0.0, SVG Export Plug-In . SVG Version: 6.00 Build 0)  -->
<!DOCTYPE svg PUBLIC "-//W3C//DTD SVG 1.1//EN" "http://www.w3.org/Graphics/SVG/1.1/DTD/svg11.dtd">
<svg version="1.1" id="_3.S-G-UCAWS------" xmlns="http://www.w3.org/2000/svg" xmlns:xlink="http://www.w3.org/1999/xlink" x="0px"
	 y="0px" width="400px" height="400px" viewBox="0 0 400 400" style="enable-background:new 0 0 400 400;" xml:space="preserve">
<g>
	<line style="fill:none;stroke:#000000;stroke-width:10;" x1="200" y1="5.5" x2="80" y2="255.5"/>
	<line style="fill:none;stroke:#000000;stroke-width:10;" x1="200" y1="5.5" x2="320" y2="255.5"/>
</g>
<g>
	<path style="fill:none;stroke:#000000;stroke-width:10;" d="M139.5,116c-60,0-60,120,0,120h120c60,0,60-120,0-120H139.5z"/>
</g>
<g transform="translate(0 40)">
	<line style="fill:none;stroke:#000000;stroke-width:10;" x1="151" y1="79" x2="201" y2="149"/>
	<line style="fill:none;stroke:#000000;stroke-width:10;" x1="251" y1="79" x2="201" y2="149"/>
</g>
<g id="frame" style="display:none;">
	<path style="display:inline;fill:none;stroke:#0042E9;stroke-width:5;" d="M115,261c0,115,170,115,170,0c115,0,115-170,0-170
		c0-115-170-115-170,0C0,91,0,261,115,261z"/>
</g>
</svg>
