<?xml version="1.0" encoding="utf-8"?>
<!-- Generator: Adobe Illustrator 16.0.0, SVG Export Plug-In . SVG Version: 6.00 Build 0)  -->
<!DOCTYPE svg PUBLIC "-//W3C//DTD SVG 1.1//EN" "http://www.w3.org/Graphics/SVG/1.1/DTD/svg11.dtd">
<svg version="1.1" id="_1.S-G-USAQ-------" xmlns="http://www.w3.org/2000/svg" xmlns:xlink="http://www.w3.org/1999/xlink" x="0px"
	 y="0px" width="400px" height="400px" viewBox="0 0 400 400" style="enable-background:new 0 0 400 400;" xml:space="preserve">
<g transform="translate(120 166) scale(5 5.5)">
	<path d="M38.5,5.514c0,3.21-0.61,5.43-1.824,6.659c-1.345,1.436-3.008,2.152-4.991,2.152c-1.731,0-3.235-0.542-4.512-1.629
		c-1.089-0.883-1.952-2.885-2.593-6.012H4.803v6.573H2.635V6.682h-4.671v6.575h-2.169V4.372h28.788
		c0.641-3.065,1.441-5.008,2.401-5.828c1.214-1.088,2.716-1.635,4.509-1.635c1.919,0,3.566,0.702,4.942,2.103
		C37.811,0.412,38.5,2.578,38.5,5.514z M-2.036,13.257V11.48h4.671v1.777H-2.036z M36.331,5.514c0-2.368-0.482-4.009-1.441-4.923
		c-0.96-0.914-2.081-1.372-3.36-1.372c-1.345,0-2.466,0.442-3.363,1.322c-0.897,0.88-1.344,2.537-1.344,4.972
		c0,2.371,0.495,4.046,1.488,5.028c0.99,0.982,2.127,1.471,3.41,1.471c1.28,0,2.369-0.439,3.266-1.319
		C35.883,9.814,36.331,8.087,36.331,5.514z"/>
</g>
<g id="octagon" style="display:none;">
	<g id="outFrame" style="display:inline;">
		<line style="fill:none;stroke:#0000FF;stroke-width:2;" x1="115" y1="285.5" x2="78.5" y2="199.5"/>
		<line style="fill:none;stroke:#0000FF;stroke-width:2;" x1="78.5" y1="199.5" x2="115" y2="115"/>
		<line style="fill:none;stroke:#0000FF;stroke-width:2;" x1="115" y1="115" x2="201.5" y2="78.5"/>
		<line style="fill:none;stroke:#0000FF;stroke-width:2;" x1="201.5" y1="78.5" x2="288" y2="115"/>
		<line style="fill:none;stroke:#0000FF;stroke-width:2;" x1="288" y1="115" x2="321.5" y2="199.5"/>
		<line style="fill:none;stroke:#0000FF;stroke-width:2;" x1="321.5" y1="199.5" x2="288" y2="285.5"/>
		<line style="fill:none;stroke:#0000FF;stroke-width:2;" x1="288" y1="285.5" x2="201.5" y2="322.5"/>
		<line style="fill:none;stroke:#0000FF;stroke-width:2;" x1="201.5" y1="322.5" x2="115" y2="285.5"/>
	</g>
</g>
</svg>
