<?xml version="1.0" encoding="utf-8"?>
<!-- Generator: Adobe Illustrator 16.0.0, SVG Export Plug-In . SVG Version: 6.00 Build 0)  -->
<!DOCTYPE svg PUBLIC "-//W3C//DTD SVG 1.1//EN" "http://www.w3.org/Graphics/SVG/1.1/DTD/svg11.dtd">
<svg version="1.1" id="_3.S-G-UUMRSS-----" xmlns="http://www.w3.org/2000/svg" xmlns:xlink="http://www.w3.org/1999/xlink" x="0px"
	 y="0px" width="400px" height="400px" viewBox="0 0 400 400" style="enable-background:new 0 0 400 400;" xml:space="preserve">
<g transform="translate(40 115) scale(0.8 0.8)">
	<text transform="matrix(1.25 0 0 1.25 151.8872 232.6257)" style="font-family:'Arial-BoldMT'; font-size:72;">MI</text>
</g>
<g>
	<line style="fill:none;stroke:#000000;stroke-width:10;" x1="31" y1="200" x2="371" y2="200"/>
	<path style="fill:#FFFFFF;stroke:#000000;stroke-width:10;" d="M111,165h180l-40,70H151L111,165z"/>
</g>
<g transform="translate(82 10) scale(0.6 0.6)">
	<text transform="matrix(1.6667 0 0 1.6667 98.3358 228.3333)" style="font-family:'Arial-BoldMT'; font-size:54;">SCM</text>
</g>
<g id="frame" style="display:none;">
	<path style="display:inline;fill:none;stroke:#0042E9;stroke-width:5;" d="M115,285c0,115,170,115,170,0c115,0,115-170,0-170
		c0-115-170-115-170,0C0,115,0,285,115,285z"/>
</g>
</svg>
