<?xml version="1.0" encoding="utf-8"?>
<!-- Generator: Adobe Illustrator 16.0.0, SVG Export Plug-In . SVG Version: 6.00 Build 0)  -->
<!DOCTYPE svg PUBLIC "-//W3C//DTD SVG 1.1//EN" "http://www.w3.org/Graphics/SVG/1.1/DTD/svg11.dtd">
<svg version="1.1" id="_2.S-G-IMFPW-H----" xmlns="http://www.w3.org/2000/svg" xmlns:xlink="http://www.w3.org/1999/xlink" x="0px"
	 y="0px" width="400px" height="400px" viewBox="0 0 400 400" style="enable-background:new 0 0 400 400;" xml:space="preserve">
<g>
	<text transform="matrix(1 0 0 1 177.8896 313.7471)" style="font-family:'Arial-BoldMT'; font-size:68.3266;">P</text>
</g>
<g>
	<g transform="translate(200 200)">
		<path style="stroke:#000000;stroke-width:10;" d="M0.151,0.746l-47.304-84.094c0-31.536,94.606-31.536,94.606,0L0.151,0.746z"/>
	</g>
	<g transform="translate(200 200) rotate(120)">
		<path style="stroke:#000000;stroke-width:10;" d="M0.571-0.504l-47.303-84.094c0.001-31.535,94.605-31.535,94.606,0L0.571-0.504z"
			/>
	</g>
	<g transform="translate(200 200) rotate(240)">
		<path style="stroke:#000000;stroke-width:10;" d="M-0.722-0.242l-47.302-84.095c0.001-31.534,94.606-31.535,94.606,0L-0.722-0.242
			z"/>
	</g>
</g>
<g id="octagon" style="display:none;">
	<g id="outFrame" style="display:inline;">
		<line style="fill:none;stroke:#0000FF;stroke-width:2;" x1="115" y1="285.5" x2="78.5" y2="199.5"/>
		<line style="fill:none;stroke:#0000FF;stroke-width:2;" x1="78.5" y1="199.5" x2="115" y2="115"/>
		<line style="fill:none;stroke:#0000FF;stroke-width:2;" x1="115" y1="115" x2="201.5" y2="78.5"/>
		<line style="fill:none;stroke:#0000FF;stroke-width:2;" x1="201.5" y1="78.5" x2="288" y2="115"/>
		<line style="fill:none;stroke:#0000FF;stroke-width:2;" x1="288" y1="115" x2="321.5" y2="199.5"/>
		<line style="fill:none;stroke:#0000FF;stroke-width:2;" x1="321.5" y1="199.5" x2="288" y2="285.5"/>
		<line style="fill:none;stroke:#0000FF;stroke-width:2;" x1="288" y1="285.5" x2="201.5" y2="322.5"/>
		<line style="fill:none;stroke:#0000FF;stroke-width:2;" x1="201.5" y1="322.5" x2="115" y2="285.5"/>
	</g>
</g>
</svg>
