<?xml version="1.0" encoding="utf-8"?>
<!-- Generator: Adobe Illustrator 16.0.0, SVG Export Plug-In . SVG Version: 6.00 Build 0)  -->
<!DOCTYPE svg PUBLIC "-//W3C//DTD SVG 1.1//EN" "http://www.w3.org/Graphics/SVG/1.1/DTD/svg11.dtd">
<svg version="1.1" id="Version_1.0" xmlns="http://www.w3.org/2000/svg" xmlns:xlink="http://www.w3.org/1999/xlink" x="0px"
	 y="0px" width="612px" height="792px" viewBox="0 0 612 792" style="enable-background:new 0 0 612 792;" xml:space="preserve">
<g id="octagon" style="display:none;">
	<g id="outFrame" style="display:inline;">
		<line style="fill:none;stroke:#0000FF;stroke-width:2;" x1="220" y1="479.5" x2="183.5" y2="393.5"/>
		<line style="fill:none;stroke:#0000FF;stroke-width:2;" x1="183.5" y1="393.5" x2="220" y2="309"/>
		<line style="fill:none;stroke:#0000FF;stroke-width:2;" x1="220" y1="309" x2="306.5" y2="272.5"/>
		<line style="fill:none;stroke:#0000FF;stroke-width:2;" x1="306.5" y1="272.5" x2="393" y2="309"/>
		<line style="fill:none;stroke:#0000FF;stroke-width:2;" x1="393" y1="309" x2="426.5" y2="393.5"/>
		<line style="fill:none;stroke:#0000FF;stroke-width:2;" x1="426.5" y1="393.5" x2="393" y2="479.5"/>
		<line style="fill:none;stroke:#0000FF;stroke-width:2;" x1="393" y1="479.5" x2="306.5" y2="516.5"/>
		<line style="fill:none;stroke:#0000FF;stroke-width:2;" x1="306.5" y1="516.5" x2="220" y2="479.5"/>
	</g>
</g>
<g id="frame_1_" style="display:none;">
	<rect x="174" y="264" style="display:inline;fill:none;stroke:#3A58A7;stroke-width:5;" width="264" height="264"/>
</g>
<g>
	<path style="fill:none;stroke:#010101;stroke-width:10;" d="M175.654,406.583c0,2.499,24.018,9.166,24.018-15.833
		c0-25.001,30.567-25.001,30.567,0c0,24.999,30.565,24.999,30.565,0c0-25.001,30.566-25.001,30.566,0
		c0,24.999,30.564,24.999,30.564,0c0-25.001,30.567-25.001,30.567,0c0,24.999,30.566,24.999,30.566,0
		c0-25.001,30.565-25.001,30.565,0c0,24.999,24.02,18.334,24.02,15.833"/>
</g>
<g transform="translate(0 28) scale(1 0.8)">
	<path style="fill:none;stroke:#010101;stroke-width:10;" d="M262.987,390.938c-43.667,0-43.667,99.999,0,99.999h87.333
		c43.666,0,43.666-99.999,0-99.999H262.987z"/>
</g>
<g transform="translate(0 5)">
	<ellipse style="fill:none;stroke:#010101;stroke-width:10;" cx="248.432" cy="427.417" rx="9.462" ry="10.834"/>
	<ellipse style="fill:none;stroke:#010101;stroke-width:10;" cx="306.654" cy="427.417" rx="9.462" ry="10.834"/>
	<ellipse style="fill:none;stroke:#010101;stroke-width:10;" cx="364.876" cy="427.417" rx="9.461" ry="10.834"/>
</g>
<g>
	<line style="fill:none;stroke:#010101;stroke-width:10;" x1="284.82" y1="459.916" x2="328.487" y2="459.916"/>
	<path style="fill:none;stroke:#010101;stroke-width:10;" d="M273.903,449.084c10.915,0,10.915,21.666,0,21.666"/>
	<path style="fill:none;stroke:#010101;stroke-width:10;" d="M339.403,449.084c-10.916,0-10.916,21.666,0,21.666"/>
</g>
</svg>
