<?xml version="1.0" encoding="utf-8"?>
<!-- Generator: Adobe Illustrator 16.0.0, SVG Export Plug-In . SVG Version: 6.00 Build 0)  -->
<!DOCTYPE svg PUBLIC "-//W3C//DTD SVG 1.1//EN" "http://www.w3.org/Graphics/SVG/1.1/DTD/svg11.dtd">
<svg version="1.1" id="_2.S-G-UCAWS------" xmlns="http://www.w3.org/2000/svg" xmlns:xlink="http://www.w3.org/1999/xlink" x="0px"
	 y="0px" width="400px" height="400px" viewBox="0 0 400 400" style="enable-background:new 0 0 400 400;" xml:space="preserve">
<g>
	<polyline style="fill:#FFFFFF;stroke:#000000;stroke-width:10;" points="199.25,246.125 303,189.063 199.25,132 199.25,246.125 	
		"/>
	<line style="fill:none;stroke:#000000;stroke-width:10;" x1="147.375" y1="298" x2="199.25" y2="246.125"/>
	<line style="fill:none;stroke:#000000;stroke-width:10;" x1="251.125" y1="298" x2="199.25" y2="246.125"/>
</g>
<g transform="translate(99 38) scale(0.5 0.5)">
	<line style="fill:none;stroke:#000000;stroke-width:10;" x1="145.513" y1="105.001" x2="197.388" y2="177.626"/>
	<line style="fill:none;stroke:#000000;stroke-width:10;" x1="249.264" y1="105.001" x2="197.388" y2="177.626"/>
</g>
<g id="octagon" style="display:none;">
	<g id="outFrame" style="display:inline;">
		<line style="fill:none;stroke:#0000FF;stroke-width:2;" x1="115" y1="285.5" x2="78.5" y2="199.5"/>
		<line style="fill:none;stroke:#0000FF;stroke-width:2;" x1="78.5" y1="199.5" x2="115" y2="115"/>
		<line style="fill:none;stroke:#0000FF;stroke-width:2;" x1="115" y1="115" x2="201.5" y2="78.5"/>
		<line style="fill:none;stroke:#0000FF;stroke-width:2;" x1="201.5" y1="78.5" x2="288" y2="115"/>
		<line style="fill:none;stroke:#0000FF;stroke-width:2;" x1="288" y1="115" x2="321.5" y2="199.5"/>
		<line style="fill:none;stroke:#0000FF;stroke-width:2;" x1="321.5" y1="199.5" x2="288" y2="285.5"/>
		<line style="fill:none;stroke:#0000FF;stroke-width:2;" x1="288" y1="285.5" x2="201.5" y2="322.5"/>
		<line style="fill:none;stroke:#0000FF;stroke-width:2;" x1="201.5" y1="322.5" x2="115" y2="285.5"/>
	</g>
</g>
</svg>
