<?xml version="1.0" encoding="utf-8"?>
<!-- Generator: Adobe Illustrator 16.0.0, SVG Export Plug-In . SVG Version: 6.00 Build 0)  -->
<!DOCTYPE svg PUBLIC "-//W3C//DTD SVG 1.1//EN" "http://www.w3.org/Graphics/SVG/1.1/DTD/svg11.dtd">
<svg version="1.1" id="Version_1.0" xmlns="http://www.w3.org/2000/svg" xmlns:xlink="http://www.w3.org/1999/xlink" x="0px"
	 y="0px" width="612px" height="792px" viewBox="0 0 612 792" style="enable-background:new 0 0 612 792;" xml:space="preserve">
<g id="octagon" style="display:none;">
	<g id="outFrame" style="display:inline;">
		<line style="fill:none;stroke:#0000FF;stroke-width:2;" x1="220" y1="479.5" x2="183.5" y2="393.5"/>
		<line style="fill:none;stroke:#0000FF;stroke-width:2;" x1="183.5" y1="393.5" x2="220" y2="309"/>
		<line style="fill:none;stroke:#0000FF;stroke-width:2;" x1="220" y1="309" x2="306.5" y2="272.5"/>
		<line style="fill:none;stroke:#0000FF;stroke-width:2;" x1="306.5" y1="272.5" x2="393" y2="309"/>
		<line style="fill:none;stroke:#0000FF;stroke-width:2;" x1="393" y1="309" x2="426.5" y2="393.5"/>
		<line style="fill:none;stroke:#0000FF;stroke-width:2;" x1="426.5" y1="393.5" x2="393" y2="479.5"/>
		<line style="fill:none;stroke:#0000FF;stroke-width:2;" x1="393" y1="479.5" x2="306.5" y2="516.5"/>
		<line style="fill:none;stroke:#0000FF;stroke-width:2;" x1="306.5" y1="516.5" x2="220" y2="479.5"/>
	</g>
</g>
<g>
	<line style="fill:none;stroke:#000000;stroke-width:10;" x1="381.5" y1="394.5" x2="406.5" y2="394.5"/>
	<line style="fill:none;stroke:#000000;stroke-width:10;" x1="406.5" y1="419.5" x2="406.5" y2="369.5"/>
</g>
<g>
	<polygon style="fill:#FFFFFF;stroke:#000000;stroke-width:10;" points="231,424 231,324 281,324 281,374 381,374 381,424 	"/>
	<ellipse style="fill:#FFFFFF;stroke:#000000;stroke-width:10;" cx="356" cy="429" rx="20" ry="20"/>
	<ellipse style="fill:#FFFFFF;stroke:#000000;stroke-width:10;" cx="256" cy="429" rx="20" ry="20"/>
	<rect x="241" y="334" style="fill:none;stroke:#000000;stroke-width:5;" width="30" height="43"/>
</g>
<g>
	<line style="fill:none;stroke:#000000;stroke-width:10;" x1="310" y1="373" x2="310" y2="420"/>
</g>
</svg>
