<?xml version="1.0" encoding="utf-8"?>
<!-- Generator: Adobe Illustrator 16.0.0, SVG Export Plug-In . SVG Version: 6.00 Build 0)  -->
<!DOCTYPE svg PUBLIC "-//W3C//DTD SVG 1.1//EN" "http://www.w3.org/Graphics/SVG/1.1/DTD/svg11.dtd">
<svg version="1.1" id="Version_1.0" xmlns="http://www.w3.org/2000/svg" xmlns:xlink="http://www.w3.org/1999/xlink" x="0px"
	 y="0px" width="612px" height="792px" viewBox="0 0 612 792" style="enable-background:new 0 0 612 792;" xml:space="preserve">
<g id="frame" style="display:none;">
	
		<rect id="_x3C_path_x3E_" x="126.082" y="276" style="display:inline;fill:none;stroke:#3A58A7;stroke-width:5;" width="360" height="240"/>
</g>
<g>
	<line style="fill:none;stroke:#000000;stroke-width:10;" x1="486.5" y1="275.5" x2="126.5" y2="515.5"/>
</g>
<g>
	<path style="fill:none;stroke:#000000;stroke-width:10;" d="M126,414c0,3,33,11,33-19s42-30,42,0s42,30,42,0s42-30,42,0s42,30,42,0
		s42-30,42,0s42,30,42,0s42-30,42,0s33,22,33,19"/>
</g>
<g transform="translate(78 70) scale(0.4 0.4)">
	<text transform="matrix(2.5 0 0 2.5 410.8374 710)" style="font-family:'sans-serif'; font-size:60;">D</text>
</g>
</svg>
