<?xml version="1.0" encoding="utf-8"?>
<!-- Generator: Adobe Illustrator 16.0.0, SVG Export Plug-In . SVG Version: 6.00 Build 0)  -->
<!DOCTYPE svg PUBLIC "-//W3C//DTD SVG 1.1//EN" "http://www.w3.org/Graphics/SVG/1.1/DTD/svg11.dtd">
<svg version="1.1" id="Version_1.0" xmlns="http://www.w3.org/2000/svg" xmlns:xlink="http://www.w3.org/1999/xlink" x="0px"
	 y="0px" width="612px" height="792px" viewBox="0 0 612 792" style="enable-background:new 0 0 612 792;" xml:space="preserve">
<g id="frame" style="display:none;">
	<path style="display:inline;fill:none;stroke:#0042E9;stroke-width:5;" d="M221,480c0,115,170,115,170,0c115,0,115-170,0-170
		c0-115-170-115-170,0C106,310,106,480,221,480z"/>
</g>
<g transform="translate(21 0) scale(0.9 0.9)">
	<text transform="matrix(1.1111 0 0 1.1111 225.8062 446.9998)" style="font-family:'sans-serif'; font-size:81;">SEC</text>
</g>
<g transform="translate(20 60) scale(0.9 0.9)">
	<path style="fill:none;stroke:#000000;stroke-width:10;" d="M149.778,436.444c18,0,21-15.999,21-22c0-30,42-30,42,0s42,30,42,0
		s42-30,42,0s42.001,30,42.001,0s42-30,42,0s42,30,42,0s42-30,42,0c0,6,3,22,21,22"/>
</g>
</svg>
