<?xml version="1.0" encoding="utf-8"?>
<!-- Generator: Adobe Illustrator 16.0.0, SVG Export Plug-In . SVG Version: 6.00 Build 0)  -->
<!DOCTYPE svg PUBLIC "-//W3C//DTD SVG 1.1//EN" "http://www.w3.org/Graphics/SVG/1.1/DTD/svg11.dtd">
<svg version="1.1" id="Version_1.0" xmlns="http://www.w3.org/2000/svg" xmlns:xlink="http://www.w3.org/1999/xlink" x="0px"
	 y="0px" width="612px" height="792px" viewBox="0 0 612 792" style="enable-background:new 0 0 612 792;" xml:space="preserve">
<g id="octagon" style="display:none;">
	<g id="outFrame" style="display:inline;">
		<line style="fill:none;stroke:#0000FF;stroke-width:2;" x1="220" y1="479.5" x2="183.5" y2="393.5"/>
		<line style="fill:none;stroke:#0000FF;stroke-width:2;" x1="183.5" y1="393.5" x2="220" y2="309"/>
		<line style="fill:none;stroke:#0000FF;stroke-width:2;" x1="220" y1="309" x2="306.5" y2="272.5"/>
		<line style="fill:none;stroke:#0000FF;stroke-width:2;" x1="306.5" y1="272.5" x2="393" y2="309"/>
		<line style="fill:none;stroke:#0000FF;stroke-width:2;" x1="393" y1="309" x2="426.5" y2="393.5"/>
		<line style="fill:none;stroke:#0000FF;stroke-width:2;" x1="426.5" y1="393.5" x2="393" y2="479.5"/>
		<line style="fill:none;stroke:#0000FF;stroke-width:2;" x1="393" y1="479.5" x2="306.5" y2="516.5"/>
		<line style="fill:none;stroke:#0000FF;stroke-width:2;" x1="306.5" y1="516.5" x2="220" y2="479.5"/>
	</g>
</g>
<g>
	<ellipse style="stroke:#000000;stroke-width:10;" cx="306.5" cy="406.5" rx="18" ry="18"/>
</g>
<g>
	<line style="fill:none;stroke:#000000;stroke-width:10;" x1="308" y1="306" x2="256" y2="366"/>
	<line style="fill:none;stroke:#000000;stroke-width:10;" x1="304" y1="306" x2="356" y2="366"/>
	<line style="fill:none;stroke:#000000;stroke-width:10;" x1="308" y1="336" x2="256" y2="396"/>
	<line style="fill:none;stroke:#000000;stroke-width:10;" x1="304" y1="336" x2="356" y2="396"/>
</g>
<g>
	<ellipse style="fill:none;stroke:#000000;stroke-width:10;" cx="226" cy="450" rx="13" ry="13"/>
	<ellipse style="fill:none;stroke:#000000;stroke-width:10;" cx="386" cy="450" rx="13" ry="13"/>
	<line style="fill:none;stroke:#000000;stroke-width:10;" x1="208" y1="433" x2="404" y2="433"/>
</g>
</svg>
