<?xml version="1.0" encoding="utf-8"?>
<!-- Generator: Adobe Illustrator 19.2.0, SVG Export Plug-In . SVG Version: 6.00 Build 0)  -->
<svg version="1.1" id="Version_1.0" xmlns="http://www.w3.org/2000/svg" xmlns:xlink="http://www.w3.org/1999/xlink" x="0px"
	 y="0px" width="612px" height="792px" viewBox="0 0 612 792" style="enable-background:new 0 0 612 792;" xml:space="preserve">
<g id="octagon" style="display:none;">
	<g id="outFrame" style="display:inline;">
		<line style="fill:none;stroke:#3A53A4;stroke-width:2;" x1="221" y1="311.5" x2="307" y2="275"/>
		<line style="fill:none;stroke:#3A53A4;stroke-width:2;" x1="307" y1="275" x2="391.5" y2="311.5"/>
		<line style="fill:none;stroke:#3A53A4;stroke-width:2;" x1="391.5" y1="311.5" x2="428" y2="398"/>
		<line style="fill:none;stroke:#3A53A4;stroke-width:2;" x1="428" y1="398" x2="391.5" y2="484.5"/>
		<line style="fill:none;stroke:#3A53A4;stroke-width:2;" x1="391.5" y1="484.5" x2="307" y2="518"/>
		<line style="fill:none;stroke:#3A53A4;stroke-width:2;" x1="307" y1="518" x2="221" y2="484.5"/>
		<line style="fill:none;stroke:#3A53A4;stroke-width:2;" x1="221" y1="484.5" x2="184" y2="398"/>
		<line style="fill:none;stroke:#3A53A4;stroke-width:2;" x1="184" y1="398" x2="221" y2="311.5"/>
	</g>
	<line id="mod2_1_" style="display:inline;fill:none;stroke:#3A53A4;stroke-width:2;" x1="205" y1="447" x2="407.2" y2="447.3"/>
	<line id="mod1_1_" style="display:inline;fill:none;stroke:#3A53A4;stroke-width:2;" x1="205" y1="349" x2="407.2" y2="348.7"/>
</g>
<g>
	<polyline style="fill:none;stroke:#010101;stroke-width:10;" points="282,414 334,334 234,334 286,414 	"/>
	<line style="fill:none;stroke:#010101;stroke-width:10;" x1="284" y1="409" x2="284" y2="464"/>
</g>
<g transform="translate(187 130) scale(0.4 0.4)">
	<polyline style="fill:#010101;" points="410,747.5 320,697.5 320,797.5 410,747.5 500,697.5 500,797.5 410,747.5 	"/>
</g>
<g id="special">
	<polyline id="mainR_2_" style="fill:none;stroke:#010101;stroke-width:5;" points="432,407.7 428,398 432,388.9 	"/>
</g>
<g id="special_1_">
	<line id="_x3C_path_x3E_" style="fill:none;stroke:#010101;stroke-width:5;" x1="168" y1="464" x2="432" y2="464"/>
</g>
</svg>
