<?xml version="1.0" encoding="utf-8"?>
<!-- Generator: Adobe Illustrator 16.0.0, SVG Export Plug-In . SVG Version: 6.00 Build 0)  -->
<!DOCTYPE svg PUBLIC "-//W3C//DTD SVG 1.1//EN" "http://www.w3.org/Graphics/SVG/1.1/DTD/svg11.dtd">
<svg version="1.1" id="_3.SUG-UUMSEC-----" xmlns="http://www.w3.org/2000/svg" xmlns:xlink="http://www.w3.org/1999/xlink" x="0px"
	 y="0px" width="400px" height="400px" viewBox="0 0 400 400" style="enable-background:new 0 0 400 400;" xml:space="preserve">
<g>
	<line style="fill:none;stroke:#000000;stroke-width:10;" x1="139" y1="177.5" x2="259" y2="177.5"/>
	<path style="fill:none;stroke:#000000;stroke-width:10;" d="M284,152.5c-35,0-35,50,0,50"/>
	<path style="fill:none;stroke:#000000;stroke-width:10;" d="M114,152.5c35,0,35,50,0,50"/>
</g>
<g transform="translate(60 25) scale(0.7 0.7)">
	<path style="fill:none;stroke:#000000;stroke-width:10;" d="M157.857,192.143v-97c10-35,70-35,80,0v97"/>
	<line style="fill:none;stroke:#000000;stroke-width:10;" x1="142.857" y1="192.143" x2="252.857" y2="192.143"/>
</g>
<g>
	<polyline style="fill:none;stroke:#000000;stroke-width:10;" points="347,117 307,177 347,237 	"/>
</g>
<g id="frame" style="display:none;">
	<path style="display:inline;fill:none;stroke:#0042E9;stroke-width:5;" d="M115,261c0,115,170,115,170,0c115,0,115-170,0-170
		c0-115-170-115-170,0C0,91,0,261,115,261z"/>
</g>
</svg>
