<?xml version="1.0" encoding="utf-8"?>
<!-- Generator: Adobe Illustrator 16.0.0, SVG Export Plug-In . SVG Version: 6.00 Build 0)  -->
<!DOCTYPE svg PUBLIC "-//W3C//DTD SVG 1.1//EN" "http://www.w3.org/Graphics/SVG/1.1/DTD/svg11.dtd">
<svg version="1.1" id="Version_1.0" xmlns="http://www.w3.org/2000/svg" xmlns:xlink="http://www.w3.org/1999/xlink" x="0px"
	 y="0px" width="612px" height="792px" viewBox="0 0 612 792" style="enable-background:new 0 0 612 792;" xml:space="preserve">
<g id="frame" style="display:none;">
	<path style="display:inline;fill:none;stroke:#0042E9;stroke-width:5;" d="M221,480c0,115,170,115,170,0c115,0,115-170,0-170
		c0-115-170-115-170,0C106,310,106,480,221,480z"/>
</g>
<g>
	<line style="fill:none;stroke:#000000;stroke-width:10;" x1="165.5" y1="439.5" x2="445.5" y2="439.5"/>
	<polyline style="fill:none;stroke:#000000;stroke-width:10;" points="155.5,334.5 195.5,394.5 155.5,454.5 	"/>
	<polyline style="fill:none;stroke:#000000;stroke-width:10;" points="455.5,334.5 415.5,394.5 455.5,454.5 	"/>
</g>
<g>
	<line style="fill:none;stroke:#000000;stroke-width:10;" x1="290" y1="324" x2="340" y2="324"/>
	<line style="fill:none;stroke:#000000;stroke-width:10;" x1="315" y1="349" x2="315" y2="324"/>
	<path style="fill:none;stroke:#000000;stroke-width:10;" d="M215,349h120c40,0,48,45,50,75"/>
</g>
</svg>
