<?xml version="1.0" encoding="utf-8"?>
<!-- Generator: Adobe Illustrator 16.0.0, SVG Export Plug-In . SVG Version: 6.00 Build 0)  -->
<!DOCTYPE svg PUBLIC "-//W3C//DTD SVG 1.1//EN" "http://www.w3.org/Graphics/SVG/1.1/DTD/svg11.dtd">
<svg version="1.1" id="Version_1.0" xmlns="http://www.w3.org/2000/svg" xmlns:xlink="http://www.w3.org/1999/xlink" x="0px"
	 y="0px" width="612px" height="792px" viewBox="0 0 612 792" style="enable-background:new 0 0 612 792;" xml:space="preserve">
<g id="octagon" style="display:none;">
	<g id="outFrame" style="display:inline;">
		<line style="fill:none;stroke:#3A53A4;stroke-width:2;" x1="221" y1="311.5" x2="307" y2="275"/>
		<line style="fill:none;stroke:#3A53A4;stroke-width:2;" x1="307" y1="275" x2="391.5" y2="311.5"/>
		<line style="fill:none;stroke:#3A53A4;stroke-width:2;" x1="391.5" y1="311.5" x2="428" y2="398"/>
		<line style="fill:none;stroke:#3A53A4;stroke-width:2;" x1="428" y1="398" x2="391.5" y2="484.5"/>
		<line style="fill:none;stroke:#3A53A4;stroke-width:2;" x1="391.5" y1="484.5" x2="307" y2="518"/>
		<line style="fill:none;stroke:#3A53A4;stroke-width:2;" x1="307" y1="518" x2="221" y2="484.5"/>
		<line style="fill:none;stroke:#3A53A4;stroke-width:2;" x1="221" y1="484.5" x2="184" y2="398"/>
		<line style="fill:none;stroke:#3A53A4;stroke-width:2;" x1="184" y1="398" x2="221" y2="311.5"/>
	</g>
	<line id="mod2_1_" style="display:inline;fill:none;stroke:#3A53A4;stroke-width:2;" x1="205" y1="447" x2="407.2" y2="447.3"/>
	<line id="mod1_1_" style="display:inline;fill:none;stroke:#3A53A4;stroke-width:2;" x1="205" y1="349" x2="407.2" y2="348.7"/>
</g>
<g id="frame" style="display:none;">
	<polyline id="_x3C_path_x3E_" style="display:inline;fill:none;stroke:#3A58A7;stroke-width:5;stroke-linecap:square;" points="
		306,569 479,396 306,223 133,396 306,569 	"/>
</g>
<g>
	<path style="fill:none;stroke:#010101;stroke-width:10;" d="M288.272,420.92v-93.95c0-17.793,35.454-17.793,35.454,0v93.95"/>
</g>
<g transform="translate(0 10)">
	<text transform="matrix(0.8302 0 0 1 294.1758 350.4219)" style="fill:#010101; font-family:'ArialMT'; font-size:42.7048;">P</text>
</g>
<g>
	<path style="fill:none;stroke:#010101;stroke-width:10;" d="M201.999,463.625c44.91-99.644,163.091-99.644,208,0H201.999z"/>
</g>
</svg>
