<?xml version="1.0" encoding="utf-8"?>
<!-- Generator: Adobe Illustrator 16.0.0, SVG Export Plug-In . SVG Version: 6.00 Build 0)  -->
<!DOCTYPE svg PUBLIC "-//W3C//DTD SVG 1.1//EN" "http://www.w3.org/Graphics/SVG/1.1/DTD/svg11.dtd">
<svg version="1.1" id="_3.SUG-UUMSET-----" xmlns="http://www.w3.org/2000/svg" xmlns:xlink="http://www.w3.org/1999/xlink" x="0px"
	 y="0px" width="400px" height="400px" viewBox="0 0 400 400" style="enable-background:new 0 0 400 400;" xml:space="preserve">
<g transform="translate(60 109) scale(0.7 0.7)">
	<ellipse style="fill:none;stroke:#000000;stroke-width:10;" cx="200.714" cy="200.714" rx="80" ry="80"/>
	<line style="fill:none;stroke:#000000;stroke-width:10;" x1="136.715" y1="156.715" x2="264.714" y2="244.714"/>
	<line style="fill:none;stroke:#000000;stroke-width:10;" x1="136.715" y1="244.714" x2="264.714" y2="156.715"/>
	<line style="fill:none;stroke:#000000;stroke-width:10;" x1="200.714" y1="120.714" x2="200.714" y2="280.714"/>
</g>
<g transform="translate(80 19) scale(0.6 0.6)">
	<path style="fill:none;stroke:#000000;stroke-width:10;" d="M170,276V144c0-25,60-25,60,0v132"/>
	<line style="fill:none;stroke:#000000;stroke-width:10;" x1="200" y1="276" x2="200" y2="124"/>
</g>
<g>
	<polyline style="fill:none;stroke:#000000;stroke-width:10;" points="50,189 90,249 50,309 	"/>
	<polyline style="fill:none;stroke:#000000;stroke-width:10;" points="350,189 310,249 350,309 	"/>
</g>
<g id="frame" style="display:none;">
	<path style="display:inline;fill:none;stroke:#0042E9;stroke-width:5;" d="M115,333c0,115,170,115,170,0c115,0,115-170,0-170
		c0-115-170-115-170,0C0,163,0,333,115,333z"/>
</g>
</svg>
