<?xml version="1.0" encoding="utf-8"?>
<!-- Generator: Adobe Illustrator 16.0.0, SVG Export Plug-In . SVG Version: 6.00 Build 0)  -->
<!DOCTYPE svg PUBLIC "-//W3C//DTD SVG 1.1//EN" "http://www.w3.org/Graphics/SVG/1.1/DTD/svg11.dtd">
<svg version="1.1" id="_2.SFG-UCATW------" xmlns="http://www.w3.org/2000/svg" xmlns:xlink="http://www.w3.org/1999/xlink" x="0px"
	 y="0px" width="400px" height="400px" viewBox="0 0 400 400" style="enable-background:new 0 0 400 400;" xml:space="preserve">
<g transform="translate(21 0) scale(0.9 0.9)">
	<text transform="matrix(1.1111 0 0 1.1111 108.0284 204.7776)" style="font-family:'Arial-BoldMT'; font-size:81;">SEC</text>
</g>
<g transform="translate(0 60)">
	<path style="fill:none;stroke:#000000;stroke-width:10;" d="M20,194c0,3,33,11,33-19s42-30,42,0s42,30,42,0s42-30,42,0s42,30,42,0
		s42-30,42,0s42,30,42,0s42-30,42,0s33,22,33,19"/>
</g>
<g id="frame" style="display:none;">
	
		<rect id="_x3C_path_x3E_" x="20.082" y="80" style="display:inline;fill:none;stroke:#3A58A7;stroke-width:5;" width="360" height="240"/>
</g>
</svg>
