<?xml version="1.0" encoding="utf-8"?>
<!-- Generator: Adobe Illustrator 19.2.0, SVG Export Plug-In . SVG Version: 6.00 Build 0)  -->
<svg version="1.1" id="Version_1.0" xmlns="http://www.w3.org/2000/svg" xmlns:xlink="http://www.w3.org/1999/xlink" x="0px"
	 y="0px" width="612px" height="792px" viewBox="0 0 612 792" style="enable-background:new 0 0 612 792;" xml:space="preserve">
<g id="octagon" style="display:none;">
	<g id="outFrame" style="display:inline;">
		<line style="fill:none;stroke:#3A53A4;stroke-width:2;" x1="221" y1="311.5" x2="307" y2="275"/>
		<line style="fill:none;stroke:#3A53A4;stroke-width:2;" x1="307" y1="275" x2="391.5" y2="311.5"/>
		<line style="fill:none;stroke:#3A53A4;stroke-width:2;" x1="391.5" y1="311.5" x2="428" y2="398"/>
		<line style="fill:none;stroke:#3A53A4;stroke-width:2;" x1="428" y1="398" x2="391.5" y2="484.5"/>
		<line style="fill:none;stroke:#3A53A4;stroke-width:2;" x1="391.5" y1="484.5" x2="307" y2="518"/>
		<line style="fill:none;stroke:#3A53A4;stroke-width:2;" x1="307" y1="518" x2="221" y2="484.5"/>
		<line style="fill:none;stroke:#3A53A4;stroke-width:2;" x1="221" y1="484.5" x2="184" y2="398"/>
		<line style="fill:none;stroke:#3A53A4;stroke-width:2;" x1="184" y1="398" x2="221" y2="311.5"/>
	</g>
	<line id="mod2_1_" style="display:inline;fill:none;stroke:#3A53A4;stroke-width:2;" x1="205" y1="447" x2="407.2" y2="447.3"/>
	<line id="mod1_1_" style="display:inline;fill:none;stroke:#3A53A4;stroke-width:2;" x1="205" y1="349" x2="407.2" y2="348.7"/>
</g>
<g transform="translate(50 40) scale(0.6 0.6)">
	<text transform="matrix(1.6667 0 0 1.6667 304.1787 573.6668)" style="fill:#010101; font-family:'ArialMT'; font-size:54px;">EW</text>
</g>
<g transform="translate(10 0) scale(0.95 0.88)">
	<path style="fill:none;stroke:#010101;stroke-width:10;" d="M251.6,373c-60,0-60,120,0,120h120c60,0,60-120,0-120H251.6z"/>
</g>
<g>
	<ellipse style="fill:none;stroke:#010101;stroke-width:10;" cx="226" cy="450" rx="13" ry="13"/>
	<ellipse style="fill:none;stroke:#010101;stroke-width:10;" cx="306" cy="450" rx="13" ry="13"/>
	<ellipse style="fill:none;stroke:#010101;stroke-width:10;" cx="386" cy="450" rx="13" ry="13"/>
</g>
<g id="main">
	<line style="fill:none;stroke:#010101;stroke-width:5;" x1="426" y1="317" x2="186" y2="475"/>
</g>
</svg>
