<?xml version="1.0" encoding="utf-8"?>
<!-- Generator: Adobe Illustrator 16.0.0, SVG Export Plug-In . SVG Version: 6.00 Build 0)  -->
<!DOCTYPE svg PUBLIC "-//W3C//DTD SVG 1.1//EN" "http://www.w3.org/Graphics/SVG/1.1/DTD/svg11.dtd">
<svg version="1.1" id="_1.S-G-UCIN-------" xmlns="http://www.w3.org/2000/svg" xmlns:xlink="http://www.w3.org/1999/xlink" x="0px"
	 y="0px" width="400px" height="400px" viewBox="0 0 400 400" style="enable-background:new 0 0 400 400;" xml:space="preserve">
<g>
	<g>
		<ellipse style="fill:none;stroke:#000000;stroke-width:10;" cx="200.699" cy="8.428" rx="16.928" ry="16.928"/>
		<line style="fill:none;stroke:#000000;stroke-width:10;" x1="200.699" y1="25.356" x2="200.699" y2="194.638"/>
		<line style="fill:none;stroke:#000000;stroke-width:10;" x1="116.059" y1="35.937" x2="285.34" y2="35.937"/>
		<path style="stroke:#000000;stroke-width:10;" d="M94.898,109.997c52.9,105.801,158.701,105.801,211.602,0
			C253.6,231.668,147.799,231.668,94.898,109.997"/>
		<path style="stroke:#000000;stroke-width:10;" d="M94.898,109.997c8.464,47.61,13.754,47.61,13.754,47.61l15.87-21.16
			c-13.754-5.29-19.044-15.87-26.45-23.276"/>
		<path style="stroke:#000000;stroke-width:10;" d="M306.5,109.997c-8.464,47.61-13.754,47.61-13.754,47.61l-15.87-21.16
			c13.754-5.29,19.044-15.87,26.45-23.276"/>
	</g>
</g>
<g id="octagon" style="display:none;">
	<g id="outFrame" style="display:inline;">
		<line style="fill:none;stroke:#0000FF;stroke-width:2;" x1="115" y1="189.5" x2="78.5" y2="103.5"/>
		<line style="fill:none;stroke:#0000FF;stroke-width:2;" x1="78.5" y1="103.5" x2="115" y2="19"/>
		<line style="fill:none;stroke:#0000FF;stroke-width:2;" x1="115" y1="19" x2="201.5" y2="-17.5"/>
		<line style="fill:none;stroke:#0000FF;stroke-width:2;" x1="201.5" y1="-17.5" x2="288" y2="19"/>
		<line style="fill:none;stroke:#0000FF;stroke-width:2;" x1="288" y1="19" x2="321.5" y2="103.5"/>
		<line style="fill:none;stroke:#0000FF;stroke-width:2;" x1="321.5" y1="103.5" x2="288" y2="189.5"/>
		<line style="fill:none;stroke:#0000FF;stroke-width:2;" x1="288" y1="189.5" x2="201.5" y2="226.5"/>
		<line style="fill:none;stroke:#0000FF;stroke-width:2;" x1="201.5" y1="226.5" x2="115" y2="189.5"/>
	</g>
</g>
</svg>
