<?xml version="1.0" encoding="utf-8"?>
<!-- Generator: Adobe Illustrator 16.0.0, SVG Export Plug-In . SVG Version: 6.00 Build 0)  -->
<!DOCTYPE svg PUBLIC "-//W3C//DTD SVG 1.1//EN" "http://www.w3.org/Graphics/SVG/1.1/DTD/svg11.dtd">
<svg version="1.1" id="_2.SUG-UCFTS------" xmlns="http://www.w3.org/2000/svg" xmlns:xlink="http://www.w3.org/1999/xlink" x="0px"
	 y="0px" width="400px" height="400px" viewBox="0 0 400 400" style="enable-background:new 0 0 400 400;" xml:space="preserve">
<g transform="translate(0 70)">
	<ellipse style="stroke:#000000;stroke-width:10;" cx="200.972" cy="181.542" rx="12.813" ry="12.958"/>
</g>
<g>
	<line style="fill:none;stroke:#000000;stroke-width:10;" x1="80.615" y1="200.784" x2="320.615" y2="200.784"/>
	<path style="fill:#FFFFFF;stroke:#000000;stroke-width:10;" d="M137.087,175.69h127.06l-28.237,50.185h-70.588L137.087,175.69z"/>
	<text transform="matrix(0.9846 0 0 1 185.3159 217.2715)" style="font-family:'sans-serif'; font-size:46.601;">S</text>
</g>
<g id="octagon" style="display:none;">
	<g id="outFrame" style="display:inline;">
		<line style="fill:none;stroke:#0000FF;stroke-width:2;" x1="115.698" y1="114.85" x2="200.996" y2="78.5"/>
		<line style="fill:none;stroke:#0000FF;stroke-width:2;" x1="200.996" y1="78.5" x2="284.807" y2="114.85"/>
		<line style="fill:none;stroke:#0000FF;stroke-width:2;" x1="284.807" y1="114.85" x2="321.008" y2="200.994"/>
		<line style="fill:none;stroke:#0000FF;stroke-width:2;" x1="321.008" y1="200.994" x2="284.807" y2="287.138"/>
		<line style="fill:none;stroke:#0000FF;stroke-width:2;" x1="284.807" y1="287.138" x2="200.996" y2="320.5"/>
		<line style="fill:none;stroke:#0000FF;stroke-width:2;" x1="200.996" y1="320.5" x2="115.698" y2="287.138"/>
		<line style="fill:none;stroke:#0000FF;stroke-width:2;" x1="115.698" y1="287.138" x2="79" y2="200.994"/>
		<line style="fill:none;stroke:#0000FF;stroke-width:2;" x1="79" y1="200.994" x2="115.698" y2="114.85"/>
	</g>
	
		<line id="mod2_1_" style="display:inline;fill:none;stroke:#0000FF;stroke-width:2;" x1="99.795" y1="249.807" x2="300.377" y2="250.086"/>
	
		<line id="mod1_1_" style="display:inline;fill:none;stroke:#0000FF;stroke-width:2;" x1="99.795" y1="152.18" x2="300.377" y2="151.902"/>
</g>
</svg>
