<?xml version="1.0" encoding="utf-8"?>
<!-- Generator: Adobe Illustrator 16.0.0, SVG Export Plug-In . SVG Version: 6.00 Build 0)  -->
<!DOCTYPE svg PUBLIC "-//W3C//DTD SVG 1.1//EN" "http://www.w3.org/Graphics/SVG/1.1/DTD/svg11.dtd">
<svg version="1.1" id="_3.SUG-UUMSEC-----" xmlns="http://www.w3.org/2000/svg" xmlns:xlink="http://www.w3.org/1999/xlink" x="0px"
	 y="0px" width="400px" height="400px" viewBox="0 0 400 400" style="enable-background:new 0 0 400 400;" xml:space="preserve">
<g transform="translate(60 109) scale(0.7 0.7)">
	<ellipse style="fill:none;stroke:#000000;stroke-width:10;" cx="201.429" cy="302.143" rx="80" ry="80"/>
	<line style="fill:none;stroke:#000000;stroke-width:10;" x1="137.429" y1="258.143" x2="265.428" y2="346.143"/>
	<line style="fill:none;stroke:#000000;stroke-width:10;" x1="137.429" y1="346.143" x2="265.428" y2="258.143"/>
	<line style="fill:none;stroke:#000000;stroke-width:10;" x1="201.429" y1="222.143" x2="201.429" y2="382.143"/>
</g>
<g transform="translate(80 19) scale(0.6 0.6)">
	<path style="fill:none;stroke:#000000;stroke-width:10;" d="M170.833,394.333v-132c0-25,60-25,60,0v132"/>
	<line style="fill:none;stroke:#000000;stroke-width:10;" x1="200.833" y1="394.333" x2="200.833" y2="242.333"/>
</g>
<g>
	<polyline style="fill:none;stroke:#000000;stroke-width:10;" points="349,259 309,319 349,379 	"/>
</g>
<g id="frame" style="display:none;">
	<path style="display:inline;fill:none;stroke:#0042E9;stroke-width:5;" d="M115,405c0,115,170,115,170,0c115,0,115-170,0-170
		c0-115-170-115-170,0C0,235,0,405,115,405z"/>
</g>
</svg>
