<?xml version="1.0" encoding="utf-8"?>
<!-- Generator: Adobe Illustrator 16.0.0, SVG Export Plug-In . SVG Version: 6.00 Build 0)  -->
<!DOCTYPE svg PUBLIC "-//W3C//DTD SVG 1.1//EN" "http://www.w3.org/Graphics/SVG/1.1/DTD/svg11.dtd">
<svg version="1.1" id="Version_1.0" xmlns="http://www.w3.org/2000/svg" xmlns:xlink="http://www.w3.org/1999/xlink" x="0px"
	 y="0px" width="612px" height="792px" viewBox="0 0 612 792" style="enable-background:new 0 0 612 792;" xml:space="preserve">
<g id="frame" style="display:none;">
	<path style="display:inline;fill:none;stroke:#0042E9;stroke-width:5;" d="M221,480c0,115,170,115,170,0c115,0,115-170,0-170
		c0-115-170-115-170,0C106,310,106,480,221,480z"/>
</g>
<g>
	<path d="M305.5,425.5l-55-25c-55-25-55,75,0,50L305.5,425.5l55-25c55-25,55,75,0,50L305.5,425.5"/>
</g>
<g transform="translate(100 40) scale(0.5 0.5)">
	<text transform="matrix(2 0 0 2 355.8379 680)" style="font-family:'sans-serif'; font-size:75;">R</text>
</g>
</svg>
