<?xml version="1.0" encoding="utf-8"?>
<!-- Generator: Adobe Illustrator 16.0.3, SVG Export Plug-In . SVG Version: 6.00 Build 0)  -->
<!DOCTYPE svg PUBLIC "-//W3C//DTD SVG 1.1//EN" "http://www.w3.org/Graphics/SVG/1.1/DTD/svg11.dtd">
<svg version="1.1" xmlns="http://www.w3.org/2000/svg" xmlns:xlink="http://www.w3.org/1999/xlink" x="0px" y="0px" width="612px"
	 height="792px" viewBox="0 0 612 792" enable-background="new 0 0 612 792" xml:space="preserve">
<g id="Version_1.0" display="none">
	<g id="octagon" display="inline">
		<g id="outFrame">
			<line fill="none" stroke="#0000FF" stroke-width="2" x1="220" y1="309.5" x2="306" y2="273"/>
			<line fill="none" stroke="#0000FF" stroke-width="2" x1="306" y1="273" x2="390.5" y2="309.5"/>
			<line fill="none" stroke="#0000FF" stroke-width="2" x1="390.5" y1="309.5" x2="427" y2="396"/>
			<line fill="none" stroke="#0000FF" stroke-width="2" x1="427" y1="396" x2="390.5" y2="482.5"/>
			<line fill="none" stroke="#0000FF" stroke-width="2" x1="390.5" y1="482.5" x2="306" y2="516"/>
			<line fill="none" stroke="#0000FF" stroke-width="2" x1="306" y1="516" x2="220" y2="482.5"/>
			<line fill="none" stroke="#0000FF" stroke-width="2" x1="220" y1="482.5" x2="183" y2="396"/>
			<line fill="none" stroke="#0000FF" stroke-width="2" x1="183" y1="396" x2="220" y2="309.5"/>
		</g>
		<line id="mod2_1_" fill="none" stroke="#0000FF" stroke-width="2" x1="203.966" y1="445.015" x2="406.199" y2="445.295"/>
		<line id="mod1_1_" fill="none" stroke="#0000FF" stroke-width="2" x1="203.966" y1="346.985" x2="406.199" y2="346.705"/>
	</g>
</g>
<g id="Layer_2">
	<g>
		<g transform="translate(119 85) scale(5.75 5.75)">
			<path d="M46.602,66.535c-0.961,0.191-2.377,0.432-4.248,0.719c-0.912,0.098-2.279,0.193-4.104,0.289
				c-0.145,0.432-0.193,1.006-0.145,1.725c-0.289,0-0.816,0.098-1.584,0.289c-0.02,0-0.02,0.48,0,1.438l-3.313-0.072
				c-0.096,0.332-0.311,1.375-0.646,3.127c-0.145-0.719-0.314-1.699-0.506-2.945c-0.096-0.096-1.248-0.145-3.455-0.145
				c0-0.094,0.023-0.297,0.072-0.609c0.047-0.313,0.072-0.539,0.072-0.684c-0.529-0.287-1.105-0.432-1.729-0.432
				c0-0.191-0.025-0.453-0.072-0.789c-0.049-0.336-0.072-0.6-0.072-0.791c-2.686-0.383-5.471-0.766-8.35-1.149v-1.797
				c-0.049-0.861,0.264-1.723,0.936-2.586c1.584-1.676,3.863-4.238,6.84-7.688c0.625-0.766,1.008-1.58,1.152-2.443
				c0.672-3.641,1.176-6.25,1.512-7.832c0.672-3.064,1.32-5.555,1.945-7.473c0.574-1.675,1.127-2.513,1.656-2.513
				c0.287,0,0.646,0.457,1.078,1.367c0.863,1.773,1.584,4.1,2.16,6.975c0.383,2.207,0.768,4.436,1.152,6.688
				c0.191,0.912,0.553,2.23,1.08,3.957c0.238,0.574,0.672,1.27,1.297,2.084c1.246,1.344,2.494,2.686,3.744,4.027
				c2.352,2.637,3.527,4.268,3.527,4.891v2.372H46.602z"/>
		</g>
	</g>
</g>
</svg>
