<?xml version="1.0" encoding="utf-8"?>
<!-- Generator: Adobe Illustrator 16.0.3, SVG Export Plug-In . SVG Version: 6.00 Build 0)  -->
<!DOCTYPE svg PUBLIC "-//W3C//DTD SVG 1.1//EN" "http://www.w3.org/Graphics/SVG/1.1/DTD/svg11.dtd">
<svg version="1.1" xmlns="http://www.w3.org/2000/svg" xmlns:xlink="http://www.w3.org/1999/xlink" x="0px" y="0px" width="400px"
	 height="400px" viewBox="0 0 400 400" enable-background="new 0 0 400 400" xml:space="preserve">
<g id="_1.S-P-S----------">
	<g>
		<rect x="115.5" y="130" width="50" height="120"/>
		<rect x="235.5" y="130" width="50" height="120"/>
		<rect x="177.5" y="140" width="46" height="100"/>
		<line fill="none" stroke="#000000" stroke-width="10" x1="120.5" y1="190" x2="280.5" y2="190"/>
		<line fill="none" stroke="#000000" stroke-width="10" x1="200.5" y1="240" x2="200.5" y2="265"/>
		<path fill="none" stroke="#000000" stroke-width="10" d="M150.5,280c25-20,75-20,100,0"/>
	</g>
</g>
<g id="Layer_2" display="none">
	<g id="octagon" display="inline">
		<g id="outFrame">
			<line fill="none" stroke="#0000FF" stroke-width="2" x1="115" y1="285.5" x2="78.5" y2="199.5"/>
			<line fill="none" stroke="#0000FF" stroke-width="2" x1="78.5" y1="199.5" x2="115" y2="115"/>
			<line fill="none" stroke="#0000FF" stroke-width="2" x1="115" y1="115" x2="201.5" y2="78.5"/>
			<line fill="none" stroke="#0000FF" stroke-width="2" x1="201.5" y1="78.5" x2="288" y2="115"/>
			<line fill="none" stroke="#0000FF" stroke-width="2" x1="288" y1="115" x2="321.5" y2="199.5"/>
			<line fill="none" stroke="#0000FF" stroke-width="2" x1="321.5" y1="199.5" x2="288" y2="285.5"/>
			<line fill="none" stroke="#0000FF" stroke-width="2" x1="288" y1="285.5" x2="201.5" y2="322.5"/>
			<line fill="none" stroke="#0000FF" stroke-width="2" x1="201.5" y1="322.5" x2="115" y2="285.5"/>
		</g>
	</g>
</g>
</svg>
