<?xml version="1.0" encoding="utf-8"?>
<!-- Generator: Adobe Illustrator 19.2.0, SVG Export Plug-In . SVG Version: 6.00 Build 0)  -->
<svg version="1.1" id="Version_1.0" xmlns="http://www.w3.org/2000/svg" xmlns:xlink="http://www.w3.org/1999/xlink" x="0px"
	 y="0px" width="612px" height="792px" viewBox="0 0 612 792" style="enable-background:new 0 0 612 792;" xml:space="preserve">
<g id="octagon" style="display:none;">
	<g id="outFrame" style="display:inline;">
		<line style="fill:none;stroke:#3A53A4;stroke-width:2;" x1="221" y1="311.5" x2="307" y2="275"/>
		<line style="fill:none;stroke:#3A53A4;stroke-width:2;" x1="307" y1="275" x2="391.5" y2="311.5"/>
		<line style="fill:none;stroke:#3A53A4;stroke-width:2;" x1="391.5" y1="311.5" x2="428" y2="398"/>
		<line style="fill:none;stroke:#3A53A4;stroke-width:2;" x1="428" y1="398" x2="391.5" y2="484.5"/>
		<line style="fill:none;stroke:#3A53A4;stroke-width:2;" x1="391.5" y1="484.5" x2="307" y2="518"/>
		<line style="fill:none;stroke:#3A53A4;stroke-width:2;" x1="307" y1="518" x2="221" y2="484.5"/>
		<line style="fill:none;stroke:#3A53A4;stroke-width:2;" x1="221" y1="484.5" x2="184" y2="398"/>
		<line style="fill:none;stroke:#3A53A4;stroke-width:2;" x1="184" y1="398" x2="221" y2="311.5"/>
	</g>
	<line id="mod2_1_" style="display:inline;fill:none;stroke:#3A53A4;stroke-width:2;" x1="205" y1="447" x2="407.2" y2="447.3"/>
	<line id="mod1_1_" style="display:inline;fill:none;stroke:#3A53A4;stroke-width:2;" x1="205" y1="349" x2="407.2" y2="348.7"/>
</g>
<g>
	<g transform="translate(119 85) scale(5.75 5.75)">
		<path style="fill:#010101;" d="M46.5,66.4c-1,0.2-2.4,0.4-4.2,0.7c-0.9,0.1-2.3,0.2-4.1,0.3c-0.1,0.4-0.2,1-0.1,1.7
			c-0.3,0-0.8,0.1-1.6,0.3c0,0,0,0.5,0,1.4l-3.3-0.1c-0.1,0.3-0.3,1.4-0.6,3.1c-0.1-0.7-0.3-1.7-0.5-2.9c-0.1-0.1-1.2-0.1-3.5-0.1
			c0-0.1,0-0.3,0.1-0.6c0-0.3,0.1-0.5,0.1-0.7c-0.5-0.3-1.1-0.4-1.7-0.4c0-0.2,0-0.5-0.1-0.8c0-0.3-0.1-0.6-0.1-0.8
			c-2.7-0.4-5.5-0.8-8.4-1.1v-1.8c0-0.9,0.3-1.7,0.9-2.6c1.6-1.7,3.9-4.2,6.8-7.7c0.6-0.8,1-1.6,1.2-2.4c0.7-3.6,1.2-6.2,1.5-7.8
			c0.7-3.1,1.3-5.6,1.9-7.5c0.6-1.7,1.1-2.5,1.7-2.5c0.3,0,0.6,0.5,1.1,1.4c0.9,1.8,1.6,4.1,2.2,7c0.4,2.2,0.8,4.4,1.2,6.7
			c0.2,0.9,0.6,2.2,1.1,4c0.2,0.6,0.7,1.3,1.3,2.1c1.2,1.3,2.5,2.7,3.7,4c2.4,2.6,3.5,4.3,3.5,4.9L46.5,66.4L46.5,66.4z"/>
	</g>
</g>
</svg>
