<?xml version="1.0" encoding="utf-8"?>
<!-- Generator: Adobe Illustrator 16.0.3, SVG Export Plug-In . SVG Version: 6.00 Build 0)  -->
<!DOCTYPE svg PUBLIC "-//W3C//DTD SVG 1.1//EN" "http://www.w3.org/Graphics/SVG/1.1/DTD/svg11.dtd">
<svg version="1.1" xmlns="http://www.w3.org/2000/svg" xmlns:xlink="http://www.w3.org/1999/xlink" x="0px" y="0px" width="400px"
	 height="400px" viewBox="0 0 400 400" enable-background="new 0 0 400 400" xml:space="preserve">
<g id="_1.S-P-T----------">
	<g>
		<path fill="none" stroke="#FFFFFF" stroke-width="20" d="M200.5,143c-110,20-110,35,0,68C320.5,168,320.5,178,200.5,143"/>
		<path fill="none" stroke="#FFFFFF" stroke-width="15" d="M100.5,173c100-25,100-25,180-15"/>
		<path fill="none" stroke="#FFFFFF" stroke-width="20" d="M105.5,193c75,42,95,42,193,5"/>
		<g transform="translate(100 120) scale(6 6)">
			<path fill="#FFFFFF" stroke="#000000" d="M17.938-1.013c0,0.145,0,0.313,0,0.504l-1.224,0.576
				c0.383,0.578,0.768,1.322,1.152,2.232c2.305,0.145,4.607,0.408,6.912,0.791c4.992,0.77,7.871,2.377,8.641,4.824
				c0.047,0.098,0.072,1.057,0.072,2.881c0,0.049,0,0.205,0,0.469s0,0.516,0,0.756c0.047,0.768,0.021,1.344-0.072,1.727
				c-0.145,0.721-0.648,1.393-1.512,2.018c-1.201,0.961-2.354,1.584-3.457,1.871c-0.576,0.145-2.736,0.578-6.48,1.297
				c-1.105,0.191-2.809,0.287-5.111,0.287c-2.496,0-5.617-0.336-9.359-1.008c-0.48-0.096-1.225-0.287-2.232-0.576
				c-2.977-1.008-4.682-2.352-5.111-4.031c-0.051-0.29-0.074-0.817-0.074-1.584c0-0.191,0.023-0.432,0.072-0.721
				c0-0.287,0-0.443,0-0.467c0-0.024,0-0.18,0-0.469c-0.049-0.287-0.072-0.527-0.072-0.72C0.034,8.876,0.081,8.349,0.226,8.06
				C0.945,5.9,3.081,4.412,6.634,3.595C7.066,3.501,7.691,3.38,8.507,3.236c3.119-0.574,5.207-0.863,6.264-0.863
				c0.48-0.959,0.744-1.775,0.791-2.449L9.298,2.587c-0.817-0.143-1.535-0.574-2.16-1.295l7.633-3.168
				c0.145-0.047,0.264-0.119,0.359-0.217l0.289-0.215c-0.098-0.096-0.217-0.191-0.361-0.289v-0.718h0.648
				c0.047-0.24,0.072-0.816,0.072-1.729c0.287,0.098,0.695,0.24,1.225,0.432c0,0.049,0,0.602,0,1.656l6.119-2.377
				c0.432,0.193,1.127,0.553,2.088,1.08C24.729-4.011,22.306-2.931,17.938-1.013z M32.771,10.724
				c-2.594,3.023-7.922,4.535-15.984,4.535c-7.969,0-13.297-1.535-15.984-4.607c0,0.336-0.025,0.781-0.072,1.332
				c-0.047,0.553-0.07,0.877-0.07,0.973c0,0.24,0.299,0.709,0.898,1.404c0.599,0.695,1.043,1.141,1.332,1.332
				c1.104,0.625,2.016,1.057,2.736,1.295c0.527,0.145,1.271,0.338,2.232,0.576l5.688,1.008c0.096,0,1.199,0,3.313,0
				c1.871,0,2.711,0,2.52,0c0.672-0.047,1.92-0.24,3.744-0.576c1.152-0.191,2.809-0.527,4.969-1.008
				c1.152-0.336,2.244-0.924,3.275-1.764c1.031-0.84,1.549-1.596,1.549-2.268c0-0.287-0.025-0.672-0.072-1.152
				C32.794,11.323,32.771,10.964,32.771,10.724z M26.649,4.243C25.977,4.1,24.657,3.86,22.69,3.524
				c-2.352-0.383-3.816-0.576-4.393-0.576h-0.072c0.24,0.48,0.385,0.816,0.434,1.008c0.238,0.049,1.174,0.217,2.807,0.504
				c1.488,0.191,2.688,0.432,3.6,0.719c2.305,0.77,3.457,1.873,3.457,3.313c0,1.873-1.85,3.17-5.545,3.889
				c-1.92,0.385-3.959,0.576-6.119,0.576c-1.248,0-2.352-0.059-3.313-0.18c-0.961-0.121-2.279-0.35-3.959-0.686
				C9.251,11.9,8.759,11.696,8.11,11.48c-0.648-0.215-1.273-0.646-1.873-1.295c-0.6-0.649-0.898-1.213-0.898-1.693
				c0-1.344,1.223-2.447,3.672-3.313c1.582-0.574,3.406-0.959,5.471-1.15c0.047-0.24,0.119-0.553,0.217-0.938h-1.296
				c0.336,0-0.434,0.145-2.305,0.434C9.226,3.813,7.845,4.04,6.958,4.208c-0.889,0.168-2.029,0.66-3.42,1.477
				C1.714,6.742,0.802,7.798,0.802,8.853c0,1.344,1.344,2.568,4.033,3.672c1.871,0.816,3.215,1.248,4.031,1.295
				c0.191,0.049,1.344,0.217,3.457,0.504c1.391,0.193,2.879,0.289,4.463,0.289c3.119,0,6.168-0.336,9.145-1.008
				c1.055-0.24,2.279-0.721,3.672-1.441c2.16-1.055,3.24-2.184,3.24-3.383c0-0.912-0.77-1.873-2.305-2.881
				C29.241,5.036,27.946,4.485,26.649,4.243z M5.987,8.491c0,0.098,0.143,0.313,0.432,0.648c1.055-0.91,3.455-1.75,7.199-2.52
				c0.145-0.48,0.359-1.176,0.648-2.088l0.145,0.143C8.794,5.636,5.987,6.909,5.987,8.491z M12.897,7.411
				c-0.48,0-1.727,0.336-3.742,1.008C8.241,8.708,7.473,9.165,6.85,9.788c1.246,0.961,3.023,1.656,5.328,2.088l1.225-4.465H12.897z
				 M14.843-1.085L8.507,1.507c0.432,0.289,0.672,0.434,0.719,0.434c0.096,0,2.16-0.936,6.193-2.809L14.843-1.085z M19.45,7.483
				c-1.344-0.191-2.641-0.287-3.889-0.287c-1.248,0-1.703,0.025-1.367,0.072l-1.297,4.822c0.047,0,0.576,0.072,1.584,0.217
				c0.145,0,0.936,0,2.377,0c1.584,0,3.168-0.143,4.752-0.432C21.13,10.821,20.409,9.356,19.45,7.483z M16.427,5.54
				c0-0.432,0-0.744,0-0.936l-1.008,0.07c-0.193,0-0.338,0-0.432,0c-0.145,0.625-0.314,1.25-0.506,1.873
				C15.2,6.5,15.848,6.524,16.426,6.619C16.427,6.333,16.427,5.974,16.427,5.54z M16.065,2.948h-0.574
				c-0.049,0.191-0.098,0.385-0.145,0.576l-0.145,0.432c0.432-0.047,0.768-0.072,1.008-0.072
				C16.161,3.501,16.112,3.188,16.065,2.948z M15.923,1.437c-0.049,0.24-0.145,0.527-0.289,0.863h0.361l0.07-0.072
				C16.019,2.083,15.97,1.819,15.923,1.437z M16.571-1.589c-0.145,0.049-0.289,0.121-0.434,0.217h0.072l0.217,0.145
				c0.143,0.096,0.287,0.215,0.432,0.359h0.072C16.786-1.155,16.665-1.395,16.571-1.589z M16.714,1.796
				c-0.096-0.238-0.24-0.574-0.432-1.008l0.289-0.072c0,0.049,0.012,0.121,0.035,0.217c0.023,0.096,0.059,0.336,0.107,0.719v0.144
				H16.714z M16.714,1.796c0.047,0.191,0.047,0.359,0,0.504h0.217L16.714,1.796z M17.362,3.021h-0.504
				c0.047,0.191,0.072,0.455,0.072,0.791h0.863C17.603,3.573,17.458,3.31,17.362,3.021z M23.554-4.325
				c-0.191-0.094-0.336-0.143-0.432-0.143c-0.24,0-2.232,0.816-5.977,2.447l0.145,0.217l0.072,0.143l0.072,0.072l6.264-2.736H23.554
				z M17.794,4.532h-0.576c-0.096,0.863-0.096,1.561,0,2.088c0.719,0,1.344,0.025,1.873,0.072
				C18.513,5.253,18.081,4.532,17.794,4.532z M24.634,5.899c-0.096-0.047-1.248-0.311-3.455-0.791l-1.873-0.434h-0.359l1.08,2.09
				c3.455,0.24,5.975,1.031,7.561,2.375c0.191-0.287,0.287-0.504,0.287-0.648C27.874,7.483,26.794,6.62,24.634,5.899z M20.313,7.483
				c0.191,0.289,0.889,1.68,2.09,4.176c1.631-0.047,3.215-0.672,4.752-1.871C25.954,8.685,23.673,7.917,20.313,7.483z"/>
		</g>
	</g>
</g>
<g id="Layer_2" display="none">
	<g id="octagon" display="inline">
		<g id="outFrame">
			<line fill="none" stroke="#0000FF" stroke-width="2" x1="115" y1="90.5" x2="201" y2="54"/>
			<line fill="none" stroke="#0000FF" stroke-width="2" x1="201" y1="54" x2="285.5" y2="90.5"/>
			<line fill="none" stroke="#0000FF" stroke-width="2" x1="285.5" y1="90.5" x2="322" y2="177"/>
			<line fill="none" stroke="#0000FF" stroke-width="2" x1="322" y1="177" x2="285.5" y2="263.5"/>
			<line fill="none" stroke="#0000FF" stroke-width="2" x1="285.5" y1="263.5" x2="201" y2="297"/>
			<line fill="none" stroke="#0000FF" stroke-width="2" x1="201" y1="297" x2="115" y2="263.5"/>
			<line fill="none" stroke="#0000FF" stroke-width="2" x1="115" y1="263.5" x2="78" y2="177"/>
			<line fill="none" stroke="#0000FF" stroke-width="2" x1="78" y1="177" x2="115" y2="90.5"/>
		</g>
		<line id="mod2_1_" fill="none" stroke="#0000FF" stroke-width="2" x1="98.966" y1="226.015" x2="301.199" y2="226.295"/>
		<line id="mod1_1_" fill="none" stroke="#0000FF" stroke-width="2" x1="98.966" y1="127.985" x2="301.199" y2="127.705"/>
	</g>
</g>
</svg>
