<?xml version="1.0" encoding="utf-8"?>
<!-- Generator: Adobe Illustrator 16.0.3, SVG Export Plug-In . SVG Version: 6.00 Build 0)  -->
<!DOCTYPE svg PUBLIC "-//W3C//DTD SVG 1.1//EN" "http://www.w3.org/Graphics/SVG/1.1/DTD/svg11.dtd">
<svg version="1.1" xmlns="http://www.w3.org/2000/svg" xmlns:xlink="http://www.w3.org/1999/xlink" x="0px" y="0px" width="400px"
	 height="400px" viewBox="0 0 400 400" enable-background="new 0 0 400 400" xml:space="preserve">
<g id="Layer_3">
	<g>
		<polygon stroke="#000000" points="89.5,198.5 139.5,148.5 259.5,148.5 309.5,198.5 259.5,248.5 139.5,248.5 		"/>
	</g>
	<g>
		<line fill="none" stroke="#000000" stroke-width="20" x1="199" y1="183" x2="199" y2="88"/>
	</g>
</g>
<g id="Layer_2" display="none">
	<g id="octagon" display="inline">
		<g id="outFrame">
			<line fill="none" stroke="#0000FF" stroke-width="2" x1="115" y1="114.5" x2="201" y2="78"/>
			<line fill="none" stroke="#0000FF" stroke-width="2" x1="201" y1="78" x2="285.5" y2="114.5"/>
			<line fill="none" stroke="#0000FF" stroke-width="2" x1="285.5" y1="114.5" x2="322" y2="201"/>
			<line fill="none" stroke="#0000FF" stroke-width="2" x1="322" y1="201" x2="285.5" y2="287.5"/>
			<line fill="none" stroke="#0000FF" stroke-width="2" x1="285.5" y1="287.5" x2="201" y2="321"/>
			<line fill="none" stroke="#0000FF" stroke-width="2" x1="201" y1="321" x2="115" y2="287.5"/>
			<line fill="none" stroke="#0000FF" stroke-width="2" x1="115" y1="287.5" x2="78" y2="201"/>
			<line fill="none" stroke="#0000FF" stroke-width="2" x1="78" y1="201" x2="115" y2="114.5"/>
		</g>
		<line id="mod2_1_" fill="none" stroke="#0000FF" stroke-width="2" x1="98.966" y1="250.015" x2="301.199" y2="250.295"/>
		<line id="mod1_1_" fill="none" stroke="#0000FF" stroke-width="2" x1="98.966" y1="151.985" x2="301.199" y2="151.705"/>
	</g>
</g>
<g id="Layer_4">
	<g>
		<polyline fill="none" stroke="#000000" stroke-width="8" points="123,283 145,258 167,283 189,258 211,283 233,258 255,283 
			277,258 		"/>
	</g>
</g>
</svg>
