<?xml version="1.0" encoding="utf-8"?>
<!-- Generator: Adobe Illustrator 16.0.0, SVG Export Plug-In . SVG Version: 6.00 Build 0)  -->
<!DOCTYPE svg PUBLIC "-//W3C//DTD SVG 1.1//EN" "http://www.w3.org/Graphics/SVG/1.1/DTD/svg11.dtd">
<svg version="1.1" id="Version_1.0" xmlns="http://www.w3.org/2000/svg" xmlns:xlink="http://www.w3.org/1999/xlink" x="0px"
	 y="0px" width="612px" height="792px" viewBox="0 0 612 792" enable-background="new 0 0 612 792" xml:space="preserve">
<g id="frame">
	<g>
		<rect x="174" y="263" fill="#AAFFAA" width="264" height="264"/>
		<g>
			<polyline fill="none" stroke="#000000" stroke-width="5" points="174,275.5 174,263 186.5,263 			"/>
			
				<line fill="none" stroke="#000000" stroke-width="5" stroke-dasharray="23.4314,14.0588" x1="200.559" y1="263" x2="418.471" y2="263"/>
			<polyline fill="none" stroke="#000000" stroke-width="5" points="425.5,263 438,263 438,275.5 			"/>
			
				<line fill="none" stroke="#000000" stroke-width="5" stroke-dasharray="23.4314,14.0588" x1="438" y1="289.559" x2="438" y2="507.471"/>
			<polyline fill="none" stroke="#000000" stroke-width="5" points="438,514.5 438,527 425.5,527 			"/>
			
				<line fill="none" stroke="#000000" stroke-width="5" stroke-dasharray="23.4314,14.0588" x1="411.441" y1="527" x2="193.529" y2="527"/>
			<polyline fill="none" stroke="#000000" stroke-width="5" points="186.5,527 174,527 174,514.5 			"/>
			
				<line fill="none" stroke="#000000" stroke-width="5" stroke-dasharray="23.4314,14.0588" x1="174" y1="500.441" x2="174" y2="282.529"/>
		</g>
	</g>
	<text transform="matrix(1 0 0 1 223.5 498.5)" font-family="sans-serif" font-size="288">?</text>
	<text transform="matrix(1 0 0 1 460.082 253.8145)" font-family="sans-serif" font-size="72">S</text>
</g>
</svg>
