<?xml version="1.0" encoding="utf-8"?>
<!-- Generator: Adobe Illustrator 16.0.0, SVG Export Plug-In . SVG Version: 6.00 Build 0)  -->
<!DOCTYPE svg PUBLIC "-//W3C//DTD SVG 1.1//EN" "http://www.w3.org/Graphics/SVG/1.1/DTD/svg11.dtd">
<svg version="1.1" id="Version_1.0" xmlns="http://www.w3.org/2000/svg" xmlns:xlink="http://www.w3.org/1999/xlink" x="0px"
	 y="0px" width="612px" height="792px" viewBox="0 0 612 792" enable-background="new 0 0 612 792" xml:space="preserve">
<g id="frame">
	<g>
		<polyline fill="#FF8080" points="174,516 174,326 306,204 438,326 438,516 		"/>
		<g>
			<line fill="none" stroke="#000000" stroke-width="5" x1="174" y1="516" x2="174" y2="513.5"/>
			<line fill="none" stroke="#000000" stroke-width="5" stroke-dasharray="5,5" x1="174" y1="508.5" x2="174" y2="331"/>
			<polyline fill="none" stroke="#000000" stroke-width="5" points="174,328.5 174,326 175.836,324.303 			"/>
			
				<line fill="none" stroke="#000000" stroke-width="5" stroke-dasharray="4.9927,4.9927" x1="179.502" y1="320.915" x2="302.331" y2="207.391"/>
			<polyline fill="none" stroke="#000000" stroke-width="5" points="304.164,205.697 306,204 307.836,205.697 			"/>
			
				<line fill="none" stroke="#000000" stroke-width="5" stroke-dasharray="4.9927,4.9927" x1="311.503" y1="209.085" x2="434.331" y2="322.609"/>
			<polyline fill="none" stroke="#000000" stroke-width="5" points="436.164,324.303 438,326 438,328.5 			"/>
			<line fill="none" stroke="#000000" stroke-width="5" stroke-dasharray="5,5" x1="438" y1="333.5" x2="438" y2="511"/>
			<line fill="none" stroke="#000000" stroke-width="5" x1="438" y1="513.5" x2="438" y2="516"/>
		</g>
	</g>
	<polygon stroke="#000000" points="229,277 306,207 383,277 	"/>
	<text transform="matrix(1 0 0 1 413.082 238)" font-family="sans-serif" font-size="72">S</text>
</g>
</svg>
