<?xml version="1.0" encoding="utf-8"?>
<!-- Generator: Adobe Illustrator 16.0.0, SVG Export Plug-In . SVG Version: 6.00 Build 0)  -->
<!DOCTYPE svg PUBLIC "-//W3C//DTD SVG 1.1//EN" "http://www.w3.org/Graphics/SVG/1.1/DTD/svg11.dtd">
<svg version="1.1" id="Version_1.0" xmlns="http://www.w3.org/2000/svg" xmlns:xlink="http://www.w3.org/1999/xlink" x="0px"
	 y="0px" width="612px" height="792px" viewBox="0 0 612 792" enable-background="new 0 0 612 792" xml:space="preserve">
<g id="frame">
	<g>
		<polyline fill="#FF8080" points="174,517 174,327 306,205 438,327 438,517 		"/>
		<g>
			<line fill="none" stroke="#000000" stroke-width="5" x1="174" y1="517" x2="174" y2="514.5"/>
			<line fill="none" stroke="#000000" stroke-width="5" stroke-dasharray="5,5" x1="174" y1="509.5" x2="174" y2="332"/>
			<polyline fill="none" stroke="#000000" stroke-width="5" points="174,329.5 174,327 175.836,325.303 			"/>
			
				<line fill="none" stroke="#000000" stroke-width="5" stroke-dasharray="4.9927,4.9927" x1="179.502" y1="321.915" x2="302.331" y2="208.391"/>
			<polyline fill="none" stroke="#000000" stroke-width="5" points="304.164,206.697 306,205 307.836,206.697 			"/>
			
				<line fill="none" stroke="#000000" stroke-width="5" stroke-dasharray="4.9927,4.9927" x1="311.503" y1="210.085" x2="434.331" y2="323.609"/>
			<polyline fill="none" stroke="#000000" stroke-width="5" points="436.164,325.303 438,327 438,329.5 			"/>
			<line fill="none" stroke="#000000" stroke-width="5" stroke-dasharray="5,5" x1="438" y1="334.5" x2="438" y2="512"/>
			<line fill="none" stroke="#000000" stroke-width="5" x1="438" y1="514.5" x2="438" y2="517"/>
		</g>
	</g>
	<text transform="matrix(1 0 0 1 413.082 239)" font-family="sans-serif" font-size="72">S</text>
</g>
</svg>
