<?xml version="1.0" encoding="utf-8"?>
<!-- Generator: Adobe Illustrator 16.0.0, SVG Export Plug-In . SVG Version: 6.00 Build 0)  -->
<!DOCTYPE svg PUBLIC "-//W3C//DTD SVG 1.1//EN" "http://www.w3.org/Graphics/SVG/1.1/DTD/svg11.dtd">
<svg version="1.1" id="Version_1.0" xmlns="http://www.w3.org/2000/svg" xmlns:xlink="http://www.w3.org/1999/xlink" x="0px"
	 y="0px" width="612px" height="792px" viewBox="0 0 612 792" enable-background="new 0 0 612 792" xml:space="preserve">
<g id="frame">
	<rect x="277.16" y="219.5" stroke="#000000" stroke-width="2" width="57.68" height="26"/>
	<g>
		<polyline fill="#FF8080" points="306,568 479,395 306,222 133,395 306,568 		"/>
		<g>
			<line fill="none" stroke="#000000" stroke-width="5" x1="306" y1="568" x2="307.768" y2="566.232"/>
			
				<line fill="none" stroke="#000000" stroke-width="5" stroke-dasharray="5.0991,5.0991" x1="311.373" y1="562.627" x2="475.43" y2="398.57"/>
			<polyline fill="none" stroke="#000000" stroke-width="5" points="477.232,396.768 479,395 477.232,393.232 			"/>
			
				<line fill="none" stroke="#000000" stroke-width="5" stroke-dasharray="5.0991,5.0991" x1="473.627" y1="389.626" x2="309.57" y2="225.57"/>
			<polyline fill="none" stroke="#000000" stroke-width="5" points="307.768,223.768 306,222 304.232,223.768 			"/>
			
				<line fill="none" stroke="#000000" stroke-width="5" stroke-dasharray="5.0991,5.0991" x1="300.626" y1="227.374" x2="136.571" y2="391.429"/>
			<polyline fill="none" stroke="#000000" stroke-width="5" points="134.768,393.232 133,395 134.768,396.768 			"/>
			
				<line fill="none" stroke="#000000" stroke-width="5" stroke-dasharray="5.0991,5.0991" x1="138.374" y1="400.373" x2="302.429" y2="564.43"/>
			<line fill="none" stroke="#000000" stroke-width="5" x1="304.232" y1="566.232" x2="306" y2="568"/>
		</g>
	</g>
	<text transform="matrix(1 0 0 1 429.082 261.8145)" font-family="sans-serif" font-size="72">S</text>
</g>
</svg>
