<?xml version="1.0" encoding="utf-8"?>
<!-- Generator: Adobe Illustrator 16.0.0, SVG Export Plug-In . SVG Version: 6.00 Build 0)  -->
<!DOCTYPE svg PUBLIC "-//W3C//DTD SVG 1.1//EN" "http://www.w3.org/Graphics/SVG/1.1/DTD/svg11.dtd">
<svg version="1.1" id="Version_1.0" xmlns="http://www.w3.org/2000/svg" xmlns:xlink="http://www.w3.org/1999/xlink" x="0px" y="0px"
	 width="612px" height="792px" viewBox="0 0 612 792" enable-background="new 0 0 612 792" xml:space="preserve">
<g id="frame">
	<polyline fill="#FF8080" stroke="#000000" stroke-width="5" stroke-dasharray="5,5" points="306,568 479,395 306,222 133,395 
		306,568 	"/>
	<g>
		
			<rect x="454.604" y="384.778" transform="matrix(-0.7071 0.7071 -0.7071 -0.7071 1072.3613 345.4267)" width="20.069" height="20.069"/>
		
			<rect x="137.327" y="385.135" transform="matrix(-0.7071 0.7071 -0.7071 -0.7071 530.9856 570.4018)" width="20.069" height="20.068"/>
		
			<rect x="295.804" y="543.584" transform="matrix(-0.7071 0.7071 -0.7071 -0.7071 913.5682 728.8269)" width="20.07" height="20.071"/>
		
			<rect x="296.135" y="226.328" transform="matrix(-0.7071 0.7071 -0.7071 -0.7071 689.7992 187.0069)" width="20.07" height="20.069"/>
	</g>
	<text transform="matrix(1 0 0 1 434.082 263.8145)" font-family="sans-serif" font-size="72">S</text>
</g>
</svg>
