<?xml version="1.0" encoding="utf-8"?>
<!-- Generator: Adobe Illustrator 16.0.0, SVG Export Plug-In . SVG Version: 6.00 Build 0)  -->
<!DOCTYPE svg PUBLIC "-//W3C//DTD SVG 1.1//EN" "http://www.w3.org/Graphics/SVG/1.1/DTD/svg11.dtd">
<svg version="1.1" id="Version_1.0" xmlns="http://www.w3.org/2000/svg" xmlns:xlink="http://www.w3.org/1999/xlink" x="0px"
	 y="0px" width="612px" height="792px" viewBox="0 0 612 792" enable-background="new 0 0 612 792" xml:space="preserve">
<g id="frame">
	<g>
		<polyline fill="#FF8080" points="437.5,273 437.5,463 305.5,585 173.5,463 173.5,273 		"/>
		<g>
			<line fill="none" stroke="#000000" stroke-width="5" x1="437.5" y1="273" x2="437.5" y2="285.5"/>
			
				<line fill="none" stroke="#000000" stroke-width="5" stroke-dasharray="23.5714,14.1429" x1="437.5" y1="299.643" x2="437.5" y2="443.429"/>
			<polyline fill="none" stroke="#000000" stroke-width="5" points="437.5,450.5 437.5,463 428.32,471.484 			"/>
			
				<line fill="none" stroke="#000000" stroke-width="5" stroke-dasharray="22.1063,13.2638" x1="418.58" y1="480.487" x2="319.55" y2="572.015"/>
			<polyline fill="none" stroke="#000000" stroke-width="5" points="314.68,576.516 305.5,585 296.32,576.516 			"/>
			
				<line fill="none" stroke="#000000" stroke-width="5" stroke-dasharray="22.1063,13.2638" x1="286.58" y1="567.513" x2="187.55" y2="475.985"/>
			<polyline fill="none" stroke="#000000" stroke-width="5" points="182.68,471.484 173.5,463 173.5,450.5 			"/>
			
				<line fill="none" stroke="#000000" stroke-width="5" stroke-dasharray="23.5714,14.1429" x1="173.5" y1="436.357" x2="173.5" y2="292.571"/>
			<line fill="none" stroke="#000000" stroke-width="5" x1="173.5" y1="285.5" x2="173.5" y2="273"/>
		</g>
	</g>
	<text transform="matrix(1 0 0 1 454.082 271.8145)" font-family="sans-serif" font-size="72">S</text>
</g>
</svg>
