<?xml version="1.0" encoding="utf-8"?>
<!-- Generator: Adobe Illustrator 16.0.0, SVG Export Plug-In . SVG Version: 6.00 Build 0)  -->
<!DOCTYPE svg PUBLIC "-//W3C//DTD SVG 1.1//EN" "http://www.w3.org/Graphics/SVG/1.1/DTD/svg11.dtd">
<svg version="1.1" id="Version_1.0" xmlns="http://www.w3.org/2000/svg" xmlns:xlink="http://www.w3.org/1999/xlink" x="0px"
	 y="0px" width="612px" height="792px" viewBox="0 0 612 792" style="enable-background:new 0 0 612 792;" xml:space="preserve">
<g id="octagon" style="display:none;">
	<g id="outFrame" style="display:inline;">
		<line style="fill:none;stroke:#0000FF;stroke-width:2;" x1="220" y1="479.5" x2="183.5" y2="393.5"/>
		<line style="fill:none;stroke:#0000FF;stroke-width:2;" x1="183.5" y1="393.5" x2="220" y2="309"/>
		<line style="fill:none;stroke:#0000FF;stroke-width:2;" x1="220" y1="309" x2="306.5" y2="272.5"/>
		<line style="fill:none;stroke:#0000FF;stroke-width:2;" x1="306.5" y1="272.5" x2="393" y2="309"/>
		<line style="fill:none;stroke:#0000FF;stroke-width:2;" x1="393" y1="309" x2="426.5" y2="393.5"/>
		<line style="fill:none;stroke:#0000FF;stroke-width:2;" x1="426.5" y1="393.5" x2="393" y2="479.5"/>
		<line style="fill:none;stroke:#0000FF;stroke-width:2;" x1="393" y1="479.5" x2="306.5" y2="516.5"/>
		<line style="fill:none;stroke:#0000FF;stroke-width:2;" x1="306.5" y1="516.5" x2="220" y2="479.5"/>
	</g>
</g>
<g>
	<g transform="scale(120) translate(0.391667 0.55) translate(-0.0333333 0)">
		<polygon id="_65633920" style="fill:#FFFFFF;" points="1.738,2.811 1.877,2.811 1.877,2.463 1.738,2.463 		"/>
		<polygon id="_64213456" style="fill:#FFFFFF;" points="2.643,2.811 2.712,2.811 2.712,2.707 2.643,2.707 		"/>
		<polygon id="_103741008" style="fill:#FFFFFF;" points="1.529,2.951 2.851,2.951 2.851,2.881 1.529,2.881 		"/>
		<polygon id="_108051176" style="fill:#FFFFFF;" points="2.643,3.125 2.712,3.125 2.712,3.02 2.643,3.02 		"/>
		<polygon id="_64028088" style="fill:#FFFFFF;" points="1.738,3.368 1.877,3.368 1.877,3.02 1.738,3.02 		"/>
		<path id="_106699768" d="M1.738,3.02h0.139v0.348H1.738V3.02z M2.712,3.125h-0.07V3.02h0.07V3.125z M1.529,2.951v-0.07h1.323v0.07
			H1.529z M2.712,2.811h-0.07V2.707h0.07V2.811z M1.738,2.463h0.139v0.348H1.738V2.463z M1.668,2.811H1.459V3.02h0.209v0.418h0.278
			V3.02h0.627v0.174h0.209V3.02h0.139V2.811H2.782V2.637H2.573v0.174H1.946V2.394H1.668V2.811z"/>
	</g>
	<text transform="matrix(1 0 0 1 292.0293 368.5)" style="font-family:'sans-serif'; font-size:65;">A</text>
</g>
</svg>
