<?xml version="1.0" encoding="utf-8"?>
<!-- Generator: Adobe Illustrator 19.2.1, SVG Export Plug-In . SVG Version: 6.00 Build 0)  -->
<svg version="1.1" baseProfile="basic" id="Version_1.0"
	 xmlns="http://www.w3.org/2000/svg" xmlns:xlink="http://www.w3.org/1999/xlink" x="0px" y="0px" viewBox="0 0 400 400"
	 xml:space="preserve">
<g id="main">
	<path style="fill:none;stroke:#000000;stroke-width:5;stroke-linecap:round;stroke-linejoin:round;stroke-miterlimit:10;" d="
		M177.4,328.4c15,0,27.1-11.4,27.1-25.5c0-14.1-12.1-25.5-27.1-25.5"/>
	<path style="fill:none;stroke:#000000;stroke-width:5;stroke-linecap:round;stroke-linejoin:round;stroke-miterlimit:10;" d="
		M177.4,277.1c15,0,27.1-11.4,27.1-25.5c0-14.1-12.1-25.5-27.1-25.5"/>
	<path style="fill:none;stroke:#000000;stroke-width:5;stroke-linecap:round;stroke-linejoin:round;stroke-miterlimit:10;" d="
		M177.4,225.7c15,0,27.1-11.4,27.1-25.5c0-14.1-12.1-25.5-27.1-25.5"/>
	<path style="fill:none;stroke:#000000;stroke-width:5;stroke-linecap:round;stroke-linejoin:round;stroke-miterlimit:10;" d="
		M177.4,173.2c15,0,27.1-11.4,27.1-25.5c0-14.1-12.1-25.5-27.1-25.5"/>
	<path style="fill:none;stroke:#000000;stroke-width:5;stroke-linecap:round;stroke-linejoin:round;stroke-miterlimit:10;" d="
		M177.4,122.2c15,0,27.1-11.4,27.1-25.5c0-14.1-12.1-25.5-27.1-25.5"/>
</g>
<g id="template" style="display:none;">
	<g style="display:inline;">
		<text transform="matrix(1 0 0 1 241.5557 376.7637)" style="font-family:'ArialMT'; font-size:23.6512px;">H</text>
		
			<rect x="223" y="344.5" style="fill:none;stroke:#000000;stroke-width:4;stroke-linecap:round;stroke-miterlimit:8;" width="56.6" height="53.2"/>
	</g>
	<g style="display:inline;">
		<text transform="matrix(1 0 0 1 238.9092 39.0449)" style="font-family:'ArialMT'; font-size:23.6512px;">H</text>
		
			<rect x="221.3" y="6.8" style="fill:none;stroke:#000000;stroke-width:4;stroke-linecap:round;stroke-miterlimit:8;" width="56.6" height="53.2"/>
	</g>
	<g id="points" style="display:inline;">
		<g>
			<text transform="matrix(1 0 0 1 97.9819 82.5664)" style="font-family:'ArialMT'; font-size:30.9473px;">P</text>
			<text transform="matrix(1 0 0 1 118.5 82.5664)" style="font-family:'ArialMT'; font-size:30.9473px;">T</text>
			<text transform="matrix(1 0 0 1 137.8677 82.5664)" style="font-family:'ArialMT'; font-size:30.9473px;"> </text>
			<text transform="matrix(1 0 0 1 146.4658 82.5664)" style="font-family:'ArialMT'; font-size:30.9473px;">1</text>
			<text transform="matrix(1 0 0 1 163.647 82.5664)" style="font-family:'ArialMT'; font-size:30.9473px;">  </text>
			<g>
				<g>
					
						<line style="fill:none;stroke:#000000;stroke-width:5;stroke-linecap:round;stroke-linejoin:round;stroke-miterlimit:10;" x1="163.7" y1="74.1" x2="211.7" y2="74.1"/>
					<path d="M220.5,70.3c-6.2-1.9-10.2-3.6-15.2-5.6v18.9c1.8-0.8,9-3.7,15.2-5.6c6.6-2,12.7-3.4,16.6-3.9
						C233.2,73.6,227.1,72.3,220.5,70.3z"/>
				</g>
			</g>
		</g>
		<g>
			<text transform="matrix(1 0 0 1 93.3281 339.5088)" style="font-family:'ArialMT'; font-size:30.9473px;">P</text>
			<text transform="matrix(1 0 0 1 113.8462 339.5088)" style="font-family:'ArialMT'; font-size:30.9473px;">T</text>
			<text transform="matrix(1 0 0 1 133.2139 339.5088)" style="font-family:'ArialMT'; font-size:30.9473px;"> 2  </text>
			<g>
				<g>
					
						<line style="fill:none;stroke:#000000;stroke-width:5;stroke-linecap:round;stroke-linejoin:round;stroke-miterlimit:10;" x1="164" y1="331.1" x2="212" y2="331.1"/>
					<path d="M220.9,327.2c-6.2-1.9-10.2-3.6-15.2-5.6v18.9c1.8-0.8,9-3.7,15.2-5.6c6.6-2,12.6-3.4,16.6-3.9
						C233.5,330.6,227.5,329.2,220.9,327.2z"/>
				</g>
			</g>
		</g>
	</g>
</g>
<g id="example1" style="display:none;">
	
		<text id="varHe1" transform="matrix(1 0 0 1 225.7803 376.7637)" style="display:inline; font-family:'ArialMT'; font-size:23.6512px;">ENY</text>
	
		<text id="varHe" transform="matrix(1 0 0 1 223.1338 39.0449)" style="display:inline; font-family:'ArialMT'; font-size:23.6512px;">ENY</text>
	<g style="display:inline;">
		<path style="fill:none;stroke:#808080;stroke-width:5;stroke-linejoin:round;stroke-miterlimit:8;" d="M103.7,335.1
			c12-4.3,37.3,1.6,50.3,2.5c11.2,6.1,9.5,5.3,24,7.4c4.6,0.6,13.7,2.5,13.7,2.5c8.8-0.4,17.5-0.6,26.3-1.2
			c8.6-0.6,16.6-7.6,25.1-9.8c20.7,1.2,39.8,3.7,60.5,3.7"/>
		<path style="fill:none;stroke:#808080;stroke-width:5;stroke-linejoin:round;stroke-miterlimit:8;" d="M114.7,55.8
			c17.9-2.6,35.8-3.1,53.8-5.1c16.4,1.7,30.6,8.3,46.8,10.3c10.3,3.1,20.1,6,30.4,8.6c9.7-0.6,19.5-0.9,29.2-1.7
			c11.1-1.1,21.8-6.6,32.7-8.6c4.7-2.3,2.3-1.7,7-1.7"/>
		
			<polygon style="fill:none;stroke:#808080;stroke-width:3;stroke-linecap:round;stroke-linejoin:round;stroke-miterlimit:8;" points="
			134.1,170.1 86.9,209.7 134.1,249.4 181.4,209.7 		"/>
	</g>
</g>
<g id="example2" style="display:none;">
	<g style="display:inline;">
		<path style="fill:none;stroke:#808080;stroke-width:5;stroke-linejoin:round;stroke-miterlimit:8;" d="M103.7,335.1
			c12-4.3,37.3,1.6,50.3,2.5c11.2,6.1,9.5,5.3,24,7.4c4.6,0.6,13.7,2.5,13.7,2.5c8.8-0.4,17.5-0.6,26.3-1.2
			c8.6-0.6,16.6-7.6,25.1-9.8c20.7,1.2,39.8,3.7,60.5,3.7"/>
		<path style="fill:none;stroke:#808080;stroke-width:5;stroke-linejoin:round;stroke-miterlimit:8;" d="M114.7,55.8
			c17.9-2.6,35.8-3.1,53.8-5.1c16.4,1.7,30.6,8.3,46.8,10.3c10.3,3.1,20.1,6,30.4,8.6c9.7-0.6,19.5-0.9,29.2-1.7
			c11.1-1.1,21.8-6.6,32.7-8.6c4.7-2.3,2.3-1.7,7-1.7"/>
		
			<polygon style="fill:#FF0000;stroke:#808080;stroke-width:3;stroke-linecap:round;stroke-linejoin:round;stroke-miterlimit:8;" points="
			134.1,170.1 86.9,209.7 134.1,249.4 181.4,209.7 		"/>
	</g>
</g>
<g id="main2" style="display:none;">
	
		<path style="display:inline;fill:none;stroke:#FF0000;stroke-width:5;stroke-linecap:round;stroke-linejoin:round;stroke-miterlimit:10;" d="
		M242.2,331.3c15,0,27.1-11.4,27.1-25.5c0-14.1-12.1-25.5-27.1-25.5"/>
	
		<path style="display:inline;fill:none;stroke:#FF0000;stroke-width:5;stroke-linecap:round;stroke-linejoin:round;stroke-miterlimit:10;" d="
		M242.2,280c15,0,27.1-11.4,27.1-25.5c0-14.1-12.1-25.5-27.1-25.5"/>
	
		<path style="display:inline;fill:none;stroke:#FF0000;stroke-width:5;stroke-linecap:round;stroke-linejoin:round;stroke-miterlimit:10;" d="
		M242.2,228.5c15,0,27.1-11.4,27.1-25.5c0-14.1-12.1-25.5-27.1-25.5"/>
	
		<path style="display:inline;fill:none;stroke:#FF0000;stroke-width:5;stroke-linecap:round;stroke-linejoin:round;stroke-miterlimit:10;" d="
		M242.2,176c15,0,27.1-11.4,27.1-25.5c0-14.1-12.1-25.5-27.1-25.5"/>
	
		<path style="display:inline;fill:none;stroke:#FF0000;stroke-width:5;stroke-linecap:round;stroke-linejoin:round;stroke-miterlimit:10;" d="
		M242.2,125.1c15,0,27.1-11.4,27.1-25.5c0-14.1-12.1-25.5-27.1-25.5"/>
</g>
<g id="main2_1_">
	<path style="fill:none;stroke:#FF0000;stroke-width:5;stroke-linecap:round;stroke-linejoin:round;stroke-miterlimit:10;" d="
		M242.2,71.6c-15-0.2-27.2,11.1-27.4,25.2c-0.2,14.1,11.8,25.6,26.8,25.8"/>
	<path style="fill:none;stroke:#FF0000;stroke-width:5;stroke-linecap:round;stroke-linejoin:round;stroke-miterlimit:10;" d="
		M241.6,122.9c-15-0.2-27.2,11.1-27.4,25.2c-0.2,14.1,11.8,25.6,26.8,25.8"/>
	<path style="fill:none;stroke:#FF0000;stroke-width:5;stroke-linecap:round;stroke-linejoin:round;stroke-miterlimit:10;" d="
		M241,174.4c-15-0.2-27.2,11.1-27.4,25.2c-0.2,14.1,11.8,25.6,26.8,25.8"/>
	<path style="fill:none;stroke:#FF0000;stroke-width:5;stroke-linecap:round;stroke-linejoin:round;stroke-miterlimit:10;" d="
		M240.4,226.8c-15-0.2-27.2,11.1-27.4,25.2c-0.2,14.1,11.8,25.6,26.8,25.8"/>
	<path style="fill:none;stroke:#FF0000;stroke-width:5;stroke-linecap:round;stroke-linejoin:round;stroke-miterlimit:10;" d="
		M239.9,277.8c-15-0.2-27.2,11.1-27.4,25.2c-0.2,14.1,11.8,25.6,26.8,25.8"/>
</g>
</svg>
