<?xml version="1.0" encoding="utf-8"?>
<!-- Generator: Adobe Illustrator 19.2.1, SVG Export Plug-In . SVG Version: 6.00 Build 0)  -->
<svg version="1.1" baseProfile="basic" id="Version_1.0"
	 xmlns="http://www.w3.org/2000/svg" xmlns:xlink="http://www.w3.org/1999/xlink" x="0px" y="0px" viewBox="0 0 400 400"
	 xml:space="preserve">
<g id="main">
	<path style="fill:none;stroke:#000000;stroke-width:2;stroke-miterlimit:10;" d="M48.5,174l57-58 M49.2,182.8l76.2-75.7 M51.5,192
		l90.4-91.4 M52.5,200L155.4,97.3 M54.8,208.2L167.4,95.7 M55.2,218.5L179.7,94.4 M57.5,226.5L189.6,93.7 M57.8,236.1l142-141.7
		 M59.5,244.5L208.4,95.7 M61.2,253.5L221.9,92.4 M64.2,260.5L228.7,96 M70.5,263.8L237,97.7 M78.5,266.8L246.5,98 M87.3,268.5
		L256,98.7 M194.3,292.5l146.5-146.2 M204.7,292.5l144.8-144.9 M216,291.3l141.2-140.8 M229.2,288.6L363,154.5 M158.5,287.8
		l148.3-149.2 M166.2,290.3l150.3-150.2 M174.5,292.5L324.3,142 M185.3,292.5l148-148.3 M96.7,268.5L264.8,99.4 M252.3,286
		l114.9-114.7 M264,284.6l104.4-105.3 M274.9,283.9l93.4-94 M286.6,281.9l81.7-81 M240.3,287.8L366,161.9 M301.6,277.3l66.7-66.1
		 M338.2,250.8l29.1-29.8 M105.5,270.2l168-168.7 M115.5,270.2l163.6-164.3 M125.4,270.2L284.3,111 M133.9,271.8l154.5-154.1
		 M141.5,274.8l151.7-151.7 M151.5,283.9l150.1-149.3 M146.4,278.8l150.3-149.3"/>
	<path style="fill:none;stroke:#000000;stroke-width:5.3925;stroke-linecap:round;stroke-linejoin:round;stroke-miterlimit:10;" d="
		M211.6,94.1c-20.8-6.7-44.8,0.3-66.1,3c-20.8,5.1-37,17.2-56.9,24c-13.8,20.8-5.1,15.9-21,21c-5.9,5.9-11.9,11.9-17.8,17.8
		c-2.2,2.2-6.2,6.2-6.2,6.2c2.4,14.8,5.7,27.5,9.2,41.8c0.3,2.2,4.6,43.1,5.9,48c4.6,15.4,27.5,13.5,38.9,14.8
		c38.6,4.3,18.6,0.8,45,6.2c21.9,32.9,85.5,12.7,110.9,11.9c18.9-2.2,41.3-2.2,56.9-14.8c5.1-4,6.7-11.6,12.1-15.1
		c5.4-3.2,12.1-4,18.1-5.9c3-1.1,8.9-3,8.9-3c7.3-7.8,10.3-16.7,18.1-24c1.1-3,3-5.9,3-9.2c0-19.9,2.7-40.7-3-59.8
		c-2.2-7-11.1-10.2-18.1-11.9c-29.9-7.3-15.9-4.6-42.1-8.9c-16.7-11.6-18.3-35.8-41.8-39.1c-10.8-1.6-21.9-1.9-32.9-3
		C212.5,87.4,217.6,82.5,211.6,94.1"/>
	<g>
		<circle style="fill:#FFFF80;stroke:#000000;stroke-width:5;" cx="220.2" cy="212.3" r="25.3"/>
		<polyline style="fill:#FFFF80;stroke:#000000;stroke-width:5;" points="210.7,190 210.7,142.6 229.7,142.6 229.7,190 		"/>
		<text transform="matrix(1 0 0 1 212.5509 218.6683)" style="font-family:'ArialMT'; font-size:20.2793px;">C</text>
		
			<text transform="matrix(1 0 0 1 212.5509 218.6683)" style="fill:none;stroke:#000000; font-family:'ArialMT'; font-size:20.2793px;">C</text>
	</g>
	<g>
		<rect x="154.5" y="175.7" style="fill:#FFFFFF;stroke:#FFFFFF;" width="44.4" height="16.2"/>
		<text transform="matrix(1.0935 0 0 1 155.6036 190.4676)" style="font-family:'ArialMT'; font-size:18.2731px;">CML</text>
		
			<text transform="matrix(1.0935 0 0 1 155.6036 190.4676)" style="fill:none;stroke:#000000; font-family:'ArialMT'; font-size:18.2731px;">CML</text>
	</g>
</g>
</svg>
