<?xml version="1.0" encoding="utf-8"?>
<!-- Generator: Adobe Illustrator 16.0.0, SVG Export Plug-In . SVG Version: 6.00 Build 0)  -->
<!DOCTYPE svg PUBLIC "-//W3C//DTD SVG 1.1//EN" "http://www.w3.org/Graphics/SVG/1.1/DTD/svg11.dtd">
<svg version="1.1" id="Version_1.0" xmlns="http://www.w3.org/2000/svg" xmlns:xlink="http://www.w3.org/1999/xlink" x="0px"
	 y="0px" width="612px" height="792px" viewBox="0 0 612 792" style="enable-background:new 0 0 612 792;" xml:space="preserve">
<g id="octagon" style="display:none;">
	<g id="outFrame" style="display:inline;">
		<line style="fill:none;stroke:#0000FF;stroke-width:2;" x1="220" y1="479.5" x2="183.5" y2="393.5"/>
		<line style="fill:none;stroke:#0000FF;stroke-width:2;" x1="183.5" y1="393.5" x2="220" y2="309"/>
		<line style="fill:none;stroke:#0000FF;stroke-width:2;" x1="220" y1="309" x2="306.5" y2="272.5"/>
		<line style="fill:none;stroke:#0000FF;stroke-width:2;" x1="306.5" y1="272.5" x2="393" y2="309"/>
		<line style="fill:none;stroke:#0000FF;stroke-width:2;" x1="393" y1="309" x2="426.5" y2="393.5"/>
		<line style="fill:none;stroke:#0000FF;stroke-width:2;" x1="426.5" y1="393.5" x2="393" y2="479.5"/>
		<line style="fill:none;stroke:#0000FF;stroke-width:2;" x1="393" y1="479.5" x2="306.5" y2="516.5"/>
		<line style="fill:none;stroke:#0000FF;stroke-width:2;" x1="306.5" y1="516.5" x2="220" y2="479.5"/>
	</g>
</g>
<path style="fill:none;stroke:#000000;stroke-width:5;" d="M306,226c77.318,0,140,62.681,140,140H166
	C166,288.681,228.682,226,306,226z"/>
<linearGradient id="SVGID_1_" gradientUnits="userSpaceOnUse" x1="1.7549" y1="397.5625" x2="1.8549" y2="397.3625" gradientTransform="matrix(100 0 0 -200 100.5 79858.5)">
	<stop  offset="0.85" style="stop-color:#FFFFFF"/>
	<stop  offset="0.85" style="stop-color:#000000"/>
</linearGradient>
<rect x="256" y="366" style="fill:url(#SVGID_1_);stroke:#000000;stroke-width:5;" width="100" height="200"/>
<text transform="matrix(1 0 0 1 280 492)" style="font-family:'sans-serif'; font-size:72;">N</text>
<text transform="matrix(1 0 0 1 280 492)" style="fill:none;stroke:#000000; font-family:'sans-serif'; font-size:72;">N</text>
</svg>
