<?xml version="1.0" encoding="utf-8"?>
<!-- Generator: Adobe Illustrator 16.0.0, SVG Export Plug-In . SVG Version: 6.00 Build 0)  -->
<!DOCTYPE svg PUBLIC "-//W3C//DTD SVG 1.1//EN" "http://www.w3.org/Graphics/SVG/1.1/DTD/svg11.dtd">
<svg version="1.1" id="Version_1.0" xmlns="http://www.w3.org/2000/svg" xmlns:xlink="http://www.w3.org/1999/xlink" x="0px"
	 y="0px" width="612px" height="792px" viewBox="0 0 612 792" style="enable-background:new 0 0 612 792;" xml:space="preserve">
<g id="octagon" style="display:none;">
	<g id="outFrame" style="display:inline;">
		<line style="fill:none;stroke:#0000FF;stroke-width:2;" x1="220" y1="479.5" x2="183.5" y2="393.5"/>
		<line style="fill:none;stroke:#0000FF;stroke-width:2;" x1="183.5" y1="393.5" x2="220" y2="309"/>
		<line style="fill:none;stroke:#0000FF;stroke-width:2;" x1="220" y1="309" x2="306.5" y2="272.5"/>
		<line style="fill:none;stroke:#0000FF;stroke-width:2;" x1="306.5" y1="272.5" x2="393" y2="309"/>
		<line style="fill:none;stroke:#0000FF;stroke-width:2;" x1="393" y1="309" x2="426.5" y2="393.5"/>
		<line style="fill:none;stroke:#0000FF;stroke-width:2;" x1="426.5" y1="393.5" x2="393" y2="479.5"/>
		<line style="fill:none;stroke:#0000FF;stroke-width:2;" x1="393" y1="479.5" x2="306.5" y2="516.5"/>
		<line style="fill:none;stroke:#0000FF;stroke-width:2;" x1="306.5" y1="516.5" x2="220" y2="479.5"/>
	</g>
</g>
<g>
	<line style="fill:none;stroke:#000000;stroke-width:10;" x1="278.5" y1="497.5" x2="331.5" y2="497.5"/>
	<line style="fill:none;stroke:#000000;stroke-width:10;" x1="305.5" y1="497.5" x2="305.5" y2="372.5"/>
	<path style="fill:none;stroke:#000000;stroke-width:10;" d="M295.5,353.5l-38-13l11-17l-35-11"/>
	<path style="fill:none;stroke:#000000;stroke-width:10;" d="M315.5,353.5l38-13l-11-17l35-11"/>
	<path style="fill:none;stroke:#000000;stroke-width:10;" d="M295.5,367.5l-38,14l11,16l-35,12"/>
	<path style="fill:none;stroke:#000000;stroke-width:10;" d="M315.5,367.5l38,14l-11,16l35,12"/>
</g>
<g>
	<text transform="matrix(1 0 0 1 245 472)" style="font-family:'sans-serif'; font-size:60;">C</text>
	<text transform="matrix(1 0 0 1 325 472)" style="font-family:'sans-serif'; font-size:60;">M</text>
</g>
</svg>
