<?xml version="1.0" encoding="utf-8"?>
<!-- Generator: Adobe Illustrator 16.0.0, SVG Export Plug-In . SVG Version: 6.00 Build 0)  -->
<!DOCTYPE svg PUBLIC "-//W3C//DTD SVG 1.1//EN" "http://www.w3.org/Graphics/SVG/1.1/DTD/svg11.dtd">
<svg version="1.1" id="Version_1.0" xmlns="http://www.w3.org/2000/svg" xmlns:xlink="http://www.w3.org/1999/xlink" x="0px"
	 y="0px" width="612px" height="792px" viewBox="0 0 612 792" style="enable-background:new 0 0 612 792;" xml:space="preserve">
<g id="octagon" style="display:none;">
	<g id="outFrame" style="display:inline;">
		<line style="fill:none;stroke:#0000FF;stroke-width:2;" x1="220" y1="479.5" x2="183.5" y2="393.5"/>
		<line style="fill:none;stroke:#0000FF;stroke-width:2;" x1="183.5" y1="393.5" x2="220" y2="309"/>
		<line style="fill:none;stroke:#0000FF;stroke-width:2;" x1="220" y1="309" x2="306.5" y2="272.5"/>
		<line style="fill:none;stroke:#0000FF;stroke-width:2;" x1="306.5" y1="272.5" x2="393" y2="309"/>
		<line style="fill:none;stroke:#0000FF;stroke-width:2;" x1="393" y1="309" x2="426.5" y2="393.5"/>
		<line style="fill:none;stroke:#0000FF;stroke-width:2;" x1="426.5" y1="393.5" x2="393" y2="479.5"/>
		<line style="fill:none;stroke:#0000FF;stroke-width:2;" x1="393" y1="479.5" x2="306.5" y2="516.5"/>
		<line style="fill:none;stroke:#0000FF;stroke-width:2;" x1="306.5" y1="516.5" x2="220" y2="479.5"/>
	</g>
</g>
<g>
	<g id="box">
		<rect x="278" y="368.5" style="fill:none;stroke:#000000;stroke-width:8;" width="55" height="110"/>
		<line style="fill:none;stroke:#000000;stroke-width:8;" x1="283.5" y1="403.5" x2="327.5" y2="403.5"/>
		<line style="fill:none;stroke:#000000;stroke-width:8;" x1="305.5" y1="373.5" x2="305.5" y2="473.5"/>
	</g>
	<g>
		<g id="box_1_">
			<rect x="210" y="333.5" style="fill:none;stroke:#000000;stroke-width:8;" width="55" height="110"/>
			<line style="fill:none;stroke:#000000;stroke-width:8;" x1="215.5" y1="368.5" x2="259.5" y2="368.5"/>
			<line style="fill:none;stroke:#000000;stroke-width:8;" x1="237.5" y1="338.5" x2="237.5" y2="438.5"/>
		</g>
	</g>
	<g>
		<g id="box_2_">
			<rect x="346" y="333.5" style="fill:none;stroke:#000000;stroke-width:8;" width="55" height="110"/>
			<line style="fill:none;stroke:#000000;stroke-width:8;" x1="351.5" y1="368.5" x2="395.5" y2="368.5"/>
			<line style="fill:none;stroke:#000000;stroke-width:8;" x1="373.5" y1="338.5" x2="373.5" y2="438.5"/>
		</g>
	</g>
</g>
</svg>
