<?xml version="1.0" encoding="utf-8"?>
<!-- Generator: Adobe Illustrator 16.0.0, SVG Export Plug-In . SVG Version: 6.00 Build 0)  -->
<!DOCTYPE svg PUBLIC "-//W3C//DTD SVG 1.1//EN" "http://www.w3.org/Graphics/SVG/1.1/DTD/svg11.dtd">
<svg version="1.1" id="Version_1.0" xmlns="http://www.w3.org/2000/svg" xmlns:xlink="http://www.w3.org/1999/xlink" x="0px"
	 y="0px" width="612px" height="792px" viewBox="0 0 612 792" enable-background="new 0 0 612 792" xml:space="preserve">
<g id="octagon" display="none">
	<g id="outFrame" display="inline">
		<line fill="none" stroke="#0000FF" stroke-width="2" x1="220" y1="479.5" x2="183.5" y2="393.5"/>
		<line fill="none" stroke="#0000FF" stroke-width="2" x1="183.5" y1="393.5" x2="220" y2="309"/>
		<line fill="none" stroke="#0000FF" stroke-width="2" x1="220" y1="309" x2="306.5" y2="272.5"/>
		<line fill="none" stroke="#0000FF" stroke-width="2" x1="306.5" y1="272.5" x2="393" y2="309"/>
		<line fill="none" stroke="#0000FF" stroke-width="2" x1="393" y1="309" x2="426.5" y2="393.5"/>
		<line fill="none" stroke="#0000FF" stroke-width="2" x1="426.5" y1="393.5" x2="393" y2="479.5"/>
		<line fill="none" stroke="#0000FF" stroke-width="2" x1="393" y1="479.5" x2="306.5" y2="516.5"/>
		<line fill="none" stroke="#0000FF" stroke-width="2" x1="306.5" y1="516.5" x2="220" y2="479.5"/>
	</g>
</g>
<g>
	<g>
		<ellipse fill="#FFFFFF" stroke="#000000" stroke-width="10" cx="305.5" cy="371.5" rx="28" ry="58"/>
		<line fill="none" stroke="#000000" stroke-width="10" x1="250.5" y1="316.5" x2="280.5" y2="346.5"/>
		<line fill="none" stroke="#000000" stroke-width="10" x1="330.5" y1="396.5" x2="360.5" y2="426.5"/>
		<line fill="none" stroke="#000000" stroke-width="10" x1="280.5" y1="396.5" x2="250.5" y2="426.5"/>
		<line fill="none" stroke="#000000" stroke-width="10" x1="360.5" y1="316.5" x2="330.5" y2="346.5"/>
		<line fill="none" stroke="#000000" stroke-width="10" x1="305.5" y1="428.5" x2="305.5" y2="479.5"/>
		<line fill="none" stroke="#000000" stroke-width="10" x1="290.5" y1="479.5" x2="320.5" y2="479.5"/>
	</g>
</g>
</svg>
