<?xml version="1.0" encoding="utf-8"?>
<!-- Generator: Adobe Illustrator 16.0.0, SVG Export Plug-In . SVG Version: 6.00 Build 0)  -->
<!DOCTYPE svg PUBLIC "-//W3C//DTD SVG 1.1//EN" "http://www.w3.org/Graphics/SVG/1.1/DTD/svg11.dtd">
<svg version="1.1" id="Version_1.0" xmlns="http://www.w3.org/2000/svg" xmlns:xlink="http://www.w3.org/1999/xlink" x="0px"
	 y="0px" width="612px" height="792px" viewBox="0 0 612 792" style="enable-background:new 0 0 612 792;" xml:space="preserve">
<g id="octagon" style="display:none;">
	<g id="outFrame" style="display:inline;">
		<line style="fill:none;stroke:#0000FF;stroke-width:2;" x1="220" y1="479.5" x2="183.5" y2="393.5"/>
		<line style="fill:none;stroke:#0000FF;stroke-width:2;" x1="183.5" y1="393.5" x2="220" y2="309"/>
		<line style="fill:none;stroke:#0000FF;stroke-width:2;" x1="220" y1="309" x2="306.5" y2="272.5"/>
		<line style="fill:none;stroke:#0000FF;stroke-width:2;" x1="306.5" y1="272.5" x2="393" y2="309"/>
		<line style="fill:none;stroke:#0000FF;stroke-width:2;" x1="393" y1="309" x2="426.5" y2="393.5"/>
		<line style="fill:none;stroke:#0000FF;stroke-width:2;" x1="426.5" y1="393.5" x2="393" y2="479.5"/>
		<line style="fill:none;stroke:#0000FF;stroke-width:2;" x1="393" y1="479.5" x2="306.5" y2="516.5"/>
		<line style="fill:none;stroke:#0000FF;stroke-width:2;" x1="306.5" y1="516.5" x2="220" y2="479.5"/>
	</g>
</g>
<g id="frame" style="display:none;">
	<polyline id="_x3C_path_x3E_" style="display:inline;fill:none;stroke:#3A58A7;stroke-width:5;stroke-linecap:square;" points="
		306,569 479,396 306,223 133,396 306,569 	"/>
</g>
<g>
	<ellipse style="fill:#010101;stroke:#010101;stroke-width:10;" cx="305.313" cy="393.46" rx="15.3" ry="15.999"/>
</g>
<g>
	<path style="fill:none;stroke:#010101;stroke-width:10;" d="M152.315,410.35c0,2.667,28.05,9.778,28.05-16.89
		c0-26.666,35.701-26.666,35.701,0c0,26.668,35.699,26.668,35.699,0c0-26.666,35.701-26.666,35.701,0
		c0,26.668,35.699,26.668,35.699,0c0-26.666,35.699-26.666,35.699,0c0,26.668,35.699,26.668,35.699,0c0-26.666,35.7-26.666,35.7,0
		c0,26.668,28.051,19.557,28.051,16.89"/>
</g>
</svg>
