<?xml version="1.0" encoding="utf-8"?>
<!-- Generator: Adobe Illustrator 16.0.0, SVG Export Plug-In . SVG Version: 6.00 Build 0)  -->
<!DOCTYPE svg PUBLIC "-//W3C//DTD SVG 1.1//EN" "http://www.w3.org/Graphics/SVG/1.1/DTD/svg11.dtd">
<svg version="1.1" id="Version_1.0" xmlns="http://www.w3.org/2000/svg" xmlns:xlink="http://www.w3.org/1999/xlink" x="0px"
	 y="0px" width="612px" height="792px" viewBox="0 0 612 792" style="enable-background:new 0 0 612 792;" xml:space="preserve">
<g id="octagon" style="display:none;">
	<g id="outFrame" style="display:inline;">
		<line style="fill:none;stroke:#0000FF;stroke-width:2;" x1="220" y1="479.5" x2="183.5" y2="393.5"/>
		<line style="fill:none;stroke:#0000FF;stroke-width:2;" x1="183.5" y1="393.5" x2="220" y2="309"/>
		<line style="fill:none;stroke:#0000FF;stroke-width:2;" x1="220" y1="309" x2="306.5" y2="272.5"/>
		<line style="fill:none;stroke:#0000FF;stroke-width:2;" x1="306.5" y1="272.5" x2="393" y2="309"/>
		<line style="fill:none;stroke:#0000FF;stroke-width:2;" x1="393" y1="309" x2="426.5" y2="393.5"/>
		<line style="fill:none;stroke:#0000FF;stroke-width:2;" x1="426.5" y1="393.5" x2="393" y2="479.5"/>
		<line style="fill:none;stroke:#0000FF;stroke-width:2;" x1="393" y1="479.5" x2="306.5" y2="516.5"/>
		<line style="fill:none;stroke:#0000FF;stroke-width:2;" x1="306.5" y1="516.5" x2="220" y2="479.5"/>
	</g>
</g>
<g id="frame" style="display:none;">
	<path style="display:inline;fill:none;stroke:#0042E9;stroke-width:5;" d="M221,481c0,115,170,115,170,0c115,0,115-170,0-170
		c0-115-170-115-170,0C106,311,106,481,221,481z"/>
</g>
<g>
	<ellipse style="fill:#010101;stroke:#010101;stroke-width:10;" cx="305.313" cy="393.459" rx="16.499" ry="15.999"/>
</g>
<g>
	<path style="fill:none;stroke:#010101;stroke-width:10;" d="M140.315,410.35c0,2.667,30.25,9.777,30.25-16.89
		c0-26.666,38.501-26.666,38.501,0c0,26.667,38.5,26.667,38.5,0c0-26.666,38.501-26.666,38.501,0c0,26.667,38.499,26.667,38.499,0
		c0-26.666,38.5-26.666,38.5,0c0,26.667,38.499,26.667,38.499,0c0-26.666,38.5-26.666,38.5,0c0,26.667,30.251,19.557,30.251,16.89"
		/>
</g>
</svg>
