<?xml version="1.0" encoding="utf-8"?>
<!-- Generator: Adobe Illustrator 16.0.0, SVG Export Plug-In . SVG Version: 6.00 Build 0)  -->
<!DOCTYPE svg PUBLIC "-//W3C//DTD SVG 1.1//EN" "http://www.w3.org/Graphics/SVG/1.1/DTD/svg11.dtd">
<svg version="1.1" id="Version_1.0" xmlns="http://www.w3.org/2000/svg" xmlns:xlink="http://www.w3.org/1999/xlink" x="0px"
	 y="0px" width="612px" height="792px" viewBox="0 0 612 792" style="enable-background:new 0 0 612 792;" xml:space="preserve">
<g id="octagon" style="display:none;">
	<g id="outFrame" style="display:inline;">
		<line style="fill:none;stroke:#0000FF;stroke-width:2;" x1="220" y1="479.5" x2="183.5" y2="393.5"/>
		<line style="fill:none;stroke:#0000FF;stroke-width:2;" x1="183.5" y1="393.5" x2="220" y2="309"/>
		<line style="fill:none;stroke:#0000FF;stroke-width:2;" x1="220" y1="309" x2="306.5" y2="272.5"/>
		<line style="fill:none;stroke:#0000FF;stroke-width:2;" x1="306.5" y1="272.5" x2="393" y2="309"/>
		<line style="fill:none;stroke:#0000FF;stroke-width:2;" x1="393" y1="309" x2="426.5" y2="393.5"/>
		<line style="fill:none;stroke:#0000FF;stroke-width:2;" x1="426.5" y1="393.5" x2="393" y2="479.5"/>
		<line style="fill:none;stroke:#0000FF;stroke-width:2;" x1="393" y1="479.5" x2="306.5" y2="516.5"/>
		<line style="fill:none;stroke:#0000FF;stroke-width:2;" x1="306.5" y1="516.5" x2="220" y2="479.5"/>
	</g>
</g>
<g transform="translate(50 25) scale(0.75 0.75)">
	<g>
		<ellipse style="fill:none;stroke:#000000;stroke-width:10;" cx="340.667" cy="364.667" rx="16" ry="16"/>
		<line style="fill:none;stroke:#000000;stroke-width:10;" x1="340.667" y1="380.667" x2="340.667" y2="540.667"/>
		<line style="fill:none;stroke:#000000;stroke-width:10;" x1="260.667" y1="390.667" x2="420.667" y2="390.667"/>
		<path style="stroke:#000000;stroke-width:10;" d="M240.667,460.667c50,100,150,100,200,0
			C390.667,575.667,290.667,575.667,240.667,460.667"/>
		<path style="stroke:#000000;stroke-width:10;" d="M240.667,460.667c8,45,13,45,13,45l15-20c-13-5-18-15-25-22"/>
		<path style="stroke:#000000;stroke-width:10;" d="M440.667,460.667c-8,45-13,45-13,45l-15-20c13-5,18-15,25-22"/>
	</g>
</g>
<g>
	<text transform="matrix(1 0 0 1 236.3818 490)" style="font-family:'sans-serif'; font-size:65;">YRD</text>
</g>
</svg>
