<?xml version="1.0" encoding="utf-8"?>
<!-- Generator: Adobe Illustrator 16.0.0, SVG Export Plug-In . SVG Version: 6.00 Build 0)  -->
<!DOCTYPE svg PUBLIC "-//W3C//DTD SVG 1.1//EN" "http://www.w3.org/Graphics/SVG/1.1/DTD/svg11.dtd">
<svg version="1.1" id="Version_1.0" xmlns="http://www.w3.org/2000/svg" xmlns:xlink="http://www.w3.org/1999/xlink" x="0px"
	 y="0px" width="612px" height="792px" viewBox="0 0 612 792" style="enable-background:new 0 0 612 792;" xml:space="preserve">
<g id="octagon" style="display:none;">
	<g id="outFrame" style="display:inline;">
		<line style="fill:none;stroke:#0000FF;stroke-width:2;" x1="220" y1="479.5" x2="183.5" y2="393.5"/>
		<line style="fill:none;stroke:#0000FF;stroke-width:2;" x1="183.5" y1="393.5" x2="220" y2="309"/>
		<line style="fill:none;stroke:#0000FF;stroke-width:2;" x1="220" y1="309" x2="306.5" y2="272.5"/>
		<line style="fill:none;stroke:#0000FF;stroke-width:2;" x1="306.5" y1="272.5" x2="393" y2="309"/>
		<line style="fill:none;stroke:#0000FF;stroke-width:2;" x1="393" y1="309" x2="426.5" y2="393.5"/>
		<line style="fill:none;stroke:#0000FF;stroke-width:2;" x1="426.5" y1="393.5" x2="393" y2="479.5"/>
		<line style="fill:none;stroke:#0000FF;stroke-width:2;" x1="393" y1="479.5" x2="306.5" y2="516.5"/>
		<line style="fill:none;stroke:#0000FF;stroke-width:2;" x1="306.5" y1="516.5" x2="220" y2="479.5"/>
	</g>
</g>
<g id="frame" style="display:none;">
	<polyline id="_x3C_path_x3E_" style="display:inline;fill:none;stroke:#3A58A7;stroke-width:5;stroke-linecap:square;" points="
		306,569 479,396 306,223 133,396 306,569 	"/>
</g>
<g transform="translate(40 17) scale(0.8 0.8)">
	<path style="fill:none;stroke:#010101;stroke-width:10;" d="M324.828,422.926l6.945-14.014l6.946,14.014H324.828z"/>
	<line style="fill:none;stroke:#010101;stroke-width:10;" x1="331.773" y1="408.912" x2="331.773" y2="505.925"/>
	<ellipse style="fill:none;stroke:#010101;stroke-width:10;" cx="331.773" cy="514.009" rx="9.028" ry="7.006"/>
</g>
<g transform="translate(0 60)">
	<path style="fill:none;stroke:#010101;stroke-width:10;" d="M180.42,382.242c0,1.615,22.916,5.931,22.916-10.24
		c0-16.169,29.167-16.169,29.167,0c0,16.171,29.167,16.171,29.167,0c0-16.169,29.167-16.169,29.167,0
		c0,16.171,29.168,16.171,29.168,0c0-16.169,29.163-16.169,29.163,0c0,16.171,29.168,16.171,29.168,0
		c0-16.169,29.167-16.169,29.167,0c0,16.171,22.917,11.855,22.917,10.24"/>
</g>
</svg>
