<?xml version="1.0" encoding="utf-8"?>
<!-- Generator: Adobe Illustrator 16.0.0, SVG Export Plug-In . SVG Version: 6.00 Build 0)  -->
<!DOCTYPE svg PUBLIC "-//W3C//DTD SVG 1.1//EN" "http://www.w3.org/Graphics/SVG/1.1/DTD/svg11.dtd">
<svg version="1.1" id="Version_1.0" xmlns="http://www.w3.org/2000/svg" xmlns:xlink="http://www.w3.org/1999/xlink" x="0px"
	 y="0px" width="612px" height="792px" viewBox="0 0 612 792" enable-background="new 0 0 612 792" xml:space="preserve">
<g id="octagon" display="none">
	<g id="outFrame" display="inline">
		<line fill="none" stroke="#0000FF" stroke-width="2" x1="220" y1="306.5" x2="306" y2="270"/>
		<line fill="none" stroke="#0000FF" stroke-width="2" x1="306" y1="270" x2="390.5" y2="306.5"/>
		<line fill="none" stroke="#0000FF" stroke-width="2" x1="390.5" y1="306.5" x2="427" y2="393"/>
		<line fill="none" stroke="#0000FF" stroke-width="2" x1="427" y1="393" x2="390.5" y2="479.5"/>
		<line fill="none" stroke="#0000FF" stroke-width="2" x1="390.5" y1="479.5" x2="306" y2="513"/>
		<line fill="none" stroke="#0000FF" stroke-width="2" x1="306" y1="513" x2="220" y2="479.5"/>
		<line fill="none" stroke="#0000FF" stroke-width="2" x1="220" y1="479.5" x2="183" y2="393"/>
		<line fill="none" stroke="#0000FF" stroke-width="2" x1="183" y1="393" x2="220" y2="306.5"/>
	</g>
	
		<line id="bottom" display="inline" fill="none" stroke="#0000FF" stroke-width="2" x1="203.966" y1="442.015" x2="406.199" y2="442.295"/>
	
		<line id="top" display="inline" fill="none" stroke="#0000FF" stroke-width="2" x1="203.966" y1="343.985" x2="406.199" y2="343.705"/>
</g>
<g id="main">
	<path fill="none" stroke="#000000" stroke-width="5" d="M310.5,400.168l21.557-0.651c-21.724,0.651-25.723-2.684-22.39,6.816
		l43.961,77.261c29.019-16.813,48.568-48.205,48.568-84.076l0,0h-70.14L310.5,400.168z"/>
	<path fill="none" stroke="#000000" stroke-width="5" d="M278.106,399.517L278.106,399.517H207.97l0,0
		c0,35.878,19.557,67.263,48.566,84.076l35.064-60.725C302.222,394.998,313.276,399.517,278.106,399.517z"/>
	<path fill="none" stroke="#000000" stroke-width="5" d="M306,400.167c5.085,0,1.667-0.65,5.5-4.167l42.127-80.567
		c-14.287-8.28-30.873-13.027-48.545-13.027c-17.671,0-34.255,4.748-48.545,13.027L300.172,396
		C303.667,400.333,300.5,400.167,306,400.167z"/>
</g>
<g id="mod2_2_">
	<text id="S" transform="matrix(1 0 0 1 278.0005 506.5557)" font-family="sans-serif" font-size="80">S</text>
</g>
</svg>
