<?xml version="1.0" encoding="utf-8"?>
<!-- Generator: Adobe Illustrator 16.0.0, SVG Export Plug-In . SVG Version: 6.00 Build 0)  -->
<!DOCTYPE svg PUBLIC "-//W3C//DTD SVG 1.1//EN" "http://www.w3.org/Graphics/SVG/1.1/DTD/svg11.dtd">
<svg version="1.1" id="Version_1.0" xmlns="http://www.w3.org/2000/svg" xmlns:xlink="http://www.w3.org/1999/xlink" x="0px"
	 y="0px" width="612px" height="792px" viewBox="0 0 612 792" style="enable-background:new 0 0 612 792;" xml:space="preserve">
<g id="frame" style="display:none;">
	
		<rect id="_x3C_path_x3E_" x="126.082" y="276" style="display:inline;fill:none;stroke:#3A58A7;stroke-width:5;" width="360" height="240"/>
</g>
<g>
	<line style="fill:none;stroke:#000000;stroke-width:10;" x1="125.5" y1="435.5" x2="485.5" y2="435.5"/>
</g>
<g transform="translate(120 160) scale(5 5.5)">
	<path d="M53,40.598c0,2.258-0.457,3.82-1.367,4.684c-1.008,1.01-2.254,1.514-3.74,1.514c-1.297,0-2.424-0.381-3.381-1.146
		c-0.816-0.621-1.463-2.029-1.943-4.229H27.75v4.624h-1.625V41.42h-3.5v4.625H21v-6.25h21.572c0.48-2.156,1.08-3.523,1.799-4.1
		c0.91-0.765,2.035-1.15,3.379-1.15c1.438,0,2.672,0.494,3.703,1.479C52.484,37.009,53,38.533,53,40.598z M22.625,46.045v-1.25h3.5
		v1.25H22.625z M51.375,40.598c0-1.666-0.361-2.82-1.08-3.463c-0.719-0.643-1.559-0.965-2.518-0.965c-1.008,0-1.848,0.311-2.52,0.93
		c-0.672,0.619-1.007,1.785-1.007,3.498c0,1.668,0.371,2.846,1.115,3.537c0.742,0.691,1.594,1.035,2.555,1.035
		c0.959,0,1.775-0.309,2.447-0.928C51.039,43.624,51.375,42.408,51.375,40.598z"/>
</g>
</svg>
