<?xml version="1.0" encoding="utf-8"?>
<!-- Generator: Adobe Illustrator 16.0.0, SVG Export Plug-In . SVG Version: 6.00 Build 0)  -->
<!DOCTYPE svg PUBLIC "-//W3C//DTD SVG 1.1//EN" "http://www.w3.org/Graphics/SVG/1.1/DTD/svg11.dtd">
<svg version="1.1" id="Version_1.0" xmlns="http://www.w3.org/2000/svg" xmlns:xlink="http://www.w3.org/1999/xlink" x="0px"
	 y="0px" width="612px" height="792px" viewBox="0 0 612 792" style="enable-background:new 0 0 612 792;" xml:space="preserve">
<g id="frame" style="display:none;">
	<path style="display:inline;fill:none;stroke:#0042E9;stroke-width:5;" d="M221,480c0,115,170,115,170,0c115,0,115-170,0-170
		c0-115-170-115-170,0C106,310,106,480,221,480z"/>
</g>
<g>
	<line style="fill:none;stroke:#000000;stroke-width:10;" x1="425.5" y1="318.5" x2="185.5" y2="476.5"/>
	<line style="fill:none;stroke:#000000;stroke-width:10;" x1="185.5" y1="318.5" x2="425.5" y2="476.5"/>
</g>
<g>
	<g>
		<ellipse style="fill:none;stroke:#000000;stroke-width:10;" cx="305" cy="301" rx="16" ry="16"/>
		<line style="fill:none;stroke:#000000;stroke-width:10;" x1="305" y1="317" x2="305" y2="477"/>
		<line style="fill:none;stroke:#000000;stroke-width:10;" x1="225" y1="327" x2="385" y2="327"/>
		<path style="stroke:#000000;stroke-width:10;" d="M205,397c50,100,150,100,200,0C355,512,255,512,205,397"/>
		<path style="stroke:#000000;stroke-width:10;" d="M205,397c8,45,13,45,13,45l15-20c-13-5-18-15-25-22"/>
		<path style="stroke:#000000;stroke-width:10;" d="M405,397c-8,45-13,45-13,45l-15-20c13-5,18-15,25-22"/>
	</g>
</g>
</svg>
