<?xml version="1.0" encoding="utf-8"?>
<!-- Generator: Adobe Illustrator 16.0.0, SVG Export Plug-In . SVG Version: 6.00 Build 0)  -->
<!DOCTYPE svg PUBLIC "-//W3C//DTD SVG 1.1//EN" "http://www.w3.org/Graphics/SVG/1.1/DTD/svg11.dtd">
<svg version="1.1" id="Version_1.0" xmlns="http://www.w3.org/2000/svg" xmlns:xlink="http://www.w3.org/1999/xlink" x="0px"
	 y="0px" width="612px" height="792px" viewBox="0 0 612 792" style="enable-background:new 0 0 612 792;" xml:space="preserve">
<g id="frame" style="display:none;">
	<path style="display:inline;fill:none;stroke:#0042E9;stroke-width:5;" d="M221,480c0,115,170,115,170,0c115,0,115-170,0-170
		c0-115-170-115-170,0C106,310,106,480,221,480z"/>
</g>
<g transform="translate(0 40)">
	<text transform="matrix(1 0 0 1 236.0122 428.5)" style="font-family:'sans-serif'; font-size:90;">EW</text>
</g>
<g>
	<g>
		<g>
			<g>
				<path style="fill:none;stroke:#000000;stroke-width:10;" d="M214.555,313.559c0,17.333,26.949,17.333,26.949,0
					c0-17.333,26.951-17.333,26.951,0c0,17.333,26.949,17.333,26.949,0c0-17.333,26.95-17.333,26.95,0
					c0,17.333,21.175,12.711,21.175,10.978"/>
				<path style="fill:none;stroke:#000000;stroke-width:10;" d="M329.862,324.87c0,1.733,21.176,6.355,21.176-10.978
					s26.95-17.333,26.95,0s26.949,17.333,26.949,0"/>
				<path style="fill:none;stroke:#000000;stroke-width:10;" d="M159.654,344.559c0,17.333,26.95,17.333,26.95,0
					c0-17.333,26.95-17.333,26.95,0c0,17.333,26.949,17.333,26.949,0c0-17.333,26.951-17.333,26.951,0
					c0,17.333,26.949,17.333,26.949,0c0-17.333,26.95-17.333,26.95,0c0,17.333,21.175,12.711,21.175,10.978"/>
				<path style="fill:none;stroke:#000000;stroke-width:10;" d="M111.529,355.537"/>
				<path style="fill:none;stroke:#000000;stroke-width:10;" d="M559.862,355.87"/>
				<path style="fill:none;stroke:#000000;stroke-width:10;" d="M328.862,355.87c0,1.733,21.175,6.355,21.175-10.978
					c0-17.333,26.95-17.333,26.95,0c0,17.333,26.95,17.333,26.95,0c0-17.333,26.95-17.333,26.95,0c0,17.333,26.95,17.333,26.95,0"/>
			</g>
		</g>
	</g>
</g>
</svg>
