<?xml version="1.0" encoding="utf-8"?>
<!-- Generator: Adobe Illustrator 16.0.0, SVG Export Plug-In . SVG Version: 6.00 Build 0)  -->
<!DOCTYPE svg PUBLIC "-//W3C//DTD SVG 1.1//EN" "http://www.w3.org/Graphics/SVG/1.1/DTD/svg11.dtd">
<svg version="1.1" id="Version_1.0" xmlns="http://www.w3.org/2000/svg" xmlns:xlink="http://www.w3.org/1999/xlink" x="0px"
	 y="0px" width="612px" height="792px" viewBox="0 0 612 792" style="enable-background:new 0 0 612 792;" xml:space="preserve">
<g id="octagon" style="display:none;">
	<g id="outFrame" style="display:inline;">
		<line style="fill:none;stroke:#0000FF;stroke-width:2;" x1="220" y1="479.5" x2="183.5" y2="393.5"/>
		<line style="fill:none;stroke:#0000FF;stroke-width:2;" x1="183.5" y1="393.5" x2="220" y2="309"/>
		<line style="fill:none;stroke:#0000FF;stroke-width:2;" x1="220" y1="309" x2="306.5" y2="272.5"/>
		<line style="fill:none;stroke:#0000FF;stroke-width:2;" x1="306.5" y1="272.5" x2="393" y2="309"/>
		<line style="fill:none;stroke:#0000FF;stroke-width:2;" x1="393" y1="309" x2="426.5" y2="393.5"/>
		<line style="fill:none;stroke:#0000FF;stroke-width:2;" x1="426.5" y1="393.5" x2="393" y2="479.5"/>
		<line style="fill:none;stroke:#0000FF;stroke-width:2;" x1="393" y1="479.5" x2="306.5" y2="516.5"/>
		<line style="fill:none;stroke:#0000FF;stroke-width:2;" x1="306.5" y1="516.5" x2="220" y2="479.5"/>
	</g>
</g>
<g id="frame_1_" style="display:none;">
	
		<rect id="_x3C_path_x3E__1_" x="126.082" y="276" style="display:inline;fill:none;stroke:#3A58A7;stroke-width:5;" width="360" height="240"/>
</g>
<g>
	<path style="fill:none;stroke:#010101;stroke-width:10;" d="M127.904,406.733c0,2.849,32.771,10.565,32.771-18.283
		c0-28.851,41.709-28.851,41.709,0c0,28.85,41.707,28.85,41.707,0c0-28.851,41.707-28.851,41.707,0c0,28.85,41.708,28.85,41.708,0
		c0-28.851,41.708-28.851,41.708,0c0,28.85,41.708,28.85,41.708,0c0-28.851,41.708-28.851,41.708,0
		c0,28.85,32.773,21.133,32.773,18.283"/>
</g>
<g transform="translate(0 28) scale(1 0.8)">
	<path style="fill:none;stroke:#010101;stroke-width:10;" d="M247.07,378.438c-59.583,0-59.583,115.375,0,115.375h119.167
		c59.583,0,59.583-115.375,0-115.375H247.07z"/>
</g>
<g transform="translate(0 5)">
	<path style="fill:none;stroke:#010101;stroke-width:10;" d="M227.209,419.033c7.13,0,12.911,5.586,12.911,12.482
		c0,6.897-5.78,12.484-12.911,12.484c-7.13,0-12.91-5.586-12.91-12.483C214.299,424.62,220.08,419.033,227.209,419.033z"/>
	<path style="fill:none;stroke:#010101;stroke-width:10;" d="M306.654,419.033c7.13,0,12.91,5.586,12.91,12.482
		c0,6.897-5.78,12.484-12.91,12.484c-7.131,0-12.911-5.586-12.911-12.483C293.743,424.62,299.523,419.033,306.654,419.033z"/>
	<path style="fill:none;stroke:#010101;stroke-width:10;" d="M386.098,419.033c7.13,0,12.91,5.586,12.91,12.482
		c0,6.897-5.78,12.484-12.91,12.484s-12.91-5.586-12.91-12.483C373.188,424.62,378.968,419.033,386.098,419.033z"/>
</g>
<g>
	<line style="fill:none;stroke:#010101;stroke-width:10;" x1="276.862" y1="468.267" x2="336.446" y2="468.267"/>
	<path style="fill:none;stroke:#010101;stroke-width:10;" d="M261.965,455.733c14.895,0,14.895,25.017,0,25.017"/>
	<path style="fill:none;stroke:#010101;stroke-width:10;" d="M351.341,455.733c-14.895,0-14.895,25.017,0,25.017"/>
</g>
</svg>
