<?xml version="1.0" encoding="utf-8"?>
<!-- Generator: Adobe Illustrator 16.0.0, SVG Export Plug-In . SVG Version: 6.00 Build 0)  -->
<!DOCTYPE svg PUBLIC "-//W3C//DTD SVG 1.1//EN" "http://www.w3.org/Graphics/SVG/1.1/DTD/svg11.dtd">
<svg version="1.1" id="Version_1.0" xmlns="http://www.w3.org/2000/svg" xmlns:xlink="http://www.w3.org/1999/xlink" x="0px"
	 y="0px" width="612px" height="792px" viewBox="0 0 612 792" style="enable-background:new 0 0 612 792;" xml:space="preserve">
<g id="frame" style="display:none;">
	<path style="display:inline;fill:none;stroke:#0042E9;stroke-width:5;" d="M221,480c0,115,170,115,170,0c115,0,115-170,0-170
		c0-115-170-115-170,0C106,310,106,480,221,480z"/>
</g>
<g>
	<path style="fill:none;stroke:#000000;stroke-width:10;" d="M335.5,402.5v-70c0-25-60-25-60,0l-0.5,71.923"/>
</g>
<g>
	<line style="fill:none;stroke:#000000;stroke-width:10;" x1="275" y1="349" x2="335" y2="349"/>
	<line style="fill:none;stroke:#000000;stroke-width:10;" x1="275" y1="369" x2="335" y2="369"/>
</g>
<g>
	<path style="fill:none;stroke:#000000;stroke-width:10;" d="M165,467c16.961-35.576,61.131-56.436,110-62.577
		c69.262-8.706,147.961,12.153,172,62.577"/>
</g>
</svg>
