<?xml version="1.0" encoding="utf-8"?>
<!-- Generator: Adobe Illustrator 19.2.0, SVG Export Plug-In . SVG Version: 6.00 Build 0)  -->
<svg version="1.1" id="Version_1.0" xmlns="http://www.w3.org/2000/svg" xmlns:xlink="http://www.w3.org/1999/xlink" x="0px"
	 y="0px" width="612px" height="792px" viewBox="0 0 612 792" style="enable-background:new 0 0 612 792;" xml:space="preserve">
<g id="octagon" style="display:none;">
	<g id="outFrame" style="display:inline;">
		<line style="fill:none;stroke:#3A53A4;stroke-width:2;" x1="221" y1="311.5" x2="307" y2="275"/>
		<line style="fill:none;stroke:#3A53A4;stroke-width:2;" x1="307" y1="275" x2="391.5" y2="311.5"/>
		<line style="fill:none;stroke:#3A53A4;stroke-width:2;" x1="391.5" y1="311.5" x2="428" y2="398"/>
		<line style="fill:none;stroke:#3A53A4;stroke-width:2;" x1="428" y1="398" x2="391.5" y2="484.5"/>
		<line style="fill:none;stroke:#3A53A4;stroke-width:2;" x1="391.5" y1="484.5" x2="307" y2="518"/>
		<line style="fill:none;stroke:#3A53A4;stroke-width:2;" x1="307" y1="518" x2="221" y2="484.5"/>
		<line style="fill:none;stroke:#3A53A4;stroke-width:2;" x1="221" y1="484.5" x2="184" y2="398"/>
		<line style="fill:none;stroke:#3A53A4;stroke-width:2;" x1="184" y1="398" x2="221" y2="311.5"/>
	</g>
	<line id="mod2_1_" style="display:inline;fill:none;stroke:#3A53A4;stroke-width:2;" x1="205" y1="447" x2="407.2" y2="447.3"/>
	<line id="mod1_1_" style="display:inline;fill:none;stroke:#3A53A4;stroke-width:2;" x1="205" y1="349" x2="407.2" y2="348.7"/>
</g>
<g transform="translate(0 -10)">
	<line style="fill:none;stroke:#010101;stroke-width:10;" x1="246" y1="386" x2="366" y2="386"/>
	<path style="fill:none;stroke:#010101;stroke-width:10;" d="M391,361c-35,0-35,50,0,50"/>
	<path style="fill:none;stroke:#010101;stroke-width:10;" d="M221,361c35,0,35,50,0,50"/>
</g>
<g transform="translate(20 23) scale(0.9 0.9)">
	<ellipse style="fill:none;stroke:#010101;stroke-width:10;" cx="237.8" cy="451.7" rx="13" ry="13"/>
	<ellipse style="fill:none;stroke:#010101;stroke-width:10;" cx="397.8" cy="451.7" rx="13" ry="13"/>
	<line style="fill:none;stroke:#010101;stroke-width:10;" x1="219.8" y1="434.7" x2="415.8" y2="434.7"/>
</g>
</svg>
