<?xml version="1.0" encoding="utf-8"?>
<!-- Generator: Adobe Illustrator 16.0.0, SVG Export Plug-In . SVG Version: 6.00 Build 0)  -->
<!DOCTYPE svg PUBLIC "-//W3C//DTD SVG 1.1//EN" "http://www.w3.org/Graphics/SVG/1.1/DTD/svg11.dtd">
<svg version="1.1" id="Version_1.0" xmlns="http://www.w3.org/2000/svg" xmlns:xlink="http://www.w3.org/1999/xlink" x="0px"
	 y="0px" width="612px" height="792px" viewBox="0 0 612 792" style="enable-background:new 0 0 612 792;" xml:space="preserve">
<g id="frame" style="display:none;">
	<path style="display:inline;fill:none;stroke:#0042E9;stroke-width:5;" d="M221,480c0,115,170,115,170,0c115,0,115-170,0-170
		c0-115-170-115-170,0C106,310,106,480,221,480z"/>
</g>
<g transform="translate(10 18) scale(0.95 0.82)">
	<path style="fill:none;stroke:#000000;stroke-width:10;" d="M251.053,391.829c-60,0-60,120,0,120h120c60,0,60-120,0-120H251.053z"
		/>
</g>
<g>
	<line style="fill:none;stroke:#000000;stroke-width:10;" x1="255" y1="311" x2="305" y2="381"/>
	<line style="fill:none;stroke:#000000;stroke-width:10;" x1="355" y1="311" x2="305" y2="381"/>
</g>
<g>
	<ellipse style="fill:none;stroke:#000000;stroke-width:10;" cx="226" cy="456" rx="13" ry="13"/>
	<ellipse style="fill:none;stroke:#000000;stroke-width:10;" cx="306" cy="456" rx="13" ry="13"/>
	<ellipse style="fill:none;stroke:#000000;stroke-width:10;" cx="386" cy="456" rx="13" ry="13"/>
</g>
</svg>
