<?xml version="1.0" encoding="utf-8"?>
<!-- Generator: Adobe Illustrator 19.2.0, SVG Export Plug-In . SVG Version: 6.00 Build 0)  -->
<svg version="1.1" id="Version_1.0" xmlns="http://www.w3.org/2000/svg" xmlns:xlink="http://www.w3.org/1999/xlink" x="0px"
	 y="0px" width="612px" height="792px" viewBox="0 0 612 792" style="enable-background:new 0 0 612 792;" xml:space="preserve">
<g id="octagon" style="display:none;">
	<g id="outFrame" style="display:inline;">
		<line style="fill:none;stroke:#3A53A4;stroke-width:2;" x1="221" y1="311.5" x2="307" y2="275"/>
		<line style="fill:none;stroke:#3A53A4;stroke-width:2;" x1="307" y1="275" x2="391.5" y2="311.5"/>
		<line style="fill:none;stroke:#3A53A4;stroke-width:2;" x1="391.5" y1="311.5" x2="428" y2="398"/>
		<line style="fill:none;stroke:#3A53A4;stroke-width:2;" x1="428" y1="398" x2="391.5" y2="484.5"/>
		<line style="fill:none;stroke:#3A53A4;stroke-width:2;" x1="391.5" y1="484.5" x2="307" y2="518"/>
		<line style="fill:none;stroke:#3A53A4;stroke-width:2;" x1="307" y1="518" x2="221" y2="484.5"/>
		<line style="fill:none;stroke:#3A53A4;stroke-width:2;" x1="221" y1="484.5" x2="184" y2="398"/>
		<line style="fill:none;stroke:#3A53A4;stroke-width:2;" x1="184" y1="398" x2="221" y2="311.5"/>
	</g>
	<line id="mod2_1_" style="display:inline;fill:none;stroke:#3A53A4;stroke-width:2;" x1="205" y1="447" x2="407.2" y2="447.3"/>
	<line id="mod1_1_" style="display:inline;fill:none;stroke:#3A53A4;stroke-width:2;" x1="205" y1="349" x2="407.2" y2="348.7"/>
</g>
<g transform="translate(122 86) scale(5.5 5.5)">
	<path style="fill:#010101;" d="M42.3,74.3H23.6c-3.3,0-4.9-1-4.9-3c0-1.4,0.8-2.3,2.4-2.7c0.8-0.2,2.1-0.3,4.1-0.3h18
		c3.2,0,4.8,1,4.8,3S46.1,74.3,42.3,74.3z M23.5,69.3c-1.7,0-2.5,0.7-2.5,2s1.4,2,4.3,2h17.8c1.8,0,2.7-0.7,2.7-2
		c0-1-0.5-1.6-1.4-1.9c-0.3,0-1.2-0.1-2.7-0.1H23.5z M26.8,45.1h1.6v11.5h-1.6V45.1z M32.1,49.5v-1.6h-3.7v1.6H32.1z M32.1,53.5
		v-1.6h-3.7v1.6H32.1z M33.8,38.4v29.9H32v-30L33.8,38.4L33.8,38.4z M37.2,49.5v-1.7l-3.3,0.1v1.7L37.2,49.5z M37.2,53.5v-1.6h-3.3
		v1.7L37.2,53.5z M37.2,45.1h1.7v11.5h-1.7V45.1z"/>
</g>
</svg>
