<?xml version="1.0" encoding="utf-8"?>
<!-- Generator: Adobe Illustrator 16.0.0, SVG Export Plug-In . SVG Version: 6.00 Build 0)  -->
<!DOCTYPE svg PUBLIC "-//W3C//DTD SVG 1.1//EN" "http://www.w3.org/Graphics/SVG/1.1/DTD/svg11.dtd">
<svg version="1.1" id="Version_1.0" xmlns="http://www.w3.org/2000/svg" xmlns:xlink="http://www.w3.org/1999/xlink" x="0px"
	 y="0px" width="612px" height="792px" viewBox="0 0 612 792" style="enable-background:new 0 0 612 792;" xml:space="preserve">
<g id="frame" style="display:none;">
	<path style="display:inline;fill:none;stroke:#0042E9;stroke-width:5;" d="M221,480c0,115,170,115,170,0c115,0,115-170,0-170
		c0-115-170-115-170,0C106,310,106,480,221,480z"/>
</g>
<g transform="translate(60 109) scale(0.7 0.7)">
	<ellipse style="fill:none;stroke:#000000;stroke-width:10;" cx="350.714" cy="480.714" rx="80" ry="80"/>
	<line style="fill:none;stroke:#000000;stroke-width:10;" x1="286.715" y1="436.715" x2="414.714" y2="524.714"/>
	<line style="fill:none;stroke:#000000;stroke-width:10;" x1="286.715" y1="524.714" x2="414.714" y2="436.715"/>
	<line style="fill:none;stroke:#000000;stroke-width:10;" x1="350.714" y1="400.714" x2="350.714" y2="560.714"/>
</g>
<g transform="translate(80 19) scale(0.6 0.6)">
	<path style="fill:none;stroke:#000000;stroke-width:10;" d="M345,602.667v-132c0-25,60-25,60,0v132"/>
	<line style="fill:none;stroke:#000000;stroke-width:10;" x1="375" y1="602.667" x2="375" y2="450.666"/>
</g>
<g>
	<polyline style="fill:none;stroke:#000000;stroke-width:10;" points="453,336 413,396 453,456 	"/>
</g>
</svg>
