<?xml version="1.0" encoding="utf-8"?>
<!-- Generator: Adobe Illustrator 19.2.0, SVG Export Plug-In . SVG Version: 6.00 Build 0)  -->
<svg version="1.1" id="Version_1.0" xmlns="http://www.w3.org/2000/svg" xmlns:xlink="http://www.w3.org/1999/xlink" x="0px"
	 y="0px" width="612px" height="792px" viewBox="0 0 612 792" style="enable-background:new 0 0 612 792;" xml:space="preserve">
<g id="octagon" style="display:none;">
	<g id="outFrame" style="display:inline;">
		<line style="fill:none;stroke:#3A53A4;stroke-width:2;" x1="221" y1="311.5" x2="307" y2="275"/>
		<line style="fill:none;stroke:#3A53A4;stroke-width:2;" x1="307" y1="275" x2="391.5" y2="311.5"/>
		<line style="fill:none;stroke:#3A53A4;stroke-width:2;" x1="391.5" y1="311.5" x2="428" y2="398"/>
		<line style="fill:none;stroke:#3A53A4;stroke-width:2;" x1="428" y1="398" x2="391.5" y2="484.5"/>
		<line style="fill:none;stroke:#3A53A4;stroke-width:2;" x1="391.5" y1="484.5" x2="307" y2="518"/>
		<line style="fill:none;stroke:#3A53A4;stroke-width:2;" x1="307" y1="518" x2="221" y2="484.5"/>
		<line style="fill:none;stroke:#3A53A4;stroke-width:2;" x1="221" y1="484.5" x2="184" y2="398"/>
		<line style="fill:none;stroke:#3A53A4;stroke-width:2;" x1="184" y1="398" x2="221" y2="311.5"/>
	</g>
	<line id="mod2_1_" style="display:inline;fill:none;stroke:#3A53A4;stroke-width:2;" x1="205" y1="447" x2="407.2" y2="447.3"/>
	<line id="mod1_1_" style="display:inline;fill:none;stroke:#3A53A4;stroke-width:2;" x1="205" y1="349" x2="407.2" y2="348.7"/>
</g>
<g transform="translate(122 86) scale(5.5 5.5)">
	<path style="fill:#010101;" d="M42.3,74.3H23.6c-3.3,0-4.9-1-4.9-3c0-1.4,0.8-2.3,2.4-2.7c0.8-0.2,2.1-0.3,4.1-0.3h18
		c3.2,0,4.8,1,4.8,3S46.1,74.3,42.3,74.3z M23.5,69.3c-1.7,0-2.5,0.7-2.5,2s1.4,2,4.3,2h17.8c1.8,0,2.7-0.7,2.7-2
		c0-1-0.5-1.6-1.4-1.9c-0.3,0-1.2-0.1-2.7-0.1H23.5z M26.8,41.9h1.6v16.2h-1.6V41.9z M36.3,67.1c-0.9,0.8-2,1.2-3.3,1.2
		s-2.5-0.4-3.4-1.2c-0.9-0.8-1.4-1.7-1.4-2.9c0-1.1,0.5-2,1.4-2.8s2-1.2,3.3-1.2c1.3,0,2.4,0.4,3.4,1.2s1.5,1.7,1.4,2.9
		C37.6,65.4,37.1,66.3,36.3,67.1z M32.1,46.6V45h-3.7v1.6H32.1z M32.1,50.6V49h-3.7v1.6H32.1z M32.1,54.6V53h-3.7v1.6H32.1z
		 M33,61.4c-1,0-1.8,0.3-2.4,0.8s-1,1.2-1,2c0,0.8,0.3,1.4,1,2C31.2,66.7,32,67,33,67c0.9,0,1.7-0.3,2.3-0.8c0.6-0.6,1-1.2,1-2
		c0-0.9-0.3-1.5-1-2.1S33.8,61.4,33,61.4z M33.8,38.4v21.8L32,60.3V38.4H33.8z M37.2,46.6V45h-3.3v1.7L37.2,46.6z M37.2,50.6v-1.7
		L33.8,49v1.7L37.2,50.6z M37.2,54.6V53h-3.3v1.7L37.2,54.6z M37.2,41.8h1.7V58h-1.7V41.8z"/>
</g>
</svg>
