<?xml version="1.0" encoding="utf-8"?>
<!-- Generator: Adobe Illustrator 16.0.0, SVG Export Plug-In . SVG Version: 6.00 Build 0)  -->
<!DOCTYPE svg PUBLIC "-//W3C//DTD SVG 1.1//EN" "http://www.w3.org/Graphics/SVG/1.1/DTD/svg11.dtd">
<svg version="1.1" id="Version_1.0" xmlns="http://www.w3.org/2000/svg" xmlns:xlink="http://www.w3.org/1999/xlink" x="0px"
	 y="0px" width="612px" height="792px" viewBox="0 0 612 792" style="enable-background:new 0 0 612 792;" xml:space="preserve">
<g id="octagon" style="display:none;">
	<g id="outFrame" style="display:inline;">
		<line style="fill:none;stroke:#0000FF;stroke-width:2;" x1="220" y1="479.5" x2="183.5" y2="393.5"/>
		<line style="fill:none;stroke:#0000FF;stroke-width:2;" x1="183.5" y1="393.5" x2="220" y2="309"/>
		<line style="fill:none;stroke:#0000FF;stroke-width:2;" x1="220" y1="309" x2="306.5" y2="272.5"/>
		<line style="fill:none;stroke:#0000FF;stroke-width:2;" x1="306.5" y1="272.5" x2="393" y2="309"/>
		<line style="fill:none;stroke:#0000FF;stroke-width:2;" x1="393" y1="309" x2="426.5" y2="393.5"/>
		<line style="fill:none;stroke:#0000FF;stroke-width:2;" x1="426.5" y1="393.5" x2="393" y2="479.5"/>
		<line style="fill:none;stroke:#0000FF;stroke-width:2;" x1="393" y1="479.5" x2="306.5" y2="516.5"/>
		<line style="fill:none;stroke:#0000FF;stroke-width:2;" x1="306.5" y1="516.5" x2="220" y2="479.5"/>
	</g>
</g>
<g id="frame_1_" style="display:none;">
	<polyline id="_x3C_path_x3E__1_" style="display:inline;fill:none;stroke:#3A58A7;stroke-width:5;stroke-linecap:square;" points="
		306,569 479,396 306,223 133,396 306,569 	"/>
</g>
<g>
	<path style="fill:none;stroke:#010101;stroke-width:10;" d="M153.654,406.626c0,2.578,28.057,9.514,28.057-16.449
		c0-25.964,35.702-25.964,35.702,0c0,25.963,35.7,25.963,35.7,0c0-25.964,35.69-25.964,35.69,0c0,25.963,35.71,25.963,35.71,0
		c0-25.964,35.681-25.964,35.681,0c0,25.963,35.724,25.963,35.724,0c0-25.964,35.679-25.964,35.679,0
		c0,25.963,28.06,19.028,28.06,16.449"/>
</g>
<g transform="translate(0 28) scale(1 0.8)">
	<path style="fill:none;stroke:#010101;stroke-width:10;" d="M255.661,387.813c-51.015,0-51.015,103.842,0,103.842h102.007
		c50.969,0,50.969-103.842,0-103.842H255.661z"/>
</g>
<g transform="translate(0 5)">
	<ellipse style="fill:none;stroke:#010101;stroke-width:10;" cx="238.656" cy="428.441" rx="11.052" ry="11.242"/>
	<path style="fill:none;stroke:#010101;stroke-width:10;" d="M306.654,417.199c6.084,0,11.052,5.031,11.052,11.242
		c0,6.21-4.968,11.241-11.052,11.241c-6.107,0-11.052-5.031-11.052-11.241C295.603,422.23,300.547,417.199,306.654,417.199z"/>
	<path style="fill:none;stroke:#010101;stroke-width:10;" d="M374.674,417.199c6.084,0,11.052,5.031,11.052,11.242
		c0,6.21-4.968,11.241-11.052,11.241c-6.129,0-11.053-5.031-11.053-11.241C363.621,422.23,368.545,417.199,374.674,417.199z"/>
</g>
<g>
	<line style="fill:none;stroke:#010101;stroke-width:10;" x1="281.146" y1="462.008" x2="332.14" y2="462.008"/>
	<path style="fill:none;stroke:#010101;stroke-width:10;" d="M268.403,450.742c12.741,0,12.741,22.508,0,22.508"/>
	<path style="fill:none;stroke:#010101;stroke-width:10;" d="M344.903,450.742c-12.765,0-12.765,22.508,0,22.508"/>
</g>
</svg>
