<?xml version="1.0" encoding="utf-8"?>
<!-- Generator: Adobe Illustrator 19.2.0, SVG Export Plug-In . SVG Version: 6.00 Build 0)  -->
<svg version="1.1" id="Version_1.0" xmlns="http://www.w3.org/2000/svg" xmlns:xlink="http://www.w3.org/1999/xlink" x="0px"
	 y="0px" width="612px" height="792px" viewBox="0 0 612 792" style="enable-background:new 0 0 612 792;" xml:space="preserve">
<g id="octagon" style="display:none;">
	<g id="outFrame" style="display:inline;">
		<line style="fill:none;stroke:#3A53A4;stroke-width:2;" x1="221" y1="311.5" x2="307" y2="275"/>
		<line style="fill:none;stroke:#3A53A4;stroke-width:2;" x1="307" y1="275" x2="391.5" y2="311.5"/>
		<line style="fill:none;stroke:#3A53A4;stroke-width:2;" x1="391.5" y1="311.5" x2="428" y2="398"/>
		<line style="fill:none;stroke:#3A53A4;stroke-width:2;" x1="428" y1="398" x2="391.5" y2="484.5"/>
		<line style="fill:none;stroke:#3A53A4;stroke-width:2;" x1="391.5" y1="484.5" x2="307" y2="518"/>
		<line style="fill:none;stroke:#3A53A4;stroke-width:2;" x1="307" y1="518" x2="221" y2="484.5"/>
		<line style="fill:none;stroke:#3A53A4;stroke-width:2;" x1="221" y1="484.5" x2="184" y2="398"/>
		<line style="fill:none;stroke:#3A53A4;stroke-width:2;" x1="184" y1="398" x2="221" y2="311.5"/>
	</g>
	<line id="mod2_1_" style="display:inline;fill:none;stroke:#3A53A4;stroke-width:2;" x1="205" y1="447" x2="407.2" y2="447.3"/>
	<line id="mod1_1_" style="display:inline;fill:none;stroke:#3A53A4;stroke-width:2;" x1="205" y1="349" x2="407.2" y2="348.7"/>
</g>
<g transform="translate(122 86) scale(5.5 5.5)">
	<path style="fill:#010101;" d="M42.5,74.4H23.8c-3.3,0-4.9-1-4.9-3.1c0-1.4,0.8-2.3,2.4-2.7c0.8-0.2,2.1-0.3,4.1-0.3h18
		c3.2,0,4.7,1,4.7,3C48.2,73.3,46.3,74.4,42.5,74.4z M23.7,69.4c-1.7,0-2.5,0.6-2.5,1.9s1.4,1.9,4.3,1.9h17.7c1.8,0,2.7-0.7,2.7-2
		c0-1-0.5-1.6-1.4-1.8c-0.3,0-1.2-0.1-2.7-0.1L23.7,69.4L23.7,69.4z M26.9,45.2h1.6v15.1h-1.6V45.2z M32.3,52.9v-1.6h-3.8v1.6H32.3z
		 M34.2,38.4v29.8l-1.9,0.1V38.4H34.2z M37.4,52.9v-1.7l-3.2,0.1v1.6L37.4,52.9L37.4,52.9z M37.4,45.2H39v15.1h-1.6V45.2z"/>
</g>
</svg>
