<?xml version="1.0" encoding="utf-8"?>
<!-- Generator: Adobe Illustrator 16.0.0, SVG Export Plug-In . SVG Version: 6.00 Build 0)  -->
<!DOCTYPE svg PUBLIC "-//W3C//DTD SVG 1.1//EN" "http://www.w3.org/Graphics/SVG/1.1/DTD/svg11.dtd">
<svg version="1.1" id="Version_1.0" xmlns="http://www.w3.org/2000/svg" xmlns:xlink="http://www.w3.org/1999/xlink" x="0px"
	 y="0px" width="612px" height="792px" viewBox="0 0 612 792" style="enable-background:new 0 0 612 792;" xml:space="preserve">
<g id="frame" style="display:none;">
	<path style="display:inline;fill:none;stroke:#0042E9;stroke-width:5;" d="M221,480c0,115,170,115,170,0c115,0,115-170,0-170
		c0-115-170-115-170,0C106,310,106,480,221,480z"/>
</g>
<g transform="translate(40 115) scale(0.8 0.8)">
	<text transform="matrix(1.25 0 0 1.25 283.1372 483.8757)" style="font-family:'sans-serif'; font-size:72;">MI</text>
</g>
<g>
	<line style="fill:none;stroke:#000000;stroke-width:10;" x1="136" y1="401" x2="476" y2="401"/>
	<path style="fill:#FFFFFF;stroke:#000000;stroke-width:10;" d="M216,366h180l-40,70H256L216,366z"/>
</g>
<g transform="translate(82 10) scale(0.6 0.6)">
	<text transform="matrix(1.6667 0 0 1.6667 271.6691 563.6669)" style="font-family:'sans-serif'; font-size:54;">SCM</text>
</g>
</svg>
