<?xml version="1.0" encoding="utf-8"?>
<!-- Generator: Adobe Illustrator 16.0.0, SVG Export Plug-In . SVG Version: 6.00 Build 0)  -->
<!DOCTYPE svg PUBLIC "-//W3C//DTD SVG 1.1//EN" "http://www.w3.org/Graphics/SVG/1.1/DTD/svg11.dtd">
<svg version="1.1" id="Version_1.0" xmlns="http://www.w3.org/2000/svg" xmlns:xlink="http://www.w3.org/1999/xlink" x="0px"
	 y="0px" width="612px" height="792px" viewBox="0 0 612 792" style="enable-background:new 0 0 612 792;" xml:space="preserve">
<g id="octagon" style="display:none;">
	<g id="outFrame" style="display:inline;">
		<line style="fill:none;stroke:#0000FF;stroke-width:2;" x1="220" y1="479.5" x2="183.5" y2="393.5"/>
		<line style="fill:none;stroke:#0000FF;stroke-width:2;" x1="183.5" y1="393.5" x2="220" y2="309"/>
		<line style="fill:none;stroke:#0000FF;stroke-width:2;" x1="220" y1="309" x2="306.5" y2="272.5"/>
		<line style="fill:none;stroke:#0000FF;stroke-width:2;" x1="306.5" y1="272.5" x2="393" y2="309"/>
		<line style="fill:none;stroke:#0000FF;stroke-width:2;" x1="393" y1="309" x2="426.5" y2="393.5"/>
		<line style="fill:none;stroke:#0000FF;stroke-width:2;" x1="426.5" y1="393.5" x2="393" y2="479.5"/>
		<line style="fill:none;stroke:#0000FF;stroke-width:2;" x1="393" y1="479.5" x2="306.5" y2="516.5"/>
		<line style="fill:none;stroke:#0000FF;stroke-width:2;" x1="306.5" y1="516.5" x2="220" y2="479.5"/>
	</g>
</g>
<g id="frame" style="display:none;">
	<rect x="174" y="264" style="display:inline;fill:none;stroke:#3A58A7;stroke-width:5;" width="264" height="264"/>
</g>
<g transform="translate(40 17) scale(0.8 0.8)">
	<path style="fill:none;stroke:#010101;stroke-width:10;" d="M324.495,408.38l7.278-18.218l7.279,18.218H324.495z"/>
	<line style="fill:none;stroke:#010101;stroke-width:10;" x1="331.774" y1="390.162" x2="331.774" y2="516.279"/>
	<ellipse style="fill:none;stroke:#010101;stroke-width:10;" cx="331.774" cy="526.789" rx="9.46" ry="9.108"/>
</g>
<g transform="translate(0 60)">
	<path style="fill:none;stroke:#010101;stroke-width:10;" d="M174.419,396.676c0,2.101,24.016,7.71,24.016-13.312
		c0-21.02,30.566-21.02,30.566,0c0,21.021,30.568,21.021,30.568,0c0-21.02,30.567-21.02,30.567,0c0,21.021,30.569,21.021,30.569,0
		c0-21.02,30.563-21.02,30.563,0c0,21.021,30.567,21.021,30.567,0c0-21.02,30.567-21.02,30.567,0
		c0,21.021,24.017,15.412,24.017,13.312"/>
</g>
</svg>
