<?xml version="1.0" encoding="utf-8"?>
<!-- Generator: Adobe Illustrator 16.0.3, SVG Export Plug-In . SVG Version: 6.00 Build 0)  -->
<!DOCTYPE svg PUBLIC "-//W3C//DTD SVG 1.1//EN" "http://www.w3.org/Graphics/SVG/1.1/DTD/svg11.dtd">
<svg version="1.1" xmlns="http://www.w3.org/2000/svg" xmlns:xlink="http://www.w3.org/1999/xlink" x="0px" y="0px" width="612px"
	 height="792px" viewBox="0 0 612 792" enable-background="new 0 0 612 792" xml:space="preserve">
<g id="Version_1.0" display="none">
	<g id="octagon" display="inline">
		<g id="outFrame">
			<line fill="none" stroke="#0000FF" stroke-width="2" x1="220" y1="309.5" x2="306" y2="273"/>
			<line fill="none" stroke="#0000FF" stroke-width="2" x1="306" y1="273" x2="390.5" y2="309.5"/>
			<line fill="none" stroke="#0000FF" stroke-width="2" x1="390.5" y1="309.5" x2="427" y2="396"/>
			<line fill="none" stroke="#0000FF" stroke-width="2" x1="427" y1="396" x2="390.5" y2="482.5"/>
			<line fill="none" stroke="#0000FF" stroke-width="2" x1="390.5" y1="482.5" x2="306" y2="516"/>
			<line fill="none" stroke="#0000FF" stroke-width="2" x1="306" y1="516" x2="220" y2="482.5"/>
			<line fill="none" stroke="#0000FF" stroke-width="2" x1="220" y1="482.5" x2="183" y2="396"/>
			<line fill="none" stroke="#0000FF" stroke-width="2" x1="183" y1="396" x2="220" y2="309.5"/>
		</g>
		<line id="mod2_1_" fill="none" stroke="#0000FF" stroke-width="2" x1="203.966" y1="445.015" x2="406.199" y2="445.295"/>
		<line id="mod1_1_" fill="none" stroke="#0000FF" stroke-width="2" x1="203.966" y1="346.985" x2="406.199" y2="346.705"/>
	</g>
</g>
<g id="Layer_2">
	<g id="Layer_1_1_">
		<g id="Layer_3">
			<g>
				<polygon stroke="#000000" points="195.5,397.5 245.5,347.5 365.5,347.5 415.5,397.5 365.5,447.5 245.5,447.5 				"/>
			</g>
			<g>
				<line fill="none" stroke="#000000" stroke-width="20" x1="305" y1="382" x2="305" y2="287"/>
			</g>
		</g>
		<g id="Layer_2_1_" display="none">
			<g id="octagon_1_" display="inline">
				<g id="outFrame_1_">
					<line fill="none" stroke="#0000FF" stroke-width="2" x1="221" y1="296.5" x2="307" y2="260"/>
					<line fill="none" stroke="#0000FF" stroke-width="2" x1="307" y1="260" x2="391.5" y2="296.5"/>
					<line fill="none" stroke="#0000FF" stroke-width="2" x1="391.5" y1="296.5" x2="428" y2="383"/>
					<line fill="none" stroke="#0000FF" stroke-width="2" x1="428" y1="383" x2="391.5" y2="469.5"/>
					<line fill="none" stroke="#0000FF" stroke-width="2" x1="391.5" y1="469.5" x2="307" y2="503"/>
					<line fill="none" stroke="#0000FF" stroke-width="2" x1="307" y1="503" x2="221" y2="469.5"/>
					<line fill="none" stroke="#0000FF" stroke-width="2" x1="221" y1="469.5" x2="184" y2="383"/>
					<line fill="none" stroke="#0000FF" stroke-width="2" x1="184" y1="383" x2="221" y2="296.5"/>
				</g>
				<line id="mod2_2_" fill="none" stroke="#0000FF" stroke-width="2" x1="204.966" y1="432.016" x2="407.199" y2="432.295"/>
				<line id="mod1_2_" fill="none" stroke="#0000FF" stroke-width="2" x1="204.966" y1="333.985" x2="407.199" y2="333.705"/>
			</g>
		</g>
	</g>
	<g id="Layer_3_1_">
		<g>
			<text transform="matrix(1 0 0 1 266.1084 438)" fill="#FFFFFF" font-family="sans-serif" font-size="100">G</text>
			<text transform="matrix(1 0 0 1 266.1084 438)" fill="none" stroke="#000000" font-family="sans-serif" font-size="100">G</text>
		</g>
	</g>
</g>
</svg>
