<?xml version="1.0" encoding="utf-8"?>
<!-- Generator: Adobe Illustrator 16.0.3, SVG Export Plug-In . SVG Version: 6.00 Build 0)  -->
<!DOCTYPE svg PUBLIC "-//W3C//DTD SVG 1.1//EN" "http://www.w3.org/Graphics/SVG/1.1/DTD/svg11.dtd">
<svg version="1.1" xmlns="http://www.w3.org/2000/svg" xmlns:xlink="http://www.w3.org/1999/xlink" x="0px" y="0px" width="612px"
	 height="792px" viewBox="0 0 612 792" enable-background="new 0 0 612 792" xml:space="preserve">
<g id="Version_1.0" display="none">
	<g id="octagon" display="inline">
		<g id="outFrame">
			<line fill="none" stroke="#0000FF" stroke-width="2" x1="220" y1="309.5" x2="306" y2="273"/>
			<line fill="none" stroke="#0000FF" stroke-width="2" x1="306" y1="273" x2="390.5" y2="309.5"/>
			<line fill="none" stroke="#0000FF" stroke-width="2" x1="390.5" y1="309.5" x2="427" y2="396"/>
			<line fill="none" stroke="#0000FF" stroke-width="2" x1="427" y1="396" x2="390.5" y2="482.5"/>
			<line fill="none" stroke="#0000FF" stroke-width="2" x1="390.5" y1="482.5" x2="306" y2="516"/>
			<line fill="none" stroke="#0000FF" stroke-width="2" x1="306" y1="516" x2="220" y2="482.5"/>
			<line fill="none" stroke="#0000FF" stroke-width="2" x1="220" y1="482.5" x2="183" y2="396"/>
			<line fill="none" stroke="#0000FF" stroke-width="2" x1="183" y1="396" x2="220" y2="309.5"/>
		</g>
		<line id="mod2_1_" fill="none" stroke="#0000FF" stroke-width="2" x1="203.966" y1="445.015" x2="406.199" y2="445.295"/>
		<line id="mod1_1_" fill="none" stroke="#0000FF" stroke-width="2" x1="203.966" y1="346.985" x2="406.199" y2="346.705"/>
	</g>
</g>
<g id="Layer_2">
	<g id="Layer_1_1_">
		<g id="Layer_3">
			<g>
				<polygon stroke="#000000" points="195.5,398.5 245.5,348.5 365.5,348.5 415.5,398.5 365.5,448.5 245.5,448.5 				"/>
			</g>
			<g>
				<line fill="none" stroke="#000000" stroke-width="20" x1="305" y1="383" x2="305" y2="288"/>
			</g>
		</g>
		<g id="Layer_2_1_" display="none">
			<g id="octagon_1_" display="inline">
				<g id="outFrame_1_">
					<line fill="none" stroke="#0000FF" stroke-width="2" x1="221" y1="297.5" x2="307" y2="261"/>
					<line fill="none" stroke="#0000FF" stroke-width="2" x1="307" y1="261" x2="391.5" y2="297.5"/>
					<line fill="none" stroke="#0000FF" stroke-width="2" x1="391.5" y1="297.5" x2="428" y2="384"/>
					<line fill="none" stroke="#0000FF" stroke-width="2" x1="428" y1="384" x2="391.5" y2="470.5"/>
					<line fill="none" stroke="#0000FF" stroke-width="2" x1="391.5" y1="470.5" x2="307" y2="504"/>
					<line fill="none" stroke="#0000FF" stroke-width="2" x1="307" y1="504" x2="221" y2="470.5"/>
					<line fill="none" stroke="#0000FF" stroke-width="2" x1="221" y1="470.5" x2="184" y2="384"/>
					<line fill="none" stroke="#0000FF" stroke-width="2" x1="184" y1="384" x2="221" y2="297.5"/>
				</g>
				<line id="mod2_2_" fill="none" stroke="#0000FF" stroke-width="2" x1="204.966" y1="433.016" x2="407.199" y2="433.295"/>
				<line id="mod1_2_" fill="none" stroke="#0000FF" stroke-width="2" x1="204.966" y1="334.985" x2="407.199" y2="334.705"/>
			</g>
		</g>
	</g>
	<g id="Layer_4">
		<g>
			<text transform="matrix(1 0 0 1 271.8916 438)" fill="#FFFFFF" font-family="sans-serif" font-size="100">B</text>
			<text transform="matrix(1 0 0 1 271.8916 438)" fill="none" stroke="#000000" font-family="sans-serif" font-size="100">B</text>
		</g>
	</g>
</g>
</svg>
