<?xml version="1.0" encoding="utf-8"?>
<!-- Generator: Adobe Illustrator 12.0.1, SVG Export Plug-In . SVG Version: 6.00 Build 51448)  -->
<!DOCTYPE svg PUBLIC "-//W3C//DTD SVG 1.1//EN" "http://www.w3.org/Graphics/SVG/1.1/DTD/svg11.dtd" [
	<!ENTITY ns_svg "http://www.w3.org/2000/svg">
	<!ENTITY ns_xlink "http://www.w3.org/1999/xlink">
]>
<svg  version="1.1" id="Version_1.0" xmlns="&ns_svg;" xmlns:xlink="&ns_xlink;" width="612" height="792" viewBox="0 0 612 792"
	 overflow="visible" enable-background="new 0 0 612 792" xml:space="preserve">
<g id="octagon" display="none">
	<polygon fill="none" stroke="#0000FF" stroke-width="2" points="305,516.5 218.733,480.768 183,394.5 218.733,308.233 305,272.5 
		391.268,308.233 427,394.5 391.268,480.768 	"/>
	<line fill="none" stroke="#0000FF" stroke-width="2" x1="202.5" y1="345.7" x2="407.5" y2="345.7"/>
	<line fill="none" stroke="#0000FF" stroke-width="2" x1="202.5" y1="443.3" x2="407.5" y2="443.3"/>
</g>
<g id="main">
	<g transform="translate(166 105) scale(5 5)">
		<path d="M31,52.653l-1.038,0.01c0-0.966-0.089-1.607-0.267-1.921c-0.268-0.652-0.903-0.979-1.907-0.979
			c-0.937,0-1.561,0.326-1.874,0.976c-0.179,0.386-0.268,1.073-0.268,2.061v14.866H24.6V52.795c0-1.423,0.201-2.448,0.603-3.076
			c0.469-0.723,1.329-1.085,2.579-1.085c1.272,0,2.144,0.339,2.613,1.014C30.798,50.227,31,51.229,31,52.653z"/>
	</g>
</g>
</svg>
