<?xml version="1.0" encoding="utf-8"?>
<!-- Generator: Adobe Illustrator 16.0.0, SVG Export Plug-In . SVG Version: 6.00 Build 0)  -->
<!DOCTYPE svg PUBLIC "-//W3C//DTD SVG 1.1//EN" "http://www.w3.org/Graphics/SVG/1.1/DTD/svg11.dtd">
<svg version="1.1" id="Version_1.0" xmlns="http://www.w3.org/2000/svg" xmlns:xlink="http://www.w3.org/1999/xlink" x="0px"
	 y="0px" width="400px" height="400px" viewBox="0 0 400 400" enable-background="new 0 0 400 400" xml:space="preserve">
<pattern  x="-105.5" y="596.5" width="85.248" height="127.238" patternUnits="userSpaceOnUse" id="diamond" viewBox="0 -127.238 85.248 127.238" overflow="visible">
	<g>
		<polygon fill="none" points="0,0 85.248,0 85.248,-127.238 0,-127.238 		"/>
		<polygon fill="none" points="39.614,-63.619 28.415,-80.334 17.217,-63.619 28.416,-46.905 		"/>
		<polygon fill="none" points="25.405,-127.238 25.405,-127.238 3.01,-127.238 14.208,-110.523 		"/>
		<polygon fill="none" points="85.248,-46.905 85.248,-80.334 74.049,-63.619 		"/>
		<polygon fill="none" points="14.207,-59.041 3.039,-42.37 14.208,-25.698 25.377,-42.368 		"/>
		<polygon fill="none" points="29.441,-90.848 39.614,-106.031 28.415,-122.746 17.218,-106.032 28.416,-89.317 		"/>
		<polygon fill="none" points="82.209,-42.369 71.039,-59.041 59.87,-42.37 71.04,-25.699 		"/>
		<polygon fill="none" points="14.208,-68.111 25.406,-84.826 14.208,-101.54 3.01,-84.825 		"/>
		<polygon fill="none" points="53.793,-42.368 42.623,-59.041 31.454,-42.37 42.624,-25.698 		"/>
		<polygon fill="none" points="11.17,-21.163 0,-37.835 0,-4.496 0.002,-4.493 		"/>
		<polygon fill="none" points="59.898,0 82.18,0 71.039,-16.628 		"/>
		<polygon fill="none" points="3.067,0 25.348,0 14.207,-16.63 		"/>
		<polygon fill="none" points="11.199,-63.619 0,-80.334 0,-46.907 0.001,-46.905 		"/>
		<polygon fill="none" points="11.199,-106.031 0,-122.746 0,-89.318 0.001,-89.317 		"/>
		<polygon fill="none" points="85.248,-4.491 85.248,-37.835 74.078,-21.162 		"/>
		<polygon fill="none" points="53.822,-84.826 42.624,-101.54 34.763,-89.808 31.425,-84.826 42.625,-68.112 		"/>
		<polygon fill="none" points="56.833,-46.905 68.031,-63.619 56.832,-80.334 45.634,-63.619 		"/>
		<polygon fill="none" points="59.841,-84.826 71.04,-68.111 82.238,-84.826 71.04,-101.54 63.179,-89.808 		"/>
		<polygon fill="none" points="82.237,-127.238 59.841,-127.238 71.039,-110.524 		"/>
		<polygon fill="none" points="31.482,0 53.764,0 42.623,-16.628 		"/>
		<polygon fill="none" points="53.821,-127.238 31.425,-127.238 42.623,-110.524 		"/>
		<polygon fill="none" points="45.663,-21.163 56.833,-4.491 68.001,-21.163 56.831,-37.834 		"/>
		<polygon fill="none" points="57.857,-90.848 68.03,-106.031 56.832,-122.746 45.633,-106.031 56.832,-89.317 		"/>
		<polygon fill="none" points="17.247,-21.165 28.417,-4.492 39.585,-21.163 28.415,-37.834 		"/>
		<polygon fill="none" points="74.05,-106.031 85.248,-89.317 85.248,-122.745 85.247,-122.746 		"/>
		<polygon points="71.04,-68.111 82.238,-84.826 82.238,-84.826 71.04,-68.111 		"/>
		<polygon points="74.02,-63.575 85.248,-46.816 85.248,-46.905 74.049,-63.619 		"/>
		<polygon points="42.625,-68.112 42.625,-68.111 53.823,-84.826 53.822,-84.826 		"/>
		<polygon points="59.841,-84.826 59.841,-84.826 71.04,-68.111 71.04,-68.111 71.04,-68.111 		"/>
		<polygon points="45.634,-63.619 45.604,-63.574 56.831,-46.818 68.06,-63.576 68.031,-63.619 56.833,-46.905 		"/>
		<polygon points="74.049,-106.031 85.248,-89.317 85.248,-89.317 74.05,-106.031 		"/>
		<polygon points="56.832,-89.317 57.857,-90.848 56.832,-89.317 		"/>
		<polygon points="71.04,-101.54 71.04,-101.541 63.179,-89.808 		"/>
		<path d="M83.171-83.434l-0.933-1.393L71.04-68.111l0,0L59.841-84.826l-0.932,1.393l-2.077,3.1l11.199,16.715l0.029,0.043
			l0.902-1.348c0.465-0.693,1.241-1.107,2.077-1.107s1.611,0.414,2.077,1.107l0.903,1.349l0.029-0.044l11.199-16.715v-1.992
			C84.412-82.326,83.637-82.74,83.171-83.434z"/>
		<polygon points="28.416,-89.317 29.441,-90.848 28.416,-89.317 		"/>
		<polygon points="42.624,-101.541 34.763,-89.808 42.624,-101.54 		"/>
		<path d="M44.7-65.012c0.062,0.094,0.091,0.199,0.14,0.297l0.764,1.141l0.03-0.045l11.198-16.715l2.077-3.1
			c-0.465,0.693-1.241,1.107-2.077,1.107s-1.612-0.414-2.077-1.107l-0.932-1.393L42.625-68.111l0-0.001L31.425-84.826l0,0.001
			L44.7-65.012z"/>
		<polygon points="56.832,-89.317 56.832,-89.317 56.832,-89.317 45.633,-106.031 45.633,-106.031 		"/>
		<polygon points="85.248,-122.745 85.248,-122.747 85.247,-122.746 		"/>
		<polygon points="71.04,-110.523 82.237,-127.238 82.237,-127.238 82.237,-127.238 71.039,-110.524 		"/>
		<path d="M73.117-104.641c-0.001,0.002-0.003,0.004-0.004,0.006l-2.074,3.094v0.001l11.199,16.714l0,0l0.933,1.393
			c0.466,0.693,1.241,1.107,2.077,1.107v-6.991l-11.199-16.714L73.117-104.641z"/>
		<path d="M53.822-84.826L53.822-84.826l0.933,1.393c0.465,0.693,1.241,1.107,2.077,1.107s1.612-0.414,2.077-1.107l0.932-1.393l0,0
			l3.338-4.981l7.86-11.733l2.074-3.094c-0.467,0.69-1.239,1.104-2.073,1.104c-0.836,0-1.612-0.414-2.077-1.109l-12.131-18.105l0,0
			l11.198,16.715L57.857-90.848l-1.025,1.53l0,0l-11.199-16.714l-0.932,1.391c-0.001,0.002-0.003,0.004-0.004,0.006l-2.073,3.094
			v0.001L53.822-84.826z"/>
		<polygon points="42.624,-110.523 53.822,-127.238 53.822,-127.238 53.821,-127.238 42.623,-110.524 		"/>
		<path d="M56.832-122.746l12.131,18.105c0.465,0.695,1.241,1.109,2.077,1.109c0.834,0,1.606-0.413,2.073-1.104
			c0.001-0.002,0.003-0.004,0.004-0.006l0.932-1.391h0.001l11.197-16.715l0.001-0.001v-4.491h-3.011l0,0L71.04-110.523l-0.001-0.001
			l-11.198-16.714H59.33c0,0.486-0.141,0.973-0.422,1.393L56.832-122.746z"/>
		<path d="M44.7-107.424c0.563,0.84,0.563,1.943,0,2.783l-0.003,0.006c0.001-0.002,0.003-0.004,0.004-0.006l0.932-1.391l0,0
			l11.198-16.715l0,0l2.077-3.1c0.281-0.42,0.422-0.906,0.422-1.393h-5.508l0,0l-11.198,16.715l-0.001-0.001l-11.198-16.714l0,0
			L44.7-107.424z"/>
		<polygon points="56.831,-37.834 68.001,-21.163 68.031,-21.207 56.861,-37.878 		"/>
		<polygon points="74.048,-21.207 74.078,-21.162 85.248,-37.835 85.248,-37.919 85.247,-37.921 		"/>
		<path d="M73.116-64.924c-0.466-0.693-1.241-1.107-2.077-1.107s-1.612,0.414-2.077,1.107l-0.902,1.348L56.831-46.818l1.82,2.717
			c0.089,0.097,0.183,0.187,0.257,0.298l0.961,1.434l11.169-16.671l11.17,16.672l0.961-1.435c0.466-0.694,1.241-1.108,2.077-1.108
			h0.001v-1.904L74.02-63.575L73.116-64.924z"/>
		<polygon points="28.415,-37.834 39.585,-21.163 39.615,-21.207 28.444,-37.878 		"/>
		<path d="M44.84-64.715c0.39,0.793,0.361,1.739-0.14,2.486L31.425-42.413l0.029,0.043l11.169-16.671l11.17,16.673l0.962-1.436
			c0.465-0.694,1.241-1.108,2.077-1.108c0.703,0,1.35,0.306,1.819,0.811l-1.82-2.717L45.604-63.574L44.84-64.715z"/>
		<polygon points="56.861,-37.878 56.832,-37.921 45.633,-21.207 45.663,-21.163 56.831,-37.834 		"/>
		<path d="M14.208-68.111l11.198-16.715l0.933,1.393c0.465,0.693,1.241,1.107,2.077,1.107s1.612-0.414,2.077-1.107l0.932-1.392
			L44.7-65.012c0.062,0.094,0.091,0.199,0.14,0.297c0.39,0.793,0.361,1.739-0.14,2.486L31.425-42.413l-0.932-1.391
			c-0.074-0.11-0.168-0.201-0.257-0.298l-13.81-20.611c-0.049-0.1-0.078-0.205-0.141-0.299L14.208-68.111z M17.217-63.619
			l11.199,16.714l11.198-16.714L28.415-80.334L17.217-63.619z"/>
		<path d="M12.13-64.924c0.465-0.695,1.241-1.109,2.077-1.109s1.612,0.414,2.077,1.109l0.142,0.211
			c-0.049-0.1-0.078-0.205-0.141-0.299l-2.077-3.1L3.01-84.825l-0.932,1.392c-0.465,0.693-1.241,1.107-2.077,1.107c0,0,0,0-0.001,0
			v1.992l11.199,16.715L0.001-46.905L0-46.907v0.089L12.13-64.924z"/>
		<polygon points="14.208,-110.523 25.406,-127.238 25.405,-127.238 14.208,-110.523 		"/>
		<path d="M28.415-122.746l11.199,16.715L29.441-90.848l-1.025,1.53l0,0l-11.198-16.715l-0.933,1.392l-2.077,3.101l11.198,16.714
			l0.933,1.393c0.465,0.693,1.241,1.107,2.077,1.107s1.612-0.414,2.077-1.107l0.932-1.392l0-0.001l3.338-4.981l7.86-11.733
			l2.073-3.094l0.003-0.006c0.563-0.84,0.563-1.943,0-2.783l-13.275-19.814h-0.511c0,0.486-0.141,0.973-0.422,1.393L28.415-122.746z
			"/>
		<path d="M2.078-83.434l0.932-1.392l11.199-16.715l2.077-3.101c-0.465,0.695-1.241,1.109-2.077,1.109s-1.612-0.414-2.077-1.109
			l-0.932-1.391L0.001-89.317L0-89.318v6.992c0,0,0,0,0.001,0C0.837-82.326,1.613-82.74,2.078-83.434z"/>
		<polygon points="14.208,-110.523 14.208,-110.523 14.208,-110.523 3.01,-127.238 3.009,-127.238 		"/>
		<polygon points="11.199,-21.207 0.001,-37.921 0,-37.919 0,-37.835 11.17,-21.163 		"/>
		<polygon points="28.444,-37.878 28.416,-37.921 17.218,-21.207 17.247,-21.165 28.415,-37.834 		"/>
		<path d="M2.078-43.804l0.961,1.434l11.168-16.671l11.17,16.673l0.961-1.436c0.465-0.694,1.241-1.108,2.077-1.108
			c0.703,0,1.351,0.306,1.819,0.811l-13.81-20.611l-0.142-0.211c-0.465-0.695-1.241-1.109-2.077-1.109s-1.612,0.414-2.077,1.109
			L0-46.818v1.906c0,0,0,0,0.001,0C0.837-44.912,1.613-44.498,2.078-43.804z"/>
		<path d="M25.405-127.238L25.405-127.238l-11.197,16.715l0,0L3.009-127.238H0v4.492l11.199,16.715l0.932,1.391
			c0.465,0.695,1.241,1.109,2.077,1.109s1.612-0.414,2.077-1.109l0.933-1.392l11.197-16.714l2.077-3.1
			c0.281-0.42,0.422-0.906,0.422-1.393H25.405L25.405-127.238z"/>
		<path d="M58.651-44.102c0.089,0.097,0.183,0.187,0.257,0.298l0.961,1.434l11.17,16.671l-2.078,3.101
			c-0.062,0.093-0.091,0.198-0.14,0.297L56.831-4.405L44.843-22.296c-0.049-0.101-0.079-0.208-0.143-0.303l-2.077-3.1l11.169-16.67
			l0.962-1.436c0.465-0.694,1.241-1.108,2.077-1.108C57.535-44.912,58.182-44.606,58.651-44.102z M68.031-21.207l-11.17-16.671
			l-0.029-0.043L45.633-21.207l0.029,0.044l11.17,16.672l11.168-16.672L68.031-21.207z"/>
		<path d="M44.701-22.599c0.063,0.095,0.093,0.202,0.143,0.303L44.7-22.511c-0.465-0.694-1.241-1.108-2.077-1.108
			s-1.612,0.414-2.077,1.108L28.415-4.406L16.426-22.301c-0.048-0.099-0.078-0.204-0.141-0.298l-2.077-3.1l11.169-16.67l0.961-1.436
			c0.465-0.694,1.241-1.108,2.077-1.108c0.703,0,1.351,0.306,1.819,0.811c0.089,0.097,0.183,0.188,0.257,0.298l0.932,1.391
			l0.029,0.043l11.17,16.672L44.701-22.599z M39.615-21.207l-11.17-16.671l-0.028-0.043L17.218-21.207l0.028,0.042l11.17,16.673
			l11.168-16.671L39.615-21.207z"/>
		<path d="M12.13-22.513c0.465-0.694,1.241-1.108,2.077-1.108s1.612,0.414,2.077,1.108l0.142,0.212
			c-0.048-0.099-0.078-0.204-0.141-0.298l-2.077-3.1L3.039-42.37l-0.961-1.434c-0.465-0.694-1.241-1.108-2.077-1.108
			c0,0,0,0-0.001,0v6.993l0.001-0.002l11.198,16.714l-0.029,0.044L0.002-4.493L0-4.496v0.09L12.13-22.513z"/>
		<path d="M83.17-43.804l-0.961,1.435L71.04-25.699l-2.078,3.101c-0.062,0.093-0.091,0.198-0.14,0.297l0.14-0.209
			c0.465-0.694,1.241-1.108,2.077-1.108s1.611,0.414,2.077,1.108L85.248-4.404v-0.087l-11.17-16.671l-0.03-0.045l11.199-16.714
			l0.001,0.002v-6.993h-0.001C84.411-44.912,83.636-44.498,83.17-43.804z"/>
		<path d="M73.116-22.511c-0.466-0.694-1.241-1.108-2.077-1.108s-1.612,0.414-2.077,1.108l-0.14,0.209L56.831-4.405l2.077,3.1
			c0.265,0.395,0.394,0.849,0.41,1.306h0.581l11.141-16.628L82.18,0h3.068v-4.404L73.116-22.511z"/>
		<path d="M56.831-4.405L44.843-22.296L44.7-22.511c-0.465-0.694-1.241-1.108-2.077-1.108s-1.612,0.414-2.077,1.108L28.415-4.406
			l2.077,3.101C30.757-0.911,30.886-0.457,30.901,0h0.581l11.141-16.628L53.764,0h5.554c-0.016-0.457-0.145-0.911-0.41-1.306
			L56.831-4.405z"/>
		<path d="M28.415-4.406L16.426-22.301l-0.142-0.212c-0.465-0.694-1.241-1.108-2.077-1.108s-1.612,0.414-2.077,1.108L0-4.406V0
			h3.067l11.14-16.63L25.348,0h5.553c-0.016-0.457-0.145-0.911-0.409-1.306L28.415-4.406z"/>
	</g>
</pattern>
<g id="main_1_">
	<polygon fill="url(#diamond)" stroke="#000000" stroke-width="10" points="112.875,323.3 33,198.233 112.875,73.166 
		272.625,73.167 352.5,198.233 272.625,323.3 	"/>
</g>
</svg>
