<?xml version="1.0" encoding="utf-8"?>
<!-- Generator: Adobe Illustrator 16.0.0, SVG Export Plug-In . SVG Version: 6.00 Build 0)  -->
<!DOCTYPE svg PUBLIC "-//W3C//DTD SVG 1.1//EN" "http://www.w3.org/Graphics/SVG/1.1/DTD/svg11.dtd">
<svg version="1.1" id="Version_1.0" xmlns="http://www.w3.org/2000/svg" xmlns:xlink="http://www.w3.org/1999/xlink" x="0px" y="0px"
	 width="400px" height="400px" viewBox="0 0 400 400" enable-background="new 0 0 400 400" xml:space="preserve">
<g id="main">
	<path fill="none" stroke="#808080" stroke-width="5" d="M48.5,250.5c34.394-12.049,46.784-101.958,67.111-101.557
		c6.654,0.133,11.574,3.406,12.445,6.89C137.609,194.048,73.313,173.98,150,250c32.895-11.549,45.284-101.458,65.611-101.057
		c6.654,0.133,11.574,3.406,12.445,6.89C237.609,194.048,173.313,173.98,250,250c32.895-11.549,45.284-101.458,65.611-101.057
		c6.653,0.133,11.572,3.406,12.443,6.89C337.609,194.048,273.313,173.98,350,250"/>
</g>
</svg>
