<?xml version="1.0" encoding="utf-8"?>
<!-- Generator: Adobe Illustrator 16.0.0, SVG Export Plug-In . SVG Version: 6.00 Build 0)  -->
<!DOCTYPE svg PUBLIC "-//W3C//DTD SVG 1.1//EN" "http://www.w3.org/Graphics/SVG/1.1/DTD/svg11.dtd">
<svg version="1.1" id="Version_1.0" xmlns="http://www.w3.org/2000/svg" xmlns:xlink="http://www.w3.org/1999/xlink" x="0px" y="0px"
	 width="400px" height="400px" viewBox="0 0 400 400" enable-background="new 0 0 400 400" xml:space="preserve">
<g id="main">
	<g transform="scale(0.5 0.5) translate(300 200)">
		<line fill="none" stroke="#FF00FF" stroke-width="10" x1="208.326" y1="48" x2="208.326" y2="348"/>
		<line fill="none" stroke="#FF00FF" stroke-width="10" x1="83.326" y1="123" x2="333.326" y2="123"/>
		<path fill="none" stroke="#FF00FF" stroke-width="10" d="M43.326,278c5,50,165,70,165,70s160-20,165-70"/>
	</g>
	<g transform="translate(-150 0)">
		<line fill="none" stroke="#FF00FF" stroke-width="10" x1="170.5" y1="184" x2="240.5" y2="184"/>
		<path fill="none" stroke="#FF00FF" stroke-width="10" d="M179.5,184c14,40,38,40,52,0"/>
	</g>
	<g transform="translate(-50 0)">
		<line fill="none" stroke="#FF00FF" stroke-width="10" x1="170.5" y1="184" x2="240.5" y2="184"/>
		<path fill="none" stroke="#FF00FF" stroke-width="10" d="M179.5,184c14,40,38,40,52,0"/>
	</g>
	<g transform="translate(150 0)">
		<line fill="none" stroke="#FF00FF" stroke-width="10" x1="163.5" y1="184" x2="233.5" y2="184"/>
		<path fill="none" stroke="#FF00FF" stroke-width="10" d="M172.5,184c14,40,38,40,52,0"/>
	</g>
</g>
</svg>
