<?xml version="1.0" encoding="utf-8"?>
<!-- Generator: Adobe Illustrator 16.0.0, SVG Export Plug-In . SVG Version: 6.00 Build 0)  -->
<!DOCTYPE svg PUBLIC "-//W3C//DTD SVG 1.1//EN" "http://www.w3.org/Graphics/SVG/1.1/DTD/svg11.dtd">
<svg version="1.1" id="Version_1.0" xmlns="http://www.w3.org/2000/svg" xmlns:xlink="http://www.w3.org/1999/xlink" x="0px" y="0px"
	 width="400px" height="400px" viewBox="0 0 400 400" enable-background="new 0 0 400 400" xml:space="preserve">
<g id="main">
	<g transform="translate(-150 0)">
		<ellipse fill="#FF00FF" cx="200" cy="208" rx="19" ry="19"/>
		<ellipse fill="#FF00FF" cx="200" cy="58" rx="19" ry="19"/>
		<ellipse fill="#FF00FF" cx="200" cy="358" rx="19" ry="19"/>
	</g>
	<ellipse fill="#FF00FF" cx="200" cy="208" rx="19" ry="19"/>
	<ellipse fill="#FF00FF" cx="200" cy="58" rx="19" ry="19"/>
	<ellipse fill="#FF00FF" cx="200" cy="358" rx="19" ry="19"/>
	<g transform="translate(150 0)">
		<ellipse fill="#FF00FF" cx="200" cy="208" rx="19" ry="19"/>
		<ellipse fill="#FF00FF" cx="200" cy="58" rx="19" ry="19"/>
		<ellipse fill="#FF00FF" cx="200" cy="358" rx="19" ry="19"/>
	</g>
	<ellipse fill="#FF00FF" cx="125" cy="133" rx="19" ry="19"/>
	<ellipse fill="#FF00FF" cx="275" cy="133" rx="19" ry="19"/>
	<ellipse fill="#FF00FF" cx="125" cy="283" rx="19" ry="19"/>
	<ellipse fill="#FF00FF" cx="275" cy="283" rx="19" ry="19"/>
	<line fill="none" stroke="#000000" stroke-width="2" x1="20" y1="35" x2="380" y2="35"/>
	<line fill="none" stroke="#C0C0C0" stroke-width="6" x1="20" y1="25" x2="380" y2="25"/>
</g>
</svg>
