<?xml version="1.0" encoding="utf-8"?>
<!-- Generator: Adobe Illustrator 16.0.0, SVG Export Plug-In . SVG Version: 6.00 Build 0)  -->
<!DOCTYPE svg PUBLIC "-//W3C//DTD SVG 1.1//EN" "http://www.w3.org/Graphics/SVG/1.1/DTD/svg11.dtd">
<svg version="1.1" id="Version_1.0" xmlns="http://www.w3.org/2000/svg" xmlns:xlink="http://www.w3.org/1999/xlink" x="0px" y="0px"
	 width="400px" height="400px" viewBox="0 0 400 400" enable-background="new 0 0 400 400" xml:space="preserve">
<g id="main">
	<ellipse fill="#C0C0C0" cx="25" cy="24" rx="10" ry="10"/>
	<ellipse fill="#C0C0C0" cx="75" cy="24" rx="10" ry="10"/>
	<ellipse fill="#C0C0C0" cx="125" cy="24" rx="10" ry="10"/>
	<ellipse fill="#C0C0C0" cx="175" cy="24" rx="10" ry="10"/>
	<ellipse fill="#C0C0C0" cx="225" cy="24" rx="10" ry="10"/>
	<ellipse fill="#C0C0C0" cx="275" cy="24" rx="10" ry="10"/>
	<ellipse fill="#C0C0C0" cx="325" cy="24" rx="10" ry="10"/>
	<ellipse fill="#C0C0C0" cx="375" cy="24" rx="10" ry="10"/>
	<g transform="translate(0 50)">
		<ellipse fill="#C0C0C0" cx="25" cy="24" rx="10" ry="10"/>
		<ellipse fill="#C0C0C0" cx="75" cy="24" rx="10" ry="10"/>
		<ellipse fill="#C0C0C0" cx="125" cy="24" rx="10" ry="10"/>
		<ellipse fill="#C0C0C0" cx="175" cy="24" rx="10" ry="10"/>
		<ellipse fill="#C0C0C0" cx="225" cy="24" rx="10" ry="10"/>
		<ellipse fill="#C0C0C0" cx="275" cy="24" rx="10" ry="10"/>
		<ellipse fill="#C0C0C0" cx="325" cy="24" rx="10" ry="10"/>
		<ellipse fill="#C0C0C0" cx="375" cy="24" rx="10" ry="10"/>
	</g>
	<g transform="translate(0 100)">
		<ellipse fill="#C0C0C0" cx="25" cy="24" rx="10" ry="10"/>
		<ellipse fill="#C0C0C0" cx="75" cy="24" rx="10" ry="10"/>
		<ellipse fill="#C0C0C0" cx="125" cy="24" rx="10" ry="10"/>
		<ellipse fill="#C0C0C0" cx="175" cy="24" rx="10" ry="10"/>
		<ellipse fill="#C0C0C0" cx="225" cy="24" rx="10" ry="10"/>
		<ellipse fill="#C0C0C0" cx="275" cy="24" rx="10" ry="10"/>
		<ellipse fill="#C0C0C0" cx="325" cy="24" rx="10" ry="10"/>
		<ellipse fill="#C0C0C0" cx="375" cy="24" rx="10" ry="10"/>
	</g>
	<g transform="translate(0 150)">
		<ellipse fill="#C0C0C0" cx="25" cy="24" rx="10" ry="10"/>
		<ellipse fill="#C0C0C0" cx="75" cy="24" rx="10" ry="10"/>
		<ellipse fill="#C0C0C0" cx="125" cy="24" rx="10" ry="10"/>
		<ellipse fill="#C0C0C0" cx="175" cy="24" rx="10" ry="10"/>
		<ellipse fill="#C0C0C0" cx="225" cy="24" rx="10" ry="10"/>
		<ellipse fill="#C0C0C0" cx="275" cy="24" rx="10" ry="10"/>
		<ellipse fill="#C0C0C0" cx="325" cy="24" rx="10" ry="10"/>
		<ellipse fill="#C0C0C0" cx="375" cy="24" rx="10" ry="10"/>
	</g>
	<g transform="translate(0 200)">
		<ellipse fill="#C0C0C0" cx="25" cy="24" rx="10" ry="10"/>
		<ellipse fill="#C0C0C0" cx="75" cy="24" rx="10" ry="10"/>
		<ellipse fill="#C0C0C0" cx="125" cy="24" rx="10" ry="10"/>
		<ellipse fill="#C0C0C0" cx="175" cy="24" rx="10" ry="10"/>
		<ellipse fill="#C0C0C0" cx="225" cy="24" rx="10" ry="10"/>
		<ellipse fill="#C0C0C0" cx="275" cy="24" rx="10" ry="10"/>
		<ellipse fill="#C0C0C0" cx="325" cy="24" rx="10" ry="10"/>
		<ellipse fill="#C0C0C0" cx="375" cy="24" rx="10" ry="10"/>
	</g>
	<g transform="translate(0 250)">
		<ellipse fill="#C0C0C0" cx="25" cy="24" rx="10" ry="10"/>
		<ellipse fill="#C0C0C0" cx="75" cy="24" rx="10" ry="10"/>
		<ellipse fill="#C0C0C0" cx="125" cy="24" rx="10" ry="10"/>
		<ellipse fill="#C0C0C0" cx="175" cy="24" rx="10" ry="10"/>
		<ellipse fill="#C0C0C0" cx="225" cy="24" rx="10" ry="10"/>
		<ellipse fill="#C0C0C0" cx="275" cy="24" rx="10" ry="10"/>
		<ellipse fill="#C0C0C0" cx="325" cy="24" rx="10" ry="10"/>
		<ellipse fill="#C0C0C0" cx="375" cy="24" rx="10" ry="10"/>
	</g>
	<g transform="translate(0 300)">
		<ellipse fill="#C0C0C0" cx="25" cy="24" rx="10" ry="10"/>
		<ellipse fill="#C0C0C0" cx="75" cy="24" rx="10" ry="10"/>
		<ellipse fill="#C0C0C0" cx="125" cy="24" rx="10" ry="10"/>
		<ellipse fill="#C0C0C0" cx="175" cy="24" rx="10" ry="10"/>
		<ellipse fill="#C0C0C0" cx="225" cy="24" rx="10" ry="10"/>
		<ellipse fill="#C0C0C0" cx="275" cy="24" rx="10" ry="10"/>
		<ellipse fill="#C0C0C0" cx="325" cy="24" rx="10" ry="10"/>
		<ellipse fill="#C0C0C0" cx="375" cy="24" rx="10" ry="10"/>
	</g>
	<g transform="translate(0 350)">
		<ellipse fill="#C0C0C0" cx="25" cy="24" rx="10" ry="10"/>
		<ellipse fill="#C0C0C0" cx="75" cy="24" rx="10" ry="10"/>
		<ellipse fill="#C0C0C0" cx="125" cy="24" rx="10" ry="10"/>
		<ellipse fill="#C0C0C0" cx="175" cy="24" rx="10" ry="10"/>
		<ellipse fill="#C0C0C0" cx="225" cy="24" rx="10" ry="10"/>
		<ellipse fill="#C0C0C0" cx="275" cy="24" rx="10" ry="10"/>
		<ellipse fill="#C0C0C0" cx="325" cy="24" rx="10" ry="10"/>
		<ellipse fill="#C0C0C0" cx="375" cy="24" rx="10" ry="10"/>
	</g>
</g>
</svg>
