<?xml version="1.0" encoding="utf-8"?>
<!-- Generator: Adobe Illustrator 16.0.0, SVG Export Plug-In . SVG Version: 6.00 Build 0)  -->
<!DOCTYPE svg PUBLIC "-//W3C//DTD SVG 1.1//EN" "http://www.w3.org/Graphics/SVG/1.1/DTD/svg11.dtd">
<svg version="1.1" id="Version_1.0" xmlns="http://www.w3.org/2000/svg" xmlns:xlink="http://www.w3.org/1999/xlink" x="0px"
	 y="0px" width="612px" height="792px" viewBox="0 0 612 792" enable-background="new 0 0 612 792" xml:space="preserve">
<g id="octagon" display="none">
	<g id="outFrame" display="inline">
		<line fill="none" stroke="#0000FF" stroke-width="2" x1="220" y1="309.5" x2="306" y2="273"/>
		<line fill="none" stroke="#0000FF" stroke-width="2" x1="306" y1="273" x2="390.5" y2="309.5"/>
		<line fill="none" stroke="#0000FF" stroke-width="2" x1="390.5" y1="309.5" x2="427" y2="396"/>
		<line fill="none" stroke="#0000FF" stroke-width="2" x1="427" y1="396" x2="390.5" y2="482.5"/>
		<line fill="none" stroke="#0000FF" stroke-width="2" x1="390.5" y1="482.5" x2="306" y2="516"/>
		<line fill="none" stroke="#0000FF" stroke-width="2" x1="306" y1="516" x2="220" y2="482.5"/>
		<line fill="none" stroke="#0000FF" stroke-width="2" x1="220" y1="482.5" x2="183" y2="396"/>
		<line fill="none" stroke="#0000FF" stroke-width="2" x1="183" y1="396" x2="220" y2="309.5"/>
	</g>
	
		<line id="mod2_1_" display="inline" fill="none" stroke="#0000FF" stroke-width="2" x1="203.966" y1="445.015" x2="406.199" y2="445.295"/>
	
		<line id="mod1_1_" display="inline" fill="none" stroke="#0000FF" stroke-width="2" x1="203.966" y1="346.985" x2="406.199" y2="346.705"/>
</g>
<g id="mod1">
	<path stroke="#000000" stroke-miterlimit="10" d="M340.505,294.954c1.185,0.15,2.681,0.271,3.87,0.421
		c-8.76,10.58-24.5,17.592-36.73,24.712c7.32,3.94,14.541,7.96,21.965,11.79c1.695-2.32,3.5-4.53,5.195-6.84
		c1.118,0.602,1.45,0.853,2.36,1.41c-1.694,2.535-3.022,4.398-4.849,6.925c3.38,1.696,6.487,3.464,9.567,5.334
		c-0.55,0.71-0.93,1.58-1.42,2.36c-3.49-1.7-6.779-3.6-10.146-5.42c-1.554,2.3-3.354,4.35-4.96,6.6
		c-0.903-0.598-1.562-1.122-2.36-1.89c1.626-1.999,3.181-4.06,4.721-6.13c-7.855-4.09-15.471-8.43-23.37-12.49
		c-6.42,3.81-13.42,7.03-19.6,11.08c1.231,2.186,3.157,5.171,4.414,7.268c-0.752,0.569-1.825,1.226-2.576,1.785
		c-1.474-2.236-3.445-5.448-4.908-7.643c-3.235,1.771-6.24,3.505-9.616,5.351c-0.52-0.82-1.016-1.797-1.484-2.751
		c3.436-1.837,6.489-3.53,9.68-5.43c-1.254-2.118-2.515-4.012-3.77-6.36c0.851-0.513,1.992-1.067,2.95-1.6
		c1.28,2.26,2.632,4.603,3.891,6.549c5.91-3.45,12.32-6.4,17.95-10.14c-11.32-6.46-25.614-12.178-32.434-23.128
		c1.391,0.245,3.282,0.775,4.25,0.969c4.405,6.814,11.814,9.83,18.264,13.439c-1.06-1.97-1.88-3.79-2.12-6.13
		c-1.77-17.2,18.413-22.69,27.624-12.96c3.639,3.84,5.76,10.67,2.84,17.91C327.494,306.037,334.785,300.954,340.505,294.954z
		 M318.275,303.347c0.229-18.07-27.415-16.82-26.21,0.71c0.43,6.27,5.11,10.88,11.1,11.79c4.79,0.72,8.771-0.98,11.329-3.54
		C315.475,311.327,318.234,306.697,318.275,303.347z"/>
</g>
</svg>
