<?xml version="1.0" encoding="utf-8"?>
<!-- Generator: Adobe Illustrator 16.0.0, SVG Export Plug-In . SVG Version: 6.00 Build 0)  -->
<!DOCTYPE svg PUBLIC "-//W3C//DTD SVG 1.1//EN" "http://www.w3.org/Graphics/SVG/1.1/DTD/svg11.dtd">
<svg version="1.1" id="Version_1.0" xmlns="http://www.w3.org/2000/svg" xmlns:xlink="http://www.w3.org/1999/xlink" x="0px"
	 y="0px" width="612px" height="792px" viewBox="0 0 612 792" enable-background="new 0 0 612 792" xml:space="preserve">
<g id="Amplifier">
	<path fill="none" stroke="#000000" stroke-width="5" stroke-linecap="round" stroke-linejoin="round" stroke-miterlimit="10" d="
		M479,566.795c-0.01-15.354-11.071-27.796-24.714-27.796c-13.649,0-24.714,12.455-24.714,27.818
		c0,15.361-11.064,27.816-24.714,27.816c-13.648,0-24.715-12.455-24.715-27.816c0-0.009,0-0.017,0-0.022h-0.002
		c-0.009-15.354-11.07-27.796-24.713-27.796c-13.649,0-24.713,12.455-24.713,27.818c0,15.361-11.065,27.816-24.715,27.816
		c-13.65,0-24.714-12.455-24.714-27.816c0-0.009,0-0.017-0.001-0.022c-0.011-15.354-11.072-27.796-24.715-27.796
		c-13.648,0-24.714,12.455-24.714,27.818c0,15.361-11.065,27.816-24.714,27.816c-13.649,0-24.714-12.455-24.714-27.816
		c0-0.009,0-0.017,0-0.022c-0.011-15.354-11.072-27.796-24.715-27.796c-13.648,0-24.714,12.455-24.714,27.818"/>
</g>
</svg>
