<?xml version="1.0" encoding="utf-8"?>
<!-- Generator: Adobe Illustrator 16.0.0, SVG Export Plug-In . SVG Version: 6.00 Build 0)  -->
<!DOCTYPE svg PUBLIC "-//W3C//DTD SVG 1.1//EN" "http://www.w3.org/Graphics/SVG/1.1/DTD/svg11.dtd">
<svg version="1.1" id="Version_1.0" xmlns="http://www.w3.org/2000/svg" xmlns:xlink="http://www.w3.org/1999/xlink" x="0px" y="0px"
	 width="612px" height="792px" viewBox="0 0 612 792" enable-background="new 0 0 612 792" xml:space="preserve">
<g id="octagon" display="none">
	
		<line id="mod2_1_" display="inline" fill="none" stroke="#0000FF" stroke-width="2" x1="203.966" y1="445.015" x2="406.199" y2="445.295"/>
	<path id="mod1_1_" display="inline" fill="none" stroke="#0000FF" stroke-width="2" d="M203.966,346.985
		c0,0,45.097-0.063,92.699-0.128c2.797-0.001,5.603-0.003,8.375-0.009C336,347,368,347,399.24,346.722
		c4.462-0.014,6.959-0.017,6.959-0.017"/>
	<g id="outFrame" display="inline">
		<line fill="none" stroke="#0000FF" stroke-width="2" x1="220" y1="309.5" x2="306" y2="273"/>
		<line fill="none" stroke="#0000FF" stroke-width="2" x1="306" y1="273" x2="390.5" y2="309.5"/>
		<line fill="none" stroke="#0000FF" stroke-width="2" x1="390.5" y1="309.5" x2="427" y2="396"/>
		<line fill="none" stroke="#0000FF" stroke-width="2" x1="427" y1="396" x2="390.5" y2="482.5"/>
		<line fill="none" stroke="#0000FF" stroke-width="2" x1="390.5" y1="482.5" x2="306" y2="516"/>
		<line fill="none" stroke="#0000FF" stroke-width="2" x1="306" y1="516" x2="220" y2="482.5"/>
		<line fill="none" stroke="#0000FF" stroke-width="2" x1="220" y1="482.5" x2="183" y2="396"/>
		<path fill="none" stroke="#0000FF" stroke-width="2" d="M183,396c0,0,1.48-3.46,3.848-8.998C190,377,195,368,198.734,359.215
			c0.916-2.141,1.841-4.303,2.766-6.465c9.25-21.625,18.5-43.25,18.5-43.25"/>
	</g>
</g>
<g id="mod1">
	<path stroke="#000000" stroke-width="8" d="M305.151,338.686c-1.019-1.962-2.107-3.912-3.274-5.822
		c-5.833-9.553-13.615-18.157-24.409-22.803c6.389-2.277,12.003-6.881,16.803-11.424c1.19-1.246,2.327-2.543,3.406-3.877
		c3.39-3.8,5.446-8.132,8.096-12.511c2.356,4.519,5.272,8.659,8.624,12.43c1.116,1.258,2.28,2.474,3.488,3.649
		c4.39,4.737,9.45,8.526,15.652,11.633c-5.729,3.122-10.965,6.802-15.487,11.141c-1.131,1.085-2.217,2.21-3.248,3.371
		C312,328,310,332,307.197,335.805C305.958,337.615,305.151,338.686,305.151,338.686z"/>
</g>
</svg>
