<?xml version="1.0" encoding="utf-8"?>
<!-- Generator: Adobe Illustrator 16.0.0, SVG Export Plug-In . SVG Version: 6.00 Build 0)  -->
<!DOCTYPE svg PUBLIC "-//W3C//DTD SVG 1.1//EN" "http://www.w3.org/Graphics/SVG/1.1/DTD/svg11.dtd">
<svg version="1.1" id="Version_1.0" xmlns="http://www.w3.org/2000/svg" xmlns:xlink="http://www.w3.org/1999/xlink" x="0px"
	 y="0px" width="612px" height="792px" viewBox="0 0 612 792" enable-background="new 0 0 612 792" xml:space="preserve">
<g id="octagon" display="none">
	<g id="outFrame" display="inline">
		<line fill="none" stroke="#0000FF" stroke-width="2" x1="220" y1="309.5" x2="306" y2="273"/>
		<line fill="none" stroke="#0000FF" stroke-width="2" x1="306" y1="273" x2="390.5" y2="309.5"/>
		<line fill="none" stroke="#0000FF" stroke-width="2" x1="390.5" y1="309.5" x2="427" y2="396"/>
		<line fill="none" stroke="#0000FF" stroke-width="2" x1="427" y1="396" x2="390.5" y2="482.5"/>
		<line fill="none" stroke="#0000FF" stroke-width="2" x1="390.5" y1="482.5" x2="306" y2="516"/>
		<line fill="none" stroke="#0000FF" stroke-width="2" x1="306" y1="516" x2="220" y2="482.5"/>
		<line fill="none" stroke="#0000FF" stroke-width="2" x1="220" y1="482.5" x2="183" y2="396"/>
		<line fill="none" stroke="#0000FF" stroke-width="2" x1="183" y1="396" x2="220" y2="309.5"/>
	</g>
	
		<line id="mod2_1_" display="inline" fill="none" stroke="#0000FF" stroke-width="2" x1="203.966" y1="445.015" x2="406.199" y2="445.295"/>
	
		<line id="mod1_1_" display="inline" fill="none" stroke="#0000FF" stroke-width="2" x1="203.966" y1="346.985" x2="406.199" y2="346.705"/>
</g>
<g id="mod1">
	<line fill="none" stroke="#000000" stroke-width="5" x1="305.631" y1="301.731" x2="305.631" y2="288.863"/>
	<line fill="none" stroke="#000000" stroke-width="5" x1="290.302" y1="288.912" x2="320.961" y2="288.912"/>
	<line fill="none" stroke="#000000" stroke-width="5" x1="287.158" y1="307.583" x2="254.926" y2="307.583"/>
	<line fill="none" stroke="#000000" stroke-width="5" x1="287.6" y1="333.524" x2="255.369" y2="333.524"/>
	<line fill="none" stroke="#000000" stroke-width="5" x1="357.074" y1="333.524" x2="324.844" y2="333.524"/>
	<line fill="none" stroke="#000000" stroke-width="5" x1="356.631" y1="307.583" x2="324.4" y2="307.583"/>
	<rect x="287.158" y="301.731" fill="none" stroke="#000000" stroke-width="5" width="38.127" height="38.131"/>
</g>
</svg>
